<?xml version="1.0" encoding="utf-8" standalone="no"?>
<!DOCTYPE svg PUBLIC "-//W3C//DTD SVG 1.1//EN"
  "http://www.w3.org/Graphics/SVG/1.1/DTD/svg11.dtd">
<svg xmlns:xlink="http://www.w3.org/1999/xlink" width="460.8pt" height="345.6pt" viewBox="0 0 460.8 345.6" xmlns="http://www.w3.org/2000/svg" version="1.1">
 <metadata>
  <rdf:RDF xmlns:dc="http://purl.org/dc/elements/1.1/" xmlns:cc="http://creativecommons.org/ns#" xmlns:rdf="http://www.w3.org/1999/02/22-rdf-syntax-ns#">
   <cc:Work>
    <dc:type rdf:resource="http://purl.org/dc/dcmitype/StillImage"/>
    <dc:date>2025-04-13T17:19:49.959685</dc:date>
    <dc:format>image/svg+xml</dc:format>
    <dc:creator>
     <cc:Agent>
      <dc:title>Matplotlib v3.10.1, https://matplotlib.org/</dc:title>
     </cc:Agent>
    </dc:creator>
   </cc:Work>
  </rdf:RDF>
 </metadata>
 <defs>
  <style type="text/css">*{stroke-linejoin: round; stroke-linecap: butt}</style>
 </defs>
 <g id="figure_1">
  <g id="patch_1">
   <path d="M 0 345.6 
L 460.8 345.6 
L 460.8 0 
L 0 0 
z
" style="fill: #ffffff"/>
  </g>
  <g id="axes_1">
   <g id="patch_2">
    <path d="M 50.565625 304.44375 
L 384.9225 304.44375 
L 384.9225 10.8 
L 50.565625 10.8 
z
" style="fill: #ffffff"/>
   </g>
   <g id="matplotlib.axis_1">
    <g id="xtick_1">
     <g id="line2d_1">
      <defs>
       <path id="m7e9c74293d" d="M 0 0 
L 0 3.5 
" style="stroke: #000000; stroke-width: 0.8"/>
      </defs>
      <g>
       <use xlink:href="#m7e9c74293d" x="65.733266" y="304.44375" style="stroke: #000000; stroke-width: 0.8"/>
      </g>
     </g>
     <g id="text_1">
      <!-- 0 -->
      <g transform="translate(62.552016 319.042187) scale(0.1 -0.1)">
       <defs>
        <path id="DejaVuSans-30" d="M 2034 4250 
Q 1547 4250 1301 3770 
Q 1056 3291 1056 2328 
Q 1056 1369 1301 889 
Q 1547 409 2034 409 
Q 2525 409 2770 889 
Q 3016 1369 3016 2328 
Q 3016 3291 2770 3770 
Q 2525 4250 2034 4250 
z
M 2034 4750 
Q 2819 4750 3233 4129 
Q 3647 3509 3647 2328 
Q 3647 1150 3233 529 
Q 2819 -91 2034 -91 
Q 1250 -91 836 529 
Q 422 1150 422 2328 
Q 422 3509 836 4129 
Q 1250 4750 2034 4750 
z
" transform="scale(0.015625)"/>
       </defs>
       <use xlink:href="#DejaVuSans-30"/>
      </g>
     </g>
    </g>
    <g id="xtick_2">
     <g id="line2d_2">
      <g>
       <use xlink:href="#m7e9c74293d" x="126.531505" y="304.44375" style="stroke: #000000; stroke-width: 0.8"/>
      </g>
     </g>
     <g id="text_2">
      <!-- 2000 -->
      <g transform="translate(113.806505 319.042187) scale(0.1 -0.1)">
       <defs>
        <path id="DejaVuSans-32" d="M 1228 531 
L 3431 531 
L 3431 0 
L 469 0 
L 469 531 
Q 828 903 1448 1529 
Q 2069 2156 2228 2338 
Q 2531 2678 2651 2914 
Q 2772 3150 2772 3378 
Q 2772 3750 2511 3984 
Q 2250 4219 1831 4219 
Q 1534 4219 1204 4116 
Q 875 4013 500 3803 
L 500 4441 
Q 881 4594 1212 4672 
Q 1544 4750 1819 4750 
Q 2544 4750 2975 4387 
Q 3406 4025 3406 3419 
Q 3406 3131 3298 2873 
Q 3191 2616 2906 2266 
Q 2828 2175 2409 1742 
Q 1991 1309 1228 531 
z
" transform="scale(0.015625)"/>
       </defs>
       <use xlink:href="#DejaVuSans-32"/>
       <use xlink:href="#DejaVuSans-30" transform="translate(63.623047 0)"/>
       <use xlink:href="#DejaVuSans-30" transform="translate(127.246094 0)"/>
       <use xlink:href="#DejaVuSans-30" transform="translate(190.869141 0)"/>
      </g>
     </g>
    </g>
    <g id="xtick_3">
     <g id="line2d_3">
      <g>
       <use xlink:href="#m7e9c74293d" x="187.329743" y="304.44375" style="stroke: #000000; stroke-width: 0.8"/>
      </g>
     </g>
     <g id="text_3">
      <!-- 4000 -->
      <g transform="translate(174.604743 319.042187) scale(0.1 -0.1)">
       <defs>
        <path id="DejaVuSans-34" d="M 2419 4116 
L 825 1625 
L 2419 1625 
L 2419 4116 
z
M 2253 4666 
L 3047 4666 
L 3047 1625 
L 3713 1625 
L 3713 1100 
L 3047 1100 
L 3047 0 
L 2419 0 
L 2419 1100 
L 313 1100 
L 313 1709 
L 2253 4666 
z
" transform="scale(0.015625)"/>
       </defs>
       <use xlink:href="#DejaVuSans-34"/>
       <use xlink:href="#DejaVuSans-30" transform="translate(63.623047 0)"/>
       <use xlink:href="#DejaVuSans-30" transform="translate(127.246094 0)"/>
       <use xlink:href="#DejaVuSans-30" transform="translate(190.869141 0)"/>
      </g>
     </g>
    </g>
    <g id="xtick_4">
     <g id="line2d_4">
      <g>
       <use xlink:href="#m7e9c74293d" x="248.127982" y="304.44375" style="stroke: #000000; stroke-width: 0.8"/>
      </g>
     </g>
     <g id="text_4">
      <!-- 6000 -->
      <g transform="translate(235.402982 319.042187) scale(0.1 -0.1)">
       <defs>
        <path id="DejaVuSans-36" d="M 2113 2584 
Q 1688 2584 1439 2293 
Q 1191 2003 1191 1497 
Q 1191 994 1439 701 
Q 1688 409 2113 409 
Q 2538 409 2786 701 
Q 3034 994 3034 1497 
Q 3034 2003 2786 2293 
Q 2538 2584 2113 2584 
z
M 3366 4563 
L 3366 3988 
Q 3128 4100 2886 4159 
Q 2644 4219 2406 4219 
Q 1781 4219 1451 3797 
Q 1122 3375 1075 2522 
Q 1259 2794 1537 2939 
Q 1816 3084 2150 3084 
Q 2853 3084 3261 2657 
Q 3669 2231 3669 1497 
Q 3669 778 3244 343 
Q 2819 -91 2113 -91 
Q 1303 -91 875 529 
Q 447 1150 447 2328 
Q 447 3434 972 4092 
Q 1497 4750 2381 4750 
Q 2619 4750 2861 4703 
Q 3103 4656 3366 4563 
z
" transform="scale(0.015625)"/>
       </defs>
       <use xlink:href="#DejaVuSans-36"/>
       <use xlink:href="#DejaVuSans-30" transform="translate(63.623047 0)"/>
       <use xlink:href="#DejaVuSans-30" transform="translate(127.246094 0)"/>
       <use xlink:href="#DejaVuSans-30" transform="translate(190.869141 0)"/>
      </g>
     </g>
    </g>
    <g id="xtick_5">
     <g id="line2d_5">
      <g>
       <use xlink:href="#m7e9c74293d" x="308.926221" y="304.44375" style="stroke: #000000; stroke-width: 0.8"/>
      </g>
     </g>
     <g id="text_5">
      <!-- 8000 -->
      <g transform="translate(296.201221 319.042187) scale(0.1 -0.1)">
       <defs>
        <path id="DejaVuSans-38" d="M 2034 2216 
Q 1584 2216 1326 1975 
Q 1069 1734 1069 1313 
Q 1069 891 1326 650 
Q 1584 409 2034 409 
Q 2484 409 2743 651 
Q 3003 894 3003 1313 
Q 3003 1734 2745 1975 
Q 2488 2216 2034 2216 
z
M 1403 2484 
Q 997 2584 770 2862 
Q 544 3141 544 3541 
Q 544 4100 942 4425 
Q 1341 4750 2034 4750 
Q 2731 4750 3128 4425 
Q 3525 4100 3525 3541 
Q 3525 3141 3298 2862 
Q 3072 2584 2669 2484 
Q 3125 2378 3379 2068 
Q 3634 1759 3634 1313 
Q 3634 634 3220 271 
Q 2806 -91 2034 -91 
Q 1263 -91 848 271 
Q 434 634 434 1313 
Q 434 1759 690 2068 
Q 947 2378 1403 2484 
z
M 1172 3481 
Q 1172 3119 1398 2916 
Q 1625 2713 2034 2713 
Q 2441 2713 2670 2916 
Q 2900 3119 2900 3481 
Q 2900 3844 2670 4047 
Q 2441 4250 2034 4250 
Q 1625 4250 1398 4047 
Q 1172 3844 1172 3481 
z
" transform="scale(0.015625)"/>
       </defs>
       <use xlink:href="#DejaVuSans-38"/>
       <use xlink:href="#DejaVuSans-30" transform="translate(63.623047 0)"/>
       <use xlink:href="#DejaVuSans-30" transform="translate(127.246094 0)"/>
       <use xlink:href="#DejaVuSans-30" transform="translate(190.869141 0)"/>
      </g>
     </g>
    </g>
    <g id="xtick_6">
     <g id="line2d_6">
      <g>
       <use xlink:href="#m7e9c74293d" x="369.72446" y="304.44375" style="stroke: #000000; stroke-width: 0.8"/>
      </g>
     </g>
     <g id="text_6">
      <!-- 10000 -->
      <g transform="translate(353.81821 319.042187) scale(0.1 -0.1)">
       <defs>
        <path id="DejaVuSans-31" d="M 794 531 
L 1825 531 
L 1825 4091 
L 703 3866 
L 703 4441 
L 1819 4666 
L 2450 4666 
L 2450 531 
L 3481 531 
L 3481 0 
L 794 0 
L 794 531 
z
" transform="scale(0.015625)"/>
       </defs>
       <use xlink:href="#DejaVuSans-31"/>
       <use xlink:href="#DejaVuSans-30" transform="translate(63.623047 0)"/>
       <use xlink:href="#DejaVuSans-30" transform="translate(127.246094 0)"/>
       <use xlink:href="#DejaVuSans-30" transform="translate(190.869141 0)"/>
       <use xlink:href="#DejaVuSans-30" transform="translate(254.492188 0)"/>
      </g>
     </g>
    </g>
    <g id="text_7">
     <!-- n runs -->
     <g transform="translate(201.988594 332.720312) scale(0.1 -0.1)">
      <defs>
       <path id="DejaVuSans-6e" d="M 3513 2113 
L 3513 0 
L 2938 0 
L 2938 2094 
Q 2938 2591 2744 2837 
Q 2550 3084 2163 3084 
Q 1697 3084 1428 2787 
Q 1159 2491 1159 1978 
L 1159 0 
L 581 0 
L 581 3500 
L 1159 3500 
L 1159 2956 
Q 1366 3272 1645 3428 
Q 1925 3584 2291 3584 
Q 2894 3584 3203 3211 
Q 3513 2838 3513 2113 
z
" transform="scale(0.015625)"/>
       <path id="DejaVuSans-20" transform="scale(0.015625)"/>
       <path id="DejaVuSans-72" d="M 2631 2963 
Q 2534 3019 2420 3045 
Q 2306 3072 2169 3072 
Q 1681 3072 1420 2755 
Q 1159 2438 1159 1844 
L 1159 0 
L 581 0 
L 581 3500 
L 1159 3500 
L 1159 2956 
Q 1341 3275 1631 3429 
Q 1922 3584 2338 3584 
Q 2397 3584 2469 3576 
Q 2541 3569 2628 3553 
L 2631 2963 
z
" transform="scale(0.015625)"/>
       <path id="DejaVuSans-75" d="M 544 1381 
L 544 3500 
L 1119 3500 
L 1119 1403 
Q 1119 906 1312 657 
Q 1506 409 1894 409 
Q 2359 409 2629 706 
Q 2900 1003 2900 1516 
L 2900 3500 
L 3475 3500 
L 3475 0 
L 2900 0 
L 2900 538 
Q 2691 219 2414 64 
Q 2138 -91 1772 -91 
Q 1169 -91 856 284 
Q 544 659 544 1381 
z
M 1991 3584 
L 1991 3584 
z
" transform="scale(0.015625)"/>
       <path id="DejaVuSans-73" d="M 2834 3397 
L 2834 2853 
Q 2591 2978 2328 3040 
Q 2066 3103 1784 3103 
Q 1356 3103 1142 2972 
Q 928 2841 928 2578 
Q 928 2378 1081 2264 
Q 1234 2150 1697 2047 
L 1894 2003 
Q 2506 1872 2764 1633 
Q 3022 1394 3022 966 
Q 3022 478 2636 193 
Q 2250 -91 1575 -91 
Q 1294 -91 989 -36 
Q 684 19 347 128 
L 347 722 
Q 666 556 975 473 
Q 1284 391 1588 391 
Q 1994 391 2212 530 
Q 2431 669 2431 922 
Q 2431 1156 2273 1281 
Q 2116 1406 1581 1522 
L 1381 1569 
Q 847 1681 609 1914 
Q 372 2147 372 2553 
Q 372 3047 722 3315 
Q 1072 3584 1716 3584 
Q 2034 3584 2315 3537 
Q 2597 3491 2834 3397 
z
" transform="scale(0.015625)"/>
      </defs>
      <use xlink:href="#DejaVuSans-6e"/>
      <use xlink:href="#DejaVuSans-20" transform="translate(63.378906 0)"/>
      <use xlink:href="#DejaVuSans-72" transform="translate(95.166016 0)"/>
      <use xlink:href="#DejaVuSans-75" transform="translate(136.279297 0)"/>
      <use xlink:href="#DejaVuSans-6e" transform="translate(199.658203 0)"/>
      <use xlink:href="#DejaVuSans-73" transform="translate(263.037109 0)"/>
     </g>
    </g>
   </g>
   <g id="matplotlib.axis_2">
    <g id="ytick_1">
     <g id="line2d_7">
      <defs>
       <path id="m9c202212dd" d="M 0 0 
L -3.5 0 
" style="stroke: #000000; stroke-width: 0.8"/>
      </defs>
      <g>
       <use xlink:href="#m9c202212dd" x="50.565625" y="291.096307" style="stroke: #000000; stroke-width: 0.8"/>
      </g>
     </g>
     <g id="text_8">
      <!-- 0 -->
      <g transform="translate(37.203125 294.895526) scale(0.1 -0.1)">
       <use xlink:href="#DejaVuSans-30"/>
      </g>
     </g>
    </g>
    <g id="ytick_2">
     <g id="line2d_8">
      <g>
       <use xlink:href="#m9c202212dd" x="50.565625" y="248.92429" style="stroke: #000000; stroke-width: 0.8"/>
      </g>
     </g>
     <g id="text_9">
      <!-- 100 -->
      <g transform="translate(24.478125 252.723509) scale(0.1 -0.1)">
       <use xlink:href="#DejaVuSans-31"/>
       <use xlink:href="#DejaVuSans-30" transform="translate(63.623047 0)"/>
       <use xlink:href="#DejaVuSans-30" transform="translate(127.246094 0)"/>
      </g>
     </g>
    </g>
    <g id="ytick_3">
     <g id="line2d_9">
      <g>
       <use xlink:href="#m9c202212dd" x="50.565625" y="206.752274" style="stroke: #000000; stroke-width: 0.8"/>
      </g>
     </g>
     <g id="text_10">
      <!-- 200 -->
      <g transform="translate(24.478125 210.551493) scale(0.1 -0.1)">
       <use xlink:href="#DejaVuSans-32"/>
       <use xlink:href="#DejaVuSans-30" transform="translate(63.623047 0)"/>
       <use xlink:href="#DejaVuSans-30" transform="translate(127.246094 0)"/>
      </g>
     </g>
    </g>
    <g id="ytick_4">
     <g id="line2d_10">
      <g>
       <use xlink:href="#m9c202212dd" x="50.565625" y="164.580258" style="stroke: #000000; stroke-width: 0.8"/>
      </g>
     </g>
     <g id="text_11">
      <!-- 300 -->
      <g transform="translate(24.478125 168.379476) scale(0.1 -0.1)">
       <defs>
        <path id="DejaVuSans-33" d="M 2597 2516 
Q 3050 2419 3304 2112 
Q 3559 1806 3559 1356 
Q 3559 666 3084 287 
Q 2609 -91 1734 -91 
Q 1441 -91 1130 -33 
Q 819 25 488 141 
L 488 750 
Q 750 597 1062 519 
Q 1375 441 1716 441 
Q 2309 441 2620 675 
Q 2931 909 2931 1356 
Q 2931 1769 2642 2001 
Q 2353 2234 1838 2234 
L 1294 2234 
L 1294 2753 
L 1863 2753 
Q 2328 2753 2575 2939 
Q 2822 3125 2822 3475 
Q 2822 3834 2567 4026 
Q 2313 4219 1838 4219 
Q 1578 4219 1281 4162 
Q 984 4106 628 3988 
L 628 4550 
Q 988 4650 1302 4700 
Q 1616 4750 1894 4750 
Q 2613 4750 3031 4423 
Q 3450 4097 3450 3541 
Q 3450 3153 3228 2886 
Q 3006 2619 2597 2516 
z
" transform="scale(0.015625)"/>
       </defs>
       <use xlink:href="#DejaVuSans-33"/>
       <use xlink:href="#DejaVuSans-30" transform="translate(63.623047 0)"/>
       <use xlink:href="#DejaVuSans-30" transform="translate(127.246094 0)"/>
      </g>
     </g>
    </g>
    <g id="ytick_5">
     <g id="line2d_11">
      <g>
       <use xlink:href="#m9c202212dd" x="50.565625" y="122.408241" style="stroke: #000000; stroke-width: 0.8"/>
      </g>
     </g>
     <g id="text_12">
      <!-- 400 -->
      <g transform="translate(24.478125 126.20746) scale(0.1 -0.1)">
       <use xlink:href="#DejaVuSans-34"/>
       <use xlink:href="#DejaVuSans-30" transform="translate(63.623047 0)"/>
       <use xlink:href="#DejaVuSans-30" transform="translate(127.246094 0)"/>
      </g>
     </g>
    </g>
    <g id="ytick_6">
     <g id="line2d_12">
      <g>
       <use xlink:href="#m9c202212dd" x="50.565625" y="80.236225" style="stroke: #000000; stroke-width: 0.8"/>
      </g>
     </g>
     <g id="text_13">
      <!-- 500 -->
      <g transform="translate(24.478125 84.035444) scale(0.1 -0.1)">
       <defs>
        <path id="DejaVuSans-35" d="M 691 4666 
L 3169 4666 
L 3169 4134 
L 1269 4134 
L 1269 2991 
Q 1406 3038 1543 3061 
Q 1681 3084 1819 3084 
Q 2600 3084 3056 2656 
Q 3513 2228 3513 1497 
Q 3513 744 3044 326 
Q 2575 -91 1722 -91 
Q 1428 -91 1123 -41 
Q 819 9 494 109 
L 494 744 
Q 775 591 1075 516 
Q 1375 441 1709 441 
Q 2250 441 2565 725 
Q 2881 1009 2881 1497 
Q 2881 1984 2565 2268 
Q 2250 2553 1709 2553 
Q 1456 2553 1204 2497 
Q 953 2441 691 2322 
L 691 4666 
z
" transform="scale(0.015625)"/>
       </defs>
       <use xlink:href="#DejaVuSans-35"/>
       <use xlink:href="#DejaVuSans-30" transform="translate(63.623047 0)"/>
       <use xlink:href="#DejaVuSans-30" transform="translate(127.246094 0)"/>
      </g>
     </g>
    </g>
    <g id="ytick_7">
     <g id="line2d_13">
      <g>
       <use xlink:href="#m9c202212dd" x="50.565625" y="38.064209" style="stroke: #000000; stroke-width: 0.8"/>
      </g>
     </g>
     <g id="text_14">
      <!-- 600 -->
      <g transform="translate(24.478125 41.863427) scale(0.1 -0.1)">
       <use xlink:href="#DejaVuSans-36"/>
       <use xlink:href="#DejaVuSans-30" transform="translate(63.623047 0)"/>
       <use xlink:href="#DejaVuSans-30" transform="translate(127.246094 0)"/>
      </g>
     </g>
    </g>
    <g id="text_15">
     <!-- time (ms) -->
     <g transform="translate(18.398438 181.883594) rotate(-90) scale(0.1 -0.1)">
      <defs>
       <path id="DejaVuSans-74" d="M 1172 4494 
L 1172 3500 
L 2356 3500 
L 2356 3053 
L 1172 3053 
L 1172 1153 
Q 1172 725 1289 603 
Q 1406 481 1766 481 
L 2356 481 
L 2356 0 
L 1766 0 
Q 1100 0 847 248 
Q 594 497 594 1153 
L 594 3053 
L 172 3053 
L 172 3500 
L 594 3500 
L 594 4494 
L 1172 4494 
z
" transform="scale(0.015625)"/>
       <path id="DejaVuSans-69" d="M 603 3500 
L 1178 3500 
L 1178 0 
L 603 0 
L 603 3500 
z
M 603 4863 
L 1178 4863 
L 1178 4134 
L 603 4134 
L 603 4863 
z
" transform="scale(0.015625)"/>
       <path id="DejaVuSans-6d" d="M 3328 2828 
Q 3544 3216 3844 3400 
Q 4144 3584 4550 3584 
Q 5097 3584 5394 3201 
Q 5691 2819 5691 2113 
L 5691 0 
L 5113 0 
L 5113 2094 
Q 5113 2597 4934 2840 
Q 4756 3084 4391 3084 
Q 3944 3084 3684 2787 
Q 3425 2491 3425 1978 
L 3425 0 
L 2847 0 
L 2847 2094 
Q 2847 2600 2669 2842 
Q 2491 3084 2119 3084 
Q 1678 3084 1418 2786 
Q 1159 2488 1159 1978 
L 1159 0 
L 581 0 
L 581 3500 
L 1159 3500 
L 1159 2956 
Q 1356 3278 1631 3431 
Q 1906 3584 2284 3584 
Q 2666 3584 2933 3390 
Q 3200 3197 3328 2828 
z
" transform="scale(0.015625)"/>
       <path id="DejaVuSans-65" d="M 3597 1894 
L 3597 1613 
L 953 1613 
Q 991 1019 1311 708 
Q 1631 397 2203 397 
Q 2534 397 2845 478 
Q 3156 559 3463 722 
L 3463 178 
Q 3153 47 2828 -22 
Q 2503 -91 2169 -91 
Q 1331 -91 842 396 
Q 353 884 353 1716 
Q 353 2575 817 3079 
Q 1281 3584 2069 3584 
Q 2775 3584 3186 3129 
Q 3597 2675 3597 1894 
z
M 3022 2063 
Q 3016 2534 2758 2815 
Q 2500 3097 2075 3097 
Q 1594 3097 1305 2825 
Q 1016 2553 972 2059 
L 3022 2063 
z
" transform="scale(0.015625)"/>
       <path id="DejaVuSans-28" d="M 1984 4856 
Q 1566 4138 1362 3434 
Q 1159 2731 1159 2009 
Q 1159 1288 1364 580 
Q 1569 -128 1984 -844 
L 1484 -844 
Q 1016 -109 783 600 
Q 550 1309 550 2009 
Q 550 2706 781 3412 
Q 1013 4119 1484 4856 
L 1984 4856 
z
" transform="scale(0.015625)"/>
       <path id="DejaVuSans-29" d="M 513 4856 
L 1013 4856 
Q 1481 4119 1714 3412 
Q 1947 2706 1947 2009 
Q 1947 1309 1714 600 
Q 1481 -109 1013 -844 
L 513 -844 
Q 928 -128 1133 580 
Q 1338 1288 1338 2009 
Q 1338 2731 1133 3434 
Q 928 4138 513 4856 
z
" transform="scale(0.015625)"/>
      </defs>
      <use xlink:href="#DejaVuSans-74"/>
      <use xlink:href="#DejaVuSans-69" transform="translate(39.208984 0)"/>
      <use xlink:href="#DejaVuSans-6d" transform="translate(66.992188 0)"/>
      <use xlink:href="#DejaVuSans-65" transform="translate(164.404297 0)"/>
      <use xlink:href="#DejaVuSans-20" transform="translate(225.927734 0)"/>
      <use xlink:href="#DejaVuSans-28" transform="translate(257.714844 0)"/>
      <use xlink:href="#DejaVuSans-6d" transform="translate(296.728516 0)"/>
      <use xlink:href="#DejaVuSans-73" transform="translate(394.140625 0)"/>
      <use xlink:href="#DejaVuSans-29" transform="translate(446.240234 0)"/>
     </g>
    </g>
   </g>
   <g id="line2d_14">
    <path d="M 65.763665 270.010299 
L 66.037257 270.853739 
L 66.341248 270.432019 
L 66.645239 270.010299 
L 66.94923 269.588578 
L 67.253222 269.166858 
L 67.557213 269.166858 
L 67.861204 268.745138 
L 68.165195 268.745138 
L 68.469186 268.323418 
L 68.773178 267.901698 
L 71.81309 265.371377 
L 74.853001 262.419336 
L 77.892913 261.997616 
L 80.932825 259.045574 
L 83.972737 257.780414 
L 87.012649 256.936974 
L 90.052561 255.671813 
L 93.092473 254.406653 
L 96.132385 253.141492 
L 99.172297 251.876332 
L 102.212209 248.92429 
L 105.252121 250.611171 
L 108.292033 248.50257 
L 111.331945 248.92429 
L 114.371857 246.393969 
L 117.411769 245.128809 
L 120.451681 245.550529 
L 123.491593 243.863648 
L 126.531505 244.285369 
L 129.571417 244.285369 
L 132.611328 244.707089 
L 135.65124 242.176768 
L 138.691152 242.176768 
L 141.731064 243.441928 
L 144.770976 243.020208 
L 147.810888 242.598488 
L 150.8508 241.755048 
L 153.890712 242.176768 
L 156.930624 241.755048 
L 159.970536 240.911607 
L 163.010448 241.333327 
L 166.05036 241.333327 
L 169.090272 240.068167 
L 172.130184 240.068167 
L 175.170096 237.537846 
L 178.210008 240.068167 
L 181.24992 240.068167 
L 184.289832 240.068167 
L 187.329743 240.068167 
L 190.369655 235.429245 
L 193.409567 238.803007 
L 196.449479 237.959566 
L 199.489391 238.803007 
L 202.529303 237.537846 
L 205.569215 236.694406 
L 208.609127 238.381286 
L 211.649039 238.381286 
L 214.688951 237.537846 
L 217.728863 237.537846 
L 220.768775 237.959566 
L 223.808687 237.537846 
L 226.848599 236.272686 
L 229.888511 234.585805 
L 232.928423 237.537846 
L 235.968335 236.272686 
L 239.008247 236.272686 
L 242.048159 235.429245 
L 245.08807 235.429245 
L 248.127982 234.164085 
L 251.167894 235.429245 
L 254.207806 233.320644 
L 257.247718 235.007525 
L 260.28763 233.742365 
L 263.327542 234.585805 
L 266.367454 232.898924 
L 269.407366 234.164085 
L 272.447278 233.742365 
L 275.48719 234.585805 
L 278.527102 233.742365 
L 281.567014 232.898924 
L 284.606926 233.320644 
L 287.646838 232.477204 
L 290.68675 232.477204 
L 293.726662 232.898924 
L 296.766574 230.368603 
L 299.806485 231.633764 
L 302.846397 230.368603 
L 305.886309 232.055484 
L 308.926221 230.790323 
L 311.966133 229.946883 
L 315.006045 230.790323 
L 318.045957 231.212044 
L 321.085869 231.212044 
L 324.125781 230.368603 
L 327.165693 230.790323 
L 330.205605 230.790323 
L 333.245517 229.946883 
L 336.285429 229.946883 
L 339.325341 229.525163 
L 342.365253 229.103443 
L 345.405165 229.525163 
L 348.445077 227.838282 
L 351.484989 228.260002 
L 354.5249 228.681723 
L 357.564812 227.838282 
L 360.604724 227.416562 
L 363.644636 227.416562 
L 366.684548 226.151402 
L 369.72446 223.621081 
" clip-path="url(#pa9db40d596)" style="fill: none; stroke: #1f77b4; stroke-width: 1.5; stroke-linecap: square"/>
   </g>
   <g id="line2d_15">
    <path d="M 65.763665 288.565986 
L 66.037257 287.722546 
L 66.341248 286.879105 
L 66.645239 286.457385 
L 66.94923 285.613945 
L 67.253222 284.770504 
L 67.557213 284.348784 
L 67.861204 283.505344 
L 68.165195 283.083624 
L 68.469186 281.818463 
L 68.773178 280.975023 
L 71.81309 275.070941 
L 74.853001 268.323418 
L 77.892913 264.527937 
L 80.932825 261.154175 
L 83.972737 257.780414 
L 87.012649 254.406653 
L 90.052561 251.876332 
L 93.092473 248.92429 
L 96.132385 246.81569 
L 99.172297 244.285369 
L 102.212209 242.598488 
L 105.252121 242.176768 
L 108.292033 238.803007 
L 111.331945 237.537846 
L 114.371857 235.007525 
L 117.411769 235.429245 
L 120.451681 234.164085 
L 123.491593 232.898924 
L 126.531505 232.477204 
L 129.571417 231.212044 
L 132.611328 229.103443 
L 135.65124 229.525163 
L 138.691152 227.838282 
L 141.731064 225.307961 
L 144.770976 225.307961 
L 147.810888 223.19936 
L 150.8508 221.51248 
L 153.890712 221.9342 
L 156.930624 221.09076 
L 159.970536 218.138718 
L 163.010448 217.716998 
L 166.05036 216.451838 
L 169.090272 215.186677 
L 172.130184 214.764957 
L 175.170096 213.078077 
L 178.210008 211.391196 
L 181.24992 211.812916 
L 184.289832 208.860875 
L 187.329743 209.704315 
L 190.369655 207.595714 
L 193.409567 205.065393 
L 196.449479 204.643673 
L 199.489391 205.065393 
L 202.529303 202.956793 
L 205.569215 198.739591 
L 208.609127 200.004751 
L 211.649039 200.004751 
L 214.688951 197.896151 
L 217.728863 197.896151 
L 220.768775 195.78755 
L 223.808687 195.36583 
L 226.848599 192.835509 
L 229.888511 191.570348 
L 232.928423 192.413789 
L 235.968335 190.305188 
L 239.008247 189.883468 
L 242.048159 187.353147 
L 245.08807 185.244546 
L 248.127982 184.401105 
L 251.167894 185.244546 
L 254.207806 182.714225 
L 257.247718 181.449064 
L 260.28763 180.605624 
L 263.327542 177.653583 
L 266.367454 177.231863 
L 269.407366 175.123262 
L 272.447278 170.48434 
L 275.48719 175.123262 
L 278.527102 170.90606 
L 281.567014 170.90606 
L 284.606926 167.110579 
L 287.646838 167.532299 
L 290.68675 164.158538 
L 293.726662 163.315097 
L 296.766574 162.471657 
L 299.806485 154.458974 
L 302.846397 157.411015 
L 305.886309 153.193813 
L 308.926221 153.615533 
L 311.966133 147.289731 
L 315.006045 148.976612 
L 318.045957 148.554891 
L 321.085869 142.229089 
L 324.125781 142.229089 
L 327.165693 136.325007 
L 330.205605 138.011887 
L 333.245517 129.999204 
L 336.285429 128.312324 
L 339.325341 129.155764 
L 342.365253 129.155764 
L 345.405165 126.203723 
L 348.445077 121.143081 
L 351.484989 119.4562 
L 354.5249 116.925879 
L 357.564812 113.973838 
L 360.604724 114.395558 
L 363.644636 113.552118 
L 366.684548 109.756636 
L 369.72446 106.804595 
" clip-path="url(#pa9db40d596)" style="fill: none; stroke: #ff7f0e; stroke-width: 1.5; stroke-linecap: square"/>
   </g>
   <g id="line2d_16">
    <path d="M 65.763665 284.348784 
L 66.037257 283.505344 
L 66.341248 283.083624 
L 66.645239 282.661904 
L 66.94923 282.240183 
L 67.253222 281.396743 
L 67.557213 280.975023 
L 67.861204 280.553303 
L 68.165195 279.709862 
L 68.469186 279.288142 
L 68.773178 278.022982 
L 71.81309 274.2275 
L 74.853001 270.010299 
L 77.892913 267.058257 
L 80.932825 264.106216 
L 83.972737 261.575895 
L 87.012649 258.623854 
L 90.052561 255.671813 
L 93.092473 253.563212 
L 96.132385 251.454611 
L 99.172297 249.346011 
L 102.212209 247.23741 
L 105.252121 245.550529 
L 108.292033 243.863648 
L 111.331945 240.911607 
L 114.371857 239.224727 
L 117.411769 237.959566 
L 120.451681 235.007525 
L 123.491593 233.742365 
L 126.531505 232.055484 
L 129.571417 230.790323 
L 132.611328 229.103443 
L 135.65124 226.994842 
L 138.691152 225.307961 
L 141.731064 223.19936 
L 144.770976 219.825599 
L 147.810888 217.716998 
L 150.8508 215.608398 
L 153.890712 213.921517 
L 156.930624 212.234636 
L 159.970536 209.282595 
L 163.010448 208.439155 
L 166.05036 208.017435 
L 169.090272 203.378513 
L 172.130184 204.643673 
L 175.170096 202.535072 
L 178.210008 198.739591 
L 181.24992 199.161311 
L 184.289832 196.63099 
L 187.329743 195.36583 
L 190.369655 192.835509 
L 193.409567 191.992068 
L 196.449479 191.148628 
L 199.489391 186.931426 
L 202.529303 186.931426 
L 205.569215 183.979385 
L 208.609127 182.714225 
L 211.649039 180.605624 
L 214.688951 178.918743 
L 217.728863 178.497023 
L 220.768775 175.123262 
L 223.808687 174.701542 
L 226.848599 173.014661 
L 229.888511 170.48434 
L 232.928423 169.6409 
L 235.968335 166.688859 
L 239.008247 165.423698 
L 242.048159 164.158538 
L 245.08807 162.471657 
L 248.127982 161.206496 
L 251.167894 157.832735 
L 254.207806 157.411015 
L 257.247718 155.302414 
L 260.28763 152.772093 
L 263.327542 151.506933 
L 266.367454 149.398332 
L 269.407366 148.133171 
L 272.447278 145.18113 
L 275.48719 144.75941 
L 278.527102 142.650809 
L 281.567014 139.277048 
L 284.606926 139.698768 
L 287.646838 136.325007 
L 290.68675 137.168447 
L 293.726662 131.264365 
L 296.766574 131.264365 
L 299.806485 131.686085 
L 302.846397 126.625443 
L 305.886309 126.203723 
L 308.926221 125.782003 
L 311.966133 118.61276 
L 315.006045 121.564801 
L 318.045957 119.03448 
L 321.085869 117.76932 
L 324.125781 114.395558 
L 327.165693 114.395558 
L 330.205605 111.865237 
L 333.245517 110.600077 
L 336.285429 108.069756 
L 339.325341 107.648036 
L 342.365253 102.165673 
L 345.405165 104.274274 
L 348.445077 96.683311 
L 351.484989 98.791912 
L 354.5249 97.948472 
L 357.564812 97.105032 
L 360.604724 94.996431 
L 363.644636 94.15299 
L 366.684548 91.622669 
L 369.72446 87.827188 
" clip-path="url(#pa9db40d596)" style="fill: none; stroke: #2ca02c; stroke-width: 1.5; stroke-linecap: square"/>
   </g>
   <g id="line2d_17">
    <path d="M 65.763665 48.607213 
L 66.037257 52.402694 
L 66.341248 49.028933 
L 66.645239 49.872373 
L 66.94923 46.920332 
L 67.253222 50.715813 
L 67.557213 49.028933 
L 67.861204 51.559254 
L 68.165195 51.559254 
L 68.469186 48.607213 
L 68.773178 49.872373 
L 71.81309 24.147443 
L 74.853001 48.185493 
L 77.892913 42.28141 
L 80.932825 43.968291 
L 83.972737 46.076892 
L 87.012649 44.390011 
L 90.052561 41.85969 
L 93.092473 46.076892 
L 96.132385 44.390011 
L 99.172297 42.28141 
L 102.212209 40.172809 
L 105.252121 41.43797 
L 108.292033 35.955608 
L 111.331945 41.85969 
L 114.371857 42.70313 
L 117.411769 42.70313 
L 120.451681 44.390011 
L 123.491593 43.124851 
L 126.531505 41.85969 
L 129.571417 41.43797 
L 132.611328 39.329369 
L 135.65124 43.546571 
L 138.691152 41.01625 
L 141.731064 41.85969 
L 144.770976 40.59453 
L 147.810888 43.968291 
L 150.8508 43.968291 
L 153.890712 40.59453 
L 156.930624 41.43797 
L 159.970536 38.485929 
L 163.010448 41.01625 
L 166.05036 37.642488 
L 169.090272 37.220768 
L 172.130184 39.751089 
L 175.170096 38.485929 
L 178.210008 39.751089 
L 181.24992 35.955608 
L 184.289832 38.064209 
L 187.329743 40.59453 
L 190.369655 40.172809 
L 193.409567 39.329369 
L 196.449479 38.064209 
L 199.489391 35.955608 
L 202.529303 38.907649 
L 205.569215 36.377328 
L 208.609127 37.220768 
L 211.649039 40.172809 
L 214.688951 38.907649 
L 217.728863 37.642488 
L 220.768775 35.533888 
L 223.808687 37.220768 
L 226.848599 37.220768 
L 229.888511 38.064209 
L 232.928423 37.642488 
L 235.968335 34.268727 
L 239.008247 38.064209 
L 242.048159 33.425287 
L 245.08807 37.220768 
L 248.127982 35.112167 
L 251.167894 33.425287 
L 254.207806 33.425287 
L 257.247718 36.799048 
L 260.28763 33.425287 
L 263.327542 37.642488 
L 266.367454 33.003567 
L 269.407366 33.847007 
L 272.447278 34.690447 
L 275.48719 36.377328 
L 278.527102 34.268727 
L 281.567014 35.955608 
L 284.606926 35.533888 
L 287.646838 32.581846 
L 290.68675 33.847007 
L 293.726662 33.425287 
L 296.766574 36.377328 
L 299.806485 35.112167 
L 302.846397 37.220768 
L 305.886309 32.160126 
L 308.926221 35.955608 
L 311.966133 33.847007 
L 315.006045 34.690447 
L 318.045957 33.003567 
L 321.085869 35.112167 
L 324.125781 35.112167 
L 327.165693 34.268727 
L 330.205605 32.160126 
L 333.245517 33.425287 
L 336.285429 32.160126 
L 339.325341 32.160126 
L 342.365253 33.847007 
L 345.405165 33.003567 
L 348.445077 33.425287 
L 351.484989 33.425287 
L 354.5249 32.581846 
L 357.564812 31.738406 
L 360.604724 28.786365 
L 363.644636 31.316686 
L 366.684548 33.003567 
L 369.72446 32.160126 
" clip-path="url(#pa9db40d596)" style="fill: none; stroke: #d62728; stroke-width: 1.5; stroke-linecap: square"/>
   </g>
   <g id="line2d_18">
    <path d="M 65.763665 291.096307 
L 66.037257 291.096307 
L 66.341248 291.096307 
L 66.645239 290.674587 
L 66.94923 290.674587 
L 67.253222 290.674587 
L 67.557213 290.674587 
L 67.861204 290.674587 
L 68.165195 290.674587 
L 68.469186 290.252866 
L 68.773178 290.252866 
L 71.81309 289.409426 
L 74.853001 288.987706 
L 77.892913 288.565986 
L 80.932825 288.144266 
L 83.972737 288.144266 
L 87.012649 287.300825 
L 90.052561 287.722546 
L 93.092473 287.300825 
L 96.132385 287.300825 
L 99.172297 286.879105 
L 102.212209 286.879105 
L 105.252121 286.457385 
L 108.292033 286.035665 
L 111.331945 286.035665 
L 114.371857 286.035665 
L 117.411769 285.613945 
L 120.451681 285.613945 
L 123.491593 286.035665 
L 126.531505 285.613945 
L 129.571417 285.613945 
L 132.611328 285.613945 
L 135.65124 285.192225 
L 138.691152 285.192225 
L 141.731064 285.192225 
L 144.770976 285.613945 
L 147.810888 285.192225 
L 150.8508 285.192225 
L 153.890712 285.192225 
L 156.930624 285.192225 
L 159.970536 285.192225 
L 163.010448 284.348784 
L 166.05036 285.192225 
L 169.090272 284.770504 
L 172.130184 284.770504 
L 175.170096 283.927064 
L 178.210008 284.348784 
L 181.24992 284.348784 
L 184.289832 284.348784 
L 187.329743 284.348784 
L 190.369655 284.770504 
L 193.409567 283.927064 
L 196.449479 283.927064 
L 199.489391 283.505344 
L 202.529303 283.927064 
L 205.569215 283.927064 
L 208.609127 283.927064 
L 211.649039 283.927064 
L 214.688951 283.505344 
L 217.728863 283.505344 
L 220.768775 283.083624 
L 223.808687 283.505344 
L 226.848599 283.083624 
L 229.888511 283.083624 
L 232.928423 283.083624 
L 235.968335 283.083624 
L 239.008247 283.083624 
L 242.048159 283.083624 
L 245.08807 283.083624 
L 248.127982 283.083624 
L 251.167894 283.083624 
L 254.207806 283.083624 
L 257.247718 282.240183 
L 260.28763 282.661904 
L 263.327542 282.661904 
L 266.367454 283.505344 
L 269.407366 282.240183 
L 272.447278 281.818463 
L 275.48719 282.661904 
L 278.527102 282.661904 
L 281.567014 282.240183 
L 284.606926 282.240183 
L 287.646838 282.240183 
L 290.68675 281.818463 
L 293.726662 281.396743 
L 296.766574 282.240183 
L 299.806485 281.818463 
L 302.846397 282.240183 
L 305.886309 282.661904 
L 308.926221 280.975023 
L 311.966133 281.396743 
L 315.006045 280.975023 
L 318.045957 281.396743 
L 321.085869 281.396743 
L 324.125781 280.975023 
L 327.165693 281.396743 
L 330.205605 280.975023 
L 333.245517 281.818463 
L 336.285429 280.975023 
L 339.325341 281.396743 
L 342.365253 280.975023 
L 345.405165 280.975023 
L 348.445077 280.975023 
L 351.484989 280.975023 
L 354.5249 280.975023 
L 357.564812 280.131583 
L 360.604724 280.131583 
L 363.644636 280.553303 
L 366.684548 280.131583 
L 369.72446 280.975023 
" clip-path="url(#pa9db40d596)" style="fill: none; stroke: #9467bd; stroke-width: 1.5; stroke-linecap: square"/>
   </g>
   <g id="line2d_19">
    <path d="M 65.763665 283.083624 
L 66.037257 283.083624 
L 66.341248 283.083624 
L 66.645239 282.661904 
L 66.94923 282.661904 
L 67.253222 282.661904 
L 67.557213 282.240183 
L 67.861204 281.818463 
L 68.165195 281.818463 
L 68.469186 281.818463 
L 68.773178 281.396743 
L 71.81309 279.709862 
L 74.853001 278.866422 
L 77.892913 277.601262 
L 80.932825 277.179541 
L 83.972737 276.757821 
L 87.012649 275.914381 
L 90.052561 275.492661 
L 93.092473 275.070941 
L 96.132385 274.64922 
L 99.172297 274.2275 
L 102.212209 274.2275 
L 105.252121 273.80578 
L 108.292033 270.432019 
L 111.331945 273.38406 
L 114.371857 273.38406 
L 117.411769 272.96234 
L 120.451681 272.96234 
L 123.491593 272.96234 
L 126.531505 272.54062 
L 129.571417 272.54062 
L 132.611328 272.54062 
L 135.65124 272.54062 
L 138.691152 272.118899 
L 141.731064 271.697179 
L 144.770976 272.118899 
L 147.810888 271.697179 
L 150.8508 271.275459 
L 153.890712 271.275459 
L 156.930624 270.853739 
L 159.970536 271.275459 
L 163.010448 271.275459 
L 166.05036 271.275459 
L 169.090272 270.853739 
L 172.130184 270.853739 
L 175.170096 270.432019 
L 178.210008 270.432019 
L 181.24992 270.432019 
L 184.289832 270.432019 
L 187.329743 270.432019 
L 190.369655 270.432019 
L 193.409567 270.432019 
L 196.449479 270.010299 
L 199.489391 269.588578 
L 202.529303 269.588578 
L 205.569215 269.166858 
L 208.609127 268.745138 
L 211.649039 269.166858 
L 214.688951 269.166858 
L 217.728863 269.166858 
L 220.768775 269.166858 
L 223.808687 268.745138 
L 226.848599 267.479978 
L 229.888511 266.636537 
L 232.928423 267.058257 
L 235.968335 266.636537 
L 239.008247 266.636537 
L 242.048159 266.636537 
L 245.08807 266.214817 
L 248.127982 264.949657 
L 251.167894 266.214817 
L 254.207806 265.793097 
L 257.247718 265.793097 
L 260.28763 265.793097 
L 263.327542 266.214817 
L 266.367454 266.214817 
L 269.407366 264.949657 
L 272.447278 265.793097 
L 275.48719 265.371377 
L 278.527102 265.371377 
L 281.567014 264.949657 
L 284.606926 264.106216 
L 287.646838 265.371377 
L 290.68675 264.106216 
L 293.726662 264.949657 
L 296.766574 264.527937 
L 299.806485 264.527937 
L 302.846397 263.684496 
L 305.886309 264.527937 
L 308.926221 264.106216 
L 311.966133 263.684496 
L 315.006045 264.106216 
L 318.045957 264.527937 
L 321.085869 263.684496 
L 324.125781 263.684496 
L 327.165693 264.106216 
L 330.205605 263.262776 
L 333.245517 262.841056 
L 336.285429 263.684496 
L 339.325341 263.684496 
L 342.365253 263.684496 
L 345.405165 262.841056 
L 348.445077 262.841056 
L 351.484989 261.997616 
L 354.5249 263.262776 
L 357.564812 262.841056 
L 360.604724 262.419336 
L 363.644636 261.997616 
L 366.684548 261.154175 
L 369.72446 261.575895 
" clip-path="url(#pa9db40d596)" style="fill: none; stroke: #8c564b; stroke-width: 1.5; stroke-linecap: square"/>
   </g>
   <g id="line2d_20">
    <path d="M 65.763665 288.565986 
L 66.037257 288.565986 
L 66.341248 288.144266 
L 66.645239 288.144266 
L 66.94923 288.144266 
L 67.253222 288.144266 
L 67.557213 288.144266 
L 67.861204 287.722546 
L 68.165195 287.722546 
L 68.469186 287.300825 
L 68.773178 287.300825 
L 71.81309 286.879105 
L 74.853001 286.457385 
L 77.892913 286.035665 
L 80.932825 285.613945 
L 83.972737 285.192225 
L 87.012649 284.770504 
L 90.052561 284.770504 
L 93.092473 284.348784 
L 96.132385 284.348784 
L 99.172297 283.927064 
L 102.212209 283.927064 
L 105.252121 283.927064 
L 108.292033 283.505344 
L 111.331945 283.505344 
L 114.371857 283.505344 
L 117.411769 283.505344 
L 120.451681 283.083624 
L 123.491593 283.505344 
L 126.531505 283.505344 
L 129.571417 283.083624 
L 132.611328 283.083624 
L 135.65124 282.661904 
L 138.691152 283.083624 
L 141.731064 283.083624 
L 144.770976 283.083624 
L 147.810888 283.083624 
L 150.8508 282.661904 
L 153.890712 282.661904 
L 156.930624 281.818463 
L 159.970536 282.240183 
L 163.010448 282.240183 
L 166.05036 281.818463 
L 169.090272 282.240183 
L 172.130184 281.818463 
L 175.170096 282.240183 
L 178.210008 281.818463 
L 181.24992 281.818463 
L 184.289832 282.240183 
L 187.329743 281.818463 
L 190.369655 281.396743 
L 193.409567 281.396743 
L 196.449479 281.396743 
L 199.489391 281.396743 
L 202.529303 281.396743 
L 205.569215 280.975023 
L 208.609127 281.396743 
L 211.649039 281.396743 
L 214.688951 280.553303 
L 217.728863 280.975023 
L 220.768775 280.975023 
L 223.808687 280.975023 
L 226.848599 280.553303 
L 229.888511 280.131583 
L 232.928423 280.553303 
L 235.968335 280.553303 
L 239.008247 280.553303 
L 242.048159 280.553303 
L 245.08807 280.553303 
L 248.127982 280.553303 
L 251.167894 280.131583 
L 254.207806 280.131583 
L 257.247718 280.131583 
L 260.28763 280.131583 
L 263.327542 280.131583 
L 266.367454 280.131583 
L 269.407366 279.709862 
L 272.447278 279.709862 
L 275.48719 279.709862 
L 278.527102 279.288142 
L 281.567014 279.288142 
L 284.606926 279.709862 
L 287.646838 279.709862 
L 290.68675 279.288142 
L 293.726662 278.444702 
L 296.766574 279.288142 
L 299.806485 279.288142 
L 302.846397 278.444702 
L 305.886309 279.288142 
L 308.926221 278.866422 
L 311.966133 279.288142 
L 315.006045 278.444702 
L 318.045957 278.866422 
L 321.085869 278.866422 
L 324.125781 278.444702 
L 327.165693 277.179541 
L 330.205605 278.444702 
L 333.245517 277.601262 
L 336.285429 278.022982 
L 339.325341 278.022982 
L 342.365253 278.022982 
L 345.405165 278.444702 
L 348.445077 277.179541 
L 351.484989 278.022982 
L 354.5249 277.601262 
L 357.564812 278.022982 
L 360.604724 278.022982 
L 363.644636 278.022982 
L 366.684548 278.022982 
L 369.72446 277.179541 
" clip-path="url(#pa9db40d596)" style="fill: none; stroke: #e377c2; stroke-width: 1.5; stroke-linecap: square"/>
   </g>
   <g id="line2d_21">
    <path d="M 65.763665 259.889015 
L 66.037257 259.045574 
L 66.341248 257.358694 
L 66.645239 253.563212 
L 66.94923 253.563212 
L 67.253222 252.719772 
L 67.557213 251.876332 
L 67.861204 250.611171 
L 68.165195 249.346011 
L 68.469186 248.50257 
L 68.773178 246.81569 
L 71.81309 237.537846 
L 74.853001 231.633764 
L 77.892913 225.729681 
L 80.932825 218.982159 
L 83.972737 214.764957 
L 87.012649 207.173994 
L 90.052561 202.535072 
L 93.092473 197.896151 
L 96.132385 194.522389 
L 99.172297 191.570348 
L 102.212209 184.401105 
L 105.252121 184.401105 
L 108.292033 180.183904 
L 111.331945 177.653583 
L 114.371857 175.966702 
L 117.411769 173.436381 
L 120.451681 173.858101 
L 123.491593 171.32778 
L 126.531505 170.48434 
L 129.571417 168.375739 
L 132.611328 167.532299 
L 135.65124 164.158538 
L 138.691152 162.893377 
L 141.731064 161.206496 
L 144.770976 159.097896 
L 147.810888 157.832735 
L 150.8508 158.676175 
L 153.890712 154.880694 
L 156.930624 155.302414 
L 159.970536 151.928653 
L 163.010448 151.506933 
L 166.05036 148.554891 
L 169.090272 146.868011 
L 172.130184 145.18113 
L 175.170096 144.33769 
L 178.210008 143.49425 
L 181.24992 143.49425 
L 184.289832 138.433608 
L 187.329743 137.168447 
L 190.369655 133.372966 
L 193.409567 134.638126 
L 196.449479 131.686085 
L 199.489391 132.529525 
L 202.529303 128.312324 
L 205.569215 127.047163 
L 208.609127 127.047163 
L 211.649039 126.203723 
L 214.688951 124.938562 
L 217.728863 122.408241 
L 220.768775 120.721361 
L 223.808687 119.87792 
L 226.848599 116.082439 
L 229.888511 114.817278 
L 232.928423 113.552118 
L 235.968335 113.130398 
L 239.008247 112.286957 
L 242.048159 109.756636 
L 245.08807 108.913196 
L 248.127982 107.226315 
L 251.167894 104.274274 
L 254.207806 103.430834 
L 257.247718 101.322233 
L 260.28763 101.322233 
L 263.327542 98.370192 
L 266.367454 94.996431 
L 269.407366 97.948472 
L 272.447278 93.73127 
L 275.48719 93.30955 
L 278.527102 91.622669 
L 281.567014 88.248908 
L 284.606926 87.827188 
L 287.646838 87.827188 
L 290.68675 86.140307 
L 293.726662 84.453427 
L 296.766574 83.188266 
L 299.806485 82.766546 
L 302.846397 80.657945 
L 305.886309 80.657945 
L 308.926221 74.332143 
L 311.966133 75.597303 
L 315.006045 74.753863 
L 318.045957 70.114941 
L 321.085869 68.849781 
L 324.125781 67.1629 
L 327.165693 68.00634 
L 330.205605 64.210859 
L 333.245517 60.415377 
L 336.285429 62.945698 
L 339.325341 60.415377 
L 342.365253 59.150217 
L 345.405165 59.993657 
L 348.445077 59.150217 
L 351.484989 55.354735 
L 354.5249 52.402694 
L 357.564812 51.559254 
L 360.604724 51.980974 
L 363.644636 46.498612 
L 366.684548 48.185493 
L 369.72446 39.751089 
" clip-path="url(#pa9db40d596)" style="fill: none; stroke: #7f7f7f; stroke-width: 1.5; stroke-linecap: square"/>
   </g>
   <g id="line2d_22">
    <path d="M 65.763665 287.300825 
L 66.037257 286.035665 
L 66.341248 285.613945 
L 66.645239 284.770504 
L 66.94923 284.348784 
L 67.253222 283.927064 
L 67.557213 283.505344 
L 67.861204 283.083624 
L 68.165195 282.661904 
L 68.469186 282.240183 
L 68.773178 281.396743 
L 71.81309 279.288142 
L 74.853001 277.179541 
L 77.892913 273.38406 
L 80.932825 271.697179 
L 83.972737 271.275459 
L 87.012649 269.588578 
L 90.052561 269.166858 
L 93.092473 267.479978 
L 96.132385 264.527937 
L 99.172297 264.106216 
L 102.212209 261.575895 
L 105.252121 263.684496 
L 108.292033 262.841056 
L 111.331945 262.841056 
L 114.371857 261.575895 
L 117.411769 260.732455 
L 120.451681 259.467295 
L 123.491593 260.310735 
L 126.531505 259.467295 
L 129.571417 259.045574 
L 132.611328 259.467295 
L 135.65124 257.780414 
L 138.691152 258.202134 
L 141.731064 255.250093 
L 144.770976 257.358694 
L 147.810888 257.358694 
L 150.8508 256.093533 
L 153.890712 255.250093 
L 156.930624 254.406653 
L 159.970536 253.141492 
L 163.010448 254.828373 
L 166.05036 252.719772 
L 169.090272 253.141492 
L 172.130184 253.141492 
L 175.170096 253.141492 
L 178.210008 252.719772 
L 181.24992 252.719772 
L 184.289832 252.298052 
L 187.329743 250.189451 
L 190.369655 250.611171 
L 193.409567 249.767731 
L 196.449479 248.92429 
L 199.489391 248.50257 
L 202.529303 250.611171 
L 205.569215 248.92429 
L 208.609127 248.92429 
L 211.649039 249.346011 
L 214.688951 245.128809 
L 217.728863 248.50257 
L 220.768775 246.81569 
L 223.808687 245.972249 
L 226.848599 246.81569 
L 229.888511 244.707089 
L 232.928423 245.128809 
L 235.968335 245.128809 
L 239.008247 245.550529 
L 242.048159 243.020208 
L 245.08807 244.707089 
L 248.127982 243.441928 
L 251.167894 244.707089 
L 254.207806 242.598488 
L 257.247718 242.598488 
L 260.28763 243.020208 
L 263.327542 240.068167 
L 266.367454 242.176768 
L 269.407366 242.598488 
L 272.447278 242.176768 
L 275.48719 241.333327 
L 278.527102 240.911607 
L 281.567014 240.911607 
L 284.606926 240.911607 
L 287.646838 240.489887 
L 290.68675 235.429245 
L 293.726662 236.694406 
L 296.766574 237.116126 
L 299.806485 237.537846 
L 302.846397 236.694406 
L 305.886309 237.537846 
L 308.926221 237.537846 
L 311.966133 235.850965 
L 315.006045 236.272686 
L 318.045957 236.272686 
L 321.085869 235.429245 
L 324.125781 233.320644 
L 327.165693 233.320644 
L 330.205605 234.585805 
L 333.245517 233.320644 
L 336.285429 232.898924 
L 339.325341 232.055484 
L 342.365253 232.898924 
L 345.405165 230.790323 
L 348.445077 230.790323 
L 351.484989 232.055484 
L 354.5249 231.633764 
L 357.564812 230.790323 
L 360.604724 230.368603 
L 363.644636 229.525163 
L 366.684548 229.103443 
L 369.72446 229.525163 
" clip-path="url(#pa9db40d596)" style="fill: none; stroke: #bcbd22; stroke-width: 1.5; stroke-linecap: square"/>
   </g>
   <g id="line2d_23">
    <path d="M 65.763665 201.691632 
L 66.037257 201.269912 
L 66.341248 200.004751 
L 66.645239 200.004751 
L 66.94923 197.896151 
L 67.253222 199.583031 
L 67.557213 197.896151 
L 67.861204 197.896151 
L 68.165195 196.63099 
L 68.469186 195.78755 
L 68.773178 194.944109 
L 71.81309 190.726908 
L 74.853001 186.931426 
L 77.892913 180.183904 
L 80.932825 178.497023 
L 83.972737 171.7495 
L 87.012649 169.6409 
L 90.052561 164.158538 
L 93.092473 163.315097 
L 96.132385 161.628217 
L 99.172297 159.941336 
L 102.212209 158.676175 
L 105.252121 155.724134 
L 108.292033 154.880694 
L 111.331945 153.193813 
L 114.371857 149.398332 
L 117.411769 151.506933 
L 120.451681 147.289731 
L 123.491593 146.446291 
L 126.531505 147.711451 
L 129.571417 146.868011 
L 132.611328 146.446291 
L 135.65124 143.91597 
L 138.691152 143.49425 
L 141.731064 143.072529 
L 144.770976 142.650809 
L 147.810888 138.855328 
L 150.8508 140.120488 
L 153.890712 139.277048 
L 156.930624 140.963929 
L 159.970536 135.481566 
L 163.010448 139.277048 
L 166.05036 136.746727 
L 169.090272 139.277048 
L 172.130184 132.529525 
L 175.170096 137.168447 
L 178.210008 135.903287 
L 181.24992 135.059846 
L 184.289832 136.325007 
L 187.329743 137.168447 
L 190.369655 131.264365 
L 193.409567 134.216406 
L 196.449479 134.216406 
L 199.489391 132.951245 
L 202.529303 129.999204 
L 205.569215 132.529525 
L 208.609127 131.686085 
L 211.649039 130.842645 
L 214.688951 131.264365 
L 217.728863 131.264365 
L 220.768775 129.999204 
L 223.808687 127.468883 
L 226.848599 129.155764 
L 229.888511 127.468883 
L 232.928423 128.734044 
L 235.968335 126.203723 
L 239.008247 125.360282 
L 242.048159 125.360282 
L 245.08807 124.516842 
L 248.127982 124.938562 
L 251.167894 122.829961 
L 254.207806 123.251682 
L 257.247718 121.986521 
L 260.28763 123.251682 
L 263.327542 122.829961 
L 266.367454 121.564801 
L 269.407366 121.143081 
L 272.447278 120.721361 
L 275.48719 121.986521 
L 278.527102 120.721361 
L 281.567014 121.143081 
L 284.606926 119.03448 
L 287.646838 120.721361 
L 290.68675 119.4562 
L 293.726662 111.865237 
L 296.766574 118.61276 
L 299.806485 119.03448 
L 302.846397 117.76932 
L 305.886309 117.347599 
L 308.926221 117.76932 
L 311.966133 115.660719 
L 315.006045 116.925879 
L 318.045957 117.347599 
L 321.085869 115.238999 
L 324.125781 115.660719 
L 327.165693 113.130398 
L 330.205605 113.973838 
L 333.245517 112.708678 
L 336.285429 112.708678 
L 339.325341 113.130398 
L 342.365253 111.865237 
L 345.405165 112.286957 
L 348.445077 114.395558 
L 351.484989 110.600077 
L 354.5249 112.286957 
L 357.564812 108.913196 
L 360.604724 110.600077 
L 363.644636 111.021797 
L 366.684548 105.539435 
L 369.72446 108.069756 
" clip-path="url(#pa9db40d596)" style="fill: none; stroke: #17becf; stroke-width: 1.5; stroke-linecap: square"/>
   </g>
   <g id="line2d_24">
    <path d="M 65.763665 290.674587 
L 66.037257 290.674587 
L 66.341248 290.674587 
L 66.645239 290.674587 
L 66.94923 290.674587 
L 67.253222 290.252866 
L 67.557213 290.252866 
L 67.861204 290.252866 
L 68.165195 289.831146 
L 68.469186 290.252866 
L 68.773178 289.831146 
L 71.81309 289.409426 
L 74.853001 288.987706 
L 77.892913 288.565986 
L 80.932825 288.144266 
L 83.972737 287.722546 
L 87.012649 287.300825 
L 90.052561 287.300825 
L 93.092473 287.300825 
L 96.132385 286.879105 
L 99.172297 286.879105 
L 102.212209 286.879105 
L 105.252121 286.035665 
L 108.292033 285.613945 
L 111.331945 286.035665 
L 114.371857 286.035665 
L 117.411769 285.192225 
L 120.451681 286.035665 
L 123.491593 285.613945 
L 126.531505 285.613945 
L 129.571417 285.613945 
L 132.611328 285.192225 
L 135.65124 285.192225 
L 138.691152 285.192225 
L 141.731064 285.192225 
L 144.770976 285.192225 
L 147.810888 284.770504 
L 150.8508 285.192225 
L 153.890712 284.770504 
L 156.930624 284.770504 
L 159.970536 285.192225 
L 163.010448 284.348784 
L 166.05036 284.770504 
L 169.090272 284.348784 
L 172.130184 284.770504 
L 175.170096 283.927064 
L 178.210008 284.348784 
L 181.24992 284.348784 
L 184.289832 284.348784 
L 187.329743 284.348784 
L 190.369655 284.348784 
L 193.409567 283.927064 
L 196.449479 283.927064 
L 199.489391 283.927064 
L 202.529303 283.505344 
L 205.569215 283.927064 
L 208.609127 283.927064 
L 211.649039 283.505344 
L 214.688951 283.505344 
L 217.728863 283.505344 
L 220.768775 283.083624 
L 223.808687 283.505344 
L 226.848599 283.083624 
L 229.888511 283.083624 
L 232.928423 283.083624 
L 235.968335 282.661904 
L 239.008247 282.661904 
L 242.048159 282.661904 
L 245.08807 282.661904 
L 248.127982 282.661904 
L 251.167894 282.661904 
L 254.207806 282.661904 
L 257.247718 282.661904 
L 260.28763 282.661904 
L 263.327542 281.818463 
L 266.367454 282.240183 
L 269.407366 282.240183 
L 272.447278 282.240183 
L 275.48719 282.240183 
L 278.527102 282.240183 
L 281.567014 281.818463 
L 284.606926 281.818463 
L 287.646838 281.818463 
L 290.68675 281.818463 
L 293.726662 281.396743 
L 296.766574 281.818463 
L 299.806485 281.396743 
L 302.846397 281.396743 
L 305.886309 281.818463 
L 308.926221 281.396743 
L 311.966133 281.396743 
L 315.006045 281.396743 
L 318.045957 281.396743 
L 321.085869 280.553303 
L 324.125781 280.553303 
L 327.165693 280.975023 
L 330.205605 280.131583 
L 333.245517 280.975023 
L 336.285429 280.553303 
L 339.325341 280.553303 
L 342.365253 280.553303 
L 345.405165 280.131583 
L 348.445077 280.131583 
L 351.484989 280.553303 
L 354.5249 280.553303 
L 357.564812 280.553303 
L 360.604724 280.553303 
L 363.644636 280.553303 
L 366.684548 280.131583 
L 369.72446 280.131583 
" clip-path="url(#pa9db40d596)" style="fill: none; stroke: #1f77b4; stroke-width: 1.5; stroke-linecap: square"/>
   </g>
   <g id="line2d_25">
    <path d="M 65.763665 288.144266 
L 66.037257 286.457385 
L 66.341248 283.927064 
L 66.645239 282.240183 
L 66.94923 280.975023 
L 67.253222 279.288142 
L 67.557213 278.022982 
L 67.861204 276.757821 
L 68.165195 275.070941 
L 68.469186 273.80578 
L 68.773178 271.275459 
L 71.81309 261.997616 
L 74.853001 255.250093 
L 77.892913 247.65913 
L 80.932825 242.176768 
L 83.972737 238.803007 
L 87.012649 233.742365 
L 90.052561 230.368603 
L 93.092473 226.573122 
L 96.132385 219.403879 
L 99.172297 219.825599 
L 102.212209 217.716998 
L 105.252121 212.234636 
L 108.292033 211.812916 
L 111.331945 209.704315 
L 114.371857 202.956793 
L 117.411769 205.487114 
L 120.451681 204.221953 
L 123.491593 201.691632 
L 126.531505 194.100669 
L 129.571417 199.161311 
L 132.611328 196.20927 
L 135.65124 194.100669 
L 138.691152 192.413789 
L 141.731064 191.992068 
L 144.770976 190.305188 
L 147.810888 189.040027 
L 150.8508 184.822826 
L 153.890712 183.979385 
L 156.930624 182.292505 
L 159.970536 179.762184 
L 163.010448 179.340463 
L 166.05036 177.231863 
L 169.090272 176.388422 
L 172.130184 174.279821 
L 175.170096 173.858101 
L 178.210008 171.32778 
L 181.24992 168.797459 
L 184.289832 170.06262 
L 187.329743 166.688859 
L 190.369655 165.001978 
L 193.409567 163.736817 
L 196.449479 162.049937 
L 199.489391 160.363056 
L 202.529303 157.832735 
L 205.569215 153.193813 
L 208.609127 151.928653 
L 211.649039 153.193813 
L 214.688951 151.506933 
L 217.728863 149.820052 
L 220.768775 148.976612 
L 223.808687 150.241772 
L 226.848599 145.18113 
L 229.888511 143.49425 
L 232.928423 140.963929 
L 235.968335 140.120488 
L 239.008247 139.277048 
L 242.048159 137.590167 
L 245.08807 137.168447 
L 248.127982 134.216406 
L 251.167894 132.107805 
L 254.207806 132.107805 
L 257.247718 128.312324 
L 260.28763 128.734044 
L 263.327542 125.782003 
L 266.367454 125.782003 
L 269.407366 123.251682 
L 272.447278 123.673402 
L 275.48719 120.721361 
L 278.527102 121.143081 
L 281.567014 119.03448 
L 284.606926 116.925879 
L 287.646838 113.973838 
L 290.68675 113.973838 
L 293.726662 113.973838 
L 296.766574 108.913196 
L 299.806485 110.600077 
L 302.846397 108.491476 
L 305.886309 102.587394 
L 308.926221 103.430834 
L 311.966133 105.117715 
L 315.006045 101.322233 
L 318.045957 103.430834 
L 321.085869 100.057073 
L 324.125781 98.370192 
L 327.165693 96.683311 
L 330.205605 97.105032 
L 333.245517 92.04439 
L 336.285429 84.875147 
L 339.325341 91.200949 
L 342.365253 89.514069 
L 345.405165 89.935789 
L 348.445077 86.983748 
L 351.484989 85.296867 
L 354.5249 86.562027 
L 357.564812 81.501385 
L 360.604724 82.766546 
L 363.644636 80.657945 
L 366.684548 79.392785 
L 369.72446 77.705904 
" clip-path="url(#pa9db40d596)" style="fill: none; stroke: #ff7f0e; stroke-width: 1.5; stroke-linecap: square"/>
   </g>
   <g id="patch_3">
    <path d="M 50.565625 304.44375 
L 50.565625 10.8 
" style="fill: none; stroke: #000000; stroke-width: 0.8; stroke-linejoin: miter; stroke-linecap: square"/>
   </g>
   <g id="patch_4">
    <path d="M 384.9225 304.44375 
L 384.9225 10.8 
" style="fill: none; stroke: #000000; stroke-width: 0.8; stroke-linejoin: miter; stroke-linecap: square"/>
   </g>
   <g id="patch_5">
    <path d="M 50.565625 304.44375 
L 384.9225 304.44375 
" style="fill: none; stroke: #000000; stroke-width: 0.8; stroke-linejoin: miter; stroke-linecap: square"/>
   </g>
   <g id="patch_6">
    <path d="M 50.565625 10.8 
L 384.9225 10.8 
" style="fill: none; stroke: #000000; stroke-width: 0.8; stroke-linejoin: miter; stroke-linecap: square"/>
   </g>
   <g id="text_16">
    <!-- mustachej -->
    <g style="fill: #9467bd" transform="translate(390.9225 289.930046) scale(0.08 -0.08)">
     <defs>
      <path id="DejaVuSans-61" d="M 2194 1759 
Q 1497 1759 1228 1600 
Q 959 1441 959 1056 
Q 959 750 1161 570 
Q 1363 391 1709 391 
Q 2188 391 2477 730 
Q 2766 1069 2766 1631 
L 2766 1759 
L 2194 1759 
z
M 3341 1997 
L 3341 0 
L 2766 0 
L 2766 531 
Q 2569 213 2275 61 
Q 1981 -91 1556 -91 
Q 1019 -91 701 211 
Q 384 513 384 1019 
Q 384 1609 779 1909 
Q 1175 2209 1959 2209 
L 2766 2209 
L 2766 2266 
Q 2766 2663 2505 2880 
Q 2244 3097 1772 3097 
Q 1472 3097 1187 3025 
Q 903 2953 641 2809 
L 641 3341 
Q 956 3463 1253 3523 
Q 1550 3584 1831 3584 
Q 2591 3584 2966 3190 
Q 3341 2797 3341 1997 
z
" transform="scale(0.015625)"/>
      <path id="DejaVuSans-63" d="M 3122 3366 
L 3122 2828 
Q 2878 2963 2633 3030 
Q 2388 3097 2138 3097 
Q 1578 3097 1268 2742 
Q 959 2388 959 1747 
Q 959 1106 1268 751 
Q 1578 397 2138 397 
Q 2388 397 2633 464 
Q 2878 531 3122 666 
L 3122 134 
Q 2881 22 2623 -34 
Q 2366 -91 2075 -91 
Q 1284 -91 818 406 
Q 353 903 353 1747 
Q 353 2603 823 3093 
Q 1294 3584 2113 3584 
Q 2378 3584 2631 3529 
Q 2884 3475 3122 3366 
z
" transform="scale(0.015625)"/>
      <path id="DejaVuSans-68" d="M 3513 2113 
L 3513 0 
L 2938 0 
L 2938 2094 
Q 2938 2591 2744 2837 
Q 2550 3084 2163 3084 
Q 1697 3084 1428 2787 
Q 1159 2491 1159 1978 
L 1159 0 
L 581 0 
L 581 4863 
L 1159 4863 
L 1159 2956 
Q 1366 3272 1645 3428 
Q 1925 3584 2291 3584 
Q 2894 3584 3203 3211 
Q 3513 2838 3513 2113 
z
" transform="scale(0.015625)"/>
      <path id="DejaVuSans-6a" d="M 603 3500 
L 1178 3500 
L 1178 -63 
Q 1178 -731 923 -1031 
Q 669 -1331 103 -1331 
L -116 -1331 
L -116 -844 
L 38 -844 
Q 366 -844 484 -692 
Q 603 -541 603 -63 
L 603 3500 
z
M 603 4863 
L 1178 4863 
L 1178 4134 
L 603 4134 
L 603 4863 
z
" transform="scale(0.015625)"/>
     </defs>
     <use xlink:href="#DejaVuSans-6d"/>
     <use xlink:href="#DejaVuSans-75" transform="translate(97.412109 0)"/>
     <use xlink:href="#DejaVuSans-73" transform="translate(160.791016 0)"/>
     <use xlink:href="#DejaVuSans-74" transform="translate(212.890625 0)"/>
     <use xlink:href="#DejaVuSans-61" transform="translate(252.099609 0)"/>
     <use xlink:href="#DejaVuSans-63" transform="translate(313.378906 0)"/>
     <use xlink:href="#DejaVuSans-68" transform="translate(368.359375 0)"/>
     <use xlink:href="#DejaVuSans-65" transform="translate(431.738281 0)"/>
     <use xlink:href="#DejaVuSans-6a" transform="translate(493.261719 0)"/>
    </g>
   </g>
   <g id="text_17">
    <!-- trimou -->
    <g style="fill: #1f77b4" transform="translate(390.9225 282.339083) scale(0.08 -0.08)">
     <defs>
      <path id="DejaVuSans-6f" d="M 1959 3097 
Q 1497 3097 1228 2736 
Q 959 2375 959 1747 
Q 959 1119 1226 758 
Q 1494 397 1959 397 
Q 2419 397 2687 759 
Q 2956 1122 2956 1747 
Q 2956 2369 2687 2733 
Q 2419 3097 1959 3097 
z
M 1959 3584 
Q 2709 3584 3137 3096 
Q 3566 2609 3566 1747 
Q 3566 888 3137 398 
Q 2709 -91 1959 -91 
Q 1206 -91 779 398 
Q 353 888 353 1747 
Q 353 2609 779 3096 
Q 1206 3584 1959 3584 
z
" transform="scale(0.015625)"/>
     </defs>
     <use xlink:href="#DejaVuSans-74"/>
     <use xlink:href="#DejaVuSans-72" transform="translate(39.208984 0)"/>
     <use xlink:href="#DejaVuSans-69" transform="translate(80.322266 0)"/>
     <use xlink:href="#DejaVuSans-6d" transform="translate(108.105469 0)"/>
     <use xlink:href="#DejaVuSans-6f" transform="translate(205.517578 0)"/>
     <use xlink:href="#DejaVuSans-75" transform="translate(266.699219 0)"/>
    </g>
   </g>
   <g id="text_18">
    <!-- solomon -->
    <g style="fill: #e377c2" transform="translate(390.9225 274.74812) scale(0.08 -0.08)">
     <defs>
      <path id="DejaVuSans-6c" d="M 603 4863 
L 1178 4863 
L 1178 0 
L 603 0 
L 603 4863 
z
" transform="scale(0.015625)"/>
     </defs>
     <use xlink:href="#DejaVuSans-73"/>
     <use xlink:href="#DejaVuSans-6f" transform="translate(52.099609 0)"/>
     <use xlink:href="#DejaVuSans-6c" transform="translate(113.28125 0)"/>
     <use xlink:href="#DejaVuSans-6f" transform="translate(141.064453 0)"/>
     <use xlink:href="#DejaVuSans-6d" transform="translate(202.246094 0)"/>
     <use xlink:href="#DejaVuSans-6f" transform="translate(299.658203 0)"/>
     <use xlink:href="#DejaVuSans-6e" transform="translate(360.839844 0)"/>
    </g>
   </g>
   <g id="text_19">
    <!-- pebble -->
    <g style="fill: #8c564b" transform="translate(390.9225 263.783395) scale(0.08 -0.08)">
     <defs>
      <path id="DejaVuSans-70" d="M 1159 525 
L 1159 -1331 
L 581 -1331 
L 581 3500 
L 1159 3500 
L 1159 2969 
Q 1341 3281 1617 3432 
Q 1894 3584 2278 3584 
Q 2916 3584 3314 3078 
Q 3713 2572 3713 1747 
Q 3713 922 3314 415 
Q 2916 -91 2278 -91 
Q 1894 -91 1617 61 
Q 1341 213 1159 525 
z
M 3116 1747 
Q 3116 2381 2855 2742 
Q 2594 3103 2138 3103 
Q 1681 3103 1420 2742 
Q 1159 2381 1159 1747 
Q 1159 1113 1420 752 
Q 1681 391 2138 391 
Q 2594 391 2855 752 
Q 3116 1113 3116 1747 
z
" transform="scale(0.015625)"/>
      <path id="DejaVuSans-62" d="M 3116 1747 
Q 3116 2381 2855 2742 
Q 2594 3103 2138 3103 
Q 1681 3103 1420 2742 
Q 1159 2381 1159 1747 
Q 1159 1113 1420 752 
Q 1681 391 2138 391 
Q 2594 391 2855 752 
Q 3116 1113 3116 1747 
z
M 1159 2969 
Q 1341 3281 1617 3432 
Q 1894 3584 2278 3584 
Q 2916 3584 3314 3078 
Q 3713 2572 3713 1747 
Q 3713 922 3314 415 
Q 2916 -91 2278 -91 
Q 1894 -91 1617 61 
Q 1341 213 1159 525 
L 1159 0 
L 581 0 
L 581 4863 
L 1159 4863 
L 1159 2969 
z
" transform="scale(0.015625)"/>
     </defs>
     <use xlink:href="#DejaVuSans-70"/>
     <use xlink:href="#DejaVuSans-65" transform="translate(63.476562 0)"/>
     <use xlink:href="#DejaVuSans-62" transform="translate(125 0)"/>
     <use xlink:href="#DejaVuSans-62" transform="translate(188.476562 0)"/>
     <use xlink:href="#DejaVuSans-6c" transform="translate(251.953125 0)"/>
     <use xlink:href="#DejaVuSans-65" transform="translate(279.736328 0)"/>
    </g>
   </g>
   <g id="text_20">
    <!-- stringtree -->
    <g style="fill: #bcbd22" transform="translate(390.9225 231.732663) scale(0.08 -0.08)">
     <defs>
      <path id="DejaVuSans-67" d="M 2906 1791 
Q 2906 2416 2648 2759 
Q 2391 3103 1925 3103 
Q 1463 3103 1205 2759 
Q 947 2416 947 1791 
Q 947 1169 1205 825 
Q 1463 481 1925 481 
Q 2391 481 2648 825 
Q 2906 1169 2906 1791 
z
M 3481 434 
Q 3481 -459 3084 -895 
Q 2688 -1331 1869 -1331 
Q 1566 -1331 1297 -1286 
Q 1028 -1241 775 -1147 
L 775 -588 
Q 1028 -725 1275 -790 
Q 1522 -856 1778 -856 
Q 2344 -856 2625 -561 
Q 2906 -266 2906 331 
L 2906 616 
Q 2728 306 2450 153 
Q 2172 0 1784 0 
Q 1141 0 747 490 
Q 353 981 353 1791 
Q 353 2603 747 3093 
Q 1141 3584 1784 3584 
Q 2172 3584 2450 3431 
Q 2728 3278 2906 2969 
L 2906 3500 
L 3481 3500 
L 3481 434 
z
" transform="scale(0.015625)"/>
     </defs>
     <use xlink:href="#DejaVuSans-73"/>
     <use xlink:href="#DejaVuSans-74" transform="translate(52.099609 0)"/>
     <use xlink:href="#DejaVuSans-72" transform="translate(91.308594 0)"/>
     <use xlink:href="#DejaVuSans-69" transform="translate(132.421875 0)"/>
     <use xlink:href="#DejaVuSans-6e" transform="translate(160.205078 0)"/>
     <use xlink:href="#DejaVuSans-67" transform="translate(223.583984 0)"/>
     <use xlink:href="#DejaVuSans-74" transform="translate(287.060547 0)"/>
     <use xlink:href="#DejaVuSans-72" transform="translate(326.269531 0)"/>
     <use xlink:href="#DejaVuSans-65" transform="translate(365.132812 0)"/>
     <use xlink:href="#DejaVuSans-65" transform="translate(426.65625 0)"/>
    </g>
   </g>
   <g id="text_21">
    <!-- freemarker -->
    <g style="fill: #1f77b4" transform="translate(390.9225 224.1417) scale(0.08 -0.08)">
     <defs>
      <path id="DejaVuSans-66" d="M 2375 4863 
L 2375 4384 
L 1825 4384 
Q 1516 4384 1395 4259 
Q 1275 4134 1275 3809 
L 1275 3500 
L 2222 3500 
L 2222 3053 
L 1275 3053 
L 1275 0 
L 697 0 
L 697 3053 
L 147 3053 
L 147 3500 
L 697 3500 
L 697 3744 
Q 697 4328 969 4595 
Q 1241 4863 1831 4863 
L 2375 4863 
z
" transform="scale(0.015625)"/>
      <path id="DejaVuSans-6b" d="M 581 4863 
L 1159 4863 
L 1159 1991 
L 2875 3500 
L 3609 3500 
L 1753 1863 
L 3688 0 
L 2938 0 
L 1159 1709 
L 1159 0 
L 581 0 
L 581 4863 
z
" transform="scale(0.015625)"/>
     </defs>
     <use xlink:href="#DejaVuSans-66"/>
     <use xlink:href="#DejaVuSans-72" transform="translate(35.205078 0)"/>
     <use xlink:href="#DejaVuSans-65" transform="translate(74.068359 0)"/>
     <use xlink:href="#DejaVuSans-65" transform="translate(135.591797 0)"/>
     <use xlink:href="#DejaVuSans-6d" transform="translate(197.115234 0)"/>
     <use xlink:href="#DejaVuSans-61" transform="translate(294.527344 0)"/>
     <use xlink:href="#DejaVuSans-72" transform="translate(355.806641 0)"/>
     <use xlink:href="#DejaVuSans-6b" transform="translate(396.919922 0)"/>
     <use xlink:href="#DejaVuSans-65" transform="translate(451.205078 0)"/>
     <use xlink:href="#DejaVuSans-72" transform="translate(512.728516 0)"/>
    </g>
   </g>
   <g id="text_22">
    <!-- thymeleaf -->
    <g style="fill: #17becf" transform="translate(390.9225 116.603058) scale(0.08 -0.08)">
     <defs>
      <path id="DejaVuSans-79" d="M 2059 -325 
Q 1816 -950 1584 -1140 
Q 1353 -1331 966 -1331 
L 506 -1331 
L 506 -850 
L 844 -850 
Q 1081 -850 1212 -737 
Q 1344 -625 1503 -206 
L 1606 56 
L 191 3500 
L 800 3500 
L 1894 763 
L 2988 3500 
L 3597 3500 
L 2059 -325 
z
" transform="scale(0.015625)"/>
     </defs>
     <use xlink:href="#DejaVuSans-74"/>
     <use xlink:href="#DejaVuSans-68" transform="translate(39.208984 0)"/>
     <use xlink:href="#DejaVuSans-79" transform="translate(102.587891 0)"/>
     <use xlink:href="#DejaVuSans-6d" transform="translate(161.767578 0)"/>
     <use xlink:href="#DejaVuSans-65" transform="translate(259.179688 0)"/>
     <use xlink:href="#DejaVuSans-6c" transform="translate(320.703125 0)"/>
     <use xlink:href="#DejaVuSans-65" transform="translate(348.486328 0)"/>
     <use xlink:href="#DejaVuSans-61" transform="translate(410.009766 0)"/>
     <use xlink:href="#DejaVuSans-66" transform="translate(471.289062 0)"/>
    </g>
   </g>
   <g id="text_23">
    <!-- handlebars -->
    <g style="fill: #ff7f0e" transform="translate(390.9225 109.012095) scale(0.08 -0.08)">
     <defs>
      <path id="DejaVuSans-64" d="M 2906 2969 
L 2906 4863 
L 3481 4863 
L 3481 0 
L 2906 0 
L 2906 525 
Q 2725 213 2448 61 
Q 2172 -91 1784 -91 
Q 1150 -91 751 415 
Q 353 922 353 1747 
Q 353 2572 751 3078 
Q 1150 3584 1784 3584 
Q 2172 3584 2448 3432 
Q 2725 3281 2906 2969 
z
M 947 1747 
Q 947 1113 1208 752 
Q 1469 391 1925 391 
Q 2381 391 2643 752 
Q 2906 1113 2906 1747 
Q 2906 2381 2643 2742 
Q 2381 3103 1925 3103 
Q 1469 3103 1208 2742 
Q 947 2381 947 1747 
z
" transform="scale(0.015625)"/>
     </defs>
     <use xlink:href="#DejaVuSans-68"/>
     <use xlink:href="#DejaVuSans-61" transform="translate(63.378906 0)"/>
     <use xlink:href="#DejaVuSans-6e" transform="translate(124.658203 0)"/>
     <use xlink:href="#DejaVuSans-64" transform="translate(188.037109 0)"/>
     <use xlink:href="#DejaVuSans-6c" transform="translate(251.513672 0)"/>
     <use xlink:href="#DejaVuSans-65" transform="translate(279.296875 0)"/>
     <use xlink:href="#DejaVuSans-62" transform="translate(340.820312 0)"/>
     <use xlink:href="#DejaVuSans-61" transform="translate(404.296875 0)"/>
     <use xlink:href="#DejaVuSans-72" transform="translate(465.576172 0)"/>
     <use xlink:href="#DejaVuSans-73" transform="translate(506.689453 0)"/>
    </g>
   </g>
   <g id="text_24">
    <!-- jangod -->
    <g style="fill: #2ca02c" transform="translate(390.9225 90.034688) scale(0.08 -0.08)">
     <use xlink:href="#DejaVuSans-6a"/>
     <use xlink:href="#DejaVuSans-61" transform="translate(27.783203 0)"/>
     <use xlink:href="#DejaVuSans-6e" transform="translate(89.0625 0)"/>
     <use xlink:href="#DejaVuSans-67" transform="translate(152.441406 0)"/>
     <use xlink:href="#DejaVuSans-6f" transform="translate(215.917969 0)"/>
     <use xlink:href="#DejaVuSans-64" transform="translate(277.099609 0)"/>
    </g>
   </g>
   <g id="text_25">
    <!-- velocity -->
    <g style="fill: #ff7f0e" transform="translate(390.9225 79.913404) scale(0.08 -0.08)">
     <defs>
      <path id="DejaVuSans-76" d="M 191 3500 
L 800 3500 
L 1894 563 
L 2988 3500 
L 3597 3500 
L 2284 0 
L 1503 0 
L 191 3500 
z
" transform="scale(0.015625)"/>
     </defs>
     <use xlink:href="#DejaVuSans-76"/>
     <use xlink:href="#DejaVuSans-65" transform="translate(59.179688 0)"/>
     <use xlink:href="#DejaVuSans-6c" transform="translate(120.703125 0)"/>
     <use xlink:href="#DejaVuSans-6f" transform="translate(148.486328 0)"/>
     <use xlink:href="#DejaVuSans-63" transform="translate(209.667969 0)"/>
     <use xlink:href="#DejaVuSans-69" transform="translate(264.648438 0)"/>
     <use xlink:href="#DejaVuSans-74" transform="translate(292.431641 0)"/>
     <use xlink:href="#DejaVuSans-79" transform="translate(331.640625 0)"/>
    </g>
   </g>
   <g id="text_26">
    <!-- stringtemplate -->
    <g style="fill: #7f7f7f" transform="translate(390.9225 41.958589) scale(0.08 -0.08)">
     <use xlink:href="#DejaVuSans-73"/>
     <use xlink:href="#DejaVuSans-74" transform="translate(52.099609 0)"/>
     <use xlink:href="#DejaVuSans-72" transform="translate(91.308594 0)"/>
     <use xlink:href="#DejaVuSans-69" transform="translate(132.421875 0)"/>
     <use xlink:href="#DejaVuSans-6e" transform="translate(160.205078 0)"/>
     <use xlink:href="#DejaVuSans-67" transform="translate(223.583984 0)"/>
     <use xlink:href="#DejaVuSans-74" transform="translate(287.060547 0)"/>
     <use xlink:href="#DejaVuSans-65" transform="translate(326.269531 0)"/>
     <use xlink:href="#DejaVuSans-6d" transform="translate(387.792969 0)"/>
     <use xlink:href="#DejaVuSans-70" transform="translate(485.205078 0)"/>
     <use xlink:href="#DejaVuSans-6c" transform="translate(548.681641 0)"/>
     <use xlink:href="#DejaVuSans-61" transform="translate(576.464844 0)"/>
     <use xlink:href="#DejaVuSans-74" transform="translate(637.744141 0)"/>
     <use xlink:href="#DejaVuSans-65" transform="translate(676.953125 0)"/>
    </g>
   </g>
   <g id="text_27">
    <!-- jte -->
    <g style="fill: #d62728" transform="translate(390.9225 34.367626) scale(0.08 -0.08)">
     <use xlink:href="#DejaVuSans-6a"/>
     <use xlink:href="#DejaVuSans-74" transform="translate(27.783203 0)"/>
     <use xlink:href="#DejaVuSans-65" transform="translate(66.992188 0)"/>
    </g>
   </g>
  </g>
 </g>
 <defs>
  <clipPath id="pa9db40d596">
   <rect x="50.565625" y="10.8" width="334.356875" height="293.64375"/>
  </clipPath>
 </defs>
</svg>
