<?xml version="1.0" encoding="utf-8" standalone="no"?>
<!DOCTYPE svg PUBLIC "-//W3C//DTD SVG 1.1//EN"
  "http://www.w3.org/Graphics/SVG/1.1/DTD/svg11.dtd">
<svg xmlns:xlink="http://www.w3.org/1999/xlink" width="460.8pt" height="345.6pt" viewBox="0 0 460.8 345.6" xmlns="http://www.w3.org/2000/svg" version="1.1">
 <metadata>
  <rdf:RDF xmlns:dc="http://purl.org/dc/elements/1.1/" xmlns:cc="http://creativecommons.org/ns#" xmlns:rdf="http://www.w3.org/1999/02/22-rdf-syntax-ns#">
   <cc:Work>
    <dc:type rdf:resource="http://purl.org/dc/dcmitype/StillImage"/>
    <dc:date>2025-04-13T16:08:54.306986</dc:date>
    <dc:format>image/svg+xml</dc:format>
    <dc:creator>
     <cc:Agent>
      <dc:title>Matplotlib v3.10.1, https://matplotlib.org/</dc:title>
     </cc:Agent>
    </dc:creator>
   </cc:Work>
  </rdf:RDF>
 </metadata>
 <defs>
  <style type="text/css">*{stroke-linejoin: round; stroke-linecap: butt}</style>
 </defs>
 <g id="figure_1">
  <g id="patch_1">
   <path d="M 0 345.6 
L 460.8 345.6 
L 460.8 0 
L 0 0 
z
" style="fill: #ffffff"/>
  </g>
  <g id="axes_1">
   <g id="patch_2">
    <path d="M 50.565625 304.44375 
L 384.9225 304.44375 
L 384.9225 10.8 
L 50.565625 10.8 
z
" style="fill: #ffffff"/>
   </g>
   <g id="matplotlib.axis_1">
    <g id="xtick_1">
     <g id="line2d_1">
      <defs>
       <path id="m9fb7a0ab4a" d="M 0 0 
L 0 3.5 
" style="stroke: #000000; stroke-width: 0.8"/>
      </defs>
      <g>
       <use xlink:href="#m9fb7a0ab4a" x="65.733266" y="304.44375" style="stroke: #000000; stroke-width: 0.8"/>
      </g>
     </g>
     <g id="text_1">
      <!-- 0 -->
      <g transform="translate(62.552016 319.042187) scale(0.1 -0.1)">
       <defs>
        <path id="DejaVuSans-30" d="M 2034 4250 
Q 1547 4250 1301 3770 
Q 1056 3291 1056 2328 
Q 1056 1369 1301 889 
Q 1547 409 2034 409 
Q 2525 409 2770 889 
Q 3016 1369 3016 2328 
Q 3016 3291 2770 3770 
Q 2525 4250 2034 4250 
z
M 2034 4750 
Q 2819 4750 3233 4129 
Q 3647 3509 3647 2328 
Q 3647 1150 3233 529 
Q 2819 -91 2034 -91 
Q 1250 -91 836 529 
Q 422 1150 422 2328 
Q 422 3509 836 4129 
Q 1250 4750 2034 4750 
z
" transform="scale(0.015625)"/>
       </defs>
       <use xlink:href="#DejaVuSans-30"/>
      </g>
     </g>
    </g>
    <g id="xtick_2">
     <g id="line2d_2">
      <g>
       <use xlink:href="#m9fb7a0ab4a" x="126.531505" y="304.44375" style="stroke: #000000; stroke-width: 0.8"/>
      </g>
     </g>
     <g id="text_2">
      <!-- 2000 -->
      <g transform="translate(113.806505 319.042187) scale(0.1 -0.1)">
       <defs>
        <path id="DejaVuSans-32" d="M 1228 531 
L 3431 531 
L 3431 0 
L 469 0 
L 469 531 
Q 828 903 1448 1529 
Q 2069 2156 2228 2338 
Q 2531 2678 2651 2914 
Q 2772 3150 2772 3378 
Q 2772 3750 2511 3984 
Q 2250 4219 1831 4219 
Q 1534 4219 1204 4116 
Q 875 4013 500 3803 
L 500 4441 
Q 881 4594 1212 4672 
Q 1544 4750 1819 4750 
Q 2544 4750 2975 4387 
Q 3406 4025 3406 3419 
Q 3406 3131 3298 2873 
Q 3191 2616 2906 2266 
Q 2828 2175 2409 1742 
Q 1991 1309 1228 531 
z
" transform="scale(0.015625)"/>
       </defs>
       <use xlink:href="#DejaVuSans-32"/>
       <use xlink:href="#DejaVuSans-30" transform="translate(63.623047 0)"/>
       <use xlink:href="#DejaVuSans-30" transform="translate(127.246094 0)"/>
       <use xlink:href="#DejaVuSans-30" transform="translate(190.869141 0)"/>
      </g>
     </g>
    </g>
    <g id="xtick_3">
     <g id="line2d_3">
      <g>
       <use xlink:href="#m9fb7a0ab4a" x="187.329743" y="304.44375" style="stroke: #000000; stroke-width: 0.8"/>
      </g>
     </g>
     <g id="text_3">
      <!-- 4000 -->
      <g transform="translate(174.604743 319.042187) scale(0.1 -0.1)">
       <defs>
        <path id="DejaVuSans-34" d="M 2419 4116 
L 825 1625 
L 2419 1625 
L 2419 4116 
z
M 2253 4666 
L 3047 4666 
L 3047 1625 
L 3713 1625 
L 3713 1100 
L 3047 1100 
L 3047 0 
L 2419 0 
L 2419 1100 
L 313 1100 
L 313 1709 
L 2253 4666 
z
" transform="scale(0.015625)"/>
       </defs>
       <use xlink:href="#DejaVuSans-34"/>
       <use xlink:href="#DejaVuSans-30" transform="translate(63.623047 0)"/>
       <use xlink:href="#DejaVuSans-30" transform="translate(127.246094 0)"/>
       <use xlink:href="#DejaVuSans-30" transform="translate(190.869141 0)"/>
      </g>
     </g>
    </g>
    <g id="xtick_4">
     <g id="line2d_4">
      <g>
       <use xlink:href="#m9fb7a0ab4a" x="248.127982" y="304.44375" style="stroke: #000000; stroke-width: 0.8"/>
      </g>
     </g>
     <g id="text_4">
      <!-- 6000 -->
      <g transform="translate(235.402982 319.042187) scale(0.1 -0.1)">
       <defs>
        <path id="DejaVuSans-36" d="M 2113 2584 
Q 1688 2584 1439 2293 
Q 1191 2003 1191 1497 
Q 1191 994 1439 701 
Q 1688 409 2113 409 
Q 2538 409 2786 701 
Q 3034 994 3034 1497 
Q 3034 2003 2786 2293 
Q 2538 2584 2113 2584 
z
M 3366 4563 
L 3366 3988 
Q 3128 4100 2886 4159 
Q 2644 4219 2406 4219 
Q 1781 4219 1451 3797 
Q 1122 3375 1075 2522 
Q 1259 2794 1537 2939 
Q 1816 3084 2150 3084 
Q 2853 3084 3261 2657 
Q 3669 2231 3669 1497 
Q 3669 778 3244 343 
Q 2819 -91 2113 -91 
Q 1303 -91 875 529 
Q 447 1150 447 2328 
Q 447 3434 972 4092 
Q 1497 4750 2381 4750 
Q 2619 4750 2861 4703 
Q 3103 4656 3366 4563 
z
" transform="scale(0.015625)"/>
       </defs>
       <use xlink:href="#DejaVuSans-36"/>
       <use xlink:href="#DejaVuSans-30" transform="translate(63.623047 0)"/>
       <use xlink:href="#DejaVuSans-30" transform="translate(127.246094 0)"/>
       <use xlink:href="#DejaVuSans-30" transform="translate(190.869141 0)"/>
      </g>
     </g>
    </g>
    <g id="xtick_5">
     <g id="line2d_5">
      <g>
       <use xlink:href="#m9fb7a0ab4a" x="308.926221" y="304.44375" style="stroke: #000000; stroke-width: 0.8"/>
      </g>
     </g>
     <g id="text_5">
      <!-- 8000 -->
      <g transform="translate(296.201221 319.042187) scale(0.1 -0.1)">
       <defs>
        <path id="DejaVuSans-38" d="M 2034 2216 
Q 1584 2216 1326 1975 
Q 1069 1734 1069 1313 
Q 1069 891 1326 650 
Q 1584 409 2034 409 
Q 2484 409 2743 651 
Q 3003 894 3003 1313 
Q 3003 1734 2745 1975 
Q 2488 2216 2034 2216 
z
M 1403 2484 
Q 997 2584 770 2862 
Q 544 3141 544 3541 
Q 544 4100 942 4425 
Q 1341 4750 2034 4750 
Q 2731 4750 3128 4425 
Q 3525 4100 3525 3541 
Q 3525 3141 3298 2862 
Q 3072 2584 2669 2484 
Q 3125 2378 3379 2068 
Q 3634 1759 3634 1313 
Q 3634 634 3220 271 
Q 2806 -91 2034 -91 
Q 1263 -91 848 271 
Q 434 634 434 1313 
Q 434 1759 690 2068 
Q 947 2378 1403 2484 
z
M 1172 3481 
Q 1172 3119 1398 2916 
Q 1625 2713 2034 2713 
Q 2441 2713 2670 2916 
Q 2900 3119 2900 3481 
Q 2900 3844 2670 4047 
Q 2441 4250 2034 4250 
Q 1625 4250 1398 4047 
Q 1172 3844 1172 3481 
z
" transform="scale(0.015625)"/>
       </defs>
       <use xlink:href="#DejaVuSans-38"/>
       <use xlink:href="#DejaVuSans-30" transform="translate(63.623047 0)"/>
       <use xlink:href="#DejaVuSans-30" transform="translate(127.246094 0)"/>
       <use xlink:href="#DejaVuSans-30" transform="translate(190.869141 0)"/>
      </g>
     </g>
    </g>
    <g id="xtick_6">
     <g id="line2d_6">
      <g>
       <use xlink:href="#m9fb7a0ab4a" x="369.72446" y="304.44375" style="stroke: #000000; stroke-width: 0.8"/>
      </g>
     </g>
     <g id="text_6">
      <!-- 10000 -->
      <g transform="translate(353.81821 319.042187) scale(0.1 -0.1)">
       <defs>
        <path id="DejaVuSans-31" d="M 794 531 
L 1825 531 
L 1825 4091 
L 703 3866 
L 703 4441 
L 1819 4666 
L 2450 4666 
L 2450 531 
L 3481 531 
L 3481 0 
L 794 0 
L 794 531 
z
" transform="scale(0.015625)"/>
       </defs>
       <use xlink:href="#DejaVuSans-31"/>
       <use xlink:href="#DejaVuSans-30" transform="translate(63.623047 0)"/>
       <use xlink:href="#DejaVuSans-30" transform="translate(127.246094 0)"/>
       <use xlink:href="#DejaVuSans-30" transform="translate(190.869141 0)"/>
       <use xlink:href="#DejaVuSans-30" transform="translate(254.492188 0)"/>
      </g>
     </g>
    </g>
    <g id="text_7">
     <!-- n runs -->
     <g transform="translate(201.988594 332.720312) scale(0.1 -0.1)">
      <defs>
       <path id="DejaVuSans-6e" d="M 3513 2113 
L 3513 0 
L 2938 0 
L 2938 2094 
Q 2938 2591 2744 2837 
Q 2550 3084 2163 3084 
Q 1697 3084 1428 2787 
Q 1159 2491 1159 1978 
L 1159 0 
L 581 0 
L 581 3500 
L 1159 3500 
L 1159 2956 
Q 1366 3272 1645 3428 
Q 1925 3584 2291 3584 
Q 2894 3584 3203 3211 
Q 3513 2838 3513 2113 
z
" transform="scale(0.015625)"/>
       <path id="DejaVuSans-20" transform="scale(0.015625)"/>
       <path id="DejaVuSans-72" d="M 2631 2963 
Q 2534 3019 2420 3045 
Q 2306 3072 2169 3072 
Q 1681 3072 1420 2755 
Q 1159 2438 1159 1844 
L 1159 0 
L 581 0 
L 581 3500 
L 1159 3500 
L 1159 2956 
Q 1341 3275 1631 3429 
Q 1922 3584 2338 3584 
Q 2397 3584 2469 3576 
Q 2541 3569 2628 3553 
L 2631 2963 
z
" transform="scale(0.015625)"/>
       <path id="DejaVuSans-75" d="M 544 1381 
L 544 3500 
L 1119 3500 
L 1119 1403 
Q 1119 906 1312 657 
Q 1506 409 1894 409 
Q 2359 409 2629 706 
Q 2900 1003 2900 1516 
L 2900 3500 
L 3475 3500 
L 3475 0 
L 2900 0 
L 2900 538 
Q 2691 219 2414 64 
Q 2138 -91 1772 -91 
Q 1169 -91 856 284 
Q 544 659 544 1381 
z
M 1991 3584 
L 1991 3584 
z
" transform="scale(0.015625)"/>
       <path id="DejaVuSans-73" d="M 2834 3397 
L 2834 2853 
Q 2591 2978 2328 3040 
Q 2066 3103 1784 3103 
Q 1356 3103 1142 2972 
Q 928 2841 928 2578 
Q 928 2378 1081 2264 
Q 1234 2150 1697 2047 
L 1894 2003 
Q 2506 1872 2764 1633 
Q 3022 1394 3022 966 
Q 3022 478 2636 193 
Q 2250 -91 1575 -91 
Q 1294 -91 989 -36 
Q 684 19 347 128 
L 347 722 
Q 666 556 975 473 
Q 1284 391 1588 391 
Q 1994 391 2212 530 
Q 2431 669 2431 922 
Q 2431 1156 2273 1281 
Q 2116 1406 1581 1522 
L 1381 1569 
Q 847 1681 609 1914 
Q 372 2147 372 2553 
Q 372 3047 722 3315 
Q 1072 3584 1716 3584 
Q 2034 3584 2315 3537 
Q 2597 3491 2834 3397 
z
" transform="scale(0.015625)"/>
      </defs>
      <use xlink:href="#DejaVuSans-6e"/>
      <use xlink:href="#DejaVuSans-20" transform="translate(63.378906 0)"/>
      <use xlink:href="#DejaVuSans-72" transform="translate(95.166016 0)"/>
      <use xlink:href="#DejaVuSans-75" transform="translate(136.279297 0)"/>
      <use xlink:href="#DejaVuSans-6e" transform="translate(199.658203 0)"/>
      <use xlink:href="#DejaVuSans-73" transform="translate(263.037109 0)"/>
     </g>
    </g>
   </g>
   <g id="matplotlib.axis_2">
    <g id="ytick_1">
     <g id="line2d_7">
      <defs>
       <path id="mab20c060fd" d="M 0 0 
L -3.5 0 
" style="stroke: #000000; stroke-width: 0.8"/>
      </defs>
      <g>
       <use xlink:href="#mab20c060fd" x="50.565625" y="291.516699" style="stroke: #000000; stroke-width: 0.8"/>
      </g>
     </g>
     <g id="text_8">
      <!-- 0 -->
      <g transform="translate(37.203125 295.315917) scale(0.1 -0.1)">
       <use xlink:href="#DejaVuSans-30"/>
      </g>
     </g>
    </g>
    <g id="ytick_2">
     <g id="line2d_8">
      <g>
       <use xlink:href="#mab20c060fd" x="50.565625" y="249.477508" style="stroke: #000000; stroke-width: 0.8"/>
      </g>
     </g>
     <g id="text_9">
      <!-- 100 -->
      <g transform="translate(24.478125 253.276726) scale(0.1 -0.1)">
       <use xlink:href="#DejaVuSans-31"/>
       <use xlink:href="#DejaVuSans-30" transform="translate(63.623047 0)"/>
       <use xlink:href="#DejaVuSans-30" transform="translate(127.246094 0)"/>
      </g>
     </g>
    </g>
    <g id="ytick_3">
     <g id="line2d_9">
      <g>
       <use xlink:href="#mab20c060fd" x="50.565625" y="207.438316" style="stroke: #000000; stroke-width: 0.8"/>
      </g>
     </g>
     <g id="text_10">
      <!-- 200 -->
      <g transform="translate(24.478125 211.237535) scale(0.1 -0.1)">
       <use xlink:href="#DejaVuSans-32"/>
       <use xlink:href="#DejaVuSans-30" transform="translate(63.623047 0)"/>
       <use xlink:href="#DejaVuSans-30" transform="translate(127.246094 0)"/>
      </g>
     </g>
    </g>
    <g id="ytick_4">
     <g id="line2d_10">
      <g>
       <use xlink:href="#mab20c060fd" x="50.565625" y="165.399125" style="stroke: #000000; stroke-width: 0.8"/>
      </g>
     </g>
     <g id="text_11">
      <!-- 300 -->
      <g transform="translate(24.478125 169.198344) scale(0.1 -0.1)">
       <defs>
        <path id="DejaVuSans-33" d="M 2597 2516 
Q 3050 2419 3304 2112 
Q 3559 1806 3559 1356 
Q 3559 666 3084 287 
Q 2609 -91 1734 -91 
Q 1441 -91 1130 -33 
Q 819 25 488 141 
L 488 750 
Q 750 597 1062 519 
Q 1375 441 1716 441 
Q 2309 441 2620 675 
Q 2931 909 2931 1356 
Q 2931 1769 2642 2001 
Q 2353 2234 1838 2234 
L 1294 2234 
L 1294 2753 
L 1863 2753 
Q 2328 2753 2575 2939 
Q 2822 3125 2822 3475 
Q 2822 3834 2567 4026 
Q 2313 4219 1838 4219 
Q 1578 4219 1281 4162 
Q 984 4106 628 3988 
L 628 4550 
Q 988 4650 1302 4700 
Q 1616 4750 1894 4750 
Q 2613 4750 3031 4423 
Q 3450 4097 3450 3541 
Q 3450 3153 3228 2886 
Q 3006 2619 2597 2516 
z
" transform="scale(0.015625)"/>
       </defs>
       <use xlink:href="#DejaVuSans-33"/>
       <use xlink:href="#DejaVuSans-30" transform="translate(63.623047 0)"/>
       <use xlink:href="#DejaVuSans-30" transform="translate(127.246094 0)"/>
      </g>
     </g>
    </g>
    <g id="ytick_5">
     <g id="line2d_11">
      <g>
       <use xlink:href="#mab20c060fd" x="50.565625" y="123.359934" style="stroke: #000000; stroke-width: 0.8"/>
      </g>
     </g>
     <g id="text_12">
      <!-- 400 -->
      <g transform="translate(24.478125 127.159153) scale(0.1 -0.1)">
       <use xlink:href="#DejaVuSans-34"/>
       <use xlink:href="#DejaVuSans-30" transform="translate(63.623047 0)"/>
       <use xlink:href="#DejaVuSans-30" transform="translate(127.246094 0)"/>
      </g>
     </g>
    </g>
    <g id="ytick_6">
     <g id="line2d_12">
      <g>
       <use xlink:href="#mab20c060fd" x="50.565625" y="81.320743" style="stroke: #000000; stroke-width: 0.8"/>
      </g>
     </g>
     <g id="text_13">
      <!-- 500 -->
      <g transform="translate(24.478125 85.119962) scale(0.1 -0.1)">
       <defs>
        <path id="DejaVuSans-35" d="M 691 4666 
L 3169 4666 
L 3169 4134 
L 1269 4134 
L 1269 2991 
Q 1406 3038 1543 3061 
Q 1681 3084 1819 3084 
Q 2600 3084 3056 2656 
Q 3513 2228 3513 1497 
Q 3513 744 3044 326 
Q 2575 -91 1722 -91 
Q 1428 -91 1123 -41 
Q 819 9 494 109 
L 494 744 
Q 775 591 1075 516 
Q 1375 441 1709 441 
Q 2250 441 2565 725 
Q 2881 1009 2881 1497 
Q 2881 1984 2565 2268 
Q 2250 2553 1709 2553 
Q 1456 2553 1204 2497 
Q 953 2441 691 2322 
L 691 4666 
z
" transform="scale(0.015625)"/>
       </defs>
       <use xlink:href="#DejaVuSans-35"/>
       <use xlink:href="#DejaVuSans-30" transform="translate(63.623047 0)"/>
       <use xlink:href="#DejaVuSans-30" transform="translate(127.246094 0)"/>
      </g>
     </g>
    </g>
    <g id="ytick_7">
     <g id="line2d_13">
      <g>
       <use xlink:href="#mab20c060fd" x="50.565625" y="39.281552" style="stroke: #000000; stroke-width: 0.8"/>
      </g>
     </g>
     <g id="text_14">
      <!-- 600 -->
      <g transform="translate(24.478125 43.080771) scale(0.1 -0.1)">
       <use xlink:href="#DejaVuSans-36"/>
       <use xlink:href="#DejaVuSans-30" transform="translate(63.623047 0)"/>
       <use xlink:href="#DejaVuSans-30" transform="translate(127.246094 0)"/>
      </g>
     </g>
    </g>
    <g id="text_15">
     <!-- time (ms) -->
     <g transform="translate(18.398438 181.883594) rotate(-90) scale(0.1 -0.1)">
      <defs>
       <path id="DejaVuSans-74" d="M 1172 4494 
L 1172 3500 
L 2356 3500 
L 2356 3053 
L 1172 3053 
L 1172 1153 
Q 1172 725 1289 603 
Q 1406 481 1766 481 
L 2356 481 
L 2356 0 
L 1766 0 
Q 1100 0 847 248 
Q 594 497 594 1153 
L 594 3053 
L 172 3053 
L 172 3500 
L 594 3500 
L 594 4494 
L 1172 4494 
z
" transform="scale(0.015625)"/>
       <path id="DejaVuSans-69" d="M 603 3500 
L 1178 3500 
L 1178 0 
L 603 0 
L 603 3500 
z
M 603 4863 
L 1178 4863 
L 1178 4134 
L 603 4134 
L 603 4863 
z
" transform="scale(0.015625)"/>
       <path id="DejaVuSans-6d" d="M 3328 2828 
Q 3544 3216 3844 3400 
Q 4144 3584 4550 3584 
Q 5097 3584 5394 3201 
Q 5691 2819 5691 2113 
L 5691 0 
L 5113 0 
L 5113 2094 
Q 5113 2597 4934 2840 
Q 4756 3084 4391 3084 
Q 3944 3084 3684 2787 
Q 3425 2491 3425 1978 
L 3425 0 
L 2847 0 
L 2847 2094 
Q 2847 2600 2669 2842 
Q 2491 3084 2119 3084 
Q 1678 3084 1418 2786 
Q 1159 2488 1159 1978 
L 1159 0 
L 581 0 
L 581 3500 
L 1159 3500 
L 1159 2956 
Q 1356 3278 1631 3431 
Q 1906 3584 2284 3584 
Q 2666 3584 2933 3390 
Q 3200 3197 3328 2828 
z
" transform="scale(0.015625)"/>
       <path id="DejaVuSans-65" d="M 3597 1894 
L 3597 1613 
L 953 1613 
Q 991 1019 1311 708 
Q 1631 397 2203 397 
Q 2534 397 2845 478 
Q 3156 559 3463 722 
L 3463 178 
Q 3153 47 2828 -22 
Q 2503 -91 2169 -91 
Q 1331 -91 842 396 
Q 353 884 353 1716 
Q 353 2575 817 3079 
Q 1281 3584 2069 3584 
Q 2775 3584 3186 3129 
Q 3597 2675 3597 1894 
z
M 3022 2063 
Q 3016 2534 2758 2815 
Q 2500 3097 2075 3097 
Q 1594 3097 1305 2825 
Q 1016 2553 972 2059 
L 3022 2063 
z
" transform="scale(0.015625)"/>
       <path id="DejaVuSans-28" d="M 1984 4856 
Q 1566 4138 1362 3434 
Q 1159 2731 1159 2009 
Q 1159 1288 1364 580 
Q 1569 -128 1984 -844 
L 1484 -844 
Q 1016 -109 783 600 
Q 550 1309 550 2009 
Q 550 2706 781 3412 
Q 1013 4119 1484 4856 
L 1984 4856 
z
" transform="scale(0.015625)"/>
       <path id="DejaVuSans-29" d="M 513 4856 
L 1013 4856 
Q 1481 4119 1714 3412 
Q 1947 2706 1947 2009 
Q 1947 1309 1714 600 
Q 1481 -109 1013 -844 
L 513 -844 
Q 928 -128 1133 580 
Q 1338 1288 1338 2009 
Q 1338 2731 1133 3434 
Q 928 4138 513 4856 
z
" transform="scale(0.015625)"/>
      </defs>
      <use xlink:href="#DejaVuSans-74"/>
      <use xlink:href="#DejaVuSans-69" transform="translate(39.208984 0)"/>
      <use xlink:href="#DejaVuSans-6d" transform="translate(66.992188 0)"/>
      <use xlink:href="#DejaVuSans-65" transform="translate(164.404297 0)"/>
      <use xlink:href="#DejaVuSans-20" transform="translate(225.927734 0)"/>
      <use xlink:href="#DejaVuSans-28" transform="translate(257.714844 0)"/>
      <use xlink:href="#DejaVuSans-6d" transform="translate(296.728516 0)"/>
      <use xlink:href="#DejaVuSans-73" transform="translate(394.140625 0)"/>
      <use xlink:href="#DejaVuSans-29" transform="translate(446.240234 0)"/>
     </g>
    </g>
   </g>
   <g id="line2d_14">
    <path d="M 65.763665 272.599063 
L 66.037257 270.076711 
L 66.341248 273.019455 
L 66.645239 273.019455 
L 66.94923 272.178671 
L 67.253222 272.599063 
L 67.557213 271.758279 
L 67.861204 271.337887 
L 68.165195 271.337887 
L 68.469186 270.917495 
L 68.773178 271.758279 
L 71.81309 269.235927 
L 74.853001 267.974752 
L 77.892913 266.293184 
L 80.932825 265.872792 
L 83.972737 263.770833 
L 87.012649 263.350441 
L 90.052561 262.089265 
L 93.092473 262.089265 
L 96.132385 260.828089 
L 99.172297 259.987305 
L 102.212209 259.566913 
L 105.252121 258.72613 
L 108.292033 254.942602 
L 111.331945 257.885346 
L 114.371857 253.681427 
L 117.411769 256.203778 
L 120.451681 255.362994 
L 123.491593 251.579467 
L 126.531505 254.942602 
L 129.571417 254.942602 
L 132.611328 251.579467 
L 135.65124 251.999859 
L 138.691152 252.840643 
L 141.731064 250.318291 
L 144.770976 251.159075 
L 147.810888 242.751237 
L 150.8508 250.318291 
L 153.890712 248.636724 
L 156.930624 248.636724 
L 159.970536 250.738683 
L 163.010448 249.477508 
L 166.05036 231.821047 
L 169.090272 248.216332 
L 172.130184 249.057116 
L 175.170096 247.375548 
L 178.210008 246.955156 
L 181.24992 246.534764 
L 184.289832 247.375548 
L 187.329743 246.955156 
L 190.369655 246.955156 
L 193.409567 246.114372 
L 196.449479 246.534764 
L 199.489391 247.375548 
L 202.529303 241.069669 
L 205.569215 241.910453 
L 208.609127 246.955156 
L 211.649039 247.375548 
L 214.688951 247.79594 
L 217.728863 245.273588 
L 220.768775 246.534764 
L 223.808687 242.751237 
L 226.848599 246.534764 
L 229.888511 244.012413 
L 232.928423 246.955156 
L 235.968335 245.273588 
L 239.008247 244.432805 
L 242.048159 245.273588 
L 245.08807 244.853197 
L 248.127982 241.069669 
L 251.167894 244.432805 
L 254.207806 243.592021 
L 257.247718 245.273588 
L 260.28763 244.432805 
L 263.327542 243.171629 
L 266.367454 244.432805 
L 269.407366 235.184183 
L 272.447278 241.910453 
L 275.48719 245.69398 
L 278.527102 243.171629 
L 281.567014 241.910453 
L 284.606926 242.330845 
L 287.646838 242.330845 
L 290.68675 243.171629 
L 293.726662 243.171629 
L 296.766574 242.751237 
L 299.806485 232.661831 
L 302.846397 243.592021 
L 305.886309 242.751237 
L 308.926221 240.649277 
L 311.966133 242.330845 
L 315.006045 243.592021 
L 318.045957 241.910453 
L 321.085869 242.751237 
L 324.125781 241.910453 
L 327.165693 241.910453 
L 330.205605 241.910453 
L 333.245517 242.751237 
L 336.285429 243.171629 
L 339.325341 240.228886 
L 342.365253 239.808494 
L 345.405165 241.069669 
L 348.445077 241.069669 
L 351.484989 240.649277 
L 354.5249 241.490061 
L 357.564812 240.228886 
L 360.604724 241.069669 
L 363.644636 240.649277 
L 366.684548 238.547318 
L 369.72446 230.559872 
" clip-path="url(#pf600427b6f)" style="fill: none; stroke: #1f77b4; stroke-width: 1.5; stroke-linecap: square"/>
   </g>
   <g id="line2d_15">
    <path d="M 65.763665 289.414739 
L 66.037257 288.994347 
L 66.341248 288.994347 
L 66.645239 288.153563 
L 66.94923 288.994347 
L 67.253222 288.573955 
L 67.557213 288.994347 
L 67.861204 288.573955 
L 68.165195 288.573955 
L 68.469186 288.573955 
L 68.773178 288.153563 
L 71.81309 287.733172 
L 74.853001 287.31278 
L 77.892913 286.892388 
L 80.932825 286.051604 
L 83.972737 285.631212 
L 87.012649 284.790428 
L 90.052561 284.370036 
L 93.092473 284.370036 
L 96.132385 284.370036 
L 99.172297 283.949644 
L 102.212209 281.847685 
L 105.252121 281.847685 
L 108.292033 280.586509 
L 111.331945 279.325333 
L 114.371857 281.006901 
L 117.411769 279.325333 
L 120.451681 281.006901 
L 123.491593 281.427293 
L 126.531505 281.847685 
L 129.571417 281.006901 
L 132.611328 280.166117 
L 135.65124 281.427293 
L 138.691152 280.166117 
L 141.731064 278.904941 
L 144.770976 281.006901 
L 147.810888 280.166117 
L 150.8508 278.904941 
L 153.890712 280.166117 
L 156.930624 280.166117 
L 159.970536 280.586509 
L 163.010448 280.166117 
L 166.05036 279.745725 
L 169.090272 279.325333 
L 172.130184 279.745725 
L 175.170096 279.745725 
L 178.210008 279.325333 
L 181.24992 279.745725 
L 184.289832 278.064158 
L 187.329743 278.484549 
L 190.369655 279.745725 
L 193.409567 278.904941 
L 196.449479 279.745725 
L 199.489391 278.904941 
L 202.529303 278.904941 
L 205.569215 278.064158 
L 208.609127 278.904941 
L 211.649039 279.325333 
L 214.688951 278.484549 
L 217.728863 278.064158 
L 220.768775 278.484549 
L 223.808687 278.064158 
L 226.848599 277.643766 
L 229.888511 276.802982 
L 232.928423 276.802982 
L 235.968335 278.064158 
L 239.008247 277.223374 
L 242.048159 275.121414 
L 245.08807 276.802982 
L 248.127982 276.802982 
L 251.167894 275.962198 
L 254.207806 274.701022 
L 257.247718 271.758279 
L 260.28763 275.541806 
L 263.327542 275.962198 
L 266.367454 275.962198 
L 269.407366 275.541806 
L 272.447278 274.28063 
L 275.48719 275.541806 
L 278.527102 275.121414 
L 281.567014 275.962198 
L 284.606926 272.599063 
L 287.646838 274.701022 
L 290.68675 272.599063 
L 293.726662 270.076711 
L 296.766574 274.701022 
L 299.806485 274.701022 
L 302.846397 275.121414 
L 305.886309 273.019455 
L 308.926221 275.121414 
L 311.966133 273.439847 
L 315.006045 273.019455 
L 318.045957 274.701022 
L 321.085869 273.860238 
L 324.125781 274.701022 
L 327.165693 273.019455 
L 330.205605 273.860238 
L 333.245517 273.439847 
L 336.285429 274.28063 
L 339.325341 273.860238 
L 342.365253 272.178671 
L 345.405165 273.860238 
L 348.445077 273.439847 
L 351.484989 273.439847 
L 354.5249 273.860238 
L 357.564812 273.860238 
L 360.604724 272.599063 
L 363.644636 273.439847 
L 366.684548 273.019455 
L 369.72446 270.497103 
" clip-path="url(#pf600427b6f)" style="fill: none; stroke: #ff7f0e; stroke-width: 1.5; stroke-linecap: square"/>
   </g>
   <g id="line2d_16">
    <path d="M 65.763665 285.21082 
L 66.037257 285.21082 
L 66.341248 285.21082 
L 66.645239 284.370036 
L 66.94923 284.370036 
L 67.253222 283.949644 
L 67.557213 283.949644 
L 67.861204 283.529252 
L 68.165195 283.108861 
L 68.469186 283.108861 
L 68.773178 282.688469 
L 71.81309 280.586509 
L 74.853001 278.904941 
L 77.892913 276.802982 
L 80.932825 275.121414 
L 83.972737 273.019455 
L 87.012649 271.337887 
L 90.052561 271.337887 
L 93.092473 269.235927 
L 96.132385 267.55436 
L 99.172297 267.133968 
L 102.212209 265.4524 
L 105.252121 265.4524 
L 108.292033 263.350441 
L 111.331945 262.089265 
L 114.371857 262.930049 
L 117.411769 261.668873 
L 120.451681 262.089265 
L 123.491593 260.407697 
L 126.531505 259.146522 
L 129.571417 258.72613 
L 132.611328 258.305738 
L 135.65124 256.62417 
L 138.691152 257.044562 
L 141.731064 255.362994 
L 144.770976 255.362994 
L 147.810888 254.522211 
L 150.8508 253.261035 
L 153.890712 251.999859 
L 156.930624 251.999859 
L 159.970536 251.159075 
L 163.010448 250.318291 
L 166.05036 248.636724 
L 169.090272 249.8979 
L 172.130184 248.216332 
L 175.170096 247.79594 
L 178.210008 246.534764 
L 181.24992 245.69398 
L 184.289832 244.853197 
L 187.329743 244.432805 
L 190.369655 244.012413 
L 193.409567 244.432805 
L 196.449479 243.171629 
L 199.489391 242.751237 
L 202.529303 241.490061 
L 205.569215 241.069669 
L 208.609127 240.228886 
L 211.649039 238.547318 
L 214.688951 236.445358 
L 217.728863 235.184183 
L 220.768775 236.024966 
L 223.808687 235.604575 
L 226.848599 235.184183 
L 229.888511 234.763791 
L 232.928423 233.502615 
L 235.968335 230.980264 
L 239.008247 230.980264 
L 242.048159 229.298696 
L 245.08807 227.617128 
L 248.127982 225.515169 
L 251.167894 228.457912 
L 254.207806 226.776344 
L 257.247718 226.776344 
L 260.28763 224.253993 
L 263.327542 225.515169 
L 266.367454 219.20929 
L 269.407366 222.152033 
L 272.447278 223.413209 
L 275.48719 222.152033 
L 278.527102 220.050074 
L 281.567014 219.20929 
L 284.606926 218.788898 
L 287.646838 220.050074 
L 290.68675 219.20929 
L 293.726662 215.846155 
L 296.766574 217.948114 
L 299.806485 217.948114 
L 302.846397 216.266547 
L 305.886309 215.846155 
L 308.926221 215.005371 
L 311.966133 214.584979 
L 315.006045 214.164587 
L 318.045957 212.062628 
L 321.085869 211.221844 
L 324.125781 212.483019 
L 327.165693 211.221844 
L 330.205605 208.699492 
L 333.245517 209.960668 
L 336.285429 207.438316 
L 339.325341 208.2791 
L 342.365253 207.438316 
L 345.405165 202.814005 
L 348.445077 205.336357 
L 351.484989 205.756749 
L 354.5249 193.565383 
L 357.564812 204.495573 
L 360.604724 203.234397 
L 363.644636 202.814005 
L 366.684548 202.814005 
L 369.72446 199.030478 
" clip-path="url(#pf600427b6f)" style="fill: none; stroke: #2ca02c; stroke-width: 1.5; stroke-linecap: square"/>
   </g>
   <g id="line2d_17">
    <path d="M 65.763665 56.097228 
L 66.037257 57.778796 
L 66.341248 56.51762 
L 66.645239 60.721539 
L 66.94923 60.721539 
L 67.253222 54.836053 
L 67.557213 59.880756 
L 67.861204 55.676837 
L 68.165195 61.141931 
L 68.469186 57.778796 
L 68.773178 55.256445 
L 71.81309 56.097228 
L 74.853001 55.256445 
L 77.892913 55.256445 
L 80.932825 55.256445 
L 83.972737 40.122336 
L 87.012649 37.179592 
L 90.052561 37.179592 
L 93.092473 53.995269 
L 96.132385 54.836053 
L 99.172297 42.224295 
L 102.212209 40.542728 
L 105.252121 31.714498 
L 108.292033 50.211742 
L 111.331945 49.370958 
L 114.371857 47.68939 
L 117.411769 49.370958 
L 120.451681 43.485471 
L 123.491593 52.313701 
L 126.531505 51.893309 
L 129.571417 48.109782 
L 132.611328 49.370958 
L 135.65124 51.472917 
L 138.691152 54.836053 
L 141.731064 24.147443 
L 144.770976 53.574877 
L 147.810888 48.530174 
L 150.8508 54.836053 
L 153.890712 51.893309 
L 156.930624 44.746647 
L 159.970536 46.007823 
L 163.010448 49.370958 
L 166.05036 48.109782 
L 169.090272 48.950566 
L 172.130184 47.68939 
L 175.170096 48.950566 
L 178.210008 48.109782 
L 181.24992 44.746647 
L 184.289832 47.68939 
L 187.329743 50.632134 
L 190.369655 41.803903 
L 193.409567 44.746647 
L 196.449479 48.530174 
L 199.489391 45.587431 
L 202.529303 49.79135 
L 205.569215 49.370958 
L 208.609127 47.268998 
L 211.649039 40.542728 
L 214.688951 49.370958 
L 217.728863 46.428214 
L 220.768775 48.950566 
L 223.808687 46.848606 
L 226.848599 46.428214 
L 229.888511 46.007823 
L 232.928423 47.68939 
L 235.968335 52.313701 
L 239.008247 47.268998 
L 242.048159 30.03293 
L 245.08807 46.428214 
L 248.127982 46.848606 
L 251.167894 43.065079 
L 254.207806 45.587431 
L 257.247718 40.122336 
L 260.28763 44.326255 
L 263.327542 42.224295 
L 266.367454 41.383512 
L 269.407366 45.587431 
L 272.447278 39.281552 
L 275.48719 43.905863 
L 278.527102 40.96312 
L 281.567014 38.440768 
L 284.606926 44.326255 
L 287.646838 41.383512 
L 290.68675 51.052526 
L 293.726662 44.746647 
L 296.766574 41.803903 
L 299.806485 43.905863 
L 302.846397 45.167039 
L 305.886309 48.530174 
L 308.926221 38.440768 
L 311.966133 44.326255 
L 315.006045 48.950566 
L 318.045957 48.109782 
L 321.085869 47.268998 
L 324.125781 48.109782 
L 327.165693 44.746647 
L 330.205605 42.644687 
L 333.245517 46.848606 
L 336.285429 48.530174 
L 339.325341 44.746647 
L 342.365253 46.428214 
L 345.405165 49.79135 
L 348.445077 43.485471 
L 351.484989 47.268998 
L 354.5249 44.746647 
L 357.564812 33.816457 
L 360.604724 39.701944 
L 363.644636 43.485471 
L 366.684548 40.96312 
L 369.72446 36.338809 
" clip-path="url(#pf600427b6f)" style="fill: none; stroke: #d62728; stroke-width: 1.5; stroke-linecap: square"/>
   </g>
   <g id="line2d_18">
    <path d="M 65.763665 291.096307 
L 66.037257 291.096307 
L 66.341248 291.096307 
L 66.645239 291.096307 
L 66.94923 291.096307 
L 67.253222 291.096307 
L 67.557213 290.675915 
L 67.861204 291.096307 
L 68.165195 291.096307 
L 68.469186 290.675915 
L 68.773178 291.096307 
L 71.81309 290.255523 
L 74.853001 289.835131 
L 77.892913 289.414739 
L 80.932825 288.994347 
L 83.972737 288.994347 
L 87.012649 288.153563 
L 90.052561 288.573955 
L 93.092473 287.733172 
L 96.132385 288.153563 
L 99.172297 287.31278 
L 102.212209 288.153563 
L 105.252121 288.153563 
L 108.292033 286.051604 
L 111.331945 287.733172 
L 114.371857 286.471996 
L 117.411769 287.733172 
L 120.451681 286.471996 
L 123.491593 287.31278 
L 126.531505 286.051604 
L 129.571417 286.471996 
L 132.611328 287.31278 
L 135.65124 285.631212 
L 138.691152 287.733172 
L 141.731064 285.631212 
L 144.770976 287.31278 
L 147.810888 286.892388 
L 150.8508 285.21082 
L 153.890712 285.631212 
L 156.930624 285.631212 
L 159.970536 287.31278 
L 163.010448 285.21082 
L 166.05036 286.892388 
L 169.090272 286.892388 
L 172.130184 285.21082 
L 175.170096 285.21082 
L 178.210008 285.21082 
L 181.24992 285.21082 
L 184.289832 286.892388 
L 187.329743 285.21082 
L 190.369655 284.790428 
L 193.409567 284.790428 
L 196.449479 285.631212 
L 199.489391 285.21082 
L 202.529303 284.790428 
L 205.569215 284.790428 
L 208.609127 284.790428 
L 211.649039 286.051604 
L 214.688951 284.790428 
L 217.728863 286.051604 
L 220.768775 284.790428 
L 223.808687 284.370036 
L 226.848599 286.051604 
L 229.888511 284.790428 
L 232.928423 284.370036 
L 235.968335 284.370036 
L 239.008247 284.370036 
L 242.048159 286.051604 
L 245.08807 285.631212 
L 248.127982 285.631212 
L 251.167894 285.21082 
L 254.207806 285.21082 
L 257.247718 285.631212 
L 260.28763 283.949644 
L 263.327542 284.370036 
L 266.367454 285.631212 
L 269.407366 285.21082 
L 272.447278 285.631212 
L 275.48719 283.529252 
L 278.527102 285.631212 
L 281.567014 285.21082 
L 284.606926 283.529252 
L 287.646838 285.631212 
L 290.68675 285.21082 
L 293.726662 284.370036 
L 296.766574 285.21082 
L 299.806485 285.631212 
L 302.846397 284.790428 
L 305.886309 283.108861 
L 308.926221 283.529252 
L 311.966133 283.529252 
L 315.006045 284.790428 
L 318.045957 284.790428 
L 321.085869 283.108861 
L 324.125781 282.688469 
L 327.165693 284.370036 
L 330.205605 284.790428 
L 333.245517 283.108861 
L 336.285429 281.427293 
L 339.325341 283.529252 
L 342.365253 284.370036 
L 345.405165 283.108861 
L 348.445077 283.108861 
L 351.484989 282.688469 
L 354.5249 282.268077 
L 357.564812 283.108861 
L 360.604724 283.949644 
L 363.644636 282.688469 
L 366.684548 279.325333 
L 369.72446 283.529252 
" clip-path="url(#pf600427b6f)" style="fill: none; stroke: #9467bd; stroke-width: 1.5; stroke-linecap: square"/>
   </g>
   <g id="line2d_19">
    <path d="M 65.763665 284.790428 
L 66.037257 283.529252 
L 66.341248 284.790428 
L 66.645239 284.370036 
L 66.94923 284.370036 
L 67.253222 283.949644 
L 67.557213 283.949644 
L 67.861204 283.949644 
L 68.165195 283.949644 
L 68.469186 283.529252 
L 68.773178 283.529252 
L 71.81309 281.427293 
L 74.853001 281.427293 
L 77.892913 281.006901 
L 80.932825 280.166117 
L 83.972737 280.166117 
L 87.012649 279.325333 
L 90.052561 278.904941 
L 93.092473 277.223374 
L 96.132385 278.064158 
L 99.172297 276.38259 
L 102.212209 275.121414 
L 105.252121 275.121414 
L 108.292033 275.121414 
L 111.331945 268.815536 
L 114.371857 277.643766 
L 117.411769 276.38259 
L 120.451681 273.019455 
L 123.491593 275.962198 
L 126.531505 275.962198 
L 129.571417 275.541806 
L 132.611328 276.802982 
L 135.65124 275.121414 
L 138.691152 275.541806 
L 141.731064 275.962198 
L 144.770976 275.962198 
L 147.810888 275.962198 
L 150.8508 275.121414 
L 153.890712 275.962198 
L 156.930624 275.121414 
L 159.970536 275.541806 
L 163.010448 275.121414 
L 166.05036 275.121414 
L 169.090272 275.541806 
L 172.130184 274.28063 
L 175.170096 273.019455 
L 178.210008 275.121414 
L 181.24992 274.28063 
L 184.289832 275.121414 
L 187.329743 274.701022 
L 190.369655 274.701022 
L 193.409567 275.121414 
L 196.449479 274.28063 
L 199.489391 275.121414 
L 202.529303 273.860238 
L 205.569215 275.541806 
L 208.609127 274.28063 
L 211.649039 273.860238 
L 214.688951 273.860238 
L 217.728863 274.28063 
L 220.768775 274.701022 
L 223.808687 273.439847 
L 226.848599 273.439847 
L 229.888511 273.860238 
L 232.928423 273.439847 
L 235.968335 273.439847 
L 239.008247 273.019455 
L 242.048159 273.860238 
L 245.08807 273.019455 
L 248.127982 273.019455 
L 251.167894 272.599063 
L 254.207806 272.599063 
L 257.247718 272.599063 
L 260.28763 272.599063 
L 263.327542 272.178671 
L 266.367454 272.599063 
L 269.407366 272.599063 
L 272.447278 272.178671 
L 275.48719 271.758279 
L 278.527102 271.337887 
L 281.567014 272.178671 
L 284.606926 270.917495 
L 287.646838 270.497103 
L 290.68675 270.917495 
L 293.726662 270.076711 
L 296.766574 271.758279 
L 299.806485 270.917495 
L 302.846397 270.497103 
L 305.886309 268.395144 
L 308.926221 270.497103 
L 311.966133 268.815536 
L 315.006045 267.974752 
L 318.045957 270.497103 
L 321.085869 270.497103 
L 324.125781 270.076711 
L 327.165693 270.497103 
L 330.205605 269.235927 
L 333.245517 270.076711 
L 336.285429 269.235927 
L 339.325341 270.076711 
L 342.365253 270.497103 
L 345.405165 268.815536 
L 348.445077 269.656319 
L 351.484989 270.076711 
L 354.5249 268.815536 
L 357.564812 270.917495 
L 360.604724 266.713576 
L 363.644636 269.656319 
L 366.684548 267.55436 
L 369.72446 267.133968 
" clip-path="url(#pf600427b6f)" style="fill: none; stroke: #8c564b; stroke-width: 1.5; stroke-linecap: square"/>
   </g>
   <g id="line2d_20">
    <path d="M 65.763665 289.414739 
L 66.037257 289.414739 
L 66.341248 289.414739 
L 66.645239 288.994347 
L 66.94923 288.994347 
L 67.253222 288.994347 
L 67.557213 288.573955 
L 67.861204 288.994347 
L 68.165195 288.573955 
L 68.469186 288.573955 
L 68.773178 288.573955 
L 71.81309 288.153563 
L 74.853001 287.733172 
L 77.892913 287.31278 
L 80.932825 286.892388 
L 83.972737 286.892388 
L 87.012649 286.471996 
L 90.052561 286.051604 
L 93.092473 286.051604 
L 96.132385 286.051604 
L 99.172297 285.631212 
L 102.212209 285.631212 
L 105.252121 285.21082 
L 108.292033 285.21082 
L 111.331945 284.790428 
L 114.371857 283.108861 
L 117.411769 285.21082 
L 120.451681 283.949644 
L 123.491593 284.790428 
L 126.531505 284.790428 
L 129.571417 285.21082 
L 132.611328 284.790428 
L 135.65124 284.370036 
L 138.691152 283.949644 
L 141.731064 284.370036 
L 144.770976 283.949644 
L 147.810888 284.790428 
L 150.8508 283.949644 
L 153.890712 284.790428 
L 156.930624 284.370036 
L 159.970536 283.949644 
L 163.010448 284.370036 
L 166.05036 283.949644 
L 169.090272 283.949644 
L 172.130184 283.949644 
L 175.170096 283.529252 
L 178.210008 284.370036 
L 181.24992 283.949644 
L 184.289832 283.949644 
L 187.329743 283.529252 
L 190.369655 283.529252 
L 193.409567 283.949644 
L 196.449479 283.949644 
L 199.489391 283.108861 
L 202.529303 283.949644 
L 205.569215 283.529252 
L 208.609127 283.949644 
L 211.649039 277.643766 
L 214.688951 283.529252 
L 217.728863 283.108861 
L 220.768775 283.529252 
L 223.808687 283.108861 
L 226.848599 283.108861 
L 229.888511 283.108861 
L 232.928423 283.529252 
L 235.968335 282.688469 
L 239.008247 282.688469 
L 242.048159 282.688469 
L 245.08807 282.688469 
L 248.127982 283.108861 
L 251.167894 282.688469 
L 254.207806 282.688469 
L 257.247718 282.268077 
L 260.28763 277.223374 
L 263.327542 282.268077 
L 266.367454 282.688469 
L 269.407366 282.688469 
L 272.447278 282.688469 
L 275.48719 282.268077 
L 278.527102 282.688469 
L 281.567014 281.847685 
L 284.606926 282.268077 
L 287.646838 282.268077 
L 290.68675 282.268077 
L 293.726662 281.847685 
L 296.766574 282.268077 
L 299.806485 282.268077 
L 302.846397 282.268077 
L 305.886309 281.847685 
L 308.926221 282.268077 
L 311.966133 281.847685 
L 315.006045 281.847685 
L 318.045957 282.268077 
L 321.085869 281.847685 
L 324.125781 281.847685 
L 327.165693 281.847685 
L 330.205605 281.847685 
L 333.245517 281.847685 
L 336.285429 281.847685 
L 339.325341 279.325333 
L 342.365253 281.847685 
L 345.405165 281.427293 
L 348.445077 281.427293 
L 351.484989 281.006901 
L 354.5249 281.847685 
L 357.564812 281.427293 
L 360.604724 280.586509 
L 363.644636 281.427293 
L 366.684548 281.427293 
L 369.72446 278.904941 
" clip-path="url(#pf600427b6f)" style="fill: none; stroke: #e377c2; stroke-width: 1.5; stroke-linecap: square"/>
   </g>
   <g id="line2d_21">
    <path d="M 65.763665 263.350441 
L 66.037257 263.770833 
L 66.341248 262.509657 
L 66.645239 262.089265 
L 66.94923 262.089265 
L 67.253222 261.668873 
L 67.557213 260.407697 
L 67.861204 259.987305 
L 68.165195 259.566913 
L 68.469186 257.044562 
L 68.773178 259.146522 
L 71.81309 253.681427 
L 74.853001 251.159075 
L 77.892913 248.216332 
L 80.932825 245.69398 
L 83.972737 238.96771 
L 87.012649 241.490061 
L 90.052561 238.96771 
L 93.092473 238.96771 
L 96.132385 236.024966 
L 99.172297 233.923007 
L 102.212209 231.821047 
L 105.252121 229.298696 
L 108.292033 226.355952 
L 111.331945 220.470466 
L 114.371857 225.515169 
L 117.411769 216.686939 
L 120.451681 221.731641 
L 123.491593 224.674385 
L 126.531505 223.833601 
L 129.571417 222.572425 
L 132.611328 222.152033 
L 135.65124 220.890858 
L 138.691152 220.050074 
L 141.731064 219.629682 
L 144.770976 219.20929 
L 147.810888 219.629682 
L 150.8508 218.368506 
L 153.890712 219.20929 
L 156.930624 214.584979 
L 159.970536 218.788898 
L 163.010448 217.527722 
L 166.05036 215.005371 
L 169.090272 209.960668 
L 172.130184 215.846155 
L 175.170096 211.221844 
L 178.210008 202.814005 
L 181.24992 216.266547 
L 184.289832 214.164587 
L 187.329743 211.221844 
L 190.369655 212.062628 
L 193.409567 212.483019 
L 196.449479 213.744195 
L 199.489391 209.119884 
L 202.529303 202.814005 
L 205.569215 213.323803 
L 208.609127 207.438316 
L 211.649039 209.960668 
L 214.688951 210.801452 
L 217.728863 210.38106 
L 220.768775 207.438316 
L 223.808687 201.132438 
L 226.848599 205.336357 
L 229.888511 207.017925 
L 232.928423 205.756749 
L 235.968335 204.075181 
L 239.008247 203.654789 
L 242.048159 206.177141 
L 245.08807 195.246951 
L 248.127982 204.915965 
L 251.167894 203.234397 
L 254.207806 202.814005 
L 257.247718 202.814005 
L 260.28763 199.871262 
L 263.327542 198.610086 
L 266.367454 200.712046 
L 269.407366 200.291654 
L 272.447278 197.348911 
L 275.48719 196.928519 
L 278.527102 199.45087 
L 281.567014 196.087735 
L 284.606926 200.291654 
L 287.646838 197.769303 
L 290.68675 183.475978 
L 293.726662 200.712046 
L 296.766574 201.132438 
L 299.806485 197.348911 
L 302.846397 199.45087 
L 305.886309 198.610086 
L 308.926221 197.348911 
L 311.966133 196.508127 
L 315.006045 196.928519 
L 318.045957 194.406167 
L 321.085869 195.246951 
L 324.125781 189.781856 
L 327.165693 194.406167 
L 330.205605 194.826559 
L 333.245517 197.348911 
L 336.285429 192.7246 
L 339.325341 196.087735 
L 342.365253 193.985775 
L 345.405165 193.144991 
L 348.445077 195.246951 
L 351.484989 193.565383 
L 354.5249 192.7246 
L 357.564812 192.304208 
L 360.604724 190.202248 
L 363.644636 194.826559 
L 366.684548 192.7246 
L 369.72446 172.125396 
" clip-path="url(#pf600427b6f)" style="fill: none; stroke: #7f7f7f; stroke-width: 1.5; stroke-linecap: square"/>
   </g>
   <g id="line2d_22">
    <path d="M 65.763665 287.733172 
L 66.037257 287.31278 
L 66.341248 286.892388 
L 66.645239 286.051604 
L 66.94923 286.051604 
L 67.253222 285.21082 
L 67.557213 284.790428 
L 67.861204 284.370036 
L 68.165195 284.370036 
L 68.469186 283.108861 
L 68.773178 283.529252 
L 71.81309 280.586509 
L 74.853001 279.325333 
L 77.892913 276.802982 
L 80.932825 276.38259 
L 83.972737 275.541806 
L 87.012649 273.860238 
L 90.052561 271.337887 
L 93.092473 271.758279 
L 96.132385 270.917495 
L 99.172297 270.076711 
L 102.212209 267.974752 
L 105.252121 269.235927 
L 108.292033 267.133968 
L 111.331945 268.395144 
L 114.371857 263.350441 
L 117.411769 267.55436 
L 120.451681 267.974752 
L 123.491593 267.974752 
L 126.531505 264.191224 
L 129.571417 265.872792 
L 132.611328 264.611616 
L 135.65124 263.350441 
L 138.691152 266.293184 
L 141.731064 265.032008 
L 144.770976 265.032008 
L 147.810888 263.770833 
L 150.8508 265.032008 
L 153.890712 263.350441 
L 156.930624 264.191224 
L 159.970536 260.407697 
L 163.010448 259.566913 
L 166.05036 262.509657 
L 169.090272 261.668873 
L 172.130184 261.668873 
L 175.170096 261.248481 
L 178.210008 261.668873 
L 181.24992 260.407697 
L 184.289832 260.407697 
L 187.329743 260.407697 
L 190.369655 254.522211 
L 193.409567 254.942602 
L 196.449479 259.146522 
L 199.489391 254.101819 
L 202.529303 258.305738 
L 205.569215 259.987305 
L 208.609127 259.146522 
L 211.649039 258.72613 
L 214.688951 250.318291 
L 217.728863 257.885346 
L 220.768775 258.72613 
L 223.808687 256.62417 
L 226.848599 256.203778 
L 229.888511 249.477508 
L 232.928423 255.783386 
L 235.968335 252.420251 
L 239.008247 256.203778 
L 242.048159 255.362994 
L 245.08807 254.522211 
L 248.127982 251.159075 
L 251.167894 254.942602 
L 254.207806 254.942602 
L 257.247718 255.362994 
L 260.28763 254.522211 
L 263.327542 253.261035 
L 266.367454 254.942602 
L 269.407366 248.216332 
L 272.447278 249.477508 
L 275.48719 251.999859 
L 278.527102 249.057116 
L 281.567014 251.999859 
L 284.606926 252.840643 
L 287.646838 253.261035 
L 290.68675 252.840643 
L 293.726662 251.159075 
L 296.766574 251.999859 
L 299.806485 251.159075 
L 302.846397 245.69398 
L 305.886309 250.318291 
L 308.926221 251.159075 
L 311.966133 250.738683 
L 315.006045 251.159075 
L 318.045957 249.057116 
L 321.085869 247.375548 
L 324.125781 246.534764 
L 327.165693 246.955156 
L 330.205605 248.636724 
L 333.245517 245.273588 
L 336.285429 250.738683 
L 339.325341 241.910453 
L 342.365253 247.375548 
L 345.405165 246.534764 
L 348.445077 243.592021 
L 351.484989 246.534764 
L 354.5249 245.273588 
L 357.564812 243.171629 
L 360.604724 245.273588 
L 363.644636 245.273588 
L 366.684548 246.534764 
L 369.72446 243.592021 
" clip-path="url(#pf600427b6f)" style="fill: none; stroke: #bcbd22; stroke-width: 1.5; stroke-linecap: square"/>
   </g>
   <g id="line2d_23">
    <path d="M 65.763665 211.221844 
L 66.037257 209.960668 
L 66.341248 209.119884 
L 66.645239 209.119884 
L 66.94923 206.597533 
L 67.253222 208.2791 
L 67.557213 207.017925 
L 67.861204 207.438316 
L 68.165195 204.495573 
L 68.469186 206.597533 
L 68.773178 204.075181 
L 71.81309 199.871262 
L 74.853001 200.291654 
L 77.892913 194.826559 
L 80.932825 198.189694 
L 83.972737 192.7246 
L 87.012649 191.883816 
L 90.052561 190.62264 
L 93.092473 188.52068 
L 96.132385 186.418721 
L 99.172297 183.896369 
L 102.212209 178.851667 
L 105.252121 179.272058 
L 108.292033 172.96618 
L 111.331945 174.227355 
L 114.371857 179.69245 
L 117.411769 181.374018 
L 120.451681 169.182653 
L 123.491593 172.96618 
L 126.531505 176.329315 
L 129.571417 172.96618 
L 132.611328 176.329315 
L 135.65124 171.705004 
L 138.691152 174.647747 
L 141.731064 172.545788 
L 144.770976 154.889328 
L 147.810888 172.125396 
L 150.8508 170.86422 
L 153.890712 172.125396 
L 156.930624 165.819517 
L 159.970536 171.705004 
L 163.010448 169.182653 
L 166.05036 170.443828 
L 169.090272 170.443828 
L 172.130184 170.023436 
L 175.170096 170.86422 
L 178.210008 167.501085 
L 181.24992 168.341869 
L 184.289832 168.762261 
L 187.329743 164.558342 
L 190.369655 168.762261 
L 193.409567 169.182653 
L 196.449479 167.080693 
L 199.489391 168.762261 
L 202.529303 168.762261 
L 205.569215 164.978733 
L 208.609127 165.819517 
L 211.649039 167.080693 
L 214.688951 166.660301 
L 217.728863 164.978733 
L 220.768775 170.86422 
L 223.808687 164.13795 
L 226.848599 168.341869 
L 229.888511 161.195206 
L 232.928423 167.921477 
L 235.968335 150.685408 
L 239.008247 163.717558 
L 242.048159 167.080693 
L 245.08807 164.13795 
L 248.127982 159.513639 
L 251.167894 158.252463 
L 254.207806 166.660301 
L 257.247718 161.615598 
L 260.28763 162.876774 
L 263.327542 160.354422 
L 266.367454 162.03599 
L 269.407366 129.665813 
L 272.447278 159.934031 
L 275.48719 160.774814 
L 278.527102 164.978733 
L 281.567014 151.1058 
L 284.606926 160.774814 
L 287.646838 162.876774 
L 290.68675 162.03599 
L 293.726662 161.615598 
L 296.766574 161.615598 
L 299.806485 158.252463 
L 302.846397 159.934031 
L 305.886309 161.615598 
L 308.926221 155.730111 
L 311.966133 160.774814 
L 315.006045 161.195206 
L 318.045957 159.093247 
L 321.085869 158.252463 
L 324.125781 160.354422 
L 327.165693 159.513639 
L 330.205605 160.354422 
L 333.245517 159.513639 
L 336.285429 159.093247 
L 339.325341 163.297166 
L 342.365253 156.570895 
L 345.405165 156.570895 
L 348.445077 148.163057 
L 351.484989 160.354422 
L 354.5249 156.570895 
L 357.564812 159.093247 
L 360.604724 160.354422 
L 363.644636 157.411679 
L 366.684548 141.016395 
L 369.72446 136.812475 
" clip-path="url(#pf600427b6f)" style="fill: none; stroke: #17becf; stroke-width: 1.5; stroke-linecap: square"/>
   </g>
   <g id="line2d_24">
    <path d="M 65.763665 291.096307 
L 66.037257 291.096307 
L 66.341248 290.675915 
L 66.645239 291.096307 
L 66.94923 291.096307 
L 67.253222 290.675915 
L 67.557213 291.096307 
L 67.861204 290.675915 
L 68.165195 290.675915 
L 68.469186 290.675915 
L 68.773178 290.675915 
L 71.81309 290.255523 
L 74.853001 289.835131 
L 77.892913 289.835131 
L 80.932825 289.414739 
L 83.972737 289.414739 
L 87.012649 287.733172 
L 90.052561 288.573955 
L 93.092473 288.573955 
L 96.132385 288.573955 
L 99.172297 288.153563 
L 102.212209 288.153563 
L 105.252121 287.733172 
L 108.292033 287.733172 
L 111.331945 287.733172 
L 114.371857 288.573955 
L 117.411769 284.370036 
L 120.451681 286.051604 
L 123.491593 287.31278 
L 126.531505 286.892388 
L 129.571417 287.31278 
L 132.611328 286.892388 
L 135.65124 286.471996 
L 138.691152 286.892388 
L 141.731064 286.892388 
L 144.770976 286.892388 
L 147.810888 286.892388 
L 150.8508 286.471996 
L 153.890712 286.051604 
L 156.930624 286.471996 
L 159.970536 287.31278 
L 163.010448 286.892388 
L 166.05036 286.471996 
L 169.090272 286.471996 
L 172.130184 286.471996 
L 175.170096 284.370036 
L 178.210008 286.471996 
L 181.24992 286.471996 
L 184.289832 286.471996 
L 187.329743 286.471996 
L 190.369655 286.051604 
L 193.409567 286.892388 
L 196.449479 286.051604 
L 199.489391 286.471996 
L 202.529303 286.051604 
L 205.569215 286.051604 
L 208.609127 286.051604 
L 211.649039 285.631212 
L 214.688951 285.631212 
L 217.728863 286.051604 
L 220.768775 285.631212 
L 223.808687 285.631212 
L 226.848599 285.21082 
L 229.888511 285.631212 
L 232.928423 285.631212 
L 235.968335 285.631212 
L 239.008247 286.051604 
L 242.048159 286.051604 
L 245.08807 285.631212 
L 248.127982 285.21082 
L 251.167894 285.21082 
L 254.207806 285.21082 
L 257.247718 285.631212 
L 260.28763 284.370036 
L 263.327542 285.21082 
L 266.367454 285.21082 
L 269.407366 285.21082 
L 272.447278 284.790428 
L 275.48719 284.790428 
L 278.527102 284.790428 
L 281.567014 285.21082 
L 284.606926 284.790428 
L 287.646838 284.790428 
L 290.68675 285.21082 
L 293.726662 285.21082 
L 296.766574 284.370036 
L 299.806485 284.790428 
L 302.846397 284.370036 
L 305.886309 284.790428 
L 308.926221 283.949644 
L 311.966133 284.790428 
L 315.006045 284.370036 
L 318.045957 283.108861 
L 321.085869 284.370036 
L 324.125781 284.370036 
L 327.165693 283.949644 
L 330.205605 284.370036 
L 333.245517 283.949644 
L 336.285429 283.529252 
L 339.325341 283.949644 
L 342.365253 283.529252 
L 345.405165 283.529252 
L 348.445077 284.370036 
L 351.484989 283.949644 
L 354.5249 283.949644 
L 357.564812 283.949644 
L 360.604724 283.529252 
L 363.644636 283.949644 
L 366.684548 283.949644 
L 369.72446 283.108861 
" clip-path="url(#pf600427b6f)" style="fill: none; stroke: #1f77b4; stroke-width: 1.5; stroke-linecap: square"/>
   </g>
   <g id="line2d_25">
    <path d="M 65.763665 289.835131 
L 66.037257 289.414739 
L 66.341248 288.153563 
L 66.645239 287.31278 
L 66.94923 286.471996 
L 67.253222 286.051604 
L 67.557213 285.21082 
L 67.861204 284.370036 
L 68.165195 283.949644 
L 68.469186 283.108861 
L 68.773178 282.688469 
L 71.81309 277.223374 
L 74.853001 271.337887 
L 77.892913 263.350441 
L 80.932825 262.089265 
L 83.972737 257.885346 
L 87.012649 257.885346 
L 90.052561 254.101819 
L 93.092473 250.738683 
L 96.132385 251.159075 
L 99.172297 248.636724 
L 102.212209 247.375548 
L 105.252121 245.273588 
L 108.292033 228.878304 
L 111.331945 239.808494 
L 114.371857 242.751237 
L 117.411769 242.330845 
L 120.451681 237.706534 
L 123.491593 237.706534 
L 126.531505 231.400655 
L 129.571417 236.86575 
L 132.611328 235.184183 
L 135.65124 235.184183 
L 138.691152 233.082223 
L 141.731064 231.821047 
L 144.770976 229.298696 
L 147.810888 215.425763 
L 150.8508 227.617128 
L 153.890712 227.196736 
L 156.930624 225.094777 
L 159.970536 224.253993 
L 163.010448 223.833601 
L 166.05036 220.890858 
L 169.090272 219.20929 
L 172.130184 222.152033 
L 175.170096 217.527722 
L 178.210008 216.686939 
L 181.24992 216.266547 
L 184.289832 217.527722 
L 187.329743 215.005371 
L 190.369655 212.903411 
L 193.409567 212.483019 
L 196.449479 209.540276 
L 199.489391 215.005371 
L 202.529303 209.540276 
L 205.569215 209.960668 
L 208.609127 208.699492 
L 211.649039 209.540276 
L 214.688951 207.438316 
L 217.728863 203.234397 
L 220.768775 208.2791 
L 223.808687 207.017925 
L 226.848599 202.814005 
L 229.888511 201.132438 
L 232.928423 205.756749 
L 235.968335 185.998329 
L 239.008247 200.712046 
L 242.048159 188.941072 
L 245.08807 196.508127 
L 248.127982 195.246951 
L 251.167894 191.043032 
L 254.207806 188.941072 
L 257.247718 188.100289 
L 260.28763 194.406167 
L 263.327542 189.361464 
L 266.367454 190.202248 
L 269.407366 189.361464 
L 272.447278 185.998329 
L 275.48719 185.998329 
L 278.527102 180.112842 
L 281.567014 185.577937 
L 284.606926 184.316761 
L 287.646838 182.635194 
L 290.68675 186.839113 
L 293.726662 188.100289 
L 296.766574 184.316761 
L 299.806485 179.272058 
L 302.846397 176.329315 
L 305.886309 186.839113 
L 308.926221 184.737153 
L 311.966133 180.533234 
L 315.006045 183.055586 
L 318.045957 176.749707 
L 321.085869 174.227355 
L 324.125781 174.647747 
L 327.165693 175.488531 
L 330.205605 179.69245 
L 333.245517 170.443828 
L 336.285429 156.570895 
L 339.325341 170.443828 
L 342.365253 172.96618 
L 345.405165 171.705004 
L 348.445077 167.921477 
L 351.484989 170.023436 
L 354.5249 170.86422 
L 357.564812 166.239909 
L 360.604724 165.819517 
L 363.644636 170.023436 
L 366.684548 163.717558 
L 369.72446 151.1058 
" clip-path="url(#pf600427b6f)" style="fill: none; stroke: #ff7f0e; stroke-width: 1.5; stroke-linecap: square"/>
   </g>
   <g id="patch_3">
    <path d="M 50.565625 304.44375 
L 50.565625 10.8 
" style="fill: none; stroke: #000000; stroke-width: 0.8; stroke-linejoin: miter; stroke-linecap: square"/>
   </g>
   <g id="patch_4">
    <path d="M 384.9225 304.44375 
L 384.9225 10.8 
" style="fill: none; stroke: #000000; stroke-width: 0.8; stroke-linejoin: miter; stroke-linecap: square"/>
   </g>
   <g id="patch_5">
    <path d="M 50.565625 304.44375 
L 384.9225 304.44375 
" style="fill: none; stroke: #000000; stroke-width: 0.8; stroke-linejoin: miter; stroke-linecap: square"/>
   </g>
   <g id="patch_6">
    <path d="M 50.565625 10.8 
L 384.9225 10.8 
" style="fill: none; stroke: #000000; stroke-width: 0.8; stroke-linejoin: miter; stroke-linecap: square"/>
   </g>
   <g id="text_16">
    <!-- mustachej -->
    <g style="fill: #9467bd" transform="translate(390.9225 292.883415) scale(0.08 -0.08)">
     <defs>
      <path id="DejaVuSans-61" d="M 2194 1759 
Q 1497 1759 1228 1600 
Q 959 1441 959 1056 
Q 959 750 1161 570 
Q 1363 391 1709 391 
Q 2188 391 2477 730 
Q 2766 1069 2766 1631 
L 2766 1759 
L 2194 1759 
z
M 3341 1997 
L 3341 0 
L 2766 0 
L 2766 531 
Q 2569 213 2275 61 
Q 1981 -91 1556 -91 
Q 1019 -91 701 211 
Q 384 513 384 1019 
Q 384 1609 779 1909 
Q 1175 2209 1959 2209 
L 2766 2209 
L 2766 2266 
Q 2766 2663 2505 2880 
Q 2244 3097 1772 3097 
Q 1472 3097 1187 3025 
Q 903 2953 641 2809 
L 641 3341 
Q 956 3463 1253 3523 
Q 1550 3584 1831 3584 
Q 2591 3584 2966 3190 
Q 3341 2797 3341 1997 
z
" transform="scale(0.015625)"/>
      <path id="DejaVuSans-63" d="M 3122 3366 
L 3122 2828 
Q 2878 2963 2633 3030 
Q 2388 3097 2138 3097 
Q 1578 3097 1268 2742 
Q 959 2388 959 1747 
Q 959 1106 1268 751 
Q 1578 397 2138 397 
Q 2388 397 2633 464 
Q 2878 531 3122 666 
L 3122 134 
Q 2881 22 2623 -34 
Q 2366 -91 2075 -91 
Q 1284 -91 818 406 
Q 353 903 353 1747 
Q 353 2603 823 3093 
Q 1294 3584 2113 3584 
Q 2378 3584 2631 3529 
Q 2884 3475 3122 3366 
z
" transform="scale(0.015625)"/>
      <path id="DejaVuSans-68" d="M 3513 2113 
L 3513 0 
L 2938 0 
L 2938 2094 
Q 2938 2591 2744 2837 
Q 2550 3084 2163 3084 
Q 1697 3084 1428 2787 
Q 1159 2491 1159 1978 
L 1159 0 
L 581 0 
L 581 4863 
L 1159 4863 
L 1159 2956 
Q 1366 3272 1645 3428 
Q 1925 3584 2291 3584 
Q 2894 3584 3203 3211 
Q 3513 2838 3513 2113 
z
" transform="scale(0.015625)"/>
      <path id="DejaVuSans-6a" d="M 603 3500 
L 1178 3500 
L 1178 -63 
Q 1178 -731 923 -1031 
Q 669 -1331 103 -1331 
L -116 -1331 
L -116 -844 
L 38 -844 
Q 366 -844 484 -692 
Q 603 -541 603 -63 
L 603 3500 
z
M 603 4863 
L 1178 4863 
L 1178 4134 
L 603 4134 
L 603 4863 
z
" transform="scale(0.015625)"/>
     </defs>
     <use xlink:href="#DejaVuSans-6d"/>
     <use xlink:href="#DejaVuSans-75" transform="translate(97.412109 0)"/>
     <use xlink:href="#DejaVuSans-73" transform="translate(160.791016 0)"/>
     <use xlink:href="#DejaVuSans-74" transform="translate(212.890625 0)"/>
     <use xlink:href="#DejaVuSans-61" transform="translate(252.099609 0)"/>
     <use xlink:href="#DejaVuSans-63" transform="translate(313.378906 0)"/>
     <use xlink:href="#DejaVuSans-68" transform="translate(368.359375 0)"/>
     <use xlink:href="#DejaVuSans-65" transform="translate(431.738281 0)"/>
     <use xlink:href="#DejaVuSans-6a" transform="translate(493.261719 0)"/>
    </g>
   </g>
   <g id="text_17">
    <!-- trimou -->
    <g style="fill: #1f77b4" transform="translate(390.9225 285.316361) scale(0.08 -0.08)">
     <defs>
      <path id="DejaVuSans-6f" d="M 1959 3097 
Q 1497 3097 1228 2736 
Q 959 2375 959 1747 
Q 959 1119 1226 758 
Q 1494 397 1959 397 
Q 2419 397 2687 759 
Q 2956 1122 2956 1747 
Q 2956 2369 2687 2733 
Q 2419 3097 1959 3097 
z
M 1959 3584 
Q 2709 3584 3137 3096 
Q 3566 2609 3566 1747 
Q 3566 888 3137 398 
Q 2709 -91 1959 -91 
Q 1206 -91 779 398 
Q 353 888 353 1747 
Q 353 2609 779 3096 
Q 1206 3584 1959 3584 
z
" transform="scale(0.015625)"/>
     </defs>
     <use xlink:href="#DejaVuSans-74"/>
     <use xlink:href="#DejaVuSans-72" transform="translate(39.208984 0)"/>
     <use xlink:href="#DejaVuSans-69" transform="translate(80.322266 0)"/>
     <use xlink:href="#DejaVuSans-6d" transform="translate(108.105469 0)"/>
     <use xlink:href="#DejaVuSans-6f" transform="translate(205.517578 0)"/>
     <use xlink:href="#DejaVuSans-75" transform="translate(266.699219 0)"/>
    </g>
   </g>
   <g id="text_18">
    <!-- solomon -->
    <g style="fill: #e377c2" transform="translate(390.9225 277.749306) scale(0.08 -0.08)">
     <defs>
      <path id="DejaVuSans-6c" d="M 603 4863 
L 1178 4863 
L 1178 0 
L 603 0 
L 603 4863 
z
" transform="scale(0.015625)"/>
     </defs>
     <use xlink:href="#DejaVuSans-73"/>
     <use xlink:href="#DejaVuSans-6f" transform="translate(52.099609 0)"/>
     <use xlink:href="#DejaVuSans-6c" transform="translate(113.28125 0)"/>
     <use xlink:href="#DejaVuSans-6f" transform="translate(141.064453 0)"/>
     <use xlink:href="#DejaVuSans-6d" transform="translate(202.246094 0)"/>
     <use xlink:href="#DejaVuSans-6f" transform="translate(299.658203 0)"/>
     <use xlink:href="#DejaVuSans-6e" transform="translate(360.839844 0)"/>
    </g>
   </g>
   <g id="text_19">
    <!-- handlebars -->
    <g style="fill: #ff7f0e" transform="translate(390.9225 270.182252) scale(0.08 -0.08)">
     <defs>
      <path id="DejaVuSans-64" d="M 2906 2969 
L 2906 4863 
L 3481 4863 
L 3481 0 
L 2906 0 
L 2906 525 
Q 2725 213 2448 61 
Q 2172 -91 1784 -91 
Q 1150 -91 751 415 
Q 353 922 353 1747 
Q 353 2572 751 3078 
Q 1150 3584 1784 3584 
Q 2172 3584 2448 3432 
Q 2725 3281 2906 2969 
z
M 947 1747 
Q 947 1113 1208 752 
Q 1469 391 1925 391 
Q 2381 391 2643 752 
Q 2906 1113 2906 1747 
Q 2906 2381 2643 2742 
Q 2381 3103 1925 3103 
Q 1469 3103 1208 2742 
Q 947 2381 947 1747 
z
" transform="scale(0.015625)"/>
      <path id="DejaVuSans-62" d="M 3116 1747 
Q 3116 2381 2855 2742 
Q 2594 3103 2138 3103 
Q 1681 3103 1420 2742 
Q 1159 2381 1159 1747 
Q 1159 1113 1420 752 
Q 1681 391 2138 391 
Q 2594 391 2855 752 
Q 3116 1113 3116 1747 
z
M 1159 2969 
Q 1341 3281 1617 3432 
Q 1894 3584 2278 3584 
Q 2916 3584 3314 3078 
Q 3713 2572 3713 1747 
Q 3713 922 3314 415 
Q 2916 -91 2278 -91 
Q 1894 -91 1617 61 
Q 1341 213 1159 525 
L 1159 0 
L 581 0 
L 581 4863 
L 1159 4863 
L 1159 2969 
z
" transform="scale(0.015625)"/>
     </defs>
     <use xlink:href="#DejaVuSans-68"/>
     <use xlink:href="#DejaVuSans-61" transform="translate(63.378906 0)"/>
     <use xlink:href="#DejaVuSans-6e" transform="translate(124.658203 0)"/>
     <use xlink:href="#DejaVuSans-64" transform="translate(188.037109 0)"/>
     <use xlink:href="#DejaVuSans-6c" transform="translate(251.513672 0)"/>
     <use xlink:href="#DejaVuSans-65" transform="translate(279.296875 0)"/>
     <use xlink:href="#DejaVuSans-62" transform="translate(340.820312 0)"/>
     <use xlink:href="#DejaVuSans-61" transform="translate(404.296875 0)"/>
     <use xlink:href="#DejaVuSans-72" transform="translate(465.576172 0)"/>
     <use xlink:href="#DejaVuSans-73" transform="translate(506.689453 0)"/>
    </g>
   </g>
   <g id="text_20">
    <!-- pebble -->
    <g style="fill: #8c564b" transform="translate(390.9225 262.615197) scale(0.08 -0.08)">
     <defs>
      <path id="DejaVuSans-70" d="M 1159 525 
L 1159 -1331 
L 581 -1331 
L 581 3500 
L 1159 3500 
L 1159 2969 
Q 1341 3281 1617 3432 
Q 1894 3584 2278 3584 
Q 2916 3584 3314 3078 
Q 3713 2572 3713 1747 
Q 3713 922 3314 415 
Q 2916 -91 2278 -91 
Q 1894 -91 1617 61 
Q 1341 213 1159 525 
z
M 3116 1747 
Q 3116 2381 2855 2742 
Q 2594 3103 2138 3103 
Q 1681 3103 1420 2742 
Q 1159 2381 1159 1747 
Q 1159 1113 1420 752 
Q 1681 391 2138 391 
Q 2594 391 2855 752 
Q 3116 1113 3116 1747 
z
" transform="scale(0.015625)"/>
     </defs>
     <use xlink:href="#DejaVuSans-70"/>
     <use xlink:href="#DejaVuSans-65" transform="translate(63.476562 0)"/>
     <use xlink:href="#DejaVuSans-62" transform="translate(125 0)"/>
     <use xlink:href="#DejaVuSans-62" transform="translate(188.476562 0)"/>
     <use xlink:href="#DejaVuSans-6c" transform="translate(251.953125 0)"/>
     <use xlink:href="#DejaVuSans-65" transform="translate(279.736328 0)"/>
    </g>
   </g>
   <g id="text_21">
    <!-- stringtree -->
    <g style="fill: #bcbd22" transform="translate(390.9225 245.799521) scale(0.08 -0.08)">
     <defs>
      <path id="DejaVuSans-67" d="M 2906 1791 
Q 2906 2416 2648 2759 
Q 2391 3103 1925 3103 
Q 1463 3103 1205 2759 
Q 947 2416 947 1791 
Q 947 1169 1205 825 
Q 1463 481 1925 481 
Q 2391 481 2648 825 
Q 2906 1169 2906 1791 
z
M 3481 434 
Q 3481 -459 3084 -895 
Q 2688 -1331 1869 -1331 
Q 1566 -1331 1297 -1286 
Q 1028 -1241 775 -1147 
L 775 -588 
Q 1028 -725 1275 -790 
Q 1522 -856 1778 -856 
Q 2344 -856 2625 -561 
Q 2906 -266 2906 331 
L 2906 616 
Q 2728 306 2450 153 
Q 2172 0 1784 0 
Q 1141 0 747 490 
Q 353 981 353 1791 
Q 353 2603 747 3093 
Q 1141 3584 1784 3584 
Q 2172 3584 2450 3431 
Q 2728 3278 2906 2969 
L 2906 3500 
L 3481 3500 
L 3481 434 
z
" transform="scale(0.015625)"/>
     </defs>
     <use xlink:href="#DejaVuSans-73"/>
     <use xlink:href="#DejaVuSans-74" transform="translate(52.099609 0)"/>
     <use xlink:href="#DejaVuSans-72" transform="translate(91.308594 0)"/>
     <use xlink:href="#DejaVuSans-69" transform="translate(132.421875 0)"/>
     <use xlink:href="#DejaVuSans-6e" transform="translate(160.205078 0)"/>
     <use xlink:href="#DejaVuSans-67" transform="translate(223.583984 0)"/>
     <use xlink:href="#DejaVuSans-74" transform="translate(287.060547 0)"/>
     <use xlink:href="#DejaVuSans-72" transform="translate(326.269531 0)"/>
     <use xlink:href="#DejaVuSans-65" transform="translate(365.132812 0)"/>
     <use xlink:href="#DejaVuSans-65" transform="translate(426.65625 0)"/>
    </g>
   </g>
   <g id="text_22">
    <!-- freemarker -->
    <g style="fill: #1f77b4" transform="translate(390.9225 232.767372) scale(0.08 -0.08)">
     <defs>
      <path id="DejaVuSans-66" d="M 2375 4863 
L 2375 4384 
L 1825 4384 
Q 1516 4384 1395 4259 
Q 1275 4134 1275 3809 
L 1275 3500 
L 2222 3500 
L 2222 3053 
L 1275 3053 
L 1275 0 
L 697 0 
L 697 3053 
L 147 3053 
L 147 3500 
L 697 3500 
L 697 3744 
Q 697 4328 969 4595 
Q 1241 4863 1831 4863 
L 2375 4863 
z
" transform="scale(0.015625)"/>
      <path id="DejaVuSans-6b" d="M 581 4863 
L 1159 4863 
L 1159 1991 
L 2875 3500 
L 3609 3500 
L 1753 1863 
L 3688 0 
L 2938 0 
L 1159 1709 
L 1159 0 
L 581 0 
L 581 4863 
z
" transform="scale(0.015625)"/>
     </defs>
     <use xlink:href="#DejaVuSans-66"/>
     <use xlink:href="#DejaVuSans-72" transform="translate(35.205078 0)"/>
     <use xlink:href="#DejaVuSans-65" transform="translate(74.068359 0)"/>
     <use xlink:href="#DejaVuSans-65" transform="translate(135.591797 0)"/>
     <use xlink:href="#DejaVuSans-6d" transform="translate(197.115234 0)"/>
     <use xlink:href="#DejaVuSans-61" transform="translate(294.527344 0)"/>
     <use xlink:href="#DejaVuSans-72" transform="translate(355.806641 0)"/>
     <use xlink:href="#DejaVuSans-6b" transform="translate(396.919922 0)"/>
     <use xlink:href="#DejaVuSans-65" transform="translate(451.205078 0)"/>
     <use xlink:href="#DejaVuSans-72" transform="translate(512.728516 0)"/>
    </g>
   </g>
   <g id="text_23">
    <!-- jangod -->
    <g style="fill: #2ca02c" transform="translate(390.9225 201.237978) scale(0.08 -0.08)">
     <use xlink:href="#DejaVuSans-6a"/>
     <use xlink:href="#DejaVuSans-61" transform="translate(27.783203 0)"/>
     <use xlink:href="#DejaVuSans-6e" transform="translate(89.0625 0)"/>
     <use xlink:href="#DejaVuSans-67" transform="translate(152.441406 0)"/>
     <use xlink:href="#DejaVuSans-6f" transform="translate(215.917969 0)"/>
     <use xlink:href="#DejaVuSans-64" transform="translate(277.099609 0)"/>
    </g>
   </g>
   <g id="text_24">
    <!-- stringtemplate -->
    <g style="fill: #7f7f7f" transform="translate(390.9225 174.332896) scale(0.08 -0.08)">
     <use xlink:href="#DejaVuSans-73"/>
     <use xlink:href="#DejaVuSans-74" transform="translate(52.099609 0)"/>
     <use xlink:href="#DejaVuSans-72" transform="translate(91.308594 0)"/>
     <use xlink:href="#DejaVuSans-69" transform="translate(132.421875 0)"/>
     <use xlink:href="#DejaVuSans-6e" transform="translate(160.205078 0)"/>
     <use xlink:href="#DejaVuSans-67" transform="translate(223.583984 0)"/>
     <use xlink:href="#DejaVuSans-74" transform="translate(287.060547 0)"/>
     <use xlink:href="#DejaVuSans-65" transform="translate(326.269531 0)"/>
     <use xlink:href="#DejaVuSans-6d" transform="translate(387.792969 0)"/>
     <use xlink:href="#DejaVuSans-70" transform="translate(485.205078 0)"/>
     <use xlink:href="#DejaVuSans-6c" transform="translate(548.681641 0)"/>
     <use xlink:href="#DejaVuSans-61" transform="translate(576.464844 0)"/>
     <use xlink:href="#DejaVuSans-74" transform="translate(637.744141 0)"/>
     <use xlink:href="#DejaVuSans-65" transform="translate(676.953125 0)"/>
    </g>
   </g>
   <g id="text_25">
    <!-- velocity -->
    <g style="fill: #ff7f0e" transform="translate(390.9225 153.3133) scale(0.08 -0.08)">
     <defs>
      <path id="DejaVuSans-76" d="M 191 3500 
L 800 3500 
L 1894 563 
L 2988 3500 
L 3597 3500 
L 2284 0 
L 1503 0 
L 191 3500 
z
" transform="scale(0.015625)"/>
      <path id="DejaVuSans-79" d="M 2059 -325 
Q 1816 -950 1584 -1140 
Q 1353 -1331 966 -1331 
L 506 -1331 
L 506 -850 
L 844 -850 
Q 1081 -850 1212 -737 
Q 1344 -625 1503 -206 
L 1606 56 
L 191 3500 
L 800 3500 
L 1894 763 
L 2988 3500 
L 3597 3500 
L 2059 -325 
z
" transform="scale(0.015625)"/>
     </defs>
     <use xlink:href="#DejaVuSans-76"/>
     <use xlink:href="#DejaVuSans-65" transform="translate(59.179688 0)"/>
     <use xlink:href="#DejaVuSans-6c" transform="translate(120.703125 0)"/>
     <use xlink:href="#DejaVuSans-6f" transform="translate(148.486328 0)"/>
     <use xlink:href="#DejaVuSans-63" transform="translate(209.667969 0)"/>
     <use xlink:href="#DejaVuSans-69" transform="translate(264.648438 0)"/>
     <use xlink:href="#DejaVuSans-74" transform="translate(292.431641 0)"/>
     <use xlink:href="#DejaVuSans-79" transform="translate(331.640625 0)"/>
    </g>
   </g>
   <g id="text_26">
    <!-- thymeleaf -->
    <g style="fill: #17becf" transform="translate(390.9225 139.019975) scale(0.08 -0.08)">
     <use xlink:href="#DejaVuSans-74"/>
     <use xlink:href="#DejaVuSans-68" transform="translate(39.208984 0)"/>
     <use xlink:href="#DejaVuSans-79" transform="translate(102.587891 0)"/>
     <use xlink:href="#DejaVuSans-6d" transform="translate(161.767578 0)"/>
     <use xlink:href="#DejaVuSans-65" transform="translate(259.179688 0)"/>
     <use xlink:href="#DejaVuSans-6c" transform="translate(320.703125 0)"/>
     <use xlink:href="#DejaVuSans-65" transform="translate(348.486328 0)"/>
     <use xlink:href="#DejaVuSans-61" transform="translate(410.009766 0)"/>
     <use xlink:href="#DejaVuSans-66" transform="translate(471.289062 0)"/>
    </g>
   </g>
   <g id="text_27">
    <!-- jte -->
    <g style="fill: #d62728" transform="translate(390.9225 38.546309) scale(0.08 -0.08)">
     <use xlink:href="#DejaVuSans-6a"/>
     <use xlink:href="#DejaVuSans-74" transform="translate(27.783203 0)"/>
     <use xlink:href="#DejaVuSans-65" transform="translate(66.992188 0)"/>
    </g>
   </g>
  </g>
 </g>
 <defs>
  <clipPath id="pf600427b6f">
   <rect x="50.565625" y="10.8" width="334.356875" height="293.64375"/>
  </clipPath>
 </defs>
</svg>
