<?xml version="1.0" encoding="utf-8" standalone="no"?>
<!DOCTYPE svg PUBLIC "-//W3C//DTD SVG 1.1//EN"
  "http://www.w3.org/Graphics/SVG/1.1/DTD/svg11.dtd">
<svg xmlns:xlink="http://www.w3.org/1999/xlink" width="460.8pt" height="345.6pt" viewBox="0 0 460.8 345.6" xmlns="http://www.w3.org/2000/svg" version="1.1">
 <metadata>
  <rdf:RDF xmlns:dc="http://purl.org/dc/elements/1.1/" xmlns:cc="http://creativecommons.org/ns#" xmlns:rdf="http://www.w3.org/1999/02/22-rdf-syntax-ns#">
   <cc:Work>
    <dc:type rdf:resource="http://purl.org/dc/dcmitype/StillImage"/>
    <dc:date>2025-04-13T16:08:54.106996</dc:date>
    <dc:format>image/svg+xml</dc:format>
    <dc:creator>
     <cc:Agent>
      <dc:title>Matplotlib v3.10.1, https://matplotlib.org/</dc:title>
     </cc:Agent>
    </dc:creator>
   </cc:Work>
  </rdf:RDF>
 </metadata>
 <defs>
  <style type="text/css">*{stroke-linejoin: round; stroke-linecap: butt}</style>
 </defs>
 <g id="figure_1">
  <g id="patch_1">
   <path d="M 0 345.6 
L 460.8 345.6 
L 460.8 0 
L 0 0 
z
" style="fill: #ffffff"/>
  </g>
  <g id="axes_1">
   <g id="patch_2">
    <path d="M 50.565625 304.44375 
L 384.9225 304.44375 
L 384.9225 10.8 
L 50.565625 10.8 
z
" style="fill: #ffffff"/>
   </g>
   <g id="matplotlib.axis_1">
    <g id="xtick_1">
     <g id="line2d_1">
      <defs>
       <path id="m83b9d67ce7" d="M 0 0 
L 0 3.5 
" style="stroke: #000000; stroke-width: 0.8"/>
      </defs>
      <g>
       <use xlink:href="#m83b9d67ce7" x="65.733266" y="304.44375" style="stroke: #000000; stroke-width: 0.8"/>
      </g>
     </g>
     <g id="text_1">
      <!-- 0 -->
      <g transform="translate(62.552016 319.042187) scale(0.1 -0.1)">
       <defs>
        <path id="DejaVuSans-30" d="M 2034 4250 
Q 1547 4250 1301 3770 
Q 1056 3291 1056 2328 
Q 1056 1369 1301 889 
Q 1547 409 2034 409 
Q 2525 409 2770 889 
Q 3016 1369 3016 2328 
Q 3016 3291 2770 3770 
Q 2525 4250 2034 4250 
z
M 2034 4750 
Q 2819 4750 3233 4129 
Q 3647 3509 3647 2328 
Q 3647 1150 3233 529 
Q 2819 -91 2034 -91 
Q 1250 -91 836 529 
Q 422 1150 422 2328 
Q 422 3509 836 4129 
Q 1250 4750 2034 4750 
z
" transform="scale(0.015625)"/>
       </defs>
       <use xlink:href="#DejaVuSans-30"/>
      </g>
     </g>
    </g>
    <g id="xtick_2">
     <g id="line2d_2">
      <g>
       <use xlink:href="#m83b9d67ce7" x="126.531505" y="304.44375" style="stroke: #000000; stroke-width: 0.8"/>
      </g>
     </g>
     <g id="text_2">
      <!-- 2000 -->
      <g transform="translate(113.806505 319.042187) scale(0.1 -0.1)">
       <defs>
        <path id="DejaVuSans-32" d="M 1228 531 
L 3431 531 
L 3431 0 
L 469 0 
L 469 531 
Q 828 903 1448 1529 
Q 2069 2156 2228 2338 
Q 2531 2678 2651 2914 
Q 2772 3150 2772 3378 
Q 2772 3750 2511 3984 
Q 2250 4219 1831 4219 
Q 1534 4219 1204 4116 
Q 875 4013 500 3803 
L 500 4441 
Q 881 4594 1212 4672 
Q 1544 4750 1819 4750 
Q 2544 4750 2975 4387 
Q 3406 4025 3406 3419 
Q 3406 3131 3298 2873 
Q 3191 2616 2906 2266 
Q 2828 2175 2409 1742 
Q 1991 1309 1228 531 
z
" transform="scale(0.015625)"/>
       </defs>
       <use xlink:href="#DejaVuSans-32"/>
       <use xlink:href="#DejaVuSans-30" transform="translate(63.623047 0)"/>
       <use xlink:href="#DejaVuSans-30" transform="translate(127.246094 0)"/>
       <use xlink:href="#DejaVuSans-30" transform="translate(190.869141 0)"/>
      </g>
     </g>
    </g>
    <g id="xtick_3">
     <g id="line2d_3">
      <g>
       <use xlink:href="#m83b9d67ce7" x="187.329743" y="304.44375" style="stroke: #000000; stroke-width: 0.8"/>
      </g>
     </g>
     <g id="text_3">
      <!-- 4000 -->
      <g transform="translate(174.604743 319.042187) scale(0.1 -0.1)">
       <defs>
        <path id="DejaVuSans-34" d="M 2419 4116 
L 825 1625 
L 2419 1625 
L 2419 4116 
z
M 2253 4666 
L 3047 4666 
L 3047 1625 
L 3713 1625 
L 3713 1100 
L 3047 1100 
L 3047 0 
L 2419 0 
L 2419 1100 
L 313 1100 
L 313 1709 
L 2253 4666 
z
" transform="scale(0.015625)"/>
       </defs>
       <use xlink:href="#DejaVuSans-34"/>
       <use xlink:href="#DejaVuSans-30" transform="translate(63.623047 0)"/>
       <use xlink:href="#DejaVuSans-30" transform="translate(127.246094 0)"/>
       <use xlink:href="#DejaVuSans-30" transform="translate(190.869141 0)"/>
      </g>
     </g>
    </g>
    <g id="xtick_4">
     <g id="line2d_4">
      <g>
       <use xlink:href="#m83b9d67ce7" x="248.127982" y="304.44375" style="stroke: #000000; stroke-width: 0.8"/>
      </g>
     </g>
     <g id="text_4">
      <!-- 6000 -->
      <g transform="translate(235.402982 319.042187) scale(0.1 -0.1)">
       <defs>
        <path id="DejaVuSans-36" d="M 2113 2584 
Q 1688 2584 1439 2293 
Q 1191 2003 1191 1497 
Q 1191 994 1439 701 
Q 1688 409 2113 409 
Q 2538 409 2786 701 
Q 3034 994 3034 1497 
Q 3034 2003 2786 2293 
Q 2538 2584 2113 2584 
z
M 3366 4563 
L 3366 3988 
Q 3128 4100 2886 4159 
Q 2644 4219 2406 4219 
Q 1781 4219 1451 3797 
Q 1122 3375 1075 2522 
Q 1259 2794 1537 2939 
Q 1816 3084 2150 3084 
Q 2853 3084 3261 2657 
Q 3669 2231 3669 1497 
Q 3669 778 3244 343 
Q 2819 -91 2113 -91 
Q 1303 -91 875 529 
Q 447 1150 447 2328 
Q 447 3434 972 4092 
Q 1497 4750 2381 4750 
Q 2619 4750 2861 4703 
Q 3103 4656 3366 4563 
z
" transform="scale(0.015625)"/>
       </defs>
       <use xlink:href="#DejaVuSans-36"/>
       <use xlink:href="#DejaVuSans-30" transform="translate(63.623047 0)"/>
       <use xlink:href="#DejaVuSans-30" transform="translate(127.246094 0)"/>
       <use xlink:href="#DejaVuSans-30" transform="translate(190.869141 0)"/>
      </g>
     </g>
    </g>
    <g id="xtick_5">
     <g id="line2d_5">
      <g>
       <use xlink:href="#m83b9d67ce7" x="308.926221" y="304.44375" style="stroke: #000000; stroke-width: 0.8"/>
      </g>
     </g>
     <g id="text_5">
      <!-- 8000 -->
      <g transform="translate(296.201221 319.042187) scale(0.1 -0.1)">
       <defs>
        <path id="DejaVuSans-38" d="M 2034 2216 
Q 1584 2216 1326 1975 
Q 1069 1734 1069 1313 
Q 1069 891 1326 650 
Q 1584 409 2034 409 
Q 2484 409 2743 651 
Q 3003 894 3003 1313 
Q 3003 1734 2745 1975 
Q 2488 2216 2034 2216 
z
M 1403 2484 
Q 997 2584 770 2862 
Q 544 3141 544 3541 
Q 544 4100 942 4425 
Q 1341 4750 2034 4750 
Q 2731 4750 3128 4425 
Q 3525 4100 3525 3541 
Q 3525 3141 3298 2862 
Q 3072 2584 2669 2484 
Q 3125 2378 3379 2068 
Q 3634 1759 3634 1313 
Q 3634 634 3220 271 
Q 2806 -91 2034 -91 
Q 1263 -91 848 271 
Q 434 634 434 1313 
Q 434 1759 690 2068 
Q 947 2378 1403 2484 
z
M 1172 3481 
Q 1172 3119 1398 2916 
Q 1625 2713 2034 2713 
Q 2441 2713 2670 2916 
Q 2900 3119 2900 3481 
Q 2900 3844 2670 4047 
Q 2441 4250 2034 4250 
Q 1625 4250 1398 4047 
Q 1172 3844 1172 3481 
z
" transform="scale(0.015625)"/>
       </defs>
       <use xlink:href="#DejaVuSans-38"/>
       <use xlink:href="#DejaVuSans-30" transform="translate(63.623047 0)"/>
       <use xlink:href="#DejaVuSans-30" transform="translate(127.246094 0)"/>
       <use xlink:href="#DejaVuSans-30" transform="translate(190.869141 0)"/>
      </g>
     </g>
    </g>
    <g id="xtick_6">
     <g id="line2d_6">
      <g>
       <use xlink:href="#m83b9d67ce7" x="369.72446" y="304.44375" style="stroke: #000000; stroke-width: 0.8"/>
      </g>
     </g>
     <g id="text_6">
      <!-- 10000 -->
      <g transform="translate(353.81821 319.042187) scale(0.1 -0.1)">
       <defs>
        <path id="DejaVuSans-31" d="M 794 531 
L 1825 531 
L 1825 4091 
L 703 3866 
L 703 4441 
L 1819 4666 
L 2450 4666 
L 2450 531 
L 3481 531 
L 3481 0 
L 794 0 
L 794 531 
z
" transform="scale(0.015625)"/>
       </defs>
       <use xlink:href="#DejaVuSans-31"/>
       <use xlink:href="#DejaVuSans-30" transform="translate(63.623047 0)"/>
       <use xlink:href="#DejaVuSans-30" transform="translate(127.246094 0)"/>
       <use xlink:href="#DejaVuSans-30" transform="translate(190.869141 0)"/>
       <use xlink:href="#DejaVuSans-30" transform="translate(254.492188 0)"/>
      </g>
     </g>
    </g>
    <g id="text_7">
     <!-- n runs -->
     <g transform="translate(201.988594 332.720312) scale(0.1 -0.1)">
      <defs>
       <path id="DejaVuSans-6e" d="M 3513 2113 
L 3513 0 
L 2938 0 
L 2938 2094 
Q 2938 2591 2744 2837 
Q 2550 3084 2163 3084 
Q 1697 3084 1428 2787 
Q 1159 2491 1159 1978 
L 1159 0 
L 581 0 
L 581 3500 
L 1159 3500 
L 1159 2956 
Q 1366 3272 1645 3428 
Q 1925 3584 2291 3584 
Q 2894 3584 3203 3211 
Q 3513 2838 3513 2113 
z
" transform="scale(0.015625)"/>
       <path id="DejaVuSans-20" transform="scale(0.015625)"/>
       <path id="DejaVuSans-72" d="M 2631 2963 
Q 2534 3019 2420 3045 
Q 2306 3072 2169 3072 
Q 1681 3072 1420 2755 
Q 1159 2438 1159 1844 
L 1159 0 
L 581 0 
L 581 3500 
L 1159 3500 
L 1159 2956 
Q 1341 3275 1631 3429 
Q 1922 3584 2338 3584 
Q 2397 3584 2469 3576 
Q 2541 3569 2628 3553 
L 2631 2963 
z
" transform="scale(0.015625)"/>
       <path id="DejaVuSans-75" d="M 544 1381 
L 544 3500 
L 1119 3500 
L 1119 1403 
Q 1119 906 1312 657 
Q 1506 409 1894 409 
Q 2359 409 2629 706 
Q 2900 1003 2900 1516 
L 2900 3500 
L 3475 3500 
L 3475 0 
L 2900 0 
L 2900 538 
Q 2691 219 2414 64 
Q 2138 -91 1772 -91 
Q 1169 -91 856 284 
Q 544 659 544 1381 
z
M 1991 3584 
L 1991 3584 
z
" transform="scale(0.015625)"/>
       <path id="DejaVuSans-73" d="M 2834 3397 
L 2834 2853 
Q 2591 2978 2328 3040 
Q 2066 3103 1784 3103 
Q 1356 3103 1142 2972 
Q 928 2841 928 2578 
Q 928 2378 1081 2264 
Q 1234 2150 1697 2047 
L 1894 2003 
Q 2506 1872 2764 1633 
Q 3022 1394 3022 966 
Q 3022 478 2636 193 
Q 2250 -91 1575 -91 
Q 1294 -91 989 -36 
Q 684 19 347 128 
L 347 722 
Q 666 556 975 473 
Q 1284 391 1588 391 
Q 1994 391 2212 530 
Q 2431 669 2431 922 
Q 2431 1156 2273 1281 
Q 2116 1406 1581 1522 
L 1381 1569 
Q 847 1681 609 1914 
Q 372 2147 372 2553 
Q 372 3047 722 3315 
Q 1072 3584 1716 3584 
Q 2034 3584 2315 3537 
Q 2597 3491 2834 3397 
z
" transform="scale(0.015625)"/>
      </defs>
      <use xlink:href="#DejaVuSans-6e"/>
      <use xlink:href="#DejaVuSans-20" transform="translate(63.378906 0)"/>
      <use xlink:href="#DejaVuSans-72" transform="translate(95.166016 0)"/>
      <use xlink:href="#DejaVuSans-75" transform="translate(136.279297 0)"/>
      <use xlink:href="#DejaVuSans-6e" transform="translate(199.658203 0)"/>
      <use xlink:href="#DejaVuSans-73" transform="translate(263.037109 0)"/>
     </g>
    </g>
   </g>
   <g id="matplotlib.axis_2">
    <g id="ytick_1">
     <g id="line2d_7">
      <defs>
       <path id="m41a2164087" d="M 0 0 
L -3.5 0 
" style="stroke: #000000; stroke-width: 0.8"/>
      </defs>
      <g>
       <use xlink:href="#m41a2164087" x="50.565625" y="291.488879" style="stroke: #000000; stroke-width: 0.8"/>
      </g>
     </g>
     <g id="text_8">
      <!-- 0 -->
      <g transform="translate(37.203125 295.288097) scale(0.1 -0.1)">
       <use xlink:href="#DejaVuSans-30"/>
      </g>
     </g>
    </g>
    <g id="ytick_2">
     <g id="line2d_8">
      <g>
       <use xlink:href="#m41a2164087" x="50.565625" y="252.231693" style="stroke: #000000; stroke-width: 0.8"/>
      </g>
     </g>
     <g id="text_9">
      <!-- 100 -->
      <g transform="translate(24.478125 256.030912) scale(0.1 -0.1)">
       <use xlink:href="#DejaVuSans-31"/>
       <use xlink:href="#DejaVuSans-30" transform="translate(63.623047 0)"/>
       <use xlink:href="#DejaVuSans-30" transform="translate(127.246094 0)"/>
      </g>
     </g>
    </g>
    <g id="ytick_3">
     <g id="line2d_9">
      <g>
       <use xlink:href="#m41a2164087" x="50.565625" y="212.974507" style="stroke: #000000; stroke-width: 0.8"/>
      </g>
     </g>
     <g id="text_10">
      <!-- 200 -->
      <g transform="translate(24.478125 216.773726) scale(0.1 -0.1)">
       <use xlink:href="#DejaVuSans-32"/>
       <use xlink:href="#DejaVuSans-30" transform="translate(63.623047 0)"/>
       <use xlink:href="#DejaVuSans-30" transform="translate(127.246094 0)"/>
      </g>
     </g>
    </g>
    <g id="ytick_4">
     <g id="line2d_10">
      <g>
       <use xlink:href="#m41a2164087" x="50.565625" y="173.717321" style="stroke: #000000; stroke-width: 0.8"/>
      </g>
     </g>
     <g id="text_11">
      <!-- 300 -->
      <g transform="translate(24.478125 177.51654) scale(0.1 -0.1)">
       <defs>
        <path id="DejaVuSans-33" d="M 2597 2516 
Q 3050 2419 3304 2112 
Q 3559 1806 3559 1356 
Q 3559 666 3084 287 
Q 2609 -91 1734 -91 
Q 1441 -91 1130 -33 
Q 819 25 488 141 
L 488 750 
Q 750 597 1062 519 
Q 1375 441 1716 441 
Q 2309 441 2620 675 
Q 2931 909 2931 1356 
Q 2931 1769 2642 2001 
Q 2353 2234 1838 2234 
L 1294 2234 
L 1294 2753 
L 1863 2753 
Q 2328 2753 2575 2939 
Q 2822 3125 2822 3475 
Q 2822 3834 2567 4026 
Q 2313 4219 1838 4219 
Q 1578 4219 1281 4162 
Q 984 4106 628 3988 
L 628 4550 
Q 988 4650 1302 4700 
Q 1616 4750 1894 4750 
Q 2613 4750 3031 4423 
Q 3450 4097 3450 3541 
Q 3450 3153 3228 2886 
Q 3006 2619 2597 2516 
z
" transform="scale(0.015625)"/>
       </defs>
       <use xlink:href="#DejaVuSans-33"/>
       <use xlink:href="#DejaVuSans-30" transform="translate(63.623047 0)"/>
       <use xlink:href="#DejaVuSans-30" transform="translate(127.246094 0)"/>
      </g>
     </g>
    </g>
    <g id="ytick_5">
     <g id="line2d_11">
      <g>
       <use xlink:href="#m41a2164087" x="50.565625" y="134.460135" style="stroke: #000000; stroke-width: 0.8"/>
      </g>
     </g>
     <g id="text_12">
      <!-- 400 -->
      <g transform="translate(24.478125 138.259354) scale(0.1 -0.1)">
       <use xlink:href="#DejaVuSans-34"/>
       <use xlink:href="#DejaVuSans-30" transform="translate(63.623047 0)"/>
       <use xlink:href="#DejaVuSans-30" transform="translate(127.246094 0)"/>
      </g>
     </g>
    </g>
    <g id="ytick_6">
     <g id="line2d_12">
      <g>
       <use xlink:href="#m41a2164087" x="50.565625" y="95.20295" style="stroke: #000000; stroke-width: 0.8"/>
      </g>
     </g>
     <g id="text_13">
      <!-- 500 -->
      <g transform="translate(24.478125 99.002168) scale(0.1 -0.1)">
       <defs>
        <path id="DejaVuSans-35" d="M 691 4666 
L 3169 4666 
L 3169 4134 
L 1269 4134 
L 1269 2991 
Q 1406 3038 1543 3061 
Q 1681 3084 1819 3084 
Q 2600 3084 3056 2656 
Q 3513 2228 3513 1497 
Q 3513 744 3044 326 
Q 2575 -91 1722 -91 
Q 1428 -91 1123 -41 
Q 819 9 494 109 
L 494 744 
Q 775 591 1075 516 
Q 1375 441 1709 441 
Q 2250 441 2565 725 
Q 2881 1009 2881 1497 
Q 2881 1984 2565 2268 
Q 2250 2553 1709 2553 
Q 1456 2553 1204 2497 
Q 953 2441 691 2322 
L 691 4666 
z
" transform="scale(0.015625)"/>
       </defs>
       <use xlink:href="#DejaVuSans-35"/>
       <use xlink:href="#DejaVuSans-30" transform="translate(63.623047 0)"/>
       <use xlink:href="#DejaVuSans-30" transform="translate(127.246094 0)"/>
      </g>
     </g>
    </g>
    <g id="ytick_7">
     <g id="line2d_13">
      <g>
       <use xlink:href="#m41a2164087" x="50.565625" y="55.945764" style="stroke: #000000; stroke-width: 0.8"/>
      </g>
     </g>
     <g id="text_14">
      <!-- 600 -->
      <g transform="translate(24.478125 59.744982) scale(0.1 -0.1)">
       <use xlink:href="#DejaVuSans-36"/>
       <use xlink:href="#DejaVuSans-30" transform="translate(63.623047 0)"/>
       <use xlink:href="#DejaVuSans-30" transform="translate(127.246094 0)"/>
      </g>
     </g>
    </g>
    <g id="ytick_8">
     <g id="line2d_14">
      <g>
       <use xlink:href="#m41a2164087" x="50.565625" y="16.688578" style="stroke: #000000; stroke-width: 0.8"/>
      </g>
     </g>
     <g id="text_15">
      <!-- 700 -->
      <g transform="translate(24.478125 20.487797) scale(0.1 -0.1)">
       <defs>
        <path id="DejaVuSans-37" d="M 525 4666 
L 3525 4666 
L 3525 4397 
L 1831 0 
L 1172 0 
L 2766 4134 
L 525 4134 
L 525 4666 
z
" transform="scale(0.015625)"/>
       </defs>
       <use xlink:href="#DejaVuSans-37"/>
       <use xlink:href="#DejaVuSans-30" transform="translate(63.623047 0)"/>
       <use xlink:href="#DejaVuSans-30" transform="translate(127.246094 0)"/>
      </g>
     </g>
    </g>
    <g id="text_16">
     <!-- time (ms) -->
     <g transform="translate(18.398438 181.883594) rotate(-90) scale(0.1 -0.1)">
      <defs>
       <path id="DejaVuSans-74" d="M 1172 4494 
L 1172 3500 
L 2356 3500 
L 2356 3053 
L 1172 3053 
L 1172 1153 
Q 1172 725 1289 603 
Q 1406 481 1766 481 
L 2356 481 
L 2356 0 
L 1766 0 
Q 1100 0 847 248 
Q 594 497 594 1153 
L 594 3053 
L 172 3053 
L 172 3500 
L 594 3500 
L 594 4494 
L 1172 4494 
z
" transform="scale(0.015625)"/>
       <path id="DejaVuSans-69" d="M 603 3500 
L 1178 3500 
L 1178 0 
L 603 0 
L 603 3500 
z
M 603 4863 
L 1178 4863 
L 1178 4134 
L 603 4134 
L 603 4863 
z
" transform="scale(0.015625)"/>
       <path id="DejaVuSans-6d" d="M 3328 2828 
Q 3544 3216 3844 3400 
Q 4144 3584 4550 3584 
Q 5097 3584 5394 3201 
Q 5691 2819 5691 2113 
L 5691 0 
L 5113 0 
L 5113 2094 
Q 5113 2597 4934 2840 
Q 4756 3084 4391 3084 
Q 3944 3084 3684 2787 
Q 3425 2491 3425 1978 
L 3425 0 
L 2847 0 
L 2847 2094 
Q 2847 2600 2669 2842 
Q 2491 3084 2119 3084 
Q 1678 3084 1418 2786 
Q 1159 2488 1159 1978 
L 1159 0 
L 581 0 
L 581 3500 
L 1159 3500 
L 1159 2956 
Q 1356 3278 1631 3431 
Q 1906 3584 2284 3584 
Q 2666 3584 2933 3390 
Q 3200 3197 3328 2828 
z
" transform="scale(0.015625)"/>
       <path id="DejaVuSans-65" d="M 3597 1894 
L 3597 1613 
L 953 1613 
Q 991 1019 1311 708 
Q 1631 397 2203 397 
Q 2534 397 2845 478 
Q 3156 559 3463 722 
L 3463 178 
Q 3153 47 2828 -22 
Q 2503 -91 2169 -91 
Q 1331 -91 842 396 
Q 353 884 353 1716 
Q 353 2575 817 3079 
Q 1281 3584 2069 3584 
Q 2775 3584 3186 3129 
Q 3597 2675 3597 1894 
z
M 3022 2063 
Q 3016 2534 2758 2815 
Q 2500 3097 2075 3097 
Q 1594 3097 1305 2825 
Q 1016 2553 972 2059 
L 3022 2063 
z
" transform="scale(0.015625)"/>
       <path id="DejaVuSans-28" d="M 1984 4856 
Q 1566 4138 1362 3434 
Q 1159 2731 1159 2009 
Q 1159 1288 1364 580 
Q 1569 -128 1984 -844 
L 1484 -844 
Q 1016 -109 783 600 
Q 550 1309 550 2009 
Q 550 2706 781 3412 
Q 1013 4119 1484 4856 
L 1984 4856 
z
" transform="scale(0.015625)"/>
       <path id="DejaVuSans-29" d="M 513 4856 
L 1013 4856 
Q 1481 4119 1714 3412 
Q 1947 2706 1947 2009 
Q 1947 1309 1714 600 
Q 1481 -109 1013 -844 
L 513 -844 
Q 928 -128 1133 580 
Q 1338 1288 1338 2009 
Q 1338 2731 1133 3434 
Q 928 4138 513 4856 
z
" transform="scale(0.015625)"/>
      </defs>
      <use xlink:href="#DejaVuSans-74"/>
      <use xlink:href="#DejaVuSans-69" transform="translate(39.208984 0)"/>
      <use xlink:href="#DejaVuSans-6d" transform="translate(66.992188 0)"/>
      <use xlink:href="#DejaVuSans-65" transform="translate(164.404297 0)"/>
      <use xlink:href="#DejaVuSans-20" transform="translate(225.927734 0)"/>
      <use xlink:href="#DejaVuSans-28" transform="translate(257.714844 0)"/>
      <use xlink:href="#DejaVuSans-6d" transform="translate(296.728516 0)"/>
      <use xlink:href="#DejaVuSans-73" transform="translate(394.140625 0)"/>
      <use xlink:href="#DejaVuSans-29" transform="translate(446.240234 0)"/>
     </g>
    </g>
   </g>
   <g id="line2d_15">
    <path d="M 65.763665 272.252858 
L 66.037257 273.430573 
L 66.341248 273.038001 
L 66.645239 272.252858 
L 66.94923 272.252858 
L 67.253222 271.467714 
L 67.557213 271.860286 
L 67.861204 271.860286 
L 68.165195 271.860286 
L 68.469186 270.68257 
L 68.773178 271.075142 
L 71.81309 268.327139 
L 74.853001 267.541995 
L 77.892913 263.616277 
L 80.932825 264.793992 
L 83.972737 260.475702 
L 87.012649 262.045989 
L 90.052561 262.045989 
L 93.092473 259.690558 
L 96.132385 259.690558 
L 99.172297 258.905414 
L 102.212209 258.120271 
L 105.252121 258.120271 
L 108.292033 256.549983 
L 111.331945 256.549983 
L 114.371857 254.979696 
L 117.411769 253.016837 
L 120.451681 254.194552 
L 123.491593 252.231693 
L 126.531505 252.231693 
L 129.571417 252.231693 
L 132.611328 249.091118 
L 135.65124 251.053977 
L 138.691152 249.091118 
L 141.731064 249.48369 
L 144.770976 247.520831 
L 147.810888 249.48369 
L 150.8508 251.053977 
L 153.890712 249.091118 
L 156.930624 248.698546 
L 159.970536 248.305974 
L 163.010448 248.305974 
L 166.05036 248.305974 
L 169.090272 246.735687 
L 172.130184 248.305974 
L 175.170096 247.128259 
L 178.210008 246.735687 
L 181.24992 246.735687 
L 184.289832 244.380256 
L 187.329743 246.343115 
L 190.369655 247.913402 
L 193.409567 241.632253 
L 196.449479 245.165399 
L 199.489391 247.128259 
L 202.529303 246.735687 
L 205.569215 246.343115 
L 208.609127 245.950543 
L 211.649039 245.950543 
L 214.688951 245.165399 
L 217.728863 245.950543 
L 220.768775 244.772828 
L 223.808687 246.343115 
L 226.848599 245.165399 
L 229.888511 244.772828 
L 232.928423 244.772828 
L 235.968335 244.772828 
L 239.008247 244.772828 
L 242.048159 242.024825 
L 245.08807 244.772828 
L 248.127982 242.809968 
L 251.167894 242.417396 
L 254.207806 241.632253 
L 257.247718 240.454537 
L 260.28763 241.632253 
L 263.327542 242.809968 
L 266.367454 242.024825 
L 269.407366 242.024825 
L 272.447278 241.239681 
L 275.48719 241.239681 
L 278.527102 237.706534 
L 281.567014 242.024825 
L 284.606926 242.024825 
L 287.646838 242.024825 
L 290.68675 242.417396 
L 293.726662 240.454537 
L 296.766574 242.024825 
L 299.806485 242.024825 
L 302.846397 240.454537 
L 305.886309 240.847109 
L 308.926221 239.669393 
L 311.966133 240.061965 
L 315.006045 238.099106 
L 318.045957 240.454537 
L 321.085869 240.454537 
L 324.125781 240.061965 
L 327.165693 239.669393 
L 330.205605 239.669393 
L 333.245517 239.669393 
L 336.285429 238.491678 
L 339.325341 238.491678 
L 342.365253 240.061965 
L 345.405165 239.276822 
L 348.445077 238.88425 
L 351.484989 238.88425 
L 354.5249 237.706534 
L 357.564812 238.88425 
L 360.604724 238.491678 
L 363.644636 236.92139 
L 366.684548 236.92139 
L 369.72446 229.855097 
" clip-path="url(#p88dd0fb89c)" style="fill: none; stroke: #1f77b4; stroke-width: 1.5; stroke-linecap: square"/>
   </g>
   <g id="line2d_16">
    <path d="M 65.763665 288.740876 
L 66.037257 288.348304 
L 66.341248 288.348304 
L 66.645239 287.955732 
L 66.94923 287.56316 
L 67.253222 287.955732 
L 67.557213 287.56316 
L 67.861204 287.170588 
L 68.165195 286.778016 
L 68.469186 287.170588 
L 68.773178 286.778016 
L 71.81309 285.207729 
L 74.853001 283.637442 
L 77.892913 282.852298 
L 80.932825 282.067154 
L 83.972737 278.534007 
L 87.012649 278.926579 
L 90.052561 278.534007 
L 93.092473 277.356292 
L 96.132385 278.534007 
L 99.172297 276.178576 
L 102.212209 277.356292 
L 105.252121 275.786004 
L 108.292033 276.571148 
L 111.331945 276.571148 
L 114.371857 274.608289 
L 117.411769 276.178576 
L 120.451681 275.786004 
L 123.491593 275.000861 
L 126.531505 275.393432 
L 129.571417 275.000861 
L 132.611328 271.860286 
L 135.65124 273.038001 
L 138.691152 273.430573 
L 141.731064 273.430573 
L 144.770976 274.215717 
L 147.810888 273.823145 
L 150.8508 273.430573 
L 153.890712 273.430573 
L 156.930624 272.645429 
L 159.970536 272.252858 
L 163.010448 271.860286 
L 166.05036 271.467714 
L 169.090272 270.68257 
L 172.130184 271.467714 
L 175.170096 270.289998 
L 178.210008 269.504855 
L 181.24992 269.504855 
L 184.289832 270.68257 
L 187.329743 269.112283 
L 190.369655 269.112283 
L 193.409567 267.541995 
L 196.449479 270.289998 
L 199.489391 269.112283 
L 202.529303 268.719711 
L 205.569215 268.327139 
L 208.609127 268.327139 
L 211.649039 267.149423 
L 214.688951 267.149423 
L 217.728863 268.327139 
L 220.768775 267.541995 
L 223.808687 268.327139 
L 226.848599 267.149423 
L 229.888511 267.149423 
L 232.928423 267.149423 
L 235.968335 267.149423 
L 239.008247 266.36428 
L 242.048159 254.194552 
L 245.08807 265.579136 
L 248.127982 264.793992 
L 251.167894 265.971708 
L 254.207806 264.793992 
L 257.247718 264.40142 
L 260.28763 264.008849 
L 263.327542 265.579136 
L 266.367454 265.186564 
L 269.407366 263.223705 
L 272.447278 263.616277 
L 275.48719 264.40142 
L 278.527102 263.616277 
L 281.567014 263.616277 
L 284.606926 264.008849 
L 287.646838 262.831133 
L 290.68675 264.40142 
L 293.726662 263.616277 
L 296.766574 262.831133 
L 299.806485 261.653417 
L 302.846397 262.045989 
L 305.886309 262.045989 
L 308.926221 262.438561 
L 311.966133 262.045989 
L 315.006045 256.942555 
L 318.045957 261.653417 
L 321.085869 262.045989 
L 324.125781 261.653417 
L 327.165693 260.868274 
L 330.205605 260.868274 
L 333.245517 260.475702 
L 336.285429 260.868274 
L 339.325341 260.475702 
L 342.365253 261.260846 
L 345.405165 260.08313 
L 348.445077 260.08313 
L 351.484989 260.08313 
L 354.5249 257.335127 
L 357.564812 258.512843 
L 360.604724 258.512843 
L 363.644636 258.512843 
L 366.684548 258.905414 
L 369.72446 253.409408 
" clip-path="url(#p88dd0fb89c)" style="fill: none; stroke: #ff7f0e; stroke-width: 1.5; stroke-linecap: square"/>
   </g>
   <g id="line2d_17">
    <path d="M 65.763665 284.815157 
L 66.037257 284.422585 
L 66.341248 284.030013 
L 66.645239 283.637442 
L 66.94923 283.637442 
L 67.253222 283.24487 
L 67.557213 282.852298 
L 67.861204 282.852298 
L 68.165195 282.067154 
L 68.469186 282.459726 
L 68.773178 281.674582 
L 71.81309 279.319151 
L 74.853001 276.571148 
L 77.892913 274.608289 
L 80.932825 273.038001 
L 83.972737 271.467714 
L 87.012649 269.504855 
L 90.052561 267.149423 
L 93.092473 267.541995 
L 96.132385 265.971708 
L 99.172297 264.40142 
L 102.212209 263.223705 
L 105.252121 262.831133 
L 108.292033 261.653417 
L 111.331945 250.661405 
L 114.371857 256.549983 
L 117.411769 258.905414 
L 120.451681 258.120271 
L 123.491593 256.157411 
L 126.531505 256.942555 
L 129.571417 255.76484 
L 132.611328 254.979696 
L 135.65124 254.194552 
L 138.691152 251.446549 
L 141.731064 253.016837 
L 144.770976 252.231693 
L 147.810888 251.053977 
L 150.8508 250.268834 
L 153.890712 248.698546 
L 156.930624 248.698546 
L 159.970536 247.128259 
L 163.010448 247.128259 
L 166.05036 245.557971 
L 169.090272 245.557971 
L 172.130184 243.987684 
L 175.170096 244.380256 
L 178.210008 243.595112 
L 181.24992 243.20254 
L 184.289832 242.024825 
L 187.329743 241.239681 
L 190.369655 240.847109 
L 193.409567 239.669393 
L 196.449479 238.88425 
L 199.489391 238.491678 
L 202.529303 237.706534 
L 205.569215 236.92139 
L 208.609127 235.743675 
L 211.649039 232.995672 
L 214.688951 232.210528 
L 217.728863 233.388244 
L 220.768775 232.210528 
L 223.808687 228.284809 
L 226.848599 229.462525 
L 229.888511 228.284809 
L 232.928423 230.247669 
L 235.968335 228.677381 
L 239.008247 229.069953 
L 242.048159 225.536806 
L 245.08807 225.929378 
L 248.127982 224.359091 
L 251.167894 223.181375 
L 254.207806 217.292797 
L 257.247718 221.611088 
L 260.28763 221.218516 
L 263.327542 219.255657 
L 266.367454 218.863085 
L 269.407366 219.648229 
L 272.447278 213.759651 
L 275.48719 216.115082 
L 278.527102 217.292797 
L 281.567014 215.329938 
L 284.606926 213.367079 
L 287.646838 209.44136 
L 290.68675 216.115082 
L 293.726662 215.72251 
L 296.766574 213.759651 
L 299.806485 213.367079 
L 302.846397 210.226504 
L 305.886309 206.693357 
L 308.926221 211.011648 
L 311.966133 211.011648 
L 315.006045 209.048788 
L 318.045957 201.589923 
L 321.085869 204.730498 
L 324.125781 205.908214 
L 327.165693 206.300785 
L 330.205605 204.337926 
L 333.245517 205.908214 
L 336.285429 203.552782 
L 339.325341 201.589923 
L 342.365253 198.84192 
L 345.405165 201.589923 
L 348.445077 201.982495 
L 351.484989 201.197351 
L 354.5249 199.234492 
L 357.564812 201.197351 
L 360.604724 198.449348 
L 363.644636 196.879061 
L 366.684548 198.449348 
L 369.72446 188.635052 
" clip-path="url(#p88dd0fb89c)" style="fill: none; stroke: #2ca02c; stroke-width: 1.5; stroke-linecap: square"/>
   </g>
   <g id="line2d_18">
    <path d="M 65.763665 67.330348 
L 66.037257 65.367488 
L 66.341248 66.545204 
L 66.645239 64.582345 
L 66.94923 68.900635 
L 67.253222 67.330348 
L 67.557213 67.330348 
L 67.861204 63.797201 
L 68.165195 70.470922 
L 68.469186 66.152632 
L 68.773178 66.937776 
L 71.81309 67.330348 
L 74.853001 64.189773 
L 77.892913 45.738895 
L 80.932825 63.404629 
L 83.972737 61.44177 
L 87.012649 60.264054 
L 90.052561 36.709743 
L 93.092473 59.47891 
L 96.132385 58.693767 
L 99.172297 52.020045 
L 102.212209 63.404629 
L 105.252121 50.449758 
L 108.292033 24.147443 
L 111.331945 38.28003 
L 114.371857 55.945764 
L 117.411769 62.619485 
L 120.451681 57.908623 
L 123.491593 60.656626 
L 126.531505 56.338336 
L 129.571417 54.768048 
L 132.611328 62.619485 
L 135.65124 61.44177 
L 138.691152 63.012057 
L 141.731064 58.693767 
L 144.770976 54.768048 
L 147.810888 58.301195 
L 150.8508 59.086339 
L 153.890712 57.516051 
L 156.930624 60.656626 
L 159.970536 56.338336 
L 163.010448 54.768048 
L 166.05036 49.272042 
L 169.090272 54.375476 
L 172.130184 50.057186 
L 175.170096 48.094327 
L 178.210008 55.16062 
L 181.24992 55.16062 
L 184.289832 48.87947 
L 187.329743 57.123479 
L 190.369655 57.123479 
L 193.409567 57.516051 
L 196.449479 51.234901 
L 199.489391 53.197761 
L 202.529303 55.553192 
L 205.569215 59.47891 
L 208.609127 58.301195 
L 211.649039 56.338336 
L 214.688951 55.553192 
L 217.728863 49.664614 
L 220.768775 58.693767 
L 223.808687 59.086339 
L 226.848599 55.945764 
L 229.888511 58.301195 
L 232.928423 59.871482 
L 235.968335 56.338336 
L 239.008247 54.375476 
L 242.048159 42.205749 
L 245.08807 53.197761 
L 248.127982 52.412617 
L 251.167894 50.84233 
L 254.207806 48.87947 
L 257.247718 51.234901 
L 260.28763 35.139455 
L 263.327542 48.486898 
L 266.367454 50.057186 
L 269.407366 52.020045 
L 272.447278 50.449758 
L 275.48719 54.375476 
L 278.527102 48.87947 
L 281.567014 50.449758 
L 284.606926 44.56118 
L 287.646838 55.16062 
L 290.68675 52.412617 
L 293.726662 53.982904 
L 296.766574 55.553192 
L 299.806485 54.768048 
L 302.846397 48.87947 
L 305.886309 52.805189 
L 308.926221 56.730907 
L 311.966133 52.020045 
L 315.006045 55.945764 
L 318.045957 52.412617 
L 321.085869 52.412617 
L 324.125781 29.250877 
L 327.165693 55.553192 
L 330.205605 55.553192 
L 333.245517 51.234901 
L 336.285429 48.486898 
L 339.325341 45.738895 
L 342.365253 53.982904 
L 345.405165 52.805189 
L 348.445077 52.020045 
L 351.484989 53.982904 
L 354.5249 53.197761 
L 357.564812 51.627473 
L 360.604724 33.569168 
L 363.644636 49.272042 
L 366.684548 52.805189 
L 369.72446 37.887458 
" clip-path="url(#p88dd0fb89c)" style="fill: none; stroke: #d62728; stroke-width: 1.5; stroke-linecap: square"/>
   </g>
   <g id="line2d_19">
    <path d="M 65.763665 290.311163 
L 66.037257 289.133448 
L 66.341248 289.133448 
L 66.645239 289.133448 
L 66.94923 289.133448 
L 67.253222 289.133448 
L 67.557213 288.740876 
L 67.861204 288.740876 
L 68.165195 288.348304 
L 68.469186 288.740876 
L 68.773178 288.740876 
L 71.81309 287.56316 
L 74.853001 286.778016 
L 77.892913 285.600301 
L 80.932825 285.207729 
L 83.972737 284.030013 
L 87.012649 284.422585 
L 90.052561 283.637442 
L 93.092473 282.852298 
L 96.132385 282.852298 
L 99.172297 282.852298 
L 102.212209 282.852298 
L 105.252121 282.067154 
L 108.292033 281.674582 
L 111.331945 280.496867 
L 114.371857 281.28201 
L 117.411769 281.28201 
L 120.451681 281.28201 
L 123.491593 281.28201 
L 126.531505 278.926579 
L 129.571417 280.496867 
L 132.611328 280.496867 
L 135.65124 280.104295 
L 138.691152 280.104295 
L 141.731064 280.496867 
L 144.770976 279.711723 
L 147.810888 280.104295 
L 150.8508 279.319151 
L 153.890712 279.319151 
L 156.930624 279.319151 
L 159.970536 279.319151 
L 163.010448 278.926579 
L 166.05036 278.534007 
L 169.090272 278.534007 
L 172.130184 278.534007 
L 175.170096 278.534007 
L 178.210008 278.534007 
L 181.24992 278.534007 
L 184.289832 277.748864 
L 187.329743 277.356292 
L 190.369655 277.748864 
L 193.409567 277.748864 
L 196.449479 278.141435 
L 199.489391 277.356292 
L 202.529303 273.038001 
L 205.569215 275.000861 
L 208.609127 276.96372 
L 211.649039 277.356292 
L 214.688951 277.356292 
L 217.728863 276.571148 
L 220.768775 274.215717 
L 223.808687 276.571148 
L 226.848599 276.571148 
L 229.888511 276.178576 
L 232.928423 276.571148 
L 235.968335 276.178576 
L 239.008247 275.786004 
L 242.048159 275.393432 
L 245.08807 275.000861 
L 248.127982 274.608289 
L 251.167894 275.786004 
L 254.207806 275.000861 
L 257.247718 275.000861 
L 260.28763 275.000861 
L 263.327542 275.000861 
L 266.367454 273.823145 
L 269.407366 273.823145 
L 272.447278 274.215717 
L 275.48719 273.038001 
L 278.527102 273.823145 
L 281.567014 273.823145 
L 284.606926 271.075142 
L 287.646838 274.215717 
L 290.68675 273.823145 
L 293.726662 273.430573 
L 296.766574 273.430573 
L 299.806485 273.038001 
L 302.846397 273.038001 
L 305.886309 273.430573 
L 308.926221 273.038001 
L 311.966133 273.038001 
L 315.006045 273.038001 
L 318.045957 273.038001 
L 321.085869 273.038001 
L 324.125781 270.289998 
L 327.165693 272.252858 
L 330.205605 271.860286 
L 333.245517 272.252858 
L 336.285429 271.075142 
L 339.325341 271.467714 
L 342.365253 271.860286 
L 345.405165 271.860286 
L 348.445077 271.467714 
L 351.484989 271.075142 
L 354.5249 270.289998 
L 357.564812 270.68257 
L 360.604724 270.68257 
L 363.644636 270.289998 
L 366.684548 260.475702 
L 369.72446 269.897426 
" clip-path="url(#p88dd0fb89c)" style="fill: none; stroke: #9467bd; stroke-width: 1.5; stroke-linecap: square"/>
   </g>
   <g id="line2d_20">
    <path d="M 65.763665 283.637442 
L 66.037257 283.637442 
L 66.341248 283.24487 
L 66.645239 283.637442 
L 66.94923 283.24487 
L 67.253222 282.852298 
L 67.557213 282.459726 
L 67.861204 282.459726 
L 68.165195 282.459726 
L 68.469186 282.067154 
L 68.773178 282.459726 
L 71.81309 280.889439 
L 74.853001 279.711723 
L 77.892913 279.319151 
L 80.932825 277.356292 
L 83.972737 276.96372 
L 87.012649 276.96372 
L 90.052561 276.178576 
L 93.092473 275.393432 
L 96.132385 273.430573 
L 99.172297 274.608289 
L 102.212209 275.393432 
L 105.252121 273.823145 
L 108.292033 265.579136 
L 111.331945 271.467714 
L 114.371857 273.430573 
L 117.411769 273.038001 
L 120.451681 273.038001 
L 123.491593 272.645429 
L 126.531505 271.860286 
L 129.571417 271.860286 
L 132.611328 271.860286 
L 135.65124 272.252858 
L 138.691152 268.327139 
L 141.731064 272.252858 
L 144.770976 272.645429 
L 147.810888 272.252858 
L 150.8508 271.860286 
L 153.890712 271.075142 
L 156.930624 271.075142 
L 159.970536 271.467714 
L 163.010448 271.075142 
L 166.05036 272.252858 
L 169.090272 271.467714 
L 172.130184 271.467714 
L 175.170096 270.68257 
L 178.210008 271.860286 
L 181.24992 270.68257 
L 184.289832 271.075142 
L 187.329743 270.68257 
L 190.369655 269.112283 
L 193.409567 270.289998 
L 196.449479 270.289998 
L 199.489391 269.112283 
L 202.529303 269.504855 
L 205.569215 269.504855 
L 208.609127 270.289998 
L 211.649039 270.68257 
L 214.688951 269.897426 
L 217.728863 269.897426 
L 220.768775 269.897426 
L 223.808687 270.289998 
L 226.848599 268.719711 
L 229.888511 269.112283 
L 232.928423 269.112283 
L 235.968335 269.504855 
L 239.008247 269.504855 
L 242.048159 262.831133 
L 245.08807 266.756852 
L 248.127982 267.541995 
L 251.167894 267.934567 
L 254.207806 269.112283 
L 257.247718 268.327139 
L 260.28763 266.756852 
L 263.327542 267.541995 
L 266.367454 267.934567 
L 269.407366 267.541995 
L 272.447278 265.579136 
L 275.48719 267.149423 
L 278.527102 266.756852 
L 281.567014 265.971708 
L 284.606926 264.40142 
L 287.646838 265.186564 
L 290.68675 266.756852 
L 293.726662 266.756852 
L 296.766574 266.756852 
L 299.806485 264.793992 
L 302.846397 266.756852 
L 305.886309 266.36428 
L 308.926221 265.971708 
L 311.966133 265.971708 
L 315.006045 265.579136 
L 318.045957 265.186564 
L 321.085869 265.186564 
L 324.125781 265.579136 
L 327.165693 265.579136 
L 330.205605 264.40142 
L 333.245517 264.793992 
L 336.285429 265.579136 
L 339.325341 265.971708 
L 342.365253 264.40142 
L 345.405165 264.793992 
L 348.445077 263.616277 
L 351.484989 264.40142 
L 354.5249 264.793992 
L 357.564812 264.008849 
L 360.604724 264.793992 
L 363.644636 264.793992 
L 366.684548 260.475702 
L 369.72446 258.512843 
" clip-path="url(#p88dd0fb89c)" style="fill: none; stroke: #8c564b; stroke-width: 1.5; stroke-linecap: square"/>
   </g>
   <g id="line2d_21">
    <path d="M 65.763665 289.133448 
L 66.037257 288.740876 
L 66.341248 288.348304 
L 66.645239 288.348304 
L 66.94923 288.348304 
L 67.253222 288.348304 
L 67.557213 288.348304 
L 67.861204 287.955732 
L 68.165195 287.955732 
L 68.469186 287.955732 
L 68.773178 287.56316 
L 71.81309 287.170588 
L 74.853001 286.778016 
L 77.892913 286.385445 
L 80.932825 285.992873 
L 83.972737 285.600301 
L 87.012649 285.207729 
L 90.052561 284.815157 
L 93.092473 284.422585 
L 96.132385 284.815157 
L 99.172297 284.815157 
L 102.212209 284.030013 
L 105.252121 284.030013 
L 108.292033 284.422585 
L 111.331945 284.030013 
L 114.371857 283.24487 
L 117.411769 283.637442 
L 120.451681 282.459726 
L 123.491593 283.637442 
L 126.531505 282.459726 
L 129.571417 283.637442 
L 132.611328 283.24487 
L 135.65124 283.24487 
L 138.691152 283.24487 
L 141.731064 283.24487 
L 144.770976 283.24487 
L 147.810888 282.852298 
L 150.8508 282.459726 
L 153.890712 282.852298 
L 156.930624 282.852298 
L 159.970536 282.459726 
L 163.010448 282.852298 
L 166.05036 282.459726 
L 169.090272 282.459726 
L 172.130184 282.067154 
L 175.170096 278.926579 
L 178.210008 282.067154 
L 181.24992 282.067154 
L 184.289832 282.067154 
L 187.329743 282.067154 
L 190.369655 282.067154 
L 193.409567 282.067154 
L 196.449479 280.104295 
L 199.489391 281.674582 
L 202.529303 281.674582 
L 205.569215 281.674582 
L 208.609127 281.28201 
L 211.649039 281.28201 
L 214.688951 281.28201 
L 217.728863 281.28201 
L 220.768775 280.889439 
L 223.808687 281.28201 
L 226.848599 280.889439 
L 229.888511 281.28201 
L 232.928423 280.889439 
L 235.968335 280.889439 
L 239.008247 280.889439 
L 242.048159 280.496867 
L 245.08807 280.104295 
L 248.127982 280.496867 
L 251.167894 280.104295 
L 254.207806 280.496867 
L 257.247718 280.104295 
L 260.28763 278.141435 
L 263.327542 280.496867 
L 266.367454 280.496867 
L 269.407366 279.711723 
L 272.447278 280.104295 
L 275.48719 280.104295 
L 278.527102 280.104295 
L 281.567014 279.711723 
L 284.606926 276.96372 
L 287.646838 279.319151 
L 290.68675 279.711723 
L 293.726662 279.711723 
L 296.766574 279.319151 
L 299.806485 279.319151 
L 302.846397 279.711723 
L 305.886309 279.711723 
L 308.926221 278.926579 
L 311.966133 279.319151 
L 315.006045 278.926579 
L 318.045957 278.926579 
L 321.085869 278.926579 
L 324.125781 278.926579 
L 327.165693 278.926579 
L 330.205605 278.926579 
L 333.245517 278.926579 
L 336.285429 278.926579 
L 339.325341 278.926579 
L 342.365253 278.141435 
L 345.405165 278.534007 
L 348.445077 278.141435 
L 351.484989 278.141435 
L 354.5249 277.748864 
L 357.564812 278.534007 
L 360.604724 277.748864 
L 363.644636 278.141435 
L 366.684548 278.141435 
L 369.72446 275.786004 
" clip-path="url(#p88dd0fb89c)" style="fill: none; stroke: #e377c2; stroke-width: 1.5; stroke-linecap: square"/>
   </g>
   <g id="line2d_22">
    <path d="M 65.763665 264.793992 
L 66.037257 262.831133 
L 66.341248 261.260846 
L 66.645239 259.297986 
L 66.94923 258.120271 
L 67.253222 256.942555 
L 67.557213 254.979696 
L 67.861204 254.587124 
L 68.165195 253.016837 
L 68.469186 253.016837 
L 68.773178 252.624265 
L 71.81309 244.772828 
L 74.853001 238.099106 
L 77.892913 232.210528 
L 80.932825 231.032812 
L 83.972737 226.714522 
L 87.012649 222.396232 
L 90.052561 213.759651 
L 93.092473 212.974507 
L 96.132385 212.189363 
L 99.172297 207.871073 
L 102.212209 201.982495 
L 105.252121 204.730498 
L 108.292033 154.088728 
L 111.331945 193.738486 
L 114.371857 189.027624 
L 117.411769 176.857896 
L 120.451681 194.131058 
L 123.491593 190.990483 
L 126.531505 189.027624 
L 129.571417 189.027624 
L 132.611328 187.457336 
L 135.65124 182.353902 
L 138.691152 183.531618 
L 141.731064 181.568758 
L 144.770976 181.96133 
L 147.810888 179.213327 
L 150.8508 179.213327 
L 153.890712 176.072752 
L 156.930624 163.510453 
L 159.970536 172.147034 
L 163.010448 171.36189 
L 166.05036 162.725309 
L 169.090272 165.473312 
L 172.130184 165.865884 
L 175.170096 163.117881 
L 178.210008 163.117881 
L 181.24992 163.510453 
L 184.289832 161.155022 
L 187.329743 162.725309 
L 190.369655 155.659016 
L 193.409567 152.911013 
L 196.449479 153.303585 
L 199.489391 151.340725 
L 202.529303 145.844719 
L 205.569215 146.629863 
L 208.609127 149.770438 
L 211.649039 146.237291 
L 214.688951 140.348713 
L 217.728863 145.452147 
L 220.768775 141.133857 
L 223.808687 138.778426 
L 226.848599 133.28242 
L 229.888511 135.245279 
L 232.928423 134.852707 
L 235.968335 133.28242 
L 239.008247 133.674992 
L 242.048159 130.926989 
L 245.08807 126.608698 
L 248.127982 125.038411 
L 251.167894 119.934977 
L 254.207806 128.571557 
L 257.247718 119.934977 
L 260.28763 117.972117 
L 263.327542 117.972117 
L 266.367454 119.934977 
L 269.407366 110.905824 
L 272.447278 112.868683 
L 275.48719 99.913812 
L 278.527102 108.942965 
L 281.567014 98.343524 
L 284.606926 108.942965 
L 287.646838 108.942965 
L 290.68675 106.980105 
L 293.726662 102.269243 
L 296.766574 106.194962 
L 299.806485 92.454947 
L 302.846397 99.913812 
L 305.886309 102.661815 
L 308.926221 97.165809 
L 311.966133 103.446959 
L 315.006045 99.52124 
L 318.045957 95.595521 
L 321.085869 89.706944 
L 324.125781 93.632662 
L 327.165693 92.847518 
L 330.205605 88.9218 
L 333.245517 92.454947 
L 336.285429 87.744084 
L 339.325341 85.781225 
L 342.365253 83.818366 
L 345.405165 87.351512 
L 348.445077 82.64065 
L 351.484989 81.855506 
L 354.5249 81.855506 
L 357.564812 80.677791 
L 360.604724 82.248078 
L 363.644636 65.76006 
L 366.684548 72.433782 
L 369.72446 66.545204 
" clip-path="url(#p88dd0fb89c)" style="fill: none; stroke: #7f7f7f; stroke-width: 1.5; stroke-linecap: square"/>
   </g>
   <g id="line2d_23">
    <path d="M 65.763665 287.955732 
L 66.037257 287.170588 
L 66.341248 286.385445 
L 66.645239 285.992873 
L 66.94923 285.207729 
L 67.253222 284.815157 
L 67.557213 284.030013 
L 67.861204 284.030013 
L 68.165195 283.637442 
L 68.469186 283.24487 
L 68.773178 282.852298 
L 71.81309 279.319151 
L 74.853001 278.141435 
L 77.892913 276.178576 
L 80.932825 269.504855 
L 83.972737 272.252858 
L 87.012649 270.68257 
L 90.052561 260.08313 
L 93.092473 265.971708 
L 96.132385 267.934567 
L 99.172297 267.541995 
L 102.212209 266.36428 
L 105.252121 266.36428 
L 108.292033 260.868274 
L 111.331945 258.120271 
L 114.371857 256.942555 
L 117.411769 263.223705 
L 120.451681 260.868274 
L 123.491593 259.690558 
L 126.531505 263.223705 
L 129.571417 261.260846 
L 132.611328 262.045989 
L 135.65124 261.653417 
L 138.691152 262.045989 
L 141.731064 260.868274 
L 144.770976 261.260846 
L 147.810888 260.475702 
L 150.8508 260.08313 
L 153.890712 259.297986 
L 156.930624 258.905414 
L 159.970536 256.549983 
L 163.010448 257.727699 
L 166.05036 255.76484 
L 169.090272 256.157411 
L 172.130184 255.76484 
L 175.170096 256.157411 
L 178.210008 255.372268 
L 181.24992 254.194552 
L 184.289832 254.587124 
L 187.329743 253.016837 
L 190.369655 254.587124 
L 193.409567 254.194552 
L 196.449479 252.231693 
L 199.489391 253.80198 
L 202.529303 253.80198 
L 205.569215 246.343115 
L 208.609127 251.839121 
L 211.649039 252.624265 
L 214.688951 249.48369 
L 217.728863 251.053977 
L 220.768775 251.839121 
L 223.808687 249.48369 
L 226.848599 247.913402 
L 229.888511 250.268834 
L 232.928423 249.091118 
L 235.968335 250.268834 
L 239.008247 249.48369 
L 242.048159 245.165399 
L 245.08807 248.305974 
L 248.127982 243.987684 
L 251.167894 248.698546 
L 254.207806 244.772828 
L 257.247718 246.343115 
L 260.28763 245.165399 
L 263.327542 246.343115 
L 266.367454 242.809968 
L 269.407366 245.557971 
L 272.447278 245.557971 
L 275.48719 244.772828 
L 278.527102 244.380256 
L 281.567014 240.454537 
L 284.606926 236.528819 
L 287.646838 244.772828 
L 290.68675 240.454537 
L 293.726662 238.88425 
L 296.766574 241.632253 
L 299.806485 243.987684 
L 302.846397 242.417396 
L 305.886309 242.024825 
L 308.926221 240.061965 
L 311.966133 241.239681 
L 315.006045 240.847109 
L 318.045957 237.706534 
L 321.085869 236.92139 
L 324.125781 240.061965 
L 327.165693 239.669393 
L 330.205605 239.669393 
L 333.245517 234.958531 
L 336.285429 238.88425 
L 339.325341 237.706534 
L 342.365253 237.706534 
L 345.405165 234.565959 
L 348.445077 236.136247 
L 351.484989 233.388244 
L 354.5249 238.88425 
L 357.564812 235.351103 
L 360.604724 232.995672 
L 363.644636 231.425384 
L 366.684548 233.780816 
L 369.72446 232.210528 
" clip-path="url(#p88dd0fb89c)" style="fill: none; stroke: #bcbd22; stroke-width: 1.5; stroke-linecap: square"/>
   </g>
   <g id="line2d_24">
    <path d="M 65.763665 207.871073 
L 66.037257 208.656217 
L 66.341248 207.478501 
L 66.645239 206.693357 
L 66.94923 205.908214 
L 67.253222 204.337926 
L 67.557213 200.804779 
L 67.861204 203.552782 
L 68.165195 204.730498 
L 68.469186 199.627064 
L 68.773178 203.160211 
L 71.81309 198.84192 
L 74.853001 194.131058 
L 77.892913 187.849908 
L 80.932825 185.887049 
L 83.972737 176.465324 
L 87.012649 178.035612 
L 90.052561 177.250468 
L 93.092473 144.667004 
L 96.132385 171.754462 
L 99.172297 167.436171 
L 102.212209 166.258456 
L 105.252121 161.547594 
L 108.292033 117.972117 
L 111.331945 153.303585 
L 114.371857 162.725309 
L 117.411769 150.555582 
L 120.451681 159.192162 
L 123.491593 152.518441 
L 126.531505 153.303585 
L 129.571417 158.014447 
L 132.611328 151.733297 
L 135.65124 152.911013 
L 138.691152 153.696156 
L 141.731064 152.125869 
L 144.770976 152.125869 
L 147.810888 151.733297 
L 150.8508 152.125869 
L 153.890712 151.340725 
L 156.930624 150.16301 
L 159.970536 145.452147 
L 163.010448 150.555582 
L 166.05036 148.592722 
L 169.090272 150.16301 
L 172.130184 146.629863 
L 175.170096 145.844719 
L 178.210008 146.237291 
L 181.24992 147.807579 
L 184.289832 147.807579 
L 187.329743 145.844719 
L 190.369655 146.237291 
L 193.409567 147.022435 
L 196.449479 147.415007 
L 199.489391 149.770438 
L 202.529303 146.237291 
L 205.569215 142.311573 
L 208.609127 145.452147 
L 211.649039 142.704144 
L 214.688951 137.993282 
L 217.728863 140.741285 
L 220.768775 138.778426 
L 223.808687 134.460135 
L 226.848599 134.067564 
L 229.888511 141.919001 
L 232.928423 139.170998 
L 235.968335 139.956141 
L 239.008247 134.067564 
L 242.048159 134.852707 
L 245.08807 136.030423 
L 248.127982 135.245279 
L 251.167894 135.245279 
L 254.207806 134.067564 
L 257.247718 136.815567 
L 260.28763 132.889848 
L 263.327542 132.497276 
L 266.367454 128.964129 
L 269.407366 130.926989 
L 272.447278 132.497276 
L 275.48719 130.534417 
L 278.527102 125.823554 
L 281.567014 134.067564 
L 284.606926 127.00127 
L 287.646838 132.104704 
L 290.68675 133.674992 
L 293.726662 129.749273 
L 296.766574 127.786414 
L 299.806485 127.00127 
L 302.846397 127.786414 
L 305.886309 126.216126 
L 308.926221 130.141845 
L 311.966133 128.964129 
L 315.006045 129.749273 
L 318.045957 130.534417 
L 321.085869 101.484099 
L 324.125781 127.00127 
L 327.165693 123.860695 
L 330.205605 127.786414 
L 333.245517 127.393842 
L 336.285429 121.112692 
L 339.325341 130.141845 
L 342.365253 125.823554 
L 345.405165 123.468123 
L 348.445077 119.542405 
L 351.484989 125.430983 
L 354.5249 118.757261 
L 357.564812 119.149833 
L 360.604724 120.72012 
L 363.644636 123.860695 
L 366.684548 64.974916 
L 369.72446 110.513252 
" clip-path="url(#p88dd0fb89c)" style="fill: none; stroke: #17becf; stroke-width: 1.5; stroke-linecap: square"/>
   </g>
   <g id="line2d_25">
    <path d="M 65.763665 291.096307 
L 66.037257 290.703735 
L 66.341248 290.703735 
L 66.645239 290.703735 
L 66.94923 290.703735 
L 67.253222 290.311163 
L 67.557213 289.918591 
L 67.861204 290.311163 
L 68.165195 289.918591 
L 68.469186 290.311163 
L 68.773178 289.918591 
L 71.81309 289.133448 
L 74.853001 288.740876 
L 77.892913 287.955732 
L 80.932825 287.56316 
L 83.972737 287.170588 
L 87.012649 286.385445 
L 90.052561 286.385445 
L 93.092473 285.992873 
L 96.132385 285.992873 
L 99.172297 285.992873 
L 102.212209 285.600301 
L 105.252121 285.992873 
L 108.292033 285.207729 
L 111.331945 285.207729 
L 114.371857 285.207729 
L 117.411769 284.815157 
L 120.451681 284.815157 
L 123.491593 284.422585 
L 126.531505 284.422585 
L 129.571417 284.815157 
L 132.611328 284.422585 
L 135.65124 284.815157 
L 138.691152 284.422585 
L 141.731064 284.030013 
L 144.770976 284.422585 
L 147.810888 284.422585 
L 150.8508 284.422585 
L 153.890712 284.030013 
L 156.930624 284.030013 
L 159.970536 284.030013 
L 163.010448 284.030013 
L 166.05036 283.637442 
L 169.090272 284.030013 
L 172.130184 283.637442 
L 175.170096 283.637442 
L 178.210008 283.24487 
L 181.24992 283.24487 
L 184.289832 283.637442 
L 187.329743 282.852298 
L 190.369655 282.852298 
L 193.409567 283.24487 
L 196.449479 282.852298 
L 199.489391 282.459726 
L 202.529303 282.459726 
L 205.569215 282.852298 
L 208.609127 282.852298 
L 211.649039 282.459726 
L 214.688951 282.852298 
L 217.728863 282.852298 
L 220.768775 282.459726 
L 223.808687 282.067154 
L 226.848599 282.067154 
L 229.888511 280.496867 
L 232.928423 282.067154 
L 235.968335 282.067154 
L 239.008247 282.067154 
L 242.048159 282.067154 
L 245.08807 281.674582 
L 248.127982 281.674582 
L 251.167894 281.674582 
L 254.207806 281.28201 
L 257.247718 281.28201 
L 260.28763 281.28201 
L 263.327542 281.28201 
L 266.367454 280.889439 
L 269.407366 280.889439 
L 272.447278 280.889439 
L 275.48719 280.889439 
L 278.527102 280.889439 
L 281.567014 280.889439 
L 284.606926 280.496867 
L 287.646838 280.104295 
L 290.68675 280.496867 
L 293.726662 280.889439 
L 296.766574 280.496867 
L 299.806485 280.496867 
L 302.846397 280.889439 
L 305.886309 280.496867 
L 308.926221 280.104295 
L 311.966133 280.104295 
L 315.006045 280.104295 
L 318.045957 280.104295 
L 321.085869 280.496867 
L 324.125781 280.104295 
L 327.165693 280.104295 
L 330.205605 279.711723 
L 333.245517 279.711723 
L 336.285429 280.104295 
L 339.325341 279.319151 
L 342.365253 278.926579 
L 345.405165 279.319151 
L 348.445077 279.319151 
L 351.484989 278.926579 
L 354.5249 279.319151 
L 357.564812 278.926579 
L 360.604724 278.534007 
L 363.644636 278.926579 
L 366.684548 278.926579 
L 369.72446 277.748864 
" clip-path="url(#p88dd0fb89c)" style="fill: none; stroke: #1f77b4; stroke-width: 1.5; stroke-linecap: square"/>
   </g>
   <g id="line2d_26">
    <path d="M 65.763665 288.348304 
L 66.037257 286.778016 
L 66.341248 284.815157 
L 66.645239 283.637442 
L 66.94923 282.852298 
L 67.253222 280.889439 
L 67.557213 279.711723 
L 67.861204 278.926579 
L 68.165195 277.748864 
L 68.469186 276.571148 
L 68.773178 275.786004 
L 71.81309 265.579136 
L 74.853001 261.653417 
L 77.892913 255.76484 
L 80.932825 251.053977 
L 83.972737 248.698546 
L 87.012649 243.987684 
L 90.052561 232.210528 
L 93.092473 238.491678 
L 96.132385 234.565959 
L 99.172297 231.817956 
L 102.212209 230.247669 
L 105.252121 228.284809 
L 108.292033 227.499666 
L 111.331945 216.507654 
L 114.371857 187.457336 
L 117.411769 216.900226 
L 120.451681 215.72251 
L 123.491593 215.329938 
L 126.531505 209.833932 
L 129.571417 209.833932 
L 132.611328 212.189363 
L 135.65124 209.048788 
L 138.691152 209.833932 
L 141.731064 205.12307 
L 144.770976 204.337926 
L 147.810888 206.300785 
L 150.8508 195.308773 
L 153.890712 198.449348 
L 156.930624 194.131058 
L 159.970536 194.131058 
L 163.010448 193.345914 
L 166.05036 191.383055 
L 169.090272 185.101905 
L 172.130184 185.101905 
L 175.170096 187.457336 
L 178.210008 184.709333 
L 181.24992 183.92419 
L 184.289832 175.68018 
L 187.329743 179.998471 
L 190.369655 176.857896 
L 193.409567 176.857896 
L 196.449479 176.465324 
L 199.489391 171.36189 
L 202.529303 174.502465 
L 205.569215 168.613887 
L 208.609127 173.717321 
L 211.649039 167.436171 
L 214.688951 169.791603 
L 217.728863 164.688168 
L 220.768775 164.295597 
L 223.808687 159.584734 
L 226.848599 164.295597 
L 229.888511 161.155022 
L 232.928423 150.16301 
L 235.968335 145.059576 
L 239.008247 163.117881 
L 242.048159 150.555582 
L 245.08807 150.16301 
L 248.127982 142.704144 
L 251.167894 147.415007 
L 254.207806 147.022435 
L 257.247718 145.059576 
L 260.28763 140.741285 
L 263.327542 140.348713 
L 266.367454 141.133857 
L 269.407366 133.28242 
L 272.447278 138.385854 
L 275.48719 135.637851 
L 278.527102 134.067564 
L 281.567014 132.497276 
L 284.606926 132.104704 
L 287.646838 130.534417 
L 290.68675 133.674992 
L 293.726662 129.356701 
L 296.766574 128.571557 
L 299.806485 130.141845 
L 302.846397 123.075551 
L 305.886309 127.393842 
L 308.926221 120.72012 
L 311.966133 123.075551 
L 315.006045 117.186974 
L 318.045957 114.831542 
L 321.085869 119.934977 
L 324.125781 125.823554 
L 327.165693 112.868683 
L 330.205605 109.728108 
L 333.245517 115.616686 
L 336.285429 82.248078 
L 339.325341 111.690968 
L 342.365253 111.298396 
L 345.405165 106.980105 
L 348.445077 97.950953 
L 351.484989 98.343524 
L 354.5249 106.587533 
L 357.564812 106.194962 
L 360.604724 103.83953 
L 363.644636 106.194962 
L 366.684548 103.446959 
L 369.72446 93.632662 
" clip-path="url(#p88dd0fb89c)" style="fill: none; stroke: #ff7f0e; stroke-width: 1.5; stroke-linecap: square"/>
   </g>
   <g id="patch_3">
    <path d="M 50.565625 304.44375 
L 50.565625 10.8 
" style="fill: none; stroke: #000000; stroke-width: 0.8; stroke-linejoin: miter; stroke-linecap: square"/>
   </g>
   <g id="patch_4">
    <path d="M 384.9225 304.44375 
L 384.9225 10.8 
" style="fill: none; stroke: #000000; stroke-width: 0.8; stroke-linejoin: miter; stroke-linecap: square"/>
   </g>
   <g id="patch_5">
    <path d="M 50.565625 304.44375 
L 384.9225 304.44375 
" style="fill: none; stroke: #000000; stroke-width: 0.8; stroke-linejoin: miter; stroke-linecap: square"/>
   </g>
   <g id="patch_6">
    <path d="M 50.565625 10.8 
L 384.9225 10.8 
" style="fill: none; stroke: #000000; stroke-width: 0.8; stroke-linejoin: miter; stroke-linecap: square"/>
   </g>
   <g id="text_17">
    <!-- trimou -->
    <g style="fill: #1f77b4" transform="translate(390.9225 285.45237) scale(0.08 -0.08)">
     <defs>
      <path id="DejaVuSans-6f" d="M 1959 3097 
Q 1497 3097 1228 2736 
Q 959 2375 959 1747 
Q 959 1119 1226 758 
Q 1494 397 1959 397 
Q 2419 397 2687 759 
Q 2956 1122 2956 1747 
Q 2956 2369 2687 2733 
Q 2419 3097 1959 3097 
z
M 1959 3584 
Q 2709 3584 3137 3096 
Q 3566 2609 3566 1747 
Q 3566 888 3137 398 
Q 2709 -91 1959 -91 
Q 1206 -91 779 398 
Q 353 888 353 1747 
Q 353 2609 779 3096 
Q 1206 3584 1959 3584 
z
" transform="scale(0.015625)"/>
     </defs>
     <use xlink:href="#DejaVuSans-74"/>
     <use xlink:href="#DejaVuSans-72" transform="translate(39.208984 0)"/>
     <use xlink:href="#DejaVuSans-69" transform="translate(80.322266 0)"/>
     <use xlink:href="#DejaVuSans-6d" transform="translate(108.105469 0)"/>
     <use xlink:href="#DejaVuSans-6f" transform="translate(205.517578 0)"/>
     <use xlink:href="#DejaVuSans-75" transform="translate(266.699219 0)"/>
    </g>
   </g>
   <g id="text_18">
    <!-- solomon -->
    <g style="fill: #e377c2" transform="translate(390.9225 277.993504) scale(0.08 -0.08)">
     <defs>
      <path id="DejaVuSans-6c" d="M 603 4863 
L 1178 4863 
L 1178 0 
L 603 0 
L 603 4863 
z
" transform="scale(0.015625)"/>
     </defs>
     <use xlink:href="#DejaVuSans-73"/>
     <use xlink:href="#DejaVuSans-6f" transform="translate(52.099609 0)"/>
     <use xlink:href="#DejaVuSans-6c" transform="translate(113.28125 0)"/>
     <use xlink:href="#DejaVuSans-6f" transform="translate(141.064453 0)"/>
     <use xlink:href="#DejaVuSans-6d" transform="translate(202.246094 0)"/>
     <use xlink:href="#DejaVuSans-6f" transform="translate(299.658203 0)"/>
     <use xlink:href="#DejaVuSans-6e" transform="translate(360.839844 0)"/>
    </g>
   </g>
   <g id="text_19">
    <!-- mustachej -->
    <g style="fill: #9467bd" transform="translate(390.9225 270.534639) scale(0.08 -0.08)">
     <defs>
      <path id="DejaVuSans-61" d="M 2194 1759 
Q 1497 1759 1228 1600 
Q 959 1441 959 1056 
Q 959 750 1161 570 
Q 1363 391 1709 391 
Q 2188 391 2477 730 
Q 2766 1069 2766 1631 
L 2766 1759 
L 2194 1759 
z
M 3341 1997 
L 3341 0 
L 2766 0 
L 2766 531 
Q 2569 213 2275 61 
Q 1981 -91 1556 -91 
Q 1019 -91 701 211 
Q 384 513 384 1019 
Q 384 1609 779 1909 
Q 1175 2209 1959 2209 
L 2766 2209 
L 2766 2266 
Q 2766 2663 2505 2880 
Q 2244 3097 1772 3097 
Q 1472 3097 1187 3025 
Q 903 2953 641 2809 
L 641 3341 
Q 956 3463 1253 3523 
Q 1550 3584 1831 3584 
Q 2591 3584 2966 3190 
Q 3341 2797 3341 1997 
z
" transform="scale(0.015625)"/>
      <path id="DejaVuSans-63" d="M 3122 3366 
L 3122 2828 
Q 2878 2963 2633 3030 
Q 2388 3097 2138 3097 
Q 1578 3097 1268 2742 
Q 959 2388 959 1747 
Q 959 1106 1268 751 
Q 1578 397 2138 397 
Q 2388 397 2633 464 
Q 2878 531 3122 666 
L 3122 134 
Q 2881 22 2623 -34 
Q 2366 -91 2075 -91 
Q 1284 -91 818 406 
Q 353 903 353 1747 
Q 353 2603 823 3093 
Q 1294 3584 2113 3584 
Q 2378 3584 2631 3529 
Q 2884 3475 3122 3366 
z
" transform="scale(0.015625)"/>
      <path id="DejaVuSans-68" d="M 3513 2113 
L 3513 0 
L 2938 0 
L 2938 2094 
Q 2938 2591 2744 2837 
Q 2550 3084 2163 3084 
Q 1697 3084 1428 2787 
Q 1159 2491 1159 1978 
L 1159 0 
L 581 0 
L 581 4863 
L 1159 4863 
L 1159 2956 
Q 1366 3272 1645 3428 
Q 1925 3584 2291 3584 
Q 2894 3584 3203 3211 
Q 3513 2838 3513 2113 
z
" transform="scale(0.015625)"/>
      <path id="DejaVuSans-6a" d="M 603 3500 
L 1178 3500 
L 1178 -63 
Q 1178 -731 923 -1031 
Q 669 -1331 103 -1331 
L -116 -1331 
L -116 -844 
L 38 -844 
Q 366 -844 484 -692 
Q 603 -541 603 -63 
L 603 3500 
z
M 603 4863 
L 1178 4863 
L 1178 4134 
L 603 4134 
L 603 4863 
z
" transform="scale(0.015625)"/>
     </defs>
     <use xlink:href="#DejaVuSans-6d"/>
     <use xlink:href="#DejaVuSans-75" transform="translate(97.412109 0)"/>
     <use xlink:href="#DejaVuSans-73" transform="translate(160.791016 0)"/>
     <use xlink:href="#DejaVuSans-74" transform="translate(212.890625 0)"/>
     <use xlink:href="#DejaVuSans-61" transform="translate(252.099609 0)"/>
     <use xlink:href="#DejaVuSans-63" transform="translate(313.378906 0)"/>
     <use xlink:href="#DejaVuSans-68" transform="translate(368.359375 0)"/>
     <use xlink:href="#DejaVuSans-65" transform="translate(431.738281 0)"/>
     <use xlink:href="#DejaVuSans-6a" transform="translate(493.261719 0)"/>
    </g>
   </g>
   <g id="text_20">
    <!-- pebble -->
    <g style="fill: #8c564b" transform="translate(390.9225 260.720343) scale(0.08 -0.08)">
     <defs>
      <path id="DejaVuSans-70" d="M 1159 525 
L 1159 -1331 
L 581 -1331 
L 581 3500 
L 1159 3500 
L 1159 2969 
Q 1341 3281 1617 3432 
Q 1894 3584 2278 3584 
Q 2916 3584 3314 3078 
Q 3713 2572 3713 1747 
Q 3713 922 3314 415 
Q 2916 -91 2278 -91 
Q 1894 -91 1617 61 
Q 1341 213 1159 525 
z
M 3116 1747 
Q 3116 2381 2855 2742 
Q 2594 3103 2138 3103 
Q 1681 3103 1420 2742 
Q 1159 2381 1159 1747 
Q 1159 1113 1420 752 
Q 1681 391 2138 391 
Q 2594 391 2855 752 
Q 3116 1113 3116 1747 
z
" transform="scale(0.015625)"/>
      <path id="DejaVuSans-62" d="M 3116 1747 
Q 3116 2381 2855 2742 
Q 2594 3103 2138 3103 
Q 1681 3103 1420 2742 
Q 1159 2381 1159 1747 
Q 1159 1113 1420 752 
Q 1681 391 2138 391 
Q 2594 391 2855 752 
Q 3116 1113 3116 1747 
z
M 1159 2969 
Q 1341 3281 1617 3432 
Q 1894 3584 2278 3584 
Q 2916 3584 3314 3078 
Q 3713 2572 3713 1747 
Q 3713 922 3314 415 
Q 2916 -91 2278 -91 
Q 1894 -91 1617 61 
Q 1341 213 1159 525 
L 1159 0 
L 581 0 
L 581 4863 
L 1159 4863 
L 1159 2969 
z
" transform="scale(0.015625)"/>
     </defs>
     <use xlink:href="#DejaVuSans-70"/>
     <use xlink:href="#DejaVuSans-65" transform="translate(63.476562 0)"/>
     <use xlink:href="#DejaVuSans-62" transform="translate(125 0)"/>
     <use xlink:href="#DejaVuSans-62" transform="translate(188.476562 0)"/>
     <use xlink:href="#DejaVuSans-6c" transform="translate(251.953125 0)"/>
     <use xlink:href="#DejaVuSans-65" transform="translate(279.736328 0)"/>
    </g>
   </g>
   <g id="text_21">
    <!-- handlebars -->
    <g style="fill: #ff7f0e" transform="translate(390.9225 253.261477) scale(0.08 -0.08)">
     <defs>
      <path id="DejaVuSans-64" d="M 2906 2969 
L 2906 4863 
L 3481 4863 
L 3481 0 
L 2906 0 
L 2906 525 
Q 2725 213 2448 61 
Q 2172 -91 1784 -91 
Q 1150 -91 751 415 
Q 353 922 353 1747 
Q 353 2572 751 3078 
Q 1150 3584 1784 3584 
Q 2172 3584 2448 3432 
Q 2725 3281 2906 2969 
z
M 947 1747 
Q 947 1113 1208 752 
Q 1469 391 1925 391 
Q 2381 391 2643 752 
Q 2906 1113 2906 1747 
Q 2906 2381 2643 2742 
Q 2381 3103 1925 3103 
Q 1469 3103 1208 2742 
Q 947 2381 947 1747 
z
" transform="scale(0.015625)"/>
     </defs>
     <use xlink:href="#DejaVuSans-68"/>
     <use xlink:href="#DejaVuSans-61" transform="translate(63.378906 0)"/>
     <use xlink:href="#DejaVuSans-6e" transform="translate(124.658203 0)"/>
     <use xlink:href="#DejaVuSans-64" transform="translate(188.037109 0)"/>
     <use xlink:href="#DejaVuSans-6c" transform="translate(251.513672 0)"/>
     <use xlink:href="#DejaVuSans-65" transform="translate(279.296875 0)"/>
     <use xlink:href="#DejaVuSans-62" transform="translate(340.820312 0)"/>
     <use xlink:href="#DejaVuSans-61" transform="translate(404.296875 0)"/>
     <use xlink:href="#DejaVuSans-72" transform="translate(465.576172 0)"/>
     <use xlink:href="#DejaVuSans-73" transform="translate(506.689453 0)"/>
    </g>
   </g>
   <g id="text_22">
    <!-- stringtree -->
    <g style="fill: #bcbd22" transform="translate(390.9225 234.418028) scale(0.08 -0.08)">
     <defs>
      <path id="DejaVuSans-67" d="M 2906 1791 
Q 2906 2416 2648 2759 
Q 2391 3103 1925 3103 
Q 1463 3103 1205 2759 
Q 947 2416 947 1791 
Q 947 1169 1205 825 
Q 1463 481 1925 481 
Q 2391 481 2648 825 
Q 2906 1169 2906 1791 
z
M 3481 434 
Q 3481 -459 3084 -895 
Q 2688 -1331 1869 -1331 
Q 1566 -1331 1297 -1286 
Q 1028 -1241 775 -1147 
L 775 -588 
Q 1028 -725 1275 -790 
Q 1522 -856 1778 -856 
Q 2344 -856 2625 -561 
Q 2906 -266 2906 331 
L 2906 616 
Q 2728 306 2450 153 
Q 2172 0 1784 0 
Q 1141 0 747 490 
Q 353 981 353 1791 
Q 353 2603 747 3093 
Q 1141 3584 1784 3584 
Q 2172 3584 2450 3431 
Q 2728 3278 2906 2969 
L 2906 3500 
L 3481 3500 
L 3481 434 
z
" transform="scale(0.015625)"/>
     </defs>
     <use xlink:href="#DejaVuSans-73"/>
     <use xlink:href="#DejaVuSans-74" transform="translate(52.099609 0)"/>
     <use xlink:href="#DejaVuSans-72" transform="translate(91.308594 0)"/>
     <use xlink:href="#DejaVuSans-69" transform="translate(132.421875 0)"/>
     <use xlink:href="#DejaVuSans-6e" transform="translate(160.205078 0)"/>
     <use xlink:href="#DejaVuSans-67" transform="translate(223.583984 0)"/>
     <use xlink:href="#DejaVuSans-74" transform="translate(287.060547 0)"/>
     <use xlink:href="#DejaVuSans-72" transform="translate(326.269531 0)"/>
     <use xlink:href="#DejaVuSans-65" transform="translate(365.132812 0)"/>
     <use xlink:href="#DejaVuSans-65" transform="translate(426.65625 0)"/>
    </g>
   </g>
   <g id="text_23">
    <!-- freemarker -->
    <g style="fill: #1f77b4" transform="translate(390.9225 226.959163) scale(0.08 -0.08)">
     <defs>
      <path id="DejaVuSans-66" d="M 2375 4863 
L 2375 4384 
L 1825 4384 
Q 1516 4384 1395 4259 
Q 1275 4134 1275 3809 
L 1275 3500 
L 2222 3500 
L 2222 3053 
L 1275 3053 
L 1275 0 
L 697 0 
L 697 3053 
L 147 3053 
L 147 3500 
L 697 3500 
L 697 3744 
Q 697 4328 969 4595 
Q 1241 4863 1831 4863 
L 2375 4863 
z
" transform="scale(0.015625)"/>
      <path id="DejaVuSans-6b" d="M 581 4863 
L 1159 4863 
L 1159 1991 
L 2875 3500 
L 3609 3500 
L 1753 1863 
L 3688 0 
L 2938 0 
L 1159 1709 
L 1159 0 
L 581 0 
L 581 4863 
z
" transform="scale(0.015625)"/>
     </defs>
     <use xlink:href="#DejaVuSans-66"/>
     <use xlink:href="#DejaVuSans-72" transform="translate(35.205078 0)"/>
     <use xlink:href="#DejaVuSans-65" transform="translate(74.068359 0)"/>
     <use xlink:href="#DejaVuSans-65" transform="translate(135.591797 0)"/>
     <use xlink:href="#DejaVuSans-6d" transform="translate(197.115234 0)"/>
     <use xlink:href="#DejaVuSans-61" transform="translate(294.527344 0)"/>
     <use xlink:href="#DejaVuSans-72" transform="translate(355.806641 0)"/>
     <use xlink:href="#DejaVuSans-6b" transform="translate(396.919922 0)"/>
     <use xlink:href="#DejaVuSans-65" transform="translate(451.205078 0)"/>
     <use xlink:href="#DejaVuSans-72" transform="translate(512.728516 0)"/>
    </g>
   </g>
   <g id="text_24">
    <!-- jangod -->
    <g style="fill: #2ca02c" transform="translate(390.9225 190.842552) scale(0.08 -0.08)">
     <use xlink:href="#DejaVuSans-6a"/>
     <use xlink:href="#DejaVuSans-61" transform="translate(27.783203 0)"/>
     <use xlink:href="#DejaVuSans-6e" transform="translate(89.0625 0)"/>
     <use xlink:href="#DejaVuSans-67" transform="translate(152.441406 0)"/>
     <use xlink:href="#DejaVuSans-6f" transform="translate(215.917969 0)"/>
     <use xlink:href="#DejaVuSans-64" transform="translate(277.099609 0)"/>
    </g>
   </g>
   <g id="text_25">
    <!-- thymeleaf -->
    <g style="fill: #17becf" transform="translate(390.9225 112.720752) scale(0.08 -0.08)">
     <defs>
      <path id="DejaVuSans-79" d="M 2059 -325 
Q 1816 -950 1584 -1140 
Q 1353 -1331 966 -1331 
L 506 -1331 
L 506 -850 
L 844 -850 
Q 1081 -850 1212 -737 
Q 1344 -625 1503 -206 
L 1606 56 
L 191 3500 
L 800 3500 
L 1894 763 
L 2988 3500 
L 3597 3500 
L 2059 -325 
z
" transform="scale(0.015625)"/>
     </defs>
     <use xlink:href="#DejaVuSans-74"/>
     <use xlink:href="#DejaVuSans-68" transform="translate(39.208984 0)"/>
     <use xlink:href="#DejaVuSans-79" transform="translate(102.587891 0)"/>
     <use xlink:href="#DejaVuSans-6d" transform="translate(161.767578 0)"/>
     <use xlink:href="#DejaVuSans-65" transform="translate(259.179688 0)"/>
     <use xlink:href="#DejaVuSans-6c" transform="translate(320.703125 0)"/>
     <use xlink:href="#DejaVuSans-65" transform="translate(348.486328 0)"/>
     <use xlink:href="#DejaVuSans-61" transform="translate(410.009766 0)"/>
     <use xlink:href="#DejaVuSans-66" transform="translate(471.289062 0)"/>
    </g>
   </g>
   <g id="text_26">
    <!-- velocity -->
    <g style="fill: #ff7f0e" transform="translate(390.9225 95.840162) scale(0.08 -0.08)">
     <defs>
      <path id="DejaVuSans-76" d="M 191 3500 
L 800 3500 
L 1894 563 
L 2988 3500 
L 3597 3500 
L 2284 0 
L 1503 0 
L 191 3500 
z
" transform="scale(0.015625)"/>
     </defs>
     <use xlink:href="#DejaVuSans-76"/>
     <use xlink:href="#DejaVuSans-65" transform="translate(59.179688 0)"/>
     <use xlink:href="#DejaVuSans-6c" transform="translate(120.703125 0)"/>
     <use xlink:href="#DejaVuSans-6f" transform="translate(148.486328 0)"/>
     <use xlink:href="#DejaVuSans-63" transform="translate(209.667969 0)"/>
     <use xlink:href="#DejaVuSans-69" transform="translate(264.648438 0)"/>
     <use xlink:href="#DejaVuSans-74" transform="translate(292.431641 0)"/>
     <use xlink:href="#DejaVuSans-79" transform="translate(331.640625 0)"/>
    </g>
   </g>
   <g id="text_27">
    <!-- stringtemplate -->
    <g style="fill: #7f7f7f" transform="translate(390.9225 68.752704) scale(0.08 -0.08)">
     <use xlink:href="#DejaVuSans-73"/>
     <use xlink:href="#DejaVuSans-74" transform="translate(52.099609 0)"/>
     <use xlink:href="#DejaVuSans-72" transform="translate(91.308594 0)"/>
     <use xlink:href="#DejaVuSans-69" transform="translate(132.421875 0)"/>
     <use xlink:href="#DejaVuSans-6e" transform="translate(160.205078 0)"/>
     <use xlink:href="#DejaVuSans-67" transform="translate(223.583984 0)"/>
     <use xlink:href="#DejaVuSans-74" transform="translate(287.060547 0)"/>
     <use xlink:href="#DejaVuSans-65" transform="translate(326.269531 0)"/>
     <use xlink:href="#DejaVuSans-6d" transform="translate(387.792969 0)"/>
     <use xlink:href="#DejaVuSans-70" transform="translate(485.205078 0)"/>
     <use xlink:href="#DejaVuSans-6c" transform="translate(548.681641 0)"/>
     <use xlink:href="#DejaVuSans-61" transform="translate(576.464844 0)"/>
     <use xlink:href="#DejaVuSans-74" transform="translate(637.744141 0)"/>
     <use xlink:href="#DejaVuSans-65" transform="translate(676.953125 0)"/>
    </g>
   </g>
   <g id="text_28">
    <!-- jte -->
    <g style="fill: #d62728" transform="translate(390.9225 40.094958) scale(0.08 -0.08)">
     <use xlink:href="#DejaVuSans-6a"/>
     <use xlink:href="#DejaVuSans-74" transform="translate(27.783203 0)"/>
     <use xlink:href="#DejaVuSans-65" transform="translate(66.992188 0)"/>
    </g>
   </g>
  </g>
 </g>
 <defs>
  <clipPath id="p88dd0fb89c">
   <rect x="50.565625" y="10.8" width="334.356875" height="293.64375"/>
  </clipPath>
 </defs>
</svg>
