<?xml version="1.0" encoding="utf-8" standalone="no"?>
<!DOCTYPE svg PUBLIC "-//W3C//DTD SVG 1.1//EN"
  "http://www.w3.org/Graphics/SVG/1.1/DTD/svg11.dtd">
<svg xmlns:xlink="http://www.w3.org/1999/xlink" width="460.8pt" height="345.6pt" viewBox="0 0 460.8 345.6" xmlns="http://www.w3.org/2000/svg" version="1.1">
 <metadata>
  <rdf:RDF xmlns:dc="http://purl.org/dc/elements/1.1/" xmlns:cc="http://creativecommons.org/ns#" xmlns:rdf="http://www.w3.org/1999/02/22-rdf-syntax-ns#">
   <cc:Work>
    <dc:type rdf:resource="http://purl.org/dc/dcmitype/StillImage"/>
    <dc:date>2025-04-13T17:19:49.912763</dc:date>
    <dc:format>image/svg+xml</dc:format>
    <dc:creator>
     <cc:Agent>
      <dc:title>Matplotlib v3.10.1, https://matplotlib.org/</dc:title>
     </cc:Agent>
    </dc:creator>
   </cc:Work>
  </rdf:RDF>
 </metadata>
 <defs>
  <style type="text/css">*{stroke-linejoin: round; stroke-linecap: butt}</style>
 </defs>
 <g id="figure_1">
  <g id="patch_1">
   <path d="M 0 345.6 
L 460.8 345.6 
L 460.8 0 
L 0 0 
z
" style="fill: #ffffff"/>
  </g>
  <g id="axes_1">
   <g id="patch_2">
    <path d="M 50.565625 304.44375 
L 384.9225 304.44375 
L 384.9225 10.8 
L 50.565625 10.8 
z
" style="fill: #ffffff"/>
   </g>
   <g id="matplotlib.axis_1">
    <g id="xtick_1">
     <g id="line2d_1">
      <defs>
       <path id="me337acf0ef" d="M 0 0 
L 0 3.5 
" style="stroke: #000000; stroke-width: 0.8"/>
      </defs>
      <g>
       <use xlink:href="#me337acf0ef" x="65.733266" y="304.44375" style="stroke: #000000; stroke-width: 0.8"/>
      </g>
     </g>
     <g id="text_1">
      <!-- 0 -->
      <g transform="translate(62.552016 319.042187) scale(0.1 -0.1)">
       <defs>
        <path id="DejaVuSans-30" d="M 2034 4250 
Q 1547 4250 1301 3770 
Q 1056 3291 1056 2328 
Q 1056 1369 1301 889 
Q 1547 409 2034 409 
Q 2525 409 2770 889 
Q 3016 1369 3016 2328 
Q 3016 3291 2770 3770 
Q 2525 4250 2034 4250 
z
M 2034 4750 
Q 2819 4750 3233 4129 
Q 3647 3509 3647 2328 
Q 3647 1150 3233 529 
Q 2819 -91 2034 -91 
Q 1250 -91 836 529 
Q 422 1150 422 2328 
Q 422 3509 836 4129 
Q 1250 4750 2034 4750 
z
" transform="scale(0.015625)"/>
       </defs>
       <use xlink:href="#DejaVuSans-30"/>
      </g>
     </g>
    </g>
    <g id="xtick_2">
     <g id="line2d_2">
      <g>
       <use xlink:href="#me337acf0ef" x="126.531505" y="304.44375" style="stroke: #000000; stroke-width: 0.8"/>
      </g>
     </g>
     <g id="text_2">
      <!-- 2000 -->
      <g transform="translate(113.806505 319.042187) scale(0.1 -0.1)">
       <defs>
        <path id="DejaVuSans-32" d="M 1228 531 
L 3431 531 
L 3431 0 
L 469 0 
L 469 531 
Q 828 903 1448 1529 
Q 2069 2156 2228 2338 
Q 2531 2678 2651 2914 
Q 2772 3150 2772 3378 
Q 2772 3750 2511 3984 
Q 2250 4219 1831 4219 
Q 1534 4219 1204 4116 
Q 875 4013 500 3803 
L 500 4441 
Q 881 4594 1212 4672 
Q 1544 4750 1819 4750 
Q 2544 4750 2975 4387 
Q 3406 4025 3406 3419 
Q 3406 3131 3298 2873 
Q 3191 2616 2906 2266 
Q 2828 2175 2409 1742 
Q 1991 1309 1228 531 
z
" transform="scale(0.015625)"/>
       </defs>
       <use xlink:href="#DejaVuSans-32"/>
       <use xlink:href="#DejaVuSans-30" transform="translate(63.623047 0)"/>
       <use xlink:href="#DejaVuSans-30" transform="translate(127.246094 0)"/>
       <use xlink:href="#DejaVuSans-30" transform="translate(190.869141 0)"/>
      </g>
     </g>
    </g>
    <g id="xtick_3">
     <g id="line2d_3">
      <g>
       <use xlink:href="#me337acf0ef" x="187.329743" y="304.44375" style="stroke: #000000; stroke-width: 0.8"/>
      </g>
     </g>
     <g id="text_3">
      <!-- 4000 -->
      <g transform="translate(174.604743 319.042187) scale(0.1 -0.1)">
       <defs>
        <path id="DejaVuSans-34" d="M 2419 4116 
L 825 1625 
L 2419 1625 
L 2419 4116 
z
M 2253 4666 
L 3047 4666 
L 3047 1625 
L 3713 1625 
L 3713 1100 
L 3047 1100 
L 3047 0 
L 2419 0 
L 2419 1100 
L 313 1100 
L 313 1709 
L 2253 4666 
z
" transform="scale(0.015625)"/>
       </defs>
       <use xlink:href="#DejaVuSans-34"/>
       <use xlink:href="#DejaVuSans-30" transform="translate(63.623047 0)"/>
       <use xlink:href="#DejaVuSans-30" transform="translate(127.246094 0)"/>
       <use xlink:href="#DejaVuSans-30" transform="translate(190.869141 0)"/>
      </g>
     </g>
    </g>
    <g id="xtick_4">
     <g id="line2d_4">
      <g>
       <use xlink:href="#me337acf0ef" x="248.127982" y="304.44375" style="stroke: #000000; stroke-width: 0.8"/>
      </g>
     </g>
     <g id="text_4">
      <!-- 6000 -->
      <g transform="translate(235.402982 319.042187) scale(0.1 -0.1)">
       <defs>
        <path id="DejaVuSans-36" d="M 2113 2584 
Q 1688 2584 1439 2293 
Q 1191 2003 1191 1497 
Q 1191 994 1439 701 
Q 1688 409 2113 409 
Q 2538 409 2786 701 
Q 3034 994 3034 1497 
Q 3034 2003 2786 2293 
Q 2538 2584 2113 2584 
z
M 3366 4563 
L 3366 3988 
Q 3128 4100 2886 4159 
Q 2644 4219 2406 4219 
Q 1781 4219 1451 3797 
Q 1122 3375 1075 2522 
Q 1259 2794 1537 2939 
Q 1816 3084 2150 3084 
Q 2853 3084 3261 2657 
Q 3669 2231 3669 1497 
Q 3669 778 3244 343 
Q 2819 -91 2113 -91 
Q 1303 -91 875 529 
Q 447 1150 447 2328 
Q 447 3434 972 4092 
Q 1497 4750 2381 4750 
Q 2619 4750 2861 4703 
Q 3103 4656 3366 4563 
z
" transform="scale(0.015625)"/>
       </defs>
       <use xlink:href="#DejaVuSans-36"/>
       <use xlink:href="#DejaVuSans-30" transform="translate(63.623047 0)"/>
       <use xlink:href="#DejaVuSans-30" transform="translate(127.246094 0)"/>
       <use xlink:href="#DejaVuSans-30" transform="translate(190.869141 0)"/>
      </g>
     </g>
    </g>
    <g id="xtick_5">
     <g id="line2d_5">
      <g>
       <use xlink:href="#me337acf0ef" x="308.926221" y="304.44375" style="stroke: #000000; stroke-width: 0.8"/>
      </g>
     </g>
     <g id="text_5">
      <!-- 8000 -->
      <g transform="translate(296.201221 319.042187) scale(0.1 -0.1)">
       <defs>
        <path id="DejaVuSans-38" d="M 2034 2216 
Q 1584 2216 1326 1975 
Q 1069 1734 1069 1313 
Q 1069 891 1326 650 
Q 1584 409 2034 409 
Q 2484 409 2743 651 
Q 3003 894 3003 1313 
Q 3003 1734 2745 1975 
Q 2488 2216 2034 2216 
z
M 1403 2484 
Q 997 2584 770 2862 
Q 544 3141 544 3541 
Q 544 4100 942 4425 
Q 1341 4750 2034 4750 
Q 2731 4750 3128 4425 
Q 3525 4100 3525 3541 
Q 3525 3141 3298 2862 
Q 3072 2584 2669 2484 
Q 3125 2378 3379 2068 
Q 3634 1759 3634 1313 
Q 3634 634 3220 271 
Q 2806 -91 2034 -91 
Q 1263 -91 848 271 
Q 434 634 434 1313 
Q 434 1759 690 2068 
Q 947 2378 1403 2484 
z
M 1172 3481 
Q 1172 3119 1398 2916 
Q 1625 2713 2034 2713 
Q 2441 2713 2670 2916 
Q 2900 3119 2900 3481 
Q 2900 3844 2670 4047 
Q 2441 4250 2034 4250 
Q 1625 4250 1398 4047 
Q 1172 3844 1172 3481 
z
" transform="scale(0.015625)"/>
       </defs>
       <use xlink:href="#DejaVuSans-38"/>
       <use xlink:href="#DejaVuSans-30" transform="translate(63.623047 0)"/>
       <use xlink:href="#DejaVuSans-30" transform="translate(127.246094 0)"/>
       <use xlink:href="#DejaVuSans-30" transform="translate(190.869141 0)"/>
      </g>
     </g>
    </g>
    <g id="xtick_6">
     <g id="line2d_6">
      <g>
       <use xlink:href="#me337acf0ef" x="369.72446" y="304.44375" style="stroke: #000000; stroke-width: 0.8"/>
      </g>
     </g>
     <g id="text_6">
      <!-- 10000 -->
      <g transform="translate(353.81821 319.042187) scale(0.1 -0.1)">
       <defs>
        <path id="DejaVuSans-31" d="M 794 531 
L 1825 531 
L 1825 4091 
L 703 3866 
L 703 4441 
L 1819 4666 
L 2450 4666 
L 2450 531 
L 3481 531 
L 3481 0 
L 794 0 
L 794 531 
z
" transform="scale(0.015625)"/>
       </defs>
       <use xlink:href="#DejaVuSans-31"/>
       <use xlink:href="#DejaVuSans-30" transform="translate(63.623047 0)"/>
       <use xlink:href="#DejaVuSans-30" transform="translate(127.246094 0)"/>
       <use xlink:href="#DejaVuSans-30" transform="translate(190.869141 0)"/>
       <use xlink:href="#DejaVuSans-30" transform="translate(254.492188 0)"/>
      </g>
     </g>
    </g>
    <g id="text_7">
     <!-- n runs -->
     <g transform="translate(201.988594 332.720312) scale(0.1 -0.1)">
      <defs>
       <path id="DejaVuSans-6e" d="M 3513 2113 
L 3513 0 
L 2938 0 
L 2938 2094 
Q 2938 2591 2744 2837 
Q 2550 3084 2163 3084 
Q 1697 3084 1428 2787 
Q 1159 2491 1159 1978 
L 1159 0 
L 581 0 
L 581 3500 
L 1159 3500 
L 1159 2956 
Q 1366 3272 1645 3428 
Q 1925 3584 2291 3584 
Q 2894 3584 3203 3211 
Q 3513 2838 3513 2113 
z
" transform="scale(0.015625)"/>
       <path id="DejaVuSans-20" transform="scale(0.015625)"/>
       <path id="DejaVuSans-72" d="M 2631 2963 
Q 2534 3019 2420 3045 
Q 2306 3072 2169 3072 
Q 1681 3072 1420 2755 
Q 1159 2438 1159 1844 
L 1159 0 
L 581 0 
L 581 3500 
L 1159 3500 
L 1159 2956 
Q 1341 3275 1631 3429 
Q 1922 3584 2338 3584 
Q 2397 3584 2469 3576 
Q 2541 3569 2628 3553 
L 2631 2963 
z
" transform="scale(0.015625)"/>
       <path id="DejaVuSans-75" d="M 544 1381 
L 544 3500 
L 1119 3500 
L 1119 1403 
Q 1119 906 1312 657 
Q 1506 409 1894 409 
Q 2359 409 2629 706 
Q 2900 1003 2900 1516 
L 2900 3500 
L 3475 3500 
L 3475 0 
L 2900 0 
L 2900 538 
Q 2691 219 2414 64 
Q 2138 -91 1772 -91 
Q 1169 -91 856 284 
Q 544 659 544 1381 
z
M 1991 3584 
L 1991 3584 
z
" transform="scale(0.015625)"/>
       <path id="DejaVuSans-73" d="M 2834 3397 
L 2834 2853 
Q 2591 2978 2328 3040 
Q 2066 3103 1784 3103 
Q 1356 3103 1142 2972 
Q 928 2841 928 2578 
Q 928 2378 1081 2264 
Q 1234 2150 1697 2047 
L 1894 2003 
Q 2506 1872 2764 1633 
Q 3022 1394 3022 966 
Q 3022 478 2636 193 
Q 2250 -91 1575 -91 
Q 1294 -91 989 -36 
Q 684 19 347 128 
L 347 722 
Q 666 556 975 473 
Q 1284 391 1588 391 
Q 1994 391 2212 530 
Q 2431 669 2431 922 
Q 2431 1156 2273 1281 
Q 2116 1406 1581 1522 
L 1381 1569 
Q 847 1681 609 1914 
Q 372 2147 372 2553 
Q 372 3047 722 3315 
Q 1072 3584 1716 3584 
Q 2034 3584 2315 3537 
Q 2597 3491 2834 3397 
z
" transform="scale(0.015625)"/>
      </defs>
      <use xlink:href="#DejaVuSans-6e"/>
      <use xlink:href="#DejaVuSans-20" transform="translate(63.378906 0)"/>
      <use xlink:href="#DejaVuSans-72" transform="translate(95.166016 0)"/>
      <use xlink:href="#DejaVuSans-75" transform="translate(136.279297 0)"/>
      <use xlink:href="#DejaVuSans-6e" transform="translate(199.658203 0)"/>
      <use xlink:href="#DejaVuSans-73" transform="translate(263.037109 0)"/>
     </g>
    </g>
   </g>
   <g id="matplotlib.axis_2">
    <g id="ytick_1">
     <g id="line2d_7">
      <defs>
       <path id="mcef8d074b5" d="M 0 0 
L -3.5 0 
" style="stroke: #000000; stroke-width: 0.8"/>
      </defs>
      <g>
       <use xlink:href="#mcef8d074b5" x="50.565625" y="291.522063" style="stroke: #000000; stroke-width: 0.8"/>
      </g>
     </g>
     <g id="text_8">
      <!-- 0 -->
      <g transform="translate(37.203125 295.321281) scale(0.1 -0.1)">
       <use xlink:href="#DejaVuSans-30"/>
      </g>
     </g>
    </g>
    <g id="ytick_2">
     <g id="line2d_8">
      <g>
       <use xlink:href="#mcef8d074b5" x="50.565625" y="248.946486" style="stroke: #000000; stroke-width: 0.8"/>
      </g>
     </g>
     <g id="text_9">
      <!-- 100 -->
      <g transform="translate(24.478125 252.745705) scale(0.1 -0.1)">
       <use xlink:href="#DejaVuSans-31"/>
       <use xlink:href="#DejaVuSans-30" transform="translate(63.623047 0)"/>
       <use xlink:href="#DejaVuSans-30" transform="translate(127.246094 0)"/>
      </g>
     </g>
    </g>
    <g id="ytick_3">
     <g id="line2d_9">
      <g>
       <use xlink:href="#mcef8d074b5" x="50.565625" y="206.37091" style="stroke: #000000; stroke-width: 0.8"/>
      </g>
     </g>
     <g id="text_10">
      <!-- 200 -->
      <g transform="translate(24.478125 210.170129) scale(0.1 -0.1)">
       <use xlink:href="#DejaVuSans-32"/>
       <use xlink:href="#DejaVuSans-30" transform="translate(63.623047 0)"/>
       <use xlink:href="#DejaVuSans-30" transform="translate(127.246094 0)"/>
      </g>
     </g>
    </g>
    <g id="ytick_4">
     <g id="line2d_10">
      <g>
       <use xlink:href="#mcef8d074b5" x="50.565625" y="163.795334" style="stroke: #000000; stroke-width: 0.8"/>
      </g>
     </g>
     <g id="text_11">
      <!-- 300 -->
      <g transform="translate(24.478125 167.594552) scale(0.1 -0.1)">
       <defs>
        <path id="DejaVuSans-33" d="M 2597 2516 
Q 3050 2419 3304 2112 
Q 3559 1806 3559 1356 
Q 3559 666 3084 287 
Q 2609 -91 1734 -91 
Q 1441 -91 1130 -33 
Q 819 25 488 141 
L 488 750 
Q 750 597 1062 519 
Q 1375 441 1716 441 
Q 2309 441 2620 675 
Q 2931 909 2931 1356 
Q 2931 1769 2642 2001 
Q 2353 2234 1838 2234 
L 1294 2234 
L 1294 2753 
L 1863 2753 
Q 2328 2753 2575 2939 
Q 2822 3125 2822 3475 
Q 2822 3834 2567 4026 
Q 2313 4219 1838 4219 
Q 1578 4219 1281 4162 
Q 984 4106 628 3988 
L 628 4550 
Q 988 4650 1302 4700 
Q 1616 4750 1894 4750 
Q 2613 4750 3031 4423 
Q 3450 4097 3450 3541 
Q 3450 3153 3228 2886 
Q 3006 2619 2597 2516 
z
" transform="scale(0.015625)"/>
       </defs>
       <use xlink:href="#DejaVuSans-33"/>
       <use xlink:href="#DejaVuSans-30" transform="translate(63.623047 0)"/>
       <use xlink:href="#DejaVuSans-30" transform="translate(127.246094 0)"/>
      </g>
     </g>
    </g>
    <g id="ytick_5">
     <g id="line2d_11">
      <g>
       <use xlink:href="#mcef8d074b5" x="50.565625" y="121.219757" style="stroke: #000000; stroke-width: 0.8"/>
      </g>
     </g>
     <g id="text_12">
      <!-- 400 -->
      <g transform="translate(24.478125 125.018976) scale(0.1 -0.1)">
       <use xlink:href="#DejaVuSans-34"/>
       <use xlink:href="#DejaVuSans-30" transform="translate(63.623047 0)"/>
       <use xlink:href="#DejaVuSans-30" transform="translate(127.246094 0)"/>
      </g>
     </g>
    </g>
    <g id="ytick_6">
     <g id="line2d_12">
      <g>
       <use xlink:href="#mcef8d074b5" x="50.565625" y="78.644181" style="stroke: #000000; stroke-width: 0.8"/>
      </g>
     </g>
     <g id="text_13">
      <!-- 500 -->
      <g transform="translate(24.478125 82.4434) scale(0.1 -0.1)">
       <defs>
        <path id="DejaVuSans-35" d="M 691 4666 
L 3169 4666 
L 3169 4134 
L 1269 4134 
L 1269 2991 
Q 1406 3038 1543 3061 
Q 1681 3084 1819 3084 
Q 2600 3084 3056 2656 
Q 3513 2228 3513 1497 
Q 3513 744 3044 326 
Q 2575 -91 1722 -91 
Q 1428 -91 1123 -41 
Q 819 9 494 109 
L 494 744 
Q 775 591 1075 516 
Q 1375 441 1709 441 
Q 2250 441 2565 725 
Q 2881 1009 2881 1497 
Q 2881 1984 2565 2268 
Q 2250 2553 1709 2553 
Q 1456 2553 1204 2497 
Q 953 2441 691 2322 
L 691 4666 
z
" transform="scale(0.015625)"/>
       </defs>
       <use xlink:href="#DejaVuSans-35"/>
       <use xlink:href="#DejaVuSans-30" transform="translate(63.623047 0)"/>
       <use xlink:href="#DejaVuSans-30" transform="translate(127.246094 0)"/>
      </g>
     </g>
    </g>
    <g id="ytick_7">
     <g id="line2d_13">
      <g>
       <use xlink:href="#mcef8d074b5" x="50.565625" y="36.068605" style="stroke: #000000; stroke-width: 0.8"/>
      </g>
     </g>
     <g id="text_14">
      <!-- 600 -->
      <g transform="translate(24.478125 39.867823) scale(0.1 -0.1)">
       <use xlink:href="#DejaVuSans-36"/>
       <use xlink:href="#DejaVuSans-30" transform="translate(63.623047 0)"/>
       <use xlink:href="#DejaVuSans-30" transform="translate(127.246094 0)"/>
      </g>
     </g>
    </g>
    <g id="text_15">
     <!-- time (ms) -->
     <g transform="translate(18.398438 181.883594) rotate(-90) scale(0.1 -0.1)">
      <defs>
       <path id="DejaVuSans-74" d="M 1172 4494 
L 1172 3500 
L 2356 3500 
L 2356 3053 
L 1172 3053 
L 1172 1153 
Q 1172 725 1289 603 
Q 1406 481 1766 481 
L 2356 481 
L 2356 0 
L 1766 0 
Q 1100 0 847 248 
Q 594 497 594 1153 
L 594 3053 
L 172 3053 
L 172 3500 
L 594 3500 
L 594 4494 
L 1172 4494 
z
" transform="scale(0.015625)"/>
       <path id="DejaVuSans-69" d="M 603 3500 
L 1178 3500 
L 1178 0 
L 603 0 
L 603 3500 
z
M 603 4863 
L 1178 4863 
L 1178 4134 
L 603 4134 
L 603 4863 
z
" transform="scale(0.015625)"/>
       <path id="DejaVuSans-6d" d="M 3328 2828 
Q 3544 3216 3844 3400 
Q 4144 3584 4550 3584 
Q 5097 3584 5394 3201 
Q 5691 2819 5691 2113 
L 5691 0 
L 5113 0 
L 5113 2094 
Q 5113 2597 4934 2840 
Q 4756 3084 4391 3084 
Q 3944 3084 3684 2787 
Q 3425 2491 3425 1978 
L 3425 0 
L 2847 0 
L 2847 2094 
Q 2847 2600 2669 2842 
Q 2491 3084 2119 3084 
Q 1678 3084 1418 2786 
Q 1159 2488 1159 1978 
L 1159 0 
L 581 0 
L 581 3500 
L 1159 3500 
L 1159 2956 
Q 1356 3278 1631 3431 
Q 1906 3584 2284 3584 
Q 2666 3584 2933 3390 
Q 3200 3197 3328 2828 
z
" transform="scale(0.015625)"/>
       <path id="DejaVuSans-65" d="M 3597 1894 
L 3597 1613 
L 953 1613 
Q 991 1019 1311 708 
Q 1631 397 2203 397 
Q 2534 397 2845 478 
Q 3156 559 3463 722 
L 3463 178 
Q 3153 47 2828 -22 
Q 2503 -91 2169 -91 
Q 1331 -91 842 396 
Q 353 884 353 1716 
Q 353 2575 817 3079 
Q 1281 3584 2069 3584 
Q 2775 3584 3186 3129 
Q 3597 2675 3597 1894 
z
M 3022 2063 
Q 3016 2534 2758 2815 
Q 2500 3097 2075 3097 
Q 1594 3097 1305 2825 
Q 1016 2553 972 2059 
L 3022 2063 
z
" transform="scale(0.015625)"/>
       <path id="DejaVuSans-28" d="M 1984 4856 
Q 1566 4138 1362 3434 
Q 1159 2731 1159 2009 
Q 1159 1288 1364 580 
Q 1569 -128 1984 -844 
L 1484 -844 
Q 1016 -109 783 600 
Q 550 1309 550 2009 
Q 550 2706 781 3412 
Q 1013 4119 1484 4856 
L 1984 4856 
z
" transform="scale(0.015625)"/>
       <path id="DejaVuSans-29" d="M 513 4856 
L 1013 4856 
Q 1481 4119 1714 3412 
Q 1947 2706 1947 2009 
Q 1947 1309 1714 600 
Q 1481 -109 1013 -844 
L 513 -844 
Q 928 -128 1133 580 
Q 1338 1288 1338 2009 
Q 1338 2731 1133 3434 
Q 928 4138 513 4856 
z
" transform="scale(0.015625)"/>
      </defs>
      <use xlink:href="#DejaVuSans-74"/>
      <use xlink:href="#DejaVuSans-69" transform="translate(39.208984 0)"/>
      <use xlink:href="#DejaVuSans-6d" transform="translate(66.992188 0)"/>
      <use xlink:href="#DejaVuSans-65" transform="translate(164.404297 0)"/>
      <use xlink:href="#DejaVuSans-20" transform="translate(225.927734 0)"/>
      <use xlink:href="#DejaVuSans-28" transform="translate(257.714844 0)"/>
      <use xlink:href="#DejaVuSans-6d" transform="translate(296.728516 0)"/>
      <use xlink:href="#DejaVuSans-73" transform="translate(394.140625 0)"/>
      <use xlink:href="#DejaVuSans-29" transform="translate(446.240234 0)"/>
     </g>
    </g>
   </g>
   <g id="line2d_14">
    <path d="M 65.763665 271.511542 
L 66.037257 271.511542 
L 66.341248 270.234274 
L 66.645239 270.66003 
L 66.94923 270.234274 
L 67.253222 270.234274 
L 67.557213 270.234274 
L 67.861204 269.808519 
L 68.165195 269.382763 
L 68.469186 269.382763 
L 68.773178 268.957007 
L 71.81309 267.253984 
L 74.853001 264.699449 
L 77.892913 263.422182 
L 80.932825 262.570671 
L 83.972737 260.867648 
L 87.012649 259.164625 
L 90.052561 258.738869 
L 93.092473 257.887357 
L 96.132385 257.035846 
L 99.172297 255.758578 
L 102.212209 254.481311 
L 105.252121 253.6298 
L 108.292033 254.055555 
L 111.331945 253.6298 
L 114.371857 252.352532 
L 117.411769 251.501021 
L 120.451681 251.926777 
L 123.491593 251.075265 
L 126.531505 247.669219 
L 129.571417 248.094975 
L 132.611328 247.669219 
L 135.65124 246.817707 
L 138.691152 246.817707 
L 141.731064 246.391952 
L 144.770976 245.114684 
L 147.810888 243.837417 
L 150.8508 245.114684 
L 153.890712 245.54044 
L 156.930624 245.54044 
L 159.970536 245.114684 
L 163.010448 244.263173 
L 166.05036 244.688929 
L 169.090272 244.688929 
L 172.130184 243.837417 
L 175.170096 243.837417 
L 178.210008 241.708638 
L 181.24992 242.134394 
L 184.289832 242.985906 
L 187.329743 242.985906 
L 190.369655 240.857127 
L 193.409567 242.134394 
L 196.449479 242.56015 
L 199.489391 242.134394 
L 202.529303 241.708638 
L 205.569215 242.134394 
L 208.609127 240.857127 
L 211.649039 241.282883 
L 214.688951 241.282883 
L 217.728863 241.282883 
L 220.768775 240.431371 
L 223.808687 240.431371 
L 226.848599 239.579859 
L 229.888511 240.431371 
L 232.928423 240.431371 
L 235.968335 240.857127 
L 239.008247 238.728348 
L 242.048159 239.579859 
L 245.08807 239.154104 
L 248.127982 239.154104 
L 251.167894 239.579859 
L 254.207806 239.154104 
L 257.247718 237.451081 
L 260.28763 238.728348 
L 263.327542 238.302592 
L 266.367454 238.302592 
L 269.407366 238.302592 
L 272.447278 236.599569 
L 275.48719 237.876836 
L 278.527102 236.599569 
L 281.567014 236.599569 
L 284.606926 236.599569 
L 287.646838 236.599569 
L 290.68675 237.451081 
L 293.726662 236.173813 
L 296.766574 237.025325 
L 299.806485 235.748058 
L 302.846397 235.748058 
L 305.886309 235.748058 
L 308.926221 235.322302 
L 311.966133 234.47079 
L 315.006045 235.748058 
L 318.045957 232.342011 
L 321.085869 234.896546 
L 324.125781 233.193523 
L 327.165693 234.47079 
L 330.205605 234.896546 
L 333.245517 234.045035 
L 336.285429 233.619279 
L 339.325341 233.619279 
L 342.365253 232.767767 
L 345.405165 234.045035 
L 348.445077 231.064744 
L 351.484989 233.193523 
L 354.5249 231.916256 
L 357.564812 232.767767 
L 360.604724 232.342011 
L 363.644636 232.767767 
L 366.684548 232.767767 
L 369.72446 230.213233 
" clip-path="url(#p50f491a287)" style="fill: none; stroke: #1f77b4; stroke-width: 1.5; stroke-linecap: square"/>
   </g>
   <g id="line2d_15">
    <path d="M 65.763665 288.541772 
L 66.037257 288.541772 
L 66.341248 288.116016 
L 66.645239 287.690261 
L 66.94923 287.690261 
L 67.253222 287.690261 
L 67.557213 287.264505 
L 67.861204 287.264505 
L 68.165195 286.838749 
L 68.469186 286.838749 
L 68.773178 286.412993 
L 71.81309 284.70997 
L 74.853001 283.432703 
L 77.892913 282.155436 
L 80.932825 281.303924 
L 83.972737 280.452413 
L 87.012649 277.897878 
L 90.052561 277.472122 
L 93.092473 276.194855 
L 96.132385 275.769099 
L 99.172297 276.194855 
L 102.212209 275.343344 
L 105.252121 275.769099 
L 108.292033 274.917588 
L 111.331945 271.937297 
L 114.371857 274.917588 
L 117.411769 274.066076 
L 120.451681 273.640321 
L 123.491593 274.066076 
L 126.531505 273.214565 
L 129.571417 272.788809 
L 132.611328 273.214565 
L 135.65124 273.214565 
L 138.691152 273.214565 
L 141.731064 272.788809 
L 144.770976 272.363053 
L 147.810888 271.937297 
L 150.8508 271.511542 
L 153.890712 271.937297 
L 156.930624 270.66003 
L 159.970536 270.234274 
L 163.010448 269.808519 
L 166.05036 269.382763 
L 169.090272 269.382763 
L 172.130184 268.531251 
L 175.170096 268.957007 
L 178.210008 268.531251 
L 181.24992 268.531251 
L 184.289832 268.105496 
L 187.329743 268.105496 
L 190.369655 267.67974 
L 193.409567 267.253984 
L 196.449479 267.253984 
L 199.489391 267.253984 
L 202.529303 267.253984 
L 205.569215 265.976717 
L 208.609127 266.402473 
L 211.649039 266.402473 
L 214.688951 265.976717 
L 217.728863 265.976717 
L 220.768775 265.125205 
L 223.808687 265.976717 
L 226.848599 264.699449 
L 229.888511 264.699449 
L 232.928423 264.699449 
L 235.968335 264.699449 
L 239.008247 263.847938 
L 242.048159 263.847938 
L 245.08807 264.273694 
L 248.127982 263.422182 
L 251.167894 263.422182 
L 254.207806 262.570671 
L 257.247718 262.996426 
L 260.28763 262.144915 
L 263.327542 262.144915 
L 266.367454 262.144915 
L 269.407366 262.144915 
L 272.447278 262.570671 
L 275.48719 261.293403 
L 278.527102 261.293403 
L 281.567014 260.016136 
L 284.606926 260.016136 
L 287.646838 260.441892 
L 290.68675 261.293403 
L 293.726662 260.867648 
L 296.766574 260.441892 
L 299.806485 260.016136 
L 302.846397 259.59038 
L 305.886309 258.738869 
L 308.926221 257.461602 
L 311.966133 259.59038 
L 315.006045 259.59038 
L 318.045957 258.738869 
L 321.085869 258.738869 
L 324.125781 258.313113 
L 327.165693 257.887357 
L 330.205605 256.61009 
L 333.245517 257.461602 
L 336.285429 257.461602 
L 339.325341 256.61009 
L 342.365253 256.61009 
L 345.405165 255.332823 
L 348.445077 256.184334 
L 351.484989 255.332823 
L 354.5249 256.61009 
L 357.564812 255.332823 
L 360.604724 255.332823 
L 363.644636 255.332823 
L 366.684548 255.332823 
L 369.72446 254.481311 
" clip-path="url(#p50f491a287)" style="fill: none; stroke: #ff7f0e; stroke-width: 1.5; stroke-linecap: square"/>
   </g>
   <g id="line2d_16">
    <path d="M 65.763665 284.284215 
L 66.037257 283.858459 
L 66.341248 283.858459 
L 66.645239 283.432703 
L 66.94923 282.581192 
L 67.253222 282.155436 
L 67.557213 282.581192 
L 67.861204 281.72968 
L 68.165195 281.72968 
L 68.469186 281.303924 
L 68.773178 281.303924 
L 71.81309 277.897878 
L 74.853001 275.343344 
L 77.892913 273.640321 
L 80.932825 271.085786 
L 83.972737 269.382763 
L 87.012649 268.105496 
L 90.052561 266.828228 
L 93.092473 263.422182 
L 96.132385 263.422182 
L 99.172297 262.144915 
L 102.212209 261.293403 
L 105.252121 260.016136 
L 108.292033 259.164625 
L 111.331945 256.61009 
L 114.371857 256.61009 
L 117.411769 255.332823 
L 120.451681 254.907067 
L 123.491593 254.481311 
L 126.531505 253.204044 
L 129.571417 252.778288 
L 132.611328 251.501021 
L 135.65124 251.075265 
L 138.691152 249.797998 
L 141.731064 248.52073 
L 144.770976 248.094975 
L 147.810888 245.966196 
L 150.8508 245.54044 
L 153.890712 245.114684 
L 156.930624 243.411661 
L 159.970536 242.134394 
L 163.010448 242.134394 
L 166.05036 242.134394 
L 169.090272 241.282883 
L 172.130184 239.579859 
L 175.170096 240.005615 
L 178.210008 239.154104 
L 181.24992 237.025325 
L 184.289832 236.599569 
L 187.329743 236.173813 
L 190.369655 234.47079 
L 193.409567 234.47079 
L 196.449479 234.045035 
L 199.489391 232.767767 
L 202.529303 232.342011 
L 205.569215 230.213233 
L 208.609127 228.51021 
L 211.649039 228.084454 
L 214.688951 227.232942 
L 217.728863 226.381431 
L 220.768775 225.529919 
L 223.808687 225.529919 
L 226.848599 224.678408 
L 229.888511 223.826896 
L 232.928423 222.975385 
L 235.968335 222.123873 
L 239.008247 220.846606 
L 242.048159 219.995094 
L 245.08807 219.143583 
L 248.127982 218.717827 
L 251.167894 217.44056 
L 254.207806 216.589048 
L 257.247718 216.589048 
L 260.28763 214.886025 
L 263.327542 214.460269 
L 266.367454 212.757246 
L 269.407366 214.034514 
L 272.447278 211.054223 
L 275.48719 211.479979 
L 278.527102 209.776956 
L 281.567014 209.776956 
L 284.606926 208.499689 
L 287.646838 207.648177 
L 290.68675 205.519398 
L 293.726662 206.37091 
L 296.766574 205.519398 
L 299.806485 205.945154 
L 302.846397 202.964864 
L 305.886309 203.39062 
L 308.926221 202.539108 
L 311.966133 199.558818 
L 315.006045 200.836085 
L 318.045957 200.410329 
L 321.085869 199.133062 
L 324.125781 199.558818 
L 327.165693 198.707306 
L 330.205605 197.004283 
L 333.245517 197.004283 
L 336.285429 195.727016 
L 339.325341 194.875504 
L 342.365253 194.449749 
L 345.405165 193.172481 
L 348.445077 191.895214 
L 351.484989 191.895214 
L 354.5249 191.469458 
L 357.564812 190.617947 
L 360.604724 188.489168 
L 363.644636 185.934633 
L 366.684548 187.211901 
L 369.72446 187.211901 
" clip-path="url(#p50f491a287)" style="fill: none; stroke: #2ca02c; stroke-width: 1.5; stroke-linecap: square"/>
   </g>
   <g id="line2d_17">
    <path d="M 65.763665 48.841277 
L 66.037257 46.286743 
L 66.341248 45.860987 
L 66.645239 46.286743 
L 66.94923 44.157964 
L 67.253222 45.860987 
L 67.557213 46.712499 
L 67.861204 44.58372 
L 68.165195 44.157964 
L 68.469186 45.860987 
L 68.773178 43.732208 
L 71.81309 37.771628 
L 74.853001 43.732208 
L 77.892913 32.662558 
L 80.932825 42.029185 
L 83.972737 42.454941 
L 87.012649 37.771628 
L 90.052561 30.959535 
L 93.092473 39.474651 
L 96.132385 40.751918 
L 99.172297 36.49436 
L 102.212209 35.642849 
L 105.252121 33.939826 
L 108.292033 36.49436 
L 111.331945 33.51407 
L 114.371857 35.217093 
L 117.411769 37.345872 
L 120.451681 38.623139 
L 123.491593 37.345872 
L 126.531505 36.920116 
L 129.571417 36.49436 
L 132.611328 35.642849 
L 135.65124 38.623139 
L 138.691152 36.920116 
L 141.731064 34.791337 
L 144.770976 36.068605 
L 147.810888 33.939826 
L 150.8508 36.068605 
L 153.890712 38.197383 
L 156.930624 34.791337 
L 159.970536 32.662558 
L 163.010448 36.920116 
L 166.05036 36.068605 
L 169.090272 36.068605 
L 172.130184 30.959535 
L 175.170096 35.217093 
L 178.210008 33.939826 
L 181.24992 36.49436 
L 184.289832 35.642849 
L 187.329743 34.791337 
L 190.369655 32.236803 
L 193.409567 34.365582 
L 196.449479 34.365582 
L 199.489391 31.385291 
L 202.529303 31.385291 
L 205.569215 35.642849 
L 208.609127 34.791337 
L 211.649039 32.236803 
L 214.688951 27.979245 
L 217.728863 33.51407 
L 220.768775 26.701978 
L 223.808687 33.088314 
L 226.848599 26.701978 
L 229.888511 28.830757 
L 232.928423 32.236803 
L 235.968335 33.51407 
L 239.008247 33.939826 
L 242.048159 28.830757 
L 245.08807 31.385291 
L 248.127982 31.811047 
L 251.167894 30.959535 
L 254.207806 31.811047 
L 257.247718 30.108024 
L 260.28763 29.682268 
L 263.327542 30.959535 
L 266.367454 30.108024 
L 269.407366 30.108024 
L 272.447278 27.979245 
L 275.48719 28.830757 
L 278.527102 29.256512 
L 281.567014 27.553489 
L 284.606926 28.830757 
L 287.646838 27.979245 
L 290.68675 30.959535 
L 293.726662 32.236803 
L 296.766574 30.53378 
L 299.806485 32.662558 
L 302.846397 27.553489 
L 305.886309 29.682268 
L 308.926221 28.405001 
L 311.966133 30.959535 
L 315.006045 29.682268 
L 318.045957 30.53378 
L 321.085869 29.682268 
L 324.125781 27.553489 
L 327.165693 29.682268 
L 330.205605 29.256512 
L 333.245517 29.682268 
L 336.285429 27.553489 
L 339.325341 26.276222 
L 342.365253 28.405001 
L 345.405165 27.553489 
L 348.445077 28.830757 
L 351.484989 28.405001 
L 354.5249 29.256512 
L 357.564812 24.573199 
L 360.604724 24.147443 
L 363.644636 26.701978 
L 366.684548 26.701978 
L 369.72446 25.850466 
" clip-path="url(#p50f491a287)" style="fill: none; stroke: #d62728; stroke-width: 1.5; stroke-linecap: square"/>
   </g>
   <g id="line2d_18">
    <path d="M 65.763665 290.670551 
L 66.037257 289.393284 
L 66.341248 289.393284 
L 66.645239 288.967528 
L 66.94923 288.967528 
L 67.253222 288.967528 
L 67.557213 288.541772 
L 67.861204 288.541772 
L 68.165195 288.541772 
L 68.469186 288.116016 
L 68.773178 288.116016 
L 71.81309 286.412993 
L 74.853001 285.987238 
L 77.892913 285.135726 
L 80.932825 284.284215 
L 83.972737 283.432703 
L 87.012649 283.006947 
L 90.052561 282.581192 
L 93.092473 282.155436 
L 96.132385 281.72968 
L 99.172297 281.303924 
L 102.212209 281.303924 
L 105.252121 281.303924 
L 108.292033 280.026657 
L 111.331945 279.600901 
L 114.371857 280.026657 
L 117.411769 280.026657 
L 120.451681 279.600901 
L 123.491593 279.600901 
L 126.531505 278.74939 
L 129.571417 279.175145 
L 132.611328 278.323634 
L 135.65124 278.74939 
L 138.691152 278.323634 
L 141.731064 278.323634 
L 144.770976 277.046367 
L 147.810888 277.472122 
L 150.8508 277.897878 
L 153.890712 278.323634 
L 156.930624 277.472122 
L 159.970536 277.046367 
L 163.010448 277.046367 
L 166.05036 276.620611 
L 169.090272 277.046367 
L 172.130184 276.620611 
L 175.170096 276.620611 
L 178.210008 276.194855 
L 181.24992 275.769099 
L 184.289832 276.194855 
L 187.329743 276.194855 
L 190.369655 275.343344 
L 193.409567 275.769099 
L 196.449479 275.769099 
L 199.489391 274.917588 
L 202.529303 275.343344 
L 205.569215 274.917588 
L 208.609127 274.491832 
L 211.649039 274.491832 
L 214.688951 274.491832 
L 217.728863 274.491832 
L 220.768775 274.491832 
L 223.808687 274.066076 
L 226.848599 274.066076 
L 229.888511 273.640321 
L 232.928423 272.788809 
L 235.968335 273.640321 
L 239.008247 272.788809 
L 242.048159 273.214565 
L 245.08807 272.788809 
L 248.127982 272.363053 
L 251.167894 272.788809 
L 254.207806 272.363053 
L 257.247718 271.937297 
L 260.28763 271.937297 
L 263.327542 271.937297 
L 266.367454 271.511542 
L 269.407366 271.511542 
L 272.447278 271.511542 
L 275.48719 271.511542 
L 278.527102 271.085786 
L 281.567014 271.085786 
L 284.606926 271.085786 
L 287.646838 270.234274 
L 290.68675 270.66003 
L 293.726662 269.382763 
L 296.766574 270.234274 
L 299.806485 270.234274 
L 302.846397 270.234274 
L 305.886309 270.234274 
L 308.926221 270.234274 
L 311.966133 269.808519 
L 315.006045 269.382763 
L 318.045957 269.382763 
L 321.085869 269.382763 
L 324.125781 268.957007 
L 327.165693 268.531251 
L 330.205605 268.105496 
L 333.245517 268.531251 
L 336.285429 267.67974 
L 339.325341 268.531251 
L 342.365253 268.105496 
L 345.405165 268.105496 
L 348.445077 268.105496 
L 351.484989 266.828228 
L 354.5249 267.67974 
L 357.564812 267.253984 
L 360.604724 265.976717 
L 363.644636 267.253984 
L 366.684548 264.699449 
L 369.72446 266.828228 
" clip-path="url(#p50f491a287)" style="fill: none; stroke: #9467bd; stroke-width: 1.5; stroke-linecap: square"/>
   </g>
   <g id="line2d_19">
    <path d="M 65.763665 283.432703 
L 66.037257 283.006947 
L 66.341248 283.006947 
L 66.645239 282.581192 
L 66.94923 282.581192 
L 67.253222 282.581192 
L 67.557213 282.155436 
L 67.861204 282.155436 
L 68.165195 282.155436 
L 68.469186 281.72968 
L 68.773178 281.72968 
L 71.81309 280.026657 
L 74.853001 279.175145 
L 77.892913 277.472122 
L 80.932825 277.046367 
L 83.972737 276.194855 
L 87.012649 275.343344 
L 90.052561 274.917588 
L 93.092473 273.640321 
L 96.132385 274.066076 
L 99.172297 273.214565 
L 102.212209 273.214565 
L 105.252121 272.788809 
L 108.292033 268.531251 
L 111.331945 271.937297 
L 114.371857 272.363053 
L 117.411769 271.937297 
L 120.451681 272.363053 
L 123.491593 270.66003 
L 126.531505 271.511542 
L 129.571417 271.085786 
L 132.611328 270.66003 
L 135.65124 270.66003 
L 138.691152 270.234274 
L 141.731064 270.66003 
L 144.770976 270.234274 
L 147.810888 270.66003 
L 150.8508 270.234274 
L 153.890712 270.234274 
L 156.930624 269.382763 
L 159.970536 269.808519 
L 163.010448 269.808519 
L 166.05036 269.808519 
L 169.090272 268.957007 
L 172.130184 269.382763 
L 175.170096 269.382763 
L 178.210008 269.382763 
L 181.24992 268.957007 
L 184.289832 268.957007 
L 187.329743 268.957007 
L 190.369655 268.105496 
L 193.409567 268.105496 
L 196.449479 268.105496 
L 199.489391 268.531251 
L 202.529303 268.105496 
L 205.569215 268.105496 
L 208.609127 266.828228 
L 211.649039 267.67974 
L 214.688951 267.253984 
L 217.728863 267.67974 
L 220.768775 267.253984 
L 223.808687 267.253984 
L 226.848599 267.67974 
L 229.888511 267.253984 
L 232.928423 267.253984 
L 235.968335 266.828228 
L 239.008247 267.67974 
L 242.048159 267.253984 
L 245.08807 266.828228 
L 248.127982 266.402473 
L 251.167894 266.828228 
L 254.207806 265.976717 
L 257.247718 266.402473 
L 260.28763 263.847938 
L 263.327542 264.699449 
L 266.367454 264.699449 
L 269.407366 264.273694 
L 272.447278 264.273694 
L 275.48719 263.847938 
L 278.527102 264.273694 
L 281.567014 264.273694 
L 284.606926 263.847938 
L 287.646838 263.422182 
L 290.68675 262.570671 
L 293.726662 263.422182 
L 296.766574 261.719159 
L 299.806485 263.422182 
L 302.846397 262.570671 
L 305.886309 263.847938 
L 308.926221 262.996426 
L 311.966133 262.996426 
L 315.006045 263.422182 
L 318.045957 262.996426 
L 321.085869 262.144915 
L 324.125781 262.996426 
L 327.165693 262.144915 
L 330.205605 260.867648 
L 333.245517 261.719159 
L 336.285429 262.996426 
L 339.325341 261.719159 
L 342.365253 262.144915 
L 345.405165 262.144915 
L 348.445077 261.719159 
L 351.484989 261.719159 
L 354.5249 262.144915 
L 357.564812 262.144915 
L 360.604724 261.293403 
L 363.644636 261.719159 
L 366.684548 261.719159 
L 369.72446 260.441892 
" clip-path="url(#p50f491a287)" style="fill: none; stroke: #8c564b; stroke-width: 1.5; stroke-linecap: square"/>
   </g>
   <g id="line2d_20">
    <path d="M 65.763665 288.541772 
L 66.037257 288.541772 
L 66.341248 288.116016 
L 66.645239 288.541772 
L 66.94923 288.116016 
L 67.253222 288.116016 
L 67.557213 288.116016 
L 67.861204 288.116016 
L 68.165195 288.116016 
L 68.469186 288.116016 
L 68.773178 287.690261 
L 71.81309 287.264505 
L 74.853001 286.412993 
L 77.892913 285.987238 
L 80.932825 285.561482 
L 83.972737 285.135726 
L 87.012649 284.70997 
L 90.052561 284.284215 
L 93.092473 283.858459 
L 96.132385 284.284215 
L 99.172297 283.858459 
L 102.212209 284.284215 
L 105.252121 283.858459 
L 108.292033 283.432703 
L 111.331945 283.432703 
L 114.371857 283.432703 
L 117.411769 283.432703 
L 120.451681 283.006947 
L 123.491593 283.006947 
L 126.531505 283.006947 
L 129.571417 283.006947 
L 132.611328 283.006947 
L 135.65124 282.581192 
L 138.691152 282.581192 
L 141.731064 282.581192 
L 144.770976 282.155436 
L 147.810888 282.581192 
L 150.8508 282.155436 
L 153.890712 282.155436 
L 156.930624 282.155436 
L 159.970536 282.155436 
L 163.010448 282.155436 
L 166.05036 281.72968 
L 169.090272 281.72968 
L 172.130184 281.72968 
L 175.170096 281.72968 
L 178.210008 281.72968 
L 181.24992 281.303924 
L 184.289832 281.303924 
L 187.329743 281.303924 
L 190.369655 280.878168 
L 193.409567 280.026657 
L 196.449479 280.878168 
L 199.489391 280.878168 
L 202.529303 280.878168 
L 205.569215 280.026657 
L 208.609127 280.878168 
L 211.649039 280.878168 
L 214.688951 280.026657 
L 217.728863 280.452413 
L 220.768775 280.452413 
L 223.808687 280.026657 
L 226.848599 280.026657 
L 229.888511 280.026657 
L 232.928423 280.452413 
L 235.968335 279.175145 
L 239.008247 280.026657 
L 242.048159 279.600901 
L 245.08807 279.600901 
L 248.127982 279.175145 
L 251.167894 279.600901 
L 254.207806 279.600901 
L 257.247718 279.600901 
L 260.28763 279.600901 
L 263.327542 277.897878 
L 266.367454 279.175145 
L 269.407366 278.323634 
L 272.447278 279.175145 
L 275.48719 279.175145 
L 278.527102 279.175145 
L 281.567014 278.74939 
L 284.606926 278.323634 
L 287.646838 278.74939 
L 290.68675 278.323634 
L 293.726662 278.74939 
L 296.766574 278.323634 
L 299.806485 278.323634 
L 302.846397 278.323634 
L 305.886309 278.323634 
L 308.926221 278.323634 
L 311.966133 278.323634 
L 315.006045 277.897878 
L 318.045957 277.897878 
L 321.085869 277.897878 
L 324.125781 277.472122 
L 327.165693 277.046367 
L 330.205605 277.472122 
L 333.245517 277.897878 
L 336.285429 277.472122 
L 339.325341 277.472122 
L 342.365253 277.046367 
L 345.405165 277.046367 
L 348.445077 277.046367 
L 351.484989 277.046367 
L 354.5249 277.046367 
L 357.564812 277.046367 
L 360.604724 277.472122 
L 363.644636 276.194855 
L 366.684548 276.620611 
L 369.72446 276.194855 
" clip-path="url(#p50f491a287)" style="fill: none; stroke: #e377c2; stroke-width: 1.5; stroke-linecap: square"/>
   </g>
   <g id="line2d_21">
    <path d="M 65.763665 262.570671 
L 66.037257 260.441892 
L 66.341248 257.461602 
L 66.645239 255.758578 
L 66.94923 255.332823 
L 67.253222 253.204044 
L 67.557213 251.926777 
L 67.861204 251.926777 
L 68.165195 250.649509 
L 68.469186 249.372242 
L 68.773178 248.52073 
L 71.81309 240.857127 
L 74.853001 234.47079 
L 77.892913 228.935965 
L 80.932825 225.104163 
L 83.972737 220.846606 
L 87.012649 214.034514 
L 90.052561 208.925444 
L 93.092473 207.222421 
L 96.132385 203.39062 
L 99.172297 199.558818 
L 102.212209 196.578527 
L 105.252121 193.598237 
L 108.292033 191.469458 
L 111.331945 189.340679 
L 114.371857 186.786145 
L 117.411769 185.508878 
L 120.451681 184.657366 
L 123.491593 182.528587 
L 126.531505 176.568006 
L 129.571417 178.696785 
L 132.611328 175.716495 
L 135.65124 173.16196 
L 138.691152 174.013472 
L 141.731064 171.884693 
L 144.770976 170.607426 
L 147.810888 170.18167 
L 150.8508 166.349868 
L 153.890712 165.924112 
L 156.930624 163.369578 
L 159.970536 162.092311 
L 163.010448 161.240799 
L 166.05036 158.260509 
L 169.090272 157.834753 
L 172.130184 155.705974 
L 175.170096 154.854463 
L 178.210008 152.299928 
L 181.24992 151.448416 
L 184.289832 148.04237 
L 187.329743 145.913592 
L 190.369655 146.339347 
L 193.409567 143.359057 
L 196.449479 139.953011 
L 199.489391 139.527255 
L 202.529303 136.97272 
L 205.569215 135.695453 
L 208.609127 135.269697 
L 211.649039 135.695453 
L 214.688951 132.289407 
L 217.728863 129.309117 
L 220.768775 130.160628 
L 223.808687 126.754582 
L 226.848599 122.497025 
L 229.888511 121.645513 
L 232.928423 120.368246 
L 235.968335 119.94249 
L 239.008247 118.239467 
L 242.048159 116.110688 
L 245.08807 114.407665 
L 248.127982 111.85313 
L 251.167894 113.556153 
L 254.207806 113.556153 
L 257.247718 107.595573 
L 260.28763 105.041038 
L 263.327542 105.89255 
L 266.367454 104.615282 
L 269.407366 102.486504 
L 272.447278 98.654702 
L 275.48719 97.377434 
L 278.527102 99.931969 
L 281.567014 92.694121 
L 284.606926 93.119877 
L 287.646838 90.565342 
L 290.68675 88.862319 
L 293.726662 90.139587 
L 296.766574 89.713831 
L 299.806485 87.585052 
L 302.846397 83.75325 
L 305.886309 80.347204 
L 308.926221 82.050227 
L 311.966133 76.941158 
L 315.006045 76.941158 
L 318.045957 75.238135 
L 321.085869 71.832089 
L 324.125781 73.109356 
L 327.165693 70.554821 
L 330.205605 74.386623 
L 333.245517 64.594241 
L 336.285429 65.019996 
L 339.325341 66.297264 
L 342.365253 65.871508 
L 345.405165 58.207904 
L 348.445077 62.891218 
L 351.484989 53.098835 
L 354.5249 59.059416 
L 357.564812 57.356393 
L 360.604724 54.376102 
L 363.644636 50.118545 
L 366.684548 51.395812 
L 369.72446 46.286743 
" clip-path="url(#p50f491a287)" style="fill: none; stroke: #7f7f7f; stroke-width: 1.5; stroke-linecap: square"/>
   </g>
   <g id="line2d_22">
    <path d="M 65.763665 287.690261 
L 66.037257 287.264505 
L 66.341248 286.412993 
L 66.645239 285.561482 
L 66.94923 284.70997 
L 67.253222 284.284215 
L 67.557213 283.858459 
L 67.861204 283.432703 
L 68.165195 283.006947 
L 68.469186 282.581192 
L 68.773178 282.155436 
L 71.81309 279.600901 
L 74.853001 277.046367 
L 77.892913 273.214565 
L 80.932825 272.363053 
L 83.972737 271.085786 
L 87.012649 269.808519 
L 90.052561 267.67974 
L 93.092473 266.828228 
L 96.132385 265.550961 
L 99.172297 264.699449 
L 102.212209 262.996426 
L 105.252121 263.422182 
L 108.292033 262.570671 
L 111.331945 260.867648 
L 114.371857 262.144915 
L 117.411769 261.719159 
L 120.451681 260.441892 
L 123.491593 260.867648 
L 126.531505 260.867648 
L 129.571417 259.59038 
L 132.611328 259.59038 
L 135.65124 259.164625 
L 138.691152 258.313113 
L 141.731064 258.313113 
L 144.770976 256.61009 
L 147.810888 256.61009 
L 150.8508 256.61009 
L 153.890712 256.184334 
L 156.930624 256.184334 
L 159.970536 254.907067 
L 163.010448 253.6298 
L 166.05036 253.6298 
L 169.090272 253.204044 
L 172.130184 252.778288 
L 175.170096 253.204044 
L 178.210008 252.778288 
L 181.24992 252.352532 
L 184.289832 251.501021 
L 187.329743 251.501021 
L 190.369655 251.501021 
L 193.409567 251.501021 
L 196.449479 251.075265 
L 199.489391 250.223754 
L 202.529303 249.797998 
L 205.569215 248.52073 
L 208.609127 248.094975 
L 211.649039 248.946486 
L 214.688951 248.094975 
L 217.728863 247.669219 
L 220.768775 247.669219 
L 223.808687 245.54044 
L 226.848599 246.817707 
L 229.888511 245.54044 
L 232.928423 245.54044 
L 235.968335 244.688929 
L 239.008247 244.263173 
L 242.048159 243.411661 
L 245.08807 243.411661 
L 248.127982 243.837417 
L 251.167894 243.837417 
L 254.207806 241.708638 
L 257.247718 241.708638 
L 260.28763 242.985906 
L 263.327542 241.282883 
L 266.367454 240.857127 
L 269.407366 240.431371 
L 272.447278 240.857127 
L 275.48719 240.857127 
L 278.527102 240.431371 
L 281.567014 240.005615 
L 284.606926 238.728348 
L 287.646838 238.302592 
L 290.68675 238.728348 
L 293.726662 236.599569 
L 296.766574 238.302592 
L 299.806485 237.025325 
L 302.846397 237.451081 
L 305.886309 234.47079 
L 308.926221 236.599569 
L 311.966133 234.896546 
L 315.006045 234.47079 
L 318.045957 231.916256 
L 321.085869 233.619279 
L 324.125781 232.767767 
L 327.165693 232.767767 
L 330.205605 231.4905 
L 333.245517 232.342011 
L 336.285429 231.4905 
L 339.325341 230.213233 
L 342.365253 230.213233 
L 345.405165 229.361721 
L 348.445077 229.361721 
L 351.484989 229.787477 
L 354.5249 228.084454 
L 357.564812 229.361721 
L 360.604724 227.232942 
L 363.644636 228.084454 
L 366.684548 227.658698 
L 369.72446 226.381431 
" clip-path="url(#p50f491a287)" style="fill: none; stroke: #bcbd22; stroke-width: 1.5; stroke-linecap: square"/>
   </g>
   <g id="line2d_23">
    <path d="M 65.763665 201.687597 
L 66.037257 199.558818 
L 66.341248 199.984573 
L 66.645239 199.558818 
L 66.94923 197.855795 
L 67.253222 197.855795 
L 67.557213 197.430039 
L 67.861204 194.875504 
L 68.165195 196.578527 
L 68.469186 194.023993 
L 68.773178 194.875504 
L 71.81309 189.766435 
L 74.853001 183.380099 
L 77.892913 181.25132 
L 80.932825 176.568006 
L 83.972737 170.607426 
L 87.012649 168.478647 
L 90.052561 164.646845 
L 93.092473 162.092311 
L 96.132385 159.963532 
L 99.172297 156.557486 
L 102.212209 154.854463 
L 105.252121 154.854463 
L 108.292033 146.339347 
L 111.331945 149.745393 
L 114.371857 148.893882 
L 117.411769 146.765103 
L 120.451681 144.210568 
L 123.491593 144.210568 
L 126.531505 144.210568 
L 129.571417 143.359057 
L 132.611328 142.933301 
L 135.65124 142.08179 
L 138.691152 139.101499 
L 141.731064 139.953011 
L 144.770976 139.101499 
L 147.810888 136.97272 
L 150.8508 136.121209 
L 153.890712 137.824232 
L 156.930624 134.843942 
L 159.970536 138.249988 
L 163.010448 136.546965 
L 166.05036 132.715163 
L 169.090272 136.121209 
L 172.130184 134.418186 
L 175.170096 134.418186 
L 178.210008 136.121209 
L 181.24992 132.715163 
L 184.289832 133.140919 
L 187.329743 132.289407 
L 190.369655 133.140919 
L 193.409567 132.715163 
L 196.449479 130.160628 
L 199.489391 131.437896 
L 202.529303 131.437896 
L 205.569215 128.883361 
L 208.609127 130.160628 
L 211.649039 127.606094 
L 214.688951 126.328826 
L 217.728863 127.180338 
L 220.768775 126.328826 
L 223.808687 126.754582 
L 226.848599 125.903071 
L 229.888511 123.774292 
L 232.928423 123.774292 
L 235.968335 125.903071 
L 239.008247 123.348536 
L 242.048159 120.794001 
L 245.08807 120.368246 
L 248.127982 122.071269 
L 251.167894 119.516734 
L 254.207806 120.794001 
L 257.247718 119.516734 
L 260.28763 120.368246 
L 263.327542 119.516734 
L 266.367454 118.665223 
L 269.407366 117.387955 
L 272.447278 119.090978 
L 275.48719 115.259177 
L 278.527102 117.813711 
L 281.567014 115.684932 
L 284.606926 115.684932 
L 287.646838 117.387955 
L 290.68675 114.833421 
L 293.726662 115.259177 
L 296.766574 111.85313 
L 299.806485 113.981909 
L 302.846397 115.259177 
L 305.886309 110.575863 
L 308.926221 113.981909 
L 311.966133 110.575863 
L 315.006045 109.724352 
L 318.045957 111.001619 
L 321.085869 111.001619 
L 324.125781 110.575863 
L 327.165693 111.85313 
L 330.205605 111.001619 
L 333.245517 109.298596 
L 336.285429 108.87284 
L 339.325341 108.447084 
L 342.365253 108.021329 
L 345.405165 110.150107 
L 348.445077 106.318306 
L 351.484989 108.021329 
L 354.5249 105.466794 
L 357.564812 105.466794 
L 360.604724 105.041038 
L 363.644636 103.338015 
L 366.684548 99.506213 
L 369.72446 95.674411 
" clip-path="url(#p50f491a287)" style="fill: none; stroke: #17becf; stroke-width: 1.5; stroke-linecap: square"/>
   </g>
   <g id="line2d_24">
    <path d="M 65.763665 291.096307 
L 66.037257 291.096307 
L 66.341248 290.670551 
L 66.645239 290.670551 
L 66.94923 290.670551 
L 67.253222 290.670551 
L 67.557213 290.244795 
L 67.861204 290.244795 
L 68.165195 290.244795 
L 68.469186 289.81904 
L 68.773178 289.81904 
L 71.81309 289.393284 
L 74.853001 288.541772 
L 77.892913 288.116016 
L 80.932825 287.264505 
L 83.972737 287.264505 
L 87.012649 286.412993 
L 90.052561 286.412993 
L 93.092473 286.412993 
L 96.132385 285.987238 
L 99.172297 285.987238 
L 102.212209 285.561482 
L 105.252121 285.561482 
L 108.292033 284.70997 
L 111.331945 285.135726 
L 114.371857 284.70997 
L 117.411769 284.70997 
L 120.451681 284.70997 
L 123.491593 284.284215 
L 126.531505 284.284215 
L 129.571417 284.284215 
L 132.611328 284.284215 
L 135.65124 284.284215 
L 138.691152 284.284215 
L 141.731064 284.284215 
L 144.770976 283.858459 
L 147.810888 283.858459 
L 150.8508 283.432703 
L 153.890712 283.858459 
L 156.930624 283.432703 
L 159.970536 283.432703 
L 163.010448 283.432703 
L 166.05036 283.432703 
L 169.090272 283.006947 
L 172.130184 283.006947 
L 175.170096 282.581192 
L 178.210008 282.581192 
L 181.24992 282.581192 
L 184.289832 282.581192 
L 187.329743 282.581192 
L 190.369655 282.581192 
L 193.409567 282.581192 
L 196.449479 281.72968 
L 199.489391 282.581192 
L 202.529303 282.155436 
L 205.569215 282.155436 
L 208.609127 282.155436 
L 211.649039 282.155436 
L 214.688951 281.72968 
L 217.728863 282.155436 
L 220.768775 281.72968 
L 223.808687 281.72968 
L 226.848599 281.303924 
L 229.888511 281.303924 
L 232.928423 281.72968 
L 235.968335 281.303924 
L 239.008247 281.303924 
L 242.048159 280.878168 
L 245.08807 281.303924 
L 248.127982 280.878168 
L 251.167894 280.878168 
L 254.207806 280.878168 
L 257.247718 280.878168 
L 260.28763 280.452413 
L 263.327542 280.878168 
L 266.367454 280.452413 
L 269.407366 280.452413 
L 272.447278 280.452413 
L 275.48719 280.452413 
L 278.527102 280.026657 
L 281.567014 280.026657 
L 284.606926 280.026657 
L 287.646838 279.175145 
L 290.68675 280.026657 
L 293.726662 280.026657 
L 296.766574 279.600901 
L 299.806485 279.175145 
L 302.846397 279.600901 
L 305.886309 279.600901 
L 308.926221 279.175145 
L 311.966133 279.175145 
L 315.006045 278.74939 
L 318.045957 279.175145 
L 321.085869 279.175145 
L 324.125781 278.74939 
L 327.165693 279.175145 
L 330.205605 278.74939 
L 333.245517 277.472122 
L 336.285429 278.74939 
L 339.325341 278.74939 
L 342.365253 278.74939 
L 345.405165 278.323634 
L 348.445077 277.472122 
L 351.484989 278.323634 
L 354.5249 278.323634 
L 357.564812 277.897878 
L 360.604724 277.472122 
L 363.644636 277.897878 
L 366.684548 277.897878 
L 369.72446 277.046367 
" clip-path="url(#p50f491a287)" style="fill: none; stroke: #1f77b4; stroke-width: 1.5; stroke-linecap: square"/>
   </g>
   <g id="line2d_25">
    <path d="M 65.763665 288.116016 
L 66.037257 286.412993 
L 66.341248 283.858459 
L 66.645239 283.006947 
L 66.94923 281.303924 
L 67.253222 280.026657 
L 67.557213 278.74939 
L 67.861204 277.897878 
L 68.165195 276.620611 
L 68.469186 275.343344 
L 68.773178 274.491832 
L 71.81309 264.273694 
L 74.853001 258.738869 
L 77.892913 253.204044 
L 80.932825 247.669219 
L 83.972737 242.985906 
L 87.012649 239.579859 
L 90.052561 234.896546 
L 93.092473 233.619279 
L 96.132385 230.638988 
L 99.172297 227.232942 
L 102.212209 225.104163 
L 105.252121 222.123873 
L 108.292033 220.42085 
L 111.331945 215.311781 
L 114.371857 213.608758 
L 117.411769 214.886025 
L 120.451681 211.905735 
L 123.491593 210.628468 
L 126.531505 207.648177 
L 129.571417 205.945154 
L 132.611328 203.816375 
L 135.65124 202.964864 
L 138.691152 202.113352 
L 141.731064 198.28155 
L 144.770976 196.578527 
L 147.810888 194.875504 
L 150.8508 192.746725 
L 153.890712 191.895214 
L 156.930624 189.766435 
L 159.970536 183.380099 
L 163.010448 185.083122 
L 166.05036 182.954343 
L 169.090272 181.677076 
L 172.130184 179.548297 
L 175.170096 177.419518 
L 178.210008 175.716495 
L 181.24992 173.16196 
L 184.289832 171.884693 
L 187.329743 171.458937 
L 190.369655 169.330158 
L 193.409567 166.775624 
L 196.449479 165.498357 
L 199.489391 164.646845 
L 202.529303 162.092311 
L 205.569215 161.666555 
L 208.609127 159.11202 
L 211.649039 156.983241 
L 214.688951 154.428707 
L 217.728863 154.428707 
L 220.768775 152.299928 
L 223.808687 150.596905 
L 226.848599 150.596905 
L 229.888511 148.04237 
L 232.928423 145.487836 
L 235.968335 139.953011 
L 239.008247 143.359057 
L 242.048159 140.378767 
L 245.08807 137.824232 
L 248.127982 138.249988 
L 251.167894 135.695453 
L 254.207806 134.418186 
L 257.247718 132.715163 
L 260.28763 129.309117 
L 263.327542 131.437896 
L 266.367454 128.883361 
L 269.407366 127.606094 
L 272.447278 124.625803 
L 275.48719 122.071269 
L 278.527102 121.645513 
L 281.567014 119.516734 
L 284.606926 115.259177 
L 287.646838 119.090978 
L 290.68675 117.813711 
L 293.726662 115.684932 
L 296.766574 113.981909 
L 299.806485 111.85313 
L 302.846397 112.278886 
L 305.886309 108.447084 
L 308.926221 108.021329 
L 311.966133 109.298596 
L 315.006045 106.744061 
L 318.045957 101.634992 
L 321.085869 102.486504 
L 324.125781 102.060748 
L 327.165693 101.209236 
L 330.205605 96.951679 
L 333.245517 98.228946 
L 336.285429 87.585052 
L 339.325341 93.971388 
L 342.365253 96.100167 
L 345.405165 90.565342 
L 348.445077 91.84261 
L 351.484989 90.565342 
L 354.5249 86.307785 
L 357.564812 86.307785 
L 360.604724 82.475983 
L 363.644636 82.901739 
L 366.684548 82.901739 
L 369.72446 76.089646 
" clip-path="url(#p50f491a287)" style="fill: none; stroke: #ff7f0e; stroke-width: 1.5; stroke-linecap: square"/>
   </g>
   <g id="patch_3">
    <path d="M 50.565625 304.44375 
L 50.565625 10.8 
" style="fill: none; stroke: #000000; stroke-width: 0.8; stroke-linejoin: miter; stroke-linecap: square"/>
   </g>
   <g id="patch_4">
    <path d="M 384.9225 304.44375 
L 384.9225 10.8 
" style="fill: none; stroke: #000000; stroke-width: 0.8; stroke-linejoin: miter; stroke-linecap: square"/>
   </g>
   <g id="patch_5">
    <path d="M 50.565625 304.44375 
L 384.9225 304.44375 
" style="fill: none; stroke: #000000; stroke-width: 0.8; stroke-linejoin: miter; stroke-linecap: square"/>
   </g>
   <g id="patch_6">
    <path d="M 50.565625 10.8 
L 384.9225 10.8 
" style="fill: none; stroke: #000000; stroke-width: 0.8; stroke-linejoin: miter; stroke-linecap: square"/>
   </g>
   <g id="text_16">
    <!-- trimou -->
    <g style="fill: #1f77b4" transform="translate(390.9225 286.065959) scale(0.08 -0.08)">
     <defs>
      <path id="DejaVuSans-6f" d="M 1959 3097 
Q 1497 3097 1228 2736 
Q 959 2375 959 1747 
Q 959 1119 1226 758 
Q 1494 397 1959 397 
Q 2419 397 2687 759 
Q 2956 1122 2956 1747 
Q 2956 2369 2687 2733 
Q 2419 3097 1959 3097 
z
M 1959 3584 
Q 2709 3584 3137 3096 
Q 3566 2609 3566 1747 
Q 3566 888 3137 398 
Q 2709 -91 1959 -91 
Q 1206 -91 779 398 
Q 353 888 353 1747 
Q 353 2609 779 3096 
Q 1206 3584 1959 3584 
z
" transform="scale(0.015625)"/>
     </defs>
     <use xlink:href="#DejaVuSans-74"/>
     <use xlink:href="#DejaVuSans-72" transform="translate(39.208984 0)"/>
     <use xlink:href="#DejaVuSans-69" transform="translate(80.322266 0)"/>
     <use xlink:href="#DejaVuSans-6d" transform="translate(108.105469 0)"/>
     <use xlink:href="#DejaVuSans-6f" transform="translate(205.517578 0)"/>
     <use xlink:href="#DejaVuSans-75" transform="translate(266.699219 0)"/>
    </g>
   </g>
   <g id="text_17">
    <!-- solomon -->
    <g style="fill: #e377c2" transform="translate(390.9225 278.402355) scale(0.08 -0.08)">
     <defs>
      <path id="DejaVuSans-6c" d="M 603 4863 
L 1178 4863 
L 1178 0 
L 603 0 
L 603 4863 
z
" transform="scale(0.015625)"/>
     </defs>
     <use xlink:href="#DejaVuSans-73"/>
     <use xlink:href="#DejaVuSans-6f" transform="translate(52.099609 0)"/>
     <use xlink:href="#DejaVuSans-6c" transform="translate(113.28125 0)"/>
     <use xlink:href="#DejaVuSans-6f" transform="translate(141.064453 0)"/>
     <use xlink:href="#DejaVuSans-6d" transform="translate(202.246094 0)"/>
     <use xlink:href="#DejaVuSans-6f" transform="translate(299.658203 0)"/>
     <use xlink:href="#DejaVuSans-6e" transform="translate(360.839844 0)"/>
    </g>
   </g>
   <g id="text_18">
    <!-- mustachej -->
    <g style="fill: #9467bd" transform="translate(390.9225 270.312996) scale(0.08 -0.08)">
     <defs>
      <path id="DejaVuSans-61" d="M 2194 1759 
Q 1497 1759 1228 1600 
Q 959 1441 959 1056 
Q 959 750 1161 570 
Q 1363 391 1709 391 
Q 2188 391 2477 730 
Q 2766 1069 2766 1631 
L 2766 1759 
L 2194 1759 
z
M 3341 1997 
L 3341 0 
L 2766 0 
L 2766 531 
Q 2569 213 2275 61 
Q 1981 -91 1556 -91 
Q 1019 -91 701 211 
Q 384 513 384 1019 
Q 384 1609 779 1909 
Q 1175 2209 1959 2209 
L 2766 2209 
L 2766 2266 
Q 2766 2663 2505 2880 
Q 2244 3097 1772 3097 
Q 1472 3097 1187 3025 
Q 903 2953 641 2809 
L 641 3341 
Q 956 3463 1253 3523 
Q 1550 3584 1831 3584 
Q 2591 3584 2966 3190 
Q 3341 2797 3341 1997 
z
" transform="scale(0.015625)"/>
      <path id="DejaVuSans-63" d="M 3122 3366 
L 3122 2828 
Q 2878 2963 2633 3030 
Q 2388 3097 2138 3097 
Q 1578 3097 1268 2742 
Q 959 2388 959 1747 
Q 959 1106 1268 751 
Q 1578 397 2138 397 
Q 2388 397 2633 464 
Q 2878 531 3122 666 
L 3122 134 
Q 2881 22 2623 -34 
Q 2366 -91 2075 -91 
Q 1284 -91 818 406 
Q 353 903 353 1747 
Q 353 2603 823 3093 
Q 1294 3584 2113 3584 
Q 2378 3584 2631 3529 
Q 2884 3475 3122 3366 
z
" transform="scale(0.015625)"/>
      <path id="DejaVuSans-68" d="M 3513 2113 
L 3513 0 
L 2938 0 
L 2938 2094 
Q 2938 2591 2744 2837 
Q 2550 3084 2163 3084 
Q 1697 3084 1428 2787 
Q 1159 2491 1159 1978 
L 1159 0 
L 581 0 
L 581 4863 
L 1159 4863 
L 1159 2956 
Q 1366 3272 1645 3428 
Q 1925 3584 2291 3584 
Q 2894 3584 3203 3211 
Q 3513 2838 3513 2113 
z
" transform="scale(0.015625)"/>
      <path id="DejaVuSans-6a" d="M 603 3500 
L 1178 3500 
L 1178 -63 
Q 1178 -731 923 -1031 
Q 669 -1331 103 -1331 
L -116 -1331 
L -116 -844 
L 38 -844 
Q 366 -844 484 -692 
Q 603 -541 603 -63 
L 603 3500 
z
M 603 4863 
L 1178 4863 
L 1178 4134 
L 603 4134 
L 603 4863 
z
" transform="scale(0.015625)"/>
     </defs>
     <use xlink:href="#DejaVuSans-6d"/>
     <use xlink:href="#DejaVuSans-75" transform="translate(97.412109 0)"/>
     <use xlink:href="#DejaVuSans-73" transform="translate(160.791016 0)"/>
     <use xlink:href="#DejaVuSans-74" transform="translate(212.890625 0)"/>
     <use xlink:href="#DejaVuSans-61" transform="translate(252.099609 0)"/>
     <use xlink:href="#DejaVuSans-63" transform="translate(313.378906 0)"/>
     <use xlink:href="#DejaVuSans-68" transform="translate(368.359375 0)"/>
     <use xlink:href="#DejaVuSans-65" transform="translate(431.738281 0)"/>
     <use xlink:href="#DejaVuSans-6a" transform="translate(493.261719 0)"/>
    </g>
   </g>
   <g id="text_19">
    <!-- pebble -->
    <g style="fill: #8c564b" transform="translate(390.9225 262.649392) scale(0.08 -0.08)">
     <defs>
      <path id="DejaVuSans-70" d="M 1159 525 
L 1159 -1331 
L 581 -1331 
L 581 3500 
L 1159 3500 
L 1159 2969 
Q 1341 3281 1617 3432 
Q 1894 3584 2278 3584 
Q 2916 3584 3314 3078 
Q 3713 2572 3713 1747 
Q 3713 922 3314 415 
Q 2916 -91 2278 -91 
Q 1894 -91 1617 61 
Q 1341 213 1159 525 
z
M 3116 1747 
Q 3116 2381 2855 2742 
Q 2594 3103 2138 3103 
Q 1681 3103 1420 2742 
Q 1159 2381 1159 1747 
Q 1159 1113 1420 752 
Q 1681 391 2138 391 
Q 2594 391 2855 752 
Q 3116 1113 3116 1747 
z
" transform="scale(0.015625)"/>
      <path id="DejaVuSans-62" d="M 3116 1747 
Q 3116 2381 2855 2742 
Q 2594 3103 2138 3103 
Q 1681 3103 1420 2742 
Q 1159 2381 1159 1747 
Q 1159 1113 1420 752 
Q 1681 391 2138 391 
Q 2594 391 2855 752 
Q 3116 1113 3116 1747 
z
M 1159 2969 
Q 1341 3281 1617 3432 
Q 1894 3584 2278 3584 
Q 2916 3584 3314 3078 
Q 3713 2572 3713 1747 
Q 3713 922 3314 415 
Q 2916 -91 2278 -91 
Q 1894 -91 1617 61 
Q 1341 213 1159 525 
L 1159 0 
L 581 0 
L 581 4863 
L 1159 4863 
L 1159 2969 
z
" transform="scale(0.015625)"/>
     </defs>
     <use xlink:href="#DejaVuSans-70"/>
     <use xlink:href="#DejaVuSans-65" transform="translate(63.476562 0)"/>
     <use xlink:href="#DejaVuSans-62" transform="translate(125 0)"/>
     <use xlink:href="#DejaVuSans-62" transform="translate(188.476562 0)"/>
     <use xlink:href="#DejaVuSans-6c" transform="translate(251.953125 0)"/>
     <use xlink:href="#DejaVuSans-65" transform="translate(279.736328 0)"/>
    </g>
   </g>
   <g id="text_20">
    <!-- handlebars -->
    <g style="fill: #ff7f0e" transform="translate(390.9225 254.985788) scale(0.08 -0.08)">
     <defs>
      <path id="DejaVuSans-64" d="M 2906 2969 
L 2906 4863 
L 3481 4863 
L 3481 0 
L 2906 0 
L 2906 525 
Q 2725 213 2448 61 
Q 2172 -91 1784 -91 
Q 1150 -91 751 415 
Q 353 922 353 1747 
Q 353 2572 751 3078 
Q 1150 3584 1784 3584 
Q 2172 3584 2448 3432 
Q 2725 3281 2906 2969 
z
M 947 1747 
Q 947 1113 1208 752 
Q 1469 391 1925 391 
Q 2381 391 2643 752 
Q 2906 1113 2906 1747 
Q 2906 2381 2643 2742 
Q 2381 3103 1925 3103 
Q 1469 3103 1208 2742 
Q 947 2381 947 1747 
z
" transform="scale(0.015625)"/>
     </defs>
     <use xlink:href="#DejaVuSans-68"/>
     <use xlink:href="#DejaVuSans-61" transform="translate(63.378906 0)"/>
     <use xlink:href="#DejaVuSans-6e" transform="translate(124.658203 0)"/>
     <use xlink:href="#DejaVuSans-64" transform="translate(188.037109 0)"/>
     <use xlink:href="#DejaVuSans-6c" transform="translate(251.513672 0)"/>
     <use xlink:href="#DejaVuSans-65" transform="translate(279.296875 0)"/>
     <use xlink:href="#DejaVuSans-62" transform="translate(340.820312 0)"/>
     <use xlink:href="#DejaVuSans-61" transform="translate(404.296875 0)"/>
     <use xlink:href="#DejaVuSans-72" transform="translate(465.576172 0)"/>
     <use xlink:href="#DejaVuSans-73" transform="translate(506.689453 0)"/>
    </g>
   </g>
   <g id="text_21">
    <!-- freemarker -->
    <g style="fill: #1f77b4" transform="translate(390.9225 232.420733) scale(0.08 -0.08)">
     <defs>
      <path id="DejaVuSans-66" d="M 2375 4863 
L 2375 4384 
L 1825 4384 
Q 1516 4384 1395 4259 
Q 1275 4134 1275 3809 
L 1275 3500 
L 2222 3500 
L 2222 3053 
L 1275 3053 
L 1275 0 
L 697 0 
L 697 3053 
L 147 3053 
L 147 3500 
L 697 3500 
L 697 3744 
Q 697 4328 969 4595 
Q 1241 4863 1831 4863 
L 2375 4863 
z
" transform="scale(0.015625)"/>
      <path id="DejaVuSans-6b" d="M 581 4863 
L 1159 4863 
L 1159 1991 
L 2875 3500 
L 3609 3500 
L 1753 1863 
L 3688 0 
L 2938 0 
L 1159 1709 
L 1159 0 
L 581 0 
L 581 4863 
z
" transform="scale(0.015625)"/>
     </defs>
     <use xlink:href="#DejaVuSans-66"/>
     <use xlink:href="#DejaVuSans-72" transform="translate(35.205078 0)"/>
     <use xlink:href="#DejaVuSans-65" transform="translate(74.068359 0)"/>
     <use xlink:href="#DejaVuSans-65" transform="translate(135.591797 0)"/>
     <use xlink:href="#DejaVuSans-6d" transform="translate(197.115234 0)"/>
     <use xlink:href="#DejaVuSans-61" transform="translate(294.527344 0)"/>
     <use xlink:href="#DejaVuSans-72" transform="translate(355.806641 0)"/>
     <use xlink:href="#DejaVuSans-6b" transform="translate(396.919922 0)"/>
     <use xlink:href="#DejaVuSans-65" transform="translate(451.205078 0)"/>
     <use xlink:href="#DejaVuSans-72" transform="translate(512.728516 0)"/>
    </g>
   </g>
   <g id="text_22">
    <!-- stringtree -->
    <g style="fill: #bcbd22" transform="translate(390.9225 224.757129) scale(0.08 -0.08)">
     <defs>
      <path id="DejaVuSans-67" d="M 2906 1791 
Q 2906 2416 2648 2759 
Q 2391 3103 1925 3103 
Q 1463 3103 1205 2759 
Q 947 2416 947 1791 
Q 947 1169 1205 825 
Q 1463 481 1925 481 
Q 2391 481 2648 825 
Q 2906 1169 2906 1791 
z
M 3481 434 
Q 3481 -459 3084 -895 
Q 2688 -1331 1869 -1331 
Q 1566 -1331 1297 -1286 
Q 1028 -1241 775 -1147 
L 775 -588 
Q 1028 -725 1275 -790 
Q 1522 -856 1778 -856 
Q 2344 -856 2625 -561 
Q 2906 -266 2906 331 
L 2906 616 
Q 2728 306 2450 153 
Q 2172 0 1784 0 
Q 1141 0 747 490 
Q 353 981 353 1791 
Q 353 2603 747 3093 
Q 1141 3584 1784 3584 
Q 2172 3584 2450 3431 
Q 2728 3278 2906 2969 
L 2906 3500 
L 3481 3500 
L 3481 434 
z
" transform="scale(0.015625)"/>
     </defs>
     <use xlink:href="#DejaVuSans-73"/>
     <use xlink:href="#DejaVuSans-74" transform="translate(52.099609 0)"/>
     <use xlink:href="#DejaVuSans-72" transform="translate(91.308594 0)"/>
     <use xlink:href="#DejaVuSans-69" transform="translate(132.421875 0)"/>
     <use xlink:href="#DejaVuSans-6e" transform="translate(160.205078 0)"/>
     <use xlink:href="#DejaVuSans-67" transform="translate(223.583984 0)"/>
     <use xlink:href="#DejaVuSans-74" transform="translate(287.060547 0)"/>
     <use xlink:href="#DejaVuSans-72" transform="translate(326.269531 0)"/>
     <use xlink:href="#DejaVuSans-65" transform="translate(365.132812 0)"/>
     <use xlink:href="#DejaVuSans-65" transform="translate(426.65625 0)"/>
    </g>
   </g>
   <g id="text_23">
    <!-- jangod -->
    <g style="fill: #2ca02c" transform="translate(390.9225 189.419401) scale(0.08 -0.08)">
     <use xlink:href="#DejaVuSans-6a"/>
     <use xlink:href="#DejaVuSans-61" transform="translate(27.783203 0)"/>
     <use xlink:href="#DejaVuSans-6e" transform="translate(89.0625 0)"/>
     <use xlink:href="#DejaVuSans-67" transform="translate(152.441406 0)"/>
     <use xlink:href="#DejaVuSans-6f" transform="translate(215.917969 0)"/>
     <use xlink:href="#DejaVuSans-64" transform="translate(277.099609 0)"/>
    </g>
   </g>
   <g id="text_24">
    <!-- thymeleaf -->
    <g style="fill: #17becf" transform="translate(390.9225 97.881911) scale(0.08 -0.08)">
     <defs>
      <path id="DejaVuSans-79" d="M 2059 -325 
Q 1816 -950 1584 -1140 
Q 1353 -1331 966 -1331 
L 506 -1331 
L 506 -850 
L 844 -850 
Q 1081 -850 1212 -737 
Q 1344 -625 1503 -206 
L 1606 56 
L 191 3500 
L 800 3500 
L 1894 763 
L 2988 3500 
L 3597 3500 
L 2059 -325 
z
" transform="scale(0.015625)"/>
     </defs>
     <use xlink:href="#DejaVuSans-74"/>
     <use xlink:href="#DejaVuSans-68" transform="translate(39.208984 0)"/>
     <use xlink:href="#DejaVuSans-79" transform="translate(102.587891 0)"/>
     <use xlink:href="#DejaVuSans-6d" transform="translate(161.767578 0)"/>
     <use xlink:href="#DejaVuSans-65" transform="translate(259.179688 0)"/>
     <use xlink:href="#DejaVuSans-6c" transform="translate(320.703125 0)"/>
     <use xlink:href="#DejaVuSans-65" transform="translate(348.486328 0)"/>
     <use xlink:href="#DejaVuSans-61" transform="translate(410.009766 0)"/>
     <use xlink:href="#DejaVuSans-66" transform="translate(471.289062 0)"/>
    </g>
   </g>
   <g id="text_25">
    <!-- velocity -->
    <g style="fill: #ff7f0e" transform="translate(390.9225 78.297146) scale(0.08 -0.08)">
     <defs>
      <path id="DejaVuSans-76" d="M 191 3500 
L 800 3500 
L 1894 563 
L 2988 3500 
L 3597 3500 
L 2284 0 
L 1503 0 
L 191 3500 
z
" transform="scale(0.015625)"/>
     </defs>
     <use xlink:href="#DejaVuSans-76"/>
     <use xlink:href="#DejaVuSans-65" transform="translate(59.179688 0)"/>
     <use xlink:href="#DejaVuSans-6c" transform="translate(120.703125 0)"/>
     <use xlink:href="#DejaVuSans-6f" transform="translate(148.486328 0)"/>
     <use xlink:href="#DejaVuSans-63" transform="translate(209.667969 0)"/>
     <use xlink:href="#DejaVuSans-69" transform="translate(264.648438 0)"/>
     <use xlink:href="#DejaVuSans-74" transform="translate(292.431641 0)"/>
     <use xlink:href="#DejaVuSans-79" transform="translate(331.640625 0)"/>
    </g>
   </g>
   <g id="text_26">
    <!-- stringtemplate -->
    <g style="fill: #7f7f7f" transform="translate(390.9225 48.494243) scale(0.08 -0.08)">
     <use xlink:href="#DejaVuSans-73"/>
     <use xlink:href="#DejaVuSans-74" transform="translate(52.099609 0)"/>
     <use xlink:href="#DejaVuSans-72" transform="translate(91.308594 0)"/>
     <use xlink:href="#DejaVuSans-69" transform="translate(132.421875 0)"/>
     <use xlink:href="#DejaVuSans-6e" transform="translate(160.205078 0)"/>
     <use xlink:href="#DejaVuSans-67" transform="translate(223.583984 0)"/>
     <use xlink:href="#DejaVuSans-74" transform="translate(287.060547 0)"/>
     <use xlink:href="#DejaVuSans-65" transform="translate(326.269531 0)"/>
     <use xlink:href="#DejaVuSans-6d" transform="translate(387.792969 0)"/>
     <use xlink:href="#DejaVuSans-70" transform="translate(485.205078 0)"/>
     <use xlink:href="#DejaVuSans-6c" transform="translate(548.681641 0)"/>
     <use xlink:href="#DejaVuSans-61" transform="translate(576.464844 0)"/>
     <use xlink:href="#DejaVuSans-74" transform="translate(637.744141 0)"/>
     <use xlink:href="#DejaVuSans-65" transform="translate(676.953125 0)"/>
    </g>
   </g>
   <g id="text_27">
    <!-- jte -->
    <g style="fill: #d62728" transform="translate(390.9225 28.057966) scale(0.08 -0.08)">
     <use xlink:href="#DejaVuSans-6a"/>
     <use xlink:href="#DejaVuSans-74" transform="translate(27.783203 0)"/>
     <use xlink:href="#DejaVuSans-65" transform="translate(66.992188 0)"/>
    </g>
   </g>
  </g>
 </g>
 <defs>
  <clipPath id="p50f491a287">
   <rect x="50.565625" y="10.8" width="334.356875" height="293.64375"/>
  </clipPath>
 </defs>
</svg>
