<?xml version="1.0" encoding="utf-8" standalone="no"?>
<!DOCTYPE svg PUBLIC "-//W3C//DTD SVG 1.1//EN"
  "http://www.w3.org/Graphics/SVG/1.1/DTD/svg11.dtd">
<svg xmlns:xlink="http://www.w3.org/1999/xlink" width="460.8pt" height="345.6pt" viewBox="0 0 460.8 345.6" xmlns="http://www.w3.org/2000/svg" version="1.1">
 <metadata>
  <rdf:RDF xmlns:dc="http://purl.org/dc/elements/1.1/" xmlns:cc="http://creativecommons.org/ns#" xmlns:rdf="http://www.w3.org/1999/02/22-rdf-syntax-ns#">
   <cc:Work>
    <dc:type rdf:resource="http://purl.org/dc/dcmitype/StillImage"/>
    <dc:date>2025-04-13T16:08:54.056746</dc:date>
    <dc:format>image/svg+xml</dc:format>
    <dc:creator>
     <cc:Agent>
      <dc:title>Matplotlib v3.10.1, https://matplotlib.org/</dc:title>
     </cc:Agent>
    </dc:creator>
   </cc:Work>
  </rdf:RDF>
 </metadata>
 <defs>
  <style type="text/css">*{stroke-linejoin: round; stroke-linecap: butt}</style>
 </defs>
 <g id="figure_1">
  <g id="patch_1">
   <path d="M 0 345.6 
L 460.8 345.6 
L 460.8 0 
L 0 0 
z
" style="fill: #ffffff"/>
  </g>
  <g id="axes_1">
   <g id="patch_2">
    <path d="M 50.565625 304.44375 
L 384.9225 304.44375 
L 384.9225 12.643578 
L 50.565625 12.643578 
z
" style="fill: #ffffff"/>
   </g>
   <g id="matplotlib.axis_1">
    <g id="xtick_1">
     <g id="line2d_1">
      <defs>
       <path id="m3e28dd890a" d="M 0 0 
L 0 3.5 
" style="stroke: #000000; stroke-width: 0.8"/>
      </defs>
      <g>
       <use xlink:href="#m3e28dd890a" x="65.733266" y="304.44375" style="stroke: #000000; stroke-width: 0.8"/>
      </g>
     </g>
     <g id="text_1">
      <!-- 0 -->
      <g transform="translate(62.552016 319.042187) scale(0.1 -0.1)">
       <defs>
        <path id="DejaVuSans-30" d="M 2034 4250 
Q 1547 4250 1301 3770 
Q 1056 3291 1056 2328 
Q 1056 1369 1301 889 
Q 1547 409 2034 409 
Q 2525 409 2770 889 
Q 3016 1369 3016 2328 
Q 3016 3291 2770 3770 
Q 2525 4250 2034 4250 
z
M 2034 4750 
Q 2819 4750 3233 4129 
Q 3647 3509 3647 2328 
Q 3647 1150 3233 529 
Q 2819 -91 2034 -91 
Q 1250 -91 836 529 
Q 422 1150 422 2328 
Q 422 3509 836 4129 
Q 1250 4750 2034 4750 
z
" transform="scale(0.015625)"/>
       </defs>
       <use xlink:href="#DejaVuSans-30"/>
      </g>
     </g>
    </g>
    <g id="xtick_2">
     <g id="line2d_2">
      <g>
       <use xlink:href="#m3e28dd890a" x="126.531505" y="304.44375" style="stroke: #000000; stroke-width: 0.8"/>
      </g>
     </g>
     <g id="text_2">
      <!-- 2000 -->
      <g transform="translate(113.806505 319.042187) scale(0.1 -0.1)">
       <defs>
        <path id="DejaVuSans-32" d="M 1228 531 
L 3431 531 
L 3431 0 
L 469 0 
L 469 531 
Q 828 903 1448 1529 
Q 2069 2156 2228 2338 
Q 2531 2678 2651 2914 
Q 2772 3150 2772 3378 
Q 2772 3750 2511 3984 
Q 2250 4219 1831 4219 
Q 1534 4219 1204 4116 
Q 875 4013 500 3803 
L 500 4441 
Q 881 4594 1212 4672 
Q 1544 4750 1819 4750 
Q 2544 4750 2975 4387 
Q 3406 4025 3406 3419 
Q 3406 3131 3298 2873 
Q 3191 2616 2906 2266 
Q 2828 2175 2409 1742 
Q 1991 1309 1228 531 
z
" transform="scale(0.015625)"/>
       </defs>
       <use xlink:href="#DejaVuSans-32"/>
       <use xlink:href="#DejaVuSans-30" transform="translate(63.623047 0)"/>
       <use xlink:href="#DejaVuSans-30" transform="translate(127.246094 0)"/>
       <use xlink:href="#DejaVuSans-30" transform="translate(190.869141 0)"/>
      </g>
     </g>
    </g>
    <g id="xtick_3">
     <g id="line2d_3">
      <g>
       <use xlink:href="#m3e28dd890a" x="187.329743" y="304.44375" style="stroke: #000000; stroke-width: 0.8"/>
      </g>
     </g>
     <g id="text_3">
      <!-- 4000 -->
      <g transform="translate(174.604743 319.042187) scale(0.1 -0.1)">
       <defs>
        <path id="DejaVuSans-34" d="M 2419 4116 
L 825 1625 
L 2419 1625 
L 2419 4116 
z
M 2253 4666 
L 3047 4666 
L 3047 1625 
L 3713 1625 
L 3713 1100 
L 3047 1100 
L 3047 0 
L 2419 0 
L 2419 1100 
L 313 1100 
L 313 1709 
L 2253 4666 
z
" transform="scale(0.015625)"/>
       </defs>
       <use xlink:href="#DejaVuSans-34"/>
       <use xlink:href="#DejaVuSans-30" transform="translate(63.623047 0)"/>
       <use xlink:href="#DejaVuSans-30" transform="translate(127.246094 0)"/>
       <use xlink:href="#DejaVuSans-30" transform="translate(190.869141 0)"/>
      </g>
     </g>
    </g>
    <g id="xtick_4">
     <g id="line2d_4">
      <g>
       <use xlink:href="#m3e28dd890a" x="248.127982" y="304.44375" style="stroke: #000000; stroke-width: 0.8"/>
      </g>
     </g>
     <g id="text_4">
      <!-- 6000 -->
      <g transform="translate(235.402982 319.042187) scale(0.1 -0.1)">
       <defs>
        <path id="DejaVuSans-36" d="M 2113 2584 
Q 1688 2584 1439 2293 
Q 1191 2003 1191 1497 
Q 1191 994 1439 701 
Q 1688 409 2113 409 
Q 2538 409 2786 701 
Q 3034 994 3034 1497 
Q 3034 2003 2786 2293 
Q 2538 2584 2113 2584 
z
M 3366 4563 
L 3366 3988 
Q 3128 4100 2886 4159 
Q 2644 4219 2406 4219 
Q 1781 4219 1451 3797 
Q 1122 3375 1075 2522 
Q 1259 2794 1537 2939 
Q 1816 3084 2150 3084 
Q 2853 3084 3261 2657 
Q 3669 2231 3669 1497 
Q 3669 778 3244 343 
Q 2819 -91 2113 -91 
Q 1303 -91 875 529 
Q 447 1150 447 2328 
Q 447 3434 972 4092 
Q 1497 4750 2381 4750 
Q 2619 4750 2861 4703 
Q 3103 4656 3366 4563 
z
" transform="scale(0.015625)"/>
       </defs>
       <use xlink:href="#DejaVuSans-36"/>
       <use xlink:href="#DejaVuSans-30" transform="translate(63.623047 0)"/>
       <use xlink:href="#DejaVuSans-30" transform="translate(127.246094 0)"/>
       <use xlink:href="#DejaVuSans-30" transform="translate(190.869141 0)"/>
      </g>
     </g>
    </g>
    <g id="xtick_5">
     <g id="line2d_5">
      <g>
       <use xlink:href="#m3e28dd890a" x="308.926221" y="304.44375" style="stroke: #000000; stroke-width: 0.8"/>
      </g>
     </g>
     <g id="text_5">
      <!-- 8000 -->
      <g transform="translate(296.201221 319.042187) scale(0.1 -0.1)">
       <defs>
        <path id="DejaVuSans-38" d="M 2034 2216 
Q 1584 2216 1326 1975 
Q 1069 1734 1069 1313 
Q 1069 891 1326 650 
Q 1584 409 2034 409 
Q 2484 409 2743 651 
Q 3003 894 3003 1313 
Q 3003 1734 2745 1975 
Q 2488 2216 2034 2216 
z
M 1403 2484 
Q 997 2584 770 2862 
Q 544 3141 544 3541 
Q 544 4100 942 4425 
Q 1341 4750 2034 4750 
Q 2731 4750 3128 4425 
Q 3525 4100 3525 3541 
Q 3525 3141 3298 2862 
Q 3072 2584 2669 2484 
Q 3125 2378 3379 2068 
Q 3634 1759 3634 1313 
Q 3634 634 3220 271 
Q 2806 -91 2034 -91 
Q 1263 -91 848 271 
Q 434 634 434 1313 
Q 434 1759 690 2068 
Q 947 2378 1403 2484 
z
M 1172 3481 
Q 1172 3119 1398 2916 
Q 1625 2713 2034 2713 
Q 2441 2713 2670 2916 
Q 2900 3119 2900 3481 
Q 2900 3844 2670 4047 
Q 2441 4250 2034 4250 
Q 1625 4250 1398 4047 
Q 1172 3844 1172 3481 
z
" transform="scale(0.015625)"/>
       </defs>
       <use xlink:href="#DejaVuSans-38"/>
       <use xlink:href="#DejaVuSans-30" transform="translate(63.623047 0)"/>
       <use xlink:href="#DejaVuSans-30" transform="translate(127.246094 0)"/>
       <use xlink:href="#DejaVuSans-30" transform="translate(190.869141 0)"/>
      </g>
     </g>
    </g>
    <g id="xtick_6">
     <g id="line2d_6">
      <g>
       <use xlink:href="#m3e28dd890a" x="369.72446" y="304.44375" style="stroke: #000000; stroke-width: 0.8"/>
      </g>
     </g>
     <g id="text_6">
      <!-- 10000 -->
      <g transform="translate(353.81821 319.042187) scale(0.1 -0.1)">
       <defs>
        <path id="DejaVuSans-31" d="M 794 531 
L 1825 531 
L 1825 4091 
L 703 3866 
L 703 4441 
L 1819 4666 
L 2450 4666 
L 2450 531 
L 3481 531 
L 3481 0 
L 794 0 
L 794 531 
z
" transform="scale(0.015625)"/>
       </defs>
       <use xlink:href="#DejaVuSans-31"/>
       <use xlink:href="#DejaVuSans-30" transform="translate(63.623047 0)"/>
       <use xlink:href="#DejaVuSans-30" transform="translate(127.246094 0)"/>
       <use xlink:href="#DejaVuSans-30" transform="translate(190.869141 0)"/>
       <use xlink:href="#DejaVuSans-30" transform="translate(254.492188 0)"/>
      </g>
     </g>
    </g>
    <g id="text_7">
     <!-- n runs -->
     <g transform="translate(201.988594 332.720312) scale(0.1 -0.1)">
      <defs>
       <path id="DejaVuSans-6e" d="M 3513 2113 
L 3513 0 
L 2938 0 
L 2938 2094 
Q 2938 2591 2744 2837 
Q 2550 3084 2163 3084 
Q 1697 3084 1428 2787 
Q 1159 2491 1159 1978 
L 1159 0 
L 581 0 
L 581 3500 
L 1159 3500 
L 1159 2956 
Q 1366 3272 1645 3428 
Q 1925 3584 2291 3584 
Q 2894 3584 3203 3211 
Q 3513 2838 3513 2113 
z
" transform="scale(0.015625)"/>
       <path id="DejaVuSans-20" transform="scale(0.015625)"/>
       <path id="DejaVuSans-72" d="M 2631 2963 
Q 2534 3019 2420 3045 
Q 2306 3072 2169 3072 
Q 1681 3072 1420 2755 
Q 1159 2438 1159 1844 
L 1159 0 
L 581 0 
L 581 3500 
L 1159 3500 
L 1159 2956 
Q 1341 3275 1631 3429 
Q 1922 3584 2338 3584 
Q 2397 3584 2469 3576 
Q 2541 3569 2628 3553 
L 2631 2963 
z
" transform="scale(0.015625)"/>
       <path id="DejaVuSans-75" d="M 544 1381 
L 544 3500 
L 1119 3500 
L 1119 1403 
Q 1119 906 1312 657 
Q 1506 409 1894 409 
Q 2359 409 2629 706 
Q 2900 1003 2900 1516 
L 2900 3500 
L 3475 3500 
L 3475 0 
L 2900 0 
L 2900 538 
Q 2691 219 2414 64 
Q 2138 -91 1772 -91 
Q 1169 -91 856 284 
Q 544 659 544 1381 
z
M 1991 3584 
L 1991 3584 
z
" transform="scale(0.015625)"/>
       <path id="DejaVuSans-73" d="M 2834 3397 
L 2834 2853 
Q 2591 2978 2328 3040 
Q 2066 3103 1784 3103 
Q 1356 3103 1142 2972 
Q 928 2841 928 2578 
Q 928 2378 1081 2264 
Q 1234 2150 1697 2047 
L 1894 2003 
Q 2506 1872 2764 1633 
Q 3022 1394 3022 966 
Q 3022 478 2636 193 
Q 2250 -91 1575 -91 
Q 1294 -91 989 -36 
Q 684 19 347 128 
L 347 722 
Q 666 556 975 473 
Q 1284 391 1588 391 
Q 1994 391 2212 530 
Q 2431 669 2431 922 
Q 2431 1156 2273 1281 
Q 2116 1406 1581 1522 
L 1381 1569 
Q 847 1681 609 1914 
Q 372 2147 372 2553 
Q 372 3047 722 3315 
Q 1072 3584 1716 3584 
Q 2034 3584 2315 3537 
Q 2597 3491 2834 3397 
z
" transform="scale(0.015625)"/>
      </defs>
      <use xlink:href="#DejaVuSans-6e"/>
      <use xlink:href="#DejaVuSans-20" transform="translate(63.378906 0)"/>
      <use xlink:href="#DejaVuSans-72" transform="translate(95.166016 0)"/>
      <use xlink:href="#DejaVuSans-75" transform="translate(136.279297 0)"/>
      <use xlink:href="#DejaVuSans-6e" transform="translate(199.658203 0)"/>
      <use xlink:href="#DejaVuSans-73" transform="translate(263.037109 0)"/>
     </g>
    </g>
   </g>
   <g id="matplotlib.axis_2">
    <g id="ytick_1">
     <g id="line2d_7">
      <defs>
       <path id="mebcd677a11" d="M 0 0 
L -3.5 0 
" style="stroke: #000000; stroke-width: 0.8"/>
      </defs>
      <g>
       <use xlink:href="#mebcd677a11" x="50.565625" y="292.768566" style="stroke: #000000; stroke-width: 0.8"/>
      </g>
     </g>
     <g id="text_8">
      <!-- 0 -->
      <g transform="translate(37.203125 296.567785) scale(0.1 -0.1)">
       <use xlink:href="#DejaVuSans-30"/>
      </g>
     </g>
    </g>
    <g id="ytick_2">
     <g id="line2d_8">
      <g>
       <use xlink:href="#mebcd677a11" x="50.565625" y="253.057057" style="stroke: #000000; stroke-width: 0.8"/>
      </g>
     </g>
     <g id="text_9">
      <!-- 100 -->
      <g transform="translate(24.478125 256.856275) scale(0.1 -0.1)">
       <use xlink:href="#DejaVuSans-31"/>
       <use xlink:href="#DejaVuSans-30" transform="translate(63.623047 0)"/>
       <use xlink:href="#DejaVuSans-30" transform="translate(127.246094 0)"/>
      </g>
     </g>
    </g>
    <g id="ytick_3">
     <g id="line2d_9">
      <g>
       <use xlink:href="#mebcd677a11" x="50.565625" y="213.345547" style="stroke: #000000; stroke-width: 0.8"/>
      </g>
     </g>
     <g id="text_10">
      <!-- 200 -->
      <g transform="translate(24.478125 217.144766) scale(0.1 -0.1)">
       <use xlink:href="#DejaVuSans-32"/>
       <use xlink:href="#DejaVuSans-30" transform="translate(63.623047 0)"/>
       <use xlink:href="#DejaVuSans-30" transform="translate(127.246094 0)"/>
      </g>
     </g>
    </g>
    <g id="ytick_4">
     <g id="line2d_10">
      <g>
       <use xlink:href="#mebcd677a11" x="50.565625" y="173.634038" style="stroke: #000000; stroke-width: 0.8"/>
      </g>
     </g>
     <g id="text_11">
      <!-- 300 -->
      <g transform="translate(24.478125 177.433256) scale(0.1 -0.1)">
       <defs>
        <path id="DejaVuSans-33" d="M 2597 2516 
Q 3050 2419 3304 2112 
Q 3559 1806 3559 1356 
Q 3559 666 3084 287 
Q 2609 -91 1734 -91 
Q 1441 -91 1130 -33 
Q 819 25 488 141 
L 488 750 
Q 750 597 1062 519 
Q 1375 441 1716 441 
Q 2309 441 2620 675 
Q 2931 909 2931 1356 
Q 2931 1769 2642 2001 
Q 2353 2234 1838 2234 
L 1294 2234 
L 1294 2753 
L 1863 2753 
Q 2328 2753 2575 2939 
Q 2822 3125 2822 3475 
Q 2822 3834 2567 4026 
Q 2313 4219 1838 4219 
Q 1578 4219 1281 4162 
Q 984 4106 628 3988 
L 628 4550 
Q 988 4650 1302 4700 
Q 1616 4750 1894 4750 
Q 2613 4750 3031 4423 
Q 3450 4097 3450 3541 
Q 3450 3153 3228 2886 
Q 3006 2619 2597 2516 
z
" transform="scale(0.015625)"/>
       </defs>
       <use xlink:href="#DejaVuSans-33"/>
       <use xlink:href="#DejaVuSans-30" transform="translate(63.623047 0)"/>
       <use xlink:href="#DejaVuSans-30" transform="translate(127.246094 0)"/>
      </g>
     </g>
    </g>
    <g id="ytick_5">
     <g id="line2d_11">
      <g>
       <use xlink:href="#mebcd677a11" x="50.565625" y="133.922528" style="stroke: #000000; stroke-width: 0.8"/>
      </g>
     </g>
     <g id="text_12">
      <!-- 400 -->
      <g transform="translate(24.478125 137.721747) scale(0.1 -0.1)">
       <use xlink:href="#DejaVuSans-34"/>
       <use xlink:href="#DejaVuSans-30" transform="translate(63.623047 0)"/>
       <use xlink:href="#DejaVuSans-30" transform="translate(127.246094 0)"/>
      </g>
     </g>
    </g>
    <g id="ytick_6">
     <g id="line2d_12">
      <g>
       <use xlink:href="#mebcd677a11" x="50.565625" y="94.211019" style="stroke: #000000; stroke-width: 0.8"/>
      </g>
     </g>
     <g id="text_13">
      <!-- 500 -->
      <g transform="translate(24.478125 98.010237) scale(0.1 -0.1)">
       <defs>
        <path id="DejaVuSans-35" d="M 691 4666 
L 3169 4666 
L 3169 4134 
L 1269 4134 
L 1269 2991 
Q 1406 3038 1543 3061 
Q 1681 3084 1819 3084 
Q 2600 3084 3056 2656 
Q 3513 2228 3513 1497 
Q 3513 744 3044 326 
Q 2575 -91 1722 -91 
Q 1428 -91 1123 -41 
Q 819 9 494 109 
L 494 744 
Q 775 591 1075 516 
Q 1375 441 1709 441 
Q 2250 441 2565 725 
Q 2881 1009 2881 1497 
Q 2881 1984 2565 2268 
Q 2250 2553 1709 2553 
Q 1456 2553 1204 2497 
Q 953 2441 691 2322 
L 691 4666 
z
" transform="scale(0.015625)"/>
       </defs>
       <use xlink:href="#DejaVuSans-35"/>
       <use xlink:href="#DejaVuSans-30" transform="translate(63.623047 0)"/>
       <use xlink:href="#DejaVuSans-30" transform="translate(127.246094 0)"/>
      </g>
     </g>
    </g>
    <g id="ytick_7">
     <g id="line2d_13">
      <g>
       <use xlink:href="#mebcd677a11" x="50.565625" y="54.499509" style="stroke: #000000; stroke-width: 0.8"/>
      </g>
     </g>
     <g id="text_14">
      <!-- 600 -->
      <g transform="translate(24.478125 58.298728) scale(0.1 -0.1)">
       <use xlink:href="#DejaVuSans-36"/>
       <use xlink:href="#DejaVuSans-30" transform="translate(63.623047 0)"/>
       <use xlink:href="#DejaVuSans-30" transform="translate(127.246094 0)"/>
      </g>
     </g>
    </g>
    <g id="ytick_8">
     <g id="line2d_14">
      <g>
       <use xlink:href="#mebcd677a11" x="50.565625" y="14.788" style="stroke: #000000; stroke-width: 0.8"/>
      </g>
     </g>
     <g id="text_15">
      <!-- 700 -->
      <g transform="translate(24.478125 18.587218) scale(0.1 -0.1)">
       <defs>
        <path id="DejaVuSans-37" d="M 525 4666 
L 3525 4666 
L 3525 4397 
L 1831 0 
L 1172 0 
L 2766 4134 
L 525 4134 
L 525 4666 
z
" transform="scale(0.015625)"/>
       </defs>
       <use xlink:href="#DejaVuSans-37"/>
       <use xlink:href="#DejaVuSans-30" transform="translate(63.623047 0)"/>
       <use xlink:href="#DejaVuSans-30" transform="translate(127.246094 0)"/>
      </g>
     </g>
    </g>
    <g id="text_16">
     <!-- time (ms) -->
     <g transform="translate(18.398438 182.805383) rotate(-90) scale(0.1 -0.1)">
      <defs>
       <path id="DejaVuSans-74" d="M 1172 4494 
L 1172 3500 
L 2356 3500 
L 2356 3053 
L 1172 3053 
L 1172 1153 
Q 1172 725 1289 603 
Q 1406 481 1766 481 
L 2356 481 
L 2356 0 
L 1766 0 
Q 1100 0 847 248 
Q 594 497 594 1153 
L 594 3053 
L 172 3053 
L 172 3500 
L 594 3500 
L 594 4494 
L 1172 4494 
z
" transform="scale(0.015625)"/>
       <path id="DejaVuSans-69" d="M 603 3500 
L 1178 3500 
L 1178 0 
L 603 0 
L 603 3500 
z
M 603 4863 
L 1178 4863 
L 1178 4134 
L 603 4134 
L 603 4863 
z
" transform="scale(0.015625)"/>
       <path id="DejaVuSans-6d" d="M 3328 2828 
Q 3544 3216 3844 3400 
Q 4144 3584 4550 3584 
Q 5097 3584 5394 3201 
Q 5691 2819 5691 2113 
L 5691 0 
L 5113 0 
L 5113 2094 
Q 5113 2597 4934 2840 
Q 4756 3084 4391 3084 
Q 3944 3084 3684 2787 
Q 3425 2491 3425 1978 
L 3425 0 
L 2847 0 
L 2847 2094 
Q 2847 2600 2669 2842 
Q 2491 3084 2119 3084 
Q 1678 3084 1418 2786 
Q 1159 2488 1159 1978 
L 1159 0 
L 581 0 
L 581 3500 
L 1159 3500 
L 1159 2956 
Q 1356 3278 1631 3431 
Q 1906 3584 2284 3584 
Q 2666 3584 2933 3390 
Q 3200 3197 3328 2828 
z
" transform="scale(0.015625)"/>
       <path id="DejaVuSans-65" d="M 3597 1894 
L 3597 1613 
L 953 1613 
Q 991 1019 1311 708 
Q 1631 397 2203 397 
Q 2534 397 2845 478 
Q 3156 559 3463 722 
L 3463 178 
Q 3153 47 2828 -22 
Q 2503 -91 2169 -91 
Q 1331 -91 842 396 
Q 353 884 353 1716 
Q 353 2575 817 3079 
Q 1281 3584 2069 3584 
Q 2775 3584 3186 3129 
Q 3597 2675 3597 1894 
z
M 3022 2063 
Q 3016 2534 2758 2815 
Q 2500 3097 2075 3097 
Q 1594 3097 1305 2825 
Q 1016 2553 972 2059 
L 3022 2063 
z
" transform="scale(0.015625)"/>
       <path id="DejaVuSans-28" d="M 1984 4856 
Q 1566 4138 1362 3434 
Q 1159 2731 1159 2009 
Q 1159 1288 1364 580 
Q 1569 -128 1984 -844 
L 1484 -844 
Q 1016 -109 783 600 
Q 550 1309 550 2009 
Q 550 2706 781 3412 
Q 1013 4119 1484 4856 
L 1984 4856 
z
" transform="scale(0.015625)"/>
       <path id="DejaVuSans-29" d="M 513 4856 
L 1013 4856 
Q 1481 4119 1714 3412 
Q 1947 2706 1947 2009 
Q 1947 1309 1714 600 
Q 1481 -109 1013 -844 
L 513 -844 
Q 928 -128 1133 580 
Q 1338 1288 1338 2009 
Q 1338 2731 1133 3434 
Q 928 4138 513 4856 
z
" transform="scale(0.015625)"/>
      </defs>
      <use xlink:href="#DejaVuSans-74"/>
      <use xlink:href="#DejaVuSans-69" transform="translate(39.208984 0)"/>
      <use xlink:href="#DejaVuSans-6d" transform="translate(66.992188 0)"/>
      <use xlink:href="#DejaVuSans-65" transform="translate(164.404297 0)"/>
      <use xlink:href="#DejaVuSans-20" transform="translate(225.927734 0)"/>
      <use xlink:href="#DejaVuSans-28" transform="translate(257.714844 0)"/>
      <use xlink:href="#DejaVuSans-6d" transform="translate(296.728516 0)"/>
      <use xlink:href="#DejaVuSans-73" transform="translate(394.140625 0)"/>
      <use xlink:href="#DejaVuSans-29" transform="translate(446.240234 0)"/>
     </g>
    </g>
   </g>
   <g id="line2d_15">
    <path d="M 65.763665 269.735891 
L 66.037257 269.735891 
L 66.341248 268.14743 
L 66.645239 268.14743 
L 66.94923 267.750315 
L 67.253222 266.956085 
L 67.557213 267.3532 
L 67.861204 266.161855 
L 68.165195 266.161855 
L 68.469186 263.779164 
L 68.773178 263.382049 
L 71.81309 263.382049 
L 74.853001 261.396474 
L 77.892913 260.205128 
L 80.932825 258.219553 
L 83.972737 257.028208 
L 87.012649 255.439747 
L 90.052561 254.645517 
L 93.092473 250.277251 
L 96.132385 249.483021 
L 99.172297 250.674366 
L 102.212209 249.880136 
L 105.252121 246.3061 
L 108.292033 249.085906 
L 111.331945 243.129179 
L 114.371857 246.703215 
L 117.411769 244.71764 
L 120.451681 242.334949 
L 123.491593 243.129179 
L 126.531505 241.540719 
L 129.571417 239.555143 
L 132.611328 241.143604 
L 135.65124 236.775338 
L 138.691152 235.981108 
L 141.731064 240.349374 
L 144.770976 241.143604 
L 147.810888 236.378223 
L 150.8508 239.158028 
L 153.890712 236.775338 
L 156.930624 238.363798 
L 159.970536 236.775338 
L 163.010448 237.172453 
L 166.05036 236.775338 
L 169.090272 230.421496 
L 172.130184 236.775338 
L 175.170096 235.981108 
L 178.210008 232.804187 
L 181.24992 235.981108 
L 184.289832 235.981108 
L 187.329743 235.186877 
L 190.369655 235.583992 
L 193.409567 234.392647 
L 196.449479 234.392647 
L 199.489391 233.995532 
L 202.529303 232.804187 
L 205.569215 235.186877 
L 208.609127 233.598417 
L 211.649039 232.009957 
L 214.688951 231.612842 
L 217.728863 233.995532 
L 220.768775 233.201302 
L 223.808687 233.201302 
L 226.848599 233.201302 
L 229.888511 232.009957 
L 232.928423 229.230151 
L 235.968335 232.407072 
L 239.008247 228.833036 
L 242.048159 226.84746 
L 245.08807 227.244575 
L 248.127982 216.522468 
L 251.167894 230.818611 
L 254.207806 223.273425 
L 257.247718 229.230151 
L 260.28763 226.450345 
L 263.327542 229.627266 
L 266.367454 226.84746 
L 269.407366 228.038806 
L 272.447278 230.024381 
L 275.48719 227.244575 
L 278.527102 227.244575 
L 281.567014 227.244575 
L 284.606926 227.244575 
L 287.646838 224.067655 
L 290.68675 228.833036 
L 293.726662 229.230151 
L 296.766574 227.244575 
L 299.806485 227.641691 
L 302.846397 227.244575 
L 305.886309 227.641691 
L 308.926221 227.641691 
L 311.966133 222.876309 
L 315.006045 226.450345 
L 318.045957 226.05323 
L 321.085869 224.067655 
L 324.125781 225.259 
L 327.165693 224.861885 
L 330.205605 223.67054 
L 333.245517 219.302274 
L 336.285429 226.450345 
L 339.325341 221.287849 
L 342.365253 223.273425 
L 345.405165 224.861885 
L 348.445077 222.876309 
L 351.484989 221.287849 
L 354.5249 212.154202 
L 357.564812 223.67054 
L 360.604724 224.46477 
L 363.644636 223.273425 
L 366.684548 222.876309 
L 369.72446 204.609015 
" clip-path="url(#pa7986eeca8)" style="fill: none; stroke: #1f77b4; stroke-width: 1.5; stroke-linecap: square"/>
   </g>
   <g id="line2d_16">
    <path d="M 65.763665 290.385876 
L 66.037257 289.988761 
L 66.341248 288.797415 
L 66.645239 288.003185 
L 66.94923 288.4003 
L 67.253222 288.4003 
L 67.557213 288.4003 
L 67.861204 288.003185 
L 68.165195 287.60607 
L 68.469186 287.208955 
L 68.773178 287.208955 
L 71.81309 285.620494 
L 74.853001 284.826264 
L 77.892913 284.032034 
L 80.932825 282.840689 
L 83.972737 281.649344 
L 87.012649 281.649344 
L 90.052561 280.457998 
L 93.092473 279.663768 
L 96.132385 279.266653 
L 99.172297 278.472423 
L 102.212209 276.883962 
L 105.252121 272.912811 
L 108.292033 275.692617 
L 111.331945 271.324351 
L 114.371857 276.089732 
L 117.411769 274.898387 
L 120.451681 275.295502 
L 123.491593 276.089732 
L 126.531505 274.898387 
L 129.571417 274.898387 
L 132.611328 274.898387 
L 135.65124 274.104157 
L 138.691152 272.118581 
L 141.731064 273.707042 
L 144.770976 273.309927 
L 147.810888 273.707042 
L 150.8508 272.118581 
L 153.890712 271.721466 
L 156.930624 272.912811 
L 159.970536 272.515696 
L 163.010448 272.118581 
L 166.05036 272.118581 
L 169.090272 272.118581 
L 172.130184 271.721466 
L 175.170096 271.324351 
L 178.210008 271.721466 
L 181.24992 272.515696 
L 184.289832 270.530121 
L 187.329743 270.927236 
L 190.369655 270.530121 
L 193.409567 270.133006 
L 196.449479 271.324351 
L 199.489391 271.721466 
L 202.529303 269.735891 
L 205.569215 269.735891 
L 208.609127 269.735891 
L 211.649039 269.735891 
L 214.688951 269.338776 
L 217.728863 269.338776 
L 220.768775 267.3532 
L 223.808687 268.94166 
L 226.848599 268.94166 
L 229.888511 267.3532 
L 232.928423 264.176279 
L 235.968335 266.55897 
L 239.008247 266.55897 
L 242.048159 266.956085 
L 245.08807 267.750315 
L 248.127982 266.55897 
L 251.167894 265.367625 
L 254.207806 266.55897 
L 257.247718 264.97051 
L 260.28763 266.55897 
L 263.327542 264.573394 
L 266.367454 265.76474 
L 269.407366 264.573394 
L 272.447278 264.573394 
L 275.48719 264.573394 
L 278.527102 264.573394 
L 281.567014 264.176279 
L 284.606926 265.76474 
L 287.646838 264.97051 
L 290.68675 264.573394 
L 293.726662 263.779164 
L 296.766574 263.779164 
L 299.806485 261.793589 
L 302.846397 264.176279 
L 305.886309 263.779164 
L 308.926221 262.984934 
L 311.966133 260.205128 
L 315.006045 263.382049 
L 318.045957 262.984934 
L 321.085869 260.602243 
L 324.125781 262.587819 
L 327.165693 262.190704 
L 330.205605 261.793589 
L 333.245517 262.587819 
L 336.285429 261.396474 
L 339.325341 259.808013 
L 342.365253 257.822438 
L 345.405165 257.822438 
L 348.445077 259.410898 
L 351.484989 260.999359 
L 354.5249 260.999359 
L 357.564812 260.999359 
L 360.604724 259.808013 
L 363.644636 260.602243 
L 366.684548 261.396474 
L 369.72446 258.616668 
" clip-path="url(#pa7986eeca8)" style="fill: none; stroke: #ff7f0e; stroke-width: 1.5; stroke-linecap: square"/>
   </g>
   <g id="line2d_17">
    <path d="M 65.763665 286.01761 
L 66.037257 285.620494 
L 66.341248 284.826264 
L 66.645239 284.032034 
L 66.94923 284.032034 
L 67.253222 282.840689 
L 67.557213 282.443574 
L 67.861204 281.649344 
L 68.165195 281.649344 
L 68.469186 281.252228 
L 68.773178 280.060883 
L 71.81309 276.089732 
L 74.853001 271.721466 
L 77.892913 266.161855 
L 80.932825 262.190704 
L 83.972737 260.205128 
L 87.012649 253.851287 
L 90.052561 254.645517 
L 93.092473 251.468596 
L 96.132385 249.085906 
L 99.172297 245.114755 
L 102.212209 240.746489 
L 105.252121 243.526294 
L 108.292033 239.158028 
L 111.331945 230.024381 
L 114.371857 227.641691 
L 117.411769 232.804187 
L 120.451681 229.230151 
L 123.491593 229.627266 
L 126.531505 226.05323 
L 129.571417 221.287849 
L 132.611328 222.479194 
L 135.65124 216.919583 
L 138.691152 218.905158 
L 141.731064 219.302274 
L 144.770976 216.919583 
L 147.810888 211.757087 
L 150.8508 212.551317 
L 153.890712 211.359972 
L 156.930624 207.388821 
L 159.970536 206.991706 
L 163.010448 203.814785 
L 166.05036 202.226324 
L 169.090272 200.240749 
L 172.130184 199.843634 
L 175.170096 197.063828 
L 178.210008 193.489792 
L 181.24992 192.298447 
L 184.289832 191.107102 
L 187.329743 188.327296 
L 190.369655 185.944606 
L 193.409567 183.95903 
L 196.449479 183.95903 
L 199.489391 182.37057 
L 202.529303 181.57634 
L 205.569215 176.810958 
L 208.609127 176.413843 
L 211.649039 174.825383 
L 214.688951 171.251347 
L 217.728863 168.471541 
L 220.768775 168.471541 
L 223.808687 167.280196 
L 226.848599 165.294621 
L 229.888511 164.50039 
L 232.928423 159.735009 
L 235.968335 158.940779 
L 239.008247 157.749434 
L 242.048159 154.175398 
L 245.08807 148.218672 
L 248.127982 150.601362 
L 251.167894 150.601362 
L 254.207806 143.45329 
L 257.247718 146.233096 
L 260.28763 145.438866 
L 263.327542 142.261945 
L 266.367454 141.0706 
L 269.407366 141.0706 
L 272.447278 136.702334 
L 275.48719 133.128298 
L 278.527102 129.951377 
L 281.567014 129.157147 
L 284.606926 114.463888 
L 287.646838 129.951377 
L 290.68675 129.554262 
L 293.726662 124.788881 
L 296.766574 123.994651 
L 299.806485 123.200421 
L 302.846397 119.626385 
L 305.886309 120.420615 
L 308.926221 117.243694 
L 311.966133 119.626385 
L 315.006045 113.272543 
L 318.045957 111.286968 
L 321.085869 109.301392 
L 324.125781 110.095622 
L 327.165693 109.301392 
L 330.205605 106.124471 
L 333.245517 100.961975 
L 336.285429 101.35909 
L 339.325341 98.18217 
L 342.365253 92.225443 
L 345.405165 93.019673 
L 348.445077 96.196594 
L 351.484989 87.062947 
L 354.5249 85.871602 
L 357.564812 85.077371 
L 360.604724 87.460062 
L 363.644636 84.283141 
L 366.684548 83.488911 
L 369.72446 65.221617 
" clip-path="url(#pa7986eeca8)" style="fill: none; stroke: #2ca02c; stroke-width: 1.5; stroke-linecap: square"/>
   </g>
   <g id="line2d_18">
    <path d="M 65.763665 63.236041 
L 66.037257 58.47066 
L 66.341248 66.412962 
L 66.645239 61.250466 
L 66.94923 63.236041 
L 67.253222 64.030271 
L 67.557213 60.456235 
L 67.861204 61.647581 
L 68.165195 56.8822 
L 68.469186 62.838926 
L 68.773178 63.236041 
L 71.81309 63.236041 
L 74.853001 61.647581 
L 77.892913 52.911049 
L 80.932825 55.293739 
L 83.972737 57.279315 
L 87.012649 56.087969 
L 90.052561 26.304337 
L 93.092473 51.719703 
L 96.132385 50.131243 
L 99.172297 48.145668 
L 102.212209 50.528358 
L 105.252121 47.351437 
L 108.292033 37.42356 
L 111.331945 50.528358 
L 114.371857 50.925473 
L 117.411769 51.719703 
L 120.451681 54.499509 
L 123.491593 53.705279 
L 126.531505 54.499509 
L 129.571417 57.67643 
L 132.611328 55.690854 
L 135.65124 51.322588 
L 138.691152 57.67643 
L 141.731064 50.925473 
L 144.770976 50.925473 
L 147.810888 52.513934 
L 150.8508 52.513934 
L 153.890712 54.102394 
L 156.930624 50.528358 
L 159.970536 53.308164 
L 163.010448 48.542783 
L 166.05036 52.911049 
L 169.090272 54.499509 
L 172.130184 51.322588 
L 175.170096 55.690854 
L 178.210008 47.748552 
L 181.24992 39.806251 
L 184.289832 49.734128 
L 187.329743 36.232215 
L 190.369655 43.777401 
L 193.409567 51.322588 
L 196.449479 55.293739 
L 199.489391 41.791826 
L 202.529303 43.380286 
L 205.569215 51.322588 
L 208.609127 50.925473 
L 211.649039 52.116818 
L 214.688951 52.116818 
L 217.728863 44.571632 
L 220.768775 54.896624 
L 223.808687 52.513934 
L 226.848599 52.116818 
L 229.888511 50.528358 
L 232.928423 55.293739 
L 235.968335 42.983171 
L 239.008247 46.557207 
L 242.048159 44.571632 
L 245.08807 51.719703 
L 248.127982 43.380286 
L 251.167894 39.01202 
L 254.207806 46.160092 
L 257.247718 39.409135 
L 260.28763 44.968747 
L 263.327542 45.365862 
L 266.367454 36.232215 
L 269.407366 42.983171 
L 272.447278 40.997596 
L 275.48719 39.409135 
L 278.527102 44.571632 
L 281.567014 40.997596 
L 284.606926 44.174517 
L 287.646838 46.160092 
L 290.68675 47.748552 
L 293.726662 50.925473 
L 296.766574 37.820675 
L 299.806485 50.528358 
L 302.846397 47.748552 
L 305.886309 50.925473 
L 308.926221 47.748552 
L 311.966133 45.365862 
L 315.006045 52.116818 
L 318.045957 46.160092 
L 321.085869 46.954322 
L 324.125781 42.188941 
L 327.165693 45.365862 
L 330.205605 48.939898 
L 333.245517 46.557207 
L 336.285429 37.820675 
L 339.325341 50.528358 
L 342.365253 42.586056 
L 345.405165 36.232215 
L 348.445077 48.145668 
L 351.484989 50.925473 
L 354.5249 44.571632 
L 357.564812 48.939898 
L 360.604724 48.542783 
L 363.644636 47.351437 
L 366.684548 49.734128 
L 369.72446 25.907222 
" clip-path="url(#pa7986eeca8)" style="fill: none; stroke: #d62728; stroke-width: 1.5; stroke-linecap: square"/>
   </g>
   <g id="line2d_19">
    <path d="M 65.763665 291.180106 
L 66.037257 289.988761 
L 66.341248 289.988761 
L 66.645239 289.19453 
L 66.94923 289.591645 
L 67.253222 289.19453 
L 67.557213 288.797415 
L 67.861204 288.797415 
L 68.165195 288.797415 
L 68.469186 288.4003 
L 68.773178 288.003185 
L 71.81309 286.81184 
L 74.853001 285.620494 
L 77.892913 285.223379 
L 80.932825 284.429149 
L 83.972737 283.634919 
L 87.012649 283.237804 
L 90.052561 283.237804 
L 93.092473 281.649344 
L 96.132385 282.046459 
L 99.172297 278.869538 
L 102.212209 280.457998 
L 105.252121 281.252228 
L 108.292033 280.855113 
L 111.331945 279.663768 
L 114.371857 279.663768 
L 117.411769 280.457998 
L 120.451681 281.252228 
L 123.491593 280.457998 
L 126.531505 279.663768 
L 129.571417 280.457998 
L 132.611328 280.060883 
L 135.65124 278.869538 
L 138.691152 278.869538 
L 141.731064 279.266653 
L 144.770976 279.266653 
L 147.810888 278.869538 
L 150.8508 278.075308 
L 153.890712 278.869538 
L 156.930624 277.678193 
L 159.970536 278.472423 
L 163.010448 278.075308 
L 166.05036 277.678193 
L 169.090272 277.678193 
L 172.130184 277.678193 
L 175.170096 276.883962 
L 178.210008 277.678193 
L 181.24992 276.486847 
L 184.289832 276.883962 
L 187.329743 276.089732 
L 190.369655 276.089732 
L 193.409567 276.089732 
L 196.449479 276.089732 
L 199.489391 276.486847 
L 202.529303 276.089732 
L 205.569215 275.295502 
L 208.609127 274.898387 
L 211.649039 274.898387 
L 214.688951 274.898387 
L 217.728863 274.898387 
L 220.768775 274.898387 
L 223.808687 273.707042 
L 226.848599 274.898387 
L 229.888511 274.104157 
L 232.928423 274.898387 
L 235.968335 274.104157 
L 239.008247 274.104157 
L 242.048159 273.309927 
L 245.08807 272.912811 
L 248.127982 272.912811 
L 251.167894 272.515696 
L 254.207806 272.912811 
L 257.247718 273.309927 
L 260.28763 272.515696 
L 263.327542 272.912811 
L 266.367454 271.721466 
L 269.407366 272.118581 
L 272.447278 269.735891 
L 275.48719 270.927236 
L 278.527102 271.324351 
L 281.567014 271.324351 
L 284.606926 270.133006 
L 287.646838 270.927236 
L 290.68675 270.927236 
L 293.726662 271.324351 
L 296.766574 270.530121 
L 299.806485 270.133006 
L 302.846397 270.133006 
L 305.886309 270.927236 
L 308.926221 269.735891 
L 311.966133 270.133006 
L 315.006045 270.133006 
L 318.045957 269.338776 
L 321.085869 268.94166 
L 324.125781 269.735891 
L 327.165693 269.735891 
L 330.205605 269.338776 
L 333.245517 268.544545 
L 336.285429 268.94166 
L 339.325341 266.956085 
L 342.365253 268.14743 
L 345.405165 267.3532 
L 348.445077 268.14743 
L 351.484989 267.750315 
L 354.5249 267.750315 
L 357.564812 268.14743 
L 360.604724 267.750315 
L 363.644636 266.956085 
L 366.684548 252.262826 
L 369.72446 266.55897 
" clip-path="url(#pa7986eeca8)" style="fill: none; stroke: #9467bd; stroke-width: 1.5; stroke-linecap: square"/>
   </g>
   <g id="line2d_20">
    <path d="M 65.763665 224.861885 
L 66.037257 237.172453 
L 66.341248 235.186877 
L 66.645239 227.641691 
L 66.94923 223.273425 
L 67.253222 230.818611 
L 67.557213 226.05323 
L 67.861204 225.259 
L 68.165195 226.05323 
L 68.469186 230.818611 
L 68.773178 228.833036 
L 71.81309 224.067655 
L 74.853001 230.421496 
L 77.892913 219.302274 
L 80.932825 228.435921 
L 83.972737 217.316698 
L 87.012649 218.110928 
L 90.052561 215.728238 
L 93.092473 211.359972 
L 96.132385 218.508043 
L 99.172297 215.331123 
L 102.212209 212.948432 
L 105.252121 222.479194 
L 108.292033 212.948432 
L 111.331945 209.771511 
L 114.371857 218.905158 
L 117.411769 209.374396 
L 120.451681 216.125353 
L 123.491593 207.785936 
L 126.531505 211.359972 
L 129.571417 210.565741 
L 132.611328 210.565741 
L 135.65124 206.991706 
L 138.691152 212.551317 
L 141.731064 214.139777 
L 144.770976 212.948432 
L 147.810888 205.403245 
L 150.8508 209.771511 
L 153.890712 213.345547 
L 156.930624 209.374396 
L 159.970536 208.977281 
L 163.010448 208.183051 
L 166.05036 206.991706 
L 169.090272 210.168626 
L 172.130184 212.948432 
L 175.170096 208.580166 
L 178.210008 199.446519 
L 181.24992 206.991706 
L 184.289832 192.695562 
L 187.329743 205.00613 
L 190.369655 208.580166 
L 193.409567 203.020555 
L 196.449479 209.771511 
L 199.489391 210.962857 
L 202.529303 207.785936 
L 205.569215 206.197475 
L 208.609127 206.197475 
L 211.649039 201.432094 
L 214.688951 203.814785 
L 217.728863 203.41767 
L 220.768775 198.652289 
L 223.808687 215.728238 
L 226.848599 201.829209 
L 229.888511 211.757087 
L 232.928423 207.785936 
L 235.968335 198.255174 
L 239.008247 203.41767 
L 242.048159 203.814785 
L 245.08807 200.240749 
L 248.127982 211.359972 
L 251.167894 197.460943 
L 254.207806 198.652289 
L 257.247718 195.872483 
L 260.28763 203.020555 
L 263.327542 198.255174 
L 266.367454 201.034979 
L 269.407366 205.403245 
L 272.447278 196.666713 
L 275.48719 197.858058 
L 278.527102 207.388821 
L 281.567014 197.858058 
L 284.606926 211.359972 
L 287.646838 199.446519 
L 290.68675 201.432094 
L 293.726662 200.240749 
L 296.766574 200.240749 
L 299.806485 201.034979 
L 302.846397 199.446519 
L 305.886309 203.41767 
L 308.926221 203.020555 
L 311.966133 202.226324 
L 315.006045 203.41767 
L 318.045957 197.460943 
L 321.085869 202.62344 
L 324.125781 205.00613 
L 327.165693 205.80036 
L 330.205605 196.269598 
L 333.245517 201.432094 
L 336.285429 194.284023 
L 339.325341 199.049404 
L 342.365253 200.240749 
L 345.405165 208.183051 
L 348.445077 201.829209 
L 351.484989 199.446519 
L 354.5249 205.403245 
L 357.564812 199.049404 
L 360.604724 198.255174 
L 363.644636 210.168626 
L 366.684548 163.70616 
L 369.72446 185.944606 
" clip-path="url(#pa7986eeca8)" style="fill: none; stroke: #8c564b; stroke-width: 1.5; stroke-linecap: square"/>
   </g>
   <g id="line2d_21">
    <path d="M 65.763665 279.663768 
L 66.037257 280.457998 
L 66.341248 279.266653 
L 66.645239 279.266653 
L 66.94923 279.663768 
L 67.253222 278.869538 
L 67.557213 278.472423 
L 67.861204 278.075308 
L 68.165195 278.472423 
L 68.469186 278.869538 
L 68.773178 271.721466 
L 71.81309 277.281077 
L 74.853001 276.883962 
L 77.892913 268.94166 
L 80.932825 274.501272 
L 83.972737 272.515696 
L 87.012649 274.104157 
L 90.052561 272.912811 
L 93.092473 272.118581 
L 96.132385 272.118581 
L 99.172297 271.721466 
L 102.212209 270.133006 
L 105.252121 266.55897 
L 108.292033 270.927236 
L 111.331945 269.735891 
L 114.371857 262.587819 
L 117.411769 269.735891 
L 120.451681 263.382049 
L 123.491593 268.94166 
L 126.531505 268.94166 
L 129.571417 268.544545 
L 132.611328 269.735891 
L 135.65124 268.544545 
L 138.691152 265.76474 
L 141.731064 268.544545 
L 144.770976 268.14743 
L 147.810888 268.544545 
L 150.8508 266.55897 
L 153.890712 267.750315 
L 156.930624 268.14743 
L 159.970536 268.14743 
L 163.010448 267.3532 
L 166.05036 266.956085 
L 169.090272 267.3532 
L 172.130184 267.3532 
L 175.170096 264.573394 
L 178.210008 266.956085 
L 181.24992 266.55897 
L 184.289832 266.956085 
L 187.329743 266.161855 
L 190.369655 262.984934 
L 193.409567 265.76474 
L 196.449479 266.55897 
L 199.489391 265.76474 
L 202.529303 266.161855 
L 205.569215 266.161855 
L 208.609127 265.367625 
L 211.649039 265.367625 
L 214.688951 265.76474 
L 217.728863 264.176279 
L 220.768775 264.97051 
L 223.808687 263.779164 
L 226.848599 265.367625 
L 229.888511 262.984934 
L 232.928423 265.367625 
L 235.968335 262.190704 
L 239.008247 262.190704 
L 242.048159 264.97051 
L 245.08807 263.382049 
L 248.127982 262.587819 
L 251.167894 263.382049 
L 254.207806 263.779164 
L 257.247718 263.382049 
L 260.28763 262.587819 
L 263.327542 261.793589 
L 266.367454 262.190704 
L 269.407366 260.999359 
L 272.447278 262.587819 
L 275.48719 262.587819 
L 278.527102 262.587819 
L 281.567014 262.984934 
L 284.606926 262.984934 
L 287.646838 262.190704 
L 290.68675 262.984934 
L 293.726662 262.984934 
L 296.766574 262.587819 
L 299.806485 260.205128 
L 302.846397 262.190704 
L 305.886309 262.190704 
L 308.926221 260.205128 
L 311.966133 262.190704 
L 315.006045 262.190704 
L 318.045957 259.808013 
L 321.085869 260.205128 
L 324.125781 260.999359 
L 327.165693 261.396474 
L 330.205605 259.808013 
L 333.245517 260.205128 
L 336.285429 260.999359 
L 339.325341 261.396474 
L 342.365253 260.602243 
L 345.405165 260.999359 
L 348.445077 261.396474 
L 351.484989 260.999359 
L 354.5249 261.396474 
L 357.564812 260.999359 
L 360.604724 260.999359 
L 363.644636 260.602243 
L 366.684548 260.999359 
L 369.72446 255.439747 
" clip-path="url(#pa7986eeca8)" style="fill: none; stroke: #e377c2; stroke-width: 1.5; stroke-linecap: square"/>
   </g>
   <g id="line2d_22">
    <path d="M 65.763665 265.76474 
L 66.037257 265.367625 
L 66.341248 262.190704 
L 66.645239 260.999359 
L 66.94923 259.808013 
L 67.253222 259.410898 
L 67.557213 258.616668 
L 67.861204 257.822438 
L 68.165195 255.836862 
L 68.469186 255.836862 
L 68.773178 254.645517 
L 71.81309 249.085906 
L 74.853001 243.923409 
L 77.892913 237.569568 
L 80.932825 233.995532 
L 83.972737 229.627266 
L 87.012649 225.656115 
L 90.052561 220.890734 
L 93.092473 216.125353 
L 96.132385 211.757087 
L 99.172297 204.2119 
L 102.212209 205.403245 
L 105.252121 205.80036 
L 108.292033 171.648462 
L 111.331945 198.255174 
L 114.371857 196.269598 
L 117.411769 179.193649 
L 120.451681 190.709987 
L 123.491593 196.269598 
L 126.531505 191.504217 
L 129.571417 193.886907 
L 132.611328 190.709987 
L 135.65124 189.518641 
L 138.691152 189.915757 
L 141.731064 186.738836 
L 144.770976 186.738836 
L 147.810888 183.561915 
L 150.8508 181.179224 
L 153.890712 181.179224 
L 156.930624 181.57634 
L 159.970536 177.208073 
L 163.010448 177.605189 
L 166.05036 178.399419 
L 169.090272 174.428268 
L 172.130184 173.634038 
L 175.170096 170.854232 
L 178.210008 172.045577 
L 181.24992 172.442692 
L 184.289832 167.280196 
L 187.329743 170.060002 
L 190.369655 168.868656 
L 193.409567 164.897506 
L 196.449479 160.529239 
L 199.489391 162.91193 
L 202.529303 162.91193 
L 205.569215 160.926355 
L 208.609127 157.749434 
L 211.649039 158.940779 
L 214.688951 158.146549 
L 217.728863 155.366743 
L 220.768775 153.381168 
L 223.808687 153.778283 
L 226.848599 152.984053 
L 229.888511 150.601362 
L 232.928423 150.204247 
L 235.968335 148.218672 
L 239.008247 147.424441 
L 242.048159 141.467715 
L 245.08807 137.893679 
L 248.127982 138.687909 
L 251.167894 141.0706 
L 254.207806 138.290794 
L 257.247718 135.908104 
L 260.28763 136.702334 
L 263.327542 135.510988 
L 266.367454 136.305219 
L 269.407366 132.334068 
L 272.447278 131.142722 
L 275.48719 133.525413 
L 278.527102 125.583111 
L 281.567014 126.774456 
L 284.606926 126.377341 
L 287.646838 130.745607 
L 290.68675 125.583111 
L 293.726662 123.597536 
L 296.766574 119.22927 
L 299.806485 127.171571 
L 302.846397 122.40619 
L 305.886309 124.391766 
L 308.926221 118.832154 
L 311.966133 115.655234 
L 315.006045 111.684083 
L 318.045957 120.0235 
L 321.085869 116.449464 
L 324.125781 114.066773 
L 327.165693 113.669658 
L 330.205605 108.904277 
L 333.245517 110.889853 
L 336.285429 106.124471 
L 339.325341 106.521587 
L 342.365253 110.492737 
L 345.405165 106.521587 
L 348.445077 101.756205 
L 351.484989 96.196594 
L 354.5249 99.373515 
L 357.564812 87.460062 
L 360.604724 104.138896 
L 363.644636 100.167745 
L 366.684548 99.373515 
L 369.72446 80.709105 
" clip-path="url(#pa7986eeca8)" style="fill: none; stroke: #7f7f7f; stroke-width: 1.5; stroke-linecap: square"/>
   </g>
   <g id="line2d_23">
    <path d="M 65.763665 278.472423 
L 66.037257 278.472423 
L 66.341248 277.281077 
L 66.645239 276.486847 
L 66.94923 275.692617 
L 67.253222 275.295502 
L 67.557213 274.501272 
L 67.861204 274.104157 
L 68.165195 273.707042 
L 68.469186 273.707042 
L 68.773178 272.912811 
L 71.81309 269.735891 
L 74.853001 267.3532 
L 77.892913 261.396474 
L 80.932825 262.587819 
L 83.972737 258.616668 
L 87.012649 257.425323 
L 90.052561 256.631093 
L 93.092473 255.836862 
L 96.132385 251.468596 
L 99.172297 253.454172 
L 102.212209 251.071481 
L 105.252121 249.880136 
L 108.292033 250.277251 
L 111.331945 248.688791 
L 114.371857 248.688791 
L 117.411769 239.952259 
L 120.451681 248.688791 
L 123.491593 241.143604 
L 126.531505 244.71764 
L 129.571417 246.703215 
L 132.611328 244.71764 
L 135.65124 242.732064 
L 138.691152 242.732064 
L 141.731064 243.129179 
L 144.770976 241.937834 
L 147.810888 242.732064 
L 150.8508 244.320525 
L 153.890712 241.540719 
L 156.930624 241.143604 
L 159.970536 239.952259 
L 163.010448 241.143604 
L 166.05036 237.569568 
L 169.090272 235.583992 
L 172.130184 239.158028 
L 175.170096 237.172453 
L 178.210008 239.158028 
L 181.24992 237.569568 
L 184.289832 238.363798 
L 187.329743 237.966683 
L 190.369655 235.981108 
L 193.409567 237.172453 
L 196.449479 237.569568 
L 199.489391 236.775338 
L 202.529303 236.378223 
L 205.569215 237.172453 
L 208.609127 233.201302 
L 211.649039 235.583992 
L 214.688951 235.981108 
L 217.728863 235.186877 
L 220.768775 234.392647 
L 223.808687 232.804187 
L 226.848599 232.009957 
L 229.888511 227.641691 
L 232.928423 230.818611 
L 235.968335 230.421496 
L 239.008247 230.818611 
L 242.048159 224.46477 
L 245.08807 225.656115 
L 248.127982 228.038806 
L 251.167894 228.435921 
L 254.207806 223.67054 
L 257.247718 225.656115 
L 260.28763 226.450345 
L 263.327542 228.833036 
L 266.367454 226.05323 
L 269.407366 225.656115 
L 272.447278 226.450345 
L 275.48719 225.259 
L 278.527102 222.479194 
L 281.567014 223.273425 
L 284.606926 225.656115 
L 287.646838 224.067655 
L 290.68675 225.656115 
L 293.726662 223.273425 
L 296.766574 224.067655 
L 299.806485 222.479194 
L 302.846397 220.890734 
L 305.886309 223.67054 
L 308.926221 219.699389 
L 311.966133 220.890734 
L 315.006045 221.684964 
L 318.045957 219.302274 
L 321.085869 224.067655 
L 324.125781 220.096504 
L 327.165693 222.082079 
L 330.205605 221.287849 
L 333.245517 212.551317 
L 336.285429 218.905158 
L 339.325341 218.508043 
L 342.365253 211.359972 
L 345.405165 215.331123 
L 348.445077 217.713813 
L 351.484989 213.742662 
L 354.5249 216.522468 
L 357.564812 215.728238 
L 360.604724 213.742662 
L 363.644636 214.139777 
L 366.684548 214.934008 
L 369.72446 206.197475 
" clip-path="url(#pa7986eeca8)" style="fill: none; stroke: #bcbd22; stroke-width: 1.5; stroke-linecap: square"/>
   </g>
   <g id="line2d_24">
    <path d="M 65.763665 200.240749 
L 66.037257 199.049404 
L 66.341248 194.681138 
L 66.645239 197.858058 
L 66.94923 194.284023 
L 67.253222 194.284023 
L 67.557213 195.078253 
L 67.861204 178.796534 
L 68.165195 194.681138 
L 68.469186 193.092677 
L 68.773178 190.312872 
L 71.81309 185.944606 
L 74.853001 183.95903 
L 77.892913 180.384994 
L 80.932825 175.619613 
L 83.972737 170.060002 
L 87.012649 168.074426 
L 90.052561 164.50039 
L 93.092473 162.514815 
L 96.132385 152.189822 
L 99.172297 160.132124 
L 102.212209 155.366743 
L 105.252121 154.969628 
L 108.292033 91.034098 
L 111.331945 122.803305 
L 114.371857 143.056175 
L 117.411769 147.424441 
L 120.451681 145.438866 
L 123.491593 144.644636 
L 126.531505 143.850405 
L 129.571417 143.850405 
L 132.611328 136.702334 
L 135.65124 141.467715 
L 138.691152 137.099449 
L 141.731064 129.951377 
L 144.770976 135.113873 
L 147.810888 134.319643 
L 150.8508 135.510988 
L 153.890712 132.334068 
L 156.930624 132.334068 
L 159.970536 133.525413 
L 163.010448 132.731183 
L 166.05036 129.554262 
L 169.090272 132.731183 
L 172.130184 132.731183 
L 175.170096 132.731183 
L 178.210008 127.965802 
L 181.24992 130.745607 
L 184.289832 129.951377 
L 187.329743 129.157147 
L 190.369655 131.142722 
L 193.409567 131.142722 
L 196.449479 127.171571 
L 199.489391 127.171571 
L 202.529303 129.157147 
L 205.569215 126.774456 
L 208.609127 125.185996 
L 211.649039 125.980226 
L 214.688951 119.626385 
L 217.728863 123.597536 
L 220.768775 121.214845 
L 223.808687 121.61196 
L 226.848599 124.391766 
L 229.888511 119.626385 
L 232.928423 120.420615 
L 235.968335 110.095622 
L 239.008247 120.81773 
L 242.048159 116.052349 
L 245.08807 114.066773 
L 248.127982 118.037924 
L 251.167894 112.875428 
L 254.207806 112.478313 
L 257.247718 115.258119 
L 260.28763 108.507162 
L 263.327542 112.081198 
L 266.367454 114.463888 
L 269.407366 110.492737 
L 272.447278 113.669658 
L 275.48719 100.167745 
L 278.527102 113.272543 
L 281.567014 110.095622 
L 284.606926 112.478313 
L 287.646838 104.138896 
L 290.68675 109.301392 
L 293.726662 108.507162 
L 296.766574 111.684083 
L 299.806485 108.904277 
L 302.846397 111.286968 
L 305.886309 111.286968 
L 308.926221 102.947551 
L 311.966133 110.492737 
L 315.006045 106.521587 
L 318.045957 107.315817 
L 321.085869 106.124471 
L 324.125781 109.301392 
L 327.165693 106.918702 
L 330.205605 104.933126 
L 333.245517 103.344666 
L 336.285429 101.35909 
L 339.325341 91.034098 
L 342.365253 105.330241 
L 345.405165 104.138896 
L 348.445077 101.35909 
L 351.484989 79.120645 
L 354.5249 103.344666 
L 357.564812 91.828328 
L 360.604724 99.373515 
L 363.644636 101.756205 
L 366.684548 94.211019 
L 369.72446 43.380286 
" clip-path="url(#pa7986eeca8)" style="fill: none; stroke: #17becf; stroke-width: 1.5; stroke-linecap: square"/>
   </g>
   <g id="line2d_25">
    <path d="M 65.763665 291.180106 
L 66.037257 290.782991 
L 66.341248 289.988761 
L 66.645239 289.988761 
L 66.94923 289.591645 
L 67.253222 289.591645 
L 67.557213 289.591645 
L 67.861204 288.797415 
L 68.165195 289.19453 
L 68.469186 289.19453 
L 68.773178 288.797415 
L 71.81309 287.60607 
L 74.853001 287.208955 
L 77.892913 286.01761 
L 80.932825 285.620494 
L 83.972737 284.826264 
L 87.012649 284.032034 
L 90.052561 283.237804 
L 93.092473 283.237804 
L 96.132385 282.443574 
L 99.172297 282.046459 
L 102.212209 280.855113 
L 105.252121 281.649344 
L 108.292033 281.649344 
L 111.331945 280.060883 
L 114.371857 280.457998 
L 117.411769 278.472423 
L 120.451681 279.663768 
L 123.491593 280.060883 
L 126.531505 280.060883 
L 129.571417 280.060883 
L 132.611328 280.060883 
L 135.65124 278.869538 
L 138.691152 280.060883 
L 141.731064 280.060883 
L 144.770976 278.869538 
L 147.810888 279.663768 
L 150.8508 279.266653 
L 153.890712 278.869538 
L 156.930624 278.869538 
L 159.970536 279.266653 
L 163.010448 278.075308 
L 166.05036 279.266653 
L 169.090272 278.075308 
L 172.130184 278.075308 
L 175.170096 277.678193 
L 178.210008 276.089732 
L 181.24992 277.678193 
L 184.289832 277.678193 
L 187.329743 277.678193 
L 190.369655 277.678193 
L 193.409567 277.678193 
L 196.449479 276.883962 
L 199.489391 277.281077 
L 202.529303 276.883962 
L 205.569215 276.089732 
L 208.609127 276.883962 
L 211.649039 277.281077 
L 214.688951 276.486847 
L 217.728863 276.883962 
L 220.768775 276.883962 
L 223.808687 276.883962 
L 226.848599 276.486847 
L 229.888511 275.692617 
L 232.928423 275.295502 
L 235.968335 276.486847 
L 239.008247 274.104157 
L 242.048159 275.692617 
L 245.08807 275.692617 
L 248.127982 276.089732 
L 251.167894 274.898387 
L 254.207806 274.501272 
L 257.247718 275.692617 
L 260.28763 274.104157 
L 263.327542 272.912811 
L 266.367454 274.898387 
L 269.407366 274.898387 
L 272.447278 274.104157 
L 275.48719 273.309927 
L 278.527102 273.707042 
L 281.567014 273.309927 
L 284.606926 273.309927 
L 287.646838 273.707042 
L 290.68675 274.501272 
L 293.726662 274.501272 
L 296.766574 274.104157 
L 299.806485 273.707042 
L 302.846397 274.104157 
L 305.886309 273.309927 
L 308.926221 273.707042 
L 311.966133 270.927236 
L 315.006045 272.912811 
L 318.045957 272.912811 
L 321.085869 273.309927 
L 324.125781 272.118581 
L 327.165693 272.912811 
L 330.205605 270.530121 
L 333.245517 271.721466 
L 336.285429 272.515696 
L 339.325341 272.515696 
L 342.365253 272.515696 
L 345.405165 272.118581 
L 348.445077 271.721466 
L 351.484989 272.912811 
L 354.5249 272.515696 
L 357.564812 271.324351 
L 360.604724 272.515696 
L 363.644636 272.515696 
L 366.684548 271.721466 
L 369.72446 269.338776 
" clip-path="url(#pa7986eeca8)" style="fill: none; stroke: #1f77b4; stroke-width: 1.5; stroke-linecap: square"/>
   </g>
   <g id="line2d_26">
    <path d="M 65.763665 288.4003 
L 66.037257 287.60607 
L 66.341248 285.223379 
L 66.645239 284.429149 
L 66.94923 283.237804 
L 67.253222 282.443574 
L 67.557213 281.252228 
L 67.861204 280.457998 
L 68.165195 278.869538 
L 68.469186 277.678193 
L 68.773178 278.075308 
L 71.81309 268.94166 
L 74.853001 260.602243 
L 77.892913 257.822438 
L 80.932825 253.057057 
L 83.972737 249.085906 
L 87.012649 245.114755 
L 90.052561 243.526294 
L 93.092473 239.952259 
L 96.132385 239.555143 
L 99.172297 236.378223 
L 102.212209 233.201302 
L 105.252121 232.804187 
L 108.292033 230.421496 
L 111.331945 228.435921 
L 114.371857 224.067655 
L 117.411769 224.067655 
L 120.451681 221.684964 
L 123.491593 226.05323 
L 126.531505 213.742662 
L 129.571417 220.493619 
L 132.611328 216.919583 
L 135.65124 216.125353 
L 138.691152 215.728238 
L 141.731064 213.345547 
L 144.770976 213.742662 
L 147.810888 213.742662 
L 150.8508 209.374396 
L 153.890712 209.771511 
L 156.930624 206.197475 
L 159.970536 208.977281 
L 163.010448 204.2119 
L 166.05036 206.991706 
L 169.090272 203.814785 
L 172.130184 203.41767 
L 175.170096 201.432094 
L 178.210008 199.049404 
L 181.24992 195.872483 
L 184.289832 196.666713 
L 187.329743 194.284023 
L 190.369655 194.284023 
L 193.409567 191.504217 
L 196.449479 193.489792 
L 199.489391 189.518641 
L 202.529303 190.312872 
L 205.569215 189.915757 
L 208.609127 190.312872 
L 211.649039 190.312872 
L 214.688951 187.533066 
L 217.728863 184.356145 
L 220.768775 183.561915 
L 223.808687 181.57634 
L 226.848599 180.782109 
L 229.888511 180.782109 
L 232.928423 181.973455 
L 235.968335 182.767685 
L 239.008247 178.002304 
L 242.048159 174.825383 
L 245.08807 175.619613 
L 248.127982 171.648462 
L 251.167894 171.648462 
L 254.207806 170.060002 
L 257.247718 172.839807 
L 260.28763 169.662887 
L 263.327542 165.691736 
L 266.367454 168.471541 
L 269.407366 166.485966 
L 272.447278 165.691736 
L 275.48719 160.926355 
L 278.527102 161.32347 
L 281.567014 163.309045 
L 284.606926 161.720585 
L 287.646838 163.309045 
L 290.68675 164.50039 
L 293.726662 161.720585 
L 296.766574 162.514815 
L 299.806485 153.381168 
L 302.846397 158.940779 
L 305.886309 156.558089 
L 308.926221 156.955204 
L 311.966133 157.749434 
L 315.006045 157.352319 
L 318.045957 145.041751 
L 321.085869 153.778283 
L 324.125781 152.984053 
L 327.165693 151.792707 
L 330.205605 152.586938 
L 333.245517 145.835981 
L 336.285429 140.673485 
L 339.325341 143.45329 
L 342.365253 141.86483 
L 345.405165 145.438866 
L 348.445077 144.644636 
L 351.484989 145.835981 
L 354.5249 141.0706 
L 357.564812 140.673485 
L 360.604724 135.510988 
L 363.644636 136.305219 
L 366.684548 137.893679 
L 369.72446 133.922528 
" clip-path="url(#pa7986eeca8)" style="fill: none; stroke: #ff7f0e; stroke-width: 1.5; stroke-linecap: square"/>
   </g>
   <g id="patch_3">
    <path d="M 50.565625 304.44375 
L 50.565625 12.643578 
" style="fill: none; stroke: #000000; stroke-width: 0.8; stroke-linejoin: miter; stroke-linecap: square"/>
   </g>
   <g id="patch_4">
    <path d="M 384.9225 304.44375 
L 384.9225 12.643578 
" style="fill: none; stroke: #000000; stroke-width: 0.8; stroke-linejoin: miter; stroke-linecap: square"/>
   </g>
   <g id="patch_5">
    <path d="M 50.565625 304.44375 
L 384.9225 304.44375 
" style="fill: none; stroke: #000000; stroke-width: 0.8; stroke-linejoin: miter; stroke-linecap: square"/>
   </g>
   <g id="patch_6">
    <path d="M 50.565625 12.643578 
L 384.9225 12.643578 
" style="fill: none; stroke: #000000; stroke-width: 0.8; stroke-linejoin: miter; stroke-linecap: square"/>
   </g>
   <g id="text_17">
    <!-- trimou -->
    <g style="fill: #1f77b4" transform="translate(390.9225 276.708772) scale(0.08 -0.08)">
     <defs>
      <path id="DejaVuSans-6f" d="M 1959 3097 
Q 1497 3097 1228 2736 
Q 959 2375 959 1747 
Q 959 1119 1226 758 
Q 1494 397 1959 397 
Q 2419 397 2687 759 
Q 2956 1122 2956 1747 
Q 2956 2369 2687 2733 
Q 2419 3097 1959 3097 
z
M 1959 3584 
Q 2709 3584 3137 3096 
Q 3566 2609 3566 1747 
Q 3566 888 3137 398 
Q 2709 -91 1959 -91 
Q 1206 -91 779 398 
Q 353 888 353 1747 
Q 353 2609 779 3096 
Q 1206 3584 1959 3584 
z
" transform="scale(0.015625)"/>
     </defs>
     <use xlink:href="#DejaVuSans-74"/>
     <use xlink:href="#DejaVuSans-72" transform="translate(39.208984 0)"/>
     <use xlink:href="#DejaVuSans-69" transform="translate(80.322266 0)"/>
     <use xlink:href="#DejaVuSans-6d" transform="translate(108.105469 0)"/>
     <use xlink:href="#DejaVuSans-6f" transform="translate(205.517578 0)"/>
     <use xlink:href="#DejaVuSans-75" transform="translate(266.699219 0)"/>
    </g>
   </g>
   <g id="text_18">
    <!-- mustachej -->
    <g style="fill: #9467bd" transform="translate(390.9225 268.76647) scale(0.08 -0.08)">
     <defs>
      <path id="DejaVuSans-61" d="M 2194 1759 
Q 1497 1759 1228 1600 
Q 959 1441 959 1056 
Q 959 750 1161 570 
Q 1363 391 1709 391 
Q 2188 391 2477 730 
Q 2766 1069 2766 1631 
L 2766 1759 
L 2194 1759 
z
M 3341 1997 
L 3341 0 
L 2766 0 
L 2766 531 
Q 2569 213 2275 61 
Q 1981 -91 1556 -91 
Q 1019 -91 701 211 
Q 384 513 384 1019 
Q 384 1609 779 1909 
Q 1175 2209 1959 2209 
L 2766 2209 
L 2766 2266 
Q 2766 2663 2505 2880 
Q 2244 3097 1772 3097 
Q 1472 3097 1187 3025 
Q 903 2953 641 2809 
L 641 3341 
Q 956 3463 1253 3523 
Q 1550 3584 1831 3584 
Q 2591 3584 2966 3190 
Q 3341 2797 3341 1997 
z
" transform="scale(0.015625)"/>
      <path id="DejaVuSans-63" d="M 3122 3366 
L 3122 2828 
Q 2878 2963 2633 3030 
Q 2388 3097 2138 3097 
Q 1578 3097 1268 2742 
Q 959 2388 959 1747 
Q 959 1106 1268 751 
Q 1578 397 2138 397 
Q 2388 397 2633 464 
Q 2878 531 3122 666 
L 3122 134 
Q 2881 22 2623 -34 
Q 2366 -91 2075 -91 
Q 1284 -91 818 406 
Q 353 903 353 1747 
Q 353 2603 823 3093 
Q 1294 3584 2113 3584 
Q 2378 3584 2631 3529 
Q 2884 3475 3122 3366 
z
" transform="scale(0.015625)"/>
      <path id="DejaVuSans-68" d="M 3513 2113 
L 3513 0 
L 2938 0 
L 2938 2094 
Q 2938 2591 2744 2837 
Q 2550 3084 2163 3084 
Q 1697 3084 1428 2787 
Q 1159 2491 1159 1978 
L 1159 0 
L 581 0 
L 581 4863 
L 1159 4863 
L 1159 2956 
Q 1366 3272 1645 3428 
Q 1925 3584 2291 3584 
Q 2894 3584 3203 3211 
Q 3513 2838 3513 2113 
z
" transform="scale(0.015625)"/>
      <path id="DejaVuSans-6a" d="M 603 3500 
L 1178 3500 
L 1178 -63 
Q 1178 -731 923 -1031 
Q 669 -1331 103 -1331 
L -116 -1331 
L -116 -844 
L 38 -844 
Q 366 -844 484 -692 
Q 603 -541 603 -63 
L 603 3500 
z
M 603 4863 
L 1178 4863 
L 1178 4134 
L 603 4134 
L 603 4863 
z
" transform="scale(0.015625)"/>
     </defs>
     <use xlink:href="#DejaVuSans-6d"/>
     <use xlink:href="#DejaVuSans-75" transform="translate(97.412109 0)"/>
     <use xlink:href="#DejaVuSans-73" transform="translate(160.791016 0)"/>
     <use xlink:href="#DejaVuSans-74" transform="translate(212.890625 0)"/>
     <use xlink:href="#DejaVuSans-61" transform="translate(252.099609 0)"/>
     <use xlink:href="#DejaVuSans-63" transform="translate(313.378906 0)"/>
     <use xlink:href="#DejaVuSans-68" transform="translate(368.359375 0)"/>
     <use xlink:href="#DejaVuSans-65" transform="translate(431.738281 0)"/>
     <use xlink:href="#DejaVuSans-6a" transform="translate(493.261719 0)"/>
    </g>
   </g>
   <g id="text_19">
    <!-- handlebars -->
    <g style="fill: #ff7f0e" transform="translate(390.9225 260.824168) scale(0.08 -0.08)">
     <defs>
      <path id="DejaVuSans-64" d="M 2906 2969 
L 2906 4863 
L 3481 4863 
L 3481 0 
L 2906 0 
L 2906 525 
Q 2725 213 2448 61 
Q 2172 -91 1784 -91 
Q 1150 -91 751 415 
Q 353 922 353 1747 
Q 353 2572 751 3078 
Q 1150 3584 1784 3584 
Q 2172 3584 2448 3432 
Q 2725 3281 2906 2969 
z
M 947 1747 
Q 947 1113 1208 752 
Q 1469 391 1925 391 
Q 2381 391 2643 752 
Q 2906 1113 2906 1747 
Q 2906 2381 2643 2742 
Q 2381 3103 1925 3103 
Q 1469 3103 1208 2742 
Q 947 2381 947 1747 
z
" transform="scale(0.015625)"/>
      <path id="DejaVuSans-6c" d="M 603 4863 
L 1178 4863 
L 1178 0 
L 603 0 
L 603 4863 
z
" transform="scale(0.015625)"/>
      <path id="DejaVuSans-62" d="M 3116 1747 
Q 3116 2381 2855 2742 
Q 2594 3103 2138 3103 
Q 1681 3103 1420 2742 
Q 1159 2381 1159 1747 
Q 1159 1113 1420 752 
Q 1681 391 2138 391 
Q 2594 391 2855 752 
Q 3116 1113 3116 1747 
z
M 1159 2969 
Q 1341 3281 1617 3432 
Q 1894 3584 2278 3584 
Q 2916 3584 3314 3078 
Q 3713 2572 3713 1747 
Q 3713 922 3314 415 
Q 2916 -91 2278 -91 
Q 1894 -91 1617 61 
Q 1341 213 1159 525 
L 1159 0 
L 581 0 
L 581 4863 
L 1159 4863 
L 1159 2969 
z
" transform="scale(0.015625)"/>
     </defs>
     <use xlink:href="#DejaVuSans-68"/>
     <use xlink:href="#DejaVuSans-61" transform="translate(63.378906 0)"/>
     <use xlink:href="#DejaVuSans-6e" transform="translate(124.658203 0)"/>
     <use xlink:href="#DejaVuSans-64" transform="translate(188.037109 0)"/>
     <use xlink:href="#DejaVuSans-6c" transform="translate(251.513672 0)"/>
     <use xlink:href="#DejaVuSans-65" transform="translate(279.296875 0)"/>
     <use xlink:href="#DejaVuSans-62" transform="translate(340.820312 0)"/>
     <use xlink:href="#DejaVuSans-61" transform="translate(404.296875 0)"/>
     <use xlink:href="#DejaVuSans-72" transform="translate(465.576172 0)"/>
     <use xlink:href="#DejaVuSans-73" transform="translate(506.689453 0)"/>
    </g>
   </g>
   <g id="text_20">
    <!-- solomon -->
    <g style="fill: #e377c2" transform="translate(390.9225 252.881866) scale(0.08 -0.08)">
     <use xlink:href="#DejaVuSans-73"/>
     <use xlink:href="#DejaVuSans-6f" transform="translate(52.099609 0)"/>
     <use xlink:href="#DejaVuSans-6c" transform="translate(113.28125 0)"/>
     <use xlink:href="#DejaVuSans-6f" transform="translate(141.064453 0)"/>
     <use xlink:href="#DejaVuSans-6d" transform="translate(202.246094 0)"/>
     <use xlink:href="#DejaVuSans-6f" transform="translate(299.658203 0)"/>
     <use xlink:href="#DejaVuSans-6e" transform="translate(360.839844 0)"/>
    </g>
   </g>
   <g id="text_21">
    <!-- stringtree -->
    <g style="fill: #bcbd22" transform="translate(390.9225 214.758817) scale(0.08 -0.08)">
     <defs>
      <path id="DejaVuSans-67" d="M 2906 1791 
Q 2906 2416 2648 2759 
Q 2391 3103 1925 3103 
Q 1463 3103 1205 2759 
Q 947 2416 947 1791 
Q 947 1169 1205 825 
Q 1463 481 1925 481 
Q 2391 481 2648 825 
Q 2906 1169 2906 1791 
z
M 3481 434 
Q 3481 -459 3084 -895 
Q 2688 -1331 1869 -1331 
Q 1566 -1331 1297 -1286 
Q 1028 -1241 775 -1147 
L 775 -588 
Q 1028 -725 1275 -790 
Q 1522 -856 1778 -856 
Q 2344 -856 2625 -561 
Q 2906 -266 2906 331 
L 2906 616 
Q 2728 306 2450 153 
Q 2172 0 1784 0 
Q 1141 0 747 490 
Q 353 981 353 1791 
Q 353 2603 747 3093 
Q 1141 3584 1784 3584 
Q 2172 3584 2450 3431 
Q 2728 3278 2906 2969 
L 2906 3500 
L 3481 3500 
L 3481 434 
z
" transform="scale(0.015625)"/>
     </defs>
     <use xlink:href="#DejaVuSans-73"/>
     <use xlink:href="#DejaVuSans-74" transform="translate(52.099609 0)"/>
     <use xlink:href="#DejaVuSans-72" transform="translate(91.308594 0)"/>
     <use xlink:href="#DejaVuSans-69" transform="translate(132.421875 0)"/>
     <use xlink:href="#DejaVuSans-6e" transform="translate(160.205078 0)"/>
     <use xlink:href="#DejaVuSans-67" transform="translate(223.583984 0)"/>
     <use xlink:href="#DejaVuSans-74" transform="translate(287.060547 0)"/>
     <use xlink:href="#DejaVuSans-72" transform="translate(326.269531 0)"/>
     <use xlink:href="#DejaVuSans-65" transform="translate(365.132812 0)"/>
     <use xlink:href="#DejaVuSans-65" transform="translate(426.65625 0)"/>
    </g>
   </g>
   <g id="text_22">
    <!-- freemarker -->
    <g style="fill: #1f77b4" transform="translate(390.9225 206.816515) scale(0.08 -0.08)">
     <defs>
      <path id="DejaVuSans-66" d="M 2375 4863 
L 2375 4384 
L 1825 4384 
Q 1516 4384 1395 4259 
Q 1275 4134 1275 3809 
L 1275 3500 
L 2222 3500 
L 2222 3053 
L 1275 3053 
L 1275 0 
L 697 0 
L 697 3053 
L 147 3053 
L 147 3500 
L 697 3500 
L 697 3744 
Q 697 4328 969 4595 
Q 1241 4863 1831 4863 
L 2375 4863 
z
" transform="scale(0.015625)"/>
      <path id="DejaVuSans-6b" d="M 581 4863 
L 1159 4863 
L 1159 1991 
L 2875 3500 
L 3609 3500 
L 1753 1863 
L 3688 0 
L 2938 0 
L 1159 1709 
L 1159 0 
L 581 0 
L 581 4863 
z
" transform="scale(0.015625)"/>
     </defs>
     <use xlink:href="#DejaVuSans-66"/>
     <use xlink:href="#DejaVuSans-72" transform="translate(35.205078 0)"/>
     <use xlink:href="#DejaVuSans-65" transform="translate(74.068359 0)"/>
     <use xlink:href="#DejaVuSans-65" transform="translate(135.591797 0)"/>
     <use xlink:href="#DejaVuSans-6d" transform="translate(197.115234 0)"/>
     <use xlink:href="#DejaVuSans-61" transform="translate(294.527344 0)"/>
     <use xlink:href="#DejaVuSans-72" transform="translate(355.806641 0)"/>
     <use xlink:href="#DejaVuSans-6b" transform="translate(396.919922 0)"/>
     <use xlink:href="#DejaVuSans-65" transform="translate(451.205078 0)"/>
     <use xlink:href="#DejaVuSans-72" transform="translate(512.728516 0)"/>
    </g>
   </g>
   <g id="text_23">
    <!-- pebble -->
    <g style="fill: #8c564b" transform="translate(390.9225 188.152106) scale(0.08 -0.08)">
     <defs>
      <path id="DejaVuSans-70" d="M 1159 525 
L 1159 -1331 
L 581 -1331 
L 581 3500 
L 1159 3500 
L 1159 2969 
Q 1341 3281 1617 3432 
Q 1894 3584 2278 3584 
Q 2916 3584 3314 3078 
Q 3713 2572 3713 1747 
Q 3713 922 3314 415 
Q 2916 -91 2278 -91 
Q 1894 -91 1617 61 
Q 1341 213 1159 525 
z
M 3116 1747 
Q 3116 2381 2855 2742 
Q 2594 3103 2138 3103 
Q 1681 3103 1420 2742 
Q 1159 2381 1159 1747 
Q 1159 1113 1420 752 
Q 1681 391 2138 391 
Q 2594 391 2855 752 
Q 3116 1113 3116 1747 
z
" transform="scale(0.015625)"/>
     </defs>
     <use xlink:href="#DejaVuSans-70"/>
     <use xlink:href="#DejaVuSans-65" transform="translate(63.476562 0)"/>
     <use xlink:href="#DejaVuSans-62" transform="translate(125 0)"/>
     <use xlink:href="#DejaVuSans-62" transform="translate(188.476562 0)"/>
     <use xlink:href="#DejaVuSans-6c" transform="translate(251.953125 0)"/>
     <use xlink:href="#DejaVuSans-65" transform="translate(279.736328 0)"/>
    </g>
   </g>
   <g id="text_24">
    <!-- velocity -->
    <g style="fill: #ff7f0e" transform="translate(390.9225 136.130028) scale(0.08 -0.08)">
     <defs>
      <path id="DejaVuSans-76" d="M 191 3500 
L 800 3500 
L 1894 563 
L 2988 3500 
L 3597 3500 
L 2284 0 
L 1503 0 
L 191 3500 
z
" transform="scale(0.015625)"/>
      <path id="DejaVuSans-79" d="M 2059 -325 
Q 1816 -950 1584 -1140 
Q 1353 -1331 966 -1331 
L 506 -1331 
L 506 -850 
L 844 -850 
Q 1081 -850 1212 -737 
Q 1344 -625 1503 -206 
L 1606 56 
L 191 3500 
L 800 3500 
L 1894 763 
L 2988 3500 
L 3597 3500 
L 2059 -325 
z
" transform="scale(0.015625)"/>
     </defs>
     <use xlink:href="#DejaVuSans-76"/>
     <use xlink:href="#DejaVuSans-65" transform="translate(59.179688 0)"/>
     <use xlink:href="#DejaVuSans-6c" transform="translate(120.703125 0)"/>
     <use xlink:href="#DejaVuSans-6f" transform="translate(148.486328 0)"/>
     <use xlink:href="#DejaVuSans-63" transform="translate(209.667969 0)"/>
     <use xlink:href="#DejaVuSans-69" transform="translate(264.648438 0)"/>
     <use xlink:href="#DejaVuSans-74" transform="translate(292.431641 0)"/>
     <use xlink:href="#DejaVuSans-79" transform="translate(331.640625 0)"/>
    </g>
   </g>
   <g id="text_25">
    <!-- stringtemplate -->
    <g style="fill: #7f7f7f" transform="translate(390.9225 82.916605) scale(0.08 -0.08)">
     <use xlink:href="#DejaVuSans-73"/>
     <use xlink:href="#DejaVuSans-74" transform="translate(52.099609 0)"/>
     <use xlink:href="#DejaVuSans-72" transform="translate(91.308594 0)"/>
     <use xlink:href="#DejaVuSans-69" transform="translate(132.421875 0)"/>
     <use xlink:href="#DejaVuSans-6e" transform="translate(160.205078 0)"/>
     <use xlink:href="#DejaVuSans-67" transform="translate(223.583984 0)"/>
     <use xlink:href="#DejaVuSans-74" transform="translate(287.060547 0)"/>
     <use xlink:href="#DejaVuSans-65" transform="translate(326.269531 0)"/>
     <use xlink:href="#DejaVuSans-6d" transform="translate(387.792969 0)"/>
     <use xlink:href="#DejaVuSans-70" transform="translate(485.205078 0)"/>
     <use xlink:href="#DejaVuSans-6c" transform="translate(548.681641 0)"/>
     <use xlink:href="#DejaVuSans-61" transform="translate(576.464844 0)"/>
     <use xlink:href="#DejaVuSans-74" transform="translate(637.744141 0)"/>
     <use xlink:href="#DejaVuSans-65" transform="translate(676.953125 0)"/>
    </g>
   </g>
   <g id="text_26">
    <!-- jangod -->
    <g style="fill: #2ca02c" transform="translate(390.9225 67.429117) scale(0.08 -0.08)">
     <use xlink:href="#DejaVuSans-6a"/>
     <use xlink:href="#DejaVuSans-61" transform="translate(27.783203 0)"/>
     <use xlink:href="#DejaVuSans-6e" transform="translate(89.0625 0)"/>
     <use xlink:href="#DejaVuSans-67" transform="translate(152.441406 0)"/>
     <use xlink:href="#DejaVuSans-6f" transform="translate(215.917969 0)"/>
     <use xlink:href="#DejaVuSans-64" transform="translate(277.099609 0)"/>
    </g>
   </g>
   <g id="text_27">
    <!-- thymeleaf -->
    <g style="fill: #17becf" transform="translate(390.9225 45.587786) scale(0.08 -0.08)">
     <use xlink:href="#DejaVuSans-74"/>
     <use xlink:href="#DejaVuSans-68" transform="translate(39.208984 0)"/>
     <use xlink:href="#DejaVuSans-79" transform="translate(102.587891 0)"/>
     <use xlink:href="#DejaVuSans-6d" transform="translate(161.767578 0)"/>
     <use xlink:href="#DejaVuSans-65" transform="translate(259.179688 0)"/>
     <use xlink:href="#DejaVuSans-6c" transform="translate(320.703125 0)"/>
     <use xlink:href="#DejaVuSans-65" transform="translate(348.486328 0)"/>
     <use xlink:href="#DejaVuSans-61" transform="translate(410.009766 0)"/>
     <use xlink:href="#DejaVuSans-66" transform="translate(471.289062 0)"/>
    </g>
   </g>
   <g id="text_28">
    <!-- jte -->
    <g style="fill: #d62728" transform="translate(390.9225 28.114722) scale(0.08 -0.08)">
     <use xlink:href="#DejaVuSans-6a"/>
     <use xlink:href="#DejaVuSans-74" transform="translate(27.783203 0)"/>
     <use xlink:href="#DejaVuSans-65" transform="translate(66.992188 0)"/>
    </g>
   </g>
  </g>
 </g>
 <defs>
  <clipPath id="pa7986eeca8">
   <rect x="50.565625" y="12.643578" width="334.356875" height="291.800172"/>
  </clipPath>
 </defs>
</svg>
