<?xml version="1.0" encoding="utf-8" standalone="no"?>
<!DOCTYPE svg PUBLIC "-//W3C//DTD SVG 1.1//EN"
  "http://www.w3.org/Graphics/SVG/1.1/DTD/svg11.dtd">
<svg xmlns:xlink="http://www.w3.org/1999/xlink" width="460.8pt" height="345.6pt" viewBox="0 0 460.8 345.6" xmlns="http://www.w3.org/2000/svg" version="1.1">
 <metadata>
  <rdf:RDF xmlns:dc="http://purl.org/dc/elements/1.1/" xmlns:cc="http://creativecommons.org/ns#" xmlns:rdf="http://www.w3.org/1999/02/22-rdf-syntax-ns#">
   <cc:Work>
    <dc:type rdf:resource="http://purl.org/dc/dcmitype/StillImage"/>
    <dc:date>2025-04-13T17:19:50.142190</dc:date>
    <dc:format>image/svg+xml</dc:format>
    <dc:creator>
     <cc:Agent>
      <dc:title>Matplotlib v3.10.1, https://matplotlib.org/</dc:title>
     </cc:Agent>
    </dc:creator>
   </cc:Work>
  </rdf:RDF>
 </metadata>
 <defs>
  <style type="text/css">*{stroke-linejoin: round; stroke-linecap: butt}</style>
 </defs>
 <g id="figure_1">
  <g id="patch_1">
   <path d="M 0 345.6 
L 460.8 345.6 
L 460.8 0 
L 0 0 
z
" style="fill: #ffffff"/>
  </g>
  <g id="axes_1">
   <g id="patch_2">
    <path d="M 50.565625 304.44375 
L 384.9225 304.44375 
L 384.9225 10.8 
L 50.565625 10.8 
z
" style="fill: #ffffff"/>
   </g>
   <g id="matplotlib.axis_1">
    <g id="xtick_1">
     <g id="line2d_1">
      <defs>
       <path id="m9be03b6306" d="M 0 0 
L 0 3.5 
" style="stroke: #000000; stroke-width: 0.8"/>
      </defs>
      <g>
       <use xlink:href="#m9be03b6306" x="65.733266" y="304.44375" style="stroke: #000000; stroke-width: 0.8"/>
      </g>
     </g>
     <g id="text_1">
      <!-- 0 -->
      <g transform="translate(62.552016 319.042187) scale(0.1 -0.1)">
       <defs>
        <path id="DejaVuSans-30" d="M 2034 4250 
Q 1547 4250 1301 3770 
Q 1056 3291 1056 2328 
Q 1056 1369 1301 889 
Q 1547 409 2034 409 
Q 2525 409 2770 889 
Q 3016 1369 3016 2328 
Q 3016 3291 2770 3770 
Q 2525 4250 2034 4250 
z
M 2034 4750 
Q 2819 4750 3233 4129 
Q 3647 3509 3647 2328 
Q 3647 1150 3233 529 
Q 2819 -91 2034 -91 
Q 1250 -91 836 529 
Q 422 1150 422 2328 
Q 422 3509 836 4129 
Q 1250 4750 2034 4750 
z
" transform="scale(0.015625)"/>
       </defs>
       <use xlink:href="#DejaVuSans-30"/>
      </g>
     </g>
    </g>
    <g id="xtick_2">
     <g id="line2d_2">
      <g>
       <use xlink:href="#m9be03b6306" x="126.531505" y="304.44375" style="stroke: #000000; stroke-width: 0.8"/>
      </g>
     </g>
     <g id="text_2">
      <!-- 2000 -->
      <g transform="translate(113.806505 319.042187) scale(0.1 -0.1)">
       <defs>
        <path id="DejaVuSans-32" d="M 1228 531 
L 3431 531 
L 3431 0 
L 469 0 
L 469 531 
Q 828 903 1448 1529 
Q 2069 2156 2228 2338 
Q 2531 2678 2651 2914 
Q 2772 3150 2772 3378 
Q 2772 3750 2511 3984 
Q 2250 4219 1831 4219 
Q 1534 4219 1204 4116 
Q 875 4013 500 3803 
L 500 4441 
Q 881 4594 1212 4672 
Q 1544 4750 1819 4750 
Q 2544 4750 2975 4387 
Q 3406 4025 3406 3419 
Q 3406 3131 3298 2873 
Q 3191 2616 2906 2266 
Q 2828 2175 2409 1742 
Q 1991 1309 1228 531 
z
" transform="scale(0.015625)"/>
       </defs>
       <use xlink:href="#DejaVuSans-32"/>
       <use xlink:href="#DejaVuSans-30" transform="translate(63.623047 0)"/>
       <use xlink:href="#DejaVuSans-30" transform="translate(127.246094 0)"/>
       <use xlink:href="#DejaVuSans-30" transform="translate(190.869141 0)"/>
      </g>
     </g>
    </g>
    <g id="xtick_3">
     <g id="line2d_3">
      <g>
       <use xlink:href="#m9be03b6306" x="187.329743" y="304.44375" style="stroke: #000000; stroke-width: 0.8"/>
      </g>
     </g>
     <g id="text_3">
      <!-- 4000 -->
      <g transform="translate(174.604743 319.042187) scale(0.1 -0.1)">
       <defs>
        <path id="DejaVuSans-34" d="M 2419 4116 
L 825 1625 
L 2419 1625 
L 2419 4116 
z
M 2253 4666 
L 3047 4666 
L 3047 1625 
L 3713 1625 
L 3713 1100 
L 3047 1100 
L 3047 0 
L 2419 0 
L 2419 1100 
L 313 1100 
L 313 1709 
L 2253 4666 
z
" transform="scale(0.015625)"/>
       </defs>
       <use xlink:href="#DejaVuSans-34"/>
       <use xlink:href="#DejaVuSans-30" transform="translate(63.623047 0)"/>
       <use xlink:href="#DejaVuSans-30" transform="translate(127.246094 0)"/>
       <use xlink:href="#DejaVuSans-30" transform="translate(190.869141 0)"/>
      </g>
     </g>
    </g>
    <g id="xtick_4">
     <g id="line2d_4">
      <g>
       <use xlink:href="#m9be03b6306" x="248.127982" y="304.44375" style="stroke: #000000; stroke-width: 0.8"/>
      </g>
     </g>
     <g id="text_4">
      <!-- 6000 -->
      <g transform="translate(235.402982 319.042187) scale(0.1 -0.1)">
       <defs>
        <path id="DejaVuSans-36" d="M 2113 2584 
Q 1688 2584 1439 2293 
Q 1191 2003 1191 1497 
Q 1191 994 1439 701 
Q 1688 409 2113 409 
Q 2538 409 2786 701 
Q 3034 994 3034 1497 
Q 3034 2003 2786 2293 
Q 2538 2584 2113 2584 
z
M 3366 4563 
L 3366 3988 
Q 3128 4100 2886 4159 
Q 2644 4219 2406 4219 
Q 1781 4219 1451 3797 
Q 1122 3375 1075 2522 
Q 1259 2794 1537 2939 
Q 1816 3084 2150 3084 
Q 2853 3084 3261 2657 
Q 3669 2231 3669 1497 
Q 3669 778 3244 343 
Q 2819 -91 2113 -91 
Q 1303 -91 875 529 
Q 447 1150 447 2328 
Q 447 3434 972 4092 
Q 1497 4750 2381 4750 
Q 2619 4750 2861 4703 
Q 3103 4656 3366 4563 
z
" transform="scale(0.015625)"/>
       </defs>
       <use xlink:href="#DejaVuSans-36"/>
       <use xlink:href="#DejaVuSans-30" transform="translate(63.623047 0)"/>
       <use xlink:href="#DejaVuSans-30" transform="translate(127.246094 0)"/>
       <use xlink:href="#DejaVuSans-30" transform="translate(190.869141 0)"/>
      </g>
     </g>
    </g>
    <g id="xtick_5">
     <g id="line2d_5">
      <g>
       <use xlink:href="#m9be03b6306" x="308.926221" y="304.44375" style="stroke: #000000; stroke-width: 0.8"/>
      </g>
     </g>
     <g id="text_5">
      <!-- 8000 -->
      <g transform="translate(296.201221 319.042187) scale(0.1 -0.1)">
       <defs>
        <path id="DejaVuSans-38" d="M 2034 2216 
Q 1584 2216 1326 1975 
Q 1069 1734 1069 1313 
Q 1069 891 1326 650 
Q 1584 409 2034 409 
Q 2484 409 2743 651 
Q 3003 894 3003 1313 
Q 3003 1734 2745 1975 
Q 2488 2216 2034 2216 
z
M 1403 2484 
Q 997 2584 770 2862 
Q 544 3141 544 3541 
Q 544 4100 942 4425 
Q 1341 4750 2034 4750 
Q 2731 4750 3128 4425 
Q 3525 4100 3525 3541 
Q 3525 3141 3298 2862 
Q 3072 2584 2669 2484 
Q 3125 2378 3379 2068 
Q 3634 1759 3634 1313 
Q 3634 634 3220 271 
Q 2806 -91 2034 -91 
Q 1263 -91 848 271 
Q 434 634 434 1313 
Q 434 1759 690 2068 
Q 947 2378 1403 2484 
z
M 1172 3481 
Q 1172 3119 1398 2916 
Q 1625 2713 2034 2713 
Q 2441 2713 2670 2916 
Q 2900 3119 2900 3481 
Q 2900 3844 2670 4047 
Q 2441 4250 2034 4250 
Q 1625 4250 1398 4047 
Q 1172 3844 1172 3481 
z
" transform="scale(0.015625)"/>
       </defs>
       <use xlink:href="#DejaVuSans-38"/>
       <use xlink:href="#DejaVuSans-30" transform="translate(63.623047 0)"/>
       <use xlink:href="#DejaVuSans-30" transform="translate(127.246094 0)"/>
       <use xlink:href="#DejaVuSans-30" transform="translate(190.869141 0)"/>
      </g>
     </g>
    </g>
    <g id="xtick_6">
     <g id="line2d_6">
      <g>
       <use xlink:href="#m9be03b6306" x="369.72446" y="304.44375" style="stroke: #000000; stroke-width: 0.8"/>
      </g>
     </g>
     <g id="text_6">
      <!-- 10000 -->
      <g transform="translate(353.81821 319.042187) scale(0.1 -0.1)">
       <defs>
        <path id="DejaVuSans-31" d="M 794 531 
L 1825 531 
L 1825 4091 
L 703 3866 
L 703 4441 
L 1819 4666 
L 2450 4666 
L 2450 531 
L 3481 531 
L 3481 0 
L 794 0 
L 794 531 
z
" transform="scale(0.015625)"/>
       </defs>
       <use xlink:href="#DejaVuSans-31"/>
       <use xlink:href="#DejaVuSans-30" transform="translate(63.623047 0)"/>
       <use xlink:href="#DejaVuSans-30" transform="translate(127.246094 0)"/>
       <use xlink:href="#DejaVuSans-30" transform="translate(190.869141 0)"/>
       <use xlink:href="#DejaVuSans-30" transform="translate(254.492188 0)"/>
      </g>
     </g>
    </g>
    <g id="text_7">
     <!-- n runs -->
     <g transform="translate(201.988594 332.720312) scale(0.1 -0.1)">
      <defs>
       <path id="DejaVuSans-6e" d="M 3513 2113 
L 3513 0 
L 2938 0 
L 2938 2094 
Q 2938 2591 2744 2837 
Q 2550 3084 2163 3084 
Q 1697 3084 1428 2787 
Q 1159 2491 1159 1978 
L 1159 0 
L 581 0 
L 581 3500 
L 1159 3500 
L 1159 2956 
Q 1366 3272 1645 3428 
Q 1925 3584 2291 3584 
Q 2894 3584 3203 3211 
Q 3513 2838 3513 2113 
z
" transform="scale(0.015625)"/>
       <path id="DejaVuSans-20" transform="scale(0.015625)"/>
       <path id="DejaVuSans-72" d="M 2631 2963 
Q 2534 3019 2420 3045 
Q 2306 3072 2169 3072 
Q 1681 3072 1420 2755 
Q 1159 2438 1159 1844 
L 1159 0 
L 581 0 
L 581 3500 
L 1159 3500 
L 1159 2956 
Q 1341 3275 1631 3429 
Q 1922 3584 2338 3584 
Q 2397 3584 2469 3576 
Q 2541 3569 2628 3553 
L 2631 2963 
z
" transform="scale(0.015625)"/>
       <path id="DejaVuSans-75" d="M 544 1381 
L 544 3500 
L 1119 3500 
L 1119 1403 
Q 1119 906 1312 657 
Q 1506 409 1894 409 
Q 2359 409 2629 706 
Q 2900 1003 2900 1516 
L 2900 3500 
L 3475 3500 
L 3475 0 
L 2900 0 
L 2900 538 
Q 2691 219 2414 64 
Q 2138 -91 1772 -91 
Q 1169 -91 856 284 
Q 544 659 544 1381 
z
M 1991 3584 
L 1991 3584 
z
" transform="scale(0.015625)"/>
       <path id="DejaVuSans-73" d="M 2834 3397 
L 2834 2853 
Q 2591 2978 2328 3040 
Q 2066 3103 1784 3103 
Q 1356 3103 1142 2972 
Q 928 2841 928 2578 
Q 928 2378 1081 2264 
Q 1234 2150 1697 2047 
L 1894 2003 
Q 2506 1872 2764 1633 
Q 3022 1394 3022 966 
Q 3022 478 2636 193 
Q 2250 -91 1575 -91 
Q 1294 -91 989 -36 
Q 684 19 347 128 
L 347 722 
Q 666 556 975 473 
Q 1284 391 1588 391 
Q 1994 391 2212 530 
Q 2431 669 2431 922 
Q 2431 1156 2273 1281 
Q 2116 1406 1581 1522 
L 1381 1569 
Q 847 1681 609 1914 
Q 372 2147 372 2553 
Q 372 3047 722 3315 
Q 1072 3584 1716 3584 
Q 2034 3584 2315 3537 
Q 2597 3491 2834 3397 
z
" transform="scale(0.015625)"/>
      </defs>
      <use xlink:href="#DejaVuSans-6e"/>
      <use xlink:href="#DejaVuSans-20" transform="translate(63.378906 0)"/>
      <use xlink:href="#DejaVuSans-72" transform="translate(95.166016 0)"/>
      <use xlink:href="#DejaVuSans-75" transform="translate(136.279297 0)"/>
      <use xlink:href="#DejaVuSans-6e" transform="translate(199.658203 0)"/>
      <use xlink:href="#DejaVuSans-73" transform="translate(263.037109 0)"/>
     </g>
    </g>
   </g>
   <g id="matplotlib.axis_2">
    <g id="ytick_1">
     <g id="line2d_7">
      <defs>
       <path id="mfde77c9088" d="M 0 0 
L -3.5 0 
" style="stroke: #000000; stroke-width: 0.8"/>
      </defs>
      <g>
       <use xlink:href="#mfde77c9088" x="50.565625" y="291.516038" style="stroke: #000000; stroke-width: 0.8"/>
      </g>
     </g>
     <g id="text_8">
      <!-- 0 -->
      <g transform="translate(37.203125 295.315256) scale(0.1 -0.1)">
       <use xlink:href="#DejaVuSans-30"/>
      </g>
     </g>
    </g>
    <g id="ytick_2">
     <g id="line2d_8">
      <g>
       <use xlink:href="#mfde77c9088" x="50.565625" y="249.542946" style="stroke: #000000; stroke-width: 0.8"/>
      </g>
     </g>
     <g id="text_9">
      <!-- 100 -->
      <g transform="translate(24.478125 253.342165) scale(0.1 -0.1)">
       <use xlink:href="#DejaVuSans-31"/>
       <use xlink:href="#DejaVuSans-30" transform="translate(63.623047 0)"/>
       <use xlink:href="#DejaVuSans-30" transform="translate(127.246094 0)"/>
      </g>
     </g>
    </g>
    <g id="ytick_3">
     <g id="line2d_9">
      <g>
       <use xlink:href="#mfde77c9088" x="50.565625" y="207.569854" style="stroke: #000000; stroke-width: 0.8"/>
      </g>
     </g>
     <g id="text_10">
      <!-- 200 -->
      <g transform="translate(24.478125 211.369073) scale(0.1 -0.1)">
       <use xlink:href="#DejaVuSans-32"/>
       <use xlink:href="#DejaVuSans-30" transform="translate(63.623047 0)"/>
       <use xlink:href="#DejaVuSans-30" transform="translate(127.246094 0)"/>
      </g>
     </g>
    </g>
    <g id="ytick_4">
     <g id="line2d_10">
      <g>
       <use xlink:href="#mfde77c9088" x="50.565625" y="165.596762" style="stroke: #000000; stroke-width: 0.8"/>
      </g>
     </g>
     <g id="text_11">
      <!-- 300 -->
      <g transform="translate(24.478125 169.395981) scale(0.1 -0.1)">
       <defs>
        <path id="DejaVuSans-33" d="M 2597 2516 
Q 3050 2419 3304 2112 
Q 3559 1806 3559 1356 
Q 3559 666 3084 287 
Q 2609 -91 1734 -91 
Q 1441 -91 1130 -33 
Q 819 25 488 141 
L 488 750 
Q 750 597 1062 519 
Q 1375 441 1716 441 
Q 2309 441 2620 675 
Q 2931 909 2931 1356 
Q 2931 1769 2642 2001 
Q 2353 2234 1838 2234 
L 1294 2234 
L 1294 2753 
L 1863 2753 
Q 2328 2753 2575 2939 
Q 2822 3125 2822 3475 
Q 2822 3834 2567 4026 
Q 2313 4219 1838 4219 
Q 1578 4219 1281 4162 
Q 984 4106 628 3988 
L 628 4550 
Q 988 4650 1302 4700 
Q 1616 4750 1894 4750 
Q 2613 4750 3031 4423 
Q 3450 4097 3450 3541 
Q 3450 3153 3228 2886 
Q 3006 2619 2597 2516 
z
" transform="scale(0.015625)"/>
       </defs>
       <use xlink:href="#DejaVuSans-33"/>
       <use xlink:href="#DejaVuSans-30" transform="translate(63.623047 0)"/>
       <use xlink:href="#DejaVuSans-30" transform="translate(127.246094 0)"/>
      </g>
     </g>
    </g>
    <g id="ytick_5">
     <g id="line2d_11">
      <g>
       <use xlink:href="#mfde77c9088" x="50.565625" y="123.623671" style="stroke: #000000; stroke-width: 0.8"/>
      </g>
     </g>
     <g id="text_12">
      <!-- 400 -->
      <g transform="translate(24.478125 127.422889) scale(0.1 -0.1)">
       <use xlink:href="#DejaVuSans-34"/>
       <use xlink:href="#DejaVuSans-30" transform="translate(63.623047 0)"/>
       <use xlink:href="#DejaVuSans-30" transform="translate(127.246094 0)"/>
      </g>
     </g>
    </g>
    <g id="ytick_6">
     <g id="line2d_12">
      <g>
       <use xlink:href="#mfde77c9088" x="50.565625" y="81.650579" style="stroke: #000000; stroke-width: 0.8"/>
      </g>
     </g>
     <g id="text_13">
      <!-- 500 -->
      <g transform="translate(24.478125 85.449798) scale(0.1 -0.1)">
       <defs>
        <path id="DejaVuSans-35" d="M 691 4666 
L 3169 4666 
L 3169 4134 
L 1269 4134 
L 1269 2991 
Q 1406 3038 1543 3061 
Q 1681 3084 1819 3084 
Q 2600 3084 3056 2656 
Q 3513 2228 3513 1497 
Q 3513 744 3044 326 
Q 2575 -91 1722 -91 
Q 1428 -91 1123 -41 
Q 819 9 494 109 
L 494 744 
Q 775 591 1075 516 
Q 1375 441 1709 441 
Q 2250 441 2565 725 
Q 2881 1009 2881 1497 
Q 2881 1984 2565 2268 
Q 2250 2553 1709 2553 
Q 1456 2553 1204 2497 
Q 953 2441 691 2322 
L 691 4666 
z
" transform="scale(0.015625)"/>
       </defs>
       <use xlink:href="#DejaVuSans-35"/>
       <use xlink:href="#DejaVuSans-30" transform="translate(63.623047 0)"/>
       <use xlink:href="#DejaVuSans-30" transform="translate(127.246094 0)"/>
      </g>
     </g>
    </g>
    <g id="ytick_7">
     <g id="line2d_13">
      <g>
       <use xlink:href="#mfde77c9088" x="50.565625" y="39.677487" style="stroke: #000000; stroke-width: 0.8"/>
      </g>
     </g>
     <g id="text_14">
      <!-- 600 -->
      <g transform="translate(24.478125 43.476706) scale(0.1 -0.1)">
       <use xlink:href="#DejaVuSans-36"/>
       <use xlink:href="#DejaVuSans-30" transform="translate(63.623047 0)"/>
       <use xlink:href="#DejaVuSans-30" transform="translate(127.246094 0)"/>
      </g>
     </g>
    </g>
    <g id="text_15">
     <!-- time (ms) -->
     <g transform="translate(18.398438 181.883594) rotate(-90) scale(0.1 -0.1)">
      <defs>
       <path id="DejaVuSans-74" d="M 1172 4494 
L 1172 3500 
L 2356 3500 
L 2356 3053 
L 1172 3053 
L 1172 1153 
Q 1172 725 1289 603 
Q 1406 481 1766 481 
L 2356 481 
L 2356 0 
L 1766 0 
Q 1100 0 847 248 
Q 594 497 594 1153 
L 594 3053 
L 172 3053 
L 172 3500 
L 594 3500 
L 594 4494 
L 1172 4494 
z
" transform="scale(0.015625)"/>
       <path id="DejaVuSans-69" d="M 603 3500 
L 1178 3500 
L 1178 0 
L 603 0 
L 603 3500 
z
M 603 4863 
L 1178 4863 
L 1178 4134 
L 603 4134 
L 603 4863 
z
" transform="scale(0.015625)"/>
       <path id="DejaVuSans-6d" d="M 3328 2828 
Q 3544 3216 3844 3400 
Q 4144 3584 4550 3584 
Q 5097 3584 5394 3201 
Q 5691 2819 5691 2113 
L 5691 0 
L 5113 0 
L 5113 2094 
Q 5113 2597 4934 2840 
Q 4756 3084 4391 3084 
Q 3944 3084 3684 2787 
Q 3425 2491 3425 1978 
L 3425 0 
L 2847 0 
L 2847 2094 
Q 2847 2600 2669 2842 
Q 2491 3084 2119 3084 
Q 1678 3084 1418 2786 
Q 1159 2488 1159 1978 
L 1159 0 
L 581 0 
L 581 3500 
L 1159 3500 
L 1159 2956 
Q 1356 3278 1631 3431 
Q 1906 3584 2284 3584 
Q 2666 3584 2933 3390 
Q 3200 3197 3328 2828 
z
" transform="scale(0.015625)"/>
       <path id="DejaVuSans-65" d="M 3597 1894 
L 3597 1613 
L 953 1613 
Q 991 1019 1311 708 
Q 1631 397 2203 397 
Q 2534 397 2845 478 
Q 3156 559 3463 722 
L 3463 178 
Q 3153 47 2828 -22 
Q 2503 -91 2169 -91 
Q 1331 -91 842 396 
Q 353 884 353 1716 
Q 353 2575 817 3079 
Q 1281 3584 2069 3584 
Q 2775 3584 3186 3129 
Q 3597 2675 3597 1894 
z
M 3022 2063 
Q 3016 2534 2758 2815 
Q 2500 3097 2075 3097 
Q 1594 3097 1305 2825 
Q 1016 2553 972 2059 
L 3022 2063 
z
" transform="scale(0.015625)"/>
       <path id="DejaVuSans-28" d="M 1984 4856 
Q 1566 4138 1362 3434 
Q 1159 2731 1159 2009 
Q 1159 1288 1364 580 
Q 1569 -128 1984 -844 
L 1484 -844 
Q 1016 -109 783 600 
Q 550 1309 550 2009 
Q 550 2706 781 3412 
Q 1013 4119 1484 4856 
L 1984 4856 
z
" transform="scale(0.015625)"/>
       <path id="DejaVuSans-29" d="M 513 4856 
L 1013 4856 
Q 1481 4119 1714 3412 
Q 1947 2706 1947 2009 
Q 1947 1309 1714 600 
Q 1481 -109 1013 -844 
L 513 -844 
Q 928 -128 1133 580 
Q 1338 1288 1338 2009 
Q 1338 2731 1133 3434 
Q 928 4138 513 4856 
z
" transform="scale(0.015625)"/>
      </defs>
      <use xlink:href="#DejaVuSans-74"/>
      <use xlink:href="#DejaVuSans-69" transform="translate(39.208984 0)"/>
      <use xlink:href="#DejaVuSans-6d" transform="translate(66.992188 0)"/>
      <use xlink:href="#DejaVuSans-65" transform="translate(164.404297 0)"/>
      <use xlink:href="#DejaVuSans-20" transform="translate(225.927734 0)"/>
      <use xlink:href="#DejaVuSans-28" transform="translate(257.714844 0)"/>
      <use xlink:href="#DejaVuSans-6d" transform="translate(296.728516 0)"/>
      <use xlink:href="#DejaVuSans-73" transform="translate(394.140625 0)"/>
      <use xlink:href="#DejaVuSans-29" transform="translate(446.240234 0)"/>
     </g>
    </g>
   </g>
   <g id="line2d_14">
    <path d="M 65.763665 271.788685 
L 66.037257 271.788685 
L 66.341248 271.368954 
L 66.645239 271.368954 
L 66.94923 270.529492 
L 67.253222 270.529492 
L 67.557213 270.109761 
L 67.861204 270.529492 
L 68.165195 269.270299 
L 68.469186 269.69003 
L 68.773178 269.69003 
L 71.81309 267.171645 
L 74.853001 265.492721 
L 77.892913 263.813797 
L 80.932825 261.715143 
L 83.972737 261.295412 
L 87.012649 259.616488 
L 90.052561 259.616488 
L 93.092473 258.357295 
L 96.132385 256.678372 
L 99.172297 256.678372 
L 102.212209 253.740255 
L 105.252121 254.579717 
L 108.292033 252.900793 
L 111.331945 253.320524 
L 114.371857 252.061331 
L 117.411769 250.382408 
L 120.451681 252.061331 
L 123.491593 249.962677 
L 126.531505 248.703484 
L 129.571417 248.703484 
L 132.611328 247.444291 
L 135.65124 247.444291 
L 138.691152 247.444291 
L 141.731064 246.60483 
L 144.770976 246.185099 
L 147.810888 246.185099 
L 150.8508 246.185099 
L 153.890712 245.345637 
L 156.930624 244.925906 
L 159.970536 244.925906 
L 163.010448 244.925906 
L 166.05036 244.086444 
L 169.090272 244.506175 
L 172.130184 243.666713 
L 175.170096 243.246982 
L 178.210008 243.666713 
L 181.24992 242.827251 
L 184.289832 242.40752 
L 187.329743 241.987789 
L 190.369655 242.40752 
L 193.409567 242.40752 
L 196.449479 241.987789 
L 199.489391 241.987789 
L 202.529303 241.568059 
L 205.569215 241.148328 
L 208.609127 241.987789 
L 211.649039 240.728597 
L 214.688951 241.148328 
L 217.728863 241.148328 
L 220.768775 241.148328 
L 223.808687 240.728597 
L 226.848599 240.308866 
L 229.888511 238.210211 
L 232.928423 239.469404 
L 235.968335 239.889135 
L 239.008247 239.889135 
L 242.048159 240.308866 
L 245.08807 239.469404 
L 248.127982 239.469404 
L 251.167894 239.469404 
L 254.207806 238.210211 
L 257.247718 238.210211 
L 260.28763 238.629942 
L 263.327542 238.629942 
L 266.367454 237.79048 
L 269.407366 237.79048 
L 272.447278 237.79048 
L 275.48719 237.79048 
L 278.527102 237.370749 
L 281.567014 237.79048 
L 284.606926 237.79048 
L 287.646838 236.111557 
L 290.68675 236.111557 
L 293.726662 235.272095 
L 296.766574 236.531288 
L 299.806485 236.531288 
L 302.846397 235.272095 
L 305.886309 236.111557 
L 308.926221 236.111557 
L 311.966133 235.272095 
L 315.006045 234.432633 
L 318.045957 235.691826 
L 321.085869 234.852364 
L 324.125781 234.852364 
L 327.165693 235.272095 
L 330.205605 234.432633 
L 333.245517 234.432633 
L 336.285429 234.852364 
L 339.325341 234.432633 
L 342.365253 232.753709 
L 345.405165 233.17344 
L 348.445077 233.593171 
L 351.484989 232.753709 
L 354.5249 233.17344 
L 357.564812 230.655055 
L 360.604724 232.753709 
L 363.644636 232.753709 
L 366.684548 232.753709 
L 369.72446 231.494517 
" clip-path="url(#pdf422a0351)" style="fill: none; stroke: #1f77b4; stroke-width: 1.5; stroke-linecap: square"/>
   </g>
   <g id="line2d_15">
    <path d="M 65.763665 288.997652 
L 66.037257 288.577921 
L 66.341248 288.577921 
L 66.645239 288.577921 
L 66.94923 288.15819 
L 67.253222 287.738459 
L 67.557213 288.15819 
L 67.861204 288.15819 
L 68.165195 287.738459 
L 68.469186 287.318729 
L 68.773178 287.318729 
L 71.81309 286.059536 
L 74.853001 284.800343 
L 77.892913 283.54115 
L 80.932825 282.701688 
L 83.972737 281.862227 
L 87.012649 281.442496 
L 90.052561 280.603034 
L 93.092473 280.183303 
L 96.132385 279.763572 
L 99.172297 279.343841 
L 102.212209 276.825456 
L 105.252121 276.825456 
L 108.292033 276.405725 
L 111.331945 275.985994 
L 114.371857 276.405725 
L 117.411769 275.566263 
L 120.451681 275.985994 
L 123.491593 275.985994 
L 126.531505 275.146532 
L 129.571417 275.146532 
L 132.611328 274.30707 
L 135.65124 275.146532 
L 138.691152 275.146532 
L 141.731064 274.726801 
L 144.770976 274.726801 
L 147.810888 274.30707 
L 150.8508 274.30707 
L 153.890712 274.30707 
L 156.930624 273.467608 
L 159.970536 273.887339 
L 163.010448 273.467608 
L 166.05036 273.887339 
L 169.090272 273.047877 
L 172.130184 272.628146 
L 175.170096 273.047877 
L 178.210008 273.047877 
L 181.24992 273.047877 
L 184.289832 272.208416 
L 187.329743 272.628146 
L 190.369655 272.208416 
L 193.409567 272.208416 
L 196.449479 271.368954 
L 199.489391 271.368954 
L 202.529303 271.368954 
L 205.569215 271.368954 
L 208.609127 271.368954 
L 211.649039 270.529492 
L 214.688951 270.949223 
L 217.728863 270.109761 
L 220.768775 270.529492 
L 223.808687 270.529492 
L 226.848599 269.69003 
L 229.888511 269.69003 
L 232.928423 269.270299 
L 235.968335 268.850568 
L 239.008247 267.591375 
L 242.048159 268.430837 
L 245.08807 268.011106 
L 248.127982 267.171645 
L 251.167894 268.011106 
L 254.207806 267.591375 
L 257.247718 268.011106 
L 260.28763 267.171645 
L 263.327542 268.011106 
L 266.367454 267.171645 
L 269.407366 265.912452 
L 272.447278 266.332183 
L 275.48719 266.751914 
L 278.527102 265.912452 
L 281.567014 266.332183 
L 284.606926 266.332183 
L 287.646838 266.332183 
L 290.68675 266.332183 
L 293.726662 265.492721 
L 296.766574 265.492721 
L 299.806485 265.07299 
L 302.846397 265.492721 
L 305.886309 265.07299 
L 308.926221 265.07299 
L 311.966133 265.912452 
L 315.006045 264.653259 
L 318.045957 264.653259 
L 321.085869 264.653259 
L 324.125781 265.07299 
L 327.165693 264.233528 
L 330.205605 264.233528 
L 333.245517 261.715143 
L 336.285429 263.813797 
L 339.325341 257.937564 
L 342.365253 263.394066 
L 345.405165 262.554604 
L 348.445077 263.394066 
L 351.484989 263.394066 
L 354.5249 262.554604 
L 357.564812 262.554604 
L 360.604724 262.974335 
L 363.644636 262.554604 
L 366.684548 261.715143 
L 369.72446 262.134873 
" clip-path="url(#pdf422a0351)" style="fill: none; stroke: #ff7f0e; stroke-width: 1.5; stroke-linecap: square"/>
   </g>
   <g id="line2d_16">
    <path d="M 65.763665 284.800343 
L 66.037257 284.800343 
L 66.341248 284.380612 
L 66.645239 283.960881 
L 66.94923 283.54115 
L 67.253222 283.121419 
L 67.557213 283.121419 
L 67.861204 282.701688 
L 68.165195 282.281958 
L 68.469186 281.862227 
L 68.773178 281.862227 
L 71.81309 279.343841 
L 74.853001 276.405725 
L 77.892913 274.726801 
L 80.932825 273.467608 
L 83.972737 271.788685 
L 87.012649 270.109761 
L 90.052561 268.430837 
L 93.092473 267.591375 
L 96.132385 266.332183 
L 99.172297 265.07299 
L 102.212209 262.974335 
L 105.252121 262.974335 
L 108.292033 261.715143 
L 111.331945 260.875681 
L 114.371857 260.036219 
L 117.411769 257.937564 
L 120.451681 258.357295 
L 123.491593 257.098102 
L 126.531505 256.678372 
L 129.571417 256.258641 
L 132.611328 254.999448 
L 135.65124 254.159986 
L 138.691152 253.320524 
L 141.731064 252.481062 
L 144.770976 252.061331 
L 147.810888 250.382408 
L 150.8508 249.962677 
L 153.890712 249.123215 
L 156.930624 249.123215 
L 159.970536 247.864022 
L 163.010448 247.02456 
L 166.05036 246.185099 
L 169.090272 245.765368 
L 172.130184 243.666713 
L 175.170096 244.086444 
L 178.210008 241.987789 
L 181.24992 241.987789 
L 184.289832 240.728597 
L 187.329743 240.728597 
L 190.369655 240.308866 
L 193.409567 239.469404 
L 196.449479 238.629942 
L 199.489391 237.79048 
L 202.529303 235.691826 
L 205.569215 236.111557 
L 208.609127 234.432633 
L 211.649039 234.432633 
L 214.688951 233.593171 
L 217.728863 231.494517 
L 220.768775 231.074786 
L 223.808687 230.235324 
L 226.848599 228.976131 
L 229.888511 228.136669 
L 232.928423 226.877476 
L 235.968335 227.297207 
L 239.008247 226.038015 
L 242.048159 225.198553 
L 245.08807 224.778822 
L 248.127982 223.93936 
L 251.167894 222.260436 
L 254.207806 220.161782 
L 257.247718 221.001244 
L 260.28763 221.420974 
L 263.327542 220.161782 
L 266.367454 219.32232 
L 269.407366 218.902589 
L 272.447278 218.063127 
L 275.48719 216.803934 
L 278.527102 215.964473 
L 281.567014 216.803934 
L 284.606926 215.125011 
L 287.646838 214.70528 
L 290.68675 213.865818 
L 293.726662 211.767163 
L 296.766574 211.767163 
L 299.806485 212.186894 
L 302.846397 210.927702 
L 305.886309 208.409316 
L 308.926221 208.409316 
L 311.966133 208.409316 
L 315.006045 206.730392 
L 318.045957 207.150123 
L 321.085869 205.890931 
L 324.125781 204.631738 
L 327.165693 204.212007 
L 330.205605 203.792276 
L 333.245517 203.372545 
L 336.285429 202.533083 
L 339.325341 202.113352 
L 342.365253 200.85416 
L 345.405165 200.014698 
L 348.445077 200.434429 
L 351.484989 199.175236 
L 354.5249 198.755505 
L 357.564812 197.916043 
L 360.604724 197.496312 
L 363.644636 195.397658 
L 366.684548 195.817389 
L 369.72446 193.718734 
" clip-path="url(#pdf422a0351)" style="fill: none; stroke: #2ca02c; stroke-width: 1.5; stroke-linecap: square"/>
   </g>
   <g id="line2d_17">
    <path d="M 65.763665 48.911567 
L 66.037257 46.812913 
L 66.341248 45.55372 
L 66.645239 50.590491 
L 66.94923 46.812913 
L 67.253222 47.652375 
L 67.557213 45.55372 
L 67.861204 48.491836 
L 68.165195 47.652375 
L 68.469186 44.294527 
L 68.773178 48.491836 
L 71.81309 45.55372 
L 74.853001 45.133989 
L 77.892913 39.257756 
L 80.932825 41.776142 
L 83.972737 44.294527 
L 87.012649 41.356411 
L 90.052561 41.356411 
L 93.092473 42.615604 
L 96.132385 41.356411 
L 99.172297 37.998563 
L 102.212209 39.257756 
L 105.252121 39.257756 
L 108.292033 42.615604 
L 111.331945 40.097218 
L 114.371857 38.418294 
L 117.411769 38.418294 
L 120.451681 37.998563 
L 123.491593 41.776142 
L 126.531505 40.516949 
L 129.571417 40.93668 
L 132.611328 40.516949 
L 135.65124 39.257756 
L 138.691152 37.159102 
L 141.731064 38.418294 
L 144.770976 35.480178 
L 147.810888 36.31964 
L 150.8508 39.677487 
L 153.890712 37.998563 
L 156.930624 37.159102 
L 159.970536 34.220985 
L 163.010448 34.640716 
L 166.05036 35.480178 
L 169.090272 35.899909 
L 172.130184 36.31964 
L 175.170096 37.578833 
L 178.210008 30.863138 
L 181.24992 32.961792 
L 184.289832 35.060447 
L 187.329743 35.060447 
L 190.369655 36.31964 
L 193.409567 35.060447 
L 196.449479 37.998563 
L 199.489391 32.542062 
L 202.529303 37.159102 
L 205.569215 37.159102 
L 208.609127 37.159102 
L 211.649039 32.542062 
L 214.688951 32.961792 
L 217.728863 35.480178 
L 220.768775 33.801254 
L 223.808687 35.899909 
L 226.848599 35.060447 
L 229.888511 34.640716 
L 232.928423 33.801254 
L 235.968335 35.060447 
L 239.008247 33.801254 
L 242.048159 32.961792 
L 245.08807 33.801254 
L 248.127982 30.863138 
L 251.167894 32.122331 
L 254.207806 32.542062 
L 257.247718 34.220985 
L 260.28763 28.344752 
L 263.327542 28.764483 
L 266.367454 32.122331 
L 269.407366 30.443407 
L 272.447278 31.282869 
L 275.48719 30.443407 
L 278.527102 32.961792 
L 281.567014 33.381523 
L 284.606926 30.863138 
L 287.646838 30.863138 
L 290.68675 32.122331 
L 293.726662 30.863138 
L 296.766574 33.801254 
L 299.806485 32.542062 
L 302.846397 32.961792 
L 305.886309 30.863138 
L 308.926221 30.863138 
L 311.966133 28.344752 
L 315.006045 29.603945 
L 318.045957 28.764483 
L 321.085869 29.603945 
L 324.125781 30.023676 
L 327.165693 31.7026 
L 330.205605 30.023676 
L 333.245517 29.603945 
L 336.285429 30.863138 
L 339.325341 30.863138 
L 342.365253 30.443407 
L 345.405165 28.764483 
L 348.445077 29.603945 
L 351.484989 24.147443 
L 354.5249 30.023676 
L 357.564812 29.184214 
L 360.604724 27.08556 
L 363.644636 26.665829 
L 366.684548 27.505291 
L 369.72446 24.147443 
" clip-path="url(#pdf422a0351)" style="fill: none; stroke: #d62728; stroke-width: 1.5; stroke-linecap: square"/>
   </g>
   <g id="line2d_18">
    <path d="M 65.763665 290.256845 
L 66.037257 290.256845 
L 66.341248 288.997652 
L 66.645239 288.997652 
L 66.94923 288.997652 
L 67.253222 288.997652 
L 67.557213 288.577921 
L 67.861204 288.577921 
L 68.165195 288.15819 
L 68.469186 288.15819 
L 68.773178 288.15819 
L 71.81309 287.318729 
L 74.853001 285.639805 
L 77.892913 285.220074 
L 80.932825 284.800343 
L 83.972737 283.960881 
L 87.012649 283.54115 
L 90.052561 283.121419 
L 93.092473 282.701688 
L 96.132385 282.281958 
L 99.172297 281.862227 
L 102.212209 281.862227 
L 105.252121 281.442496 
L 108.292033 281.442496 
L 111.331945 280.603034 
L 114.371857 280.603034 
L 117.411769 280.183303 
L 120.451681 280.603034 
L 123.491593 280.183303 
L 126.531505 279.343841 
L 129.571417 279.763572 
L 132.611328 279.343841 
L 135.65124 279.343841 
L 138.691152 279.343841 
L 141.731064 278.92411 
L 144.770976 278.92411 
L 147.810888 278.504379 
L 150.8508 278.92411 
L 153.890712 278.504379 
L 156.930624 278.504379 
L 159.970536 278.504379 
L 163.010448 278.084648 
L 166.05036 277.245187 
L 169.090272 278.084648 
L 172.130184 277.245187 
L 175.170096 277.664917 
L 178.210008 277.664917 
L 181.24992 277.664917 
L 184.289832 277.664917 
L 187.329743 277.245187 
L 190.369655 277.245187 
L 193.409567 276.825456 
L 196.449479 276.825456 
L 199.489391 276.825456 
L 202.529303 276.825456 
L 205.569215 275.985994 
L 208.609127 276.405725 
L 211.649039 276.405725 
L 214.688951 275.985994 
L 217.728863 275.985994 
L 220.768775 275.985994 
L 223.808687 275.985994 
L 226.848599 275.985994 
L 229.888511 275.146532 
L 232.928423 275.566263 
L 235.968335 275.146532 
L 239.008247 275.146532 
L 242.048159 274.30707 
L 245.08807 275.146532 
L 248.127982 275.146532 
L 251.167894 274.726801 
L 254.207806 274.30707 
L 257.247718 274.30707 
L 260.28763 274.726801 
L 263.327542 274.726801 
L 266.367454 274.30707 
L 269.407366 274.726801 
L 272.447278 273.887339 
L 275.48719 273.887339 
L 278.527102 274.30707 
L 281.567014 273.887339 
L 284.606926 273.887339 
L 287.646838 273.467608 
L 290.68675 272.628146 
L 293.726662 273.467608 
L 296.766574 273.047877 
L 299.806485 273.047877 
L 302.846397 273.047877 
L 305.886309 273.047877 
L 308.926221 273.047877 
L 311.966133 272.628146 
L 315.006045 273.047877 
L 318.045957 272.628146 
L 321.085869 272.628146 
L 324.125781 272.628146 
L 327.165693 272.208416 
L 330.205605 271.788685 
L 333.245517 272.208416 
L 336.285429 272.208416 
L 339.325341 271.788685 
L 342.365253 271.788685 
L 345.405165 270.529492 
L 348.445077 271.788685 
L 351.484989 271.368954 
L 354.5249 271.368954 
L 357.564812 271.368954 
L 360.604724 270.949223 
L 363.644636 270.949223 
L 366.684548 270.109761 
L 369.72446 269.270299 
" clip-path="url(#pdf422a0351)" style="fill: none; stroke: #9467bd; stroke-width: 1.5; stroke-linecap: square"/>
   </g>
   <g id="line2d_19">
    <path d="M 65.763665 227.297207 
L 66.037257 224.778822 
L 66.341248 223.519629 
L 66.645239 225.198553 
L 66.94923 223.099898 
L 67.253222 222.260436 
L 67.557213 223.93936 
L 67.861204 222.260436 
L 68.165195 222.260436 
L 68.469186 221.840705 
L 68.773178 220.581513 
L 71.81309 219.32232 
L 74.853001 221.001244 
L 77.892913 218.482858 
L 80.932825 216.384203 
L 83.972737 216.384203 
L 87.012649 215.544742 
L 90.052561 213.446087 
L 93.092473 215.544742 
L 96.132385 214.285549 
L 99.172297 213.026356 
L 102.212209 213.865818 
L 105.252121 213.865818 
L 108.292033 214.70528 
L 111.331945 212.606625 
L 114.371857 212.186894 
L 117.411769 210.927702 
L 120.451681 212.606625 
L 123.491593 210.927702 
L 126.531505 209.668509 
L 129.571417 212.606625 
L 132.611328 211.767163 
L 135.65124 212.186894 
L 138.691152 210.927702 
L 141.731064 210.08824 
L 144.770976 210.08824 
L 147.810888 212.186894 
L 150.8508 209.248778 
L 153.890712 208.829047 
L 156.930624 209.668509 
L 159.970536 209.668509 
L 163.010448 209.248778 
L 166.05036 205.4712 
L 169.090272 210.08824 
L 172.130184 207.150123 
L 175.170096 203.372545 
L 178.210008 208.829047 
L 181.24992 207.569854 
L 184.289832 207.569854 
L 187.329743 210.08824 
L 190.369655 207.989585 
L 193.409567 207.989585 
L 196.449479 206.310661 
L 199.489391 207.569854 
L 202.529303 210.927702 
L 205.569215 202.533083 
L 208.609127 207.989585 
L 211.649039 206.730392 
L 214.688951 204.631738 
L 217.728863 205.890931 
L 220.768775 208.829047 
L 223.808687 206.310661 
L 226.848599 203.792276 
L 229.888511 202.952814 
L 232.928423 203.372545 
L 235.968335 203.372545 
L 239.008247 205.051469 
L 242.048159 203.792276 
L 245.08807 204.212007 
L 248.127982 204.631738 
L 251.167894 206.730392 
L 254.207806 205.4712 
L 257.247718 200.85416 
L 260.28763 202.533083 
L 263.327542 203.372545 
L 266.367454 204.212007 
L 269.407366 203.372545 
L 272.447278 203.372545 
L 275.48719 202.113352 
L 278.527102 202.952814 
L 281.567014 205.4712 
L 284.606926 200.434429 
L 287.646838 202.533083 
L 290.68675 202.952814 
L 293.726662 202.533083 
L 296.766574 203.792276 
L 299.806485 203.372545 
L 302.846397 203.372545 
L 305.886309 202.113352 
L 308.926221 199.175236 
L 311.966133 201.27389 
L 315.006045 202.533083 
L 318.045957 203.792276 
L 321.085869 203.372545 
L 324.125781 204.212007 
L 327.165693 202.533083 
L 330.205605 202.533083 
L 333.245517 200.014698 
L 336.285429 200.434429 
L 339.325341 200.434429 
L 342.365253 197.916043 
L 345.405165 202.533083 
L 348.445077 201.27389 
L 351.484989 199.594967 
L 354.5249 200.85416 
L 357.564812 201.27389 
L 360.604724 199.594967 
L 363.644636 199.594967 
L 366.684548 194.977927 
L 369.72446 200.014698 
" clip-path="url(#pdf422a0351)" style="fill: none; stroke: #8c564b; stroke-width: 1.5; stroke-linecap: square"/>
   </g>
   <g id="line2d_20">
    <path d="M 65.763665 288.997652 
L 66.037257 288.997652 
L 66.341248 288.997652 
L 66.645239 288.997652 
L 66.94923 288.997652 
L 67.253222 288.577921 
L 67.557213 288.577921 
L 67.861204 288.577921 
L 68.165195 288.577921 
L 68.469186 288.577921 
L 68.773178 288.15819 
L 71.81309 287.738459 
L 74.853001 287.318729 
L 77.892913 286.898998 
L 80.932825 286.479267 
L 83.972737 286.479267 
L 87.012649 286.059536 
L 90.052561 285.639805 
L 93.092473 285.639805 
L 96.132385 285.220074 
L 99.172297 285.220074 
L 102.212209 285.220074 
L 105.252121 285.220074 
L 108.292033 283.960881 
L 111.331945 283.960881 
L 114.371857 284.800343 
L 117.411769 284.380612 
L 120.451681 283.54115 
L 123.491593 284.380612 
L 126.531505 284.380612 
L 129.571417 284.380612 
L 132.611328 284.380612 
L 135.65124 284.380612 
L 138.691152 283.960881 
L 141.731064 283.960881 
L 144.770976 283.960881 
L 147.810888 283.960881 
L 150.8508 283.54115 
L 153.890712 283.54115 
L 156.930624 283.960881 
L 159.970536 283.54115 
L 163.010448 283.54115 
L 166.05036 283.54115 
L 169.090272 282.701688 
L 172.130184 283.121419 
L 175.170096 283.54115 
L 178.210008 283.121419 
L 181.24992 283.121419 
L 184.289832 283.121419 
L 187.329743 282.701688 
L 190.369655 283.121419 
L 193.409567 282.701688 
L 196.449479 282.701688 
L 199.489391 282.701688 
L 202.529303 282.701688 
L 205.569215 282.281958 
L 208.609127 282.701688 
L 211.649039 282.281958 
L 214.688951 282.281958 
L 217.728863 282.281958 
L 220.768775 282.281958 
L 223.808687 282.281958 
L 226.848599 281.862227 
L 229.888511 281.862227 
L 232.928423 281.442496 
L 235.968335 282.281958 
L 239.008247 282.281958 
L 242.048159 281.862227 
L 245.08807 281.442496 
L 248.127982 281.442496 
L 251.167894 281.862227 
L 254.207806 281.442496 
L 257.247718 281.022765 
L 260.28763 281.442496 
L 263.327542 281.442496 
L 266.367454 281.442496 
L 269.407366 281.442496 
L 272.447278 281.022765 
L 275.48719 280.603034 
L 278.527102 281.022765 
L 281.567014 280.603034 
L 284.606926 280.183303 
L 287.646838 280.603034 
L 290.68675 280.603034 
L 293.726662 280.603034 
L 296.766574 280.603034 
L 299.806485 280.603034 
L 302.846397 280.603034 
L 305.886309 280.603034 
L 308.926221 279.343841 
L 311.966133 280.603034 
L 315.006045 280.603034 
L 318.045957 280.183303 
L 321.085869 280.183303 
L 324.125781 279.763572 
L 327.165693 279.763572 
L 330.205605 280.183303 
L 333.245517 279.343841 
L 336.285429 279.763572 
L 339.325341 279.763572 
L 342.365253 279.763572 
L 345.405165 279.763572 
L 348.445077 279.343841 
L 351.484989 279.343841 
L 354.5249 278.92411 
L 357.564812 279.343841 
L 360.604724 279.343841 
L 363.644636 279.343841 
L 366.684548 279.343841 
L 369.72446 279.343841 
" clip-path="url(#pdf422a0351)" style="fill: none; stroke: #e377c2; stroke-width: 1.5; stroke-linecap: square"/>
   </g>
   <g id="line2d_21">
    <path d="M 65.763665 262.974335 
L 66.037257 260.875681 
L 66.341248 260.45595 
L 66.645239 258.777026 
L 66.94923 257.517833 
L 67.253222 257.098102 
L 67.557213 256.258641 
L 67.861204 255.419179 
L 68.165195 254.579717 
L 68.469186 253.320524 
L 68.773178 252.481062 
L 71.81309 247.02456 
L 74.853001 241.148328 
L 77.892913 236.111557 
L 80.932825 234.012902 
L 83.972737 228.5564 
L 87.012649 226.038015 
L 90.052561 223.519629 
L 93.092473 219.32232 
L 96.132385 216.384203 
L 99.172297 214.285549 
L 102.212209 210.507971 
L 105.252121 210.507971 
L 108.292033 206.730392 
L 111.331945 203.792276 
L 114.371857 204.212007 
L 117.411769 203.372545 
L 120.451681 201.693621 
L 123.491593 200.014698 
L 126.531505 199.175236 
L 129.571417 197.076581 
L 132.611328 196.237119 
L 135.65124 194.138465 
L 138.691152 194.138465 
L 141.731064 191.620079 
L 144.770976 192.879272 
L 147.810888 189.941156 
L 150.8508 189.101694 
L 153.890712 184.904385 
L 156.930624 187.42277 
L 159.970536 185.743846 
L 163.010448 185.743846 
L 166.05036 183.225461 
L 169.090272 182.385999 
L 172.130184 181.966268 
L 175.170096 179.867614 
L 178.210008 179.867614 
L 181.24992 179.447883 
L 184.289832 178.608421 
L 187.329743 174.411112 
L 190.369655 173.991381 
L 193.409567 173.57165 
L 196.449479 173.57165 
L 199.489391 173.151919 
L 202.529303 171.892726 
L 205.569215 169.374341 
L 208.609127 168.115148 
L 211.649039 166.855955 
L 214.688951 166.855955 
L 217.728863 165.596762 
L 220.768775 165.177032 
L 223.808687 161.819184 
L 226.848599 162.658646 
L 229.888511 161.819184 
L 232.928423 159.300799 
L 235.968335 160.140261 
L 239.008247 160.140261 
L 242.048159 157.202144 
L 245.08807 157.202144 
L 248.127982 155.103489 
L 251.167894 154.683759 
L 254.207806 150.90618 
L 257.247718 152.165373 
L 260.28763 150.066718 
L 263.327542 149.646988 
L 266.367454 147.968064 
L 269.407366 146.28914 
L 272.447278 145.449678 
L 275.48719 145.029947 
L 278.527102 142.931293 
L 281.567014 143.770755 
L 284.606926 143.351024 
L 287.646838 141.252369 
L 290.68675 141.252369 
L 293.726662 138.314253 
L 296.766574 139.573446 
L 299.806485 138.733984 
L 302.846397 133.277482 
L 305.886309 134.956405 
L 308.926221 134.536675 
L 311.966133 135.376136 
L 315.006045 131.598558 
L 318.045957 130.339365 
L 321.085869 129.080173 
L 324.125781 127.82098 
L 327.165693 126.981518 
L 330.205605 124.043402 
L 333.245517 125.302594 
L 336.285429 122.364478 
L 339.325341 121.944747 
L 342.365253 119.426361 
L 345.405165 120.265823 
L 348.445077 115.229052 
L 351.484989 116.068514 
L 354.5249 113.130398 
L 357.564812 116.488245 
L 360.604724 115.229052 
L 363.644636 111.871205 
L 366.684548 111.871205 
L 369.72446 107.254165 
" clip-path="url(#pdf422a0351)" style="fill: none; stroke: #7f7f7f; stroke-width: 1.5; stroke-linecap: square"/>
   </g>
   <g id="line2d_22">
    <path d="M 65.763665 288.15819 
L 66.037257 286.898998 
L 66.341248 286.059536 
L 66.645239 285.639805 
L 66.94923 285.220074 
L 67.253222 284.800343 
L 67.557213 284.380612 
L 67.861204 283.960881 
L 68.165195 283.960881 
L 68.469186 283.54115 
L 68.773178 283.121419 
L 71.81309 280.603034 
L 74.853001 278.504379 
L 77.892913 275.566263 
L 80.932825 275.146532 
L 83.972737 273.047877 
L 87.012649 271.788685 
L 90.052561 270.949223 
L 93.092473 268.430837 
L 96.132385 268.430837 
L 99.172297 267.591375 
L 102.212209 266.751914 
L 105.252121 267.171645 
L 108.292033 265.912452 
L 111.331945 264.653259 
L 114.371857 265.07299 
L 117.411769 265.912452 
L 120.451681 263.813797 
L 123.491593 264.653259 
L 126.531505 263.813797 
L 129.571417 263.813797 
L 132.611328 263.813797 
L 135.65124 263.394066 
L 138.691152 261.295412 
L 141.731064 262.554604 
L 144.770976 262.134873 
L 147.810888 261.295412 
L 150.8508 261.295412 
L 153.890712 261.295412 
L 156.930624 259.616488 
L 159.970536 257.517833 
L 163.010448 260.036219 
L 166.05036 258.357295 
L 169.090272 258.357295 
L 172.130184 257.937564 
L 175.170096 258.357295 
L 178.210008 257.517833 
L 181.24992 255.419179 
L 184.289832 257.937564 
L 187.329743 257.098102 
L 190.369655 256.258641 
L 193.409567 255.419179 
L 196.449479 256.258641 
L 199.489391 255.419179 
L 202.529303 255.83891 
L 205.569215 255.83891 
L 208.609127 255.419179 
L 211.649039 254.579717 
L 214.688951 252.481062 
L 217.728863 253.740255 
L 220.768775 253.740255 
L 223.808687 253.740255 
L 226.848599 252.061331 
L 229.888511 251.641601 
L 232.928423 252.481062 
L 235.968335 250.382408 
L 239.008247 249.123215 
L 242.048159 250.802139 
L 245.08807 251.641601 
L 248.127982 250.802139 
L 251.167894 249.962677 
L 254.207806 249.542946 
L 257.247718 249.542946 
L 260.28763 249.542946 
L 263.327542 248.703484 
L 266.367454 248.283753 
L 269.407366 249.123215 
L 272.447278 249.123215 
L 275.48719 248.283753 
L 278.527102 246.60483 
L 281.567014 247.02456 
L 284.606926 247.444291 
L 287.646838 246.60483 
L 290.68675 247.02456 
L 293.726662 245.765368 
L 296.766574 242.40752 
L 299.806485 245.765368 
L 302.846397 245.345637 
L 305.886309 243.246982 
L 308.926221 243.666713 
L 311.966133 244.086444 
L 315.006045 243.246982 
L 318.045957 243.246982 
L 321.085869 241.987789 
L 324.125781 241.987789 
L 327.165693 242.40752 
L 330.205605 241.148328 
L 333.245517 237.370749 
L 336.285429 240.728597 
L 339.325341 239.889135 
L 342.365253 239.469404 
L 345.405165 239.469404 
L 348.445077 239.469404 
L 351.484989 238.210211 
L 354.5249 240.728597 
L 357.564812 238.210211 
L 360.604724 237.79048 
L 363.644636 237.79048 
L 366.684548 236.531288 
L 369.72446 237.79048 
" clip-path="url(#pdf422a0351)" style="fill: none; stroke: #bcbd22; stroke-width: 1.5; stroke-linecap: square"/>
   </g>
   <g id="line2d_23">
    <path d="M 65.763665 202.533083 
L 66.037257 200.434429 
L 66.341248 201.27389 
L 66.645239 200.85416 
L 66.94923 198.755505 
L 67.253222 197.916043 
L 67.557213 198.755505 
L 67.861204 198.755505 
L 68.165195 197.496312 
L 68.469186 197.916043 
L 68.773178 195.817389 
L 71.81309 192.03981 
L 74.853001 187.42277 
L 77.892913 182.80573 
L 80.932825 178.608421 
L 83.972737 173.151919 
L 87.012649 171.053264 
L 90.052561 167.695417 
L 93.092473 165.177032 
L 96.132385 163.498108 
L 99.172297 160.979722 
L 102.212209 159.72053 
L 105.252121 156.782413 
L 108.292033 147.968064 
L 111.331945 152.585104 
L 114.371857 150.486449 
L 117.411769 150.066718 
L 120.451681 147.548333 
L 123.491593 146.28914 
L 126.531505 142.511562 
L 129.571417 144.190486 
L 132.611328 143.351024 
L 135.65124 143.770755 
L 138.691152 142.091831 
L 141.731064 142.931293 
L 144.770976 141.252369 
L 147.810888 139.573446 
L 150.8508 138.314253 
L 153.890712 138.733984 
L 156.930624 139.153715 
L 159.970536 137.894522 
L 163.010448 137.894522 
L 166.05036 135.795867 
L 169.090272 136.635329 
L 172.130184 136.635329 
L 175.170096 134.956405 
L 178.210008 134.956405 
L 181.24992 136.215598 
L 184.289832 133.277482 
L 187.329743 134.956405 
L 190.369655 132.43802 
L 193.409567 134.116944 
L 196.449479 132.857751 
L 199.489391 132.43802 
L 202.529303 128.660442 
L 205.569215 131.178827 
L 208.609127 132.857751 
L 211.649039 128.240711 
L 214.688951 129.919634 
L 217.728863 126.981518 
L 220.768775 128.240711 
L 223.808687 125.302594 
L 226.848599 125.722325 
L 229.888511 126.561787 
L 232.928423 126.981518 
L 235.968335 124.463133 
L 239.008247 124.463133 
L 242.048159 123.623671 
L 245.08807 123.20394 
L 248.127982 120.265823 
L 251.167894 123.20394 
L 254.207806 122.364478 
L 257.247718 121.525016 
L 260.28763 121.105285 
L 263.327542 121.944747 
L 266.367454 120.685554 
L 269.407366 119.426361 
L 272.447278 119.006631 
L 275.48719 119.006631 
L 278.527102 114.809321 
L 281.567014 120.265823 
L 284.606926 117.327707 
L 287.646838 117.747438 
L 290.68675 113.550129 
L 293.726662 114.38959 
L 296.766574 116.488245 
L 299.806485 116.488245 
L 302.846397 114.809321 
L 305.886309 114.809321 
L 308.926221 116.068514 
L 311.966133 113.96986 
L 315.006045 113.550129 
L 318.045957 113.96986 
L 321.085869 114.38959 
L 324.125781 113.550129 
L 327.165693 112.290936 
L 330.205605 111.451474 
L 333.245517 110.192281 
L 336.285429 104.316048 
L 339.325341 111.451474 
L 342.365253 108.933089 
L 345.405165 111.031743 
L 348.445077 109.77255 
L 351.484989 108.093627 
L 354.5249 108.933089 
L 357.564812 108.513358 
L 360.604724 106.834434 
L 363.644636 109.77255 
L 366.684548 101.797663 
L 369.72446 105.15551 
" clip-path="url(#pdf422a0351)" style="fill: none; stroke: #17becf; stroke-width: 1.5; stroke-linecap: square"/>
   </g>
   <g id="line2d_24">
    <path d="M 65.763665 291.096307 
L 66.037257 291.096307 
L 66.341248 290.676576 
L 66.645239 290.676576 
L 66.94923 290.676576 
L 67.253222 290.256845 
L 67.557213 290.256845 
L 67.861204 290.256845 
L 68.165195 290.256845 
L 68.469186 290.256845 
L 68.773178 289.837114 
L 71.81309 288.997652 
L 74.853001 288.577921 
L 77.892913 287.738459 
L 80.932825 287.318729 
L 83.972737 286.898998 
L 87.012649 286.479267 
L 90.052561 286.059536 
L 93.092473 286.059536 
L 96.132385 285.639805 
L 99.172297 285.639805 
L 102.212209 285.220074 
L 105.252121 285.220074 
L 108.292033 284.380612 
L 111.331945 284.800343 
L 114.371857 284.380612 
L 117.411769 284.380612 
L 120.451681 283.960881 
L 123.491593 283.960881 
L 126.531505 283.54115 
L 129.571417 283.54115 
L 132.611328 283.960881 
L 135.65124 283.54115 
L 138.691152 283.54115 
L 141.731064 283.54115 
L 144.770976 283.54115 
L 147.810888 283.121419 
L 150.8508 283.121419 
L 153.890712 283.121419 
L 156.930624 283.121419 
L 159.970536 283.121419 
L 163.010448 282.701688 
L 166.05036 282.701688 
L 169.090272 282.701688 
L 172.130184 282.701688 
L 175.170096 282.281958 
L 178.210008 282.281958 
L 181.24992 282.281958 
L 184.289832 281.862227 
L 187.329743 281.862227 
L 190.369655 281.862227 
L 193.409567 281.862227 
L 196.449479 281.862227 
L 199.489391 281.862227 
L 202.529303 281.862227 
L 205.569215 281.442496 
L 208.609127 281.442496 
L 211.649039 281.442496 
L 214.688951 281.442496 
L 217.728863 280.603034 
L 220.768775 281.022765 
L 223.808687 279.763572 
L 226.848599 280.603034 
L 229.888511 280.603034 
L 232.928423 280.603034 
L 235.968335 280.603034 
L 239.008247 280.603034 
L 242.048159 279.763572 
L 245.08807 280.183303 
L 248.127982 278.92411 
L 251.167894 280.183303 
L 254.207806 280.183303 
L 257.247718 279.763572 
L 260.28763 278.92411 
L 263.327542 279.343841 
L 266.367454 279.763572 
L 269.407366 279.343841 
L 272.447278 279.343841 
L 275.48719 279.343841 
L 278.527102 279.343841 
L 281.567014 278.92411 
L 284.606926 279.343841 
L 287.646838 278.92411 
L 290.68675 278.504379 
L 293.726662 278.92411 
L 296.766574 278.504379 
L 299.806485 278.92411 
L 302.846397 278.504379 
L 305.886309 278.504379 
L 308.926221 277.664917 
L 311.966133 278.504379 
L 315.006045 278.084648 
L 318.045957 278.084648 
L 321.085869 278.084648 
L 324.125781 277.245187 
L 327.165693 277.664917 
L 330.205605 278.084648 
L 333.245517 277.664917 
L 336.285429 278.084648 
L 339.325341 277.664917 
L 342.365253 277.664917 
L 345.405165 277.245187 
L 348.445077 276.825456 
L 351.484989 277.245187 
L 354.5249 277.245187 
L 357.564812 277.245187 
L 360.604724 277.245187 
L 363.644636 277.245187 
L 366.684548 276.825456 
L 369.72446 276.825456 
" clip-path="url(#pdf422a0351)" style="fill: none; stroke: #1f77b4; stroke-width: 1.5; stroke-linecap: square"/>
   </g>
   <g id="line2d_25">
    <path d="M 65.763665 288.577921 
L 66.037257 287.318729 
L 66.341248 286.479267 
L 66.645239 284.800343 
L 66.94923 283.960881 
L 67.253222 282.701688 
L 67.557213 281.442496 
L 67.861204 281.022765 
L 68.165195 279.763572 
L 68.469186 278.92411 
L 68.773178 277.664917 
L 71.81309 269.270299 
L 74.853001 263.813797 
L 77.892913 259.196757 
L 80.932825 255.83891 
L 83.972737 252.481062 
L 87.012649 248.283753 
L 90.052561 246.60483 
L 93.092473 243.666713 
L 96.132385 241.987789 
L 99.172297 237.79048 
L 102.212209 238.210211 
L 105.252121 236.111557 
L 108.292033 233.593171 
L 111.331945 229.815593 
L 114.371857 229.395862 
L 117.411769 228.136669 
L 120.451681 227.716938 
L 123.491593 226.038015 
L 126.531505 224.359091 
L 129.571417 223.099898 
L 132.611328 221.420974 
L 135.65124 219.742051 
L 138.691152 219.742051 
L 141.731064 216.384203 
L 144.770976 216.803934 
L 147.810888 215.544742 
L 150.8508 214.70528 
L 153.890712 211.767163 
L 156.930624 211.347432 
L 159.970536 209.668509 
L 163.010448 207.989585 
L 166.05036 205.4712 
L 169.090272 205.890931 
L 172.130184 203.372545 
L 175.170096 202.113352 
L 178.210008 202.113352 
L 181.24992 199.594967 
L 184.289832 200.85416 
L 187.329743 197.496312 
L 190.369655 195.397658 
L 193.409567 195.397658 
L 196.449479 195.397658 
L 199.489391 191.200348 
L 202.529303 191.200348 
L 205.569215 190.360887 
L 208.609127 189.521425 
L 211.649039 188.681963 
L 214.688951 187.42277 
L 217.728863 184.484654 
L 220.768775 184.904385 
L 223.808687 183.645192 
L 226.848599 181.966268 
L 229.888511 180.707075 
L 232.928423 178.18869 
L 235.968335 179.028152 
L 239.008247 178.608421 
L 242.048159 176.090035 
L 245.08807 173.151919 
L 248.127982 174.411112 
L 251.167894 171.053264 
L 254.207806 174.411112 
L 257.247718 171.053264 
L 260.28763 168.95461 
L 263.327542 167.275686 
L 266.367454 166.436224 
L 269.407366 165.596762 
L 272.447278 164.757301 
L 275.48719 162.658646 
L 278.527102 162.658646 
L 281.567014 160.140261 
L 284.606926 159.72053 
L 287.646838 158.881068 
L 290.68675 157.202144 
L 293.726662 150.486449 
L 296.766574 155.52322 
L 299.806485 157.202144 
L 302.846397 152.585104 
L 305.886309 153.844297 
L 308.926221 152.585104 
L 311.966133 150.90618 
L 315.006045 150.486449 
L 318.045957 149.227257 
L 321.085869 147.128602 
L 324.125781 145.869409 
L 327.165693 145.449678 
L 330.205605 143.770755 
L 333.245517 143.770755 
L 336.285429 142.931293 
L 339.325341 140.832638 
L 342.365253 140.412907 
L 345.405165 139.993176 
L 348.445077 139.153715 
L 351.484989 138.733984 
L 354.5249 137.474791 
L 357.564812 136.635329 
L 360.604724 134.536675 
L 363.644636 132.43802 
L 366.684548 123.623671 
L 369.72446 129.499904 
" clip-path="url(#pdf422a0351)" style="fill: none; stroke: #ff7f0e; stroke-width: 1.5; stroke-linecap: square"/>
   </g>
   <g id="patch_3">
    <path d="M 50.565625 304.44375 
L 50.565625 10.8 
" style="fill: none; stroke: #000000; stroke-width: 0.8; stroke-linejoin: miter; stroke-linecap: square"/>
   </g>
   <g id="patch_4">
    <path d="M 384.9225 304.44375 
L 384.9225 10.8 
" style="fill: none; stroke: #000000; stroke-width: 0.8; stroke-linejoin: miter; stroke-linecap: square"/>
   </g>
   <g id="patch_5">
    <path d="M 50.565625 304.44375 
L 384.9225 304.44375 
" style="fill: none; stroke: #000000; stroke-width: 0.8; stroke-linejoin: miter; stroke-linecap: square"/>
   </g>
   <g id="patch_6">
    <path d="M 50.565625 10.8 
L 384.9225 10.8 
" style="fill: none; stroke: #000000; stroke-width: 0.8; stroke-linejoin: miter; stroke-linecap: square"/>
   </g>
   <g id="text_16">
    <!-- solomon -->
    <g style="fill: #e377c2" transform="translate(390.9225 287.007843) scale(0.08 -0.08)">
     <defs>
      <path id="DejaVuSans-6f" d="M 1959 3097 
Q 1497 3097 1228 2736 
Q 959 2375 959 1747 
Q 959 1119 1226 758 
Q 1494 397 1959 397 
Q 2419 397 2687 759 
Q 2956 1122 2956 1747 
Q 2956 2369 2687 2733 
Q 2419 3097 1959 3097 
z
M 1959 3584 
Q 2709 3584 3137 3096 
Q 3566 2609 3566 1747 
Q 3566 888 3137 398 
Q 2709 -91 1959 -91 
Q 1206 -91 779 398 
Q 353 888 353 1747 
Q 353 2609 779 3096 
Q 1206 3584 1959 3584 
z
" transform="scale(0.015625)"/>
      <path id="DejaVuSans-6c" d="M 603 4863 
L 1178 4863 
L 1178 0 
L 603 0 
L 603 4863 
z
" transform="scale(0.015625)"/>
     </defs>
     <use xlink:href="#DejaVuSans-73"/>
     <use xlink:href="#DejaVuSans-6f" transform="translate(52.099609 0)"/>
     <use xlink:href="#DejaVuSans-6c" transform="translate(113.28125 0)"/>
     <use xlink:href="#DejaVuSans-6f" transform="translate(141.064453 0)"/>
     <use xlink:href="#DejaVuSans-6d" transform="translate(202.246094 0)"/>
     <use xlink:href="#DejaVuSans-6f" transform="translate(299.658203 0)"/>
     <use xlink:href="#DejaVuSans-6e" transform="translate(360.839844 0)"/>
    </g>
   </g>
   <g id="text_17">
    <!-- trimou -->
    <g style="fill: #1f77b4" transform="translate(390.9225 279.032956) scale(0.08 -0.08)">
     <use xlink:href="#DejaVuSans-74"/>
     <use xlink:href="#DejaVuSans-72" transform="translate(39.208984 0)"/>
     <use xlink:href="#DejaVuSans-69" transform="translate(80.322266 0)"/>
     <use xlink:href="#DejaVuSans-6d" transform="translate(108.105469 0)"/>
     <use xlink:href="#DejaVuSans-6f" transform="translate(205.517578 0)"/>
     <use xlink:href="#DejaVuSans-75" transform="translate(266.699219 0)"/>
    </g>
   </g>
   <g id="text_18">
    <!-- mustachej -->
    <g style="fill: #9467bd" transform="translate(390.9225 271.058068) scale(0.08 -0.08)">
     <defs>
      <path id="DejaVuSans-61" d="M 2194 1759 
Q 1497 1759 1228 1600 
Q 959 1441 959 1056 
Q 959 750 1161 570 
Q 1363 391 1709 391 
Q 2188 391 2477 730 
Q 2766 1069 2766 1631 
L 2766 1759 
L 2194 1759 
z
M 3341 1997 
L 3341 0 
L 2766 0 
L 2766 531 
Q 2569 213 2275 61 
Q 1981 -91 1556 -91 
Q 1019 -91 701 211 
Q 384 513 384 1019 
Q 384 1609 779 1909 
Q 1175 2209 1959 2209 
L 2766 2209 
L 2766 2266 
Q 2766 2663 2505 2880 
Q 2244 3097 1772 3097 
Q 1472 3097 1187 3025 
Q 903 2953 641 2809 
L 641 3341 
Q 956 3463 1253 3523 
Q 1550 3584 1831 3584 
Q 2591 3584 2966 3190 
Q 3341 2797 3341 1997 
z
" transform="scale(0.015625)"/>
      <path id="DejaVuSans-63" d="M 3122 3366 
L 3122 2828 
Q 2878 2963 2633 3030 
Q 2388 3097 2138 3097 
Q 1578 3097 1268 2742 
Q 959 2388 959 1747 
Q 959 1106 1268 751 
Q 1578 397 2138 397 
Q 2388 397 2633 464 
Q 2878 531 3122 666 
L 3122 134 
Q 2881 22 2623 -34 
Q 2366 -91 2075 -91 
Q 1284 -91 818 406 
Q 353 903 353 1747 
Q 353 2603 823 3093 
Q 1294 3584 2113 3584 
Q 2378 3584 2631 3529 
Q 2884 3475 3122 3366 
z
" transform="scale(0.015625)"/>
      <path id="DejaVuSans-68" d="M 3513 2113 
L 3513 0 
L 2938 0 
L 2938 2094 
Q 2938 2591 2744 2837 
Q 2550 3084 2163 3084 
Q 1697 3084 1428 2787 
Q 1159 2491 1159 1978 
L 1159 0 
L 581 0 
L 581 4863 
L 1159 4863 
L 1159 2956 
Q 1366 3272 1645 3428 
Q 1925 3584 2291 3584 
Q 2894 3584 3203 3211 
Q 3513 2838 3513 2113 
z
" transform="scale(0.015625)"/>
      <path id="DejaVuSans-6a" d="M 603 3500 
L 1178 3500 
L 1178 -63 
Q 1178 -731 923 -1031 
Q 669 -1331 103 -1331 
L -116 -1331 
L -116 -844 
L 38 -844 
Q 366 -844 484 -692 
Q 603 -541 603 -63 
L 603 3500 
z
M 603 4863 
L 1178 4863 
L 1178 4134 
L 603 4134 
L 603 4863 
z
" transform="scale(0.015625)"/>
     </defs>
     <use xlink:href="#DejaVuSans-6d"/>
     <use xlink:href="#DejaVuSans-75" transform="translate(97.412109 0)"/>
     <use xlink:href="#DejaVuSans-73" transform="translate(160.791016 0)"/>
     <use xlink:href="#DejaVuSans-74" transform="translate(212.890625 0)"/>
     <use xlink:href="#DejaVuSans-61" transform="translate(252.099609 0)"/>
     <use xlink:href="#DejaVuSans-63" transform="translate(313.378906 0)"/>
     <use xlink:href="#DejaVuSans-68" transform="translate(368.359375 0)"/>
     <use xlink:href="#DejaVuSans-65" transform="translate(431.738281 0)"/>
     <use xlink:href="#DejaVuSans-6a" transform="translate(493.261719 0)"/>
    </g>
   </g>
   <g id="text_19">
    <!-- handlebars -->
    <g style="fill: #ff7f0e" transform="translate(390.9225 263.083181) scale(0.08 -0.08)">
     <defs>
      <path id="DejaVuSans-64" d="M 2906 2969 
L 2906 4863 
L 3481 4863 
L 3481 0 
L 2906 0 
L 2906 525 
Q 2725 213 2448 61 
Q 2172 -91 1784 -91 
Q 1150 -91 751 415 
Q 353 922 353 1747 
Q 353 2572 751 3078 
Q 1150 3584 1784 3584 
Q 2172 3584 2448 3432 
Q 2725 3281 2906 2969 
z
M 947 1747 
Q 947 1113 1208 752 
Q 1469 391 1925 391 
Q 2381 391 2643 752 
Q 2906 1113 2906 1747 
Q 2906 2381 2643 2742 
Q 2381 3103 1925 3103 
Q 1469 3103 1208 2742 
Q 947 2381 947 1747 
z
" transform="scale(0.015625)"/>
      <path id="DejaVuSans-62" d="M 3116 1747 
Q 3116 2381 2855 2742 
Q 2594 3103 2138 3103 
Q 1681 3103 1420 2742 
Q 1159 2381 1159 1747 
Q 1159 1113 1420 752 
Q 1681 391 2138 391 
Q 2594 391 2855 752 
Q 3116 1113 3116 1747 
z
M 1159 2969 
Q 1341 3281 1617 3432 
Q 1894 3584 2278 3584 
Q 2916 3584 3314 3078 
Q 3713 2572 3713 1747 
Q 3713 922 3314 415 
Q 2916 -91 2278 -91 
Q 1894 -91 1617 61 
Q 1341 213 1159 525 
L 1159 0 
L 581 0 
L 581 4863 
L 1159 4863 
L 1159 2969 
z
" transform="scale(0.015625)"/>
     </defs>
     <use xlink:href="#DejaVuSans-68"/>
     <use xlink:href="#DejaVuSans-61" transform="translate(63.378906 0)"/>
     <use xlink:href="#DejaVuSans-6e" transform="translate(124.658203 0)"/>
     <use xlink:href="#DejaVuSans-64" transform="translate(188.037109 0)"/>
     <use xlink:href="#DejaVuSans-6c" transform="translate(251.513672 0)"/>
     <use xlink:href="#DejaVuSans-65" transform="translate(279.296875 0)"/>
     <use xlink:href="#DejaVuSans-62" transform="translate(340.820312 0)"/>
     <use xlink:href="#DejaVuSans-61" transform="translate(404.296875 0)"/>
     <use xlink:href="#DejaVuSans-72" transform="translate(465.576172 0)"/>
     <use xlink:href="#DejaVuSans-73" transform="translate(506.689453 0)"/>
    </g>
   </g>
   <g id="text_20">
    <!-- stringtree -->
    <g style="fill: #bcbd22" transform="translate(390.9225 239.99798) scale(0.08 -0.08)">
     <defs>
      <path id="DejaVuSans-67" d="M 2906 1791 
Q 2906 2416 2648 2759 
Q 2391 3103 1925 3103 
Q 1463 3103 1205 2759 
Q 947 2416 947 1791 
Q 947 1169 1205 825 
Q 1463 481 1925 481 
Q 2391 481 2648 825 
Q 2906 1169 2906 1791 
z
M 3481 434 
Q 3481 -459 3084 -895 
Q 2688 -1331 1869 -1331 
Q 1566 -1331 1297 -1286 
Q 1028 -1241 775 -1147 
L 775 -588 
Q 1028 -725 1275 -790 
Q 1522 -856 1778 -856 
Q 2344 -856 2625 -561 
Q 2906 -266 2906 331 
L 2906 616 
Q 2728 306 2450 153 
Q 2172 0 1784 0 
Q 1141 0 747 490 
Q 353 981 353 1791 
Q 353 2603 747 3093 
Q 1141 3584 1784 3584 
Q 2172 3584 2450 3431 
Q 2728 3278 2906 2969 
L 2906 3500 
L 3481 3500 
L 3481 434 
z
" transform="scale(0.015625)"/>
     </defs>
     <use xlink:href="#DejaVuSans-73"/>
     <use xlink:href="#DejaVuSans-74" transform="translate(52.099609 0)"/>
     <use xlink:href="#DejaVuSans-72" transform="translate(91.308594 0)"/>
     <use xlink:href="#DejaVuSans-69" transform="translate(132.421875 0)"/>
     <use xlink:href="#DejaVuSans-6e" transform="translate(160.205078 0)"/>
     <use xlink:href="#DejaVuSans-67" transform="translate(223.583984 0)"/>
     <use xlink:href="#DejaVuSans-74" transform="translate(287.060547 0)"/>
     <use xlink:href="#DejaVuSans-72" transform="translate(326.269531 0)"/>
     <use xlink:href="#DejaVuSans-65" transform="translate(365.132812 0)"/>
     <use xlink:href="#DejaVuSans-65" transform="translate(426.65625 0)"/>
    </g>
   </g>
   <g id="text_21">
    <!-- freemarker -->
    <g style="fill: #1f77b4" transform="translate(390.9225 232.023093) scale(0.08 -0.08)">
     <defs>
      <path id="DejaVuSans-66" d="M 2375 4863 
L 2375 4384 
L 1825 4384 
Q 1516 4384 1395 4259 
Q 1275 4134 1275 3809 
L 1275 3500 
L 2222 3500 
L 2222 3053 
L 1275 3053 
L 1275 0 
L 697 0 
L 697 3053 
L 147 3053 
L 147 3500 
L 697 3500 
L 697 3744 
Q 697 4328 969 4595 
Q 1241 4863 1831 4863 
L 2375 4863 
z
" transform="scale(0.015625)"/>
      <path id="DejaVuSans-6b" d="M 581 4863 
L 1159 4863 
L 1159 1991 
L 2875 3500 
L 3609 3500 
L 1753 1863 
L 3688 0 
L 2938 0 
L 1159 1709 
L 1159 0 
L 581 0 
L 581 4863 
z
" transform="scale(0.015625)"/>
     </defs>
     <use xlink:href="#DejaVuSans-66"/>
     <use xlink:href="#DejaVuSans-72" transform="translate(35.205078 0)"/>
     <use xlink:href="#DejaVuSans-65" transform="translate(74.068359 0)"/>
     <use xlink:href="#DejaVuSans-65" transform="translate(135.591797 0)"/>
     <use xlink:href="#DejaVuSans-6d" transform="translate(197.115234 0)"/>
     <use xlink:href="#DejaVuSans-61" transform="translate(294.527344 0)"/>
     <use xlink:href="#DejaVuSans-72" transform="translate(355.806641 0)"/>
     <use xlink:href="#DejaVuSans-6b" transform="translate(396.919922 0)"/>
     <use xlink:href="#DejaVuSans-65" transform="translate(451.205078 0)"/>
     <use xlink:href="#DejaVuSans-72" transform="translate(512.728516 0)"/>
    </g>
   </g>
   <g id="text_22">
    <!-- pebble -->
    <g style="fill: #8c564b" transform="translate(390.9225 202.222198) scale(0.08 -0.08)">
     <defs>
      <path id="DejaVuSans-70" d="M 1159 525 
L 1159 -1331 
L 581 -1331 
L 581 3500 
L 1159 3500 
L 1159 2969 
Q 1341 3281 1617 3432 
Q 1894 3584 2278 3584 
Q 2916 3584 3314 3078 
Q 3713 2572 3713 1747 
Q 3713 922 3314 415 
Q 2916 -91 2278 -91 
Q 1894 -91 1617 61 
Q 1341 213 1159 525 
z
M 3116 1747 
Q 3116 2381 2855 2742 
Q 2594 3103 2138 3103 
Q 1681 3103 1420 2742 
Q 1159 2381 1159 1747 
Q 1159 1113 1420 752 
Q 1681 391 2138 391 
Q 2594 391 2855 752 
Q 3116 1113 3116 1747 
z
" transform="scale(0.015625)"/>
     </defs>
     <use xlink:href="#DejaVuSans-70"/>
     <use xlink:href="#DejaVuSans-65" transform="translate(63.476562 0)"/>
     <use xlink:href="#DejaVuSans-62" transform="translate(125 0)"/>
     <use xlink:href="#DejaVuSans-62" transform="translate(188.476562 0)"/>
     <use xlink:href="#DejaVuSans-6c" transform="translate(251.953125 0)"/>
     <use xlink:href="#DejaVuSans-65" transform="translate(279.736328 0)"/>
    </g>
   </g>
   <g id="text_23">
    <!-- jangod -->
    <g style="fill: #2ca02c" transform="translate(390.9225 194.24731) scale(0.08 -0.08)">
     <use xlink:href="#DejaVuSans-6a"/>
     <use xlink:href="#DejaVuSans-61" transform="translate(27.783203 0)"/>
     <use xlink:href="#DejaVuSans-6e" transform="translate(89.0625 0)"/>
     <use xlink:href="#DejaVuSans-67" transform="translate(152.441406 0)"/>
     <use xlink:href="#DejaVuSans-6f" transform="translate(215.917969 0)"/>
     <use xlink:href="#DejaVuSans-64" transform="translate(277.099609 0)"/>
    </g>
   </g>
   <g id="text_24">
    <!-- velocity -->
    <g style="fill: #ff7f0e" transform="translate(390.9225 131.707404) scale(0.08 -0.08)">
     <defs>
      <path id="DejaVuSans-76" d="M 191 3500 
L 800 3500 
L 1894 563 
L 2988 3500 
L 3597 3500 
L 2284 0 
L 1503 0 
L 191 3500 
z
" transform="scale(0.015625)"/>
      <path id="DejaVuSans-79" d="M 2059 -325 
Q 1816 -950 1584 -1140 
Q 1353 -1331 966 -1331 
L 506 -1331 
L 506 -850 
L 844 -850 
Q 1081 -850 1212 -737 
Q 1344 -625 1503 -206 
L 1606 56 
L 191 3500 
L 800 3500 
L 1894 763 
L 2988 3500 
L 3597 3500 
L 2059 -325 
z
" transform="scale(0.015625)"/>
     </defs>
     <use xlink:href="#DejaVuSans-76"/>
     <use xlink:href="#DejaVuSans-65" transform="translate(59.179688 0)"/>
     <use xlink:href="#DejaVuSans-6c" transform="translate(120.703125 0)"/>
     <use xlink:href="#DejaVuSans-6f" transform="translate(148.486328 0)"/>
     <use xlink:href="#DejaVuSans-63" transform="translate(209.667969 0)"/>
     <use xlink:href="#DejaVuSans-69" transform="translate(264.648438 0)"/>
     <use xlink:href="#DejaVuSans-74" transform="translate(292.431641 0)"/>
     <use xlink:href="#DejaVuSans-79" transform="translate(331.640625 0)"/>
    </g>
   </g>
   <g id="text_25">
    <!-- stringtemplate -->
    <g style="fill: #7f7f7f" transform="translate(390.9225 109.461665) scale(0.08 -0.08)">
     <use xlink:href="#DejaVuSans-73"/>
     <use xlink:href="#DejaVuSans-74" transform="translate(52.099609 0)"/>
     <use xlink:href="#DejaVuSans-72" transform="translate(91.308594 0)"/>
     <use xlink:href="#DejaVuSans-69" transform="translate(132.421875 0)"/>
     <use xlink:href="#DejaVuSans-6e" transform="translate(160.205078 0)"/>
     <use xlink:href="#DejaVuSans-67" transform="translate(223.583984 0)"/>
     <use xlink:href="#DejaVuSans-74" transform="translate(287.060547 0)"/>
     <use xlink:href="#DejaVuSans-65" transform="translate(326.269531 0)"/>
     <use xlink:href="#DejaVuSans-6d" transform="translate(387.792969 0)"/>
     <use xlink:href="#DejaVuSans-70" transform="translate(485.205078 0)"/>
     <use xlink:href="#DejaVuSans-6c" transform="translate(548.681641 0)"/>
     <use xlink:href="#DejaVuSans-61" transform="translate(576.464844 0)"/>
     <use xlink:href="#DejaVuSans-74" transform="translate(637.744141 0)"/>
     <use xlink:href="#DejaVuSans-65" transform="translate(676.953125 0)"/>
    </g>
   </g>
   <g id="text_26">
    <!-- thymeleaf -->
    <g style="fill: #17becf" transform="translate(390.9225 101.486777) scale(0.08 -0.08)">
     <use xlink:href="#DejaVuSans-74"/>
     <use xlink:href="#DejaVuSans-68" transform="translate(39.208984 0)"/>
     <use xlink:href="#DejaVuSans-79" transform="translate(102.587891 0)"/>
     <use xlink:href="#DejaVuSans-6d" transform="translate(161.767578 0)"/>
     <use xlink:href="#DejaVuSans-65" transform="translate(259.179688 0)"/>
     <use xlink:href="#DejaVuSans-6c" transform="translate(320.703125 0)"/>
     <use xlink:href="#DejaVuSans-65" transform="translate(348.486328 0)"/>
     <use xlink:href="#DejaVuSans-61" transform="translate(410.009766 0)"/>
     <use xlink:href="#DejaVuSans-66" transform="translate(471.289062 0)"/>
    </g>
   </g>
   <g id="text_27">
    <!-- jte -->
    <g style="fill: #d62728" transform="translate(390.9225 26.354943) scale(0.08 -0.08)">
     <use xlink:href="#DejaVuSans-6a"/>
     <use xlink:href="#DejaVuSans-74" transform="translate(27.783203 0)"/>
     <use xlink:href="#DejaVuSans-65" transform="translate(66.992188 0)"/>
    </g>
   </g>
  </g>
 </g>
 <defs>
  <clipPath id="pdf422a0351">
   <rect x="50.565625" y="10.8" width="334.356875" height="293.64375"/>
  </clipPath>
 </defs>
</svg>
