<?xml version="1.0" encoding="utf-8" standalone="no"?>
<!DOCTYPE svg PUBLIC "-//W3C//DTD SVG 1.1//EN"
  "http://www.w3.org/Graphics/SVG/1.1/DTD/svg11.dtd">
<svg xmlns:xlink="http://www.w3.org/1999/xlink" width="460.8pt" height="345.6pt" viewBox="0 0 460.8 345.6" xmlns="http://www.w3.org/2000/svg" version="1.1">
 <metadata>
  <rdf:RDF xmlns:dc="http://purl.org/dc/elements/1.1/" xmlns:cc="http://creativecommons.org/ns#" xmlns:rdf="http://www.w3.org/1999/02/22-rdf-syntax-ns#">
   <cc:Work>
    <dc:type rdf:resource="http://purl.org/dc/dcmitype/StillImage"/>
    <dc:date>2025-04-13T16:08:54.349722</dc:date>
    <dc:format>image/svg+xml</dc:format>
    <dc:creator>
     <cc:Agent>
      <dc:title>Matplotlib v3.10.1, https://matplotlib.org/</dc:title>
     </cc:Agent>
    </dc:creator>
   </cc:Work>
  </rdf:RDF>
 </metadata>
 <defs>
  <style type="text/css">*{stroke-linejoin: round; stroke-linecap: butt}</style>
 </defs>
 <g id="figure_1">
  <g id="patch_1">
   <path d="M 0 345.6 
L 460.8 345.6 
L 460.8 0 
L 0 0 
z
" style="fill: #ffffff"/>
  </g>
  <g id="axes_1">
   <g id="patch_2">
    <path d="M 56.928125 304.44375 
L 384.9225 304.44375 
L 384.9225 10.8 
L 56.928125 10.8 
z
" style="fill: #ffffff"/>
   </g>
   <g id="matplotlib.axis_1">
    <g id="xtick_1">
     <g id="line2d_1">
      <defs>
       <path id="mbf81b13de1" d="M 0 0 
L 0 3.5 
" style="stroke: #000000; stroke-width: 0.8"/>
      </defs>
      <g>
       <use xlink:href="#mbf81b13de1" x="71.80714" y="304.44375" style="stroke: #000000; stroke-width: 0.8"/>
      </g>
     </g>
     <g id="text_1">
      <!-- 0 -->
      <g transform="translate(68.62589 319.042187) scale(0.1 -0.1)">
       <defs>
        <path id="DejaVuSans-30" d="M 2034 4250 
Q 1547 4250 1301 3770 
Q 1056 3291 1056 2328 
Q 1056 1369 1301 889 
Q 1547 409 2034 409 
Q 2525 409 2770 889 
Q 3016 1369 3016 2328 
Q 3016 3291 2770 3770 
Q 2525 4250 2034 4250 
z
M 2034 4750 
Q 2819 4750 3233 4129 
Q 3647 3509 3647 2328 
Q 3647 1150 3233 529 
Q 2819 -91 2034 -91 
Q 1250 -91 836 529 
Q 422 1150 422 2328 
Q 422 3509 836 4129 
Q 1250 4750 2034 4750 
z
" transform="scale(0.015625)"/>
       </defs>
       <use xlink:href="#DejaVuSans-30"/>
      </g>
     </g>
    </g>
    <g id="xtick_2">
     <g id="line2d_2">
      <g>
       <use xlink:href="#mbf81b13de1" x="131.448445" y="304.44375" style="stroke: #000000; stroke-width: 0.8"/>
      </g>
     </g>
     <g id="text_2">
      <!-- 2000 -->
      <g transform="translate(118.723445 319.042187) scale(0.1 -0.1)">
       <defs>
        <path id="DejaVuSans-32" d="M 1228 531 
L 3431 531 
L 3431 0 
L 469 0 
L 469 531 
Q 828 903 1448 1529 
Q 2069 2156 2228 2338 
Q 2531 2678 2651 2914 
Q 2772 3150 2772 3378 
Q 2772 3750 2511 3984 
Q 2250 4219 1831 4219 
Q 1534 4219 1204 4116 
Q 875 4013 500 3803 
L 500 4441 
Q 881 4594 1212 4672 
Q 1544 4750 1819 4750 
Q 2544 4750 2975 4387 
Q 3406 4025 3406 3419 
Q 3406 3131 3298 2873 
Q 3191 2616 2906 2266 
Q 2828 2175 2409 1742 
Q 1991 1309 1228 531 
z
" transform="scale(0.015625)"/>
       </defs>
       <use xlink:href="#DejaVuSans-32"/>
       <use xlink:href="#DejaVuSans-30" transform="translate(63.623047 0)"/>
       <use xlink:href="#DejaVuSans-30" transform="translate(127.246094 0)"/>
       <use xlink:href="#DejaVuSans-30" transform="translate(190.869141 0)"/>
      </g>
     </g>
    </g>
    <g id="xtick_3">
     <g id="line2d_3">
      <g>
       <use xlink:href="#mbf81b13de1" x="191.08975" y="304.44375" style="stroke: #000000; stroke-width: 0.8"/>
      </g>
     </g>
     <g id="text_3">
      <!-- 4000 -->
      <g transform="translate(178.36475 319.042187) scale(0.1 -0.1)">
       <defs>
        <path id="DejaVuSans-34" d="M 2419 4116 
L 825 1625 
L 2419 1625 
L 2419 4116 
z
M 2253 4666 
L 3047 4666 
L 3047 1625 
L 3713 1625 
L 3713 1100 
L 3047 1100 
L 3047 0 
L 2419 0 
L 2419 1100 
L 313 1100 
L 313 1709 
L 2253 4666 
z
" transform="scale(0.015625)"/>
       </defs>
       <use xlink:href="#DejaVuSans-34"/>
       <use xlink:href="#DejaVuSans-30" transform="translate(63.623047 0)"/>
       <use xlink:href="#DejaVuSans-30" transform="translate(127.246094 0)"/>
       <use xlink:href="#DejaVuSans-30" transform="translate(190.869141 0)"/>
      </g>
     </g>
    </g>
    <g id="xtick_4">
     <g id="line2d_4">
      <g>
       <use xlink:href="#mbf81b13de1" x="250.731055" y="304.44375" style="stroke: #000000; stroke-width: 0.8"/>
      </g>
     </g>
     <g id="text_4">
      <!-- 6000 -->
      <g transform="translate(238.006055 319.042187) scale(0.1 -0.1)">
       <defs>
        <path id="DejaVuSans-36" d="M 2113 2584 
Q 1688 2584 1439 2293 
Q 1191 2003 1191 1497 
Q 1191 994 1439 701 
Q 1688 409 2113 409 
Q 2538 409 2786 701 
Q 3034 994 3034 1497 
Q 3034 2003 2786 2293 
Q 2538 2584 2113 2584 
z
M 3366 4563 
L 3366 3988 
Q 3128 4100 2886 4159 
Q 2644 4219 2406 4219 
Q 1781 4219 1451 3797 
Q 1122 3375 1075 2522 
Q 1259 2794 1537 2939 
Q 1816 3084 2150 3084 
Q 2853 3084 3261 2657 
Q 3669 2231 3669 1497 
Q 3669 778 3244 343 
Q 2819 -91 2113 -91 
Q 1303 -91 875 529 
Q 447 1150 447 2328 
Q 447 3434 972 4092 
Q 1497 4750 2381 4750 
Q 2619 4750 2861 4703 
Q 3103 4656 3366 4563 
z
" transform="scale(0.015625)"/>
       </defs>
       <use xlink:href="#DejaVuSans-36"/>
       <use xlink:href="#DejaVuSans-30" transform="translate(63.623047 0)"/>
       <use xlink:href="#DejaVuSans-30" transform="translate(127.246094 0)"/>
       <use xlink:href="#DejaVuSans-30" transform="translate(190.869141 0)"/>
      </g>
     </g>
    </g>
    <g id="xtick_5">
     <g id="line2d_5">
      <g>
       <use xlink:href="#mbf81b13de1" x="310.37236" y="304.44375" style="stroke: #000000; stroke-width: 0.8"/>
      </g>
     </g>
     <g id="text_5">
      <!-- 8000 -->
      <g transform="translate(297.64736 319.042187) scale(0.1 -0.1)">
       <defs>
        <path id="DejaVuSans-38" d="M 2034 2216 
Q 1584 2216 1326 1975 
Q 1069 1734 1069 1313 
Q 1069 891 1326 650 
Q 1584 409 2034 409 
Q 2484 409 2743 651 
Q 3003 894 3003 1313 
Q 3003 1734 2745 1975 
Q 2488 2216 2034 2216 
z
M 1403 2484 
Q 997 2584 770 2862 
Q 544 3141 544 3541 
Q 544 4100 942 4425 
Q 1341 4750 2034 4750 
Q 2731 4750 3128 4425 
Q 3525 4100 3525 3541 
Q 3525 3141 3298 2862 
Q 3072 2584 2669 2484 
Q 3125 2378 3379 2068 
Q 3634 1759 3634 1313 
Q 3634 634 3220 271 
Q 2806 -91 2034 -91 
Q 1263 -91 848 271 
Q 434 634 434 1313 
Q 434 1759 690 2068 
Q 947 2378 1403 2484 
z
M 1172 3481 
Q 1172 3119 1398 2916 
Q 1625 2713 2034 2713 
Q 2441 2713 2670 2916 
Q 2900 3119 2900 3481 
Q 2900 3844 2670 4047 
Q 2441 4250 2034 4250 
Q 1625 4250 1398 4047 
Q 1172 3844 1172 3481 
z
" transform="scale(0.015625)"/>
       </defs>
       <use xlink:href="#DejaVuSans-38"/>
       <use xlink:href="#DejaVuSans-30" transform="translate(63.623047 0)"/>
       <use xlink:href="#DejaVuSans-30" transform="translate(127.246094 0)"/>
       <use xlink:href="#DejaVuSans-30" transform="translate(190.869141 0)"/>
      </g>
     </g>
    </g>
    <g id="xtick_6">
     <g id="line2d_6">
      <g>
       <use xlink:href="#mbf81b13de1" x="370.013665" y="304.44375" style="stroke: #000000; stroke-width: 0.8"/>
      </g>
     </g>
     <g id="text_6">
      <!-- 10000 -->
      <g transform="translate(354.107415 319.042187) scale(0.1 -0.1)">
       <defs>
        <path id="DejaVuSans-31" d="M 794 531 
L 1825 531 
L 1825 4091 
L 703 3866 
L 703 4441 
L 1819 4666 
L 2450 4666 
L 2450 531 
L 3481 531 
L 3481 0 
L 794 0 
L 794 531 
z
" transform="scale(0.015625)"/>
       </defs>
       <use xlink:href="#DejaVuSans-31"/>
       <use xlink:href="#DejaVuSans-30" transform="translate(63.623047 0)"/>
       <use xlink:href="#DejaVuSans-30" transform="translate(127.246094 0)"/>
       <use xlink:href="#DejaVuSans-30" transform="translate(190.869141 0)"/>
       <use xlink:href="#DejaVuSans-30" transform="translate(254.492188 0)"/>
      </g>
     </g>
    </g>
    <g id="text_7">
     <!-- n runs -->
     <g transform="translate(205.169844 332.720312) scale(0.1 -0.1)">
      <defs>
       <path id="DejaVuSans-6e" d="M 3513 2113 
L 3513 0 
L 2938 0 
L 2938 2094 
Q 2938 2591 2744 2837 
Q 2550 3084 2163 3084 
Q 1697 3084 1428 2787 
Q 1159 2491 1159 1978 
L 1159 0 
L 581 0 
L 581 3500 
L 1159 3500 
L 1159 2956 
Q 1366 3272 1645 3428 
Q 1925 3584 2291 3584 
Q 2894 3584 3203 3211 
Q 3513 2838 3513 2113 
z
" transform="scale(0.015625)"/>
       <path id="DejaVuSans-20" transform="scale(0.015625)"/>
       <path id="DejaVuSans-72" d="M 2631 2963 
Q 2534 3019 2420 3045 
Q 2306 3072 2169 3072 
Q 1681 3072 1420 2755 
Q 1159 2438 1159 1844 
L 1159 0 
L 581 0 
L 581 3500 
L 1159 3500 
L 1159 2956 
Q 1341 3275 1631 3429 
Q 1922 3584 2338 3584 
Q 2397 3584 2469 3576 
Q 2541 3569 2628 3553 
L 2631 2963 
z
" transform="scale(0.015625)"/>
       <path id="DejaVuSans-75" d="M 544 1381 
L 544 3500 
L 1119 3500 
L 1119 1403 
Q 1119 906 1312 657 
Q 1506 409 1894 409 
Q 2359 409 2629 706 
Q 2900 1003 2900 1516 
L 2900 3500 
L 3475 3500 
L 3475 0 
L 2900 0 
L 2900 538 
Q 2691 219 2414 64 
Q 2138 -91 1772 -91 
Q 1169 -91 856 284 
Q 544 659 544 1381 
z
M 1991 3584 
L 1991 3584 
z
" transform="scale(0.015625)"/>
       <path id="DejaVuSans-73" d="M 2834 3397 
L 2834 2853 
Q 2591 2978 2328 3040 
Q 2066 3103 1784 3103 
Q 1356 3103 1142 2972 
Q 928 2841 928 2578 
Q 928 2378 1081 2264 
Q 1234 2150 1697 2047 
L 1894 2003 
Q 2506 1872 2764 1633 
Q 3022 1394 3022 966 
Q 3022 478 2636 193 
Q 2250 -91 1575 -91 
Q 1294 -91 989 -36 
Q 684 19 347 128 
L 347 722 
Q 666 556 975 473 
Q 1284 391 1588 391 
Q 1994 391 2212 530 
Q 2431 669 2431 922 
Q 2431 1156 2273 1281 
Q 2116 1406 1581 1522 
L 1381 1569 
Q 847 1681 609 1914 
Q 372 2147 372 2553 
Q 372 3047 722 3315 
Q 1072 3584 1716 3584 
Q 2034 3584 2315 3537 
Q 2597 3491 2834 3397 
z
" transform="scale(0.015625)"/>
      </defs>
      <use xlink:href="#DejaVuSans-6e"/>
      <use xlink:href="#DejaVuSans-20" transform="translate(63.378906 0)"/>
      <use xlink:href="#DejaVuSans-72" transform="translate(95.166016 0)"/>
      <use xlink:href="#DejaVuSans-75" transform="translate(136.279297 0)"/>
      <use xlink:href="#DejaVuSans-6e" transform="translate(199.658203 0)"/>
      <use xlink:href="#DejaVuSans-73" transform="translate(263.037109 0)"/>
     </g>
    </g>
   </g>
   <g id="matplotlib.axis_2">
    <g id="ytick_1">
     <g id="line2d_7">
      <defs>
       <path id="mddd8b7a7d0" d="M 0 0 
L -3.5 0 
" style="stroke: #000000; stroke-width: 0.8"/>
      </defs>
      <g>
       <use xlink:href="#mddd8b7a7d0" x="56.928125" y="292.594617" style="stroke: #000000; stroke-width: 0.8"/>
      </g>
     </g>
     <g id="text_8">
      <!-- 0 -->
      <g transform="translate(43.565625 296.393835) scale(0.1 -0.1)">
       <use xlink:href="#DejaVuSans-30"/>
      </g>
     </g>
    </g>
    <g id="ytick_2">
     <g id="line2d_8">
      <g>
       <use xlink:href="#mddd8b7a7d0" x="56.928125" y="242.650956" style="stroke: #000000; stroke-width: 0.8"/>
      </g>
     </g>
     <g id="text_9">
      <!-- 200 -->
      <g transform="translate(30.840625 246.450175) scale(0.1 -0.1)">
       <use xlink:href="#DejaVuSans-32"/>
       <use xlink:href="#DejaVuSans-30" transform="translate(63.623047 0)"/>
       <use xlink:href="#DejaVuSans-30" transform="translate(127.246094 0)"/>
      </g>
     </g>
    </g>
    <g id="ytick_3">
     <g id="line2d_9">
      <g>
       <use xlink:href="#mddd8b7a7d0" x="56.928125" y="192.707296" style="stroke: #000000; stroke-width: 0.8"/>
      </g>
     </g>
     <g id="text_10">
      <!-- 400 -->
      <g transform="translate(30.840625 196.506515) scale(0.1 -0.1)">
       <use xlink:href="#DejaVuSans-34"/>
       <use xlink:href="#DejaVuSans-30" transform="translate(63.623047 0)"/>
       <use xlink:href="#DejaVuSans-30" transform="translate(127.246094 0)"/>
      </g>
     </g>
    </g>
    <g id="ytick_4">
     <g id="line2d_10">
      <g>
       <use xlink:href="#mddd8b7a7d0" x="56.928125" y="142.763636" style="stroke: #000000; stroke-width: 0.8"/>
      </g>
     </g>
     <g id="text_11">
      <!-- 600 -->
      <g transform="translate(30.840625 146.562855) scale(0.1 -0.1)">
       <use xlink:href="#DejaVuSans-36"/>
       <use xlink:href="#DejaVuSans-30" transform="translate(63.623047 0)"/>
       <use xlink:href="#DejaVuSans-30" transform="translate(127.246094 0)"/>
      </g>
     </g>
    </g>
    <g id="ytick_5">
     <g id="line2d_11">
      <g>
       <use xlink:href="#mddd8b7a7d0" x="56.928125" y="92.819976" style="stroke: #000000; stroke-width: 0.8"/>
      </g>
     </g>
     <g id="text_12">
      <!-- 800 -->
      <g transform="translate(30.840625 96.619195) scale(0.1 -0.1)">
       <use xlink:href="#DejaVuSans-38"/>
       <use xlink:href="#DejaVuSans-30" transform="translate(63.623047 0)"/>
       <use xlink:href="#DejaVuSans-30" transform="translate(127.246094 0)"/>
      </g>
     </g>
    </g>
    <g id="ytick_6">
     <g id="line2d_12">
      <g>
       <use xlink:href="#mddd8b7a7d0" x="56.928125" y="42.876316" style="stroke: #000000; stroke-width: 0.8"/>
      </g>
     </g>
     <g id="text_13">
      <!-- 1000 -->
      <g transform="translate(24.478125 46.675534) scale(0.1 -0.1)">
       <use xlink:href="#DejaVuSans-31"/>
       <use xlink:href="#DejaVuSans-30" transform="translate(63.623047 0)"/>
       <use xlink:href="#DejaVuSans-30" transform="translate(127.246094 0)"/>
       <use xlink:href="#DejaVuSans-30" transform="translate(190.869141 0)"/>
      </g>
     </g>
    </g>
    <g id="text_14">
     <!-- time (ms) -->
     <g transform="translate(18.398438 181.883594) rotate(-90) scale(0.1 -0.1)">
      <defs>
       <path id="DejaVuSans-74" d="M 1172 4494 
L 1172 3500 
L 2356 3500 
L 2356 3053 
L 1172 3053 
L 1172 1153 
Q 1172 725 1289 603 
Q 1406 481 1766 481 
L 2356 481 
L 2356 0 
L 1766 0 
Q 1100 0 847 248 
Q 594 497 594 1153 
L 594 3053 
L 172 3053 
L 172 3500 
L 594 3500 
L 594 4494 
L 1172 4494 
z
" transform="scale(0.015625)"/>
       <path id="DejaVuSans-69" d="M 603 3500 
L 1178 3500 
L 1178 0 
L 603 0 
L 603 3500 
z
M 603 4863 
L 1178 4863 
L 1178 4134 
L 603 4134 
L 603 4863 
z
" transform="scale(0.015625)"/>
       <path id="DejaVuSans-6d" d="M 3328 2828 
Q 3544 3216 3844 3400 
Q 4144 3584 4550 3584 
Q 5097 3584 5394 3201 
Q 5691 2819 5691 2113 
L 5691 0 
L 5113 0 
L 5113 2094 
Q 5113 2597 4934 2840 
Q 4756 3084 4391 3084 
Q 3944 3084 3684 2787 
Q 3425 2491 3425 1978 
L 3425 0 
L 2847 0 
L 2847 2094 
Q 2847 2600 2669 2842 
Q 2491 3084 2119 3084 
Q 1678 3084 1418 2786 
Q 1159 2488 1159 1978 
L 1159 0 
L 581 0 
L 581 3500 
L 1159 3500 
L 1159 2956 
Q 1356 3278 1631 3431 
Q 1906 3584 2284 3584 
Q 2666 3584 2933 3390 
Q 3200 3197 3328 2828 
z
" transform="scale(0.015625)"/>
       <path id="DejaVuSans-65" d="M 3597 1894 
L 3597 1613 
L 953 1613 
Q 991 1019 1311 708 
Q 1631 397 2203 397 
Q 2534 397 2845 478 
Q 3156 559 3463 722 
L 3463 178 
Q 3153 47 2828 -22 
Q 2503 -91 2169 -91 
Q 1331 -91 842 396 
Q 353 884 353 1716 
Q 353 2575 817 3079 
Q 1281 3584 2069 3584 
Q 2775 3584 3186 3129 
Q 3597 2675 3597 1894 
z
M 3022 2063 
Q 3016 2534 2758 2815 
Q 2500 3097 2075 3097 
Q 1594 3097 1305 2825 
Q 1016 2553 972 2059 
L 3022 2063 
z
" transform="scale(0.015625)"/>
       <path id="DejaVuSans-28" d="M 1984 4856 
Q 1566 4138 1362 3434 
Q 1159 2731 1159 2009 
Q 1159 1288 1364 580 
Q 1569 -128 1984 -844 
L 1484 -844 
Q 1016 -109 783 600 
Q 550 1309 550 2009 
Q 550 2706 781 3412 
Q 1013 4119 1484 4856 
L 1984 4856 
z
" transform="scale(0.015625)"/>
       <path id="DejaVuSans-29" d="M 513 4856 
L 1013 4856 
Q 1481 4119 1714 3412 
Q 1947 2706 1947 2009 
Q 1947 1309 1714 600 
Q 1481 -109 1013 -844 
L 513 -844 
Q 928 -128 1133 580 
Q 1338 1288 1338 2009 
Q 1338 2731 1133 3434 
Q 928 4138 513 4856 
z
" transform="scale(0.015625)"/>
      </defs>
      <use xlink:href="#DejaVuSans-74"/>
      <use xlink:href="#DejaVuSans-69" transform="translate(39.208984 0)"/>
      <use xlink:href="#DejaVuSans-6d" transform="translate(66.992188 0)"/>
      <use xlink:href="#DejaVuSans-65" transform="translate(164.404297 0)"/>
      <use xlink:href="#DejaVuSans-20" transform="translate(225.927734 0)"/>
      <use xlink:href="#DejaVuSans-28" transform="translate(257.714844 0)"/>
      <use xlink:href="#DejaVuSans-6d" transform="translate(296.728516 0)"/>
      <use xlink:href="#DejaVuSans-73" transform="translate(394.140625 0)"/>
      <use xlink:href="#DejaVuSans-29" transform="translate(446.240234 0)"/>
     </g>
    </g>
   </g>
   <g id="line2d_13">
    <path d="M 71.83696 279.858983 
L 72.105346 279.858983 
L 72.403553 279.858983 
L 72.701759 279.109828 
L 72.999966 279.359547 
L 73.298172 278.610392 
L 73.596379 278.610392 
L 73.894585 278.360673 
L 74.192792 278.110955 
L 74.490998 277.861237 
L 74.789205 277.611519 
L 77.77127 275.364054 
L 80.753335 274.864617 
L 83.735401 272.117716 
L 86.717466 272.367434 
L 89.699531 271.618279 
L 92.681596 270.869124 
L 95.663662 270.619406 
L 98.645727 267.872505 
L 101.627792 268.122223 
L 104.609857 268.62166 
L 107.591923 267.12335 
L 110.573988 267.373068 
L 113.556053 266.623913 
L 116.538118 266.124477 
L 119.520184 265.125604 
L 122.502249 263.377575 
L 125.484314 263.877012 
L 128.466379 264.12673 
L 131.448445 263.377575 
L 134.43051 262.878139 
L 137.412575 259.631801 
L 140.39464 262.128984 
L 143.376706 262.378702 
L 146.358771 262.628421 
L 149.340836 259.881519 
L 152.322901 260.630674 
L 155.304967 261.130111 
L 158.287032 257.634055 
L 161.269097 261.629547 
L 164.251162 260.880392 
L 167.233228 262.128984 
L 170.215293 261.130111 
L 173.197358 260.380956 
L 176.179423 260.131238 
L 179.161489 259.631801 
L 182.143554 259.132364 
L 185.125619 260.131238 
L 188.107684 259.631801 
L 191.08975 259.132364 
L 194.071815 259.132364 
L 197.05388 259.382083 
L 200.035945 258.383209 
L 203.018011 259.382083 
L 206.000076 257.634055 
L 208.982141 258.882646 
L 211.964206 257.883773 
L 214.946272 258.632928 
L 217.928337 257.134618 
L 220.910402 257.384336 
L 223.892467 256.385463 
L 226.874533 256.8849 
L 229.856598 257.134618 
L 232.838663 257.883773 
L 235.820728 255.886026 
L 238.802794 255.636308 
L 241.784859 256.135745 
L 244.766924 256.135745 
L 247.748989 255.38659 
L 250.731055 254.387717 
L 253.71312 254.887153 
L 256.695185 254.637435 
L 259.67725 255.38659 
L 262.659316 254.887153 
L 265.641381 253.88828 
L 268.623446 253.638562 
L 271.605511 254.387717 
L 274.587577 252.639688 
L 277.569642 253.388843 
L 280.551707 253.88828 
L 283.533772 252.889407 
L 286.515838 254.137998 
L 289.497903 250.142505 
L 292.479968 253.139125 
L 295.462033 252.889407 
L 298.444099 250.392224 
L 301.426164 254.137998 
L 304.408229 249.643069 
L 307.390294 252.140252 
L 310.37236 253.388843 
L 313.354425 251.141379 
L 316.33649 247.395604 
L 319.318555 251.890534 
L 322.300621 252.889407 
L 325.282686 250.89166 
L 328.264751 251.141379 
L 331.246816 250.641942 
L 334.228882 252.38997 
L 337.210947 249.643069 
L 340.193012 250.641942 
L 343.175078 250.142505 
L 346.157143 250.641942 
L 349.139208 250.641942 
L 352.121273 250.142505 
L 355.103339 248.644196 
L 358.085404 249.143632 
L 361.067469 249.393351 
L 364.049534 249.393351 
L 367.0316 249.143632 
L 370.013665 241.652083 
" clip-path="url(#p81b620f1e0)" style="fill: none; stroke: #1f77b4; stroke-width: 1.5; stroke-linecap: square"/>
   </g>
   <g id="line2d_14">
    <path d="M 71.83696 290.097434 
L 72.105346 289.348279 
L 72.403553 289.09856 
L 72.701759 288.099687 
L 72.999966 287.849969 
L 73.298172 287.849969 
L 73.596379 287.350532 
L 73.894585 286.851096 
L 74.192792 286.851096 
L 74.490998 286.101941 
L 74.789205 286.101941 
L 77.77127 283.355039 
L 80.753335 281.85673 
L 83.735401 280.108702 
L 86.717466 279.109828 
L 89.699531 277.861237 
L 92.681596 277.3618 
L 95.663662 275.613772 
L 98.645727 273.616026 
L 101.627792 274.365181 
L 104.609857 271.618279 
L 107.591923 273.616026 
L 110.573988 273.366307 
L 113.556053 271.118843 
L 116.538118 271.118843 
L 119.520184 266.124477 
L 122.502249 269.870251 
L 125.484314 270.869124 
L 128.466379 269.370815 
L 131.448445 269.121096 
L 134.43051 268.871378 
L 137.412575 266.873632 
L 140.39464 266.873632 
L 143.376706 267.373068 
L 146.358771 267.373068 
L 149.340836 266.623913 
L 152.322901 263.377575 
L 155.304967 263.877012 
L 158.287032 260.630674 
L 161.269097 264.376449 
L 164.251162 263.377575 
L 167.233228 262.628421 
L 170.215293 261.629547 
L 173.197358 261.379829 
L 176.179423 260.380956 
L 179.161489 260.131238 
L 182.143554 260.380956 
L 185.125619 259.631801 
L 188.107684 258.882646 
L 191.08975 258.882646 
L 194.071815 258.133491 
L 197.05388 257.883773 
L 200.035945 258.383209 
L 203.018011 256.8849 
L 206.000076 257.384336 
L 208.982141 255.136871 
L 211.964206 255.636308 
L 214.946272 255.38659 
L 217.928337 254.387717 
L 220.910402 254.637435 
L 223.892467 253.638562 
L 226.874533 252.639688 
L 229.856598 252.38997 
L 232.838663 251.640815 
L 235.820728 253.139125 
L 238.802794 253.388843 
L 241.784859 249.143632 
L 244.766924 249.643069 
L 247.748989 250.641942 
L 250.731055 245.148139 
L 253.71312 248.893914 
L 256.695185 249.892787 
L 259.67725 248.144759 
L 262.659316 246.896168 
L 265.641381 247.645322 
L 268.623446 246.396731 
L 271.605511 247.145886 
L 274.587577 246.646449 
L 277.569642 244.898421 
L 280.551707 246.896168 
L 283.533772 244.149266 
L 286.515838 242.650956 
L 289.497903 244.149266 
L 292.479968 244.149266 
L 295.462033 244.149266 
L 298.444099 244.149266 
L 301.426164 243.400111 
L 304.408229 244.149266 
L 307.390294 243.150393 
L 310.37236 242.650956 
L 313.354425 240.153773 
L 316.33649 239.1549 
L 319.318555 240.902928 
L 322.300621 240.403492 
L 325.282686 235.908562 
L 328.264751 240.65321 
L 331.246816 240.153773 
L 334.228882 238.655464 
L 337.210947 237.906309 
L 340.193012 236.907436 
L 343.175078 236.657717 
L 346.157143 238.156027 
L 349.139208 235.658844 
L 352.121273 235.908562 
L 355.103339 235.409126 
L 358.085404 235.409126 
L 361.067469 233.661098 
L 364.049534 232.911943 
L 367.0316 233.411379 
L 370.013665 232.662224 
" clip-path="url(#p81b620f1e0)" style="fill: none; stroke: #ff7f0e; stroke-width: 1.5; stroke-linecap: square"/>
   </g>
   <g id="line2d_15">
    <path d="M 71.83696 288.099687 
L 72.105346 287.350532 
L 72.403553 286.851096 
L 72.701759 286.851096 
L 72.999966 286.351659 
L 73.298172 286.101941 
L 73.596379 285.852222 
L 73.894585 285.602504 
L 74.192792 285.602504 
L 74.490998 284.853349 
L 74.789205 284.603631 
L 77.77127 282.605885 
L 80.753335 280.608138 
L 83.735401 279.109828 
L 86.717466 277.112082 
L 89.699531 276.862364 
L 92.681596 275.613772 
L 95.663662 273.366307 
L 98.645727 273.366307 
L 101.627792 272.617153 
L 104.609857 271.867998 
L 107.591923 270.619406 
L 110.573988 270.869124 
L 113.556053 270.869124 
L 116.538118 270.11997 
L 119.520184 267.872505 
L 122.502249 268.122223 
L 125.484314 267.373068 
L 128.466379 267.12335 
L 131.448445 265.125604 
L 134.43051 266.124477 
L 137.412575 265.125604 
L 140.39464 264.626167 
L 143.376706 261.629547 
L 146.358771 262.878139 
L 149.340836 262.378702 
L 152.322901 260.131238 
L 155.304967 262.378702 
L 158.287032 259.631801 
L 161.269097 259.631801 
L 164.251162 259.631801 
L 167.233228 257.634055 
L 170.215293 257.134618 
L 173.197358 257.134618 
L 176.179423 256.635181 
L 179.161489 255.38659 
L 182.143554 255.886026 
L 185.125619 254.637435 
L 188.107684 254.387717 
L 191.08975 253.388843 
L 194.071815 253.88828 
L 197.05388 252.639688 
L 200.035945 252.38997 
L 203.018011 250.641942 
L 206.000076 251.890534 
L 208.982141 249.892787 
L 211.964206 251.141379 
L 214.946272 250.89166 
L 217.928337 249.393351 
L 220.910402 248.394477 
L 223.892467 247.895041 
L 226.874533 246.646449 
L 229.856598 247.395604 
L 232.838663 246.896168 
L 235.820728 245.897294 
L 238.802794 245.397858 
L 241.784859 245.647576 
L 244.766924 242.900675 
L 247.748989 242.650956 
L 250.731055 242.401238 
L 253.71312 240.65321 
L 256.695185 240.403492 
L 259.67725 241.152647 
L 262.659316 241.402365 
L 265.641381 233.910816 
L 268.623446 240.153773 
L 271.605511 239.1549 
L 274.587577 236.158281 
L 277.569642 237.906309 
L 280.551707 236.158281 
L 283.533772 235.409126 
L 286.515838 235.159407 
L 289.497903 234.659971 
L 292.479968 235.159407 
L 295.462033 234.160534 
L 298.444099 229.915323 
L 301.426164 232.162788 
L 304.408229 231.413633 
L 307.390294 230.914196 
L 310.37236 229.415887 
L 313.354425 227.917577 
L 316.33649 229.665605 
L 319.318555 228.666732 
L 322.300621 227.41814 
L 325.282686 227.667858 
L 328.264751 225.91983 
L 331.246816 225.170675 
L 334.228882 223.422647 
L 337.210947 220.426028 
L 340.193012 219.926591 
L 343.175078 219.676873 
L 346.157143 222.174056 
L 349.139208 221.424901 
L 352.121273 219.177436 
L 355.103339 221.424901 
L 358.085404 217.928845 
L 361.067469 217.928845 
L 364.049534 217.17969 
L 367.0316 218.178563 
L 370.013665 213.683634 
" clip-path="url(#p81b620f1e0)" style="fill: none; stroke: #2ca02c; stroke-width: 1.5; stroke-linecap: square"/>
   </g>
   <g id="line2d_16">
    <path d="M 71.83696 129.02913 
L 72.105346 138.268707 
L 72.403553 138.518425 
L 72.701759 136.27096 
L 72.999966 138.518425 
L 73.298172 137.76927 
L 73.596379 134.77265 
L 73.894585 133.773777 
L 74.192792 135.272087 
L 74.490998 134.77265 
L 74.789205 135.521805 
L 77.77127 132.774904 
L 80.753335 132.025749 
L 83.735401 135.771524 
L 86.717466 131.776031 
L 89.699531 129.778284 
L 92.681596 132.525186 
L 95.663662 115.79406 
L 98.645727 130.777158 
L 101.627792 130.777158 
L 104.609857 129.778284 
L 107.591923 126.531947 
L 110.573988 125.533073 
L 113.556053 126.03251 
L 116.538118 117.791806 
L 119.520184 107.803074 
L 122.502249 121.537581 
L 125.484314 128.279975 
L 128.466379 129.02913 
L 131.448445 129.778284 
L 134.43051 132.025749 
L 137.412575 127.031383 
L 140.39464 124.284482 
L 143.376706 127.031383 
L 146.358771 126.531947 
L 149.340836 129.02913 
L 152.322901 123.785045 
L 155.304967 128.779411 
L 158.287032 128.529693 
L 161.269097 128.529693 
L 164.251162 127.031383 
L 167.233228 129.02913 
L 170.215293 126.531947 
L 173.197358 128.529693 
L 176.179423 128.030256 
L 179.161489 127.780538 
L 182.143554 128.529693 
L 185.125619 124.783918 
L 188.107684 125.033637 
L 191.08975 122.786172 
L 194.071815 127.031383 
L 197.05388 124.034764 
L 200.035945 129.278848 
L 203.018011 128.030256 
L 206.000076 125.533073 
L 208.982141 109.301384 
L 211.964206 126.781665 
L 214.946272 126.282228 
L 217.928337 127.780538 
L 220.910402 129.02913 
L 223.892467 127.53082 
L 226.874533 128.279975 
L 229.856598 125.782792 
L 232.838663 125.033637 
L 235.820728 117.042651 
L 238.802794 126.781665 
L 241.784859 127.53082 
L 244.766924 118.540961 
L 247.748989 116.043778 
L 250.731055 120.039271 
L 253.71312 123.03589 
L 256.695185 124.284482 
L 259.67725 117.042651 
L 262.659316 123.785045 
L 265.641381 121.537581 
L 268.623446 121.787299 
L 271.605511 123.03589 
L 274.587577 121.287862 
L 277.569642 122.037017 
L 280.551707 123.03589 
L 283.533772 119.539834 
L 286.515838 117.042651 
L 289.497903 117.542088 
L 292.479968 124.034764 
L 295.462033 127.281101 
L 298.444099 124.783918 
L 301.426164 121.287862 
L 304.408229 124.284482 
L 307.390294 123.285609 
L 310.37236 126.531947 
L 313.354425 123.285609 
L 316.33649 125.782792 
L 319.318555 123.285609 
L 322.300621 125.033637 
L 325.282686 124.034764 
L 328.264751 126.781665 
L 331.246816 127.031383 
L 334.228882 122.286735 
L 337.210947 121.787299 
L 340.193012 125.782792 
L 343.175078 121.537581 
L 346.157143 124.034764 
L 349.139208 121.537581 
L 352.121273 123.285609 
L 355.103339 121.287862 
L 358.085404 120.538707 
L 361.067469 124.034764 
L 364.049534 125.533073 
L 367.0316 119.789552 
L 370.013665 117.791806 
" clip-path="url(#p81b620f1e0)" style="fill: none; stroke: #d62728; stroke-width: 1.5; stroke-linecap: square"/>
   </g>
   <g id="line2d_17">
    <path d="M 71.83696 291.096307 
L 72.105346 290.846589 
L 72.403553 290.097434 
L 72.701759 290.097434 
L 72.999966 289.597997 
L 73.298172 289.09856 
L 73.596379 289.09856 
L 73.894585 289.09856 
L 74.192792 288.848842 
L 74.490998 288.349406 
L 74.789205 288.599124 
L 77.77127 287.100814 
L 80.753335 286.601377 
L 83.735401 283.105321 
L 86.717466 284.853349 
L 89.699531 284.853349 
L 92.681596 284.104194 
L 95.663662 283.854476 
L 98.645727 283.604758 
L 101.627792 283.604758 
L 104.609857 283.105321 
L 107.591923 282.855603 
L 110.573988 282.356166 
L 113.556053 281.357293 
L 116.538118 281.85673 
L 119.520184 281.357293 
L 122.502249 281.607011 
L 125.484314 281.607011 
L 128.466379 281.357293 
L 131.448445 281.107575 
L 134.43051 280.608138 
L 137.412575 280.35842 
L 140.39464 280.608138 
L 143.376706 280.108702 
L 146.358771 280.108702 
L 149.340836 279.858983 
L 152.322901 280.108702 
L 155.304967 279.858983 
L 158.287032 279.109828 
L 161.269097 279.109828 
L 164.251162 278.360673 
L 167.233228 278.110955 
L 170.215293 278.110955 
L 173.197358 277.861237 
L 176.179423 277.861237 
L 179.161489 277.611519 
L 182.143554 277.3618 
L 185.125619 277.112082 
L 188.107684 276.862364 
L 191.08975 276.862364 
L 194.071815 276.862364 
L 197.05388 276.612645 
L 200.035945 276.362927 
L 203.018011 276.113209 
L 206.000076 275.364054 
L 208.982141 275.86349 
L 211.964206 275.613772 
L 214.946272 275.86349 
L 217.928337 275.114336 
L 220.910402 274.864617 
L 223.892467 274.614899 
L 226.874533 274.614899 
L 229.856598 274.365181 
L 232.838663 274.365181 
L 235.820728 273.865744 
L 238.802794 273.865744 
L 241.784859 273.616026 
L 244.766924 273.116589 
L 247.748989 273.366307 
L 250.731055 273.116589 
L 253.71312 272.866871 
L 256.695185 271.867998 
L 259.67725 272.617153 
L 262.659316 272.367434 
L 265.641381 272.617153 
L 268.623446 270.369688 
L 271.605511 271.368561 
L 274.587577 271.368561 
L 277.569642 271.118843 
L 280.551707 270.369688 
L 283.533772 270.619406 
L 286.515838 270.869124 
L 289.497903 270.619406 
L 292.479968 270.619406 
L 295.462033 270.869124 
L 298.444099 270.369688 
L 301.426164 269.870251 
L 304.408229 269.620533 
L 307.390294 269.870251 
L 310.37236 270.369688 
L 313.354425 269.370815 
L 316.33649 267.622787 
L 319.318555 267.12335 
L 322.300621 268.871378 
L 325.282686 269.370815 
L 328.264751 269.121096 
L 331.246816 268.371941 
L 334.228882 268.871378 
L 337.210947 268.371941 
L 340.193012 268.62166 
L 343.175078 267.872505 
L 346.157143 267.872505 
L 349.139208 267.872505 
L 352.121273 267.12335 
L 355.103339 268.371941 
L 358.085404 267.872505 
L 361.067469 267.373068 
L 364.049534 266.873632 
L 367.0316 263.877012 
L 370.013665 262.628421 
" clip-path="url(#p81b620f1e0)" style="fill: none; stroke: #9467bd; stroke-width: 1.5; stroke-linecap: square"/>
   </g>
   <g id="line2d_18">
    <path d="M 71.83696 252.38997 
L 72.105346 250.89166 
L 72.403553 255.136871 
L 72.701759 249.892787 
L 72.999966 250.392224 
L 73.298172 248.644196 
L 73.596379 249.393351 
L 73.894585 251.141379 
L 74.192792 248.144759 
L 74.490998 248.644196 
L 74.789205 244.648703 
L 77.77127 245.647576 
L 80.753335 247.145886 
L 83.735401 242.401238 
L 86.717466 245.148139 
L 89.699531 242.650956 
L 92.681596 241.402365 
L 95.663662 241.402365 
L 98.645727 240.65321 
L 101.627792 237.406872 
L 104.609857 242.15152 
L 107.591923 240.403492 
L 110.573988 234.659971 
L 113.556053 206.192085 
L 116.538118 224.42152 
L 119.520184 235.409126 
L 122.502249 235.159407 
L 125.484314 237.65659 
L 128.466379 237.406872 
L 131.448445 239.904055 
L 134.43051 239.1549 
L 137.412575 236.657717 
L 140.39464 236.158281 
L 143.376706 238.156027 
L 146.358771 236.158281 
L 149.340836 237.406872 
L 152.322901 235.908562 
L 155.304967 237.906309 
L 158.287032 233.161661 
L 161.269097 232.911943 
L 164.251162 232.911943 
L 167.233228 233.161661 
L 170.215293 231.163915 
L 173.197358 234.160534 
L 176.179423 232.911943 
L 179.161489 230.165041 
L 182.143554 236.407999 
L 185.125619 231.91307 
L 188.107684 227.917577 
L 191.08975 228.417013 
L 194.071815 229.665605 
L 197.05388 229.415887 
L 200.035945 237.906309 
L 203.018011 234.410253 
L 206.000076 230.165041 
L 208.982141 228.666732 
L 211.964206 229.915323 
L 214.946272 228.417013 
L 217.928337 231.663351 
L 220.910402 234.160534 
L 223.892467 236.907436 
L 226.874533 227.667858 
L 229.856598 231.91307 
L 232.838663 229.665605 
L 235.820728 229.915323 
L 238.802794 226.668985 
L 241.784859 230.165041 
L 244.766924 230.41476 
L 247.748989 227.917577 
L 250.731055 225.670112 
L 253.71312 228.417013 
L 256.695185 226.169549 
L 259.67725 224.920957 
L 262.659316 226.918703 
L 265.641381 225.170675 
L 268.623446 226.918703 
L 271.605511 226.668985 
L 274.587577 227.41814 
L 277.569642 225.91983 
L 280.551707 230.664478 
L 283.533772 226.419267 
L 286.515838 223.922084 
L 289.497903 229.915323 
L 292.479968 226.169549 
L 295.462033 226.918703 
L 298.444099 226.169549 
L 301.426164 228.91645 
L 304.408229 225.170675 
L 307.390294 228.167295 
L 310.37236 226.169549 
L 313.354425 225.91983 
L 316.33649 228.91645 
L 319.318555 225.420394 
L 322.300621 225.91983 
L 325.282686 221.424901 
L 328.264751 224.920957 
L 331.246816 226.918703 
L 334.228882 223.922084 
L 337.210947 223.422647 
L 340.193012 224.671239 
L 343.175078 222.423774 
L 346.157143 221.175183 
L 349.139208 229.665605 
L 352.121273 220.925464 
L 355.103339 222.673492 
L 358.085404 223.172929 
L 361.067469 228.417013 
L 364.049534 223.922084 
L 367.0316 208.189831 
L 370.013665 212.68476 
" clip-path="url(#p81b620f1e0)" style="fill: none; stroke: #8c564b; stroke-width: 1.5; stroke-linecap: square"/>
   </g>
   <g id="line2d_19">
    <path d="M 71.83696 290.59687 
L 72.105346 290.59687 
L 72.403553 290.097434 
L 72.701759 289.847715 
L 72.999966 290.097434 
L 73.298172 290.097434 
L 73.596379 289.847715 
L 73.894585 289.348279 
L 74.192792 289.348279 
L 74.490998 289.348279 
L 74.789205 289.348279 
L 77.77127 288.099687 
L 80.753335 288.099687 
L 83.735401 288.099687 
L 86.717466 287.600251 
L 89.699531 286.851096 
L 92.681596 286.851096 
L 95.663662 286.601377 
L 98.645727 286.601377 
L 101.627792 286.601377 
L 104.609857 285.852222 
L 107.591923 285.852222 
L 110.573988 285.602504 
L 113.556053 283.105321 
L 116.538118 285.602504 
L 119.520184 284.853349 
L 122.502249 284.853349 
L 125.484314 284.853349 
L 128.466379 284.853349 
L 131.448445 284.603631 
L 134.43051 285.103068 
L 137.412575 284.853349 
L 140.39464 284.853349 
L 143.376706 284.353913 
L 146.358771 284.603631 
L 149.340836 284.353913 
L 152.322901 284.104194 
L 155.304967 284.104194 
L 158.287032 284.104194 
L 161.269097 283.854476 
L 164.251162 283.604758 
L 167.233228 283.355039 
L 170.215293 283.604758 
L 173.197358 282.855603 
L 176.179423 279.858983 
L 179.161489 282.855603 
L 182.143554 282.855603 
L 185.125619 283.105321 
L 188.107684 282.605885 
L 191.08975 282.356166 
L 194.071815 282.605885 
L 197.05388 282.106448 
L 200.035945 282.605885 
L 203.018011 281.607011 
L 206.000076 282.106448 
L 208.982141 281.85673 
L 211.964206 281.357293 
L 214.946272 280.35842 
L 217.928337 281.607011 
L 220.910402 281.357293 
L 223.892467 281.107575 
L 226.874533 281.357293 
L 229.856598 281.357293 
L 232.838663 280.857856 
L 235.820728 280.857856 
L 238.802794 280.608138 
L 241.784859 280.608138 
L 244.766924 280.608138 
L 247.748989 280.35842 
L 250.731055 280.108702 
L 253.71312 279.858983 
L 256.695185 279.858983 
L 259.67725 279.858983 
L 262.659316 278.110955 
L 265.641381 277.861237 
L 268.623446 278.610392 
L 271.605511 278.360673 
L 274.587577 278.86011 
L 277.569642 278.110955 
L 280.551707 278.610392 
L 283.533772 277.861237 
L 286.515838 278.360673 
L 289.497903 277.611519 
L 292.479968 278.110955 
L 295.462033 277.861237 
L 298.444099 278.110955 
L 301.426164 277.861237 
L 304.408229 277.861237 
L 307.390294 277.611519 
L 310.37236 277.112082 
L 313.354425 276.362927 
L 316.33649 277.611519 
L 319.318555 276.113209 
L 322.300621 277.112082 
L 325.282686 277.112082 
L 328.264751 276.612645 
L 331.246816 276.612645 
L 334.228882 276.113209 
L 337.210947 276.362927 
L 340.193012 276.612645 
L 343.175078 275.613772 
L 346.157143 274.614899 
L 349.139208 276.612645 
L 352.121273 276.612645 
L 355.103339 274.864617 
L 358.085404 276.113209 
L 361.067469 274.614899 
L 364.049534 275.114336 
L 367.0316 274.614899 
L 370.013665 274.365181 
" clip-path="url(#p81b620f1e0)" style="fill: none; stroke: #e377c2; stroke-width: 1.5; stroke-linecap: square"/>
   </g>
   <g id="line2d_20">
    <path d="M 71.83696 275.114336 
L 72.105346 271.867998 
L 72.403553 269.121096 
L 72.701759 268.122223 
L 72.999966 266.374195 
L 73.298172 264.626167 
L 73.596379 263.627294 
L 73.894585 262.628421 
L 74.192792 260.630674 
L 74.490998 255.886026 
L 74.789205 259.132364 
L 77.77127 249.143632 
L 80.753335 241.402365 
L 83.735401 234.909689 
L 86.717466 232.162788 
L 89.699531 229.415887 
L 92.681596 225.91983 
L 95.663662 222.923211 
L 98.645727 220.176309 
L 101.627792 216.430535 
L 104.609857 215.68138 
L 107.591923 211.685887 
L 110.573988 212.934479 
L 113.556053 208.938986 
L 116.538118 203.195465 
L 119.520184 205.193211 
L 122.502249 196.203352 
L 125.484314 198.450817 
L 128.466379 198.700535 
L 131.448445 195.953634 
L 134.43051 193.706169 
L 137.412575 192.457578 
L 140.39464 190.459832 
L 143.376706 186.963775 
L 146.358771 183.218001 
L 149.340836 180.970536 
L 152.322901 183.717437 
L 155.304967 178.473353 
L 158.287032 173.478987 
L 161.269097 174.727579 
L 164.251162 171.980677 
L 167.233228 170.981804 
L 170.215293 169.733213 
L 173.197358 165.238283 
L 176.179423 164.988565 
L 179.161489 162.990818 
L 182.143554 163.490255 
L 185.125619 159.744481 
L 188.107684 156.498143 
L 191.08975 158.995326 
L 194.071815 156.498143 
L 197.05388 154.999833 
L 200.035945 155.499269 
L 203.018011 150.754622 
L 206.000076 152.003213 
L 208.982141 147.008847 
L 211.964206 146.759129 
L 214.946272 146.509411 
L 217.928337 144.012228 
L 220.910402 144.261946 
L 223.892467 133.773777 
L 226.874533 139.26758 
L 229.856598 140.016735 
L 232.838663 135.022369 
L 235.820728 137.269833 
L 238.802794 133.274341 
L 241.784859 135.521805 
L 244.766924 131.526313 
L 247.748989 127.031383 
L 250.731055 131.276594 
L 253.71312 126.781665 
L 256.695185 130.028003 
L 259.67725 125.033637 
L 262.659316 109.301384 
L 265.641381 120.538707 
L 268.623446 114.795186 
L 271.605511 117.791806 
L 274.587577 88.824483 
L 277.569642 111.049412 
L 280.551707 111.049412 
L 283.533772 113.796313 
L 286.515838 111.548848 
L 289.497903 110.799694 
L 292.479968 102.309271 
L 295.462033 107.553356 
L 298.444099 105.305891 
L 301.426164 110.050539 
L 304.408229 94.318286 
L 307.390294 108.801947 
L 310.37236 100.561243 
L 313.354425 107.053919 
L 316.33649 101.809835 
L 319.318555 94.318286 
L 322.300621 97.065187 
L 325.282686 98.313779 
L 328.264751 90.82223 
L 331.246816 90.073075 
L 334.228882 93.818849 
L 337.210947 85.328427 
L 340.193012 95.566877 
L 343.175078 88.574765 
L 346.157143 86.077582 
L 349.139208 89.823356 
L 352.121273 87.82561 
L 355.103339 89.32392 
L 358.085404 89.074201 
L 361.067469 82.581526 
L 364.049534 75.839131 
L 367.0316 72.343075 
L 370.013665 51.616456 
" clip-path="url(#p81b620f1e0)" style="fill: none; stroke: #7f7f7f; stroke-width: 1.5; stroke-linecap: square"/>
   </g>
   <g id="line2d_21">
    <path d="M 71.83696 289.847715 
L 72.105346 288.848842 
L 72.403553 288.099687 
L 72.701759 287.600251 
L 72.999966 287.100814 
L 73.298172 286.601377 
L 73.596379 285.352786 
L 73.894585 285.852222 
L 74.192792 284.104194 
L 74.490998 285.602504 
L 74.789205 285.103068 
L 77.77127 283.105321 
L 80.753335 280.35842 
L 83.735401 279.359547 
L 86.717466 278.360673 
L 89.699531 277.861237 
L 92.681596 276.612645 
L 95.663662 273.616026 
L 98.645727 274.614899 
L 101.627792 273.865744 
L 104.609857 272.367434 
L 107.591923 272.617153 
L 110.573988 272.617153 
L 113.556053 272.617153 
L 116.538118 272.117716 
L 119.520184 272.117716 
L 122.502249 271.618279 
L 125.484314 270.11997 
L 128.466379 270.11997 
L 131.448445 270.369688 
L 134.43051 267.373068 
L 137.412575 269.870251 
L 140.39464 268.371941 
L 143.376706 268.871378 
L 146.358771 268.62166 
L 149.340836 267.373068 
L 152.322901 265.62504 
L 155.304967 267.872505 
L 158.287032 266.124477 
L 161.269097 263.627294 
L 164.251162 265.62504 
L 167.233228 265.125604 
L 170.215293 264.875885 
L 173.197358 264.376449 
L 176.179423 264.875885 
L 179.161489 264.12673 
L 182.143554 263.627294 
L 185.125619 264.12673 
L 188.107684 262.378702 
L 191.08975 263.627294 
L 194.071815 262.378702 
L 197.05388 262.128984 
L 200.035945 261.879266 
L 203.018011 261.629547 
L 206.000076 259.881519 
L 208.982141 259.881519 
L 211.964206 260.131238 
L 214.946272 258.383209 
L 217.928337 259.631801 
L 220.910402 257.134618 
L 223.892467 258.882646 
L 226.874533 258.133491 
L 229.856598 258.882646 
L 232.838663 258.882646 
L 235.820728 255.38659 
L 238.802794 257.384336 
L 241.784859 255.886026 
L 244.766924 256.385463 
L 247.748989 255.636308 
L 250.731055 255.636308 
L 253.71312 254.637435 
L 256.695185 255.886026 
L 259.67725 256.135745 
L 262.659316 254.387717 
L 265.641381 255.38659 
L 268.623446 254.887153 
L 271.605511 255.136871 
L 274.587577 254.137998 
L 277.569642 252.889407 
L 280.551707 253.388843 
L 283.533772 253.388843 
L 286.515838 251.640815 
L 289.497903 251.141379 
L 292.479968 250.641942 
L 295.462033 252.38997 
L 298.444099 248.144759 
L 301.426164 252.889407 
L 304.408229 251.391097 
L 307.390294 251.141379 
L 310.37236 249.892787 
L 313.354425 246.396731 
L 316.33649 249.393351 
L 319.318555 243.899548 
L 322.300621 246.147013 
L 325.282686 251.640815 
L 328.264751 246.896168 
L 331.246816 250.392224 
L 334.228882 248.144759 
L 337.210947 245.647576 
L 340.193012 245.397858 
L 343.175078 245.897294 
L 346.157143 246.896168 
L 349.139208 245.397858 
L 352.121273 240.403492 
L 355.103339 243.899548 
L 358.085404 243.150393 
L 361.067469 244.898421 
L 364.049534 246.646449 
L 367.0316 242.401238 
L 370.013665 239.904055 
" clip-path="url(#p81b620f1e0)" style="fill: none; stroke: #bcbd22; stroke-width: 1.5; stroke-linecap: square"/>
   </g>
   <g id="line2d_22">
    <path d="M 71.83696 199.699409 
L 72.105346 197.451944 
L 72.403553 196.203352 
L 72.701759 194.205606 
L 72.999966 192.957015 
L 73.298172 191.958141 
L 73.596379 189.710677 
L 73.894585 188.462085 
L 74.192792 187.962649 
L 74.490998 186.714057 
L 74.789205 178.223635 
L 77.77127 175.227015 
L 80.753335 173.728705 
L 83.735401 171.980677 
L 86.717466 169.733213 
L 89.699531 167.485748 
L 92.681596 163.989692 
L 95.663662 157.497016 
L 98.645727 159.494762 
L 101.627792 157.746734 
L 104.609857 154.999833 
L 107.591923 151.254058 
L 110.573988 151.503777 
L 113.556053 28.392654 
L 116.538118 139.017862 
L 119.520184 149.50603 
L 122.502249 144.511664 
L 125.484314 138.518425 
L 128.466379 146.009974 
L 131.448445 143.013354 
L 134.43051 144.012228 
L 137.412575 140.76589 
L 140.39464 139.767016 
L 143.376706 137.519552 
L 146.358771 139.517298 
L 149.340836 132.025749 
L 152.322901 137.76927 
L 155.304967 131.026876 
L 158.287032 133.773777 
L 161.269097 133.524059 
L 164.251162 130.527439 
L 167.233228 131.276594 
L 170.215293 129.778284 
L 173.197358 128.279975 
L 176.179423 123.535327 
L 179.161489 125.782792 
L 182.143554 117.292369 
L 185.125619 121.038144 
L 188.107684 124.034764 
L 191.08975 120.039271 
L 194.071815 121.287862 
L 197.05388 122.286735 
L 200.035945 116.543215 
L 203.018011 117.292369 
L 206.000076 118.291243 
L 208.982141 118.291243 
L 211.964206 112.547722 
L 214.946272 115.79406 
L 217.928337 115.79406 
L 220.910402 104.806454 
L 223.892467 111.049412 
L 226.874533 112.547722 
L 229.856598 113.047158 
L 232.838663 103.308145 
L 235.820728 112.298003 
L 238.802794 104.806454 
L 241.784859 107.053919 
L 244.766924 95.816596 
L 247.748989 103.308145 
L 250.731055 90.073075 
L 253.71312 102.55899 
L 256.695185 97.564624 
L 259.67725 100.561243 
L 262.659316 96.316032 
L 265.641381 90.572511 
L 268.623446 90.322793 
L 271.605511 88.075328 
L 274.587577 89.823356 
L 277.569642 84.329554 
L 280.551707 87.575892 
L 283.533772 90.572511 
L 286.515838 92.070821 
L 289.497903 90.073075 
L 292.479968 77.836878 
L 295.462033 88.824483 
L 298.444099 89.573638 
L 301.426164 89.823356 
L 304.408229 83.830117 
L 307.390294 86.077582 
L 310.37236 75.589413 
L 313.354425 88.325047 
L 316.33649 85.328427 
L 319.318555 83.830117 
L 322.300621 84.079835 
L 325.282686 88.325047 
L 328.264751 82.831244 
L 331.246816 75.339695 
L 334.228882 82.331807 
L 337.210947 80.334061 
L 340.193012 79.834624 
L 343.175078 81.832371 
L 346.157143 76.838005 
L 349.139208 78.086596 
L 352.121273 77.836878 
L 355.103339 81.582652 
L 358.085404 78.336314 
L 361.067469 76.588286 
L 364.049534 62.604062 
L 367.0316 24.147443 
L 370.013665 54.862794 
" clip-path="url(#p81b620f1e0)" style="fill: none; stroke: #17becf; stroke-width: 1.5; stroke-linecap: square"/>
   </g>
   <g id="line2d_23">
    <path d="M 71.83696 290.846589 
L 72.105346 290.097434 
L 72.403553 290.097434 
L 72.701759 289.348279 
L 72.999966 289.348279 
L 73.298172 288.848842 
L 73.596379 288.599124 
L 73.894585 288.349406 
L 74.192792 286.851096 
L 74.490998 287.849969 
L 74.789205 287.600251 
L 77.77127 286.101941 
L 80.753335 285.602504 
L 83.735401 284.603631 
L 86.717466 284.353913 
L 89.699531 283.854476 
L 92.681596 283.105321 
L 95.663662 282.855603 
L 98.645727 283.105321 
L 101.627792 282.855603 
L 104.609857 282.605885 
L 107.591923 278.86011 
L 110.573988 281.607011 
L 113.556053 281.607011 
L 116.538118 281.107575 
L 119.520184 280.108702 
L 122.502249 280.108702 
L 125.484314 280.35842 
L 128.466379 280.35842 
L 131.448445 280.35842 
L 134.43051 279.858983 
L 137.412575 279.109828 
L 140.39464 279.109828 
L 143.376706 278.86011 
L 146.358771 278.360673 
L 149.340836 278.110955 
L 152.322901 278.110955 
L 155.304967 276.113209 
L 158.287032 277.3618 
L 161.269097 277.3618 
L 164.251162 277.3618 
L 167.233228 277.112082 
L 170.215293 277.112082 
L 173.197358 276.612645 
L 176.179423 276.362927 
L 179.161489 276.612645 
L 182.143554 276.113209 
L 185.125619 275.613772 
L 188.107684 275.613772 
L 191.08975 275.364054 
L 194.071815 275.364054 
L 197.05388 275.114336 
L 200.035945 274.115462 
L 203.018011 273.865744 
L 206.000076 273.616026 
L 208.982141 273.116589 
L 211.964206 273.366307 
L 214.946272 273.366307 
L 217.928337 273.116589 
L 220.910402 271.618279 
L 223.892467 272.866871 
L 226.874533 272.617153 
L 229.856598 272.117716 
L 232.838663 272.617153 
L 235.820728 269.370815 
L 238.802794 272.117716 
L 241.784859 271.618279 
L 244.766924 271.618279 
L 247.748989 270.619406 
L 250.731055 269.370815 
L 253.71312 270.869124 
L 256.695185 270.869124 
L 259.67725 270.619406 
L 262.659316 270.369688 
L 265.641381 269.370815 
L 268.623446 268.62166 
L 271.605511 270.11997 
L 274.587577 269.620533 
L 277.569642 269.620533 
L 280.551707 269.370815 
L 283.533772 269.370815 
L 286.515838 268.62166 
L 289.497903 268.122223 
L 292.479968 269.370815 
L 295.462033 269.121096 
L 298.444099 268.122223 
L 301.426164 268.62166 
L 304.408229 268.62166 
L 307.390294 268.371941 
L 310.37236 268.62166 
L 313.354425 268.122223 
L 316.33649 268.371941 
L 319.318555 267.872505 
L 322.300621 267.872505 
L 325.282686 267.373068 
L 328.264751 267.12335 
L 331.246816 267.373068 
L 334.228882 267.622787 
L 337.210947 265.874758 
L 340.193012 267.373068 
L 343.175078 267.12335 
L 346.157143 266.623913 
L 349.139208 265.125604 
L 352.121273 266.374195 
L 355.103339 262.628421 
L 358.085404 266.374195 
L 361.067469 265.125604 
L 364.049534 265.62504 
L 367.0316 264.376449 
L 370.013665 259.631801 
" clip-path="url(#p81b620f1e0)" style="fill: none; stroke: #1f77b4; stroke-width: 1.5; stroke-linecap: square"/>
   </g>
   <g id="line2d_24">
    <path d="M 71.83696 288.848842 
L 72.105346 286.351659 
L 72.403553 284.353913 
L 72.701759 282.855603 
L 72.999966 281.607011 
L 73.298172 279.858983 
L 73.596379 278.610392 
L 73.894585 277.861237 
L 74.192792 276.612645 
L 74.490998 275.86349 
L 74.789205 274.614899 
L 77.77127 264.376449 
L 80.753335 258.632928 
L 83.735401 252.889407 
L 86.717466 249.143632 
L 89.699531 243.400111 
L 92.681596 240.153773 
L 95.663662 237.157154 
L 98.645727 236.158281 
L 101.627792 233.161661 
L 104.609857 229.415887 
L 107.591923 221.175183 
L 110.573988 223.422647 
L 113.556053 214.932225 
L 116.538118 209.438422 
L 119.520184 214.432788 
L 122.502249 213.683634 
L 125.484314 213.683634 
L 128.466379 211.186451 
L 131.448445 210.187577 
L 134.43051 206.691521 
L 137.412575 206.691521 
L 140.39464 202.945747 
L 143.376706 202.196592 
L 146.358771 197.701662 
L 149.340836 197.202226 
L 152.322901 181.719691 
L 155.304967 189.960395 
L 158.287032 191.958141 
L 161.269097 191.708423 
L 164.251162 187.962649 
L 167.233228 184.716311 
L 170.215293 185.964902 
L 173.197358 182.968283 
L 176.179423 180.221381 
L 179.161489 176.725325 
L 182.143554 179.971663 
L 185.125619 175.227015 
L 188.107684 169.733213 
L 191.08975 170.732086 
L 194.071815 169.233776 
L 197.05388 164.23941 
L 200.035945 159.494762 
L 203.018011 160.743354 
L 206.000076 164.489128 
L 208.982141 161.24279 
L 211.964206 158.995326 
L 214.946272 157.996452 
L 217.928337 155.998706 
L 220.910402 153.002086 
L 223.892467 151.753495 
L 226.874533 153.501523 
L 229.856598 151.503777 
L 232.838663 148.756875 
L 235.820728 146.259692 
L 238.802794 144.511664 
L 241.784859 144.511664 
L 244.766924 131.026876 
L 247.748989 138.268707 
L 250.731055 137.020115 
L 253.71312 131.276594 
L 256.695185 133.274341 
L 259.67725 130.527439 
L 262.659316 128.779411 
L 265.641381 123.785045 
L 268.623446 122.786172 
L 271.605511 123.785045 
L 274.587577 123.785045 
L 277.569642 120.288989 
L 280.551707 118.540961 
L 283.533772 119.539834 
L 286.515838 114.545468 
L 289.497903 111.548848 
L 292.479968 116.792933 
L 295.462033 96.316032 
L 298.444099 109.551102 
L 301.426164 112.048285 
L 304.408229 109.051665 
L 307.390294 111.548848 
L 310.37236 106.554482 
L 313.354425 106.554482 
L 316.33649 105.056173 
L 319.318555 101.06068 
L 322.300621 103.308145 
L 325.282686 96.815469 
L 328.264751 95.067441 
L 331.246816 95.317159 
L 334.228882 96.56575 
L 337.210947 94.817722 
L 340.193012 91.071948 
L 343.175078 88.824483 
L 346.157143 87.326173 
L 349.139208 85.078709 
L 352.121273 84.82899 
L 355.103339 81.582652 
L 358.085404 79.085469 
L 361.067469 83.830117 
L 364.049534 71.59392 
L 367.0316 25.146316 
L 370.013665 49.61871 
" clip-path="url(#p81b620f1e0)" style="fill: none; stroke: #ff7f0e; stroke-width: 1.5; stroke-linecap: square"/>
   </g>
   <g id="patch_3">
    <path d="M 56.928125 304.44375 
L 56.928125 10.8 
" style="fill: none; stroke: #000000; stroke-width: 0.8; stroke-linejoin: miter; stroke-linecap: square"/>
   </g>
   <g id="patch_4">
    <path d="M 384.9225 304.44375 
L 384.9225 10.8 
" style="fill: none; stroke: #000000; stroke-width: 0.8; stroke-linejoin: miter; stroke-linecap: square"/>
   </g>
   <g id="patch_5">
    <path d="M 56.928125 304.44375 
L 384.9225 304.44375 
" style="fill: none; stroke: #000000; stroke-width: 0.8; stroke-linejoin: miter; stroke-linecap: square"/>
   </g>
   <g id="patch_6">
    <path d="M 56.928125 10.8 
L 384.9225 10.8 
" style="fill: none; stroke: #000000; stroke-width: 0.8; stroke-linejoin: miter; stroke-linecap: square"/>
   </g>
   <g id="text_15">
    <!-- solomon -->
    <g style="fill: #e377c2" transform="translate(390.9225 276.572681) scale(0.08 -0.08)">
     <defs>
      <path id="DejaVuSans-6f" d="M 1959 3097 
Q 1497 3097 1228 2736 
Q 959 2375 959 1747 
Q 959 1119 1226 758 
Q 1494 397 1959 397 
Q 2419 397 2687 759 
Q 2956 1122 2956 1747 
Q 2956 2369 2687 2733 
Q 2419 3097 1959 3097 
z
M 1959 3584 
Q 2709 3584 3137 3096 
Q 3566 2609 3566 1747 
Q 3566 888 3137 398 
Q 2709 -91 1959 -91 
Q 1206 -91 779 398 
Q 353 888 353 1747 
Q 353 2609 779 3096 
Q 1206 3584 1959 3584 
z
" transform="scale(0.015625)"/>
      <path id="DejaVuSans-6c" d="M 603 4863 
L 1178 4863 
L 1178 0 
L 603 0 
L 603 4863 
z
" transform="scale(0.015625)"/>
     </defs>
     <use xlink:href="#DejaVuSans-73"/>
     <use xlink:href="#DejaVuSans-6f" transform="translate(52.099609 0)"/>
     <use xlink:href="#DejaVuSans-6c" transform="translate(113.28125 0)"/>
     <use xlink:href="#DejaVuSans-6f" transform="translate(141.064453 0)"/>
     <use xlink:href="#DejaVuSans-6d" transform="translate(202.246094 0)"/>
     <use xlink:href="#DejaVuSans-6f" transform="translate(299.658203 0)"/>
     <use xlink:href="#DejaVuSans-6e" transform="translate(360.839844 0)"/>
    </g>
   </g>
   <g id="text_16">
    <!-- mustachej -->
    <g style="fill: #9467bd" transform="translate(390.9225 265.585075) scale(0.08 -0.08)">
     <defs>
      <path id="DejaVuSans-61" d="M 2194 1759 
Q 1497 1759 1228 1600 
Q 959 1441 959 1056 
Q 959 750 1161 570 
Q 1363 391 1709 391 
Q 2188 391 2477 730 
Q 2766 1069 2766 1631 
L 2766 1759 
L 2194 1759 
z
M 3341 1997 
L 3341 0 
L 2766 0 
L 2766 531 
Q 2569 213 2275 61 
Q 1981 -91 1556 -91 
Q 1019 -91 701 211 
Q 384 513 384 1019 
Q 384 1609 779 1909 
Q 1175 2209 1959 2209 
L 2766 2209 
L 2766 2266 
Q 2766 2663 2505 2880 
Q 2244 3097 1772 3097 
Q 1472 3097 1187 3025 
Q 903 2953 641 2809 
L 641 3341 
Q 956 3463 1253 3523 
Q 1550 3584 1831 3584 
Q 2591 3584 2966 3190 
Q 3341 2797 3341 1997 
z
" transform="scale(0.015625)"/>
      <path id="DejaVuSans-63" d="M 3122 3366 
L 3122 2828 
Q 2878 2963 2633 3030 
Q 2388 3097 2138 3097 
Q 1578 3097 1268 2742 
Q 959 2388 959 1747 
Q 959 1106 1268 751 
Q 1578 397 2138 397 
Q 2388 397 2633 464 
Q 2878 531 3122 666 
L 3122 134 
Q 2881 22 2623 -34 
Q 2366 -91 2075 -91 
Q 1284 -91 818 406 
Q 353 903 353 1747 
Q 353 2603 823 3093 
Q 1294 3584 2113 3584 
Q 2378 3584 2631 3529 
Q 2884 3475 3122 3366 
z
" transform="scale(0.015625)"/>
      <path id="DejaVuSans-68" d="M 3513 2113 
L 3513 0 
L 2938 0 
L 2938 2094 
Q 2938 2591 2744 2837 
Q 2550 3084 2163 3084 
Q 1697 3084 1428 2787 
Q 1159 2491 1159 1978 
L 1159 0 
L 581 0 
L 581 4863 
L 1159 4863 
L 1159 2956 
Q 1366 3272 1645 3428 
Q 1925 3584 2291 3584 
Q 2894 3584 3203 3211 
Q 3513 2838 3513 2113 
z
" transform="scale(0.015625)"/>
      <path id="DejaVuSans-6a" d="M 603 3500 
L 1178 3500 
L 1178 -63 
Q 1178 -731 923 -1031 
Q 669 -1331 103 -1331 
L -116 -1331 
L -116 -844 
L 38 -844 
Q 366 -844 484 -692 
Q 603 -541 603 -63 
L 603 3500 
z
M 603 4863 
L 1178 4863 
L 1178 4134 
L 603 4134 
L 603 4863 
z
" transform="scale(0.015625)"/>
     </defs>
     <use xlink:href="#DejaVuSans-6d"/>
     <use xlink:href="#DejaVuSans-75" transform="translate(97.412109 0)"/>
     <use xlink:href="#DejaVuSans-73" transform="translate(160.791016 0)"/>
     <use xlink:href="#DejaVuSans-74" transform="translate(212.890625 0)"/>
     <use xlink:href="#DejaVuSans-61" transform="translate(252.099609 0)"/>
     <use xlink:href="#DejaVuSans-63" transform="translate(313.378906 0)"/>
     <use xlink:href="#DejaVuSans-68" transform="translate(368.359375 0)"/>
     <use xlink:href="#DejaVuSans-65" transform="translate(431.738281 0)"/>
     <use xlink:href="#DejaVuSans-6a" transform="translate(493.261719 0)"/>
    </g>
   </g>
   <g id="text_17">
    <!-- trimou -->
    <g style="fill: #1f77b4" transform="translate(390.9225 258.592963) scale(0.08 -0.08)">
     <use xlink:href="#DejaVuSans-74"/>
     <use xlink:href="#DejaVuSans-72" transform="translate(39.208984 0)"/>
     <use xlink:href="#DejaVuSans-69" transform="translate(80.322266 0)"/>
     <use xlink:href="#DejaVuSans-6d" transform="translate(108.105469 0)"/>
     <use xlink:href="#DejaVuSans-6f" transform="translate(205.517578 0)"/>
     <use xlink:href="#DejaVuSans-75" transform="translate(266.699219 0)"/>
    </g>
   </g>
   <g id="text_18">
    <!-- freemarker -->
    <g style="fill: #1f77b4" transform="translate(390.9225 249.103668) scale(0.08 -0.08)">
     <defs>
      <path id="DejaVuSans-66" d="M 2375 4863 
L 2375 4384 
L 1825 4384 
Q 1516 4384 1395 4259 
Q 1275 4134 1275 3809 
L 1275 3500 
L 2222 3500 
L 2222 3053 
L 1275 3053 
L 1275 0 
L 697 0 
L 697 3053 
L 147 3053 
L 147 3500 
L 697 3500 
L 697 3744 
Q 697 4328 969 4595 
Q 1241 4863 1831 4863 
L 2375 4863 
z
" transform="scale(0.015625)"/>
      <path id="DejaVuSans-6b" d="M 581 4863 
L 1159 4863 
L 1159 1991 
L 2875 3500 
L 3609 3500 
L 1753 1863 
L 3688 0 
L 2938 0 
L 1159 1709 
L 1159 0 
L 581 0 
L 581 4863 
z
" transform="scale(0.015625)"/>
     </defs>
     <use xlink:href="#DejaVuSans-66"/>
     <use xlink:href="#DejaVuSans-72" transform="translate(35.205078 0)"/>
     <use xlink:href="#DejaVuSans-65" transform="translate(74.068359 0)"/>
     <use xlink:href="#DejaVuSans-65" transform="translate(135.591797 0)"/>
     <use xlink:href="#DejaVuSans-6d" transform="translate(197.115234 0)"/>
     <use xlink:href="#DejaVuSans-61" transform="translate(294.527344 0)"/>
     <use xlink:href="#DejaVuSans-72" transform="translate(355.806641 0)"/>
     <use xlink:href="#DejaVuSans-6b" transform="translate(396.919922 0)"/>
     <use xlink:href="#DejaVuSans-65" transform="translate(451.205078 0)"/>
     <use xlink:href="#DejaVuSans-72" transform="translate(512.728516 0)"/>
    </g>
   </g>
   <g id="text_19">
    <!-- stringtree -->
    <g style="fill: #bcbd22" transform="translate(390.9225 242.111555) scale(0.08 -0.08)">
     <defs>
      <path id="DejaVuSans-67" d="M 2906 1791 
Q 2906 2416 2648 2759 
Q 2391 3103 1925 3103 
Q 1463 3103 1205 2759 
Q 947 2416 947 1791 
Q 947 1169 1205 825 
Q 1463 481 1925 481 
Q 2391 481 2648 825 
Q 2906 1169 2906 1791 
z
M 3481 434 
Q 3481 -459 3084 -895 
Q 2688 -1331 1869 -1331 
Q 1566 -1331 1297 -1286 
Q 1028 -1241 775 -1147 
L 775 -588 
Q 1028 -725 1275 -790 
Q 1522 -856 1778 -856 
Q 2344 -856 2625 -561 
Q 2906 -266 2906 331 
L 2906 616 
Q 2728 306 2450 153 
Q 2172 0 1784 0 
Q 1141 0 747 490 
Q 353 981 353 1791 
Q 353 2603 747 3093 
Q 1141 3584 1784 3584 
Q 2172 3584 2450 3431 
Q 2728 3278 2906 2969 
L 2906 3500 
L 3481 3500 
L 3481 434 
z
" transform="scale(0.015625)"/>
     </defs>
     <use xlink:href="#DejaVuSans-73"/>
     <use xlink:href="#DejaVuSans-74" transform="translate(52.099609 0)"/>
     <use xlink:href="#DejaVuSans-72" transform="translate(91.308594 0)"/>
     <use xlink:href="#DejaVuSans-69" transform="translate(132.421875 0)"/>
     <use xlink:href="#DejaVuSans-6e" transform="translate(160.205078 0)"/>
     <use xlink:href="#DejaVuSans-67" transform="translate(223.583984 0)"/>
     <use xlink:href="#DejaVuSans-74" transform="translate(287.060547 0)"/>
     <use xlink:href="#DejaVuSans-72" transform="translate(326.269531 0)"/>
     <use xlink:href="#DejaVuSans-65" transform="translate(365.132812 0)"/>
     <use xlink:href="#DejaVuSans-65" transform="translate(426.65625 0)"/>
    </g>
   </g>
   <g id="text_20">
    <!-- handlebars -->
    <g style="fill: #ff7f0e" transform="translate(390.9225 234.869724) scale(0.08 -0.08)">
     <defs>
      <path id="DejaVuSans-64" d="M 2906 2969 
L 2906 4863 
L 3481 4863 
L 3481 0 
L 2906 0 
L 2906 525 
Q 2725 213 2448 61 
Q 2172 -91 1784 -91 
Q 1150 -91 751 415 
Q 353 922 353 1747 
Q 353 2572 751 3078 
Q 1150 3584 1784 3584 
Q 2172 3584 2448 3432 
Q 2725 3281 2906 2969 
z
M 947 1747 
Q 947 1113 1208 752 
Q 1469 391 1925 391 
Q 2381 391 2643 752 
Q 2906 1113 2906 1747 
Q 2906 2381 2643 2742 
Q 2381 3103 1925 3103 
Q 1469 3103 1208 2742 
Q 947 2381 947 1747 
z
" transform="scale(0.015625)"/>
      <path id="DejaVuSans-62" d="M 3116 1747 
Q 3116 2381 2855 2742 
Q 2594 3103 2138 3103 
Q 1681 3103 1420 2742 
Q 1159 2381 1159 1747 
Q 1159 1113 1420 752 
Q 1681 391 2138 391 
Q 2594 391 2855 752 
Q 3116 1113 3116 1747 
z
M 1159 2969 
Q 1341 3281 1617 3432 
Q 1894 3584 2278 3584 
Q 2916 3584 3314 3078 
Q 3713 2572 3713 1747 
Q 3713 922 3314 415 
Q 2916 -91 2278 -91 
Q 1894 -91 1617 61 
Q 1341 213 1159 525 
L 1159 0 
L 581 0 
L 581 4863 
L 1159 4863 
L 1159 2969 
z
" transform="scale(0.015625)"/>
     </defs>
     <use xlink:href="#DejaVuSans-68"/>
     <use xlink:href="#DejaVuSans-61" transform="translate(63.378906 0)"/>
     <use xlink:href="#DejaVuSans-6e" transform="translate(124.658203 0)"/>
     <use xlink:href="#DejaVuSans-64" transform="translate(188.037109 0)"/>
     <use xlink:href="#DejaVuSans-6c" transform="translate(251.513672 0)"/>
     <use xlink:href="#DejaVuSans-65" transform="translate(279.296875 0)"/>
     <use xlink:href="#DejaVuSans-62" transform="translate(340.820312 0)"/>
     <use xlink:href="#DejaVuSans-61" transform="translate(404.296875 0)"/>
     <use xlink:href="#DejaVuSans-72" transform="translate(465.576172 0)"/>
     <use xlink:href="#DejaVuSans-73" transform="translate(506.689453 0)"/>
    </g>
   </g>
   <g id="text_21">
    <!-- jangod -->
    <g style="fill: #2ca02c" transform="translate(390.9225 215.891134) scale(0.08 -0.08)">
     <use xlink:href="#DejaVuSans-6a"/>
     <use xlink:href="#DejaVuSans-61" transform="translate(27.783203 0)"/>
     <use xlink:href="#DejaVuSans-6e" transform="translate(89.0625 0)"/>
     <use xlink:href="#DejaVuSans-67" transform="translate(152.441406 0)"/>
     <use xlink:href="#DejaVuSans-6f" transform="translate(215.917969 0)"/>
     <use xlink:href="#DejaVuSans-64" transform="translate(277.099609 0)"/>
    </g>
   </g>
   <g id="text_22">
    <!-- pebble -->
    <g style="fill: #8c564b" transform="translate(390.9225 208.899021) scale(0.08 -0.08)">
     <defs>
      <path id="DejaVuSans-70" d="M 1159 525 
L 1159 -1331 
L 581 -1331 
L 581 3500 
L 1159 3500 
L 1159 2969 
Q 1341 3281 1617 3432 
Q 1894 3584 2278 3584 
Q 2916 3584 3314 3078 
Q 3713 2572 3713 1747 
Q 3713 922 3314 415 
Q 2916 -91 2278 -91 
Q 1894 -91 1617 61 
Q 1341 213 1159 525 
z
M 3116 1747 
Q 3116 2381 2855 2742 
Q 2594 3103 2138 3103 
Q 1681 3103 1420 2742 
Q 1159 2381 1159 1747 
Q 1159 1113 1420 752 
Q 1681 391 2138 391 
Q 2594 391 2855 752 
Q 3116 1113 3116 1747 
z
" transform="scale(0.015625)"/>
     </defs>
     <use xlink:href="#DejaVuSans-70"/>
     <use xlink:href="#DejaVuSans-65" transform="translate(63.476562 0)"/>
     <use xlink:href="#DejaVuSans-62" transform="translate(125 0)"/>
     <use xlink:href="#DejaVuSans-62" transform="translate(188.476562 0)"/>
     <use xlink:href="#DejaVuSans-6c" transform="translate(251.953125 0)"/>
     <use xlink:href="#DejaVuSans-65" transform="translate(279.736328 0)"/>
    </g>
   </g>
   <g id="text_23">
    <!-- jte -->
    <g style="fill: #d62728" transform="translate(390.9225 119.999306) scale(0.08 -0.08)">
     <use xlink:href="#DejaVuSans-6a"/>
     <use xlink:href="#DejaVuSans-74" transform="translate(27.783203 0)"/>
     <use xlink:href="#DejaVuSans-65" transform="translate(66.992188 0)"/>
    </g>
   </g>
   <g id="text_24">
    <!-- thymeleaf -->
    <g style="fill: #17becf" transform="translate(390.9225 60.816069) scale(0.08 -0.08)">
     <defs>
      <path id="DejaVuSans-79" d="M 2059 -325 
Q 1816 -950 1584 -1140 
Q 1353 -1331 966 -1331 
L 506 -1331 
L 506 -850 
L 844 -850 
Q 1081 -850 1212 -737 
Q 1344 -625 1503 -206 
L 1606 56 
L 191 3500 
L 800 3500 
L 1894 763 
L 2988 3500 
L 3597 3500 
L 2059 -325 
z
" transform="scale(0.015625)"/>
     </defs>
     <use xlink:href="#DejaVuSans-74"/>
     <use xlink:href="#DejaVuSans-68" transform="translate(39.208984 0)"/>
     <use xlink:href="#DejaVuSans-79" transform="translate(102.587891 0)"/>
     <use xlink:href="#DejaVuSans-6d" transform="translate(161.767578 0)"/>
     <use xlink:href="#DejaVuSans-65" transform="translate(259.179688 0)"/>
     <use xlink:href="#DejaVuSans-6c" transform="translate(320.703125 0)"/>
     <use xlink:href="#DejaVuSans-65" transform="translate(348.486328 0)"/>
     <use xlink:href="#DejaVuSans-61" transform="translate(410.009766 0)"/>
     <use xlink:href="#DejaVuSans-66" transform="translate(471.289062 0)"/>
    </g>
   </g>
   <g id="text_25">
    <!-- stringtemplate -->
    <g style="fill: #7f7f7f" transform="translate(390.9225 53.823956) scale(0.08 -0.08)">
     <use xlink:href="#DejaVuSans-73"/>
     <use xlink:href="#DejaVuSans-74" transform="translate(52.099609 0)"/>
     <use xlink:href="#DejaVuSans-72" transform="translate(91.308594 0)"/>
     <use xlink:href="#DejaVuSans-69" transform="translate(132.421875 0)"/>
     <use xlink:href="#DejaVuSans-6e" transform="translate(160.205078 0)"/>
     <use xlink:href="#DejaVuSans-67" transform="translate(223.583984 0)"/>
     <use xlink:href="#DejaVuSans-74" transform="translate(287.060547 0)"/>
     <use xlink:href="#DejaVuSans-65" transform="translate(326.269531 0)"/>
     <use xlink:href="#DejaVuSans-6d" transform="translate(387.792969 0)"/>
     <use xlink:href="#DejaVuSans-70" transform="translate(485.205078 0)"/>
     <use xlink:href="#DejaVuSans-6c" transform="translate(548.681641 0)"/>
     <use xlink:href="#DejaVuSans-61" transform="translate(576.464844 0)"/>
     <use xlink:href="#DejaVuSans-74" transform="translate(637.744141 0)"/>
     <use xlink:href="#DejaVuSans-65" transform="translate(676.953125 0)"/>
    </g>
   </g>
   <g id="text_26">
    <!-- velocity -->
    <g style="fill: #ff7f0e" transform="translate(390.9225 46.831844) scale(0.08 -0.08)">
     <defs>
      <path id="DejaVuSans-76" d="M 191 3500 
L 800 3500 
L 1894 563 
L 2988 3500 
L 3597 3500 
L 2284 0 
L 1503 0 
L 191 3500 
z
" transform="scale(0.015625)"/>
     </defs>
     <use xlink:href="#DejaVuSans-76"/>
     <use xlink:href="#DejaVuSans-65" transform="translate(59.179688 0)"/>
     <use xlink:href="#DejaVuSans-6c" transform="translate(120.703125 0)"/>
     <use xlink:href="#DejaVuSans-6f" transform="translate(148.486328 0)"/>
     <use xlink:href="#DejaVuSans-63" transform="translate(209.667969 0)"/>
     <use xlink:href="#DejaVuSans-69" transform="translate(264.648438 0)"/>
     <use xlink:href="#DejaVuSans-74" transform="translate(292.431641 0)"/>
     <use xlink:href="#DejaVuSans-79" transform="translate(331.640625 0)"/>
    </g>
   </g>
  </g>
 </g>
 <defs>
  <clipPath id="p81b620f1e0">
   <rect x="56.928125" y="10.8" width="327.994375" height="293.64375"/>
  </clipPath>
 </defs>
</svg>
