<?xml version="1.0" encoding="utf-8" standalone="no"?>
<!DOCTYPE svg PUBLIC "-//W3C//DTD SVG 1.1//EN"
  "http://www.w3.org/Graphics/SVG/1.1/DTD/svg11.dtd">
<svg xmlns:xlink="http://www.w3.org/1999/xlink" width="460.8pt" height="345.6pt" viewBox="0 0 460.8 345.6" xmlns="http://www.w3.org/2000/svg" version="1.1">
 <metadata>
  <rdf:RDF xmlns:dc="http://purl.org/dc/elements/1.1/" xmlns:cc="http://creativecommons.org/ns#" xmlns:rdf="http://www.w3.org/1999/02/22-rdf-syntax-ns#">
   <cc:Work>
    <dc:type rdf:resource="http://purl.org/dc/dcmitype/StillImage"/>
    <dc:date>2025-04-13T16:08:54.212760</dc:date>
    <dc:format>image/svg+xml</dc:format>
    <dc:creator>
     <cc:Agent>
      <dc:title>Matplotlib v3.10.1, https://matplotlib.org/</dc:title>
     </cc:Agent>
    </dc:creator>
   </cc:Work>
  </rdf:RDF>
 </metadata>
 <defs>
  <style type="text/css">*{stroke-linejoin: round; stroke-linecap: butt}</style>
 </defs>
 <g id="figure_1">
  <g id="patch_1">
   <path d="M 0 345.6 
L 460.8 345.6 
L 460.8 0 
L 0 0 
z
" style="fill: #ffffff"/>
  </g>
  <g id="axes_1">
   <g id="patch_2">
    <path d="M 50.565625 304.44375 
L 384.9225 304.44375 
L 384.9225 10.8 
L 50.565625 10.8 
z
" style="fill: #ffffff"/>
   </g>
   <g id="matplotlib.axis_1">
    <g id="xtick_1">
     <g id="line2d_1">
      <defs>
       <path id="meab147248b" d="M 0 0 
L 0 3.5 
" style="stroke: #000000; stroke-width: 0.8"/>
      </defs>
      <g>
       <use xlink:href="#meab147248b" x="65.733266" y="304.44375" style="stroke: #000000; stroke-width: 0.8"/>
      </g>
     </g>
     <g id="text_1">
      <!-- 0 -->
      <g transform="translate(62.552016 319.042187) scale(0.1 -0.1)">
       <defs>
        <path id="DejaVuSans-30" d="M 2034 4250 
Q 1547 4250 1301 3770 
Q 1056 3291 1056 2328 
Q 1056 1369 1301 889 
Q 1547 409 2034 409 
Q 2525 409 2770 889 
Q 3016 1369 3016 2328 
Q 3016 3291 2770 3770 
Q 2525 4250 2034 4250 
z
M 2034 4750 
Q 2819 4750 3233 4129 
Q 3647 3509 3647 2328 
Q 3647 1150 3233 529 
Q 2819 -91 2034 -91 
Q 1250 -91 836 529 
Q 422 1150 422 2328 
Q 422 3509 836 4129 
Q 1250 4750 2034 4750 
z
" transform="scale(0.015625)"/>
       </defs>
       <use xlink:href="#DejaVuSans-30"/>
      </g>
     </g>
    </g>
    <g id="xtick_2">
     <g id="line2d_2">
      <g>
       <use xlink:href="#meab147248b" x="126.531505" y="304.44375" style="stroke: #000000; stroke-width: 0.8"/>
      </g>
     </g>
     <g id="text_2">
      <!-- 2000 -->
      <g transform="translate(113.806505 319.042187) scale(0.1 -0.1)">
       <defs>
        <path id="DejaVuSans-32" d="M 1228 531 
L 3431 531 
L 3431 0 
L 469 0 
L 469 531 
Q 828 903 1448 1529 
Q 2069 2156 2228 2338 
Q 2531 2678 2651 2914 
Q 2772 3150 2772 3378 
Q 2772 3750 2511 3984 
Q 2250 4219 1831 4219 
Q 1534 4219 1204 4116 
Q 875 4013 500 3803 
L 500 4441 
Q 881 4594 1212 4672 
Q 1544 4750 1819 4750 
Q 2544 4750 2975 4387 
Q 3406 4025 3406 3419 
Q 3406 3131 3298 2873 
Q 3191 2616 2906 2266 
Q 2828 2175 2409 1742 
Q 1991 1309 1228 531 
z
" transform="scale(0.015625)"/>
       </defs>
       <use xlink:href="#DejaVuSans-32"/>
       <use xlink:href="#DejaVuSans-30" transform="translate(63.623047 0)"/>
       <use xlink:href="#DejaVuSans-30" transform="translate(127.246094 0)"/>
       <use xlink:href="#DejaVuSans-30" transform="translate(190.869141 0)"/>
      </g>
     </g>
    </g>
    <g id="xtick_3">
     <g id="line2d_3">
      <g>
       <use xlink:href="#meab147248b" x="187.329743" y="304.44375" style="stroke: #000000; stroke-width: 0.8"/>
      </g>
     </g>
     <g id="text_3">
      <!-- 4000 -->
      <g transform="translate(174.604743 319.042187) scale(0.1 -0.1)">
       <defs>
        <path id="DejaVuSans-34" d="M 2419 4116 
L 825 1625 
L 2419 1625 
L 2419 4116 
z
M 2253 4666 
L 3047 4666 
L 3047 1625 
L 3713 1625 
L 3713 1100 
L 3047 1100 
L 3047 0 
L 2419 0 
L 2419 1100 
L 313 1100 
L 313 1709 
L 2253 4666 
z
" transform="scale(0.015625)"/>
       </defs>
       <use xlink:href="#DejaVuSans-34"/>
       <use xlink:href="#DejaVuSans-30" transform="translate(63.623047 0)"/>
       <use xlink:href="#DejaVuSans-30" transform="translate(127.246094 0)"/>
       <use xlink:href="#DejaVuSans-30" transform="translate(190.869141 0)"/>
      </g>
     </g>
    </g>
    <g id="xtick_4">
     <g id="line2d_4">
      <g>
       <use xlink:href="#meab147248b" x="248.127982" y="304.44375" style="stroke: #000000; stroke-width: 0.8"/>
      </g>
     </g>
     <g id="text_4">
      <!-- 6000 -->
      <g transform="translate(235.402982 319.042187) scale(0.1 -0.1)">
       <defs>
        <path id="DejaVuSans-36" d="M 2113 2584 
Q 1688 2584 1439 2293 
Q 1191 2003 1191 1497 
Q 1191 994 1439 701 
Q 1688 409 2113 409 
Q 2538 409 2786 701 
Q 3034 994 3034 1497 
Q 3034 2003 2786 2293 
Q 2538 2584 2113 2584 
z
M 3366 4563 
L 3366 3988 
Q 3128 4100 2886 4159 
Q 2644 4219 2406 4219 
Q 1781 4219 1451 3797 
Q 1122 3375 1075 2522 
Q 1259 2794 1537 2939 
Q 1816 3084 2150 3084 
Q 2853 3084 3261 2657 
Q 3669 2231 3669 1497 
Q 3669 778 3244 343 
Q 2819 -91 2113 -91 
Q 1303 -91 875 529 
Q 447 1150 447 2328 
Q 447 3434 972 4092 
Q 1497 4750 2381 4750 
Q 2619 4750 2861 4703 
Q 3103 4656 3366 4563 
z
" transform="scale(0.015625)"/>
       </defs>
       <use xlink:href="#DejaVuSans-36"/>
       <use xlink:href="#DejaVuSans-30" transform="translate(63.623047 0)"/>
       <use xlink:href="#DejaVuSans-30" transform="translate(127.246094 0)"/>
       <use xlink:href="#DejaVuSans-30" transform="translate(190.869141 0)"/>
      </g>
     </g>
    </g>
    <g id="xtick_5">
     <g id="line2d_5">
      <g>
       <use xlink:href="#meab147248b" x="308.926221" y="304.44375" style="stroke: #000000; stroke-width: 0.8"/>
      </g>
     </g>
     <g id="text_5">
      <!-- 8000 -->
      <g transform="translate(296.201221 319.042187) scale(0.1 -0.1)">
       <defs>
        <path id="DejaVuSans-38" d="M 2034 2216 
Q 1584 2216 1326 1975 
Q 1069 1734 1069 1313 
Q 1069 891 1326 650 
Q 1584 409 2034 409 
Q 2484 409 2743 651 
Q 3003 894 3003 1313 
Q 3003 1734 2745 1975 
Q 2488 2216 2034 2216 
z
M 1403 2484 
Q 997 2584 770 2862 
Q 544 3141 544 3541 
Q 544 4100 942 4425 
Q 1341 4750 2034 4750 
Q 2731 4750 3128 4425 
Q 3525 4100 3525 3541 
Q 3525 3141 3298 2862 
Q 3072 2584 2669 2484 
Q 3125 2378 3379 2068 
Q 3634 1759 3634 1313 
Q 3634 634 3220 271 
Q 2806 -91 2034 -91 
Q 1263 -91 848 271 
Q 434 634 434 1313 
Q 434 1759 690 2068 
Q 947 2378 1403 2484 
z
M 1172 3481 
Q 1172 3119 1398 2916 
Q 1625 2713 2034 2713 
Q 2441 2713 2670 2916 
Q 2900 3119 2900 3481 
Q 2900 3844 2670 4047 
Q 2441 4250 2034 4250 
Q 1625 4250 1398 4047 
Q 1172 3844 1172 3481 
z
" transform="scale(0.015625)"/>
       </defs>
       <use xlink:href="#DejaVuSans-38"/>
       <use xlink:href="#DejaVuSans-30" transform="translate(63.623047 0)"/>
       <use xlink:href="#DejaVuSans-30" transform="translate(127.246094 0)"/>
       <use xlink:href="#DejaVuSans-30" transform="translate(190.869141 0)"/>
      </g>
     </g>
    </g>
    <g id="xtick_6">
     <g id="line2d_6">
      <g>
       <use xlink:href="#meab147248b" x="369.72446" y="304.44375" style="stroke: #000000; stroke-width: 0.8"/>
      </g>
     </g>
     <g id="text_6">
      <!-- 10000 -->
      <g transform="translate(353.81821 319.042187) scale(0.1 -0.1)">
       <defs>
        <path id="DejaVuSans-31" d="M 794 531 
L 1825 531 
L 1825 4091 
L 703 3866 
L 703 4441 
L 1819 4666 
L 2450 4666 
L 2450 531 
L 3481 531 
L 3481 0 
L 794 0 
L 794 531 
z
" transform="scale(0.015625)"/>
       </defs>
       <use xlink:href="#DejaVuSans-31"/>
       <use xlink:href="#DejaVuSans-30" transform="translate(63.623047 0)"/>
       <use xlink:href="#DejaVuSans-30" transform="translate(127.246094 0)"/>
       <use xlink:href="#DejaVuSans-30" transform="translate(190.869141 0)"/>
       <use xlink:href="#DejaVuSans-30" transform="translate(254.492188 0)"/>
      </g>
     </g>
    </g>
    <g id="text_7">
     <!-- n runs -->
     <g transform="translate(201.988594 332.720312) scale(0.1 -0.1)">
      <defs>
       <path id="DejaVuSans-6e" d="M 3513 2113 
L 3513 0 
L 2938 0 
L 2938 2094 
Q 2938 2591 2744 2837 
Q 2550 3084 2163 3084 
Q 1697 3084 1428 2787 
Q 1159 2491 1159 1978 
L 1159 0 
L 581 0 
L 581 3500 
L 1159 3500 
L 1159 2956 
Q 1366 3272 1645 3428 
Q 1925 3584 2291 3584 
Q 2894 3584 3203 3211 
Q 3513 2838 3513 2113 
z
" transform="scale(0.015625)"/>
       <path id="DejaVuSans-20" transform="scale(0.015625)"/>
       <path id="DejaVuSans-72" d="M 2631 2963 
Q 2534 3019 2420 3045 
Q 2306 3072 2169 3072 
Q 1681 3072 1420 2755 
Q 1159 2438 1159 1844 
L 1159 0 
L 581 0 
L 581 3500 
L 1159 3500 
L 1159 2956 
Q 1341 3275 1631 3429 
Q 1922 3584 2338 3584 
Q 2397 3584 2469 3576 
Q 2541 3569 2628 3553 
L 2631 2963 
z
" transform="scale(0.015625)"/>
       <path id="DejaVuSans-75" d="M 544 1381 
L 544 3500 
L 1119 3500 
L 1119 1403 
Q 1119 906 1312 657 
Q 1506 409 1894 409 
Q 2359 409 2629 706 
Q 2900 1003 2900 1516 
L 2900 3500 
L 3475 3500 
L 3475 0 
L 2900 0 
L 2900 538 
Q 2691 219 2414 64 
Q 2138 -91 1772 -91 
Q 1169 -91 856 284 
Q 544 659 544 1381 
z
M 1991 3584 
L 1991 3584 
z
" transform="scale(0.015625)"/>
       <path id="DejaVuSans-73" d="M 2834 3397 
L 2834 2853 
Q 2591 2978 2328 3040 
Q 2066 3103 1784 3103 
Q 1356 3103 1142 2972 
Q 928 2841 928 2578 
Q 928 2378 1081 2264 
Q 1234 2150 1697 2047 
L 1894 2003 
Q 2506 1872 2764 1633 
Q 3022 1394 3022 966 
Q 3022 478 2636 193 
Q 2250 -91 1575 -91 
Q 1294 -91 989 -36 
Q 684 19 347 128 
L 347 722 
Q 666 556 975 473 
Q 1284 391 1588 391 
Q 1994 391 2212 530 
Q 2431 669 2431 922 
Q 2431 1156 2273 1281 
Q 2116 1406 1581 1522 
L 1381 1569 
Q 847 1681 609 1914 
Q 372 2147 372 2553 
Q 372 3047 722 3315 
Q 1072 3584 1716 3584 
Q 2034 3584 2315 3537 
Q 2597 3491 2834 3397 
z
" transform="scale(0.015625)"/>
      </defs>
      <use xlink:href="#DejaVuSans-6e"/>
      <use xlink:href="#DejaVuSans-20" transform="translate(63.378906 0)"/>
      <use xlink:href="#DejaVuSans-72" transform="translate(95.166016 0)"/>
      <use xlink:href="#DejaVuSans-75" transform="translate(136.279297 0)"/>
      <use xlink:href="#DejaVuSans-6e" transform="translate(199.658203 0)"/>
      <use xlink:href="#DejaVuSans-73" transform="translate(263.037109 0)"/>
     </g>
    </g>
   </g>
   <g id="matplotlib.axis_2">
    <g id="ytick_1">
     <g id="line2d_7">
      <defs>
       <path id="md461b001a1" d="M 0 0 
L -3.5 0 
" style="stroke: #000000; stroke-width: 0.8"/>
      </defs>
      <g>
       <use xlink:href="#md461b001a1" x="50.565625" y="291.096307" style="stroke: #000000; stroke-width: 0.8"/>
      </g>
     </g>
     <g id="text_8">
      <!-- 0 -->
      <g transform="translate(37.203125 294.895526) scale(0.1 -0.1)">
       <use xlink:href="#DejaVuSans-30"/>
      </g>
     </g>
    </g>
    <g id="ytick_2">
     <g id="line2d_8">
      <g>
       <use xlink:href="#md461b001a1" x="50.565625" y="249.64462" style="stroke: #000000; stroke-width: 0.8"/>
      </g>
     </g>
     <g id="text_9">
      <!-- 100 -->
      <g transform="translate(24.478125 253.443839) scale(0.1 -0.1)">
       <use xlink:href="#DejaVuSans-31"/>
       <use xlink:href="#DejaVuSans-30" transform="translate(63.623047 0)"/>
       <use xlink:href="#DejaVuSans-30" transform="translate(127.246094 0)"/>
      </g>
     </g>
    </g>
    <g id="ytick_3">
     <g id="line2d_9">
      <g>
       <use xlink:href="#md461b001a1" x="50.565625" y="208.192933" style="stroke: #000000; stroke-width: 0.8"/>
      </g>
     </g>
     <g id="text_10">
      <!-- 200 -->
      <g transform="translate(24.478125 211.992152) scale(0.1 -0.1)">
       <use xlink:href="#DejaVuSans-32"/>
       <use xlink:href="#DejaVuSans-30" transform="translate(63.623047 0)"/>
       <use xlink:href="#DejaVuSans-30" transform="translate(127.246094 0)"/>
      </g>
     </g>
    </g>
    <g id="ytick_4">
     <g id="line2d_10">
      <g>
       <use xlink:href="#md461b001a1" x="50.565625" y="166.741246" style="stroke: #000000; stroke-width: 0.8"/>
      </g>
     </g>
     <g id="text_11">
      <!-- 300 -->
      <g transform="translate(24.478125 170.540465) scale(0.1 -0.1)">
       <defs>
        <path id="DejaVuSans-33" d="M 2597 2516 
Q 3050 2419 3304 2112 
Q 3559 1806 3559 1356 
Q 3559 666 3084 287 
Q 2609 -91 1734 -91 
Q 1441 -91 1130 -33 
Q 819 25 488 141 
L 488 750 
Q 750 597 1062 519 
Q 1375 441 1716 441 
Q 2309 441 2620 675 
Q 2931 909 2931 1356 
Q 2931 1769 2642 2001 
Q 2353 2234 1838 2234 
L 1294 2234 
L 1294 2753 
L 1863 2753 
Q 2328 2753 2575 2939 
Q 2822 3125 2822 3475 
Q 2822 3834 2567 4026 
Q 2313 4219 1838 4219 
Q 1578 4219 1281 4162 
Q 984 4106 628 3988 
L 628 4550 
Q 988 4650 1302 4700 
Q 1616 4750 1894 4750 
Q 2613 4750 3031 4423 
Q 3450 4097 3450 3541 
Q 3450 3153 3228 2886 
Q 3006 2619 2597 2516 
z
" transform="scale(0.015625)"/>
       </defs>
       <use xlink:href="#DejaVuSans-33"/>
       <use xlink:href="#DejaVuSans-30" transform="translate(63.623047 0)"/>
       <use xlink:href="#DejaVuSans-30" transform="translate(127.246094 0)"/>
      </g>
     </g>
    </g>
    <g id="ytick_5">
     <g id="line2d_11">
      <g>
       <use xlink:href="#md461b001a1" x="50.565625" y="125.289559" style="stroke: #000000; stroke-width: 0.8"/>
      </g>
     </g>
     <g id="text_12">
      <!-- 400 -->
      <g transform="translate(24.478125 129.088778) scale(0.1 -0.1)">
       <use xlink:href="#DejaVuSans-34"/>
       <use xlink:href="#DejaVuSans-30" transform="translate(63.623047 0)"/>
       <use xlink:href="#DejaVuSans-30" transform="translate(127.246094 0)"/>
      </g>
     </g>
    </g>
    <g id="ytick_6">
     <g id="line2d_12">
      <g>
       <use xlink:href="#md461b001a1" x="50.565625" y="83.837872" style="stroke: #000000; stroke-width: 0.8"/>
      </g>
     </g>
     <g id="text_13">
      <!-- 500 -->
      <g transform="translate(24.478125 87.637091) scale(0.1 -0.1)">
       <defs>
        <path id="DejaVuSans-35" d="M 691 4666 
L 3169 4666 
L 3169 4134 
L 1269 4134 
L 1269 2991 
Q 1406 3038 1543 3061 
Q 1681 3084 1819 3084 
Q 2600 3084 3056 2656 
Q 3513 2228 3513 1497 
Q 3513 744 3044 326 
Q 2575 -91 1722 -91 
Q 1428 -91 1123 -41 
Q 819 9 494 109 
L 494 744 
Q 775 591 1075 516 
Q 1375 441 1709 441 
Q 2250 441 2565 725 
Q 2881 1009 2881 1497 
Q 2881 1984 2565 2268 
Q 2250 2553 1709 2553 
Q 1456 2553 1204 2497 
Q 953 2441 691 2322 
L 691 4666 
z
" transform="scale(0.015625)"/>
       </defs>
       <use xlink:href="#DejaVuSans-35"/>
       <use xlink:href="#DejaVuSans-30" transform="translate(63.623047 0)"/>
       <use xlink:href="#DejaVuSans-30" transform="translate(127.246094 0)"/>
      </g>
     </g>
    </g>
    <g id="ytick_7">
     <g id="line2d_13">
      <g>
       <use xlink:href="#md461b001a1" x="50.565625" y="42.386185" style="stroke: #000000; stroke-width: 0.8"/>
      </g>
     </g>
     <g id="text_14">
      <!-- 600 -->
      <g transform="translate(24.478125 46.185404) scale(0.1 -0.1)">
       <use xlink:href="#DejaVuSans-36"/>
       <use xlink:href="#DejaVuSans-30" transform="translate(63.623047 0)"/>
       <use xlink:href="#DejaVuSans-30" transform="translate(127.246094 0)"/>
      </g>
     </g>
    </g>
    <g id="text_15">
     <!-- time (ms) -->
     <g transform="translate(18.398438 181.883594) rotate(-90) scale(0.1 -0.1)">
      <defs>
       <path id="DejaVuSans-74" d="M 1172 4494 
L 1172 3500 
L 2356 3500 
L 2356 3053 
L 1172 3053 
L 1172 1153 
Q 1172 725 1289 603 
Q 1406 481 1766 481 
L 2356 481 
L 2356 0 
L 1766 0 
Q 1100 0 847 248 
Q 594 497 594 1153 
L 594 3053 
L 172 3053 
L 172 3500 
L 594 3500 
L 594 4494 
L 1172 4494 
z
" transform="scale(0.015625)"/>
       <path id="DejaVuSans-69" d="M 603 3500 
L 1178 3500 
L 1178 0 
L 603 0 
L 603 3500 
z
M 603 4863 
L 1178 4863 
L 1178 4134 
L 603 4134 
L 603 4863 
z
" transform="scale(0.015625)"/>
       <path id="DejaVuSans-6d" d="M 3328 2828 
Q 3544 3216 3844 3400 
Q 4144 3584 4550 3584 
Q 5097 3584 5394 3201 
Q 5691 2819 5691 2113 
L 5691 0 
L 5113 0 
L 5113 2094 
Q 5113 2597 4934 2840 
Q 4756 3084 4391 3084 
Q 3944 3084 3684 2787 
Q 3425 2491 3425 1978 
L 3425 0 
L 2847 0 
L 2847 2094 
Q 2847 2600 2669 2842 
Q 2491 3084 2119 3084 
Q 1678 3084 1418 2786 
Q 1159 2488 1159 1978 
L 1159 0 
L 581 0 
L 581 3500 
L 1159 3500 
L 1159 2956 
Q 1356 3278 1631 3431 
Q 1906 3584 2284 3584 
Q 2666 3584 2933 3390 
Q 3200 3197 3328 2828 
z
" transform="scale(0.015625)"/>
       <path id="DejaVuSans-65" d="M 3597 1894 
L 3597 1613 
L 953 1613 
Q 991 1019 1311 708 
Q 1631 397 2203 397 
Q 2534 397 2845 478 
Q 3156 559 3463 722 
L 3463 178 
Q 3153 47 2828 -22 
Q 2503 -91 2169 -91 
Q 1331 -91 842 396 
Q 353 884 353 1716 
Q 353 2575 817 3079 
Q 1281 3584 2069 3584 
Q 2775 3584 3186 3129 
Q 3597 2675 3597 1894 
z
M 3022 2063 
Q 3016 2534 2758 2815 
Q 2500 3097 2075 3097 
Q 1594 3097 1305 2825 
Q 1016 2553 972 2059 
L 3022 2063 
z
" transform="scale(0.015625)"/>
       <path id="DejaVuSans-28" d="M 1984 4856 
Q 1566 4138 1362 3434 
Q 1159 2731 1159 2009 
Q 1159 1288 1364 580 
Q 1569 -128 1984 -844 
L 1484 -844 
Q 1016 -109 783 600 
Q 550 1309 550 2009 
Q 550 2706 781 3412 
Q 1013 4119 1484 4856 
L 1984 4856 
z
" transform="scale(0.015625)"/>
       <path id="DejaVuSans-29" d="M 513 4856 
L 1013 4856 
Q 1481 4119 1714 3412 
Q 1947 2706 1947 2009 
Q 1947 1309 1714 600 
Q 1481 -109 1013 -844 
L 513 -844 
Q 928 -128 1133 580 
Q 1338 1288 1338 2009 
Q 1338 2731 1133 3434 
Q 928 4138 513 4856 
z
" transform="scale(0.015625)"/>
      </defs>
      <use xlink:href="#DejaVuSans-74"/>
      <use xlink:href="#DejaVuSans-69" transform="translate(39.208984 0)"/>
      <use xlink:href="#DejaVuSans-6d" transform="translate(66.992188 0)"/>
      <use xlink:href="#DejaVuSans-65" transform="translate(164.404297 0)"/>
      <use xlink:href="#DejaVuSans-20" transform="translate(225.927734 0)"/>
      <use xlink:href="#DejaVuSans-28" transform="translate(257.714844 0)"/>
      <use xlink:href="#DejaVuSans-6d" transform="translate(296.728516 0)"/>
      <use xlink:href="#DejaVuSans-73" transform="translate(394.140625 0)"/>
      <use xlink:href="#DejaVuSans-29" transform="translate(446.240234 0)"/>
     </g>
    </g>
   </g>
   <g id="line2d_14">
    <path d="M 65.763665 271.614014 
L 66.037257 271.614014 
L 66.341248 270.370463 
L 66.645239 270.78498 
L 66.94923 267.054328 
L 67.253222 269.955946 
L 67.557213 269.54143 
L 67.861204 268.712396 
L 68.165195 268.712396 
L 68.469186 268.297879 
L 68.773178 268.712396 
L 71.81309 266.225295 
L 74.853001 263.738193 
L 77.892913 262.494643 
L 80.932825 260.422059 
L 83.972737 258.349474 
L 87.012649 256.691407 
L 90.052561 255.447856 
L 93.092473 254.204305 
L 96.132385 253.375272 
L 99.172297 252.960755 
L 102.212209 249.230103 
L 105.252121 251.302687 
L 108.292033 250.888171 
L 111.331945 248.401069 
L 114.371857 248.401069 
L 117.411769 239.281698 
L 120.451681 243.01235 
L 123.491593 245.499451 
L 126.531505 245.084934 
L 129.571417 244.670417 
L 132.611328 245.913968 
L 135.65124 238.867181 
L 138.691152 242.597833 
L 141.731064 244.255901 
L 144.770976 244.255901 
L 147.810888 240.939766 
L 150.8508 243.01235 
L 153.890712 243.01235 
L 156.930624 242.597833 
L 159.970536 240.110732 
L 163.010448 242.597833 
L 166.05036 242.597833 
L 169.090272 241.768799 
L 172.130184 239.281698 
L 175.170096 241.768799 
L 178.210008 242.183316 
L 181.24992 240.939766 
L 184.289832 241.354283 
L 187.329743 240.110732 
L 190.369655 233.478462 
L 193.409567 239.696215 
L 196.449479 240.110732 
L 199.489391 240.939766 
L 202.529303 235.13653 
L 205.569215 237.623631 
L 208.609127 240.110732 
L 211.649039 238.038148 
L 214.688951 240.110732 
L 217.728863 239.696215 
L 220.768775 238.867181 
L 223.808687 238.867181 
L 226.848599 235.551046 
L 229.888511 236.38008 
L 232.928423 239.281698 
L 235.968335 237.623631 
L 239.008247 238.038148 
L 242.048159 238.038148 
L 245.08807 237.209114 
L 248.127982 235.965563 
L 251.167894 238.038148 
L 254.207806 236.38008 
L 257.247718 236.38008 
L 260.28763 231.820395 
L 263.327542 235.13653 
L 266.367454 235.13653 
L 269.407366 235.551046 
L 272.447278 232.234911 
L 275.48719 234.307496 
L 278.527102 233.478462 
L 281.567014 234.722013 
L 284.606926 233.892979 
L 287.646838 232.649428 
L 290.68675 234.722013 
L 293.726662 233.892979 
L 296.766574 235.13653 
L 299.806485 234.722013 
L 302.846397 234.722013 
L 305.886309 233.892979 
L 308.926221 233.478462 
L 311.966133 233.063945 
L 315.006045 233.063945 
L 318.045957 232.649428 
L 321.085869 232.649428 
L 324.125781 232.649428 
L 327.165693 232.234911 
L 330.205605 233.478462 
L 333.245517 232.234911 
L 336.285429 230.576844 
L 339.325341 233.063945 
L 342.365253 231.405878 
L 345.405165 230.991361 
L 348.445077 230.576844 
L 351.484989 230.576844 
L 354.5249 230.162327 
L 357.564812 228.918776 
L 360.604724 230.162327 
L 363.644636 228.50426 
L 366.684548 229.74781 
L 369.72446 219.384888 
" clip-path="url(#p5a943fdb20)" style="fill: none; stroke: #1f77b4; stroke-width: 1.5; stroke-linecap: square"/>
   </g>
   <g id="line2d_15">
    <path d="M 65.763665 288.609206 
L 66.037257 287.365655 
L 66.341248 286.536621 
L 66.645239 286.122104 
L 66.94923 285.293071 
L 67.253222 284.878554 
L 67.557213 284.464037 
L 67.861204 283.635003 
L 68.165195 283.220486 
L 68.469186 281.562419 
L 68.773178 281.976936 
L 71.81309 275.759183 
L 74.853001 268.712396 
L 77.892913 264.981744 
L 80.932825 260.007542 
L 83.972737 258.763991 
L 87.012649 255.033339 
L 90.052561 251.302687 
L 93.092473 249.64462 
L 96.132385 247.572036 
L 99.172297 245.084934 
L 102.212209 238.867181 
L 105.252121 242.183316 
L 108.292033 240.525249 
L 111.331945 239.696215 
L 114.371857 231.820395 
L 117.411769 233.892979 
L 120.451681 235.13653 
L 123.491593 235.965563 
L 126.531505 234.722013 
L 129.571417 230.576844 
L 132.611328 227.260709 
L 135.65124 230.576844 
L 138.691152 227.260709 
L 141.731064 224.773608 
L 144.770976 226.431675 
L 147.810888 226.431675 
L 150.8508 217.312304 
L 153.890712 225.188125 
L 156.930624 218.141338 
L 159.970536 220.213922 
L 163.010448 215.654237 
L 166.05036 220.628439 
L 169.090272 216.068754 
L 172.130184 216.48327 
L 175.170096 214.825203 
L 178.210008 216.068754 
L 181.24992 211.509068 
L 184.289832 214.825203 
L 187.329743 211.094551 
L 190.369655 207.363899 
L 193.409567 209.851 
L 196.449479 206.534866 
L 199.489391 201.97518 
L 202.529303 207.778416 
L 205.569215 197.830011 
L 208.609127 201.560663 
L 211.649039 207.363899 
L 214.688951 199.902596 
L 217.728863 197.000978 
L 220.768775 198.244528 
L 223.808687 191.612258 
L 226.848599 188.71064 
L 229.888511 199.073562 
L 232.928423 196.586461 
L 235.968335 191.612258 
L 239.008247 193.684843 
L 242.048159 187.46709 
L 245.08807 187.881606 
L 248.127982 183.321921 
L 251.167894 188.296123 
L 254.207806 182.907404 
L 257.247718 186.223539 
L 260.28763 181.663853 
L 263.327542 177.933202 
L 266.367454 175.860617 
L 269.407366 180.005786 
L 272.447278 169.228347 
L 275.48719 180.420303 
L 278.527102 168.399314 
L 281.567014 174.617067 
L 284.606926 167.984797 
L 287.646838 168.81383 
L 290.68675 165.083179 
L 293.726662 157.621875 
L 296.766574 165.912212 
L 299.806485 157.621875 
L 302.846397 168.399314 
L 305.886309 149.746054 
L 308.926221 156.378324 
L 311.966133 151.818639 
L 315.006045 161.352527 
L 318.045957 159.694459 
L 321.085869 147.67347 
L 324.125781 147.258953 
L 327.165693 141.455717 
L 330.205605 141.870234 
L 333.245517 136.481515 
L 336.285429 126.118593 
L 339.325341 131.921829 
L 342.365253 133.579897 
L 345.405165 133.994413 
L 348.445077 122.802458 
L 351.484989 120.729874 
L 354.5249 118.657289 
L 357.564812 117.828256 
L 360.604724 118.242772 
L 363.644636 121.558907 
L 366.684548 111.610503 
L 369.72446 73.060434 
" clip-path="url(#p5a943fdb20)" style="fill: none; stroke: #ff7f0e; stroke-width: 1.5; stroke-linecap: square"/>
   </g>
   <g id="line2d_16">
    <path d="M 65.763665 284.464037 
L 66.037257 284.04952 
L 66.341248 283.220486 
L 66.645239 282.805969 
L 66.94923 282.391453 
L 67.253222 281.562419 
L 67.557213 280.318868 
L 67.861204 280.733385 
L 68.165195 279.904351 
L 68.469186 279.075318 
L 68.773178 279.075318 
L 71.81309 274.930149 
L 74.853001 271.199497 
L 77.892913 267.054328 
L 80.932825 264.567227 
L 83.972737 262.494643 
L 87.012649 259.593025 
L 90.052561 257.105924 
L 93.092473 254.618822 
L 96.132385 252.960755 
L 99.172297 249.64462 
L 102.212209 245.084934 
L 105.252121 246.328485 
L 108.292033 244.670417 
L 111.331945 241.354283 
L 114.371857 238.867181 
L 117.411769 237.623631 
L 120.451681 238.452664 
L 123.491593 234.307496 
L 126.531505 231.820395 
L 129.571417 231.820395 
L 132.611328 230.162327 
L 135.65124 226.431675 
L 138.691152 226.431675 
L 141.731064 223.944574 
L 144.770976 221.457473 
L 147.810888 219.799405 
L 150.8508 218.555855 
L 153.890712 216.897787 
L 156.930624 213.581652 
L 159.970536 212.338102 
L 163.010448 211.094551 
L 166.05036 209.851 
L 169.090272 208.60745 
L 172.130184 207.778416 
L 175.170096 201.97518 
L 178.210008 198.244528 
L 181.24992 201.97518 
L 184.289832 198.659045 
L 187.329743 196.586461 
L 190.369655 194.099359 
L 193.409567 196.171944 
L 196.449479 192.026775 
L 199.489391 190.783225 
L 202.529303 189.125157 
L 205.569215 185.394505 
L 208.609127 186.638056 
L 211.649039 182.907404 
L 214.688951 182.907404 
L 217.728863 180.83482 
L 220.768775 176.689651 
L 223.808687 179.176752 
L 226.848599 174.20255 
L 229.888511 172.958999 
L 232.928423 173.373516 
L 235.968335 171.715449 
L 239.008247 168.399314 
L 242.048159 164.668662 
L 245.08807 166.741246 
L 248.127982 163.839628 
L 251.167894 161.352527 
L 254.207806 158.865426 
L 257.247718 157.207358 
L 260.28763 153.476706 
L 263.327542 151.818639 
L 266.367454 152.233156 
L 269.407366 149.331538 
L 272.447278 149.331538 
L 275.48719 146.844436 
L 278.527102 146.015403 
L 281.567014 142.699268 
L 284.606926 141.0412 
L 287.646838 139.79765 
L 290.68675 141.870234 
L 293.726662 125.704076 
L 296.766574 136.481515 
L 299.806485 132.750863 
L 302.846397 133.994413 
L 305.886309 127.362144 
L 308.926221 128.605694 
L 311.966133 124.875042 
L 315.006045 128.605694 
L 318.045957 118.242772 
L 321.085869 119.90084 
L 324.125781 121.144391 
L 327.165693 120.315357 
L 330.205605 117.413739 
L 333.245517 119.071806 
L 336.285429 112.854053 
L 339.325341 111.195986 
L 342.365253 108.708884 
L 345.405165 106.6363 
L 348.445077 78.034636 
L 351.484989 106.6363 
L 354.5249 104.563716 
L 357.564812 102.491131 
L 360.604724 97.931446 
L 363.644636 94.615311 
L 366.684548 93.786277 
L 369.72446 84.252389 
" clip-path="url(#p5a943fdb20)" style="fill: none; stroke: #2ca02c; stroke-width: 1.5; stroke-linecap: square"/>
   </g>
   <g id="line2d_17">
    <path d="M 65.763665 51.09104 
L 66.037257 56.894276 
L 66.341248 55.650725 
L 66.645239 55.236208 
L 66.94923 53.578141 
L 67.253222 56.065242 
L 67.557213 55.650725 
L 67.861204 51.505557 
L 68.165195 55.236208 
L 68.469186 49.847489 
L 68.773178 55.650725 
L 71.81309 49.432972 
L 74.853001 56.894276 
L 77.892913 28.707129 
L 80.932825 50.262006 
L 83.972737 51.09104 
L 87.012649 44.044253 
L 90.052561 40.728118 
L 93.092473 51.09104 
L 96.132385 47.360388 
L 99.172297 47.360388 
L 102.212209 42.386185 
L 105.252121 40.728118 
L 108.292033 36.582949 
L 111.331945 46.531354 
L 114.371857 48.189422 
L 117.411769 47.774905 
L 120.451681 46.945871 
L 123.491593 49.847489 
L 126.531505 46.116837 
L 129.571417 47.360388 
L 132.611328 31.19423 
L 135.65124 49.018455 
L 138.691152 33.266814 
L 141.731064 49.432972 
L 144.770976 40.728118 
L 147.810888 48.603938 
L 150.8508 51.09104 
L 153.890712 45.287804 
L 156.930624 45.70232 
L 159.970536 49.432972 
L 163.010448 45.287804 
L 166.05036 41.971669 
L 169.090272 41.142635 
L 172.130184 46.945871 
L 175.170096 43.215219 
L 178.210008 43.215219 
L 181.24992 44.45877 
L 184.289832 41.971669 
L 187.329743 49.432972 
L 190.369655 45.287804 
L 193.409567 46.945871 
L 196.449479 49.847489 
L 199.489391 49.432972 
L 202.529303 44.044253 
L 205.569215 43.629736 
L 208.609127 33.681331 
L 211.649039 47.774905 
L 214.688951 44.45877 
L 217.728863 41.142635 
L 220.768775 44.044253 
L 223.808687 45.287804 
L 226.848599 39.899084 
L 229.888511 45.70232 
L 232.928423 47.360388 
L 235.968335 36.168432 
L 239.008247 42.800702 
L 242.048159 24.147443 
L 245.08807 36.582949 
L 248.127982 32.437781 
L 251.167894 44.044253 
L 254.207806 30.779713 
L 257.247718 39.899084 
L 260.28763 33.266814 
L 263.327542 40.728118 
L 266.367454 40.313601 
L 269.407366 36.582949 
L 272.447278 40.728118 
L 275.48719 38.655534 
L 278.527102 31.608747 
L 281.567014 35.753916 
L 284.606926 39.484567 
L 287.646838 39.07005 
L 290.68675 34.924882 
L 293.726662 45.70232 
L 296.766574 48.603938 
L 299.806485 45.287804 
L 302.846397 44.044253 
L 305.886309 29.950679 
L 308.926221 40.728118 
L 311.966133 41.142635 
L 315.006045 41.142635 
L 318.045957 47.360388 
L 321.085869 46.945871 
L 324.125781 42.386185 
L 327.165693 40.313601 
L 330.205605 41.557152 
L 333.245517 39.899084 
L 336.285429 41.142635 
L 339.325341 39.899084 
L 342.365253 42.386185 
L 345.405165 39.484567 
L 348.445077 41.557152 
L 351.484989 38.655534 
L 354.5249 38.241017 
L 357.564812 38.655534 
L 360.604724 38.655534 
L 363.644636 37.411983 
L 366.684548 38.655534 
L 369.72446 41.971669 
" clip-path="url(#p5a943fdb20)" style="fill: none; stroke: #d62728; stroke-width: 1.5; stroke-linecap: square"/>
   </g>
   <g id="line2d_18">
    <path d="M 65.763665 291.096307 
L 66.037257 290.68179 
L 66.341248 290.68179 
L 66.645239 290.68179 
L 66.94923 290.267273 
L 67.253222 290.267273 
L 67.557213 290.267273 
L 67.861204 290.68179 
L 68.165195 290.68179 
L 68.469186 290.267273 
L 68.773178 290.267273 
L 71.81309 289.438239 
L 74.853001 289.023722 
L 77.892913 288.194689 
L 80.932825 287.780172 
L 83.972737 287.365655 
L 87.012649 288.194689 
L 90.052561 288.194689 
L 93.092473 286.122104 
L 96.132385 287.365655 
L 99.172297 286.122104 
L 102.212209 286.122104 
L 105.252121 285.707588 
L 108.292033 284.878554 
L 111.331945 285.293071 
L 114.371857 286.536621 
L 117.411769 285.293071 
L 120.451681 285.293071 
L 123.491593 286.536621 
L 126.531505 286.536621 
L 129.571417 284.878554 
L 132.611328 286.951138 
L 135.65124 284.878554 
L 138.691152 285.293071 
L 141.731064 284.464037 
L 144.770976 284.878554 
L 147.810888 284.464037 
L 150.8508 285.707588 
L 153.890712 284.464037 
L 156.930624 284.464037 
L 159.970536 285.707588 
L 163.010448 285.293071 
L 166.05036 286.122104 
L 169.090272 284.04952 
L 172.130184 284.04952 
L 175.170096 284.04952 
L 178.210008 285.293071 
L 181.24992 285.293071 
L 184.289832 283.635003 
L 187.329743 285.293071 
L 190.369655 284.878554 
L 193.409567 284.878554 
L 196.449479 283.635003 
L 199.489391 283.220486 
L 202.529303 283.220486 
L 205.569215 284.464037 
L 208.609127 284.878554 
L 211.649039 284.878554 
L 214.688951 284.464037 
L 217.728863 283.220486 
L 220.768775 283.220486 
L 223.808687 284.04952 
L 226.848599 282.805969 
L 229.888511 282.805969 
L 232.928423 282.805969 
L 235.968335 283.635003 
L 239.008247 282.391453 
L 242.048159 284.04952 
L 245.08807 283.635003 
L 248.127982 282.391453 
L 251.167894 281.976936 
L 254.207806 282.391453 
L 257.247718 279.904351 
L 260.28763 281.976936 
L 263.327542 282.391453 
L 266.367454 283.220486 
L 269.407366 281.147902 
L 272.447278 281.562419 
L 275.48719 282.805969 
L 278.527102 281.976936 
L 281.567014 281.562419 
L 284.606926 281.562419 
L 287.646838 281.562419 
L 290.68675 281.976936 
L 293.726662 281.147902 
L 296.766574 283.220486 
L 299.806485 281.147902 
L 302.846397 281.147902 
L 305.886309 282.805969 
L 308.926221 281.147902 
L 311.966133 280.733385 
L 315.006045 282.391453 
L 318.045957 281.147902 
L 321.085869 280.733385 
L 324.125781 281.147902 
L 327.165693 280.733385 
L 330.205605 281.976936 
L 333.245517 280.733385 
L 336.285429 280.318868 
L 339.325341 281.976936 
L 342.365253 280.318868 
L 345.405165 281.976936 
L 348.445077 280.318868 
L 351.484989 281.562419 
L 354.5249 280.318868 
L 357.564812 280.318868 
L 360.604724 280.318868 
L 363.644636 281.147902 
L 366.684548 277.831767 
L 369.72446 279.904351 
" clip-path="url(#p5a943fdb20)" style="fill: none; stroke: #9467bd; stroke-width: 1.5; stroke-linecap: square"/>
   </g>
   <g id="line2d_19">
    <path d="M 65.763665 283.635003 
L 66.037257 283.220486 
L 66.341248 283.635003 
L 66.645239 282.391453 
L 66.94923 282.391453 
L 67.253222 282.805969 
L 67.557213 282.391453 
L 67.861204 281.976936 
L 68.165195 281.976936 
L 68.469186 281.976936 
L 68.773178 281.562419 
L 71.81309 279.489834 
L 74.853001 278.660801 
L 77.892913 277.831767 
L 80.932825 277.41725 
L 83.972737 277.002733 
L 87.012649 276.1737 
L 90.052561 274.930149 
L 93.092473 275.759183 
L 96.132385 274.930149 
L 99.172297 274.930149 
L 102.212209 274.101115 
L 105.252121 273.686598 
L 108.292033 249.64462 
L 111.331945 274.101115 
L 114.371857 274.101115 
L 117.411769 273.272081 
L 120.451681 273.272081 
L 123.491593 272.443048 
L 126.531505 272.857565 
L 129.571417 272.857565 
L 132.611328 272.857565 
L 135.65124 272.857565 
L 138.691152 273.272081 
L 141.731064 272.443048 
L 144.770976 272.443048 
L 147.810888 272.028531 
L 150.8508 269.955946 
L 153.890712 271.614014 
L 156.930624 272.028531 
L 159.970536 271.614014 
L 163.010448 271.199497 
L 166.05036 271.199497 
L 169.090272 271.614014 
L 172.130184 271.199497 
L 175.170096 270.78498 
L 178.210008 270.78498 
L 181.24992 270.78498 
L 184.289832 270.370463 
L 187.329743 271.199497 
L 190.369655 269.955946 
L 193.409567 270.370463 
L 196.449479 270.78498 
L 199.489391 270.370463 
L 202.529303 269.955946 
L 205.569215 269.54143 
L 208.609127 269.955946 
L 211.649039 269.126913 
L 214.688951 269.955946 
L 217.728863 269.955946 
L 220.768775 269.54143 
L 223.808687 269.54143 
L 226.848599 268.297879 
L 229.888511 267.468845 
L 232.928423 267.054328 
L 235.968335 267.468845 
L 239.008247 267.054328 
L 242.048159 267.054328 
L 245.08807 265.810778 
L 248.127982 267.468845 
L 251.167894 266.639812 
L 254.207806 266.225295 
L 257.247718 265.810778 
L 260.28763 266.639812 
L 263.327542 266.225295 
L 266.367454 267.054328 
L 269.407366 265.810778 
L 272.447278 265.396261 
L 275.48719 265.810778 
L 278.527102 265.396261 
L 281.567014 265.396261 
L 284.606926 265.810778 
L 287.646838 264.981744 
L 290.68675 265.396261 
L 293.726662 265.396261 
L 296.766574 265.810778 
L 299.806485 264.981744 
L 302.846397 264.567227 
L 305.886309 265.396261 
L 308.926221 264.567227 
L 311.966133 261.665609 
L 315.006045 264.567227 
L 318.045957 264.981744 
L 321.085869 264.567227 
L 324.125781 264.15271 
L 327.165693 264.567227 
L 330.205605 264.567227 
L 333.245517 256.691407 
L 336.285429 264.567227 
L 339.325341 263.323677 
L 342.365253 263.323677 
L 345.405165 263.738193 
L 348.445077 262.90916 
L 351.484989 263.323677 
L 354.5249 263.323677 
L 357.564812 262.90916 
L 360.604724 263.323677 
L 363.644636 263.323677 
L 366.684548 259.593025 
L 369.72446 259.178508 
" clip-path="url(#p5a943fdb20)" style="fill: none; stroke: #8c564b; stroke-width: 1.5; stroke-linecap: square"/>
   </g>
   <g id="line2d_20">
    <path d="M 65.763665 288.609206 
L 66.037257 288.194689 
L 66.341248 288.194689 
L 66.645239 288.194689 
L 66.94923 287.780172 
L 67.253222 287.780172 
L 67.557213 288.194689 
L 67.861204 287.780172 
L 68.165195 287.780172 
L 68.469186 287.365655 
L 68.773178 285.707588 
L 71.81309 286.951138 
L 74.853001 286.122104 
L 77.892913 286.122104 
L 80.932825 285.707588 
L 83.972737 285.707588 
L 87.012649 285.293071 
L 90.052561 284.878554 
L 93.092473 282.805969 
L 96.132385 284.464037 
L 99.172297 284.04952 
L 102.212209 283.220486 
L 105.252121 283.635003 
L 108.292033 284.04952 
L 111.331945 282.805969 
L 114.371857 282.805969 
L 117.411769 283.635003 
L 120.451681 281.562419 
L 123.491593 283.220486 
L 126.531505 283.635003 
L 129.571417 283.220486 
L 132.611328 283.220486 
L 135.65124 283.220486 
L 138.691152 282.805969 
L 141.731064 282.805969 
L 144.770976 283.220486 
L 147.810888 282.805969 
L 150.8508 282.805969 
L 153.890712 282.391453 
L 156.930624 277.41725 
L 159.970536 281.562419 
L 163.010448 282.805969 
L 166.05036 282.391453 
L 169.090272 282.391453 
L 172.130184 281.976936 
L 175.170096 281.976936 
L 178.210008 282.391453 
L 181.24992 281.976936 
L 184.289832 281.976936 
L 187.329743 281.976936 
L 190.369655 282.391453 
L 193.409567 281.976936 
L 196.449479 280.733385 
L 199.489391 281.562419 
L 202.529303 281.562419 
L 205.569215 281.562419 
L 208.609127 281.562419 
L 211.649039 281.562419 
L 214.688951 281.562419 
L 217.728863 281.562419 
L 220.768775 280.733385 
L 223.808687 281.562419 
L 226.848599 281.147902 
L 229.888511 281.147902 
L 232.928423 280.733385 
L 235.968335 280.733385 
L 239.008247 281.147902 
L 242.048159 280.318868 
L 245.08807 280.318868 
L 248.127982 280.318868 
L 251.167894 280.318868 
L 254.207806 279.904351 
L 257.247718 279.489834 
L 260.28763 280.318868 
L 263.327542 279.904351 
L 266.367454 279.904351 
L 269.407366 280.318868 
L 272.447278 279.904351 
L 275.48719 279.489834 
L 278.527102 279.904351 
L 281.567014 279.489834 
L 284.606926 279.075318 
L 287.646838 279.904351 
L 290.68675 279.075318 
L 293.726662 279.489834 
L 296.766574 279.904351 
L 299.806485 279.489834 
L 302.846397 279.075318 
L 305.886309 279.075318 
L 308.926221 279.075318 
L 311.966133 279.075318 
L 315.006045 279.075318 
L 318.045957 279.075318 
L 321.085869 279.075318 
L 324.125781 279.075318 
L 327.165693 278.246284 
L 330.205605 279.075318 
L 333.245517 278.660801 
L 336.285429 278.660801 
L 339.325341 278.246284 
L 342.365253 278.660801 
L 345.405165 278.660801 
L 348.445077 278.246284 
L 351.484989 278.246284 
L 354.5249 278.246284 
L 357.564812 278.246284 
L 360.604724 278.246284 
L 363.644636 277.831767 
L 366.684548 278.246284 
L 369.72446 276.1737 
" clip-path="url(#p5a943fdb20)" style="fill: none; stroke: #e377c2; stroke-width: 1.5; stroke-linecap: square"/>
   </g>
   <g id="line2d_21">
    <path d="M 65.763665 261.665609 
L 66.037257 260.007542 
L 66.341248 257.934957 
L 66.645239 256.27689 
L 66.94923 255.033339 
L 67.253222 252.960755 
L 67.557213 252.131721 
L 67.861204 251.302687 
L 68.165195 250.473654 
L 68.469186 247.986552 
L 68.773178 245.913968 
L 71.81309 237.209114 
L 74.853001 233.063945 
L 77.892913 226.017158 
L 80.932825 220.628439 
L 83.972737 216.48327 
L 87.012649 209.436484 
L 90.052561 200.317113 
L 93.092473 202.389697 
L 96.132385 194.513876 
L 99.172297 191.197741 
L 102.212209 188.71064 
L 105.252121 188.71064 
L 108.292033 176.689651 
L 111.331945 167.984797 
L 114.371857 175.031583 
L 117.411769 167.57028 
L 120.451681 178.347718 
L 123.491593 172.544482 
L 126.531505 174.617067 
L 129.571417 170.886415 
L 132.611328 170.886415 
L 135.65124 159.279942 
L 138.691152 167.57028 
L 141.731064 168.399314 
L 144.770976 164.668662 
L 147.810888 164.254145 
L 150.8508 159.279942 
L 153.890712 160.523493 
L 156.930624 156.792841 
L 159.970536 157.621875 
L 163.010448 158.036392 
L 166.05036 148.502504 
L 169.090272 147.258953 
L 172.130184 148.917021 
L 175.170096 150.160571 
L 178.210008 149.331538 
L 181.24992 150.160571 
L 184.289832 142.699268 
L 187.329743 132.750863 
L 190.369655 139.383133 
L 193.409567 139.79765 
L 196.449479 131.507312 
L 199.489391 135.652481 
L 202.529303 133.579897 
L 205.569215 131.092795 
L 208.609127 132.336346 
L 211.649039 132.336346 
L 214.688951 130.678279 
L 217.728863 126.118593 
L 220.768775 128.191177 
L 223.808687 121.973424 
L 226.848599 124.875042 
L 229.888511 121.973424 
L 232.928423 123.631492 
L 235.968335 116.170188 
L 239.008247 117.413739 
L 242.048159 115.341154 
L 245.08807 112.025019 
L 248.127982 110.366952 
L 251.167894 98.76048 
L 254.207806 108.294368 
L 257.247718 104.149199 
L 260.28763 109.123401 
L 263.327542 100.833064 
L 266.367454 87.983041 
L 269.407366 95.444345 
L 272.447278 87.568524 
L 275.48719 95.858862 
L 278.527102 99.174996 
L 281.567014 92.542727 
L 284.606926 90.884659 
L 287.646838 85.910457 
L 290.68675 81.765288 
L 293.726662 92.957243 
L 296.766574 85.49594 
L 299.806485 86.73949 
L 302.846397 86.73949 
L 305.886309 85.49594 
L 308.926221 83.423355 
L 311.966133 83.837872 
L 315.006045 80.521737 
L 318.045957 80.936254 
L 321.085869 78.86367 
L 324.125781 83.008839 
L 327.165693 70.987849 
L 330.205605 61.868478 
L 333.245517 65.184613 
L 336.285429 74.718501 
L 339.325341 68.915265 
L 342.365253 64.355579 
L 345.405165 62.697512 
L 348.445077 65.59913 
L 351.484989 63.941063 
L 354.5249 52.749107 
L 357.564812 62.697512 
L 360.604724 60.210411 
L 363.644636 58.552343 
L 366.684548 65.184613 
L 369.72446 34.095848 
" clip-path="url(#p5a943fdb20)" style="fill: none; stroke: #7f7f7f; stroke-width: 1.5; stroke-linecap: square"/>
   </g>
   <g id="line2d_22">
    <path d="M 65.763665 287.780172 
L 66.037257 286.536621 
L 66.341248 285.707588 
L 66.645239 285.293071 
L 66.94923 284.04952 
L 67.253222 283.635003 
L 67.557213 283.220486 
L 67.861204 282.391453 
L 68.165195 283.220486 
L 68.469186 282.391453 
L 68.773178 279.075318 
L 71.81309 279.075318 
L 74.853001 277.41725 
L 77.892913 274.101115 
L 80.932825 271.199497 
L 83.972737 270.370463 
L 87.012649 270.78498 
L 90.052561 269.54143 
L 93.092473 267.468845 
L 96.132385 265.810778 
L 99.172297 263.738193 
L 102.212209 265.396261 
L 105.252121 263.738193 
L 108.292033 261.251092 
L 111.331945 263.323677 
L 114.371857 260.422059 
L 117.411769 257.934957 
L 120.451681 256.691407 
L 123.491593 262.080126 
L 126.531505 260.836575 
L 129.571417 260.422059 
L 132.611328 260.422059 
L 135.65124 260.422059 
L 138.691152 258.349474 
L 141.731064 245.913968 
L 144.770976 256.27689 
L 147.810888 258.349474 
L 150.8508 257.105924 
L 153.890712 253.789789 
L 156.930624 255.447856 
L 159.970536 255.033339 
L 163.010448 255.033339 
L 166.05036 255.033339 
L 169.090272 254.204305 
L 172.130184 254.204305 
L 175.170096 254.618822 
L 178.210008 254.204305 
L 181.24992 253.375272 
L 184.289832 252.546238 
L 187.329743 251.717204 
L 190.369655 252.960755 
L 193.409567 252.960755 
L 196.449479 252.960755 
L 199.489391 247.157519 
L 202.529303 251.717204 
L 205.569215 250.888171 
L 208.609127 251.717204 
L 211.649039 251.302687 
L 214.688951 223.944574 
L 217.728863 248.401069 
L 220.768775 250.473654 
L 223.808687 243.01235 
L 226.848599 247.572036 
L 229.888511 247.157519 
L 232.928423 247.572036 
L 235.968335 245.913968 
L 239.008247 247.986552 
L 242.048159 241.768799 
L 245.08807 243.01235 
L 248.127982 243.426867 
L 251.167894 247.157519 
L 254.207806 244.670417 
L 257.247718 244.255901 
L 260.28763 244.255901 
L 263.327542 239.281698 
L 266.367454 243.01235 
L 269.407366 242.183316 
L 272.447278 242.597833 
L 275.48719 243.01235 
L 278.527102 243.01235 
L 281.567014 240.939766 
L 284.606926 242.597833 
L 287.646838 241.354283 
L 290.68675 209.851 
L 293.726662 228.089743 
L 296.766574 242.183316 
L 299.806485 239.281698 
L 302.846397 239.281698 
L 305.886309 238.038148 
L 308.926221 237.623631 
L 311.966133 240.110732 
L 315.006045 236.794597 
L 318.045957 238.038148 
L 321.085869 240.939766 
L 324.125781 226.846192 
L 327.165693 238.038148 
L 330.205605 236.38008 
L 333.245517 235.13653 
L 336.285429 234.722013 
L 339.325341 233.892979 
L 342.365253 234.722013 
L 345.405165 235.965563 
L 348.445077 235.965563 
L 351.484989 235.551046 
L 354.5249 236.38008 
L 357.564812 232.649428 
L 360.604724 229.333293 
L 363.644636 231.820395 
L 366.684548 233.478462 
L 369.72446 228.918776 
" clip-path="url(#p5a943fdb20)" style="fill: none; stroke: #bcbd22; stroke-width: 1.5; stroke-linecap: square"/>
   </g>
   <g id="line2d_23">
    <path d="M 65.763665 202.389697 
L 66.037257 204.047764 
L 66.341248 203.218731 
L 66.645239 201.146146 
L 66.94923 201.146146 
L 67.253222 201.560663 
L 67.557213 197.415494 
L 67.861204 197.830011 
L 68.165195 199.073562 
L 68.469186 194.928393 
L 68.773178 193.684843 
L 71.81309 193.684843 
L 74.853001 189.954191 
L 77.892913 183.321921 
L 80.932825 180.83482 
L 83.972737 173.788033 
L 87.012649 172.129965 
L 90.052561 168.399314 
L 93.092473 169.228347 
L 96.132385 164.254145 
L 99.172297 160.523493 
L 102.212209 160.523493 
L 105.252121 159.279942 
L 108.292033 159.694459 
L 111.331945 153.476706 
L 114.371857 129.849245 
L 117.411769 153.062189 
L 120.451681 141.0412 
L 123.491593 142.284751 
L 126.531505 150.575088 
L 129.571417 149.746054 
L 132.611328 150.160571 
L 135.65124 146.844436 
L 138.691152 146.844436 
L 141.731064 146.844436 
L 144.770976 147.67347 
L 147.810888 149.331538 
L 150.8508 148.087987 
L 153.890712 143.528301 
L 156.930624 145.186369 
L 159.970536 141.455717 
L 163.010448 143.942818 
L 166.05036 142.699268 
L 169.090272 141.0412 
L 172.130184 141.455717 
L 175.170096 142.699268 
L 178.210008 137.725065 
L 181.24992 142.699268 
L 184.289832 140.212167 
L 187.329743 139.383133 
L 190.369655 137.725065 
L 193.409567 139.383133 
L 196.449479 137.725065 
L 199.489391 139.79765 
L 202.529303 124.046009 
L 205.569215 138.139582 
L 208.609127 138.554099 
L 211.649039 140.212167 
L 214.688951 133.994413 
L 217.728863 136.066998 
L 220.768775 132.336346 
L 223.808687 134.823447 
L 226.848599 131.507312 
L 229.888511 135.652481 
L 232.928423 131.092795 
L 235.968335 131.921829 
L 239.008247 127.77666 
L 242.048159 127.362144 
L 245.08807 129.849245 
L 248.127982 121.558907 
L 251.167894 122.802458 
L 254.207806 119.90084 
L 257.247718 120.729874 
L 260.28763 129.849245 
L 263.327542 124.875042 
L 266.367454 123.216975 
L 269.407366 126.118593 
L 272.447278 124.875042 
L 275.48719 124.046009 
L 278.527102 119.071806 
L 281.567014 126.118593 
L 284.606926 119.90084 
L 287.646838 124.046009 
L 290.68675 119.90084 
L 293.726662 123.631492 
L 296.766574 126.53311 
L 299.806485 124.875042 
L 302.846397 124.875042 
L 305.886309 124.460525 
L 308.926221 121.973424 
L 311.966133 117.828256 
L 315.006045 119.486323 
L 318.045957 121.558907 
L 321.085869 120.315357 
L 324.125781 115.755671 
L 327.165693 119.486323 
L 330.205605 113.26857 
L 333.245517 119.071806 
L 336.285429 112.025019 
L 339.325341 119.071806 
L 342.365253 119.486323 
L 345.405165 119.90084 
L 348.445077 117.828256 
L 351.484989 114.926637 
L 354.5249 116.170188 
L 357.564812 113.683087 
L 360.604724 116.999222 
L 363.644636 118.242772 
L 366.684548 100.418547 
L 369.72446 108.708884 
" clip-path="url(#p5a943fdb20)" style="fill: none; stroke: #17becf; stroke-width: 1.5; stroke-linecap: square"/>
   </g>
   <g id="line2d_24">
    <path d="M 65.763665 290.267273 
L 66.037257 290.267273 
L 66.341248 290.267273 
L 66.645239 290.267273 
L 66.94923 290.267273 
L 67.253222 290.267273 
L 67.557213 290.267273 
L 67.861204 289.852756 
L 68.165195 289.023722 
L 68.469186 289.852756 
L 68.773178 289.852756 
L 71.81309 289.438239 
L 74.853001 289.023722 
L 77.892913 288.194689 
L 80.932825 288.194689 
L 83.972737 287.780172 
L 87.012649 287.365655 
L 90.052561 287.365655 
L 93.092473 286.951138 
L 96.132385 286.951138 
L 99.172297 286.536621 
L 102.212209 286.951138 
L 105.252121 285.707588 
L 108.292033 286.536621 
L 111.331945 286.122104 
L 114.371857 285.707588 
L 117.411769 283.220486 
L 120.451681 285.293071 
L 123.491593 285.707588 
L 126.531505 285.293071 
L 129.571417 285.293071 
L 132.611328 284.878554 
L 135.65124 285.293071 
L 138.691152 284.878554 
L 141.731064 284.878554 
L 144.770976 285.707588 
L 147.810888 284.878554 
L 150.8508 284.878554 
L 153.890712 284.878554 
L 156.930624 284.878554 
L 159.970536 284.464037 
L 163.010448 284.878554 
L 166.05036 284.464037 
L 169.090272 284.464037 
L 172.130184 284.464037 
L 175.170096 284.04952 
L 178.210008 284.464037 
L 181.24992 284.464037 
L 184.289832 284.464037 
L 187.329743 284.04952 
L 190.369655 284.464037 
L 193.409567 284.04952 
L 196.449479 284.04952 
L 199.489391 284.04952 
L 202.529303 283.635003 
L 205.569215 283.635003 
L 208.609127 283.635003 
L 211.649039 283.635003 
L 214.688951 284.04952 
L 217.728863 283.220486 
L 220.768775 283.635003 
L 223.808687 283.635003 
L 226.848599 283.635003 
L 229.888511 283.220486 
L 232.928423 283.220486 
L 235.968335 282.391453 
L 239.008247 282.805969 
L 242.048159 282.805969 
L 245.08807 282.391453 
L 248.127982 281.562419 
L 251.167894 282.391453 
L 254.207806 282.805969 
L 257.247718 282.391453 
L 260.28763 282.805969 
L 263.327542 277.831767 
L 266.367454 281.976936 
L 269.407366 282.391453 
L 272.447278 282.391453 
L 275.48719 282.391453 
L 278.527102 282.391453 
L 281.567014 282.391453 
L 284.606926 281.976936 
L 287.646838 281.562419 
L 290.68675 281.976936 
L 293.726662 282.391453 
L 296.766574 281.976936 
L 299.806485 281.562419 
L 302.846397 281.147902 
L 305.886309 281.147902 
L 308.926221 281.562419 
L 311.966133 281.147902 
L 315.006045 281.147902 
L 318.045957 281.147902 
L 321.085869 281.147902 
L 324.125781 281.147902 
L 327.165693 281.147902 
L 330.205605 281.147902 
L 333.245517 281.147902 
L 336.285429 281.147902 
L 339.325341 280.733385 
L 342.365253 280.733385 
L 345.405165 279.489834 
L 348.445077 280.318868 
L 351.484989 281.147902 
L 354.5249 280.733385 
L 357.564812 280.733385 
L 360.604724 280.733385 
L 363.644636 280.318868 
L 366.684548 280.318868 
L 369.72446 279.904351 
" clip-path="url(#p5a943fdb20)" style="fill: none; stroke: #1f77b4; stroke-width: 1.5; stroke-linecap: square"/>
   </g>
   <g id="line2d_25">
    <path d="M 65.763665 288.194689 
L 66.037257 286.536621 
L 66.341248 283.635003 
L 66.645239 282.391453 
L 66.94923 280.733385 
L 67.253222 279.489834 
L 67.557213 277.831767 
L 67.861204 277.002733 
L 68.165195 275.759183 
L 68.469186 274.101115 
L 68.773178 272.443048 
L 71.81309 259.593025 
L 74.853001 255.033339 
L 77.892913 247.572036 
L 80.932825 245.084934 
L 83.972737 239.281698 
L 87.012649 232.649428 
L 90.052561 232.649428 
L 93.092473 230.162327 
L 96.132385 193.684843 
L 99.172297 223.944574 
L 102.212209 220.213922 
L 105.252121 215.654237 
L 108.292033 201.560663 
L 111.331945 205.291315 
L 114.371857 172.129965 
L 117.411769 208.60745 
L 120.451681 205.291315 
L 123.491593 198.244528 
L 126.531505 161.767044 
L 129.571417 199.488079 
L 132.611328 195.34291 
L 135.65124 194.513876 
L 138.691152 195.34291 
L 141.731064 192.026775 
L 144.770976 193.270326 
L 147.810888 188.296123 
L 150.8508 180.83482 
L 153.890712 183.736438 
L 156.930624 187.052573 
L 159.970536 185.394505 
L 163.010448 184.150955 
L 166.05036 169.228347 
L 169.090272 179.176752 
L 172.130184 177.518685 
L 175.170096 175.031583 
L 178.210008 173.373516 
L 181.24992 171.300932 
L 184.289832 171.300932 
L 187.329743 169.642864 
L 190.369655 169.642864 
L 193.409567 168.399314 
L 196.449479 164.254145 
L 199.489391 159.279942 
L 202.529303 162.181561 
L 205.569215 157.621875 
L 208.609127 160.93801 
L 211.649039 150.575088 
L 214.688951 157.207358 
L 217.728863 153.062189 
L 220.768775 152.647673 
L 223.808687 154.30574 
L 226.848599 150.575088 
L 229.888511 147.67347 
L 232.928423 144.771852 
L 235.968335 133.579897 
L 239.008247 143.113785 
L 242.048159 141.870234 
L 245.08807 136.066998 
L 248.127982 136.066998 
L 251.167894 135.652481 
L 254.207806 134.823447 
L 257.247718 137.310548 
L 260.28763 124.875042 
L 263.327542 127.77666 
L 266.367454 131.507312 
L 269.407366 123.216975 
L 272.447278 124.460525 
L 275.48719 124.460525 
L 278.527102 124.046009 
L 281.567014 119.071806 
L 284.606926 116.170188 
L 287.646838 119.90084 
L 290.68675 117.413739 
L 293.726662 121.973424 
L 296.766574 117.413739 
L 299.806485 113.683087 
L 302.846397 112.439536 
L 305.886309 89.641108 
L 308.926221 114.926637 
L 311.966133 108.708884 
L 315.006045 112.439536 
L 318.045957 110.366952 
L 321.085869 97.516929 
L 324.125781 103.320165 
L 327.165693 105.39275 
L 330.205605 107.879851 
L 333.245517 90.884659 
L 336.285429 38.655534 
L 339.325341 97.102412 
L 342.365253 96.687895 
L 345.405165 93.786277 
L 348.445077 92.542727 
L 351.484989 90.055625 
L 354.5249 97.931446 
L 357.564812 85.081423 
L 360.604724 93.786277 
L 363.644636 87.983041 
L 366.684548 77.620119 
L 369.72446 58.137826 
" clip-path="url(#p5a943fdb20)" style="fill: none; stroke: #ff7f0e; stroke-width: 1.5; stroke-linecap: square"/>
   </g>
   <g id="patch_3">
    <path d="M 50.565625 304.44375 
L 50.565625 10.8 
" style="fill: none; stroke: #000000; stroke-width: 0.8; stroke-linejoin: miter; stroke-linecap: square"/>
   </g>
   <g id="patch_4">
    <path d="M 384.9225 304.44375 
L 384.9225 10.8 
" style="fill: none; stroke: #000000; stroke-width: 0.8; stroke-linejoin: miter; stroke-linecap: square"/>
   </g>
   <g id="patch_5">
    <path d="M 50.565625 304.44375 
L 384.9225 304.44375 
" style="fill: none; stroke: #000000; stroke-width: 0.8; stroke-linejoin: miter; stroke-linecap: square"/>
   </g>
   <g id="patch_6">
    <path d="M 50.565625 10.8 
L 384.9225 10.8 
" style="fill: none; stroke: #000000; stroke-width: 0.8; stroke-linejoin: miter; stroke-linecap: square"/>
   </g>
   <g id="text_16">
    <!-- mustachej -->
    <g style="fill: #9467bd" transform="translate(390.9225 289.573155) scale(0.08 -0.08)">
     <defs>
      <path id="DejaVuSans-61" d="M 2194 1759 
Q 1497 1759 1228 1600 
Q 959 1441 959 1056 
Q 959 750 1161 570 
Q 1363 391 1709 391 
Q 2188 391 2477 730 
Q 2766 1069 2766 1631 
L 2766 1759 
L 2194 1759 
z
M 3341 1997 
L 3341 0 
L 2766 0 
L 2766 531 
Q 2569 213 2275 61 
Q 1981 -91 1556 -91 
Q 1019 -91 701 211 
Q 384 513 384 1019 
Q 384 1609 779 1909 
Q 1175 2209 1959 2209 
L 2766 2209 
L 2766 2266 
Q 2766 2663 2505 2880 
Q 2244 3097 1772 3097 
Q 1472 3097 1187 3025 
Q 903 2953 641 2809 
L 641 3341 
Q 956 3463 1253 3523 
Q 1550 3584 1831 3584 
Q 2591 3584 2966 3190 
Q 3341 2797 3341 1997 
z
" transform="scale(0.015625)"/>
      <path id="DejaVuSans-63" d="M 3122 3366 
L 3122 2828 
Q 2878 2963 2633 3030 
Q 2388 3097 2138 3097 
Q 1578 3097 1268 2742 
Q 959 2388 959 1747 
Q 959 1106 1268 751 
Q 1578 397 2138 397 
Q 2388 397 2633 464 
Q 2878 531 3122 666 
L 3122 134 
Q 2881 22 2623 -34 
Q 2366 -91 2075 -91 
Q 1284 -91 818 406 
Q 353 903 353 1747 
Q 353 2603 823 3093 
Q 1294 3584 2113 3584 
Q 2378 3584 2631 3529 
Q 2884 3475 3122 3366 
z
" transform="scale(0.015625)"/>
      <path id="DejaVuSans-68" d="M 3513 2113 
L 3513 0 
L 2938 0 
L 2938 2094 
Q 2938 2591 2744 2837 
Q 2550 3084 2163 3084 
Q 1697 3084 1428 2787 
Q 1159 2491 1159 1978 
L 1159 0 
L 581 0 
L 581 4863 
L 1159 4863 
L 1159 2956 
Q 1366 3272 1645 3428 
Q 1925 3584 2291 3584 
Q 2894 3584 3203 3211 
Q 3513 2838 3513 2113 
z
" transform="scale(0.015625)"/>
      <path id="DejaVuSans-6a" d="M 603 3500 
L 1178 3500 
L 1178 -63 
Q 1178 -731 923 -1031 
Q 669 -1331 103 -1331 
L -116 -1331 
L -116 -844 
L 38 -844 
Q 366 -844 484 -692 
Q 603 -541 603 -63 
L 603 3500 
z
M 603 4863 
L 1178 4863 
L 1178 4134 
L 603 4134 
L 603 4863 
z
" transform="scale(0.015625)"/>
     </defs>
     <use xlink:href="#DejaVuSans-6d"/>
     <use xlink:href="#DejaVuSans-75" transform="translate(97.412109 0)"/>
     <use xlink:href="#DejaVuSans-73" transform="translate(160.791016 0)"/>
     <use xlink:href="#DejaVuSans-74" transform="translate(212.890625 0)"/>
     <use xlink:href="#DejaVuSans-61" transform="translate(252.099609 0)"/>
     <use xlink:href="#DejaVuSans-63" transform="translate(313.378906 0)"/>
     <use xlink:href="#DejaVuSans-68" transform="translate(368.359375 0)"/>
     <use xlink:href="#DejaVuSans-65" transform="translate(431.738281 0)"/>
     <use xlink:href="#DejaVuSans-6a" transform="translate(493.261719 0)"/>
    </g>
   </g>
   <g id="text_17">
    <!-- trimou -->
    <g style="fill: #1f77b4" transform="translate(390.9225 282.111851) scale(0.08 -0.08)">
     <defs>
      <path id="DejaVuSans-6f" d="M 1959 3097 
Q 1497 3097 1228 2736 
Q 959 2375 959 1747 
Q 959 1119 1226 758 
Q 1494 397 1959 397 
Q 2419 397 2687 759 
Q 2956 1122 2956 1747 
Q 2956 2369 2687 2733 
Q 2419 3097 1959 3097 
z
M 1959 3584 
Q 2709 3584 3137 3096 
Q 3566 2609 3566 1747 
Q 3566 888 3137 398 
Q 2709 -91 1959 -91 
Q 1206 -91 779 398 
Q 353 888 353 1747 
Q 353 2609 779 3096 
Q 1206 3584 1959 3584 
z
" transform="scale(0.015625)"/>
     </defs>
     <use xlink:href="#DejaVuSans-74"/>
     <use xlink:href="#DejaVuSans-72" transform="translate(39.208984 0)"/>
     <use xlink:href="#DejaVuSans-69" transform="translate(80.322266 0)"/>
     <use xlink:href="#DejaVuSans-6d" transform="translate(108.105469 0)"/>
     <use xlink:href="#DejaVuSans-6f" transform="translate(205.517578 0)"/>
     <use xlink:href="#DejaVuSans-75" transform="translate(266.699219 0)"/>
    </g>
   </g>
   <g id="text_18">
    <!-- solomon -->
    <g style="fill: #e377c2" transform="translate(390.9225 274.650548) scale(0.08 -0.08)">
     <defs>
      <path id="DejaVuSans-6c" d="M 603 4863 
L 1178 4863 
L 1178 0 
L 603 0 
L 603 4863 
z
" transform="scale(0.015625)"/>
     </defs>
     <use xlink:href="#DejaVuSans-73"/>
     <use xlink:href="#DejaVuSans-6f" transform="translate(52.099609 0)"/>
     <use xlink:href="#DejaVuSans-6c" transform="translate(113.28125 0)"/>
     <use xlink:href="#DejaVuSans-6f" transform="translate(141.064453 0)"/>
     <use xlink:href="#DejaVuSans-6d" transform="translate(202.246094 0)"/>
     <use xlink:href="#DejaVuSans-6f" transform="translate(299.658203 0)"/>
     <use xlink:href="#DejaVuSans-6e" transform="translate(360.839844 0)"/>
    </g>
   </g>
   <g id="text_19">
    <!-- pebble -->
    <g style="fill: #8c564b" transform="translate(390.9225 261.386008) scale(0.08 -0.08)">
     <defs>
      <path id="DejaVuSans-70" d="M 1159 525 
L 1159 -1331 
L 581 -1331 
L 581 3500 
L 1159 3500 
L 1159 2969 
Q 1341 3281 1617 3432 
Q 1894 3584 2278 3584 
Q 2916 3584 3314 3078 
Q 3713 2572 3713 1747 
Q 3713 922 3314 415 
Q 2916 -91 2278 -91 
Q 1894 -91 1617 61 
Q 1341 213 1159 525 
z
M 3116 1747 
Q 3116 2381 2855 2742 
Q 2594 3103 2138 3103 
Q 1681 3103 1420 2742 
Q 1159 2381 1159 1747 
Q 1159 1113 1420 752 
Q 1681 391 2138 391 
Q 2594 391 2855 752 
Q 3116 1113 3116 1747 
z
" transform="scale(0.015625)"/>
      <path id="DejaVuSans-62" d="M 3116 1747 
Q 3116 2381 2855 2742 
Q 2594 3103 2138 3103 
Q 1681 3103 1420 2742 
Q 1159 2381 1159 1747 
Q 1159 1113 1420 752 
Q 1681 391 2138 391 
Q 2594 391 2855 752 
Q 3116 1113 3116 1747 
z
M 1159 2969 
Q 1341 3281 1617 3432 
Q 1894 3584 2278 3584 
Q 2916 3584 3314 3078 
Q 3713 2572 3713 1747 
Q 3713 922 3314 415 
Q 2916 -91 2278 -91 
Q 1894 -91 1617 61 
Q 1341 213 1159 525 
L 1159 0 
L 581 0 
L 581 4863 
L 1159 4863 
L 1159 2969 
z
" transform="scale(0.015625)"/>
     </defs>
     <use xlink:href="#DejaVuSans-70"/>
     <use xlink:href="#DejaVuSans-65" transform="translate(63.476562 0)"/>
     <use xlink:href="#DejaVuSans-62" transform="translate(125 0)"/>
     <use xlink:href="#DejaVuSans-62" transform="translate(188.476562 0)"/>
     <use xlink:href="#DejaVuSans-6c" transform="translate(251.953125 0)"/>
     <use xlink:href="#DejaVuSans-65" transform="translate(279.736328 0)"/>
    </g>
   </g>
   <g id="text_20">
    <!-- stringtree -->
    <g style="fill: #bcbd22" transform="translate(390.9225 231.126276) scale(0.08 -0.08)">
     <defs>
      <path id="DejaVuSans-67" d="M 2906 1791 
Q 2906 2416 2648 2759 
Q 2391 3103 1925 3103 
Q 1463 3103 1205 2759 
Q 947 2416 947 1791 
Q 947 1169 1205 825 
Q 1463 481 1925 481 
Q 2391 481 2648 825 
Q 2906 1169 2906 1791 
z
M 3481 434 
Q 3481 -459 3084 -895 
Q 2688 -1331 1869 -1331 
Q 1566 -1331 1297 -1286 
Q 1028 -1241 775 -1147 
L 775 -588 
Q 1028 -725 1275 -790 
Q 1522 -856 1778 -856 
Q 2344 -856 2625 -561 
Q 2906 -266 2906 331 
L 2906 616 
Q 2728 306 2450 153 
Q 2172 0 1784 0 
Q 1141 0 747 490 
Q 353 981 353 1791 
Q 353 2603 747 3093 
Q 1141 3584 1784 3584 
Q 2172 3584 2450 3431 
Q 2728 3278 2906 2969 
L 2906 3500 
L 3481 3500 
L 3481 434 
z
" transform="scale(0.015625)"/>
     </defs>
     <use xlink:href="#DejaVuSans-73"/>
     <use xlink:href="#DejaVuSans-74" transform="translate(52.099609 0)"/>
     <use xlink:href="#DejaVuSans-72" transform="translate(91.308594 0)"/>
     <use xlink:href="#DejaVuSans-69" transform="translate(132.421875 0)"/>
     <use xlink:href="#DejaVuSans-6e" transform="translate(160.205078 0)"/>
     <use xlink:href="#DejaVuSans-67" transform="translate(223.583984 0)"/>
     <use xlink:href="#DejaVuSans-74" transform="translate(287.060547 0)"/>
     <use xlink:href="#DejaVuSans-72" transform="translate(326.269531 0)"/>
     <use xlink:href="#DejaVuSans-65" transform="translate(365.132812 0)"/>
     <use xlink:href="#DejaVuSans-65" transform="translate(426.65625 0)"/>
    </g>
   </g>
   <g id="text_21">
    <!-- freemarker -->
    <g style="fill: #1f77b4" transform="translate(390.9225 221.592388) scale(0.08 -0.08)">
     <defs>
      <path id="DejaVuSans-66" d="M 2375 4863 
L 2375 4384 
L 1825 4384 
Q 1516 4384 1395 4259 
Q 1275 4134 1275 3809 
L 1275 3500 
L 2222 3500 
L 2222 3053 
L 1275 3053 
L 1275 0 
L 697 0 
L 697 3053 
L 147 3053 
L 147 3500 
L 697 3500 
L 697 3744 
Q 697 4328 969 4595 
Q 1241 4863 1831 4863 
L 2375 4863 
z
" transform="scale(0.015625)"/>
      <path id="DejaVuSans-6b" d="M 581 4863 
L 1159 4863 
L 1159 1991 
L 2875 3500 
L 3609 3500 
L 1753 1863 
L 3688 0 
L 2938 0 
L 1159 1709 
L 1159 0 
L 581 0 
L 581 4863 
z
" transform="scale(0.015625)"/>
     </defs>
     <use xlink:href="#DejaVuSans-66"/>
     <use xlink:href="#DejaVuSans-72" transform="translate(35.205078 0)"/>
     <use xlink:href="#DejaVuSans-65" transform="translate(74.068359 0)"/>
     <use xlink:href="#DejaVuSans-65" transform="translate(135.591797 0)"/>
     <use xlink:href="#DejaVuSans-6d" transform="translate(197.115234 0)"/>
     <use xlink:href="#DejaVuSans-61" transform="translate(294.527344 0)"/>
     <use xlink:href="#DejaVuSans-72" transform="translate(355.806641 0)"/>
     <use xlink:href="#DejaVuSans-6b" transform="translate(396.919922 0)"/>
     <use xlink:href="#DejaVuSans-65" transform="translate(451.205078 0)"/>
     <use xlink:href="#DejaVuSans-72" transform="translate(512.728516 0)"/>
    </g>
   </g>
   <g id="text_22">
    <!-- thymeleaf -->
    <g style="fill: #17becf" transform="translate(390.9225 110.916384) scale(0.08 -0.08)">
     <defs>
      <path id="DejaVuSans-79" d="M 2059 -325 
Q 1816 -950 1584 -1140 
Q 1353 -1331 966 -1331 
L 506 -1331 
L 506 -850 
L 844 -850 
Q 1081 -850 1212 -737 
Q 1344 -625 1503 -206 
L 1606 56 
L 191 3500 
L 800 3500 
L 1894 763 
L 2988 3500 
L 3597 3500 
L 2059 -325 
z
" transform="scale(0.015625)"/>
     </defs>
     <use xlink:href="#DejaVuSans-74"/>
     <use xlink:href="#DejaVuSans-68" transform="translate(39.208984 0)"/>
     <use xlink:href="#DejaVuSans-79" transform="translate(102.587891 0)"/>
     <use xlink:href="#DejaVuSans-6d" transform="translate(161.767578 0)"/>
     <use xlink:href="#DejaVuSans-65" transform="translate(259.179688 0)"/>
     <use xlink:href="#DejaVuSans-6c" transform="translate(320.703125 0)"/>
     <use xlink:href="#DejaVuSans-65" transform="translate(348.486328 0)"/>
     <use xlink:href="#DejaVuSans-61" transform="translate(410.009766 0)"/>
     <use xlink:href="#DejaVuSans-66" transform="translate(471.289062 0)"/>
    </g>
   </g>
   <g id="text_23">
    <!-- jangod -->
    <g style="fill: #2ca02c" transform="translate(390.9225 86.459889) scale(0.08 -0.08)">
     <defs>
      <path id="DejaVuSans-64" d="M 2906 2969 
L 2906 4863 
L 3481 4863 
L 3481 0 
L 2906 0 
L 2906 525 
Q 2725 213 2448 61 
Q 2172 -91 1784 -91 
Q 1150 -91 751 415 
Q 353 922 353 1747 
Q 353 2572 751 3078 
Q 1150 3584 1784 3584 
Q 2172 3584 2448 3432 
Q 2725 3281 2906 2969 
z
M 947 1747 
Q 947 1113 1208 752 
Q 1469 391 1925 391 
Q 2381 391 2643 752 
Q 2906 1113 2906 1747 
Q 2906 2381 2643 2742 
Q 2381 3103 1925 3103 
Q 1469 3103 1208 2742 
Q 947 2381 947 1747 
z
" transform="scale(0.015625)"/>
     </defs>
     <use xlink:href="#DejaVuSans-6a"/>
     <use xlink:href="#DejaVuSans-61" transform="translate(27.783203 0)"/>
     <use xlink:href="#DejaVuSans-6e" transform="translate(89.0625 0)"/>
     <use xlink:href="#DejaVuSans-67" transform="translate(152.441406 0)"/>
     <use xlink:href="#DejaVuSans-6f" transform="translate(215.917969 0)"/>
     <use xlink:href="#DejaVuSans-64" transform="translate(277.099609 0)"/>
    </g>
   </g>
   <g id="text_24">
    <!-- handlebars -->
    <g style="fill: #ff7f0e" transform="translate(390.9225 75.267934) scale(0.08 -0.08)">
     <use xlink:href="#DejaVuSans-68"/>
     <use xlink:href="#DejaVuSans-61" transform="translate(63.378906 0)"/>
     <use xlink:href="#DejaVuSans-6e" transform="translate(124.658203 0)"/>
     <use xlink:href="#DejaVuSans-64" transform="translate(188.037109 0)"/>
     <use xlink:href="#DejaVuSans-6c" transform="translate(251.513672 0)"/>
     <use xlink:href="#DejaVuSans-65" transform="translate(279.296875 0)"/>
     <use xlink:href="#DejaVuSans-62" transform="translate(340.820312 0)"/>
     <use xlink:href="#DejaVuSans-61" transform="translate(404.296875 0)"/>
     <use xlink:href="#DejaVuSans-72" transform="translate(465.576172 0)"/>
     <use xlink:href="#DejaVuSans-73" transform="translate(506.689453 0)"/>
    </g>
   </g>
   <g id="text_25">
    <!-- velocity -->
    <g style="fill: #ff7f0e" transform="translate(390.9225 60.345326) scale(0.08 -0.08)">
     <defs>
      <path id="DejaVuSans-76" d="M 191 3500 
L 800 3500 
L 1894 563 
L 2988 3500 
L 3597 3500 
L 2284 0 
L 1503 0 
L 191 3500 
z
" transform="scale(0.015625)"/>
     </defs>
     <use xlink:href="#DejaVuSans-76"/>
     <use xlink:href="#DejaVuSans-65" transform="translate(59.179688 0)"/>
     <use xlink:href="#DejaVuSans-6c" transform="translate(120.703125 0)"/>
     <use xlink:href="#DejaVuSans-6f" transform="translate(148.486328 0)"/>
     <use xlink:href="#DejaVuSans-63" transform="translate(209.667969 0)"/>
     <use xlink:href="#DejaVuSans-69" transform="translate(264.648438 0)"/>
     <use xlink:href="#DejaVuSans-74" transform="translate(292.431641 0)"/>
     <use xlink:href="#DejaVuSans-79" transform="translate(331.640625 0)"/>
    </g>
   </g>
   <g id="text_26">
    <!-- jte -->
    <g style="fill: #d62728" transform="translate(390.9225 44.179169) scale(0.08 -0.08)">
     <use xlink:href="#DejaVuSans-6a"/>
     <use xlink:href="#DejaVuSans-74" transform="translate(27.783203 0)"/>
     <use xlink:href="#DejaVuSans-65" transform="translate(66.992188 0)"/>
    </g>
   </g>
   <g id="text_27">
    <!-- stringtemplate -->
    <g style="fill: #7f7f7f" transform="translate(390.9225 36.303348) scale(0.08 -0.08)">
     <use xlink:href="#DejaVuSans-73"/>
     <use xlink:href="#DejaVuSans-74" transform="translate(52.099609 0)"/>
     <use xlink:href="#DejaVuSans-72" transform="translate(91.308594 0)"/>
     <use xlink:href="#DejaVuSans-69" transform="translate(132.421875 0)"/>
     <use xlink:href="#DejaVuSans-6e" transform="translate(160.205078 0)"/>
     <use xlink:href="#DejaVuSans-67" transform="translate(223.583984 0)"/>
     <use xlink:href="#DejaVuSans-74" transform="translate(287.060547 0)"/>
     <use xlink:href="#DejaVuSans-65" transform="translate(326.269531 0)"/>
     <use xlink:href="#DejaVuSans-6d" transform="translate(387.792969 0)"/>
     <use xlink:href="#DejaVuSans-70" transform="translate(485.205078 0)"/>
     <use xlink:href="#DejaVuSans-6c" transform="translate(548.681641 0)"/>
     <use xlink:href="#DejaVuSans-61" transform="translate(576.464844 0)"/>
     <use xlink:href="#DejaVuSans-74" transform="translate(637.744141 0)"/>
     <use xlink:href="#DejaVuSans-65" transform="translate(676.953125 0)"/>
    </g>
   </g>
  </g>
 </g>
 <defs>
  <clipPath id="p5a943fdb20">
   <rect x="50.565625" y="10.8" width="334.356875" height="293.64375"/>
  </clipPath>
 </defs>
</svg>
