<?xml version="1.0" encoding="utf-8" standalone="no"?>
<!DOCTYPE svg PUBLIC "-//W3C//DTD SVG 1.1//EN"
  "http://www.w3.org/Graphics/SVG/1.1/DTD/svg11.dtd">
<svg xmlns:xlink="http://www.w3.org/1999/xlink" width="460.8pt" height="345.6pt" viewBox="0 0 460.8 345.6" xmlns="http://www.w3.org/2000/svg" version="1.1">
 <metadata>
  <rdf:RDF xmlns:dc="http://purl.org/dc/elements/1.1/" xmlns:cc="http://creativecommons.org/ns#" xmlns:rdf="http://www.w3.org/1999/02/22-rdf-syntax-ns#">
   <cc:Work>
    <dc:type rdf:resource="http://purl.org/dc/dcmitype/StillImage"/>
    <dc:date>2025-04-13T17:19:49.858556</dc:date>
    <dc:format>image/svg+xml</dc:format>
    <dc:creator>
     <cc:Agent>
      <dc:title>Matplotlib v3.10.1, https://matplotlib.org/</dc:title>
     </cc:Agent>
    </dc:creator>
   </cc:Work>
  </rdf:RDF>
 </metadata>
 <defs>
  <style type="text/css">*{stroke-linejoin: round; stroke-linecap: butt}</style>
 </defs>
 <g id="figure_1">
  <g id="patch_1">
   <path d="M 0 345.6 
L 460.8 345.6 
L 460.8 0 
L 0 0 
z
" style="fill: #ffffff"/>
  </g>
  <g id="axes_1">
   <g id="patch_2">
    <path d="M 50.565625 304.44375 
L 384.9225 304.44375 
L 384.9225 10.8 
L 50.565625 10.8 
z
" style="fill: #ffffff"/>
   </g>
   <g id="matplotlib.axis_1">
    <g id="xtick_1">
     <g id="line2d_1">
      <defs>
       <path id="md32dc75172" d="M 0 0 
L 0 3.5 
" style="stroke: #000000; stroke-width: 0.8"/>
      </defs>
      <g>
       <use xlink:href="#md32dc75172" x="65.733266" y="304.44375" style="stroke: #000000; stroke-width: 0.8"/>
      </g>
     </g>
     <g id="text_1">
      <!-- 0 -->
      <g transform="translate(62.552016 319.042187) scale(0.1 -0.1)">
       <defs>
        <path id="DejaVuSans-30" d="M 2034 4250 
Q 1547 4250 1301 3770 
Q 1056 3291 1056 2328 
Q 1056 1369 1301 889 
Q 1547 409 2034 409 
Q 2525 409 2770 889 
Q 3016 1369 3016 2328 
Q 3016 3291 2770 3770 
Q 2525 4250 2034 4250 
z
M 2034 4750 
Q 2819 4750 3233 4129 
Q 3647 3509 3647 2328 
Q 3647 1150 3233 529 
Q 2819 -91 2034 -91 
Q 1250 -91 836 529 
Q 422 1150 422 2328 
Q 422 3509 836 4129 
Q 1250 4750 2034 4750 
z
" transform="scale(0.015625)"/>
       </defs>
       <use xlink:href="#DejaVuSans-30"/>
      </g>
     </g>
    </g>
    <g id="xtick_2">
     <g id="line2d_2">
      <g>
       <use xlink:href="#md32dc75172" x="126.531505" y="304.44375" style="stroke: #000000; stroke-width: 0.8"/>
      </g>
     </g>
     <g id="text_2">
      <!-- 2000 -->
      <g transform="translate(113.806505 319.042187) scale(0.1 -0.1)">
       <defs>
        <path id="DejaVuSans-32" d="M 1228 531 
L 3431 531 
L 3431 0 
L 469 0 
L 469 531 
Q 828 903 1448 1529 
Q 2069 2156 2228 2338 
Q 2531 2678 2651 2914 
Q 2772 3150 2772 3378 
Q 2772 3750 2511 3984 
Q 2250 4219 1831 4219 
Q 1534 4219 1204 4116 
Q 875 4013 500 3803 
L 500 4441 
Q 881 4594 1212 4672 
Q 1544 4750 1819 4750 
Q 2544 4750 2975 4387 
Q 3406 4025 3406 3419 
Q 3406 3131 3298 2873 
Q 3191 2616 2906 2266 
Q 2828 2175 2409 1742 
Q 1991 1309 1228 531 
z
" transform="scale(0.015625)"/>
       </defs>
       <use xlink:href="#DejaVuSans-32"/>
       <use xlink:href="#DejaVuSans-30" transform="translate(63.623047 0)"/>
       <use xlink:href="#DejaVuSans-30" transform="translate(127.246094 0)"/>
       <use xlink:href="#DejaVuSans-30" transform="translate(190.869141 0)"/>
      </g>
     </g>
    </g>
    <g id="xtick_3">
     <g id="line2d_3">
      <g>
       <use xlink:href="#md32dc75172" x="187.329743" y="304.44375" style="stroke: #000000; stroke-width: 0.8"/>
      </g>
     </g>
     <g id="text_3">
      <!-- 4000 -->
      <g transform="translate(174.604743 319.042187) scale(0.1 -0.1)">
       <defs>
        <path id="DejaVuSans-34" d="M 2419 4116 
L 825 1625 
L 2419 1625 
L 2419 4116 
z
M 2253 4666 
L 3047 4666 
L 3047 1625 
L 3713 1625 
L 3713 1100 
L 3047 1100 
L 3047 0 
L 2419 0 
L 2419 1100 
L 313 1100 
L 313 1709 
L 2253 4666 
z
" transform="scale(0.015625)"/>
       </defs>
       <use xlink:href="#DejaVuSans-34"/>
       <use xlink:href="#DejaVuSans-30" transform="translate(63.623047 0)"/>
       <use xlink:href="#DejaVuSans-30" transform="translate(127.246094 0)"/>
       <use xlink:href="#DejaVuSans-30" transform="translate(190.869141 0)"/>
      </g>
     </g>
    </g>
    <g id="xtick_4">
     <g id="line2d_4">
      <g>
       <use xlink:href="#md32dc75172" x="248.127982" y="304.44375" style="stroke: #000000; stroke-width: 0.8"/>
      </g>
     </g>
     <g id="text_4">
      <!-- 6000 -->
      <g transform="translate(235.402982 319.042187) scale(0.1 -0.1)">
       <defs>
        <path id="DejaVuSans-36" d="M 2113 2584 
Q 1688 2584 1439 2293 
Q 1191 2003 1191 1497 
Q 1191 994 1439 701 
Q 1688 409 2113 409 
Q 2538 409 2786 701 
Q 3034 994 3034 1497 
Q 3034 2003 2786 2293 
Q 2538 2584 2113 2584 
z
M 3366 4563 
L 3366 3988 
Q 3128 4100 2886 4159 
Q 2644 4219 2406 4219 
Q 1781 4219 1451 3797 
Q 1122 3375 1075 2522 
Q 1259 2794 1537 2939 
Q 1816 3084 2150 3084 
Q 2853 3084 3261 2657 
Q 3669 2231 3669 1497 
Q 3669 778 3244 343 
Q 2819 -91 2113 -91 
Q 1303 -91 875 529 
Q 447 1150 447 2328 
Q 447 3434 972 4092 
Q 1497 4750 2381 4750 
Q 2619 4750 2861 4703 
Q 3103 4656 3366 4563 
z
" transform="scale(0.015625)"/>
       </defs>
       <use xlink:href="#DejaVuSans-36"/>
       <use xlink:href="#DejaVuSans-30" transform="translate(63.623047 0)"/>
       <use xlink:href="#DejaVuSans-30" transform="translate(127.246094 0)"/>
       <use xlink:href="#DejaVuSans-30" transform="translate(190.869141 0)"/>
      </g>
     </g>
    </g>
    <g id="xtick_5">
     <g id="line2d_5">
      <g>
       <use xlink:href="#md32dc75172" x="308.926221" y="304.44375" style="stroke: #000000; stroke-width: 0.8"/>
      </g>
     </g>
     <g id="text_5">
      <!-- 8000 -->
      <g transform="translate(296.201221 319.042187) scale(0.1 -0.1)">
       <defs>
        <path id="DejaVuSans-38" d="M 2034 2216 
Q 1584 2216 1326 1975 
Q 1069 1734 1069 1313 
Q 1069 891 1326 650 
Q 1584 409 2034 409 
Q 2484 409 2743 651 
Q 3003 894 3003 1313 
Q 3003 1734 2745 1975 
Q 2488 2216 2034 2216 
z
M 1403 2484 
Q 997 2584 770 2862 
Q 544 3141 544 3541 
Q 544 4100 942 4425 
Q 1341 4750 2034 4750 
Q 2731 4750 3128 4425 
Q 3525 4100 3525 3541 
Q 3525 3141 3298 2862 
Q 3072 2584 2669 2484 
Q 3125 2378 3379 2068 
Q 3634 1759 3634 1313 
Q 3634 634 3220 271 
Q 2806 -91 2034 -91 
Q 1263 -91 848 271 
Q 434 634 434 1313 
Q 434 1759 690 2068 
Q 947 2378 1403 2484 
z
M 1172 3481 
Q 1172 3119 1398 2916 
Q 1625 2713 2034 2713 
Q 2441 2713 2670 2916 
Q 2900 3119 2900 3481 
Q 2900 3844 2670 4047 
Q 2441 4250 2034 4250 
Q 1625 4250 1398 4047 
Q 1172 3844 1172 3481 
z
" transform="scale(0.015625)"/>
       </defs>
       <use xlink:href="#DejaVuSans-38"/>
       <use xlink:href="#DejaVuSans-30" transform="translate(63.623047 0)"/>
       <use xlink:href="#DejaVuSans-30" transform="translate(127.246094 0)"/>
       <use xlink:href="#DejaVuSans-30" transform="translate(190.869141 0)"/>
      </g>
     </g>
    </g>
    <g id="xtick_6">
     <g id="line2d_6">
      <g>
       <use xlink:href="#md32dc75172" x="369.72446" y="304.44375" style="stroke: #000000; stroke-width: 0.8"/>
      </g>
     </g>
     <g id="text_6">
      <!-- 10000 -->
      <g transform="translate(353.81821 319.042187) scale(0.1 -0.1)">
       <defs>
        <path id="DejaVuSans-31" d="M 794 531 
L 1825 531 
L 1825 4091 
L 703 3866 
L 703 4441 
L 1819 4666 
L 2450 4666 
L 2450 531 
L 3481 531 
L 3481 0 
L 794 0 
L 794 531 
z
" transform="scale(0.015625)"/>
       </defs>
       <use xlink:href="#DejaVuSans-31"/>
       <use xlink:href="#DejaVuSans-30" transform="translate(63.623047 0)"/>
       <use xlink:href="#DejaVuSans-30" transform="translate(127.246094 0)"/>
       <use xlink:href="#DejaVuSans-30" transform="translate(190.869141 0)"/>
       <use xlink:href="#DejaVuSans-30" transform="translate(254.492188 0)"/>
      </g>
     </g>
    </g>
    <g id="text_7">
     <!-- n runs -->
     <g transform="translate(201.988594 332.720312) scale(0.1 -0.1)">
      <defs>
       <path id="DejaVuSans-6e" d="M 3513 2113 
L 3513 0 
L 2938 0 
L 2938 2094 
Q 2938 2591 2744 2837 
Q 2550 3084 2163 3084 
Q 1697 3084 1428 2787 
Q 1159 2491 1159 1978 
L 1159 0 
L 581 0 
L 581 3500 
L 1159 3500 
L 1159 2956 
Q 1366 3272 1645 3428 
Q 1925 3584 2291 3584 
Q 2894 3584 3203 3211 
Q 3513 2838 3513 2113 
z
" transform="scale(0.015625)"/>
       <path id="DejaVuSans-20" transform="scale(0.015625)"/>
       <path id="DejaVuSans-72" d="M 2631 2963 
Q 2534 3019 2420 3045 
Q 2306 3072 2169 3072 
Q 1681 3072 1420 2755 
Q 1159 2438 1159 1844 
L 1159 0 
L 581 0 
L 581 3500 
L 1159 3500 
L 1159 2956 
Q 1341 3275 1631 3429 
Q 1922 3584 2338 3584 
Q 2397 3584 2469 3576 
Q 2541 3569 2628 3553 
L 2631 2963 
z
" transform="scale(0.015625)"/>
       <path id="DejaVuSans-75" d="M 544 1381 
L 544 3500 
L 1119 3500 
L 1119 1403 
Q 1119 906 1312 657 
Q 1506 409 1894 409 
Q 2359 409 2629 706 
Q 2900 1003 2900 1516 
L 2900 3500 
L 3475 3500 
L 3475 0 
L 2900 0 
L 2900 538 
Q 2691 219 2414 64 
Q 2138 -91 1772 -91 
Q 1169 -91 856 284 
Q 544 659 544 1381 
z
M 1991 3584 
L 1991 3584 
z
" transform="scale(0.015625)"/>
       <path id="DejaVuSans-73" d="M 2834 3397 
L 2834 2853 
Q 2591 2978 2328 3040 
Q 2066 3103 1784 3103 
Q 1356 3103 1142 2972 
Q 928 2841 928 2578 
Q 928 2378 1081 2264 
Q 1234 2150 1697 2047 
L 1894 2003 
Q 2506 1872 2764 1633 
Q 3022 1394 3022 966 
Q 3022 478 2636 193 
Q 2250 -91 1575 -91 
Q 1294 -91 989 -36 
Q 684 19 347 128 
L 347 722 
Q 666 556 975 473 
Q 1284 391 1588 391 
Q 1994 391 2212 530 
Q 2431 669 2431 922 
Q 2431 1156 2273 1281 
Q 2116 1406 1581 1522 
L 1381 1569 
Q 847 1681 609 1914 
Q 372 2147 372 2553 
Q 372 3047 722 3315 
Q 1072 3584 1716 3584 
Q 2034 3584 2315 3537 
Q 2597 3491 2834 3397 
z
" transform="scale(0.015625)"/>
      </defs>
      <use xlink:href="#DejaVuSans-6e"/>
      <use xlink:href="#DejaVuSans-20" transform="translate(63.378906 0)"/>
      <use xlink:href="#DejaVuSans-72" transform="translate(95.166016 0)"/>
      <use xlink:href="#DejaVuSans-75" transform="translate(136.279297 0)"/>
      <use xlink:href="#DejaVuSans-6e" transform="translate(199.658203 0)"/>
      <use xlink:href="#DejaVuSans-73" transform="translate(263.037109 0)"/>
     </g>
    </g>
   </g>
   <g id="matplotlib.axis_2">
    <g id="ytick_1">
     <g id="line2d_7">
      <defs>
       <path id="mc8004c0617" d="M 0 0 
L -3.5 0 
" style="stroke: #000000; stroke-width: 0.8"/>
      </defs>
      <g>
       <use xlink:href="#mc8004c0617" x="50.565625" y="291.519364" style="stroke: #000000; stroke-width: 0.8"/>
      </g>
     </g>
     <g id="text_8">
      <!-- 0 -->
      <g transform="translate(37.203125 295.318582) scale(0.1 -0.1)">
       <use xlink:href="#DejaVuSans-30"/>
      </g>
     </g>
    </g>
    <g id="ytick_2">
     <g id="line2d_8">
      <g>
       <use xlink:href="#mc8004c0617" x="50.565625" y="249.21368" style="stroke: #000000; stroke-width: 0.8"/>
      </g>
     </g>
     <g id="text_9">
      <!-- 100 -->
      <g transform="translate(24.478125 253.012899) scale(0.1 -0.1)">
       <use xlink:href="#DejaVuSans-31"/>
       <use xlink:href="#DejaVuSans-30" transform="translate(63.623047 0)"/>
       <use xlink:href="#DejaVuSans-30" transform="translate(127.246094 0)"/>
      </g>
     </g>
    </g>
    <g id="ytick_3">
     <g id="line2d_9">
      <g>
       <use xlink:href="#mc8004c0617" x="50.565625" y="206.907996" style="stroke: #000000; stroke-width: 0.8"/>
      </g>
     </g>
     <g id="text_10">
      <!-- 200 -->
      <g transform="translate(24.478125 210.707215) scale(0.1 -0.1)">
       <use xlink:href="#DejaVuSans-32"/>
       <use xlink:href="#DejaVuSans-30" transform="translate(63.623047 0)"/>
       <use xlink:href="#DejaVuSans-30" transform="translate(127.246094 0)"/>
      </g>
     </g>
    </g>
    <g id="ytick_4">
     <g id="line2d_10">
      <g>
       <use xlink:href="#mc8004c0617" x="50.565625" y="164.602313" style="stroke: #000000; stroke-width: 0.8"/>
      </g>
     </g>
     <g id="text_11">
      <!-- 300 -->
      <g transform="translate(24.478125 168.401532) scale(0.1 -0.1)">
       <defs>
        <path id="DejaVuSans-33" d="M 2597 2516 
Q 3050 2419 3304 2112 
Q 3559 1806 3559 1356 
Q 3559 666 3084 287 
Q 2609 -91 1734 -91 
Q 1441 -91 1130 -33 
Q 819 25 488 141 
L 488 750 
Q 750 597 1062 519 
Q 1375 441 1716 441 
Q 2309 441 2620 675 
Q 2931 909 2931 1356 
Q 2931 1769 2642 2001 
Q 2353 2234 1838 2234 
L 1294 2234 
L 1294 2753 
L 1863 2753 
Q 2328 2753 2575 2939 
Q 2822 3125 2822 3475 
Q 2822 3834 2567 4026 
Q 2313 4219 1838 4219 
Q 1578 4219 1281 4162 
Q 984 4106 628 3988 
L 628 4550 
Q 988 4650 1302 4700 
Q 1616 4750 1894 4750 
Q 2613 4750 3031 4423 
Q 3450 4097 3450 3541 
Q 3450 3153 3228 2886 
Q 3006 2619 2597 2516 
z
" transform="scale(0.015625)"/>
       </defs>
       <use xlink:href="#DejaVuSans-33"/>
       <use xlink:href="#DejaVuSans-30" transform="translate(63.623047 0)"/>
       <use xlink:href="#DejaVuSans-30" transform="translate(127.246094 0)"/>
      </g>
     </g>
    </g>
    <g id="ytick_5">
     <g id="line2d_11">
      <g>
       <use xlink:href="#mc8004c0617" x="50.565625" y="122.296629" style="stroke: #000000; stroke-width: 0.8"/>
      </g>
     </g>
     <g id="text_12">
      <!-- 400 -->
      <g transform="translate(24.478125 126.095848) scale(0.1 -0.1)">
       <use xlink:href="#DejaVuSans-34"/>
       <use xlink:href="#DejaVuSans-30" transform="translate(63.623047 0)"/>
       <use xlink:href="#DejaVuSans-30" transform="translate(127.246094 0)"/>
      </g>
     </g>
    </g>
    <g id="ytick_6">
     <g id="line2d_12">
      <g>
       <use xlink:href="#mc8004c0617" x="50.565625" y="79.990946" style="stroke: #000000; stroke-width: 0.8"/>
      </g>
     </g>
     <g id="text_13">
      <!-- 500 -->
      <g transform="translate(24.478125 83.790164) scale(0.1 -0.1)">
       <defs>
        <path id="DejaVuSans-35" d="M 691 4666 
L 3169 4666 
L 3169 4134 
L 1269 4134 
L 1269 2991 
Q 1406 3038 1543 3061 
Q 1681 3084 1819 3084 
Q 2600 3084 3056 2656 
Q 3513 2228 3513 1497 
Q 3513 744 3044 326 
Q 2575 -91 1722 -91 
Q 1428 -91 1123 -41 
Q 819 9 494 109 
L 494 744 
Q 775 591 1075 516 
Q 1375 441 1709 441 
Q 2250 441 2565 725 
Q 2881 1009 2881 1497 
Q 2881 1984 2565 2268 
Q 2250 2553 1709 2553 
Q 1456 2553 1204 2497 
Q 953 2441 691 2322 
L 691 4666 
z
" transform="scale(0.015625)"/>
       </defs>
       <use xlink:href="#DejaVuSans-35"/>
       <use xlink:href="#DejaVuSans-30" transform="translate(63.623047 0)"/>
       <use xlink:href="#DejaVuSans-30" transform="translate(127.246094 0)"/>
      </g>
     </g>
    </g>
    <g id="ytick_7">
     <g id="line2d_13">
      <g>
       <use xlink:href="#mc8004c0617" x="50.565625" y="37.685262" style="stroke: #000000; stroke-width: 0.8"/>
      </g>
     </g>
     <g id="text_14">
      <!-- 600 -->
      <g transform="translate(24.478125 41.484481) scale(0.1 -0.1)">
       <use xlink:href="#DejaVuSans-36"/>
       <use xlink:href="#DejaVuSans-30" transform="translate(63.623047 0)"/>
       <use xlink:href="#DejaVuSans-30" transform="translate(127.246094 0)"/>
      </g>
     </g>
    </g>
    <g id="text_15">
     <!-- time (ms) -->
     <g transform="translate(18.398438 181.883594) rotate(-90) scale(0.1 -0.1)">
      <defs>
       <path id="DejaVuSans-74" d="M 1172 4494 
L 1172 3500 
L 2356 3500 
L 2356 3053 
L 1172 3053 
L 1172 1153 
Q 1172 725 1289 603 
Q 1406 481 1766 481 
L 2356 481 
L 2356 0 
L 1766 0 
Q 1100 0 847 248 
Q 594 497 594 1153 
L 594 3053 
L 172 3053 
L 172 3500 
L 594 3500 
L 594 4494 
L 1172 4494 
z
" transform="scale(0.015625)"/>
       <path id="DejaVuSans-69" d="M 603 3500 
L 1178 3500 
L 1178 0 
L 603 0 
L 603 3500 
z
M 603 4863 
L 1178 4863 
L 1178 4134 
L 603 4134 
L 603 4863 
z
" transform="scale(0.015625)"/>
       <path id="DejaVuSans-6d" d="M 3328 2828 
Q 3544 3216 3844 3400 
Q 4144 3584 4550 3584 
Q 5097 3584 5394 3201 
Q 5691 2819 5691 2113 
L 5691 0 
L 5113 0 
L 5113 2094 
Q 5113 2597 4934 2840 
Q 4756 3084 4391 3084 
Q 3944 3084 3684 2787 
Q 3425 2491 3425 1978 
L 3425 0 
L 2847 0 
L 2847 2094 
Q 2847 2600 2669 2842 
Q 2491 3084 2119 3084 
Q 1678 3084 1418 2786 
Q 1159 2488 1159 1978 
L 1159 0 
L 581 0 
L 581 3500 
L 1159 3500 
L 1159 2956 
Q 1356 3278 1631 3431 
Q 1906 3584 2284 3584 
Q 2666 3584 2933 3390 
Q 3200 3197 3328 2828 
z
" transform="scale(0.015625)"/>
       <path id="DejaVuSans-65" d="M 3597 1894 
L 3597 1613 
L 953 1613 
Q 991 1019 1311 708 
Q 1631 397 2203 397 
Q 2534 397 2845 478 
Q 3156 559 3463 722 
L 3463 178 
Q 3153 47 2828 -22 
Q 2503 -91 2169 -91 
Q 1331 -91 842 396 
Q 353 884 353 1716 
Q 353 2575 817 3079 
Q 1281 3584 2069 3584 
Q 2775 3584 3186 3129 
Q 3597 2675 3597 1894 
z
M 3022 2063 
Q 3016 2534 2758 2815 
Q 2500 3097 2075 3097 
Q 1594 3097 1305 2825 
Q 1016 2553 972 2059 
L 3022 2063 
z
" transform="scale(0.015625)"/>
       <path id="DejaVuSans-28" d="M 1984 4856 
Q 1566 4138 1362 3434 
Q 1159 2731 1159 2009 
Q 1159 1288 1364 580 
Q 1569 -128 1984 -844 
L 1484 -844 
Q 1016 -109 783 600 
Q 550 1309 550 2009 
Q 550 2706 781 3412 
Q 1013 4119 1484 4856 
L 1984 4856 
z
" transform="scale(0.015625)"/>
       <path id="DejaVuSans-29" d="M 513 4856 
L 1013 4856 
Q 1481 4119 1714 3412 
Q 1947 2706 1947 2009 
Q 1947 1309 1714 600 
Q 1481 -109 1013 -844 
L 513 -844 
Q 928 -128 1133 580 
Q 1338 1288 1338 2009 
Q 1338 2731 1133 3434 
Q 928 4138 513 4856 
z
" transform="scale(0.015625)"/>
      </defs>
      <use xlink:href="#DejaVuSans-74"/>
      <use xlink:href="#DejaVuSans-69" transform="translate(39.208984 0)"/>
      <use xlink:href="#DejaVuSans-6d" transform="translate(66.992188 0)"/>
      <use xlink:href="#DejaVuSans-65" transform="translate(164.404297 0)"/>
      <use xlink:href="#DejaVuSans-20" transform="translate(225.927734 0)"/>
      <use xlink:href="#DejaVuSans-28" transform="translate(257.714844 0)"/>
      <use xlink:href="#DejaVuSans-6d" transform="translate(296.728516 0)"/>
      <use xlink:href="#DejaVuSans-73" transform="translate(394.140625 0)"/>
      <use xlink:href="#DejaVuSans-29" transform="translate(446.240234 0)"/>
     </g>
    </g>
   </g>
   <g id="line2d_14">
    <path d="M 65.763665 271.635692 
L 66.037257 270.366522 
L 66.341248 271.212636 
L 66.645239 269.943465 
L 66.94923 270.789579 
L 67.253222 270.366522 
L 67.557213 269.943465 
L 67.861204 269.520408 
L 68.165195 269.520408 
L 68.469186 269.520408 
L 68.773178 268.674295 
L 71.81309 266.982067 
L 74.853001 265.28984 
L 77.892913 263.597612 
L 80.932825 262.328442 
L 83.972737 260.213158 
L 87.012649 259.367044 
L 90.052561 258.52093 
L 93.092473 258.097874 
L 96.132385 257.25176 
L 99.172297 256.405646 
L 102.212209 255.559533 
L 105.252121 254.713419 
L 108.292033 253.867305 
L 111.331945 253.444248 
L 114.371857 252.598135 
L 117.411769 252.175078 
L 120.451681 251.752021 
L 123.491593 250.905907 
L 126.531505 247.94451 
L 129.571417 248.790623 
L 132.611328 247.521453 
L 135.65124 246.675339 
L 138.691152 246.675339 
L 141.731064 246.252282 
L 144.770976 244.983112 
L 147.810888 245.829225 
L 150.8508 245.406169 
L 153.890712 244.983112 
L 156.930624 244.560055 
L 159.970536 244.983112 
L 163.010448 244.560055 
L 166.05036 243.713941 
L 169.090272 243.713941 
L 172.130184 244.560055 
L 175.170096 243.290884 
L 178.210008 243.290884 
L 181.24992 243.713941 
L 184.289832 242.021714 
L 187.329743 243.290884 
L 190.369655 242.444771 
L 193.409567 242.021714 
L 196.449479 242.021714 
L 199.489391 242.021714 
L 202.529303 242.021714 
L 205.569215 242.867827 
L 208.609127 242.021714 
L 211.649039 241.598657 
L 214.688951 240.752543 
L 217.728863 242.021714 
L 220.768775 240.329486 
L 223.808687 241.1756 
L 226.848599 240.752543 
L 229.888511 239.483373 
L 232.928423 240.329486 
L 235.968335 239.90643 
L 239.008247 240.752543 
L 242.048159 239.483373 
L 245.08807 238.637259 
L 248.127982 239.483373 
L 251.167894 239.060316 
L 254.207806 238.637259 
L 257.247718 237.368089 
L 260.28763 239.060316 
L 263.327542 238.214202 
L 266.367454 238.637259 
L 269.407366 237.791145 
L 272.447278 238.214202 
L 275.48719 237.368089 
L 278.527102 236.945032 
L 281.567014 237.791145 
L 284.606926 237.791145 
L 287.646838 237.368089 
L 290.68675 236.521975 
L 293.726662 236.945032 
L 296.766574 234.406691 
L 299.806485 236.098918 
L 302.846397 236.098918 
L 305.886309 236.521975 
L 308.926221 236.098918 
L 311.966133 236.098918 
L 315.006045 235.252804 
L 318.045957 235.675861 
L 321.085869 236.098918 
L 324.125781 233.560577 
L 327.165693 235.252804 
L 330.205605 235.252804 
L 333.245517 234.406691 
L 336.285429 233.560577 
L 339.325341 233.13752 
L 342.365253 234.406691 
L 345.405165 233.983634 
L 348.445077 233.983634 
L 351.484989 233.560577 
L 354.5249 233.560577 
L 357.564812 231.86835 
L 360.604724 232.714463 
L 363.644636 231.86835 
L 366.684548 231.86835 
L 369.72446 231.86835 
" clip-path="url(#p6daa68f770)" style="fill: none; stroke: #1f77b4; stroke-width: 1.5; stroke-linecap: square"/>
   </g>
   <g id="line2d_15">
    <path d="M 65.763665 288.557966 
L 66.037257 288.557966 
L 66.341248 288.134909 
L 66.645239 288.134909 
L 66.94923 287.711852 
L 67.253222 287.711852 
L 67.557213 287.288795 
L 67.861204 287.288795 
L 68.165195 286.442682 
L 68.469186 286.865738 
L 68.773178 286.442682 
L 71.81309 284.750454 
L 74.853001 282.63517 
L 77.892913 282.212113 
L 80.932825 281.366 
L 83.972737 280.096829 
L 87.012649 278.404602 
L 90.052561 277.558488 
L 93.092473 277.135431 
L 96.132385 277.135431 
L 99.172297 276.289318 
L 102.212209 275.866261 
L 105.252121 275.866261 
L 108.292033 275.443204 
L 111.331945 275.443204 
L 114.371857 275.020147 
L 117.411769 273.32792 
L 120.451681 274.59709 
L 123.491593 273.750977 
L 126.531505 273.32792 
L 129.571417 274.174033 
L 132.611328 273.32792 
L 135.65124 273.32792 
L 138.691152 272.904863 
L 141.731064 272.904863 
L 144.770976 272.904863 
L 147.810888 272.058749 
L 150.8508 272.481806 
L 153.890712 272.058749 
L 156.930624 270.789579 
L 159.970536 269.520408 
L 163.010448 270.366522 
L 166.05036 268.674295 
L 169.090272 269.943465 
L 172.130184 268.674295 
L 175.170096 269.097351 
L 178.210008 269.097351 
L 181.24992 268.674295 
L 184.289832 268.674295 
L 187.329743 267.828181 
L 190.369655 267.828181 
L 193.409567 267.828181 
L 196.449479 266.135953 
L 199.489391 266.982067 
L 202.529303 266.982067 
L 205.569215 266.55901 
L 208.609127 266.982067 
L 211.649039 266.135953 
L 214.688951 266.135953 
L 217.728863 265.712897 
L 220.768775 264.866783 
L 223.808687 265.712897 
L 226.848599 265.712897 
L 229.888511 265.712897 
L 232.928423 265.28984 
L 235.968335 264.866783 
L 239.008247 264.443726 
L 242.048159 262.751499 
L 245.08807 264.443726 
L 248.127982 264.443726 
L 251.167894 264.020669 
L 254.207806 263.174556 
L 257.247718 263.597612 
L 260.28763 262.328442 
L 263.327542 262.751499 
L 266.367454 262.328442 
L 269.407366 262.328442 
L 272.447278 261.482328 
L 275.48719 262.328442 
L 278.527102 260.636215 
L 281.567014 261.482328 
L 284.606926 261.482328 
L 287.646838 261.059271 
L 290.68675 261.059271 
L 293.726662 261.059271 
L 296.766574 259.367044 
L 299.806485 260.213158 
L 302.846397 259.367044 
L 305.886309 259.790101 
L 308.926221 259.790101 
L 311.966133 259.367044 
L 315.006045 258.52093 
L 318.045957 258.943987 
L 321.085869 258.52093 
L 324.125781 258.097874 
L 327.165693 257.674817 
L 330.205605 258.52093 
L 333.245517 257.674817 
L 336.285429 257.25176 
L 339.325341 257.674817 
L 342.365253 256.828703 
L 345.405165 257.25176 
L 348.445077 256.828703 
L 351.484989 256.828703 
L 354.5249 256.828703 
L 357.564812 256.828703 
L 360.604724 255.559533 
L 363.644636 255.982589 
L 366.684548 254.713419 
L 369.72446 254.713419 
" clip-path="url(#p6daa68f770)" style="fill: none; stroke: #ff7f0e; stroke-width: 1.5; stroke-linecap: square"/>
   </g>
   <g id="line2d_16">
    <path d="M 65.763665 284.750454 
L 66.037257 283.904341 
L 66.341248 283.904341 
L 66.645239 283.481284 
L 66.94923 283.058227 
L 67.253222 282.63517 
L 67.557213 282.212113 
L 67.861204 282.212113 
L 68.165195 281.789056 
L 68.469186 281.366 
L 68.773178 280.942943 
L 71.81309 277.981545 
L 74.853001 275.866261 
L 77.892913 273.750977 
L 80.932825 271.212636 
L 83.972737 269.943465 
L 87.012649 268.251238 
L 90.052561 266.55901 
L 93.092473 264.866783 
L 96.132385 263.597612 
L 99.172297 261.905385 
L 102.212209 261.059271 
L 105.252121 260.213158 
L 108.292033 258.943987 
L 111.331945 256.828703 
L 114.371857 257.25176 
L 117.411769 256.405646 
L 120.451681 255.136476 
L 123.491593 254.290362 
L 126.531505 253.867305 
L 129.571417 253.021192 
L 132.611328 251.752021 
L 135.65124 251.328964 
L 138.691152 250.059794 
L 141.731064 249.636737 
L 144.770976 248.790623 
L 147.810888 247.94451 
L 150.8508 247.098396 
L 153.890712 245.829225 
L 156.930624 244.983112 
L 159.970536 244.136998 
L 163.010448 242.021714 
L 166.05036 242.021714 
L 169.090272 242.021714 
L 172.130184 239.90643 
L 175.170096 240.752543 
L 178.210008 236.945032 
L 181.24992 238.637259 
L 184.289832 237.791145 
L 187.329743 237.368089 
L 190.369655 236.098918 
L 193.409567 233.983634 
L 196.449479 234.406691 
L 199.489391 233.13752 
L 202.529303 233.13752 
L 205.569215 231.86835 
L 208.609127 229.753066 
L 211.649039 228.060838 
L 214.688951 227.637781 
L 217.728863 225.945554 
L 220.768775 225.945554 
L 223.808687 224.253327 
L 226.848599 224.253327 
L 229.888511 223.83027 
L 232.928423 223.407213 
L 235.968335 221.714986 
L 239.008247 222.561099 
L 242.048159 220.868872 
L 245.08807 219.176645 
L 248.127982 217.907474 
L 251.167894 217.484417 
L 254.207806 217.06136 
L 257.247718 215.369133 
L 260.28763 215.79219 
L 263.327542 214.946076 
L 266.367454 213.676906 
L 269.407366 213.253849 
L 272.447278 211.984678 
L 275.48719 210.292451 
L 278.527102 211.561622 
L 281.567014 207.75411 
L 284.606926 207.75411 
L 287.646838 208.600224 
L 290.68675 207.75411 
L 293.726662 207.331053 
L 296.766574 205.215769 
L 299.806485 205.638826 
L 302.846397 203.946599 
L 305.886309 203.523542 
L 308.926221 202.677428 
L 311.966133 200.139087 
L 315.006045 201.408258 
L 318.045957 200.139087 
L 321.085869 199.292973 
L 324.125781 198.44686 
L 327.165693 198.023803 
L 330.205605 197.600746 
L 333.245517 196.331576 
L 336.285429 196.754632 
L 339.325341 195.485462 
L 342.365253 192.947121 
L 345.405165 192.947121 
L 348.445077 192.947121 
L 351.484989 192.101007 
L 354.5249 191.254893 
L 357.564812 190.40878 
L 360.604724 190.40878 
L 363.644636 189.562666 
L 366.684548 184.485984 
L 369.72446 186.601268 
" clip-path="url(#p6daa68f770)" style="fill: none; stroke: #2ca02c; stroke-width: 1.5; stroke-linecap: square"/>
   </g>
   <g id="line2d_17">
    <path d="M 65.763665 46.569455 
L 66.037257 44.877228 
L 66.341248 48.68474 
L 66.645239 46.569455 
L 66.94923 47.838626 
L 67.253222 47.415569 
L 67.557213 46.992512 
L 67.861204 47.838626 
L 68.165195 48.68474 
L 68.469186 47.415569 
L 68.773178 44.877228 
L 71.81309 41.069717 
L 74.853001 46.992512 
L 77.892913 41.492773 
L 80.932825 43.185001 
L 83.972737 43.608058 
L 87.012649 40.223603 
L 90.052561 33.87775 
L 93.092473 40.223603 
L 96.132385 42.338887 
L 99.172297 38.108319 
L 102.212209 38.531376 
L 105.252121 39.377489 
L 108.292033 34.300807 
L 111.331945 38.108319 
L 114.371857 41.492773 
L 117.411769 38.954432 
L 120.451681 40.64666 
L 123.491593 39.377489 
L 126.531505 38.108319 
L 129.571417 29.224125 
L 132.611328 41.492773 
L 135.65124 38.108319 
L 138.691152 38.954432 
L 141.731064 33.031637 
L 144.770976 38.954432 
L 147.810888 38.531376 
L 150.8508 38.531376 
L 153.890712 34.300807 
L 156.930624 38.108319 
L 159.970536 37.262205 
L 163.010448 38.531376 
L 166.05036 35.569978 
L 169.090272 35.569978 
L 172.130184 34.723864 
L 175.170096 35.146921 
L 178.210008 37.262205 
L 181.24992 35.569978 
L 184.289832 33.87775 
L 187.329743 33.454694 
L 190.369655 36.416091 
L 193.409567 36.839148 
L 196.449479 35.146921 
L 199.489391 37.685262 
L 202.529303 31.762466 
L 205.569215 36.839148 
L 208.609127 36.416091 
L 211.649039 35.569978 
L 214.688951 33.454694 
L 217.728863 30.493296 
L 220.768775 34.723864 
L 223.808687 36.839148 
L 226.848599 33.454694 
L 229.888511 33.87775 
L 232.928423 36.416091 
L 235.968335 34.300807 
L 239.008247 30.493296 
L 242.048159 30.070239 
L 245.08807 34.723864 
L 248.127982 30.493296 
L 251.167894 33.031637 
L 254.207806 31.339409 
L 257.247718 31.762466 
L 260.28763 31.762466 
L 263.327542 31.762466 
L 266.367454 33.031637 
L 269.407366 31.762466 
L 272.447278 28.378012 
L 275.48719 33.031637 
L 278.527102 32.185523 
L 281.567014 30.916353 
L 284.606926 30.493296 
L 287.646838 31.339409 
L 290.68675 31.762466 
L 293.726662 31.339409 
L 296.766574 32.60858 
L 299.806485 32.60858 
L 302.846397 31.762466 
L 305.886309 27.108841 
L 308.926221 30.493296 
L 311.966133 26.685784 
L 315.006045 30.070239 
L 318.045957 30.916353 
L 321.085869 29.647182 
L 324.125781 25.839671 
L 327.165693 32.60858 
L 330.205605 32.60858 
L 333.245517 30.493296 
L 336.285429 29.647182 
L 339.325341 30.070239 
L 342.365253 27.108841 
L 345.405165 26.685784 
L 348.445077 30.070239 
L 351.484989 29.224125 
L 354.5249 27.531898 
L 357.564812 30.493296 
L 360.604724 25.839671 
L 363.644636 29.224125 
L 366.684548 28.378012 
L 369.72446 24.147443 
" clip-path="url(#p6daa68f770)" style="fill: none; stroke: #d62728; stroke-width: 1.5; stroke-linecap: square"/>
   </g>
   <g id="line2d_18">
    <path d="M 65.763665 290.67325 
L 66.037257 288.981023 
L 66.341248 289.404079 
L 66.645239 289.404079 
L 66.94923 288.981023 
L 67.253222 288.981023 
L 67.557213 288.981023 
L 67.861204 288.557966 
L 68.165195 288.557966 
L 68.469186 288.557966 
L 68.773178 288.134909 
L 71.81309 287.288795 
L 74.853001 286.442682 
L 77.892913 285.596568 
L 80.932825 284.750454 
L 83.972737 284.327397 
L 87.012649 283.481284 
L 90.052561 283.058227 
L 93.092473 282.63517 
L 96.132385 282.212113 
L 99.172297 282.212113 
L 102.212209 281.789056 
L 105.252121 281.789056 
L 108.292033 281.366 
L 111.331945 280.942943 
L 114.371857 280.942943 
L 117.411769 280.942943 
L 120.451681 280.096829 
L 123.491593 280.519886 
L 126.531505 279.673772 
L 129.571417 280.096829 
L 132.611328 280.096829 
L 135.65124 279.673772 
L 138.691152 279.673772 
L 141.731064 278.827659 
L 144.770976 279.250715 
L 147.810888 278.827659 
L 150.8508 278.827659 
L 153.890712 278.404602 
L 156.930624 278.827659 
L 159.970536 278.404602 
L 163.010448 278.404602 
L 166.05036 277.558488 
L 169.090272 277.981545 
L 172.130184 277.558488 
L 175.170096 277.135431 
L 178.210008 277.135431 
L 181.24992 276.712374 
L 184.289832 277.135431 
L 187.329743 277.135431 
L 190.369655 276.712374 
L 193.409567 276.712374 
L 196.449479 276.712374 
L 199.489391 275.866261 
L 202.529303 275.443204 
L 205.569215 275.866261 
L 208.609127 275.866261 
L 211.649039 276.289318 
L 214.688951 275.866261 
L 217.728863 275.866261 
L 220.768775 275.020147 
L 223.808687 275.443204 
L 226.848599 275.020147 
L 229.888511 275.020147 
L 232.928423 275.020147 
L 235.968335 274.59709 
L 239.008247 274.59709 
L 242.048159 274.174033 
L 245.08807 274.174033 
L 248.127982 273.750977 
L 251.167894 273.32792 
L 254.207806 273.750977 
L 257.247718 273.32792 
L 260.28763 273.750977 
L 263.327542 273.32792 
L 266.367454 272.058749 
L 269.407366 272.481806 
L 272.447278 273.32792 
L 275.48719 272.904863 
L 278.527102 272.904863 
L 281.567014 272.904863 
L 284.606926 272.058749 
L 287.646838 272.481806 
L 290.68675 272.058749 
L 293.726662 272.058749 
L 296.766574 272.058749 
L 299.806485 271.635692 
L 302.846397 271.635692 
L 305.886309 271.212636 
L 308.926221 271.635692 
L 311.966133 271.212636 
L 315.006045 270.789579 
L 318.045957 271.212636 
L 321.085869 270.789579 
L 324.125781 270.366522 
L 327.165693 269.943465 
L 330.205605 270.789579 
L 333.245517 270.366522 
L 336.285429 270.366522 
L 339.325341 269.943465 
L 342.365253 269.943465 
L 345.405165 269.520408 
L 348.445077 269.943465 
L 351.484989 269.943465 
L 354.5249 269.520408 
L 357.564812 269.097351 
L 360.604724 269.097351 
L 363.644636 269.097351 
L 366.684548 266.982067 
L 369.72446 268.674295 
" clip-path="url(#p6daa68f770)" style="fill: none; stroke: #9467bd; stroke-width: 1.5; stroke-linecap: square"/>
   </g>
   <g id="line2d_19">
    <path d="M 65.763665 283.058227 
L 66.037257 283.058227 
L 66.341248 283.058227 
L 66.645239 283.058227 
L 66.94923 282.63517 
L 67.253222 282.212113 
L 67.557213 282.63517 
L 67.861204 282.212113 
L 68.165195 282.212113 
L 68.469186 281.789056 
L 68.773178 281.789056 
L 71.81309 280.096829 
L 74.853001 278.827659 
L 77.892913 277.981545 
L 80.932825 276.712374 
L 83.972737 276.289318 
L 87.012649 275.443204 
L 90.052561 275.020147 
L 93.092473 274.174033 
L 96.132385 273.750977 
L 99.172297 272.904863 
L 102.212209 273.32792 
L 105.252121 272.904863 
L 108.292033 271.635692 
L 111.331945 272.058749 
L 114.371857 272.058749 
L 117.411769 271.635692 
L 120.451681 271.635692 
L 123.491593 271.635692 
L 126.531505 271.635692 
L 129.571417 271.635692 
L 132.611328 271.212636 
L 135.65124 270.366522 
L 138.691152 269.943465 
L 141.731064 270.789579 
L 144.770976 270.789579 
L 147.810888 270.366522 
L 150.8508 270.366522 
L 153.890712 270.366522 
L 156.930624 269.097351 
L 159.970536 269.943465 
L 163.010448 269.943465 
L 166.05036 270.366522 
L 169.090272 269.520408 
L 172.130184 269.943465 
L 175.170096 269.520408 
L 178.210008 269.520408 
L 181.24992 269.097351 
L 184.289832 269.520408 
L 187.329743 269.097351 
L 190.369655 269.097351 
L 193.409567 268.674295 
L 196.449479 268.674295 
L 199.489391 268.674295 
L 202.529303 268.674295 
L 205.569215 268.251238 
L 208.609127 268.674295 
L 211.649039 268.251238 
L 214.688951 266.982067 
L 217.728863 268.251238 
L 220.768775 267.828181 
L 223.808687 267.828181 
L 226.848599 267.828181 
L 229.888511 267.405124 
L 232.928423 266.982067 
L 235.968335 267.405124 
L 239.008247 266.982067 
L 242.048159 266.135953 
L 245.08807 266.55901 
L 248.127982 266.55901 
L 251.167894 266.55901 
L 254.207806 266.55901 
L 257.247718 266.55901 
L 260.28763 264.866783 
L 263.327542 264.866783 
L 266.367454 264.866783 
L 269.407366 264.020669 
L 272.447278 264.866783 
L 275.48719 264.866783 
L 278.527102 264.443726 
L 281.567014 264.443726 
L 284.606926 264.020669 
L 287.646838 262.328442 
L 290.68675 264.020669 
L 293.726662 264.443726 
L 296.766574 263.174556 
L 299.806485 263.174556 
L 302.846397 264.020669 
L 305.886309 264.020669 
L 308.926221 263.597612 
L 311.966133 263.174556 
L 315.006045 263.174556 
L 318.045957 263.174556 
L 321.085869 263.174556 
L 324.125781 263.597612 
L 327.165693 262.751499 
L 330.205605 262.751499 
L 333.245517 262.751499 
L 336.285429 262.751499 
L 339.325341 262.751499 
L 342.365253 262.328442 
L 345.405165 262.751499 
L 348.445077 261.482328 
L 351.484989 261.905385 
L 354.5249 262.328442 
L 357.564812 261.905385 
L 360.604724 261.905385 
L 363.644636 261.482328 
L 366.684548 261.059271 
L 369.72446 261.482328 
" clip-path="url(#p6daa68f770)" style="fill: none; stroke: #8c564b; stroke-width: 1.5; stroke-linecap: square"/>
   </g>
   <g id="line2d_20">
    <path d="M 65.763665 288.981023 
L 66.037257 288.981023 
L 66.341248 288.557966 
L 66.645239 288.557966 
L 66.94923 288.557966 
L 67.253222 288.134909 
L 67.557213 288.134909 
L 67.861204 288.134909 
L 68.165195 288.134909 
L 68.469186 287.711852 
L 68.773178 288.134909 
L 71.81309 287.288795 
L 74.853001 286.442682 
L 77.892913 286.019625 
L 80.932825 285.596568 
L 83.972737 285.173511 
L 87.012649 285.173511 
L 90.052561 284.750454 
L 93.092473 284.327397 
L 96.132385 284.327397 
L 99.172297 283.904341 
L 102.212209 283.904341 
L 105.252121 283.904341 
L 108.292033 283.904341 
L 111.331945 283.481284 
L 114.371857 283.481284 
L 117.411769 283.481284 
L 120.451681 283.058227 
L 123.491593 283.058227 
L 126.531505 283.058227 
L 129.571417 282.63517 
L 132.611328 283.058227 
L 135.65124 282.63517 
L 138.691152 282.63517 
L 141.731064 282.63517 
L 144.770976 282.63517 
L 147.810888 282.63517 
L 150.8508 281.789056 
L 153.890712 282.212113 
L 156.930624 281.789056 
L 159.970536 282.212113 
L 163.010448 282.212113 
L 166.05036 281.366 
L 169.090272 281.366 
L 172.130184 281.789056 
L 175.170096 281.366 
L 178.210008 281.789056 
L 181.24992 280.942943 
L 184.289832 281.366 
L 187.329743 281.366 
L 190.369655 280.942943 
L 193.409567 281.366 
L 196.449479 280.942943 
L 199.489391 280.519886 
L 202.529303 280.942943 
L 205.569215 280.942943 
L 208.609127 280.942943 
L 211.649039 280.942943 
L 214.688951 280.942943 
L 217.728863 280.096829 
L 220.768775 280.096829 
L 223.808687 280.519886 
L 226.848599 280.519886 
L 229.888511 280.519886 
L 232.928423 280.096829 
L 235.968335 279.673772 
L 239.008247 280.096829 
L 242.048159 280.096829 
L 245.08807 279.673772 
L 248.127982 279.250715 
L 251.167894 279.673772 
L 254.207806 279.673772 
L 257.247718 279.250715 
L 260.28763 278.404602 
L 263.327542 279.673772 
L 266.367454 279.673772 
L 269.407366 279.250715 
L 272.447278 279.250715 
L 275.48719 279.250715 
L 278.527102 278.827659 
L 281.567014 279.250715 
L 284.606926 278.404602 
L 287.646838 278.827659 
L 290.68675 278.827659 
L 293.726662 278.827659 
L 296.766574 277.981545 
L 299.806485 278.404602 
L 302.846397 278.404602 
L 305.886309 278.404602 
L 308.926221 278.404602 
L 311.966133 277.981545 
L 315.006045 277.981545 
L 318.045957 277.981545 
L 321.085869 277.981545 
L 324.125781 277.558488 
L 327.165693 277.981545 
L 330.205605 277.558488 
L 333.245517 277.981545 
L 336.285429 277.558488 
L 339.325341 277.558488 
L 342.365253 277.558488 
L 345.405165 277.135431 
L 348.445077 277.558488 
L 351.484989 277.135431 
L 354.5249 277.135431 
L 357.564812 277.135431 
L 360.604724 277.135431 
L 363.644636 275.866261 
L 366.684548 276.712374 
L 369.72446 276.289318 
" clip-path="url(#p6daa68f770)" style="fill: none; stroke: #e377c2; stroke-width: 1.5; stroke-linecap: square"/>
   </g>
   <g id="line2d_21">
    <path d="M 65.763665 261.059271 
L 66.037257 260.636215 
L 66.341248 258.097874 
L 66.645239 255.982589 
L 66.94923 255.136476 
L 67.253222 254.290362 
L 67.557213 252.598135 
L 67.861204 251.752021 
L 68.165195 250.059794 
L 68.469186 250.059794 
L 68.773178 249.21368 
L 71.81309 241.1756 
L 74.853001 235.252804 
L 77.892913 228.906952 
L 80.932825 225.522497 
L 83.972737 221.291929 
L 87.012649 214.946076 
L 90.052561 210.715508 
L 93.092473 206.907996 
L 96.132385 204.369655 
L 99.172297 201.408258 
L 102.212209 198.44686 
L 105.252121 195.908519 
L 108.292033 186.601268 
L 111.331945 190.40878 
L 114.371857 187.447382 
L 117.411769 183.63987 
L 120.451681 184.909041 
L 123.491593 182.793757 
L 126.531505 177.717075 
L 129.571417 178.563188 
L 132.611328 176.447904 
L 135.65124 174.755677 
L 138.691152 173.486506 
L 141.731064 171.794279 
L 144.770976 170.525109 
L 147.810888 167.986767 
L 150.8508 167.563711 
L 153.890712 163.756199 
L 156.930624 164.179256 
L 159.970536 161.640915 
L 163.010448 160.371744 
L 166.05036 157.833403 
L 169.090272 157.833403 
L 172.130184 154.872006 
L 175.170096 154.448949 
L 178.210008 152.333665 
L 181.24992 149.372267 
L 184.289832 149.795324 
L 187.329743 149.372267 
L 190.369655 144.295585 
L 193.409567 141.334187 
L 196.449479 142.603357 
L 199.489391 141.334187 
L 202.529303 138.795846 
L 205.569215 135.834448 
L 208.609127 134.988334 
L 211.649039 132.87305 
L 214.688951 130.757766 
L 217.728863 129.488595 
L 220.768775 129.065539 
L 223.808687 125.681084 
L 226.848599 123.988857 
L 229.888511 122.719686 
L 232.928423 121.450516 
L 235.968335 118.066061 
L 239.008247 119.335231 
L 242.048159 115.950777 
L 245.08807 115.950777 
L 248.127982 111.720208 
L 251.167894 111.720208 
L 254.207806 107.912697 
L 257.247718 109.181867 
L 260.28763 102.836015 
L 263.327542 102.412958 
L 266.367454 104.528242 
L 269.407366 98.18239 
L 272.447278 99.028503 
L 275.48719 96.913219 
L 278.527102 98.605446 
L 281.567014 97.336276 
L 284.606926 94.374878 
L 287.646838 90.567366 
L 290.68675 90.14431 
L 293.726662 88.452082 
L 296.766574 89.721253 
L 299.806485 84.221514 
L 302.846397 85.490684 
L 305.886309 84.221514 
L 308.926221 83.3754 
L 311.966133 81.260116 
L 315.006045 77.875661 
L 318.045957 77.452605 
L 321.085869 74.491207 
L 324.125781 72.375923 
L 327.165693 71.106752 
L 330.205605 71.952866 
L 333.245517 67.722297 
L 336.285429 69.414525 
L 339.325341 65.183956 
L 342.365253 63.914786 
L 345.405165 65.607013 
L 348.445077 61.799502 
L 351.484989 61.376445 
L 354.5249 58.838104 
L 357.564812 55.453649 
L 360.604724 55.453649 
L 363.644636 55.876706 
L 366.684548 52.492251 
L 369.72446 50.800024 
" clip-path="url(#p6daa68f770)" style="fill: none; stroke: #7f7f7f; stroke-width: 1.5; stroke-linecap: square"/>
   </g>
   <g id="line2d_22">
    <path d="M 65.763665 288.134909 
L 66.037257 286.865738 
L 66.341248 286.019625 
L 66.645239 285.596568 
L 66.94923 285.173511 
L 67.253222 284.327397 
L 67.557213 283.481284 
L 67.861204 283.481284 
L 68.165195 283.058227 
L 68.469186 282.63517 
L 68.773178 282.212113 
L 71.81309 279.250715 
L 74.853001 277.135431 
L 77.892913 273.750977 
L 80.932825 272.058749 
L 83.972737 270.789579 
L 87.012649 269.520408 
L 90.052561 266.982067 
L 93.092473 266.55901 
L 96.132385 266.135953 
L 99.172297 265.28984 
L 102.212209 263.597612 
L 105.252121 264.020669 
L 108.292033 262.751499 
L 111.331945 262.328442 
L 114.371857 261.059271 
L 117.411769 261.059271 
L 120.451681 261.905385 
L 123.491593 260.213158 
L 126.531505 258.52093 
L 129.571417 258.52093 
L 132.611328 259.367044 
L 135.65124 259.367044 
L 138.691152 258.943987 
L 141.731064 258.097874 
L 144.770976 258.52093 
L 147.810888 257.25176 
L 150.8508 256.828703 
L 153.890712 256.828703 
L 156.930624 256.405646 
L 159.970536 254.290362 
L 163.010448 254.713419 
L 166.05036 253.867305 
L 169.090272 253.444248 
L 172.130184 252.598135 
L 175.170096 253.021192 
L 178.210008 252.598135 
L 181.24992 252.175078 
L 184.289832 252.175078 
L 187.329743 250.905907 
L 190.369655 251.328964 
L 193.409567 250.905907 
L 196.449479 250.905907 
L 199.489391 250.059794 
L 202.529303 249.21368 
L 205.569215 248.790623 
L 208.609127 249.21368 
L 211.649039 248.790623 
L 214.688951 247.098396 
L 217.728863 245.829225 
L 220.768775 247.94451 
L 223.808687 246.252282 
L 226.848599 246.252282 
L 229.888511 245.406169 
L 232.928423 246.252282 
L 235.968335 245.406169 
L 239.008247 244.136998 
L 242.048159 243.290884 
L 245.08807 243.713941 
L 248.127982 242.867827 
L 251.167894 243.713941 
L 254.207806 243.713941 
L 257.247718 242.444771 
L 260.28763 242.021714 
L 263.327542 241.598657 
L 266.367454 239.90643 
L 269.407366 240.752543 
L 272.447278 240.329486 
L 275.48719 239.90643 
L 278.527102 240.752543 
L 281.567014 239.483373 
L 284.606926 239.060316 
L 287.646838 240.329486 
L 290.68675 238.637259 
L 293.726662 237.791145 
L 296.766574 236.521975 
L 299.806485 238.214202 
L 302.846397 236.521975 
L 305.886309 236.945032 
L 308.926221 235.675861 
L 311.966133 234.406691 
L 315.006045 233.983634 
L 318.045957 233.560577 
L 321.085869 232.714463 
L 324.125781 233.560577 
L 327.165693 232.291407 
L 330.205605 232.714463 
L 333.245517 231.86835 
L 336.285429 232.291407 
L 339.325341 229.753066 
L 342.365253 231.445293 
L 345.405165 230.599179 
L 348.445077 230.176122 
L 351.484989 230.176122 
L 354.5249 230.176122 
L 357.564812 228.483895 
L 360.604724 228.906952 
L 363.644636 226.791668 
L 366.684548 228.483895 
L 369.72446 227.214725 
" clip-path="url(#p6daa68f770)" style="fill: none; stroke: #bcbd22; stroke-width: 1.5; stroke-linecap: square"/>
   </g>
   <g id="line2d_23">
    <path d="M 65.763665 201.831314 
L 66.037257 200.562144 
L 66.341248 199.71603 
L 66.645239 198.869917 
L 66.94923 198.869917 
L 67.253222 198.869917 
L 67.557213 198.023803 
L 67.861204 196.331576 
L 68.165195 197.177689 
L 68.469186 194.639348 
L 68.773178 196.331576 
L 71.81309 189.562666 
L 74.853001 182.3707 
L 77.892913 180.678473 
L 80.932825 175.178734 
L 83.972737 170.102052 
L 87.012649 167.563711 
L 90.052561 163.756199 
L 93.092473 158.679517 
L 96.132385 160.794801 
L 99.172297 156.98729 
L 102.212209 156.98729 
L 105.252121 152.333665 
L 108.292033 147.256983 
L 111.331945 147.256983 
L 114.371857 151.064494 
L 117.411769 145.141698 
L 120.451681 148.103096 
L 123.491593 143.872528 
L 126.531505 142.603357 
L 129.571417 144.295585 
L 132.611328 141.757244 
L 135.65124 141.334187 
L 138.691152 142.603357 
L 141.731064 141.757244 
L 144.770976 140.488073 
L 147.810888 140.065016 
L 150.8508 138.795846 
L 153.890712 138.795846 
L 156.930624 135.834448 
L 159.970536 136.680562 
L 163.010448 137.949732 
L 166.05036 134.988334 
L 169.090272 137.103618 
L 172.130184 136.680562 
L 175.170096 135.411391 
L 178.210008 133.296107 
L 181.24992 134.565277 
L 184.289832 132.87305 
L 187.329743 134.142221 
L 190.369655 133.719164 
L 193.409567 132.026936 
L 196.449479 133.296107 
L 199.489391 132.449993 
L 202.529303 131.60388 
L 205.569215 131.60388 
L 208.609127 131.60388 
L 211.649039 127.373311 
L 214.688951 127.796368 
L 217.728863 126.527198 
L 220.768775 126.950254 
L 223.808687 124.83497 
L 226.848599 125.681084 
L 229.888511 126.527198 
L 232.928423 123.5658 
L 235.968335 126.104141 
L 239.008247 125.258027 
L 242.048159 121.873572 
L 245.08807 123.5658 
L 248.127982 123.988857 
L 251.167894 122.719686 
L 254.207806 122.296629 
L 257.247718 122.719686 
L 260.28763 122.296629 
L 263.327542 119.758288 
L 266.367454 116.79689 
L 269.407366 118.912174 
L 272.447278 115.104663 
L 275.48719 116.79689 
L 278.527102 117.219947 
L 281.567014 118.066061 
L 284.606926 117.643004 
L 287.646838 118.489118 
L 290.68675 118.066061 
L 293.726662 115.950777 
L 296.766574 115.52772 
L 299.806485 115.52772 
L 302.846397 114.681606 
L 305.886309 114.258549 
L 308.926221 114.258549 
L 311.966133 113.835492 
L 315.006045 113.835492 
L 318.045957 112.566322 
L 321.085869 109.181867 
L 324.125781 111.297151 
L 327.165693 110.027981 
L 330.205605 108.75881 
L 333.245517 109.604924 
L 336.285429 111.297151 
L 339.325341 111.720208 
L 342.365253 109.181867 
L 345.405165 109.181867 
L 348.445077 107.066583 
L 351.484989 107.912697 
L 354.5249 108.75881 
L 357.564812 105.797413 
L 360.604724 104.105185 
L 363.644636 108.75881 
L 366.684548 98.605446 
L 369.72446 98.605446 
" clip-path="url(#p6daa68f770)" style="fill: none; stroke: #17becf; stroke-width: 1.5; stroke-linecap: square"/>
   </g>
   <g id="line2d_24">
    <path d="M 65.763665 291.096307 
L 66.037257 290.67325 
L 66.341248 290.67325 
L 66.645239 290.67325 
L 66.94923 290.67325 
L 67.253222 290.67325 
L 67.557213 290.250193 
L 67.861204 290.250193 
L 68.165195 290.250193 
L 68.469186 290.250193 
L 68.773178 290.250193 
L 71.81309 289.404079 
L 74.853001 288.557966 
L 77.892913 288.134909 
L 80.932825 287.711852 
L 83.972737 286.865738 
L 87.012649 286.019625 
L 90.052561 286.442682 
L 93.092473 286.019625 
L 96.132385 286.019625 
L 99.172297 285.596568 
L 102.212209 285.596568 
L 105.252121 285.173511 
L 108.292033 285.173511 
L 111.331945 285.173511 
L 114.371857 285.173511 
L 117.411769 284.750454 
L 120.451681 284.750454 
L 123.491593 284.327397 
L 126.531505 284.327397 
L 129.571417 284.327397 
L 132.611328 284.327397 
L 135.65124 284.327397 
L 138.691152 284.327397 
L 141.731064 283.904341 
L 144.770976 283.904341 
L 147.810888 283.904341 
L 150.8508 283.904341 
L 153.890712 283.481284 
L 156.930624 283.481284 
L 159.970536 283.481284 
L 163.010448 283.481284 
L 166.05036 283.058227 
L 169.090272 283.481284 
L 172.130184 283.058227 
L 175.170096 283.058227 
L 178.210008 283.058227 
L 181.24992 283.058227 
L 184.289832 282.63517 
L 187.329743 282.63517 
L 190.369655 283.058227 
L 193.409567 282.63517 
L 196.449479 282.212113 
L 199.489391 282.212113 
L 202.529303 282.212113 
L 205.569215 282.212113 
L 208.609127 282.212113 
L 211.649039 282.212113 
L 214.688951 282.212113 
L 217.728863 281.789056 
L 220.768775 281.789056 
L 223.808687 281.789056 
L 226.848599 281.789056 
L 229.888511 281.366 
L 232.928423 281.366 
L 235.968335 280.942943 
L 239.008247 281.366 
L 242.048159 280.942943 
L 245.08807 280.942943 
L 248.127982 280.942943 
L 251.167894 280.942943 
L 254.207806 280.942943 
L 257.247718 280.519886 
L 260.28763 280.942943 
L 263.327542 280.519886 
L 266.367454 280.519886 
L 269.407366 280.519886 
L 272.447278 280.519886 
L 275.48719 280.519886 
L 278.527102 280.519886 
L 281.567014 280.096829 
L 284.606926 280.096829 
L 287.646838 279.673772 
L 290.68675 280.096829 
L 293.726662 280.096829 
L 296.766574 279.673772 
L 299.806485 279.673772 
L 302.846397 279.673772 
L 305.886309 279.673772 
L 308.926221 279.673772 
L 311.966133 279.250715 
L 315.006045 279.250715 
L 318.045957 279.250715 
L 321.085869 279.250715 
L 324.125781 278.827659 
L 327.165693 278.827659 
L 330.205605 278.827659 
L 333.245517 278.404602 
L 336.285429 278.827659 
L 339.325341 278.827659 
L 342.365253 278.404602 
L 345.405165 277.981545 
L 348.445077 278.404602 
L 351.484989 278.404602 
L 354.5249 278.404602 
L 357.564812 277.981545 
L 360.604724 277.558488 
L 363.644636 277.558488 
L 366.684548 277.558488 
L 369.72446 277.981545 
" clip-path="url(#p6daa68f770)" style="fill: none; stroke: #1f77b4; stroke-width: 1.5; stroke-linecap: square"/>
   </g>
   <g id="line2d_25">
    <path d="M 65.763665 288.134909 
L 66.037257 286.442682 
L 66.341248 284.750454 
L 66.645239 283.058227 
L 66.94923 281.366 
L 67.253222 280.096829 
L 67.557213 278.827659 
L 67.861204 277.558488 
L 68.165195 276.712374 
L 68.469186 275.443204 
L 68.773178 275.020147 
L 71.81309 263.597612 
L 74.853001 259.367044 
L 77.892913 253.021192 
L 80.932825 247.94451 
L 83.972737 244.983112 
L 87.012649 238.637259 
L 90.052561 235.675861 
L 93.092473 233.983634 
L 96.132385 228.483895 
L 99.172297 227.637781 
L 102.212209 225.522497 
L 105.252121 219.176645 
L 108.292033 220.868872 
L 111.331945 216.215247 
L 114.371857 210.715508 
L 117.411769 214.099963 
L 120.451681 211.138565 
L 123.491593 209.446337 
L 126.531505 206.907996 
L 129.571417 206.061883 
L 132.611328 204.792712 
L 135.65124 201.831314 
L 138.691152 200.139087 
L 141.731064 194.639348 
L 144.770976 196.331576 
L 147.810888 193.370178 
L 150.8508 188.716552 
L 153.890712 190.831837 
L 156.930624 187.447382 
L 159.970536 186.178211 
L 163.010448 184.485984 
L 166.05036 183.63987 
L 169.090272 181.524586 
L 172.130184 178.986245 
L 175.170096 178.140132 
L 178.210008 177.294018 
L 181.24992 174.33262 
L 184.289832 172.217336 
L 187.329743 170.525109 
L 190.369655 167.563711 
L 193.409567 167.986767 
L 196.449479 164.179256 
L 199.489391 163.333142 
L 202.529303 162.487029 
L 205.569215 159.525631 
L 208.609127 159.102574 
L 211.649039 157.410347 
L 214.688951 155.295062 
L 217.728863 154.448949 
L 220.768775 151.064494 
L 223.808687 152.333665 
L 226.848599 151.487551 
L 229.888511 148.526153 
L 232.928423 146.833926 
L 235.968335 140.91113 
L 239.008247 142.1803 
L 242.048159 140.065016 
L 245.08807 138.795846 
L 248.127982 136.257505 
L 251.167894 134.988334 
L 254.207806 136.257505 
L 257.247718 132.449993 
L 260.28763 130.334709 
L 263.327542 126.950254 
L 266.367454 127.796368 
L 269.407366 126.950254 
L 272.447278 125.681084 
L 275.48719 123.5658 
L 278.527102 122.296629 
L 281.567014 121.450516 
L 284.606926 122.296629 
L 287.646838 119.335231 
L 290.68675 115.950777 
L 293.726662 114.681606 
L 296.766574 114.681606 
L 299.806485 114.258549 
L 302.846397 109.604924 
L 305.886309 109.604924 
L 308.926221 104.951299 
L 311.966133 109.604924 
L 315.006045 103.682128 
L 318.045957 103.682128 
L 321.085869 104.528242 
L 324.125781 101.566844 
L 327.165693 103.259072 
L 330.205605 96.490162 
L 333.245517 96.067105 
L 336.285429 92.259594 
L 339.325341 92.682651 
L 342.365253 94.374878 
L 345.405165 91.836537 
L 348.445077 88.029025 
L 351.484989 86.759855 
L 354.5249 85.913741 
L 357.564812 86.759855 
L 360.604724 83.3754 
L 363.644636 82.952343 
L 366.684548 88.875139 
L 369.72446 78.721775 
" clip-path="url(#p6daa68f770)" style="fill: none; stroke: #ff7f0e; stroke-width: 1.5; stroke-linecap: square"/>
   </g>
   <g id="patch_3">
    <path d="M 50.565625 304.44375 
L 50.565625 10.8 
" style="fill: none; stroke: #000000; stroke-width: 0.8; stroke-linejoin: miter; stroke-linecap: square"/>
   </g>
   <g id="patch_4">
    <path d="M 384.9225 304.44375 
L 384.9225 10.8 
" style="fill: none; stroke: #000000; stroke-width: 0.8; stroke-linejoin: miter; stroke-linecap: square"/>
   </g>
   <g id="patch_5">
    <path d="M 50.565625 304.44375 
L 384.9225 304.44375 
" style="fill: none; stroke: #000000; stroke-width: 0.8; stroke-linejoin: miter; stroke-linecap: square"/>
   </g>
   <g id="patch_6">
    <path d="M 50.565625 10.8 
L 384.9225 10.8 
" style="fill: none; stroke: #000000; stroke-width: 0.8; stroke-linejoin: miter; stroke-linecap: square"/>
   </g>
   <g id="text_16">
    <!-- trimou -->
    <g style="fill: #1f77b4" transform="translate(390.9225 286.534897) scale(0.08 -0.08)">
     <defs>
      <path id="DejaVuSans-6f" d="M 1959 3097 
Q 1497 3097 1228 2736 
Q 959 2375 959 1747 
Q 959 1119 1226 758 
Q 1494 397 1959 397 
Q 2419 397 2687 759 
Q 2956 1122 2956 1747 
Q 2956 2369 2687 2733 
Q 2419 3097 1959 3097 
z
M 1959 3584 
Q 2709 3584 3137 3096 
Q 3566 2609 3566 1747 
Q 3566 888 3137 398 
Q 2709 -91 1959 -91 
Q 1206 -91 779 398 
Q 353 888 353 1747 
Q 353 2609 779 3096 
Q 1206 3584 1959 3584 
z
" transform="scale(0.015625)"/>
     </defs>
     <use xlink:href="#DejaVuSans-74"/>
     <use xlink:href="#DejaVuSans-72" transform="translate(39.208984 0)"/>
     <use xlink:href="#DejaVuSans-69" transform="translate(80.322266 0)"/>
     <use xlink:href="#DejaVuSans-6d" transform="translate(108.105469 0)"/>
     <use xlink:href="#DejaVuSans-6f" transform="translate(205.517578 0)"/>
     <use xlink:href="#DejaVuSans-75" transform="translate(266.699219 0)"/>
    </g>
   </g>
   <g id="text_17">
    <!-- solomon -->
    <g style="fill: #e377c2" transform="translate(390.9225 278.496818) scale(0.08 -0.08)">
     <defs>
      <path id="DejaVuSans-6c" d="M 603 4863 
L 1178 4863 
L 1178 0 
L 603 0 
L 603 4863 
z
" transform="scale(0.015625)"/>
     </defs>
     <use xlink:href="#DejaVuSans-73"/>
     <use xlink:href="#DejaVuSans-6f" transform="translate(52.099609 0)"/>
     <use xlink:href="#DejaVuSans-6c" transform="translate(113.28125 0)"/>
     <use xlink:href="#DejaVuSans-6f" transform="translate(141.064453 0)"/>
     <use xlink:href="#DejaVuSans-6d" transform="translate(202.246094 0)"/>
     <use xlink:href="#DejaVuSans-6f" transform="translate(299.658203 0)"/>
     <use xlink:href="#DejaVuSans-6e" transform="translate(360.839844 0)"/>
    </g>
   </g>
   <g id="text_18">
    <!-- mustachej -->
    <g style="fill: #9467bd" transform="translate(390.9225 270.458738) scale(0.08 -0.08)">
     <defs>
      <path id="DejaVuSans-61" d="M 2194 1759 
Q 1497 1759 1228 1600 
Q 959 1441 959 1056 
Q 959 750 1161 570 
Q 1363 391 1709 391 
Q 2188 391 2477 730 
Q 2766 1069 2766 1631 
L 2766 1759 
L 2194 1759 
z
M 3341 1997 
L 3341 0 
L 2766 0 
L 2766 531 
Q 2569 213 2275 61 
Q 1981 -91 1556 -91 
Q 1019 -91 701 211 
Q 384 513 384 1019 
Q 384 1609 779 1909 
Q 1175 2209 1959 2209 
L 2766 2209 
L 2766 2266 
Q 2766 2663 2505 2880 
Q 2244 3097 1772 3097 
Q 1472 3097 1187 3025 
Q 903 2953 641 2809 
L 641 3341 
Q 956 3463 1253 3523 
Q 1550 3584 1831 3584 
Q 2591 3584 2966 3190 
Q 3341 2797 3341 1997 
z
" transform="scale(0.015625)"/>
      <path id="DejaVuSans-63" d="M 3122 3366 
L 3122 2828 
Q 2878 2963 2633 3030 
Q 2388 3097 2138 3097 
Q 1578 3097 1268 2742 
Q 959 2388 959 1747 
Q 959 1106 1268 751 
Q 1578 397 2138 397 
Q 2388 397 2633 464 
Q 2878 531 3122 666 
L 3122 134 
Q 2881 22 2623 -34 
Q 2366 -91 2075 -91 
Q 1284 -91 818 406 
Q 353 903 353 1747 
Q 353 2603 823 3093 
Q 1294 3584 2113 3584 
Q 2378 3584 2631 3529 
Q 2884 3475 3122 3366 
z
" transform="scale(0.015625)"/>
      <path id="DejaVuSans-68" d="M 3513 2113 
L 3513 0 
L 2938 0 
L 2938 2094 
Q 2938 2591 2744 2837 
Q 2550 3084 2163 3084 
Q 1697 3084 1428 2787 
Q 1159 2491 1159 1978 
L 1159 0 
L 581 0 
L 581 4863 
L 1159 4863 
L 1159 2956 
Q 1366 3272 1645 3428 
Q 1925 3584 2291 3584 
Q 2894 3584 3203 3211 
Q 3513 2838 3513 2113 
z
" transform="scale(0.015625)"/>
      <path id="DejaVuSans-6a" d="M 603 3500 
L 1178 3500 
L 1178 -63 
Q 1178 -731 923 -1031 
Q 669 -1331 103 -1331 
L -116 -1331 
L -116 -844 
L 38 -844 
Q 366 -844 484 -692 
Q 603 -541 603 -63 
L 603 3500 
z
M 603 4863 
L 1178 4863 
L 1178 4134 
L 603 4134 
L 603 4863 
z
" transform="scale(0.015625)"/>
     </defs>
     <use xlink:href="#DejaVuSans-6d"/>
     <use xlink:href="#DejaVuSans-75" transform="translate(97.412109 0)"/>
     <use xlink:href="#DejaVuSans-73" transform="translate(160.791016 0)"/>
     <use xlink:href="#DejaVuSans-74" transform="translate(212.890625 0)"/>
     <use xlink:href="#DejaVuSans-61" transform="translate(252.099609 0)"/>
     <use xlink:href="#DejaVuSans-63" transform="translate(313.378906 0)"/>
     <use xlink:href="#DejaVuSans-68" transform="translate(368.359375 0)"/>
     <use xlink:href="#DejaVuSans-65" transform="translate(431.738281 0)"/>
     <use xlink:href="#DejaVuSans-6a" transform="translate(493.261719 0)"/>
    </g>
   </g>
   <g id="text_19">
    <!-- pebble -->
    <g style="fill: #8c564b" transform="translate(390.9225 262.420658) scale(0.08 -0.08)">
     <defs>
      <path id="DejaVuSans-70" d="M 1159 525 
L 1159 -1331 
L 581 -1331 
L 581 3500 
L 1159 3500 
L 1159 2969 
Q 1341 3281 1617 3432 
Q 1894 3584 2278 3584 
Q 2916 3584 3314 3078 
Q 3713 2572 3713 1747 
Q 3713 922 3314 415 
Q 2916 -91 2278 -91 
Q 1894 -91 1617 61 
Q 1341 213 1159 525 
z
M 3116 1747 
Q 3116 2381 2855 2742 
Q 2594 3103 2138 3103 
Q 1681 3103 1420 2742 
Q 1159 2381 1159 1747 
Q 1159 1113 1420 752 
Q 1681 391 2138 391 
Q 2594 391 2855 752 
Q 3116 1113 3116 1747 
z
" transform="scale(0.015625)"/>
      <path id="DejaVuSans-62" d="M 3116 1747 
Q 3116 2381 2855 2742 
Q 2594 3103 2138 3103 
Q 1681 3103 1420 2742 
Q 1159 2381 1159 1747 
Q 1159 1113 1420 752 
Q 1681 391 2138 391 
Q 2594 391 2855 752 
Q 3116 1113 3116 1747 
z
M 1159 2969 
Q 1341 3281 1617 3432 
Q 1894 3584 2278 3584 
Q 2916 3584 3314 3078 
Q 3713 2572 3713 1747 
Q 3713 922 3314 415 
Q 2916 -91 2278 -91 
Q 1894 -91 1617 61 
Q 1341 213 1159 525 
L 1159 0 
L 581 0 
L 581 4863 
L 1159 4863 
L 1159 2969 
z
" transform="scale(0.015625)"/>
     </defs>
     <use xlink:href="#DejaVuSans-70"/>
     <use xlink:href="#DejaVuSans-65" transform="translate(63.476562 0)"/>
     <use xlink:href="#DejaVuSans-62" transform="translate(125 0)"/>
     <use xlink:href="#DejaVuSans-62" transform="translate(188.476562 0)"/>
     <use xlink:href="#DejaVuSans-6c" transform="translate(251.953125 0)"/>
     <use xlink:href="#DejaVuSans-65" transform="translate(279.736328 0)"/>
    </g>
   </g>
   <g id="text_20">
    <!-- handlebars -->
    <g style="fill: #ff7f0e" transform="translate(390.9225 254.382578) scale(0.08 -0.08)">
     <defs>
      <path id="DejaVuSans-64" d="M 2906 2969 
L 2906 4863 
L 3481 4863 
L 3481 0 
L 2906 0 
L 2906 525 
Q 2725 213 2448 61 
Q 2172 -91 1784 -91 
Q 1150 -91 751 415 
Q 353 922 353 1747 
Q 353 2572 751 3078 
Q 1150 3584 1784 3584 
Q 2172 3584 2448 3432 
Q 2725 3281 2906 2969 
z
M 947 1747 
Q 947 1113 1208 752 
Q 1469 391 1925 391 
Q 2381 391 2643 752 
Q 2906 1113 2906 1747 
Q 2906 2381 2643 2742 
Q 2381 3103 1925 3103 
Q 1469 3103 1208 2742 
Q 947 2381 947 1747 
z
" transform="scale(0.015625)"/>
     </defs>
     <use xlink:href="#DejaVuSans-68"/>
     <use xlink:href="#DejaVuSans-61" transform="translate(63.378906 0)"/>
     <use xlink:href="#DejaVuSans-6e" transform="translate(124.658203 0)"/>
     <use xlink:href="#DejaVuSans-64" transform="translate(188.037109 0)"/>
     <use xlink:href="#DejaVuSans-6c" transform="translate(251.513672 0)"/>
     <use xlink:href="#DejaVuSans-65" transform="translate(279.296875 0)"/>
     <use xlink:href="#DejaVuSans-62" transform="translate(340.820312 0)"/>
     <use xlink:href="#DejaVuSans-61" transform="translate(404.296875 0)"/>
     <use xlink:href="#DejaVuSans-72" transform="translate(465.576172 0)"/>
     <use xlink:href="#DejaVuSans-73" transform="translate(506.689453 0)"/>
    </g>
   </g>
   <g id="text_21">
    <!-- freemarker -->
    <g style="fill: #1f77b4" transform="translate(390.9225 234.07585) scale(0.08 -0.08)">
     <defs>
      <path id="DejaVuSans-66" d="M 2375 4863 
L 2375 4384 
L 1825 4384 
Q 1516 4384 1395 4259 
Q 1275 4134 1275 3809 
L 1275 3500 
L 2222 3500 
L 2222 3053 
L 1275 3053 
L 1275 0 
L 697 0 
L 697 3053 
L 147 3053 
L 147 3500 
L 697 3500 
L 697 3744 
Q 697 4328 969 4595 
Q 1241 4863 1831 4863 
L 2375 4863 
z
" transform="scale(0.015625)"/>
      <path id="DejaVuSans-6b" d="M 581 4863 
L 1159 4863 
L 1159 1991 
L 2875 3500 
L 3609 3500 
L 1753 1863 
L 3688 0 
L 2938 0 
L 1159 1709 
L 1159 0 
L 581 0 
L 581 4863 
z
" transform="scale(0.015625)"/>
     </defs>
     <use xlink:href="#DejaVuSans-66"/>
     <use xlink:href="#DejaVuSans-72" transform="translate(35.205078 0)"/>
     <use xlink:href="#DejaVuSans-65" transform="translate(74.068359 0)"/>
     <use xlink:href="#DejaVuSans-65" transform="translate(135.591797 0)"/>
     <use xlink:href="#DejaVuSans-6d" transform="translate(197.115234 0)"/>
     <use xlink:href="#DejaVuSans-61" transform="translate(294.527344 0)"/>
     <use xlink:href="#DejaVuSans-72" transform="translate(355.806641 0)"/>
     <use xlink:href="#DejaVuSans-6b" transform="translate(396.919922 0)"/>
     <use xlink:href="#DejaVuSans-65" transform="translate(451.205078 0)"/>
     <use xlink:href="#DejaVuSans-72" transform="translate(512.728516 0)"/>
    </g>
   </g>
   <g id="text_22">
    <!-- stringtree -->
    <g style="fill: #bcbd22" transform="translate(390.9225 226.03777) scale(0.08 -0.08)">
     <defs>
      <path id="DejaVuSans-67" d="M 2906 1791 
Q 2906 2416 2648 2759 
Q 2391 3103 1925 3103 
Q 1463 3103 1205 2759 
Q 947 2416 947 1791 
Q 947 1169 1205 825 
Q 1463 481 1925 481 
Q 2391 481 2648 825 
Q 2906 1169 2906 1791 
z
M 3481 434 
Q 3481 -459 3084 -895 
Q 2688 -1331 1869 -1331 
Q 1566 -1331 1297 -1286 
Q 1028 -1241 775 -1147 
L 775 -588 
Q 1028 -725 1275 -790 
Q 1522 -856 1778 -856 
Q 2344 -856 2625 -561 
Q 2906 -266 2906 331 
L 2906 616 
Q 2728 306 2450 153 
Q 2172 0 1784 0 
Q 1141 0 747 490 
Q 353 981 353 1791 
Q 353 2603 747 3093 
Q 1141 3584 1784 3584 
Q 2172 3584 2450 3431 
Q 2728 3278 2906 2969 
L 2906 3500 
L 3481 3500 
L 3481 434 
z
" transform="scale(0.015625)"/>
     </defs>
     <use xlink:href="#DejaVuSans-73"/>
     <use xlink:href="#DejaVuSans-74" transform="translate(52.099609 0)"/>
     <use xlink:href="#DejaVuSans-72" transform="translate(91.308594 0)"/>
     <use xlink:href="#DejaVuSans-69" transform="translate(132.421875 0)"/>
     <use xlink:href="#DejaVuSans-6e" transform="translate(160.205078 0)"/>
     <use xlink:href="#DejaVuSans-67" transform="translate(223.583984 0)"/>
     <use xlink:href="#DejaVuSans-74" transform="translate(287.060547 0)"/>
     <use xlink:href="#DejaVuSans-72" transform="translate(326.269531 0)"/>
     <use xlink:href="#DejaVuSans-65" transform="translate(365.132812 0)"/>
     <use xlink:href="#DejaVuSans-65" transform="translate(426.65625 0)"/>
    </g>
   </g>
   <g id="text_23">
    <!-- jangod -->
    <g style="fill: #2ca02c" transform="translate(390.9225 188.808768) scale(0.08 -0.08)">
     <use xlink:href="#DejaVuSans-6a"/>
     <use xlink:href="#DejaVuSans-61" transform="translate(27.783203 0)"/>
     <use xlink:href="#DejaVuSans-6e" transform="translate(89.0625 0)"/>
     <use xlink:href="#DejaVuSans-67" transform="translate(152.441406 0)"/>
     <use xlink:href="#DejaVuSans-6f" transform="translate(215.917969 0)"/>
     <use xlink:href="#DejaVuSans-64" transform="translate(277.099609 0)"/>
    </g>
   </g>
   <g id="text_24">
    <!-- thymeleaf -->
    <g style="fill: #17becf" transform="translate(390.9225 100.812946) scale(0.08 -0.08)">
     <defs>
      <path id="DejaVuSans-79" d="M 2059 -325 
Q 1816 -950 1584 -1140 
Q 1353 -1331 966 -1331 
L 506 -1331 
L 506 -850 
L 844 -850 
Q 1081 -850 1212 -737 
Q 1344 -625 1503 -206 
L 1606 56 
L 191 3500 
L 800 3500 
L 1894 763 
L 2988 3500 
L 3597 3500 
L 2059 -325 
z
" transform="scale(0.015625)"/>
     </defs>
     <use xlink:href="#DejaVuSans-74"/>
     <use xlink:href="#DejaVuSans-68" transform="translate(39.208984 0)"/>
     <use xlink:href="#DejaVuSans-79" transform="translate(102.587891 0)"/>
     <use xlink:href="#DejaVuSans-6d" transform="translate(161.767578 0)"/>
     <use xlink:href="#DejaVuSans-65" transform="translate(259.179688 0)"/>
     <use xlink:href="#DejaVuSans-6c" transform="translate(320.703125 0)"/>
     <use xlink:href="#DejaVuSans-65" transform="translate(348.486328 0)"/>
     <use xlink:href="#DejaVuSans-61" transform="translate(410.009766 0)"/>
     <use xlink:href="#DejaVuSans-66" transform="translate(471.289062 0)"/>
    </g>
   </g>
   <g id="text_25">
    <!-- velocity -->
    <g style="fill: #ff7f0e" transform="translate(390.9225 80.929275) scale(0.08 -0.08)">
     <defs>
      <path id="DejaVuSans-76" d="M 191 3500 
L 800 3500 
L 1894 563 
L 2988 3500 
L 3597 3500 
L 2284 0 
L 1503 0 
L 191 3500 
z
" transform="scale(0.015625)"/>
     </defs>
     <use xlink:href="#DejaVuSans-76"/>
     <use xlink:href="#DejaVuSans-65" transform="translate(59.179688 0)"/>
     <use xlink:href="#DejaVuSans-6c" transform="translate(120.703125 0)"/>
     <use xlink:href="#DejaVuSans-6f" transform="translate(148.486328 0)"/>
     <use xlink:href="#DejaVuSans-63" transform="translate(209.667969 0)"/>
     <use xlink:href="#DejaVuSans-69" transform="translate(264.648438 0)"/>
     <use xlink:href="#DejaVuSans-74" transform="translate(292.431641 0)"/>
     <use xlink:href="#DejaVuSans-79" transform="translate(331.640625 0)"/>
    </g>
   </g>
   <g id="text_26">
    <!-- stringtemplate -->
    <g style="fill: #7f7f7f" transform="translate(390.9225 53.007524) scale(0.08 -0.08)">
     <use xlink:href="#DejaVuSans-73"/>
     <use xlink:href="#DejaVuSans-74" transform="translate(52.099609 0)"/>
     <use xlink:href="#DejaVuSans-72" transform="translate(91.308594 0)"/>
     <use xlink:href="#DejaVuSans-69" transform="translate(132.421875 0)"/>
     <use xlink:href="#DejaVuSans-6e" transform="translate(160.205078 0)"/>
     <use xlink:href="#DejaVuSans-67" transform="translate(223.583984 0)"/>
     <use xlink:href="#DejaVuSans-74" transform="translate(287.060547 0)"/>
     <use xlink:href="#DejaVuSans-65" transform="translate(326.269531 0)"/>
     <use xlink:href="#DejaVuSans-6d" transform="translate(387.792969 0)"/>
     <use xlink:href="#DejaVuSans-70" transform="translate(485.205078 0)"/>
     <use xlink:href="#DejaVuSans-6c" transform="translate(548.681641 0)"/>
     <use xlink:href="#DejaVuSans-61" transform="translate(576.464844 0)"/>
     <use xlink:href="#DejaVuSans-74" transform="translate(637.744141 0)"/>
     <use xlink:href="#DejaVuSans-65" transform="translate(676.953125 0)"/>
    </g>
   </g>
   <g id="text_27">
    <!-- jte -->
    <g style="fill: #d62728" transform="translate(390.9225 26.354943) scale(0.08 -0.08)">
     <use xlink:href="#DejaVuSans-6a"/>
     <use xlink:href="#DejaVuSans-74" transform="translate(27.783203 0)"/>
     <use xlink:href="#DejaVuSans-65" transform="translate(66.992188 0)"/>
    </g>
   </g>
  </g>
 </g>
 <defs>
  <clipPath id="p6daa68f770">
   <rect x="50.565625" y="10.8" width="334.356875" height="293.64375"/>
  </clipPath>
 </defs>
</svg>
