<?xml version="1.0" encoding="utf-8" standalone="no"?>
<!DOCTYPE svg PUBLIC "-//W3C//DTD SVG 1.1//EN"
  "http://www.w3.org/Graphics/SVG/1.1/DTD/svg11.dtd">
<svg xmlns:xlink="http://www.w3.org/1999/xlink" width="460.8pt" height="345.6pt" viewBox="0 0 460.8 345.6" xmlns="http://www.w3.org/2000/svg" version="1.1">
 <metadata>
  <rdf:RDF xmlns:dc="http://purl.org/dc/elements/1.1/" xmlns:cc="http://creativecommons.org/ns#" xmlns:rdf="http://www.w3.org/1999/02/22-rdf-syntax-ns#">
   <cc:Work>
    <dc:type rdf:resource="http://purl.org/dc/dcmitype/StillImage"/>
    <dc:date>2025-04-13T17:19:50.002514</dc:date>
    <dc:format>image/svg+xml</dc:format>
    <dc:creator>
     <cc:Agent>
      <dc:title>Matplotlib v3.10.1, https://matplotlib.org/</dc:title>
     </cc:Agent>
    </dc:creator>
   </cc:Work>
  </rdf:RDF>
 </metadata>
 <defs>
  <style type="text/css">*{stroke-linejoin: round; stroke-linecap: butt}</style>
 </defs>
 <g id="figure_1">
  <g id="patch_1">
   <path d="M 0 345.6 
L 460.8 345.6 
L 460.8 0 
L 0 0 
z
" style="fill: #ffffff"/>
  </g>
  <g id="axes_1">
   <g id="patch_2">
    <path d="M 56.928125 304.44375 
L 384.9225 304.44375 
L 384.9225 11.2927 
L 56.928125 11.2927 
z
" style="fill: #ffffff"/>
   </g>
   <g id="matplotlib.axis_1">
    <g id="xtick_1">
     <g id="line2d_1">
      <defs>
       <path id="m99ee0f835f" d="M 0 0 
L 0 3.5 
" style="stroke: #000000; stroke-width: 0.8"/>
      </defs>
      <g>
       <use xlink:href="#m99ee0f835f" x="71.80714" y="304.44375" style="stroke: #000000; stroke-width: 0.8"/>
      </g>
     </g>
     <g id="text_1">
      <!-- 0 -->
      <g transform="translate(68.62589 319.042187) scale(0.1 -0.1)">
       <defs>
        <path id="DejaVuSans-30" d="M 2034 4250 
Q 1547 4250 1301 3770 
Q 1056 3291 1056 2328 
Q 1056 1369 1301 889 
Q 1547 409 2034 409 
Q 2525 409 2770 889 
Q 3016 1369 3016 2328 
Q 3016 3291 2770 3770 
Q 2525 4250 2034 4250 
z
M 2034 4750 
Q 2819 4750 3233 4129 
Q 3647 3509 3647 2328 
Q 3647 1150 3233 529 
Q 2819 -91 2034 -91 
Q 1250 -91 836 529 
Q 422 1150 422 2328 
Q 422 3509 836 4129 
Q 1250 4750 2034 4750 
z
" transform="scale(0.015625)"/>
       </defs>
       <use xlink:href="#DejaVuSans-30"/>
      </g>
     </g>
    </g>
    <g id="xtick_2">
     <g id="line2d_2">
      <g>
       <use xlink:href="#m99ee0f835f" x="131.448445" y="304.44375" style="stroke: #000000; stroke-width: 0.8"/>
      </g>
     </g>
     <g id="text_2">
      <!-- 2000 -->
      <g transform="translate(118.723445 319.042187) scale(0.1 -0.1)">
       <defs>
        <path id="DejaVuSans-32" d="M 1228 531 
L 3431 531 
L 3431 0 
L 469 0 
L 469 531 
Q 828 903 1448 1529 
Q 2069 2156 2228 2338 
Q 2531 2678 2651 2914 
Q 2772 3150 2772 3378 
Q 2772 3750 2511 3984 
Q 2250 4219 1831 4219 
Q 1534 4219 1204 4116 
Q 875 4013 500 3803 
L 500 4441 
Q 881 4594 1212 4672 
Q 1544 4750 1819 4750 
Q 2544 4750 2975 4387 
Q 3406 4025 3406 3419 
Q 3406 3131 3298 2873 
Q 3191 2616 2906 2266 
Q 2828 2175 2409 1742 
Q 1991 1309 1228 531 
z
" transform="scale(0.015625)"/>
       </defs>
       <use xlink:href="#DejaVuSans-32"/>
       <use xlink:href="#DejaVuSans-30" transform="translate(63.623047 0)"/>
       <use xlink:href="#DejaVuSans-30" transform="translate(127.246094 0)"/>
       <use xlink:href="#DejaVuSans-30" transform="translate(190.869141 0)"/>
      </g>
     </g>
    </g>
    <g id="xtick_3">
     <g id="line2d_3">
      <g>
       <use xlink:href="#m99ee0f835f" x="191.08975" y="304.44375" style="stroke: #000000; stroke-width: 0.8"/>
      </g>
     </g>
     <g id="text_3">
      <!-- 4000 -->
      <g transform="translate(178.36475 319.042187) scale(0.1 -0.1)">
       <defs>
        <path id="DejaVuSans-34" d="M 2419 4116 
L 825 1625 
L 2419 1625 
L 2419 4116 
z
M 2253 4666 
L 3047 4666 
L 3047 1625 
L 3713 1625 
L 3713 1100 
L 3047 1100 
L 3047 0 
L 2419 0 
L 2419 1100 
L 313 1100 
L 313 1709 
L 2253 4666 
z
" transform="scale(0.015625)"/>
       </defs>
       <use xlink:href="#DejaVuSans-34"/>
       <use xlink:href="#DejaVuSans-30" transform="translate(63.623047 0)"/>
       <use xlink:href="#DejaVuSans-30" transform="translate(127.246094 0)"/>
       <use xlink:href="#DejaVuSans-30" transform="translate(190.869141 0)"/>
      </g>
     </g>
    </g>
    <g id="xtick_4">
     <g id="line2d_4">
      <g>
       <use xlink:href="#m99ee0f835f" x="250.731055" y="304.44375" style="stroke: #000000; stroke-width: 0.8"/>
      </g>
     </g>
     <g id="text_4">
      <!-- 6000 -->
      <g transform="translate(238.006055 319.042187) scale(0.1 -0.1)">
       <defs>
        <path id="DejaVuSans-36" d="M 2113 2584 
Q 1688 2584 1439 2293 
Q 1191 2003 1191 1497 
Q 1191 994 1439 701 
Q 1688 409 2113 409 
Q 2538 409 2786 701 
Q 3034 994 3034 1497 
Q 3034 2003 2786 2293 
Q 2538 2584 2113 2584 
z
M 3366 4563 
L 3366 3988 
Q 3128 4100 2886 4159 
Q 2644 4219 2406 4219 
Q 1781 4219 1451 3797 
Q 1122 3375 1075 2522 
Q 1259 2794 1537 2939 
Q 1816 3084 2150 3084 
Q 2853 3084 3261 2657 
Q 3669 2231 3669 1497 
Q 3669 778 3244 343 
Q 2819 -91 2113 -91 
Q 1303 -91 875 529 
Q 447 1150 447 2328 
Q 447 3434 972 4092 
Q 1497 4750 2381 4750 
Q 2619 4750 2861 4703 
Q 3103 4656 3366 4563 
z
" transform="scale(0.015625)"/>
       </defs>
       <use xlink:href="#DejaVuSans-36"/>
       <use xlink:href="#DejaVuSans-30" transform="translate(63.623047 0)"/>
       <use xlink:href="#DejaVuSans-30" transform="translate(127.246094 0)"/>
       <use xlink:href="#DejaVuSans-30" transform="translate(190.869141 0)"/>
      </g>
     </g>
    </g>
    <g id="xtick_5">
     <g id="line2d_5">
      <g>
       <use xlink:href="#m99ee0f835f" x="310.37236" y="304.44375" style="stroke: #000000; stroke-width: 0.8"/>
      </g>
     </g>
     <g id="text_5">
      <!-- 8000 -->
      <g transform="translate(297.64736 319.042187) scale(0.1 -0.1)">
       <defs>
        <path id="DejaVuSans-38" d="M 2034 2216 
Q 1584 2216 1326 1975 
Q 1069 1734 1069 1313 
Q 1069 891 1326 650 
Q 1584 409 2034 409 
Q 2484 409 2743 651 
Q 3003 894 3003 1313 
Q 3003 1734 2745 1975 
Q 2488 2216 2034 2216 
z
M 1403 2484 
Q 997 2584 770 2862 
Q 544 3141 544 3541 
Q 544 4100 942 4425 
Q 1341 4750 2034 4750 
Q 2731 4750 3128 4425 
Q 3525 4100 3525 3541 
Q 3525 3141 3298 2862 
Q 3072 2584 2669 2484 
Q 3125 2378 3379 2068 
Q 3634 1759 3634 1313 
Q 3634 634 3220 271 
Q 2806 -91 2034 -91 
Q 1263 -91 848 271 
Q 434 634 434 1313 
Q 434 1759 690 2068 
Q 947 2378 1403 2484 
z
M 1172 3481 
Q 1172 3119 1398 2916 
Q 1625 2713 2034 2713 
Q 2441 2713 2670 2916 
Q 2900 3119 2900 3481 
Q 2900 3844 2670 4047 
Q 2441 4250 2034 4250 
Q 1625 4250 1398 4047 
Q 1172 3844 1172 3481 
z
" transform="scale(0.015625)"/>
       </defs>
       <use xlink:href="#DejaVuSans-38"/>
       <use xlink:href="#DejaVuSans-30" transform="translate(63.623047 0)"/>
       <use xlink:href="#DejaVuSans-30" transform="translate(127.246094 0)"/>
       <use xlink:href="#DejaVuSans-30" transform="translate(190.869141 0)"/>
      </g>
     </g>
    </g>
    <g id="xtick_6">
     <g id="line2d_6">
      <g>
       <use xlink:href="#m99ee0f835f" x="370.013665" y="304.44375" style="stroke: #000000; stroke-width: 0.8"/>
      </g>
     </g>
     <g id="text_6">
      <!-- 10000 -->
      <g transform="translate(354.107415 319.042187) scale(0.1 -0.1)">
       <defs>
        <path id="DejaVuSans-31" d="M 794 531 
L 1825 531 
L 1825 4091 
L 703 3866 
L 703 4441 
L 1819 4666 
L 2450 4666 
L 2450 531 
L 3481 531 
L 3481 0 
L 794 0 
L 794 531 
z
" transform="scale(0.015625)"/>
       </defs>
       <use xlink:href="#DejaVuSans-31"/>
       <use xlink:href="#DejaVuSans-30" transform="translate(63.623047 0)"/>
       <use xlink:href="#DejaVuSans-30" transform="translate(127.246094 0)"/>
       <use xlink:href="#DejaVuSans-30" transform="translate(190.869141 0)"/>
       <use xlink:href="#DejaVuSans-30" transform="translate(254.492188 0)"/>
      </g>
     </g>
    </g>
    <g id="text_7">
     <!-- n runs -->
     <g transform="translate(205.169844 332.720312) scale(0.1 -0.1)">
      <defs>
       <path id="DejaVuSans-6e" d="M 3513 2113 
L 3513 0 
L 2938 0 
L 2938 2094 
Q 2938 2591 2744 2837 
Q 2550 3084 2163 3084 
Q 1697 3084 1428 2787 
Q 1159 2491 1159 1978 
L 1159 0 
L 581 0 
L 581 3500 
L 1159 3500 
L 1159 2956 
Q 1366 3272 1645 3428 
Q 1925 3584 2291 3584 
Q 2894 3584 3203 3211 
Q 3513 2838 3513 2113 
z
" transform="scale(0.015625)"/>
       <path id="DejaVuSans-20" transform="scale(0.015625)"/>
       <path id="DejaVuSans-72" d="M 2631 2963 
Q 2534 3019 2420 3045 
Q 2306 3072 2169 3072 
Q 1681 3072 1420 2755 
Q 1159 2438 1159 1844 
L 1159 0 
L 581 0 
L 581 3500 
L 1159 3500 
L 1159 2956 
Q 1341 3275 1631 3429 
Q 1922 3584 2338 3584 
Q 2397 3584 2469 3576 
Q 2541 3569 2628 3553 
L 2631 2963 
z
" transform="scale(0.015625)"/>
       <path id="DejaVuSans-75" d="M 544 1381 
L 544 3500 
L 1119 3500 
L 1119 1403 
Q 1119 906 1312 657 
Q 1506 409 1894 409 
Q 2359 409 2629 706 
Q 2900 1003 2900 1516 
L 2900 3500 
L 3475 3500 
L 3475 0 
L 2900 0 
L 2900 538 
Q 2691 219 2414 64 
Q 2138 -91 1772 -91 
Q 1169 -91 856 284 
Q 544 659 544 1381 
z
M 1991 3584 
L 1991 3584 
z
" transform="scale(0.015625)"/>
       <path id="DejaVuSans-73" d="M 2834 3397 
L 2834 2853 
Q 2591 2978 2328 3040 
Q 2066 3103 1784 3103 
Q 1356 3103 1142 2972 
Q 928 2841 928 2578 
Q 928 2378 1081 2264 
Q 1234 2150 1697 2047 
L 1894 2003 
Q 2506 1872 2764 1633 
Q 3022 1394 3022 966 
Q 3022 478 2636 193 
Q 2250 -91 1575 -91 
Q 1294 -91 989 -36 
Q 684 19 347 128 
L 347 722 
Q 666 556 975 473 
Q 1284 391 1588 391 
Q 1994 391 2212 530 
Q 2431 669 2431 922 
Q 2431 1156 2273 1281 
Q 2116 1406 1581 1522 
L 1381 1569 
Q 847 1681 609 1914 
Q 372 2147 372 2553 
Q 372 3047 722 3315 
Q 1072 3584 1716 3584 
Q 2034 3584 2315 3537 
Q 2597 3491 2834 3397 
z
" transform="scale(0.015625)"/>
      </defs>
      <use xlink:href="#DejaVuSans-6e"/>
      <use xlink:href="#DejaVuSans-20" transform="translate(63.378906 0)"/>
      <use xlink:href="#DejaVuSans-72" transform="translate(95.166016 0)"/>
      <use xlink:href="#DejaVuSans-75" transform="translate(136.279297 0)"/>
      <use xlink:href="#DejaVuSans-6e" transform="translate(199.658203 0)"/>
      <use xlink:href="#DejaVuSans-73" transform="translate(263.037109 0)"/>
     </g>
    </g>
   </g>
   <g id="matplotlib.axis_2">
    <g id="ytick_1">
     <g id="line2d_7">
      <defs>
       <path id="m4c312540ee" d="M 0 0 
L -3.5 0 
" style="stroke: #000000; stroke-width: 0.8"/>
      </defs>
      <g>
       <use xlink:href="#m4c312540ee" x="56.928125" y="291.579777" style="stroke: #000000; stroke-width: 0.8"/>
      </g>
     </g>
     <g id="text_8">
      <!-- 0 -->
      <g transform="translate(43.565625 295.378995) scale(0.1 -0.1)">
       <use xlink:href="#DejaVuSans-30"/>
      </g>
     </g>
    </g>
    <g id="ytick_2">
     <g id="line2d_8">
      <g>
       <use xlink:href="#m4c312540ee" x="56.928125" y="245.472345" style="stroke: #000000; stroke-width: 0.8"/>
      </g>
     </g>
     <g id="text_9">
      <!-- 200 -->
      <g transform="translate(30.840625 249.271564) scale(0.1 -0.1)">
       <use xlink:href="#DejaVuSans-32"/>
       <use xlink:href="#DejaVuSans-30" transform="translate(63.623047 0)"/>
       <use xlink:href="#DejaVuSans-30" transform="translate(127.246094 0)"/>
      </g>
     </g>
    </g>
    <g id="ytick_3">
     <g id="line2d_9">
      <g>
       <use xlink:href="#m4c312540ee" x="56.928125" y="199.364913" style="stroke: #000000; stroke-width: 0.8"/>
      </g>
     </g>
     <g id="text_10">
      <!-- 400 -->
      <g transform="translate(30.840625 203.164132) scale(0.1 -0.1)">
       <use xlink:href="#DejaVuSans-34"/>
       <use xlink:href="#DejaVuSans-30" transform="translate(63.623047 0)"/>
       <use xlink:href="#DejaVuSans-30" transform="translate(127.246094 0)"/>
      </g>
     </g>
    </g>
    <g id="ytick_4">
     <g id="line2d_10">
      <g>
       <use xlink:href="#m4c312540ee" x="56.928125" y="153.257482" style="stroke: #000000; stroke-width: 0.8"/>
      </g>
     </g>
     <g id="text_11">
      <!-- 600 -->
      <g transform="translate(30.840625 157.0567) scale(0.1 -0.1)">
       <use xlink:href="#DejaVuSans-36"/>
       <use xlink:href="#DejaVuSans-30" transform="translate(63.623047 0)"/>
       <use xlink:href="#DejaVuSans-30" transform="translate(127.246094 0)"/>
      </g>
     </g>
    </g>
    <g id="ytick_5">
     <g id="line2d_11">
      <g>
       <use xlink:href="#m4c312540ee" x="56.928125" y="107.15005" style="stroke: #000000; stroke-width: 0.8"/>
      </g>
     </g>
     <g id="text_12">
      <!-- 800 -->
      <g transform="translate(30.840625 110.949269) scale(0.1 -0.1)">
       <use xlink:href="#DejaVuSans-38"/>
       <use xlink:href="#DejaVuSans-30" transform="translate(63.623047 0)"/>
       <use xlink:href="#DejaVuSans-30" transform="translate(127.246094 0)"/>
      </g>
     </g>
    </g>
    <g id="ytick_6">
     <g id="line2d_12">
      <g>
       <use xlink:href="#m4c312540ee" x="56.928125" y="61.042618" style="stroke: #000000; stroke-width: 0.8"/>
      </g>
     </g>
     <g id="text_13">
      <!-- 1000 -->
      <g transform="translate(24.478125 64.841837) scale(0.1 -0.1)">
       <use xlink:href="#DejaVuSans-31"/>
       <use xlink:href="#DejaVuSans-30" transform="translate(63.623047 0)"/>
       <use xlink:href="#DejaVuSans-30" transform="translate(127.246094 0)"/>
       <use xlink:href="#DejaVuSans-30" transform="translate(190.869141 0)"/>
      </g>
     </g>
    </g>
    <g id="ytick_7">
     <g id="line2d_13">
      <g>
       <use xlink:href="#m4c312540ee" x="56.928125" y="14.935187" style="stroke: #000000; stroke-width: 0.8"/>
      </g>
     </g>
     <g id="text_14">
      <!-- 1200 -->
      <g transform="translate(24.478125 18.734406) scale(0.1 -0.1)">
       <use xlink:href="#DejaVuSans-31"/>
       <use xlink:href="#DejaVuSans-32" transform="translate(63.623047 0)"/>
       <use xlink:href="#DejaVuSans-30" transform="translate(127.246094 0)"/>
       <use xlink:href="#DejaVuSans-30" transform="translate(190.869141 0)"/>
      </g>
     </g>
    </g>
    <g id="text_15">
     <!-- time (ms) -->
     <g transform="translate(18.398438 182.129944) rotate(-90) scale(0.1 -0.1)">
      <defs>
       <path id="DejaVuSans-74" d="M 1172 4494 
L 1172 3500 
L 2356 3500 
L 2356 3053 
L 1172 3053 
L 1172 1153 
Q 1172 725 1289 603 
Q 1406 481 1766 481 
L 2356 481 
L 2356 0 
L 1766 0 
Q 1100 0 847 248 
Q 594 497 594 1153 
L 594 3053 
L 172 3053 
L 172 3500 
L 594 3500 
L 594 4494 
L 1172 4494 
z
" transform="scale(0.015625)"/>
       <path id="DejaVuSans-69" d="M 603 3500 
L 1178 3500 
L 1178 0 
L 603 0 
L 603 3500 
z
M 603 4863 
L 1178 4863 
L 1178 4134 
L 603 4134 
L 603 4863 
z
" transform="scale(0.015625)"/>
       <path id="DejaVuSans-6d" d="M 3328 2828 
Q 3544 3216 3844 3400 
Q 4144 3584 4550 3584 
Q 5097 3584 5394 3201 
Q 5691 2819 5691 2113 
L 5691 0 
L 5113 0 
L 5113 2094 
Q 5113 2597 4934 2840 
Q 4756 3084 4391 3084 
Q 3944 3084 3684 2787 
Q 3425 2491 3425 1978 
L 3425 0 
L 2847 0 
L 2847 2094 
Q 2847 2600 2669 2842 
Q 2491 3084 2119 3084 
Q 1678 3084 1418 2786 
Q 1159 2488 1159 1978 
L 1159 0 
L 581 0 
L 581 3500 
L 1159 3500 
L 1159 2956 
Q 1356 3278 1631 3431 
Q 1906 3584 2284 3584 
Q 2666 3584 2933 3390 
Q 3200 3197 3328 2828 
z
" transform="scale(0.015625)"/>
       <path id="DejaVuSans-65" d="M 3597 1894 
L 3597 1613 
L 953 1613 
Q 991 1019 1311 708 
Q 1631 397 2203 397 
Q 2534 397 2845 478 
Q 3156 559 3463 722 
L 3463 178 
Q 3153 47 2828 -22 
Q 2503 -91 2169 -91 
Q 1331 -91 842 396 
Q 353 884 353 1716 
Q 353 2575 817 3079 
Q 1281 3584 2069 3584 
Q 2775 3584 3186 3129 
Q 3597 2675 3597 1894 
z
M 3022 2063 
Q 3016 2534 2758 2815 
Q 2500 3097 2075 3097 
Q 1594 3097 1305 2825 
Q 1016 2553 972 2059 
L 3022 2063 
z
" transform="scale(0.015625)"/>
       <path id="DejaVuSans-28" d="M 1984 4856 
Q 1566 4138 1362 3434 
Q 1159 2731 1159 2009 
Q 1159 1288 1364 580 
Q 1569 -128 1984 -844 
L 1484 -844 
Q 1016 -109 783 600 
Q 550 1309 550 2009 
Q 550 2706 781 3412 
Q 1013 4119 1484 4856 
L 1984 4856 
z
" transform="scale(0.015625)"/>
       <path id="DejaVuSans-29" d="M 513 4856 
L 1013 4856 
Q 1481 4119 1714 3412 
Q 1947 2706 1947 2009 
Q 1947 1309 1714 600 
Q 1481 -109 1013 -844 
L 513 -844 
Q 928 -128 1133 580 
Q 1338 1288 1338 2009 
Q 1338 2731 1133 3434 
Q 928 4138 513 4856 
z
" transform="scale(0.015625)"/>
      </defs>
      <use xlink:href="#DejaVuSans-74"/>
      <use xlink:href="#DejaVuSans-69" transform="translate(39.208984 0)"/>
      <use xlink:href="#DejaVuSans-6d" transform="translate(66.992188 0)"/>
      <use xlink:href="#DejaVuSans-65" transform="translate(164.404297 0)"/>
      <use xlink:href="#DejaVuSans-20" transform="translate(225.927734 0)"/>
      <use xlink:href="#DejaVuSans-28" transform="translate(257.714844 0)"/>
      <use xlink:href="#DejaVuSans-6d" transform="translate(296.728516 0)"/>
      <use xlink:href="#DejaVuSans-73" transform="translate(394.140625 0)"/>
      <use xlink:href="#DejaVuSans-29" transform="translate(446.240234 0)"/>
     </g>
    </g>
   </g>
   <g id="line2d_14">
    <path d="M 71.83696 280.052919 
L 72.105346 280.052919 
L 72.403553 279.822382 
L 72.701759 279.591844 
L 72.999966 279.361307 
L 73.298172 278.900233 
L 73.596379 278.900233 
L 73.894585 278.900233 
L 74.192792 277.978084 
L 74.490998 277.978084 
L 74.789205 277.747547 
L 77.77127 276.364324 
L 80.753335 275.442176 
L 83.735401 274.28949 
L 86.717466 273.597878 
L 89.699531 272.445192 
L 92.681596 271.753581 
L 95.663662 270.831432 
L 98.645727 270.139821 
L 101.627792 269.909284 
L 104.609857 269.448209 
L 107.591923 268.526061 
L 110.573988 268.295524 
L 113.556053 267.603912 
L 116.538118 267.373375 
L 119.520184 265.529078 
L 122.502249 265.529078 
L 125.484314 264.837466 
L 128.466379 264.837466 
L 131.448445 263.915318 
L 134.43051 263.915318 
L 137.412575 263.915318 
L 140.39464 263.68478 
L 143.376706 262.993169 
L 146.358771 263.454243 
L 149.340836 263.454243 
L 152.322901 263.223706 
L 155.304967 262.993169 
L 158.287032 261.840483 
L 161.269097 262.762632 
L 164.251162 262.762632 
L 167.233228 262.532095 
L 170.215293 262.07102 
L 173.197358 261.840483 
L 176.179423 262.07102 
L 179.161489 261.609946 
L 182.143554 261.148872 
L 185.125619 261.148872 
L 188.107684 261.609946 
L 191.08975 260.687797 
L 194.071815 261.148872 
L 197.05388 261.148872 
L 200.035945 260.687797 
L 203.018011 260.918335 
L 206.000076 260.687797 
L 208.982141 260.226723 
L 211.964206 259.535112 
L 214.946272 259.074037 
L 217.928337 259.765649 
L 220.910402 259.765649 
L 223.892467 259.535112 
L 226.874533 259.765649 
L 229.856598 259.074037 
L 232.838663 257.921351 
L 235.820728 259.304574 
L 238.802794 259.074037 
L 241.784859 258.382426 
L 244.766924 258.382426 
L 247.748989 257.921351 
L 250.731055 257.921351 
L 253.71312 258.151889 
L 256.695185 257.921351 
L 259.67725 257.690814 
L 262.659316 257.690814 
L 265.641381 257.22974 
L 268.623446 257.22974 
L 271.605511 256.768666 
L 274.587577 256.999203 
L 277.569642 256.768666 
L 280.551707 256.307591 
L 283.533772 256.538129 
L 286.515838 256.077054 
L 289.497903 255.846517 
L 292.479968 256.077054 
L 295.462033 255.846517 
L 298.444099 256.307591 
L 301.426164 256.077054 
L 304.408229 254.924368 
L 307.390294 255.385443 
L 310.37236 254.924368 
L 313.354425 255.846517 
L 316.33649 254.924368 
L 319.318555 254.463294 
L 322.300621 254.693831 
L 325.282686 254.924368 
L 328.264751 254.693831 
L 331.246816 254.693831 
L 334.228882 254.00222 
L 337.210947 254.693831 
L 340.193012 254.232757 
L 343.175078 253.080071 
L 346.157143 253.080071 
L 349.139208 253.310608 
L 352.121273 252.618997 
L 355.103339 252.38846 
L 358.085404 252.38846 
L 361.067469 252.157923 
L 364.049534 251.696848 
L 367.0316 251.696848 
L 370.013665 251.235774 
" clip-path="url(#pa84b45f677)" style="fill: none; stroke: #1f77b4; stroke-width: 1.5; stroke-linecap: square"/>
   </g>
   <g id="line2d_15">
    <path d="M 71.83696 289.735479 
L 72.105346 288.121719 
L 72.403553 286.507959 
L 72.701759 284.894199 
L 72.999966 283.280439 
L 73.298172 282.127753 
L 73.596379 280.975067 
L 73.894585 279.591844 
L 74.192792 277.51701 
L 74.490998 276.594861 
L 74.789205 275.672713 
L 77.77127 268.295524 
L 80.753335 263.223706 
L 83.735401 258.8435 
L 86.717466 255.385443 
L 89.699531 253.310608 
L 92.681596 248.930402 
L 95.663662 245.702882 
L 98.645727 243.628048 
L 101.627792 240.861602 
L 104.609857 238.325693 
L 107.591923 236.481396 
L 110.573988 233.253876 
L 113.556053 229.565281 
L 116.538118 224.954538 
L 119.520184 223.801852 
L 122.502249 219.88272 
L 125.484314 213.42768 
L 128.466379 208.5864 
L 131.448445 204.897805 
L 134.43051 198.673302 
L 137.412575 192.909873 
L 140.39464 187.838055 
L 143.376706 184.379998 
L 146.358771 178.155495 
L 149.340836 171.469917 
L 152.322901 169.856157 
L 155.304967 165.937025 
L 158.287032 162.248431 
L 161.269097 161.095745 
L 164.251162 159.943059 
L 167.233228 156.254465 
L 170.215293 152.796407 
L 173.197358 153.257482 
L 176.179423 150.260499 
L 179.161489 149.33835 
L 182.143554 145.419218 
L 185.125619 144.49707 
L 188.107684 138.042029 
L 191.08975 141.730624 
L 194.071815 136.197732 
L 197.05388 134.814509 
L 200.035945 131.356452 
L 203.018011 132.509137 
L 206.000076 130.66484 
L 208.982141 127.667857 
L 211.964206 123.057114 
L 214.946272 123.748725 
L 217.928337 123.518188 
L 220.910402 117.293685 
L 223.892467 115.910462 
L 226.874533 112.682942 
L 229.856598 111.99133 
L 232.838663 110.608107 
L 235.820728 105.305753 
L 238.802794 107.380587 
L 241.784859 105.766827 
L 244.766924 100.925547 
L 247.748989 99.08125 
L 250.731055 93.548358 
L 253.71312 93.317821 
L 256.695185 93.548358 
L 259.67725 88.015466 
L 262.659316 91.012449 
L 265.641381 86.86278 
L 268.623446 79.946665 
L 271.605511 85.710094 
L 274.587577 79.255054 
L 277.569642 78.563442 
L 280.551707 80.638277 
L 283.533772 77.871831 
L 286.515838 71.647328 
L 289.497903 73.722162 
L 292.479968 68.650345 
L 295.462033 67.958733 
L 298.444099 61.273156 
L 301.426164 59.889933 
L 304.408229 64.731213 
L 307.390294 64.500676 
L 310.37236 54.587578 
L 313.354425 54.587578 
L 316.33649 55.740264 
L 319.318555 49.285223 
L 322.300621 52.051669 
L 325.282686 54.357041 
L 328.264751 49.746298 
L 331.246816 51.129521 
L 334.228882 44.67448 
L 337.210947 45.135555 
L 340.193012 41.908034 
L 343.175078 41.677497 
L 346.157143 37.527828 
L 349.139208 29.459028 
L 352.121273 33.147622 
L 355.103339 29.459028 
L 358.085404 29.920102 
L 361.067469 32.225474 
L 364.049534 26.462045 
L 367.0316 24.617747 
L 370.013665 27.384193 
" clip-path="url(#pa84b45f677)" style="fill: none; stroke: #ff7f0e; stroke-width: 1.5; stroke-linecap: square"/>
   </g>
   <g id="line2d_16">
    <path d="M 71.83696 287.430108 
L 72.105346 286.969033 
L 72.403553 286.738496 
L 72.701759 286.277422 
L 72.999966 286.046885 
L 73.298172 285.816348 
L 73.596379 285.58581 
L 73.894585 285.124736 
L 74.192792 284.894199 
L 74.490998 284.663662 
L 74.789205 284.433125 
L 77.77127 282.35829 
L 80.753335 280.283456 
L 83.735401 279.361307 
L 86.717466 278.439159 
L 89.699531 277.055936 
L 92.681596 276.133787 
L 95.663662 275.211638 
L 98.645727 273.828415 
L 101.627792 273.597878 
L 104.609857 272.67573 
L 107.591923 272.214655 
L 110.573988 271.753581 
L 113.556053 271.292507 
L 116.538118 270.139821 
L 119.520184 269.448209 
L 122.502249 268.987135 
L 125.484314 268.295524 
L 128.466379 268.295524 
L 131.448445 267.142838 
L 134.43051 267.142838 
L 137.412575 266.220689 
L 140.39464 266.220689 
L 143.376706 265.068003 
L 146.358771 265.068003 
L 149.340836 264.145855 
L 152.322901 263.915318 
L 155.304967 262.762632 
L 158.287032 262.762632 
L 161.269097 262.07102 
L 164.251162 259.765649 
L 167.233228 259.996186 
L 170.215293 259.765649 
L 173.197358 258.8435 
L 176.179423 258.151889 
L 179.161489 257.921351 
L 182.143554 257.22974 
L 185.125619 256.999203 
L 188.107684 256.077054 
L 191.08975 256.077054 
L 194.071815 254.924368 
L 197.05388 255.154906 
L 200.035945 254.693831 
L 203.018011 254.00222 
L 206.000076 253.541145 
L 208.982141 252.157923 
L 211.964206 251.466311 
L 214.946272 251.466311 
L 217.928337 251.466311 
L 220.910402 250.7747 
L 223.892467 250.544162 
L 226.874533 249.622014 
L 229.856598 248.930402 
L 232.838663 248.930402 
L 235.820728 248.008254 
L 238.802794 247.316642 
L 241.784859 246.855568 
L 244.766924 246.394494 
L 247.748989 246.394494 
L 250.731055 244.780733 
L 253.71312 245.011271 
L 256.695185 244.780733 
L 259.67725 243.628048 
L 262.659316 244.089122 
L 265.641381 243.166973 
L 268.623446 241.553213 
L 271.605511 241.78375 
L 274.587577 241.553213 
L 277.569642 240.861602 
L 280.551707 239.247842 
L 283.533772 239.017305 
L 286.515838 239.478379 
L 289.497903 239.017305 
L 292.479968 238.55623 
L 295.462033 236.94247 
L 298.444099 236.94247 
L 301.426164 236.481396 
L 304.408229 236.250859 
L 307.390294 234.637099 
L 310.37236 233.023338 
L 313.354425 230.948504 
L 316.33649 232.792801 
L 319.318555 232.10119 
L 322.300621 233.023338 
L 325.282686 231.870653 
L 328.264751 231.179041 
L 331.246816 230.48743 
L 334.228882 230.256893 
L 337.210947 226.337761 
L 340.193012 227.720984 
L 343.175078 228.412595 
L 346.157143 227.029372 
L 349.139208 226.337761 
L 352.121273 224.954538 
L 355.103339 225.415612 
L 358.085404 224.724001 
L 361.067469 223.571315 
L 364.049534 224.032389 
L 367.0316 222.418629 
L 370.013665 222.879703 
" clip-path="url(#pa84b45f677)" style="fill: none; stroke: #2ca02c; stroke-width: 1.5; stroke-linecap: square"/>
   </g>
   <g id="line2d_17">
    <path d="M 71.83696 155.562853 
L 72.105346 154.640705 
L 72.403553 154.17963 
L 72.701759 155.101779 
L 72.999966 153.488019 
L 73.298172 153.026945 
L 73.596379 153.488019 
L 73.894585 154.410167 
L 74.192792 154.640705 
L 74.490998 152.56587 
L 74.789205 153.949093 
L 77.77127 145.880293 
L 80.753335 152.56587 
L 83.735401 151.643722 
L 86.717466 148.416201 
L 89.699531 149.799424 
L 92.681596 149.568887 
L 95.663662 150.491036 
L 98.645727 148.646739 
L 101.627792 149.799424 
L 104.609857 150.029961 
L 107.591923 150.029961 
L 110.573988 147.494053 
L 113.556053 149.799424 
L 116.538118 148.416201 
L 119.520184 149.107813 
L 122.502249 147.263516 
L 125.484314 149.33835 
L 128.466379 146.11083 
L 131.448445 147.955127 
L 134.43051 146.571904 
L 137.412575 145.880293 
L 140.39464 149.107813 
L 143.376706 149.33835 
L 146.358771 147.263516 
L 149.340836 148.646739 
L 152.322901 148.185664 
L 155.304967 146.802441 
L 158.287032 147.955127 
L 161.269097 147.494053 
L 164.251162 148.185664 
L 167.233228 147.032978 
L 170.215293 147.263516 
L 173.197358 146.571904 
L 176.179423 148.646739 
L 179.161489 145.880293 
L 182.143554 147.494053 
L 185.125619 145.880293 
L 188.107684 147.72459 
L 191.08975 144.49707 
L 194.071815 147.032978 
L 197.05388 146.571904 
L 200.035945 147.263516 
L 203.018011 147.263516 
L 206.000076 146.11083 
L 208.982141 144.727607 
L 211.964206 145.649755 
L 214.946272 144.727607 
L 217.928337 147.955127 
L 220.910402 144.958144 
L 223.892467 142.191698 
L 226.874533 144.958144 
L 229.856598 144.958144 
L 232.838663 146.802441 
L 235.820728 145.880293 
L 238.802794 145.880293 
L 241.784859 145.649755 
L 244.766924 143.344384 
L 247.748989 145.188681 
L 250.731055 144.49707 
L 253.71312 145.188681 
L 256.695185 143.574921 
L 259.67725 143.344384 
L 262.659316 144.035995 
L 265.641381 145.188681 
L 268.623446 144.035995 
L 271.605511 143.344384 
L 274.587577 143.113847 
L 277.569642 145.649755 
L 280.551707 143.574921 
L 283.533772 143.574921 
L 286.515838 142.191698 
L 289.497903 141.961161 
L 292.479968 143.344384 
L 295.462033 140.808475 
L 298.444099 144.266533 
L 301.426164 143.574921 
L 304.408229 143.805458 
L 307.390294 142.191698 
L 310.37236 144.035995 
L 313.354425 144.035995 
L 316.33649 144.958144 
L 319.318555 143.113847 
L 322.300621 142.191698 
L 325.282686 141.500087 
L 328.264751 143.574921 
L 331.246816 141.961161 
L 334.228882 142.88331 
L 337.210947 143.805458 
L 340.193012 142.652772 
L 343.175078 144.035995 
L 346.157143 141.269549 
L 349.139208 142.652772 
L 352.121273 141.039012 
L 355.103339 142.191698 
L 358.085404 139.194715 
L 361.067469 141.730624 
L 364.049534 141.730624 
L 367.0316 142.422235 
L 370.013665 142.652772 
" clip-path="url(#pa84b45f677)" style="fill: none; stroke: #d62728; stroke-width: 1.5; stroke-linecap: square"/>
   </g>
   <g id="line2d_18">
    <path d="M 71.83696 290.427091 
L 72.105346 290.427091 
L 72.403553 289.504942 
L 72.701759 289.504942 
L 72.999966 289.043868 
L 73.298172 289.043868 
L 73.596379 288.813331 
L 73.894585 288.582794 
L 74.192792 288.582794 
L 74.490998 288.352256 
L 74.789205 288.121719 
L 77.77127 286.969033 
L 80.753335 286.277422 
L 83.735401 285.58581 
L 86.717466 285.355273 
L 89.699531 284.894199 
L 92.681596 284.202588 
L 95.663662 283.97205 
L 98.645727 283.741513 
L 101.627792 283.510976 
L 104.609857 283.280439 
L 107.591923 283.049902 
L 110.573988 282.35829 
L 113.556053 282.588827 
L 116.538118 282.819365 
L 119.520184 282.35829 
L 122.502249 282.127753 
L 125.484314 282.127753 
L 128.466379 281.897216 
L 131.448445 281.436142 
L 134.43051 281.436142 
L 137.412575 281.436142 
L 140.39464 281.205604 
L 143.376706 281.205604 
L 146.358771 280.975067 
L 149.340836 280.975067 
L 152.322901 280.513993 
L 155.304967 280.513993 
L 158.287032 279.822382 
L 161.269097 279.822382 
L 164.251162 279.361307 
L 167.233228 280.052919 
L 170.215293 279.361307 
L 173.197358 279.591844 
L 176.179423 279.13077 
L 179.161489 279.361307 
L 182.143554 279.13077 
L 185.125619 279.13077 
L 188.107684 278.900233 
L 191.08975 278.669696 
L 194.071815 278.439159 
L 197.05388 278.439159 
L 200.035945 277.978084 
L 203.018011 278.208621 
L 206.000076 277.978084 
L 208.982141 277.51701 
L 211.964206 277.51701 
L 214.946272 277.055936 
L 217.928337 277.51701 
L 220.910402 277.286473 
L 223.892467 276.825398 
L 226.874533 276.825398 
L 229.856598 276.825398 
L 232.838663 276.594861 
L 235.820728 276.594861 
L 238.802794 276.364324 
L 241.784859 276.133787 
L 244.766924 276.364324 
L 247.748989 276.133787 
L 250.731055 275.90325 
L 253.71312 275.672713 
L 256.695185 275.672713 
L 259.67725 275.442176 
L 262.659316 275.211638 
L 265.641381 275.211638 
L 268.623446 274.981101 
L 271.605511 274.750564 
L 274.587577 274.750564 
L 277.569642 274.750564 
L 280.551707 274.750564 
L 283.533772 274.28949 
L 286.515838 274.520027 
L 289.497903 274.28949 
L 292.479968 274.058953 
L 295.462033 273.828415 
L 298.444099 273.828415 
L 301.426164 272.906267 
L 304.408229 273.597878 
L 307.390294 273.367341 
L 310.37236 273.367341 
L 313.354425 273.367341 
L 316.33649 273.136804 
L 319.318555 272.906267 
L 322.300621 272.906267 
L 325.282686 272.906267 
L 328.264751 272.67573 
L 331.246816 272.67573 
L 334.228882 271.753581 
L 337.210947 272.445192 
L 340.193012 272.214655 
L 343.175078 271.523044 
L 346.157143 271.753581 
L 349.139208 271.753581 
L 352.121273 271.292507 
L 355.103339 270.831432 
L 358.085404 271.292507 
L 361.067469 270.831432 
L 364.049534 271.06197 
L 367.0316 269.448209 
L 370.013665 270.831432 
" clip-path="url(#pa84b45f677)" style="fill: none; stroke: #9467bd; stroke-width: 1.5; stroke-linecap: square"/>
   </g>
   <g id="line2d_19">
    <path d="M 71.83696 253.310608 
L 72.105346 253.541145 
L 72.403553 255.61598 
L 72.701759 252.849534 
L 72.999966 253.310608 
L 73.298172 253.310608 
L 73.596379 251.696848 
L 73.894585 252.618997 
L 74.192792 254.00222 
L 74.490998 252.849534 
L 74.789205 253.310608 
L 77.77127 251.466311 
L 80.753335 249.622014 
L 83.735401 249.622014 
L 86.717466 248.699865 
L 89.699531 247.086105 
L 92.681596 247.777717 
L 95.663662 245.472345 
L 98.645727 246.855568 
L 101.627792 245.933419 
L 104.609857 245.933419 
L 107.591923 245.011271 
L 110.573988 244.780733 
L 113.556053 243.858585 
L 116.538118 244.550196 
L 119.520184 246.394494 
L 122.502249 244.319659 
L 125.484314 245.011271 
L 128.466379 245.011271 
L 131.448445 244.780733 
L 134.43051 243.166973 
L 137.412575 243.628048 
L 140.39464 245.241808 
L 143.376706 245.011271 
L 146.358771 244.550196 
L 149.340836 242.705899 
L 152.322901 243.858585 
L 155.304967 243.166973 
L 158.287032 242.014288 
L 161.269097 242.936436 
L 164.251162 242.936436 
L 167.233228 241.78375 
L 170.215293 242.014288 
L 173.197358 240.400527 
L 176.179423 242.936436 
L 179.161489 242.244825 
L 182.143554 240.631065 
L 185.125619 242.244825 
L 188.107684 241.78375 
L 191.08975 240.400527 
L 194.071815 240.400527 
L 197.05388 240.16999 
L 200.035945 240.631065 
L 203.018011 240.16999 
L 206.000076 237.173007 
L 208.982141 240.400527 
L 211.964206 240.861602 
L 214.946272 239.247842 
L 217.928337 239.939453 
L 220.910402 241.092139 
L 223.892467 239.708916 
L 226.874533 240.400527 
L 229.856598 239.708916 
L 232.838663 240.631065 
L 235.820728 239.478379 
L 238.802794 240.16999 
L 241.784859 240.400527 
L 244.766924 240.400527 
L 247.748989 239.017305 
L 250.731055 239.939453 
L 253.71312 238.55623 
L 256.695185 238.325693 
L 259.67725 238.55623 
L 262.659316 238.55623 
L 265.641381 239.708916 
L 268.623446 239.708916 
L 271.605511 238.55623 
L 274.587577 238.095156 
L 277.569642 236.481396 
L 280.551707 238.095156 
L 283.533772 239.017305 
L 286.515838 238.786767 
L 289.497903 237.634082 
L 292.479968 236.020321 
L 295.462033 238.55623 
L 298.444099 236.94247 
L 301.426164 238.095156 
L 304.408229 239.247842 
L 307.390294 238.095156 
L 310.37236 236.711933 
L 313.354425 237.173007 
L 316.33649 237.173007 
L 319.318555 236.250859 
L 322.300621 236.250859 
L 325.282686 236.481396 
L 328.264751 235.32871 
L 331.246816 234.176024 
L 334.228882 236.711933 
L 337.210947 235.559247 
L 340.193012 234.406561 
L 343.175078 234.176024 
L 346.157143 236.94247 
L 349.139208 236.020321 
L 352.121273 236.020321 
L 355.103339 235.559247 
L 358.085404 236.94247 
L 361.067469 234.637099 
L 364.049534 233.945487 
L 367.0316 236.250859 
L 370.013665 235.32871 
" clip-path="url(#pa84b45f677)" style="fill: none; stroke: #8c564b; stroke-width: 1.5; stroke-linecap: square"/>
   </g>
   <g id="line2d_20">
    <path d="M 71.83696 289.966016 
L 72.105346 289.735479 
L 72.403553 289.735479 
L 72.701759 289.504942 
L 72.999966 289.504942 
L 73.298172 289.274405 
L 73.596379 289.043868 
L 73.894585 289.043868 
L 74.192792 289.043868 
L 74.490998 288.813331 
L 74.789205 288.813331 
L 77.77127 288.352256 
L 80.753335 287.891182 
L 83.735401 286.738496 
L 86.717466 287.199571 
L 89.699531 286.738496 
L 92.681596 286.507959 
L 95.663662 286.277422 
L 98.645727 286.277422 
L 101.627792 285.816348 
L 104.609857 286.046885 
L 107.591923 285.816348 
L 110.573988 285.58581 
L 113.556053 285.355273 
L 116.538118 285.355273 
L 119.520184 285.355273 
L 122.502249 284.663662 
L 125.484314 284.433125 
L 128.466379 285.124736 
L 131.448445 284.894199 
L 134.43051 284.894199 
L 137.412575 284.663662 
L 140.39464 284.663662 
L 143.376706 284.433125 
L 146.358771 284.433125 
L 149.340836 284.433125 
L 152.322901 284.202588 
L 155.304967 283.510976 
L 158.287032 283.97205 
L 161.269097 283.741513 
L 164.251162 283.741513 
L 167.233228 283.510976 
L 170.215293 283.280439 
L 173.197358 283.510976 
L 176.179423 283.280439 
L 179.161489 283.280439 
L 182.143554 282.588827 
L 185.125619 282.819365 
L 188.107684 283.049902 
L 191.08975 282.819365 
L 194.071815 282.35829 
L 197.05388 282.127753 
L 200.035945 282.588827 
L 203.018011 282.588827 
L 206.000076 282.127753 
L 208.982141 282.127753 
L 211.964206 282.127753 
L 214.946272 281.666679 
L 217.928337 281.666679 
L 220.910402 281.897216 
L 223.892467 281.666679 
L 226.874533 281.666679 
L 229.856598 281.436142 
L 232.838663 281.436142 
L 235.820728 281.436142 
L 238.802794 281.205604 
L 241.784859 280.975067 
L 244.766924 280.975067 
L 247.748989 280.975067 
L 250.731055 280.513993 
L 253.71312 280.74453 
L 256.695185 280.74453 
L 259.67725 280.283456 
L 262.659316 280.513993 
L 265.641381 279.13077 
L 268.623446 279.361307 
L 271.605511 279.361307 
L 274.587577 279.361307 
L 277.569642 278.900233 
L 280.551707 278.900233 
L 283.533772 278.669696 
L 286.515838 279.13077 
L 289.497903 279.13077 
L 292.479968 278.900233 
L 295.462033 278.669696 
L 298.444099 278.669696 
L 301.426164 278.669696 
L 304.408229 278.208621 
L 307.390294 278.208621 
L 310.37236 277.747547 
L 313.354425 278.208621 
L 316.33649 278.208621 
L 319.318555 277.978084 
L 322.300621 277.978084 
L 325.282686 277.747547 
L 328.264751 277.51701 
L 331.246816 277.747547 
L 334.228882 277.51701 
L 337.210947 277.51701 
L 340.193012 277.51701 
L 343.175078 277.055936 
L 346.157143 277.51701 
L 349.139208 276.825398 
L 352.121273 276.825398 
L 355.103339 277.055936 
L 358.085404 276.594861 
L 361.067469 276.594861 
L 364.049534 277.055936 
L 367.0316 276.825398 
L 370.013665 276.825398 
" clip-path="url(#pa84b45f677)" style="fill: none; stroke: #e377c2; stroke-width: 1.5; stroke-linecap: square"/>
   </g>
   <g id="line2d_21">
    <path d="M 71.83696 275.90325 
L 72.105346 273.597878 
L 72.403553 272.445192 
L 72.701759 271.06197 
L 72.999966 270.139821 
L 73.298172 269.448209 
L 73.596379 268.064986 
L 73.894585 267.834449 
L 74.192792 267.142838 
L 74.490998 266.220689 
L 74.789205 265.298541 
L 77.77127 259.304574 
L 80.753335 254.924368 
L 83.735401 250.313625 
L 86.717466 245.933419 
L 89.699531 242.705899 
L 92.681596 238.55623 
L 95.663662 237.173007 
L 98.645727 234.867636 
L 101.627792 233.71495 
L 104.609857 230.717967 
L 107.591923 230.948504 
L 110.573988 229.104207 
L 113.556053 227.029372 
L 116.538118 225.876687 
L 119.520184 225.415612 
L 122.502249 223.571315 
L 125.484314 223.571315 
L 128.466379 222.418629 
L 131.448445 221.265943 
L 134.43051 219.421646 
L 137.412575 217.577349 
L 140.39464 217.116274 
L 143.376706 215.733052 
L 146.358771 215.271977 
L 149.340836 213.42768 
L 152.322901 212.505531 
L 155.304967 210.891771 
L 158.287032 210.891771 
L 161.269097 208.125325 
L 164.251162 208.5864 
L 167.233228 206.97264 
L 170.215293 204.436731 
L 173.197358 201.439748 
L 176.179423 201.900822 
L 179.161489 200.517599 
L 182.143554 200.978673 
L 185.125619 196.36793 
L 188.107684 195.445782 
L 191.08975 196.36793 
L 194.071815 196.137393 
L 197.05388 195.445782 
L 200.035945 193.601484 
L 203.018011 192.679336 
L 206.000076 189.91289 
L 208.982141 186.915907 
L 211.964206 187.146444 
L 214.946272 188.529667 
L 217.928337 187.146444 
L 220.910402 185.532684 
L 223.892467 183.918924 
L 226.874533 181.844089 
L 229.856598 181.613552 
L 232.838663 179.538718 
L 235.820728 177.463883 
L 238.802794 176.772272 
L 241.784859 177.002809 
L 244.766924 176.772272 
L 247.748989 173.544752 
L 250.731055 173.775289 
L 253.71312 169.62562 
L 256.695185 171.930992 
L 259.67725 172.622603 
L 262.659316 170.086694 
L 265.641381 168.01186 
L 268.623446 166.3981 
L 271.605511 165.706488 
L 274.587577 166.628637 
L 277.569642 164.323265 
L 280.551707 162.940042 
L 283.533772 164.553802 
L 286.515838 163.401117 
L 289.497903 161.787357 
L 292.479968 159.943059 
L 295.462033 159.481985 
L 298.444099 161.095745 
L 301.426164 156.485002 
L 304.408229 153.949093 
L 307.390294 158.098762 
L 310.37236 153.718556 
L 313.354425 158.329299 
L 316.33649 153.257482 
L 319.318555 150.491036 
L 322.300621 152.56587 
L 325.282686 151.182647 
L 328.264751 150.491036 
L 331.246816 151.874259 
L 334.228882 148.877276 
L 337.210947 150.029961 
L 340.193012 147.955127 
L 343.175078 147.494053 
L 346.157143 144.727607 
L 349.139208 145.188681 
L 352.121273 140.116864 
L 355.103339 136.197732 
L 358.085404 143.344384 
L 361.067469 142.652772 
L 364.049534 138.964178 
L 367.0316 141.269549 
L 370.013665 136.197732 
" clip-path="url(#pa84b45f677)" style="fill: none; stroke: #7f7f7f; stroke-width: 1.5; stroke-linecap: square"/>
   </g>
   <g id="line2d_22">
    <path d="M 71.83696 289.274405 
L 72.105346 288.352256 
L 72.403553 287.660645 
L 72.701759 287.199571 
L 72.999966 286.507959 
L 73.298172 286.277422 
L 73.596379 286.046885 
L 73.894585 285.58581 
L 74.192792 285.355273 
L 74.490998 285.124736 
L 74.789205 285.124736 
L 77.77127 283.280439 
L 80.753335 280.513993 
L 83.735401 279.13077 
L 86.717466 277.978084 
L 89.699531 277.978084 
L 92.681596 276.594861 
L 95.663662 276.133787 
L 98.645727 275.211638 
L 101.627792 275.211638 
L 104.609857 274.28949 
L 107.591923 272.445192 
L 110.573988 273.597878 
L 113.556053 272.906267 
L 116.538118 273.367341 
L 119.520184 272.906267 
L 122.502249 271.984118 
L 125.484314 271.292507 
L 128.466379 271.753581 
L 131.448445 270.831432 
L 134.43051 270.600895 
L 137.412575 270.370358 
L 140.39464 269.217672 
L 143.376706 269.448209 
L 146.358771 268.756598 
L 149.340836 268.756598 
L 152.322901 268.295524 
L 155.304967 268.295524 
L 158.287032 267.142838 
L 161.269097 266.220689 
L 164.251162 266.220689 
L 167.233228 266.451226 
L 170.215293 265.529078 
L 173.197358 265.990152 
L 176.179423 264.837466 
L 179.161489 265.529078 
L 182.143554 264.837466 
L 185.125619 264.145855 
L 188.107684 263.915318 
L 191.08975 264.145855 
L 194.071815 262.301557 
L 197.05388 261.840483 
L 200.035945 262.762632 
L 203.018011 262.301557 
L 206.000076 262.301557 
L 208.982141 262.762632 
L 211.964206 261.840483 
L 214.946272 261.609946 
L 217.928337 260.918335 
L 220.910402 260.45726 
L 223.892467 256.999203 
L 226.874533 259.996186 
L 229.856598 259.996186 
L 232.838663 258.8435 
L 235.820728 259.074037 
L 238.802794 257.921351 
L 241.784859 259.074037 
L 244.766924 258.382426 
L 247.748989 257.22974 
L 250.731055 257.921351 
L 253.71312 256.307591 
L 256.695185 256.538129 
L 259.67725 255.154906 
L 262.659316 257.22974 
L 265.641381 256.538129 
L 268.623446 255.846517 
L 271.605511 255.61598 
L 274.587577 255.385443 
L 277.569642 256.077054 
L 280.551707 254.693831 
L 283.533772 255.154906 
L 286.515838 254.693831 
L 289.497903 254.232757 
L 292.479968 254.00222 
L 295.462033 253.771683 
L 298.444099 253.080071 
L 301.426164 253.080071 
L 304.408229 251.927385 
L 307.390294 252.849534 
L 310.37236 252.157923 
L 313.354425 251.466311 
L 316.33649 251.005237 
L 319.318555 251.466311 
L 322.300621 251.005237 
L 325.282686 249.852551 
L 328.264751 251.005237 
L 331.246816 251.235774 
L 334.228882 250.083088 
L 337.210947 249.391477 
L 340.193012 248.469328 
L 343.175078 250.083088 
L 346.157143 249.852551 
L 349.139208 248.008254 
L 352.121273 248.238791 
L 355.103339 247.777717 
L 358.085404 248.008254 
L 361.067469 248.008254 
L 364.049534 247.547179 
L 367.0316 248.008254 
L 370.013665 246.394494 
" clip-path="url(#pa84b45f677)" style="fill: none; stroke: #bcbd22; stroke-width: 1.5; stroke-linecap: square"/>
   </g>
   <g id="line2d_23">
    <path d="M 71.83696 216.424663 
L 72.105346 215.04144 
L 72.403553 212.505531 
L 72.701759 212.505531 
L 72.999966 212.044457 
L 73.298172 211.352846 
L 73.596379 209.278011 
L 73.894585 206.742102 
L 74.192792 209.047474 
L 74.490998 208.125325 
L 74.789205 207.433714 
L 77.77127 200.748136 
L 80.753335 198.212228 
L 83.735401 194.75417 
L 86.717466 191.987724 
L 89.699531 191.065576 
L 92.681596 189.221278 
L 95.663662 185.532684 
L 98.645727 186.915907 
L 101.627792 185.302147 
L 104.609857 183.918924 
L 107.591923 181.844089 
L 110.573988 181.613552 
L 113.556053 179.308181 
L 116.538118 180.230329 
L 119.520184 179.769255 
L 122.502249 177.233346 
L 125.484314 177.463883 
L 128.466379 177.233346 
L 131.448445 177.002809 
L 134.43051 175.158512 
L 137.412575 174.4669 
L 140.39464 174.236363 
L 143.376706 173.544752 
L 146.358771 171.469917 
L 149.340836 169.856157 
L 152.322901 169.856157 
L 155.304967 171.008843 
L 158.287032 170.086694 
L 161.269097 170.086694 
L 164.251162 167.550786 
L 167.233228 168.472934 
L 170.215293 167.781323 
L 173.197358 166.167563 
L 176.179423 166.167563 
L 179.161489 166.628637 
L 182.143554 165.475951 
L 185.125619 164.323265 
L 188.107684 164.78434 
L 191.08975 163.631654 
L 194.071815 162.940042 
L 197.05388 162.478968 
L 200.035945 162.478968 
L 203.018011 158.790373 
L 206.000076 161.095745 
L 208.982141 160.634671 
L 211.964206 159.020911 
L 214.946272 159.020911 
L 217.928337 159.020911 
L 220.910402 158.098762 
L 223.892467 157.176613 
L 226.874533 153.949093 
L 229.856598 155.562853 
L 232.838663 154.871242 
L 235.820728 155.562853 
L 238.802794 155.101779 
L 241.784859 154.17963 
L 244.766924 154.410167 
L 247.748989 153.026945 
L 250.731055 152.335333 
L 253.71312 152.104796 
L 256.695185 151.643722 
L 259.67725 148.185664 
L 262.659316 150.491036 
L 265.641381 147.263516 
L 268.623446 149.33835 
L 271.605511 149.33835 
L 274.587577 148.416201 
L 277.569642 147.72459 
L 280.551707 145.419218 
L 283.533772 146.802441 
L 286.515838 146.341367 
L 289.497903 146.571904 
L 292.479968 144.49707 
L 295.462033 139.886327 
L 298.444099 143.805458 
L 301.426164 143.113847 
L 304.408229 143.574921 
L 307.390294 142.88331 
L 310.37236 142.422235 
L 313.354425 142.422235 
L 316.33649 141.730624 
L 319.318555 140.116864 
L 322.300621 140.116864 
L 325.282686 138.503104 
L 328.264751 140.116864 
L 331.246816 139.194715 
L 334.228882 138.272566 
L 337.210947 137.119881 
L 340.193012 136.889343 
L 343.175078 138.272566 
L 346.157143 138.042029 
L 349.139208 135.736658 
L 352.121273 137.119881 
L 355.103339 135.967195 
L 358.085404 135.736658 
L 361.067469 136.197732 
L 364.049534 135.736658 
L 367.0316 126.284634 
L 370.013665 133.89236 
" clip-path="url(#pa84b45f677)" style="fill: none; stroke: #17becf; stroke-width: 1.5; stroke-linecap: square"/>
   </g>
   <g id="line2d_24">
    <path d="M 71.83696 291.118702 
L 72.105346 290.888165 
L 72.403553 290.888165 
L 72.701759 290.657628 
L 72.999966 290.427091 
L 73.298172 290.427091 
L 73.596379 290.427091 
L 73.894585 290.196554 
L 74.192792 289.966016 
L 74.490998 289.966016 
L 74.789205 289.735479 
L 77.77127 289.043868 
L 80.753335 288.352256 
L 83.735401 288.121719 
L 86.717466 287.660645 
L 89.699531 287.199571 
L 92.681596 286.969033 
L 95.663662 286.738496 
L 98.645727 286.738496 
L 101.627792 286.507959 
L 104.609857 286.277422 
L 107.591923 286.046885 
L 110.573988 286.046885 
L 113.556053 285.816348 
L 116.538118 285.816348 
L 119.520184 285.58581 
L 122.502249 285.124736 
L 125.484314 285.355273 
L 128.466379 285.355273 
L 131.448445 284.894199 
L 134.43051 284.894199 
L 137.412575 284.433125 
L 140.39464 284.663662 
L 143.376706 284.202588 
L 146.358771 284.433125 
L 149.340836 284.202588 
L 152.322901 283.97205 
L 155.304967 283.97205 
L 158.287032 283.741513 
L 161.269097 283.741513 
L 164.251162 283.049902 
L 167.233228 283.510976 
L 170.215293 283.280439 
L 173.197358 283.280439 
L 176.179423 283.049902 
L 179.161489 282.819365 
L 182.143554 282.588827 
L 185.125619 282.588827 
L 188.107684 282.588827 
L 191.08975 282.588827 
L 194.071815 282.35829 
L 197.05388 282.35829 
L 200.035945 282.127753 
L 203.018011 281.897216 
L 206.000076 282.127753 
L 208.982141 282.127753 
L 211.964206 281.897216 
L 214.946272 281.666679 
L 217.928337 281.897216 
L 220.910402 281.205604 
L 223.892467 281.436142 
L 226.874533 281.666679 
L 229.856598 281.436142 
L 232.838663 281.205604 
L 235.820728 280.283456 
L 238.802794 280.283456 
L 241.784859 280.283456 
L 244.766924 280.283456 
L 247.748989 280.052919 
L 250.731055 279.822382 
L 253.71312 280.052919 
L 256.695185 279.822382 
L 259.67725 279.822382 
L 262.659316 279.591844 
L 265.641381 279.591844 
L 268.623446 279.591844 
L 271.605511 279.591844 
L 274.587577 279.13077 
L 277.569642 279.361307 
L 280.551707 279.591844 
L 283.533772 279.361307 
L 286.515838 278.669696 
L 289.497903 279.13077 
L 292.479968 279.13077 
L 295.462033 278.900233 
L 298.444099 278.669696 
L 301.426164 278.900233 
L 304.408229 278.669696 
L 307.390294 278.208621 
L 310.37236 278.439159 
L 313.354425 278.439159 
L 316.33649 278.208621 
L 319.318555 278.669696 
L 322.300621 278.439159 
L 325.282686 278.439159 
L 328.264751 278.208621 
L 331.246816 278.208621 
L 334.228882 278.208621 
L 337.210947 277.978084 
L 340.193012 277.978084 
L 343.175078 277.747547 
L 346.157143 277.978084 
L 349.139208 277.747547 
L 352.121273 277.747547 
L 355.103339 277.747547 
L 358.085404 277.51701 
L 361.067469 277.286473 
L 364.049534 277.51701 
L 367.0316 277.055936 
L 370.013665 277.055936 
" clip-path="url(#pa84b45f677)" style="fill: none; stroke: #1f77b4; stroke-width: 1.5; stroke-linecap: square"/>
   </g>
   <g id="line2d_25">
    <path d="M 71.83696 289.274405 
L 72.105346 288.121719 
L 72.403553 286.277422 
L 72.701759 285.355273 
L 72.999966 284.202588 
L 73.298172 283.049902 
L 73.596379 282.35829 
L 73.894585 281.436142 
L 74.192792 280.283456 
L 74.490998 279.361307 
L 74.789205 278.900233 
L 77.77127 271.06197 
L 80.753335 266.681763 
L 83.735401 262.993169 
L 86.717466 258.8435 
L 89.699531 255.61598 
L 92.681596 253.080071 
L 95.663662 249.852551 
L 98.645727 247.777717 
L 101.627792 245.472345 
L 104.609857 244.089122 
L 107.591923 242.244825 
L 110.573988 240.400527 
L 113.556053 237.403544 
L 116.538118 236.250859 
L 119.520184 232.10119 
L 122.502249 233.71495 
L 125.484314 232.792801 
L 128.466379 230.256893 
L 131.448445 228.412595 
L 134.43051 227.490447 
L 137.412575 226.107224 
L 140.39464 224.954538 
L 143.376706 222.188092 
L 146.358771 221.035406 
L 149.340836 219.88272 
L 152.322901 218.499497 
L 155.304967 216.424663 
L 158.287032 214.119291 
L 161.269097 213.658217 
L 164.251162 211.583383 
L 167.233228 210.20016 
L 170.215293 208.5864 
L 173.197358 207.433714 
L 176.179423 207.203177 
L 179.161489 205.589417 
L 182.143554 204.667268 
L 185.125619 202.592434 
L 188.107684 200.517599 
L 191.08975 200.056525 
L 194.071815 198.212228 
L 197.05388 196.598467 
L 200.035945 196.829005 
L 203.018011 194.293096 
L 206.000076 193.370947 
L 208.982141 191.52665 
L 211.964206 191.296113 
L 214.946272 188.760204 
L 217.928337 187.376981 
L 220.910402 187.146444 
L 223.892467 186.454832 
L 226.874533 184.841072 
L 229.856598 182.766238 
L 232.838663 181.613552 
L 235.820728 180.460866 
L 238.802794 178.847106 
L 241.784859 176.772272 
L 244.766924 176.772272 
L 247.748989 175.619586 
L 250.731055 173.314214 
L 253.71312 173.544752 
L 256.695185 171.469917 
L 259.67725 170.778306 
L 262.659316 168.934008 
L 265.641381 168.472934 
L 268.623446 165.245414 
L 271.605511 166.3981 
L 274.587577 164.323265 
L 277.569642 164.323265 
L 280.551707 162.017894 
L 283.533772 159.712522 
L 286.515838 159.712522 
L 289.497903 157.407151 
L 292.479968 157.176613 
L 295.462033 154.640705 
L 298.444099 154.871242 
L 301.426164 153.257482 
L 304.408229 153.488019 
L 307.390294 152.104796 
L 310.37236 149.33835 
L 313.354425 149.107813 
L 316.33649 149.107813 
L 319.318555 146.802441 
L 322.300621 145.880293 
L 325.282686 143.574921 
L 328.264751 143.805458 
L 331.246816 142.422235 
L 334.228882 142.422235 
L 337.210947 137.811492 
L 340.193012 138.042029 
L 343.175078 138.042029 
L 346.157143 135.967195 
L 349.139208 134.353435 
L 352.121273 133.89236 
L 355.103339 134.353435 
L 358.085404 132.2786 
L 361.067469 130.895377 
L 364.049534 130.203766 
L 367.0316 129.281617 
L 370.013665 126.054097 
" clip-path="url(#pa84b45f677)" style="fill: none; stroke: #ff7f0e; stroke-width: 1.5; stroke-linecap: square"/>
   </g>
   <g id="patch_3">
    <path d="M 56.928125 304.44375 
L 56.928125 11.2927 
" style="fill: none; stroke: #000000; stroke-width: 0.8; stroke-linejoin: miter; stroke-linecap: square"/>
   </g>
   <g id="patch_4">
    <path d="M 384.9225 304.44375 
L 384.9225 11.2927 
" style="fill: none; stroke: #000000; stroke-width: 0.8; stroke-linejoin: miter; stroke-linecap: square"/>
   </g>
   <g id="patch_5">
    <path d="M 56.928125 304.44375 
L 384.9225 304.44375 
" style="fill: none; stroke: #000000; stroke-width: 0.8; stroke-linejoin: miter; stroke-linecap: square"/>
   </g>
   <g id="patch_6">
    <path d="M 56.928125 11.2927 
L 384.9225 11.2927 
" style="fill: none; stroke: #000000; stroke-width: 0.8; stroke-linejoin: miter; stroke-linecap: square"/>
   </g>
   <g id="text_16">
    <!-- trimou -->
    <g style="fill: #1f77b4" transform="translate(390.9225 286.640625) scale(0.08 -0.08)">
     <defs>
      <path id="DejaVuSans-6f" d="M 1959 3097 
Q 1497 3097 1228 2736 
Q 959 2375 959 1747 
Q 959 1119 1226 758 
Q 1494 397 1959 397 
Q 2419 397 2687 759 
Q 2956 1122 2956 1747 
Q 2956 2369 2687 2733 
Q 2419 3097 1959 3097 
z
M 1959 3584 
Q 2709 3584 3137 3096 
Q 3566 2609 3566 1747 
Q 3566 888 3137 398 
Q 2709 -91 1959 -91 
Q 1206 -91 779 398 
Q 353 888 353 1747 
Q 353 2609 779 3096 
Q 1206 3584 1959 3584 
z
" transform="scale(0.015625)"/>
     </defs>
     <use xlink:href="#DejaVuSans-74"/>
     <use xlink:href="#DejaVuSans-72" transform="translate(39.208984 0)"/>
     <use xlink:href="#DejaVuSans-69" transform="translate(80.322266 0)"/>
     <use xlink:href="#DejaVuSans-6d" transform="translate(108.105469 0)"/>
     <use xlink:href="#DejaVuSans-6f" transform="translate(205.517578 0)"/>
     <use xlink:href="#DejaVuSans-75" transform="translate(266.699219 0)"/>
    </g>
   </g>
   <g id="text_17">
    <!-- solomon -->
    <g style="fill: #e377c2" transform="translate(390.9225 279.032898) scale(0.08 -0.08)">
     <defs>
      <path id="DejaVuSans-6c" d="M 603 4863 
L 1178 4863 
L 1178 0 
L 603 0 
L 603 4863 
z
" transform="scale(0.015625)"/>
     </defs>
     <use xlink:href="#DejaVuSans-73"/>
     <use xlink:href="#DejaVuSans-6f" transform="translate(52.099609 0)"/>
     <use xlink:href="#DejaVuSans-6c" transform="translate(113.28125 0)"/>
     <use xlink:href="#DejaVuSans-6f" transform="translate(141.064453 0)"/>
     <use xlink:href="#DejaVuSans-6d" transform="translate(202.246094 0)"/>
     <use xlink:href="#DejaVuSans-6f" transform="translate(299.658203 0)"/>
     <use xlink:href="#DejaVuSans-6e" transform="translate(360.839844 0)"/>
    </g>
   </g>
   <g id="text_18">
    <!-- mustachej -->
    <g style="fill: #9467bd" transform="translate(390.9225 271.425172) scale(0.08 -0.08)">
     <defs>
      <path id="DejaVuSans-61" d="M 2194 1759 
Q 1497 1759 1228 1600 
Q 959 1441 959 1056 
Q 959 750 1161 570 
Q 1363 391 1709 391 
Q 2188 391 2477 730 
Q 2766 1069 2766 1631 
L 2766 1759 
L 2194 1759 
z
M 3341 1997 
L 3341 0 
L 2766 0 
L 2766 531 
Q 2569 213 2275 61 
Q 1981 -91 1556 -91 
Q 1019 -91 701 211 
Q 384 513 384 1019 
Q 384 1609 779 1909 
Q 1175 2209 1959 2209 
L 2766 2209 
L 2766 2266 
Q 2766 2663 2505 2880 
Q 2244 3097 1772 3097 
Q 1472 3097 1187 3025 
Q 903 2953 641 2809 
L 641 3341 
Q 956 3463 1253 3523 
Q 1550 3584 1831 3584 
Q 2591 3584 2966 3190 
Q 3341 2797 3341 1997 
z
" transform="scale(0.015625)"/>
      <path id="DejaVuSans-63" d="M 3122 3366 
L 3122 2828 
Q 2878 2963 2633 3030 
Q 2388 3097 2138 3097 
Q 1578 3097 1268 2742 
Q 959 2388 959 1747 
Q 959 1106 1268 751 
Q 1578 397 2138 397 
Q 2388 397 2633 464 
Q 2878 531 3122 666 
L 3122 134 
Q 2881 22 2623 -34 
Q 2366 -91 2075 -91 
Q 1284 -91 818 406 
Q 353 903 353 1747 
Q 353 2603 823 3093 
Q 1294 3584 2113 3584 
Q 2378 3584 2631 3529 
Q 2884 3475 3122 3366 
z
" transform="scale(0.015625)"/>
      <path id="DejaVuSans-68" d="M 3513 2113 
L 3513 0 
L 2938 0 
L 2938 2094 
Q 2938 2591 2744 2837 
Q 2550 3084 2163 3084 
Q 1697 3084 1428 2787 
Q 1159 2491 1159 1978 
L 1159 0 
L 581 0 
L 581 4863 
L 1159 4863 
L 1159 2956 
Q 1366 3272 1645 3428 
Q 1925 3584 2291 3584 
Q 2894 3584 3203 3211 
Q 3513 2838 3513 2113 
z
" transform="scale(0.015625)"/>
      <path id="DejaVuSans-6a" d="M 603 3500 
L 1178 3500 
L 1178 -63 
Q 1178 -731 923 -1031 
Q 669 -1331 103 -1331 
L -116 -1331 
L -116 -844 
L 38 -844 
Q 366 -844 484 -692 
Q 603 -541 603 -63 
L 603 3500 
z
M 603 4863 
L 1178 4863 
L 1178 4134 
L 603 4134 
L 603 4863 
z
" transform="scale(0.015625)"/>
     </defs>
     <use xlink:href="#DejaVuSans-6d"/>
     <use xlink:href="#DejaVuSans-75" transform="translate(97.412109 0)"/>
     <use xlink:href="#DejaVuSans-73" transform="translate(160.791016 0)"/>
     <use xlink:href="#DejaVuSans-74" transform="translate(212.890625 0)"/>
     <use xlink:href="#DejaVuSans-61" transform="translate(252.099609 0)"/>
     <use xlink:href="#DejaVuSans-63" transform="translate(313.378906 0)"/>
     <use xlink:href="#DejaVuSans-68" transform="translate(368.359375 0)"/>
     <use xlink:href="#DejaVuSans-65" transform="translate(431.738281 0)"/>
     <use xlink:href="#DejaVuSans-6a" transform="translate(493.261719 0)"/>
    </g>
   </g>
   <g id="text_19">
    <!-- freemarker -->
    <g style="fill: #1f77b4" transform="translate(390.9225 256.20972) scale(0.08 -0.08)">
     <defs>
      <path id="DejaVuSans-66" d="M 2375 4863 
L 2375 4384 
L 1825 4384 
Q 1516 4384 1395 4259 
Q 1275 4134 1275 3809 
L 1275 3500 
L 2222 3500 
L 2222 3053 
L 1275 3053 
L 1275 0 
L 697 0 
L 697 3053 
L 147 3053 
L 147 3500 
L 697 3500 
L 697 3744 
Q 697 4328 969 4595 
Q 1241 4863 1831 4863 
L 2375 4863 
z
" transform="scale(0.015625)"/>
      <path id="DejaVuSans-6b" d="M 581 4863 
L 1159 4863 
L 1159 1991 
L 2875 3500 
L 3609 3500 
L 1753 1863 
L 3688 0 
L 2938 0 
L 1159 1709 
L 1159 0 
L 581 0 
L 581 4863 
z
" transform="scale(0.015625)"/>
     </defs>
     <use xlink:href="#DejaVuSans-66"/>
     <use xlink:href="#DejaVuSans-72" transform="translate(35.205078 0)"/>
     <use xlink:href="#DejaVuSans-65" transform="translate(74.068359 0)"/>
     <use xlink:href="#DejaVuSans-65" transform="translate(135.591797 0)"/>
     <use xlink:href="#DejaVuSans-6d" transform="translate(197.115234 0)"/>
     <use xlink:href="#DejaVuSans-61" transform="translate(294.527344 0)"/>
     <use xlink:href="#DejaVuSans-72" transform="translate(355.806641 0)"/>
     <use xlink:href="#DejaVuSans-6b" transform="translate(396.919922 0)"/>
     <use xlink:href="#DejaVuSans-65" transform="translate(451.205078 0)"/>
     <use xlink:href="#DejaVuSans-72" transform="translate(512.728516 0)"/>
    </g>
   </g>
   <g id="text_20">
    <!-- stringtree -->
    <g style="fill: #bcbd22" transform="translate(390.9225 248.601994) scale(0.08 -0.08)">
     <defs>
      <path id="DejaVuSans-67" d="M 2906 1791 
Q 2906 2416 2648 2759 
Q 2391 3103 1925 3103 
Q 1463 3103 1205 2759 
Q 947 2416 947 1791 
Q 947 1169 1205 825 
Q 1463 481 1925 481 
Q 2391 481 2648 825 
Q 2906 1169 2906 1791 
z
M 3481 434 
Q 3481 -459 3084 -895 
Q 2688 -1331 1869 -1331 
Q 1566 -1331 1297 -1286 
Q 1028 -1241 775 -1147 
L 775 -588 
Q 1028 -725 1275 -790 
Q 1522 -856 1778 -856 
Q 2344 -856 2625 -561 
Q 2906 -266 2906 331 
L 2906 616 
Q 2728 306 2450 153 
Q 2172 0 1784 0 
Q 1141 0 747 490 
Q 353 981 353 1791 
Q 353 2603 747 3093 
Q 1141 3584 1784 3584 
Q 2172 3584 2450 3431 
Q 2728 3278 2906 2969 
L 2906 3500 
L 3481 3500 
L 3481 434 
z
" transform="scale(0.015625)"/>
     </defs>
     <use xlink:href="#DejaVuSans-73"/>
     <use xlink:href="#DejaVuSans-74" transform="translate(52.099609 0)"/>
     <use xlink:href="#DejaVuSans-72" transform="translate(91.308594 0)"/>
     <use xlink:href="#DejaVuSans-69" transform="translate(132.421875 0)"/>
     <use xlink:href="#DejaVuSans-6e" transform="translate(160.205078 0)"/>
     <use xlink:href="#DejaVuSans-67" transform="translate(223.583984 0)"/>
     <use xlink:href="#DejaVuSans-74" transform="translate(287.060547 0)"/>
     <use xlink:href="#DejaVuSans-72" transform="translate(326.269531 0)"/>
     <use xlink:href="#DejaVuSans-65" transform="translate(365.132812 0)"/>
     <use xlink:href="#DejaVuSans-65" transform="translate(426.65625 0)"/>
    </g>
   </g>
   <g id="text_21">
    <!-- pebble -->
    <g style="fill: #8c564b" transform="translate(390.9225 237.53621) scale(0.08 -0.08)">
     <defs>
      <path id="DejaVuSans-70" d="M 1159 525 
L 1159 -1331 
L 581 -1331 
L 581 3500 
L 1159 3500 
L 1159 2969 
Q 1341 3281 1617 3432 
Q 1894 3584 2278 3584 
Q 2916 3584 3314 3078 
Q 3713 2572 3713 1747 
Q 3713 922 3314 415 
Q 2916 -91 2278 -91 
Q 1894 -91 1617 61 
Q 1341 213 1159 525 
z
M 3116 1747 
Q 3116 2381 2855 2742 
Q 2594 3103 2138 3103 
Q 1681 3103 1420 2742 
Q 1159 2381 1159 1747 
Q 1159 1113 1420 752 
Q 1681 391 2138 391 
Q 2594 391 2855 752 
Q 3116 1113 3116 1747 
z
" transform="scale(0.015625)"/>
      <path id="DejaVuSans-62" d="M 3116 1747 
Q 3116 2381 2855 2742 
Q 2594 3103 2138 3103 
Q 1681 3103 1420 2742 
Q 1159 2381 1159 1747 
Q 1159 1113 1420 752 
Q 1681 391 2138 391 
Q 2594 391 2855 752 
Q 3116 1113 3116 1747 
z
M 1159 2969 
Q 1341 3281 1617 3432 
Q 1894 3584 2278 3584 
Q 2916 3584 3314 3078 
Q 3713 2572 3713 1747 
Q 3713 922 3314 415 
Q 2916 -91 2278 -91 
Q 1894 -91 1617 61 
Q 1341 213 1159 525 
L 1159 0 
L 581 0 
L 581 4863 
L 1159 4863 
L 1159 2969 
z
" transform="scale(0.015625)"/>
     </defs>
     <use xlink:href="#DejaVuSans-70"/>
     <use xlink:href="#DejaVuSans-65" transform="translate(63.476562 0)"/>
     <use xlink:href="#DejaVuSans-62" transform="translate(125 0)"/>
     <use xlink:href="#DejaVuSans-62" transform="translate(188.476562 0)"/>
     <use xlink:href="#DejaVuSans-6c" transform="translate(251.953125 0)"/>
     <use xlink:href="#DejaVuSans-65" transform="translate(279.736328 0)"/>
    </g>
   </g>
   <g id="text_22">
    <!-- jangod -->
    <g style="fill: #2ca02c" transform="translate(390.9225 225.087203) scale(0.08 -0.08)">
     <defs>
      <path id="DejaVuSans-64" d="M 2906 2969 
L 2906 4863 
L 3481 4863 
L 3481 0 
L 2906 0 
L 2906 525 
Q 2725 213 2448 61 
Q 2172 -91 1784 -91 
Q 1150 -91 751 415 
Q 353 922 353 1747 
Q 353 2572 751 3078 
Q 1150 3584 1784 3584 
Q 2172 3584 2448 3432 
Q 2725 3281 2906 2969 
z
M 947 1747 
Q 947 1113 1208 752 
Q 1469 391 1925 391 
Q 2381 391 2643 752 
Q 2906 1113 2906 1747 
Q 2906 2381 2643 2742 
Q 2381 3103 1925 3103 
Q 1469 3103 1208 2742 
Q 947 2381 947 1747 
z
" transform="scale(0.015625)"/>
     </defs>
     <use xlink:href="#DejaVuSans-6a"/>
     <use xlink:href="#DejaVuSans-61" transform="translate(27.783203 0)"/>
     <use xlink:href="#DejaVuSans-6e" transform="translate(89.0625 0)"/>
     <use xlink:href="#DejaVuSans-67" transform="translate(152.441406 0)"/>
     <use xlink:href="#DejaVuSans-6f" transform="translate(215.917969 0)"/>
     <use xlink:href="#DejaVuSans-64" transform="translate(277.099609 0)"/>
    </g>
   </g>
   <g id="text_23">
    <!-- jte -->
    <g style="fill: #d62728" transform="translate(390.9225 148.087793) scale(0.08 -0.08)">
     <use xlink:href="#DejaVuSans-6a"/>
     <use xlink:href="#DejaVuSans-74" transform="translate(27.783203 0)"/>
     <use xlink:href="#DejaVuSans-65" transform="translate(66.992188 0)"/>
    </g>
   </g>
   <g id="text_24">
    <!-- stringtemplate -->
    <g style="fill: #7f7f7f" transform="translate(390.9225 140.480066) scale(0.08 -0.08)">
     <use xlink:href="#DejaVuSans-73"/>
     <use xlink:href="#DejaVuSans-74" transform="translate(52.099609 0)"/>
     <use xlink:href="#DejaVuSans-72" transform="translate(91.308594 0)"/>
     <use xlink:href="#DejaVuSans-69" transform="translate(132.421875 0)"/>
     <use xlink:href="#DejaVuSans-6e" transform="translate(160.205078 0)"/>
     <use xlink:href="#DejaVuSans-67" transform="translate(223.583984 0)"/>
     <use xlink:href="#DejaVuSans-74" transform="translate(287.060547 0)"/>
     <use xlink:href="#DejaVuSans-65" transform="translate(326.269531 0)"/>
     <use xlink:href="#DejaVuSans-6d" transform="translate(387.792969 0)"/>
     <use xlink:href="#DejaVuSans-70" transform="translate(485.205078 0)"/>
     <use xlink:href="#DejaVuSans-6c" transform="translate(548.681641 0)"/>
     <use xlink:href="#DejaVuSans-61" transform="translate(576.464844 0)"/>
     <use xlink:href="#DejaVuSans-74" transform="translate(637.744141 0)"/>
     <use xlink:href="#DejaVuSans-65" transform="translate(676.953125 0)"/>
    </g>
   </g>
   <g id="text_25">
    <!-- thymeleaf -->
    <g style="fill: #17becf" transform="translate(390.9225 132.87234) scale(0.08 -0.08)">
     <defs>
      <path id="DejaVuSans-79" d="M 2059 -325 
Q 1816 -950 1584 -1140 
Q 1353 -1331 966 -1331 
L 506 -1331 
L 506 -850 
L 844 -850 
Q 1081 -850 1212 -737 
Q 1344 -625 1503 -206 
L 1606 56 
L 191 3500 
L 800 3500 
L 1894 763 
L 2988 3500 
L 3597 3500 
L 2059 -325 
z
" transform="scale(0.015625)"/>
     </defs>
     <use xlink:href="#DejaVuSans-74"/>
     <use xlink:href="#DejaVuSans-68" transform="translate(39.208984 0)"/>
     <use xlink:href="#DejaVuSans-79" transform="translate(102.587891 0)"/>
     <use xlink:href="#DejaVuSans-6d" transform="translate(161.767578 0)"/>
     <use xlink:href="#DejaVuSans-65" transform="translate(259.179688 0)"/>
     <use xlink:href="#DejaVuSans-6c" transform="translate(320.703125 0)"/>
     <use xlink:href="#DejaVuSans-65" transform="translate(348.486328 0)"/>
     <use xlink:href="#DejaVuSans-61" transform="translate(410.009766 0)"/>
     <use xlink:href="#DejaVuSans-66" transform="translate(471.289062 0)"/>
    </g>
   </g>
   <g id="text_26">
    <!-- velocity -->
    <g style="fill: #ff7f0e" transform="translate(390.9225 125.264614) scale(0.08 -0.08)">
     <defs>
      <path id="DejaVuSans-76" d="M 191 3500 
L 800 3500 
L 1894 563 
L 2988 3500 
L 3597 3500 
L 2284 0 
L 1503 0 
L 191 3500 
z
" transform="scale(0.015625)"/>
     </defs>
     <use xlink:href="#DejaVuSans-76"/>
     <use xlink:href="#DejaVuSans-65" transform="translate(59.179688 0)"/>
     <use xlink:href="#DejaVuSans-6c" transform="translate(120.703125 0)"/>
     <use xlink:href="#DejaVuSans-6f" transform="translate(148.486328 0)"/>
     <use xlink:href="#DejaVuSans-63" transform="translate(209.667969 0)"/>
     <use xlink:href="#DejaVuSans-69" transform="translate(264.648438 0)"/>
     <use xlink:href="#DejaVuSans-74" transform="translate(292.431641 0)"/>
     <use xlink:href="#DejaVuSans-79" transform="translate(331.640625 0)"/>
    </g>
   </g>
   <g id="text_27">
    <!-- handlebars -->
    <g style="fill: #ff7f0e" transform="translate(390.9225 29.591693) scale(0.08 -0.08)">
     <use xlink:href="#DejaVuSans-68"/>
     <use xlink:href="#DejaVuSans-61" transform="translate(63.378906 0)"/>
     <use xlink:href="#DejaVuSans-6e" transform="translate(124.658203 0)"/>
     <use xlink:href="#DejaVuSans-64" transform="translate(188.037109 0)"/>
     <use xlink:href="#DejaVuSans-6c" transform="translate(251.513672 0)"/>
     <use xlink:href="#DejaVuSans-65" transform="translate(279.296875 0)"/>
     <use xlink:href="#DejaVuSans-62" transform="translate(340.820312 0)"/>
     <use xlink:href="#DejaVuSans-61" transform="translate(404.296875 0)"/>
     <use xlink:href="#DejaVuSans-72" transform="translate(465.576172 0)"/>
     <use xlink:href="#DejaVuSans-73" transform="translate(506.689453 0)"/>
    </g>
   </g>
  </g>
 </g>
 <defs>
  <clipPath id="pa84b45f677">
   <rect x="56.928125" y="11.2927" width="327.994375" height="293.15105"/>
  </clipPath>
 </defs>
</svg>
