<?xml version="1.0" encoding="utf-8" standalone="no"?>
<!DOCTYPE svg PUBLIC "-//W3C//DTD SVG 1.1//EN"
  "http://www.w3.org/Graphics/SVG/1.1/DTD/svg11.dtd">
<svg xmlns:xlink="http://www.w3.org/1999/xlink" width="460.8pt" height="345.6pt" viewBox="0 0 460.8 345.6" xmlns="http://www.w3.org/2000/svg" version="1.1">
 <metadata>
  <rdf:RDF xmlns:dc="http://purl.org/dc/elements/1.1/" xmlns:cc="http://creativecommons.org/ns#" xmlns:rdf="http://www.w3.org/1999/02/22-rdf-syntax-ns#">
   <cc:Work>
    <dc:type rdf:resource="http://purl.org/dc/dcmitype/StillImage"/>
    <dc:date>2025-04-13T17:19:50.093522</dc:date>
    <dc:format>image/svg+xml</dc:format>
    <dc:creator>
     <cc:Agent>
      <dc:title>Matplotlib v3.10.1, https://matplotlib.org/</dc:title>
     </cc:Agent>
    </dc:creator>
   </cc:Work>
  </rdf:RDF>
 </metadata>
 <defs>
  <style type="text/css">*{stroke-linejoin: round; stroke-linecap: butt}</style>
 </defs>
 <g id="figure_1">
  <g id="patch_1">
   <path d="M 0 345.6 
L 460.8 345.6 
L 460.8 0 
L 0 0 
z
" style="fill: #ffffff"/>
  </g>
  <g id="axes_1">
   <g id="patch_2">
    <path d="M 50.565625 304.44375 
L 384.9225 304.44375 
L 384.9225 10.8 
L 50.565625 10.8 
z
" style="fill: #ffffff"/>
   </g>
   <g id="matplotlib.axis_1">
    <g id="xtick_1">
     <g id="line2d_1">
      <defs>
       <path id="mcd85e8e7d2" d="M 0 0 
L 0 3.5 
" style="stroke: #000000; stroke-width: 0.8"/>
      </defs>
      <g>
       <use xlink:href="#mcd85e8e7d2" x="65.733266" y="304.44375" style="stroke: #000000; stroke-width: 0.8"/>
      </g>
     </g>
     <g id="text_1">
      <!-- 0 -->
      <g transform="translate(62.552016 319.042187) scale(0.1 -0.1)">
       <defs>
        <path id="DejaVuSans-30" d="M 2034 4250 
Q 1547 4250 1301 3770 
Q 1056 3291 1056 2328 
Q 1056 1369 1301 889 
Q 1547 409 2034 409 
Q 2525 409 2770 889 
Q 3016 1369 3016 2328 
Q 3016 3291 2770 3770 
Q 2525 4250 2034 4250 
z
M 2034 4750 
Q 2819 4750 3233 4129 
Q 3647 3509 3647 2328 
Q 3647 1150 3233 529 
Q 2819 -91 2034 -91 
Q 1250 -91 836 529 
Q 422 1150 422 2328 
Q 422 3509 836 4129 
Q 1250 4750 2034 4750 
z
" transform="scale(0.015625)"/>
       </defs>
       <use xlink:href="#DejaVuSans-30"/>
      </g>
     </g>
    </g>
    <g id="xtick_2">
     <g id="line2d_2">
      <g>
       <use xlink:href="#mcd85e8e7d2" x="126.531505" y="304.44375" style="stroke: #000000; stroke-width: 0.8"/>
      </g>
     </g>
     <g id="text_2">
      <!-- 2000 -->
      <g transform="translate(113.806505 319.042187) scale(0.1 -0.1)">
       <defs>
        <path id="DejaVuSans-32" d="M 1228 531 
L 3431 531 
L 3431 0 
L 469 0 
L 469 531 
Q 828 903 1448 1529 
Q 2069 2156 2228 2338 
Q 2531 2678 2651 2914 
Q 2772 3150 2772 3378 
Q 2772 3750 2511 3984 
Q 2250 4219 1831 4219 
Q 1534 4219 1204 4116 
Q 875 4013 500 3803 
L 500 4441 
Q 881 4594 1212 4672 
Q 1544 4750 1819 4750 
Q 2544 4750 2975 4387 
Q 3406 4025 3406 3419 
Q 3406 3131 3298 2873 
Q 3191 2616 2906 2266 
Q 2828 2175 2409 1742 
Q 1991 1309 1228 531 
z
" transform="scale(0.015625)"/>
       </defs>
       <use xlink:href="#DejaVuSans-32"/>
       <use xlink:href="#DejaVuSans-30" transform="translate(63.623047 0)"/>
       <use xlink:href="#DejaVuSans-30" transform="translate(127.246094 0)"/>
       <use xlink:href="#DejaVuSans-30" transform="translate(190.869141 0)"/>
      </g>
     </g>
    </g>
    <g id="xtick_3">
     <g id="line2d_3">
      <g>
       <use xlink:href="#mcd85e8e7d2" x="187.329743" y="304.44375" style="stroke: #000000; stroke-width: 0.8"/>
      </g>
     </g>
     <g id="text_3">
      <!-- 4000 -->
      <g transform="translate(174.604743 319.042187) scale(0.1 -0.1)">
       <defs>
        <path id="DejaVuSans-34" d="M 2419 4116 
L 825 1625 
L 2419 1625 
L 2419 4116 
z
M 2253 4666 
L 3047 4666 
L 3047 1625 
L 3713 1625 
L 3713 1100 
L 3047 1100 
L 3047 0 
L 2419 0 
L 2419 1100 
L 313 1100 
L 313 1709 
L 2253 4666 
z
" transform="scale(0.015625)"/>
       </defs>
       <use xlink:href="#DejaVuSans-34"/>
       <use xlink:href="#DejaVuSans-30" transform="translate(63.623047 0)"/>
       <use xlink:href="#DejaVuSans-30" transform="translate(127.246094 0)"/>
       <use xlink:href="#DejaVuSans-30" transform="translate(190.869141 0)"/>
      </g>
     </g>
    </g>
    <g id="xtick_4">
     <g id="line2d_4">
      <g>
       <use xlink:href="#mcd85e8e7d2" x="248.127982" y="304.44375" style="stroke: #000000; stroke-width: 0.8"/>
      </g>
     </g>
     <g id="text_4">
      <!-- 6000 -->
      <g transform="translate(235.402982 319.042187) scale(0.1 -0.1)">
       <defs>
        <path id="DejaVuSans-36" d="M 2113 2584 
Q 1688 2584 1439 2293 
Q 1191 2003 1191 1497 
Q 1191 994 1439 701 
Q 1688 409 2113 409 
Q 2538 409 2786 701 
Q 3034 994 3034 1497 
Q 3034 2003 2786 2293 
Q 2538 2584 2113 2584 
z
M 3366 4563 
L 3366 3988 
Q 3128 4100 2886 4159 
Q 2644 4219 2406 4219 
Q 1781 4219 1451 3797 
Q 1122 3375 1075 2522 
Q 1259 2794 1537 2939 
Q 1816 3084 2150 3084 
Q 2853 3084 3261 2657 
Q 3669 2231 3669 1497 
Q 3669 778 3244 343 
Q 2819 -91 2113 -91 
Q 1303 -91 875 529 
Q 447 1150 447 2328 
Q 447 3434 972 4092 
Q 1497 4750 2381 4750 
Q 2619 4750 2861 4703 
Q 3103 4656 3366 4563 
z
" transform="scale(0.015625)"/>
       </defs>
       <use xlink:href="#DejaVuSans-36"/>
       <use xlink:href="#DejaVuSans-30" transform="translate(63.623047 0)"/>
       <use xlink:href="#DejaVuSans-30" transform="translate(127.246094 0)"/>
       <use xlink:href="#DejaVuSans-30" transform="translate(190.869141 0)"/>
      </g>
     </g>
    </g>
    <g id="xtick_5">
     <g id="line2d_5">
      <g>
       <use xlink:href="#mcd85e8e7d2" x="308.926221" y="304.44375" style="stroke: #000000; stroke-width: 0.8"/>
      </g>
     </g>
     <g id="text_5">
      <!-- 8000 -->
      <g transform="translate(296.201221 319.042187) scale(0.1 -0.1)">
       <defs>
        <path id="DejaVuSans-38" d="M 2034 2216 
Q 1584 2216 1326 1975 
Q 1069 1734 1069 1313 
Q 1069 891 1326 650 
Q 1584 409 2034 409 
Q 2484 409 2743 651 
Q 3003 894 3003 1313 
Q 3003 1734 2745 1975 
Q 2488 2216 2034 2216 
z
M 1403 2484 
Q 997 2584 770 2862 
Q 544 3141 544 3541 
Q 544 4100 942 4425 
Q 1341 4750 2034 4750 
Q 2731 4750 3128 4425 
Q 3525 4100 3525 3541 
Q 3525 3141 3298 2862 
Q 3072 2584 2669 2484 
Q 3125 2378 3379 2068 
Q 3634 1759 3634 1313 
Q 3634 634 3220 271 
Q 2806 -91 2034 -91 
Q 1263 -91 848 271 
Q 434 634 434 1313 
Q 434 1759 690 2068 
Q 947 2378 1403 2484 
z
M 1172 3481 
Q 1172 3119 1398 2916 
Q 1625 2713 2034 2713 
Q 2441 2713 2670 2916 
Q 2900 3119 2900 3481 
Q 2900 3844 2670 4047 
Q 2441 4250 2034 4250 
Q 1625 4250 1398 4047 
Q 1172 3844 1172 3481 
z
" transform="scale(0.015625)"/>
       </defs>
       <use xlink:href="#DejaVuSans-38"/>
       <use xlink:href="#DejaVuSans-30" transform="translate(63.623047 0)"/>
       <use xlink:href="#DejaVuSans-30" transform="translate(127.246094 0)"/>
       <use xlink:href="#DejaVuSans-30" transform="translate(190.869141 0)"/>
      </g>
     </g>
    </g>
    <g id="xtick_6">
     <g id="line2d_6">
      <g>
       <use xlink:href="#mcd85e8e7d2" x="369.72446" y="304.44375" style="stroke: #000000; stroke-width: 0.8"/>
      </g>
     </g>
     <g id="text_6">
      <!-- 10000 -->
      <g transform="translate(353.81821 319.042187) scale(0.1 -0.1)">
       <defs>
        <path id="DejaVuSans-31" d="M 794 531 
L 1825 531 
L 1825 4091 
L 703 3866 
L 703 4441 
L 1819 4666 
L 2450 4666 
L 2450 531 
L 3481 531 
L 3481 0 
L 794 0 
L 794 531 
z
" transform="scale(0.015625)"/>
       </defs>
       <use xlink:href="#DejaVuSans-31"/>
       <use xlink:href="#DejaVuSans-30" transform="translate(63.623047 0)"/>
       <use xlink:href="#DejaVuSans-30" transform="translate(127.246094 0)"/>
       <use xlink:href="#DejaVuSans-30" transform="translate(190.869141 0)"/>
       <use xlink:href="#DejaVuSans-30" transform="translate(254.492188 0)"/>
      </g>
     </g>
    </g>
    <g id="text_7">
     <!-- n runs -->
     <g transform="translate(201.988594 332.720312) scale(0.1 -0.1)">
      <defs>
       <path id="DejaVuSans-6e" d="M 3513 2113 
L 3513 0 
L 2938 0 
L 2938 2094 
Q 2938 2591 2744 2837 
Q 2550 3084 2163 3084 
Q 1697 3084 1428 2787 
Q 1159 2491 1159 1978 
L 1159 0 
L 581 0 
L 581 3500 
L 1159 3500 
L 1159 2956 
Q 1366 3272 1645 3428 
Q 1925 3584 2291 3584 
Q 2894 3584 3203 3211 
Q 3513 2838 3513 2113 
z
" transform="scale(0.015625)"/>
       <path id="DejaVuSans-20" transform="scale(0.015625)"/>
       <path id="DejaVuSans-72" d="M 2631 2963 
Q 2534 3019 2420 3045 
Q 2306 3072 2169 3072 
Q 1681 3072 1420 2755 
Q 1159 2438 1159 1844 
L 1159 0 
L 581 0 
L 581 3500 
L 1159 3500 
L 1159 2956 
Q 1341 3275 1631 3429 
Q 1922 3584 2338 3584 
Q 2397 3584 2469 3576 
Q 2541 3569 2628 3553 
L 2631 2963 
z
" transform="scale(0.015625)"/>
       <path id="DejaVuSans-75" d="M 544 1381 
L 544 3500 
L 1119 3500 
L 1119 1403 
Q 1119 906 1312 657 
Q 1506 409 1894 409 
Q 2359 409 2629 706 
Q 2900 1003 2900 1516 
L 2900 3500 
L 3475 3500 
L 3475 0 
L 2900 0 
L 2900 538 
Q 2691 219 2414 64 
Q 2138 -91 1772 -91 
Q 1169 -91 856 284 
Q 544 659 544 1381 
z
M 1991 3584 
L 1991 3584 
z
" transform="scale(0.015625)"/>
       <path id="DejaVuSans-73" d="M 2834 3397 
L 2834 2853 
Q 2591 2978 2328 3040 
Q 2066 3103 1784 3103 
Q 1356 3103 1142 2972 
Q 928 2841 928 2578 
Q 928 2378 1081 2264 
Q 1234 2150 1697 2047 
L 1894 2003 
Q 2506 1872 2764 1633 
Q 3022 1394 3022 966 
Q 3022 478 2636 193 
Q 2250 -91 1575 -91 
Q 1294 -91 989 -36 
Q 684 19 347 128 
L 347 722 
Q 666 556 975 473 
Q 1284 391 1588 391 
Q 1994 391 2212 530 
Q 2431 669 2431 922 
Q 2431 1156 2273 1281 
Q 2116 1406 1581 1522 
L 1381 1569 
Q 847 1681 609 1914 
Q 372 2147 372 2553 
Q 372 3047 722 3315 
Q 1072 3584 1716 3584 
Q 2034 3584 2315 3537 
Q 2597 3491 2834 3397 
z
" transform="scale(0.015625)"/>
      </defs>
      <use xlink:href="#DejaVuSans-6e"/>
      <use xlink:href="#DejaVuSans-20" transform="translate(63.378906 0)"/>
      <use xlink:href="#DejaVuSans-72" transform="translate(95.166016 0)"/>
      <use xlink:href="#DejaVuSans-75" transform="translate(136.279297 0)"/>
      <use xlink:href="#DejaVuSans-6e" transform="translate(199.658203 0)"/>
      <use xlink:href="#DejaVuSans-73" transform="translate(263.037109 0)"/>
     </g>
    </g>
   </g>
   <g id="matplotlib.axis_2">
    <g id="ytick_1">
     <g id="line2d_7">
      <defs>
       <path id="m9b0fc53a62" d="M 0 0 
L -3.5 0 
" style="stroke: #000000; stroke-width: 0.8"/>
      </defs>
      <g>
       <use xlink:href="#m9b0fc53a62" x="50.565625" y="292.558239" style="stroke: #000000; stroke-width: 0.8"/>
      </g>
     </g>
     <g id="text_8">
      <!-- 0 -->
      <g transform="translate(37.203125 296.357458) scale(0.1 -0.1)">
       <use xlink:href="#DejaVuSans-30"/>
      </g>
     </g>
    </g>
    <g id="ytick_2">
     <g id="line2d_8">
      <g>
       <use xlink:href="#m9b0fc53a62" x="50.565625" y="234.080942" style="stroke: #000000; stroke-width: 0.8"/>
      </g>
     </g>
     <g id="text_9">
      <!-- 200 -->
      <g transform="translate(24.478125 237.88016) scale(0.1 -0.1)">
       <use xlink:href="#DejaVuSans-32"/>
       <use xlink:href="#DejaVuSans-30" transform="translate(63.623047 0)"/>
       <use xlink:href="#DejaVuSans-30" transform="translate(127.246094 0)"/>
      </g>
     </g>
    </g>
    <g id="ytick_3">
     <g id="line2d_9">
      <g>
       <use xlink:href="#m9b0fc53a62" x="50.565625" y="175.603644" style="stroke: #000000; stroke-width: 0.8"/>
      </g>
     </g>
     <g id="text_10">
      <!-- 400 -->
      <g transform="translate(24.478125 179.402863) scale(0.1 -0.1)">
       <use xlink:href="#DejaVuSans-34"/>
       <use xlink:href="#DejaVuSans-30" transform="translate(63.623047 0)"/>
       <use xlink:href="#DejaVuSans-30" transform="translate(127.246094 0)"/>
      </g>
     </g>
    </g>
    <g id="ytick_4">
     <g id="line2d_10">
      <g>
       <use xlink:href="#m9b0fc53a62" x="50.565625" y="117.126346" style="stroke: #000000; stroke-width: 0.8"/>
      </g>
     </g>
     <g id="text_11">
      <!-- 600 -->
      <g transform="translate(24.478125 120.925565) scale(0.1 -0.1)">
       <use xlink:href="#DejaVuSans-36"/>
       <use xlink:href="#DejaVuSans-30" transform="translate(63.623047 0)"/>
       <use xlink:href="#DejaVuSans-30" transform="translate(127.246094 0)"/>
      </g>
     </g>
    </g>
    <g id="ytick_5">
     <g id="line2d_11">
      <g>
       <use xlink:href="#m9b0fc53a62" x="50.565625" y="58.649049" style="stroke: #000000; stroke-width: 0.8"/>
      </g>
     </g>
     <g id="text_12">
      <!-- 800 -->
      <g transform="translate(24.478125 62.448268) scale(0.1 -0.1)">
       <use xlink:href="#DejaVuSans-38"/>
       <use xlink:href="#DejaVuSans-30" transform="translate(63.623047 0)"/>
       <use xlink:href="#DejaVuSans-30" transform="translate(127.246094 0)"/>
      </g>
     </g>
    </g>
    <g id="text_13">
     <!-- time (ms) -->
     <g transform="translate(18.398438 181.883594) rotate(-90) scale(0.1 -0.1)">
      <defs>
       <path id="DejaVuSans-74" d="M 1172 4494 
L 1172 3500 
L 2356 3500 
L 2356 3053 
L 1172 3053 
L 1172 1153 
Q 1172 725 1289 603 
Q 1406 481 1766 481 
L 2356 481 
L 2356 0 
L 1766 0 
Q 1100 0 847 248 
Q 594 497 594 1153 
L 594 3053 
L 172 3053 
L 172 3500 
L 594 3500 
L 594 4494 
L 1172 4494 
z
" transform="scale(0.015625)"/>
       <path id="DejaVuSans-69" d="M 603 3500 
L 1178 3500 
L 1178 0 
L 603 0 
L 603 3500 
z
M 603 4863 
L 1178 4863 
L 1178 4134 
L 603 4134 
L 603 4863 
z
" transform="scale(0.015625)"/>
       <path id="DejaVuSans-6d" d="M 3328 2828 
Q 3544 3216 3844 3400 
Q 4144 3584 4550 3584 
Q 5097 3584 5394 3201 
Q 5691 2819 5691 2113 
L 5691 0 
L 5113 0 
L 5113 2094 
Q 5113 2597 4934 2840 
Q 4756 3084 4391 3084 
Q 3944 3084 3684 2787 
Q 3425 2491 3425 1978 
L 3425 0 
L 2847 0 
L 2847 2094 
Q 2847 2600 2669 2842 
Q 2491 3084 2119 3084 
Q 1678 3084 1418 2786 
Q 1159 2488 1159 1978 
L 1159 0 
L 581 0 
L 581 3500 
L 1159 3500 
L 1159 2956 
Q 1356 3278 1631 3431 
Q 1906 3584 2284 3584 
Q 2666 3584 2933 3390 
Q 3200 3197 3328 2828 
z
" transform="scale(0.015625)"/>
       <path id="DejaVuSans-65" d="M 3597 1894 
L 3597 1613 
L 953 1613 
Q 991 1019 1311 708 
Q 1631 397 2203 397 
Q 2534 397 2845 478 
Q 3156 559 3463 722 
L 3463 178 
Q 3153 47 2828 -22 
Q 2503 -91 2169 -91 
Q 1331 -91 842 396 
Q 353 884 353 1716 
Q 353 2575 817 3079 
Q 1281 3584 2069 3584 
Q 2775 3584 3186 3129 
Q 3597 2675 3597 1894 
z
M 3022 2063 
Q 3016 2534 2758 2815 
Q 2500 3097 2075 3097 
Q 1594 3097 1305 2825 
Q 1016 2553 972 2059 
L 3022 2063 
z
" transform="scale(0.015625)"/>
       <path id="DejaVuSans-28" d="M 1984 4856 
Q 1566 4138 1362 3434 
Q 1159 2731 1159 2009 
Q 1159 1288 1364 580 
Q 1569 -128 1984 -844 
L 1484 -844 
Q 1016 -109 783 600 
Q 550 1309 550 2009 
Q 550 2706 781 3412 
Q 1013 4119 1484 4856 
L 1984 4856 
z
" transform="scale(0.015625)"/>
       <path id="DejaVuSans-29" d="M 513 4856 
L 1013 4856 
Q 1481 4119 1714 3412 
Q 1947 2706 1947 2009 
Q 1947 1309 1714 600 
Q 1481 -109 1013 -844 
L 513 -844 
Q 928 -128 1133 580 
Q 1338 1288 1338 2009 
Q 1338 2731 1133 3434 
Q 928 4138 513 4856 
z
" transform="scale(0.015625)"/>
      </defs>
      <use xlink:href="#DejaVuSans-74"/>
      <use xlink:href="#DejaVuSans-69" transform="translate(39.208984 0)"/>
      <use xlink:href="#DejaVuSans-6d" transform="translate(66.992188 0)"/>
      <use xlink:href="#DejaVuSans-65" transform="translate(164.404297 0)"/>
      <use xlink:href="#DejaVuSans-20" transform="translate(225.927734 0)"/>
      <use xlink:href="#DejaVuSans-28" transform="translate(257.714844 0)"/>
      <use xlink:href="#DejaVuSans-6d" transform="translate(296.728516 0)"/>
      <use xlink:href="#DejaVuSans-73" transform="translate(394.140625 0)"/>
      <use xlink:href="#DejaVuSans-29" transform="translate(446.240234 0)"/>
     </g>
    </g>
   </g>
   <g id="line2d_12">
    <path d="M 65.763665 278.231301 
L 66.037257 277.938915 
L 66.341248 276.769369 
L 66.645239 277.061755 
L 66.94923 276.476982 
L 67.253222 276.476982 
L 67.557213 275.892209 
L 67.861204 276.184596 
L 68.165195 275.307436 
L 68.469186 275.01505 
L 68.773178 274.430277 
L 71.81309 273.260731 
L 74.853001 271.798799 
L 77.892913 270.04448 
L 80.932825 268.582547 
L 83.972737 268.290161 
L 87.012649 266.828228 
L 90.052561 266.535842 
L 93.092473 265.073909 
L 96.132385 264.781523 
L 99.172297 264.19675 
L 102.212209 263.027204 
L 105.252121 262.442431 
L 108.292033 260.103339 
L 111.331945 260.980499 
L 114.371857 260.103339 
L 117.411769 259.22618 
L 120.451681 258.34902 
L 123.491593 258.34902 
L 126.531505 256.887088 
L 129.571417 257.764247 
L 132.611328 256.887088 
L 135.65124 256.594701 
L 138.691152 256.302315 
L 141.731064 256.887088 
L 144.770976 255.717542 
L 147.810888 255.425155 
L 150.8508 255.132769 
L 153.890712 255.132769 
L 156.930624 255.132769 
L 159.970536 255.132769 
L 163.010448 255.132769 
L 166.05036 253.963223 
L 169.090272 254.255609 
L 172.130184 254.255609 
L 175.170096 253.37845 
L 178.210008 253.670836 
L 181.24992 253.670836 
L 184.289832 252.50129 
L 187.329743 252.793677 
L 190.369655 252.793677 
L 193.409567 253.086063 
L 196.449479 252.50129 
L 199.489391 252.208904 
L 202.529303 252.208904 
L 205.569215 251.624131 
L 208.609127 251.916517 
L 211.649039 251.331744 
L 214.688951 251.624131 
L 217.728863 251.039358 
L 220.768775 250.746971 
L 223.808687 251.039358 
L 226.848599 250.454585 
L 229.888511 248.40788 
L 232.928423 249.285039 
L 235.968335 249.285039 
L 239.008247 249.577426 
L 242.048159 248.992653 
L 245.08807 249.285039 
L 248.127982 248.992653 
L 251.167894 248.700266 
L 254.207806 248.700266 
L 257.247718 247.53072 
L 260.28763 248.115493 
L 263.327542 247.53072 
L 266.367454 247.238334 
L 269.407366 246.945947 
L 272.447278 246.653561 
L 275.48719 246.653561 
L 278.527102 247.53072 
L 281.567014 244.899242 
L 284.606926 246.361174 
L 287.646838 246.068788 
L 290.68675 246.361174 
L 293.726662 243.144923 
L 296.766574 244.314469 
L 299.806485 245.776401 
L 302.846397 244.899242 
L 305.886309 244.899242 
L 308.926221 244.022082 
L 311.966133 243.437309 
L 315.006045 243.437309 
L 318.045957 244.022082 
L 321.085869 244.022082 
L 324.125781 242.56015 
L 327.165693 242.56015 
L 330.205605 242.852536 
L 333.245517 243.729696 
L 336.285429 243.144923 
L 339.325341 243.437309 
L 342.365253 242.267763 
L 345.405165 242.267763 
L 348.445077 241.68299 
L 351.484989 241.390604 
L 354.5249 241.098217 
L 357.564812 241.098217 
L 360.604724 239.636285 
L 363.644636 240.513444 
L 366.684548 239.636285 
L 369.72446 239.051512 
" clip-path="url(#pea97c28bbb)" style="fill: none; stroke: #1f77b4; stroke-width: 1.5; stroke-linecap: square"/>
   </g>
   <g id="line2d_13">
    <path d="M 65.763665 289.634374 
L 66.037257 289.049601 
L 66.341248 288.464828 
L 66.645239 287.587669 
L 66.94923 287.002896 
L 67.253222 287.002896 
L 67.557213 286.418123 
L 67.861204 286.125737 
L 68.165195 285.540964 
L 68.469186 285.248577 
L 68.773178 284.956191 
L 71.81309 281.447553 
L 74.853001 279.98562 
L 77.892913 278.523688 
L 80.932825 276.769369 
L 83.972737 276.184596 
L 87.012649 274.722663 
L 90.052561 272.968345 
L 93.092473 272.091185 
L 96.132385 271.798799 
L 99.172297 270.921639 
L 102.212209 270.04448 
L 105.252121 269.459707 
L 108.292033 268.582547 
L 111.331945 267.997774 
L 114.371857 267.413001 
L 117.411769 266.828228 
L 120.451681 266.828228 
L 123.491593 265.658682 
L 126.531505 263.904363 
L 129.571417 264.19675 
L 132.611328 263.904363 
L 135.65124 262.734817 
L 138.691152 262.442431 
L 141.731064 261.857658 
L 144.770976 261.272885 
L 147.810888 260.688112 
L 150.8508 259.22618 
L 153.890712 257.471861 
L 156.930624 258.641407 
L 159.970536 255.425155 
L 163.010448 256.887088 
L 166.05036 256.009928 
L 169.090272 255.132769 
L 172.130184 254.547996 
L 175.170096 254.255609 
L 178.210008 253.37845 
L 181.24992 252.208904 
L 184.289832 251.916517 
L 187.329743 251.624131 
L 190.369655 251.916517 
L 193.409567 251.624131 
L 196.449479 251.624131 
L 199.489391 248.992653 
L 202.529303 250.162198 
L 205.569215 248.992653 
L 208.609127 248.700266 
L 211.649039 248.700266 
L 214.688951 247.53072 
L 217.728863 247.53072 
L 220.768775 246.653561 
L 223.808687 246.653561 
L 226.848599 245.191628 
L 229.888511 245.191628 
L 232.928423 244.606855 
L 235.968335 244.314469 
L 239.008247 243.437309 
L 242.048159 242.56015 
L 245.08807 242.852536 
L 248.127982 240.513444 
L 251.167894 241.68299 
L 254.207806 240.513444 
L 257.247718 240.513444 
L 260.28763 239.928671 
L 263.327542 240.221058 
L 266.367454 239.051512 
L 269.407366 239.051512 
L 272.447278 238.174352 
L 275.48719 237.881966 
L 278.527102 237.881966 
L 281.567014 237.004807 
L 284.606926 235.542874 
L 287.646838 235.250488 
L 290.68675 235.542874 
L 293.726662 234.958101 
L 296.766574 234.665715 
L 299.806485 234.373328 
L 302.846397 234.080942 
L 305.886309 233.788555 
L 308.926221 232.619009 
L 311.966133 231.449463 
L 315.006045 231.157077 
L 318.045957 229.402758 
L 321.085869 230.572304 
L 324.125781 229.110371 
L 327.165693 228.525598 
L 330.205605 228.817985 
L 333.245517 228.233212 
L 336.285429 227.356052 
L 339.325341 227.356052 
L 342.365253 226.478893 
L 345.405165 227.356052 
L 348.445077 225.601733 
L 351.484989 226.186506 
L 354.5249 225.016961 
L 357.564812 223.555028 
L 360.604724 223.555028 
L 363.644636 224.139801 
L 366.684548 223.847415 
L 369.72446 221.508323 
" clip-path="url(#pea97c28bbb)" style="fill: none; stroke: #ff7f0e; stroke-width: 1.5; stroke-linecap: square"/>
   </g>
   <g id="line2d_14">
    <path d="M 65.763665 287.295282 
L 66.037257 286.710509 
L 66.341248 286.418123 
L 66.645239 285.540964 
L 66.94923 285.540964 
L 67.253222 284.956191 
L 67.557213 284.663804 
L 67.861204 284.371418 
L 68.165195 284.079031 
L 68.469186 283.786645 
L 68.773178 283.494258 
L 71.81309 279.108461 
L 74.853001 277.938915 
L 77.892913 277.354142 
L 80.932825 275.307436 
L 83.972737 273.845504 
L 87.012649 272.383572 
L 90.052561 271.214026 
L 93.092473 270.629253 
L 96.132385 269.459707 
L 99.172297 268.582547 
L 102.212209 267.997774 
L 105.252121 267.413001 
L 108.292033 266.535842 
L 111.331945 265.658682 
L 114.371857 264.19675 
L 117.411769 264.19675 
L 120.451681 263.611977 
L 123.491593 262.442431 
L 126.531505 261.857658 
L 129.571417 261.272885 
L 132.611328 260.103339 
L 135.65124 259.810953 
L 138.691152 258.933793 
L 141.731064 258.34902 
L 144.770976 258.056634 
L 147.810888 255.132769 
L 150.8508 256.009928 
L 153.890712 254.255609 
L 156.930624 253.670836 
L 159.970536 253.37845 
L 163.010448 252.208904 
L 166.05036 251.624131 
L 169.090272 250.454585 
L 172.130184 250.454585 
L 175.170096 249.577426 
L 178.210008 248.40788 
L 181.24992 247.53072 
L 184.289832 247.823107 
L 187.329743 247.238334 
L 190.369655 246.361174 
L 193.409567 245.484015 
L 196.449479 244.899242 
L 199.489391 243.144923 
L 202.529303 243.729696 
L 205.569215 242.267763 
L 208.609127 243.144923 
L 211.649039 241.390604 
L 214.688951 239.928671 
L 217.728863 240.805831 
L 220.768775 239.636285 
L 223.808687 239.051512 
L 226.848599 238.759125 
L 229.888511 237.881966 
L 232.928423 237.589579 
L 235.968335 235.835261 
L 239.008247 236.127647 
L 242.048159 234.665715 
L 245.08807 234.958101 
L 248.127982 233.788555 
L 251.167894 232.911396 
L 254.207806 232.911396 
L 257.247718 231.74185 
L 260.28763 230.86469 
L 263.327542 229.110371 
L 266.367454 229.402758 
L 269.407366 229.695144 
L 272.447278 227.648439 
L 275.48719 227.648439 
L 278.527102 225.89412 
L 281.567014 226.186506 
L 284.606926 226.186506 
L 287.646838 224.724574 
L 290.68675 223.262642 
L 293.726662 223.262642 
L 296.766574 221.508323 
L 299.806485 221.215936 
L 302.846397 220.04639 
L 305.886309 219.461617 
L 308.926221 218.876844 
L 311.966133 218.584458 
L 315.006045 217.707298 
L 318.045957 215.660593 
L 321.085869 215.660593 
L 324.125781 213.029114 
L 327.165693 212.444342 
L 330.205605 213.029114 
L 333.245517 211.274796 
L 336.285429 210.10525 
L 339.325341 209.812863 
L 342.365253 209.22809 
L 345.405165 208.058544 
L 348.445077 207.766158 
L 351.484989 206.304225 
L 354.5249 204.549906 
L 357.564812 205.427066 
L 360.604724 205.719452 
L 363.644636 203.38036 
L 366.684548 203.672747 
L 369.72446 201.918428 
" clip-path="url(#pea97c28bbb)" style="fill: none; stroke: #2ca02c; stroke-width: 1.5; stroke-linecap: square"/>
   </g>
   <g id="line2d_15">
    <path d="M 65.763665 108.939525 
L 66.037257 109.816684 
L 66.341248 109.524298 
L 66.645239 107.477592 
L 66.94923 110.109071 
L 67.253222 108.354752 
L 67.557213 108.062365 
L 67.861204 109.231911 
L 68.165195 107.185206 
L 68.469186 106.01566 
L 68.773178 106.308046 
L 71.81309 101.629863 
L 74.853001 102.799408 
L 77.892913 106.01566 
L 80.932825 102.507022 
L 83.972737 103.676568 
L 87.012649 102.799408 
L 90.052561 96.659292 
L 93.092473 101.337476 
L 96.132385 101.337476 
L 99.172297 101.629863 
L 102.212209 101.04509 
L 105.252121 99.875544 
L 108.292033 99.583157 
L 111.331945 99.875544 
L 114.371857 95.782133 
L 117.411769 98.705998 
L 120.451681 99.875544 
L 123.491593 100.460317 
L 126.531505 99.875544 
L 129.571417 99.290771 
L 132.611328 98.413611 
L 135.65124 99.583157 
L 138.691152 98.413611 
L 141.731064 98.413611 
L 144.770976 96.366906 
L 147.810888 97.536452 
L 150.8508 97.536452 
L 153.890712 97.828838 
L 156.930624 97.536452 
L 159.970536 96.951679 
L 163.010448 97.828838 
L 166.05036 96.951679 
L 169.090272 96.659292 
L 172.130184 95.19736 
L 175.170096 98.121225 
L 178.210008 96.951679 
L 181.24992 96.951679 
L 184.289832 96.951679 
L 187.329743 95.782133 
L 190.369655 97.536452 
L 193.409567 95.782133 
L 196.449479 94.904973 
L 199.489391 94.904973 
L 202.529303 95.782133 
L 205.569215 92.858268 
L 208.609127 95.489746 
L 211.649039 96.074519 
L 214.688951 95.19736 
L 217.728863 94.904973 
L 220.768775 96.074519 
L 223.808687 96.659292 
L 226.848599 96.659292 
L 229.888511 95.489746 
L 232.928423 94.3202 
L 235.968335 94.027814 
L 239.008247 94.3202 
L 242.048159 94.3202 
L 245.08807 93.443041 
L 248.127982 93.735427 
L 251.167894 93.150654 
L 254.207806 94.904973 
L 257.247718 92.858268 
L 260.28763 94.904973 
L 263.327542 93.150654 
L 266.367454 93.443041 
L 269.407366 94.904973 
L 272.447278 92.565881 
L 275.48719 93.443041 
L 278.527102 94.3202 
L 281.567014 92.858268 
L 284.606926 90.811562 
L 287.646838 91.103949 
L 290.68675 94.027814 
L 293.726662 94.904973 
L 296.766574 93.150654 
L 299.806485 90.226789 
L 302.846397 92.273495 
L 305.886309 92.858268 
L 308.926221 91.103949 
L 311.966133 92.273495 
L 315.006045 93.735427 
L 318.045957 91.103949 
L 321.085869 92.565881 
L 324.125781 91.103949 
L 327.165693 91.981108 
L 330.205605 91.396335 
L 333.245517 91.103949 
L 336.285429 91.396335 
L 339.325341 91.688722 
L 342.365253 90.226789 
L 345.405165 90.811562 
L 348.445077 90.811562 
L 351.484989 91.981108 
L 354.5249 89.934403 
L 357.564812 83.209514 
L 360.604724 92.273495 
L 363.644636 91.103949 
L 366.684548 89.642017 
L 369.72446 90.226789 
" clip-path="url(#pea97c28bbb)" style="fill: none; stroke: #d62728; stroke-width: 1.5; stroke-linecap: square"/>
   </g>
   <g id="line2d_16">
    <path d="M 65.763665 291.096307 
L 66.037257 290.80392 
L 66.341248 289.926761 
L 66.645239 289.634374 
L 66.94923 289.049601 
L 67.253222 289.049601 
L 67.557213 288.757215 
L 67.861204 288.464828 
L 68.165195 287.880055 
L 68.469186 288.172442 
L 68.773178 287.880055 
L 71.81309 286.125737 
L 74.853001 285.540964 
L 77.892913 284.371418 
L 80.932825 284.079031 
L 83.972737 283.494258 
L 87.012649 282.909485 
L 90.052561 282.324712 
L 93.092473 282.032326 
L 96.132385 281.739939 
L 99.172297 281.155166 
L 102.212209 280.86278 
L 105.252121 280.570393 
L 108.292033 280.278007 
L 111.331945 280.278007 
L 114.371857 279.693234 
L 117.411769 279.400847 
L 120.451681 279.400847 
L 123.491593 279.108461 
L 126.531505 279.108461 
L 129.571417 277.938915 
L 132.611328 278.231301 
L 135.65124 278.231301 
L 138.691152 277.938915 
L 141.731064 277.938915 
L 144.770976 277.646528 
L 147.810888 277.061755 
L 150.8508 276.769369 
L 153.890712 276.184596 
L 156.930624 276.476982 
L 159.970536 276.184596 
L 163.010448 275.892209 
L 166.05036 275.892209 
L 169.090272 275.599823 
L 172.130184 275.01505 
L 175.170096 275.01505 
L 178.210008 274.430277 
L 181.24992 274.430277 
L 184.289832 274.137891 
L 187.329743 274.137891 
L 190.369655 273.845504 
L 193.409567 273.845504 
L 196.449479 273.553118 
L 199.489391 273.260731 
L 202.529303 272.091185 
L 205.569215 272.383572 
L 208.609127 272.675958 
L 211.649039 272.383572 
L 214.688951 271.506412 
L 217.728863 271.798799 
L 220.768775 271.506412 
L 223.808687 271.506412 
L 226.848599 271.214026 
L 229.888511 270.921639 
L 232.928423 270.629253 
L 235.968335 270.629253 
L 239.008247 270.336866 
L 242.048159 269.459707 
L 245.08807 269.752093 
L 248.127982 269.459707 
L 251.167894 269.16732 
L 254.207806 269.16732 
L 257.247718 269.16732 
L 260.28763 268.874934 
L 263.327542 268.582547 
L 266.367454 268.582547 
L 269.407366 267.997774 
L 272.447278 267.705388 
L 275.48719 267.705388 
L 278.527102 267.120615 
L 281.567014 267.413001 
L 284.606926 267.120615 
L 287.646838 266.828228 
L 290.68675 265.951069 
L 293.726662 266.243455 
L 296.766574 266.243455 
L 299.806485 265.951069 
L 302.846397 265.951069 
L 305.886309 265.658682 
L 308.926221 265.658682 
L 311.966133 265.073909 
L 315.006045 265.073909 
L 318.045957 264.781523 
L 321.085869 264.781523 
L 324.125781 264.781523 
L 327.165693 264.489136 
L 330.205605 264.19675 
L 333.245517 263.904363 
L 336.285429 264.19675 
L 339.325341 263.904363 
L 342.365253 263.904363 
L 345.405165 263.611977 
L 348.445077 263.31959 
L 351.484989 263.027204 
L 354.5249 263.027204 
L 357.564812 262.150044 
L 360.604724 262.734817 
L 363.644636 262.442431 
L 366.684548 262.150044 
L 369.72446 261.565272 
" clip-path="url(#pea97c28bbb)" style="fill: none; stroke: #9467bd; stroke-width: 1.5; stroke-linecap: square"/>
   </g>
   <g id="line2d_17">
    <path d="M 65.763665 244.606855 
L 66.037257 244.606855 
L 66.341248 243.729696 
L 66.645239 244.022082 
L 66.94923 242.852536 
L 67.253222 240.513444 
L 67.557213 241.390604 
L 67.861204 241.975377 
L 68.165195 242.56015 
L 68.469186 240.805831 
L 68.773178 240.513444 
L 71.81309 238.466739 
L 74.853001 236.71242 
L 77.892913 236.420034 
L 80.932825 234.665715 
L 83.972737 234.080942 
L 87.012649 232.326623 
L 90.052561 232.034236 
L 93.092473 230.86469 
L 96.132385 230.86469 
L 99.172297 231.74185 
L 102.212209 230.572304 
L 105.252121 229.987531 
L 108.292033 225.601733 
L 111.331945 227.648439 
L 114.371857 228.817985 
L 117.411769 227.356052 
L 120.451681 228.817985 
L 123.491593 226.771279 
L 126.531505 226.186506 
L 129.571417 228.525598 
L 132.611328 227.063666 
L 135.65124 227.356052 
L 138.691152 226.771279 
L 141.731064 226.186506 
L 144.770976 227.356052 
L 147.810888 224.724574 
L 150.8508 225.309347 
L 153.890712 223.555028 
L 156.930624 224.432188 
L 159.970536 224.139801 
L 163.010448 222.970255 
L 166.05036 222.385482 
L 169.090272 222.970255 
L 172.130184 222.093096 
L 175.170096 221.800709 
L 178.210008 222.970255 
L 181.24992 222.385482 
L 184.289832 221.215936 
L 187.329743 220.92355 
L 190.369655 219.754004 
L 193.409567 220.92355 
L 196.449479 220.92355 
L 199.489391 222.093096 
L 202.529303 222.093096 
L 205.569215 221.508323 
L 208.609127 220.338777 
L 211.649039 220.631163 
L 214.688951 219.461617 
L 217.728863 219.461617 
L 220.768775 220.92355 
L 223.808687 219.169231 
L 226.848599 217.414912 
L 229.888511 217.999685 
L 232.928423 218.292071 
L 235.968335 217.999685 
L 239.008247 217.707298 
L 242.048159 218.292071 
L 245.08807 218.292071 
L 248.127982 217.707298 
L 251.167894 215.952979 
L 254.207806 216.245366 
L 257.247718 216.830139 
L 260.28763 215.952979 
L 263.327542 215.368206 
L 266.367454 216.537752 
L 269.407366 215.952979 
L 272.447278 215.952979 
L 275.48719 217.122525 
L 278.527102 215.660593 
L 281.567014 212.151955 
L 284.606926 214.491047 
L 287.646838 214.491047 
L 290.68675 212.736728 
L 293.726662 213.613887 
L 296.766574 212.736728 
L 299.806485 212.736728 
L 302.846397 213.321501 
L 305.886309 214.783433 
L 308.926221 214.783433 
L 311.966133 213.029114 
L 315.006045 213.613887 
L 318.045957 214.19866 
L 321.085869 212.151955 
L 324.125781 212.444342 
L 327.165693 213.029114 
L 330.205605 212.151955 
L 333.245517 211.859569 
L 336.285429 212.151955 
L 339.325341 212.736728 
L 342.365253 209.520477 
L 345.405165 210.10525 
L 348.445077 210.690023 
L 351.484989 208.935704 
L 354.5249 209.812863 
L 357.564812 208.058544 
L 360.604724 211.274796 
L 363.644636 209.22809 
L 366.684548 197.825017 
L 369.72446 206.304225 
" clip-path="url(#pea97c28bbb)" style="fill: none; stroke: #8c564b; stroke-width: 1.5; stroke-linecap: square"/>
   </g>
   <g id="line2d_18">
    <path d="M 65.763665 290.511534 
L 66.037257 290.219147 
L 66.341248 289.926761 
L 66.645239 289.634374 
L 66.94923 289.341988 
L 67.253222 289.634374 
L 67.557213 289.341988 
L 67.861204 289.341988 
L 68.165195 289.049601 
L 68.469186 289.049601 
L 68.773178 288.757215 
L 71.81309 288.172442 
L 74.853001 287.587669 
L 77.892913 287.002896 
L 80.932825 286.710509 
L 83.972737 286.418123 
L 87.012649 286.125737 
L 90.052561 285.248577 
L 93.092473 285.540964 
L 96.132385 285.248577 
L 99.172297 285.248577 
L 102.212209 284.956191 
L 105.252121 284.956191 
L 108.292033 284.079031 
L 111.331945 284.371418 
L 114.371857 284.371418 
L 117.411769 284.371418 
L 120.451681 284.079031 
L 123.491593 283.494258 
L 126.531505 283.786645 
L 129.571417 283.494258 
L 132.611328 283.494258 
L 135.65124 283.201872 
L 138.691152 282.909485 
L 141.731064 283.201872 
L 144.770976 282.617099 
L 147.810888 282.617099 
L 150.8508 282.617099 
L 153.890712 282.617099 
L 156.930624 282.324712 
L 159.970536 282.324712 
L 163.010448 282.032326 
L 166.05036 281.447553 
L 169.090272 282.032326 
L 172.130184 281.155166 
L 175.170096 281.155166 
L 178.210008 281.155166 
L 181.24992 280.86278 
L 184.289832 280.86278 
L 187.329743 280.86278 
L 190.369655 280.86278 
L 193.409567 280.570393 
L 196.449479 280.278007 
L 199.489391 280.278007 
L 202.529303 280.278007 
L 205.569215 279.693234 
L 208.609127 279.693234 
L 211.649039 279.400847 
L 214.688951 279.693234 
L 217.728863 279.400847 
L 220.768775 278.816074 
L 223.808687 278.816074 
L 226.848599 278.816074 
L 229.888511 278.816074 
L 232.928423 278.816074 
L 235.968335 278.523688 
L 239.008247 278.523688 
L 242.048159 278.231301 
L 245.08807 277.354142 
L 248.127982 277.938915 
L 251.167894 277.646528 
L 254.207806 277.354142 
L 257.247718 277.354142 
L 260.28763 277.354142 
L 263.327542 276.184596 
L 266.367454 275.892209 
L 269.407366 275.892209 
L 272.447278 276.184596 
L 275.48719 275.599823 
L 278.527102 275.892209 
L 281.567014 275.892209 
L 284.606926 275.599823 
L 287.646838 275.307436 
L 290.68675 275.307436 
L 293.726662 275.307436 
L 296.766574 275.01505 
L 299.806485 275.01505 
L 302.846397 274.722663 
L 305.886309 274.722663 
L 308.926221 274.722663 
L 311.966133 274.430277 
L 315.006045 274.137891 
L 318.045957 274.137891 
L 321.085869 274.722663 
L 324.125781 272.968345 
L 327.165693 273.845504 
L 330.205605 273.553118 
L 333.245517 272.968345 
L 336.285429 273.845504 
L 339.325341 273.553118 
L 342.365253 272.091185 
L 345.405165 273.260731 
L 348.445077 273.260731 
L 351.484989 272.968345 
L 354.5249 272.968345 
L 357.564812 272.383572 
L 360.604724 271.798799 
L 363.644636 272.383572 
L 366.684548 272.091185 
L 369.72446 272.091185 
" clip-path="url(#pea97c28bbb)" style="fill: none; stroke: #e377c2; stroke-width: 1.5; stroke-linecap: square"/>
   </g>
   <g id="line2d_19">
    <path d="M 65.763665 271.798799 
L 66.037257 267.997774 
L 66.341248 264.489136 
L 66.645239 263.31959 
L 66.94923 261.857658 
L 67.253222 259.810953 
L 67.557213 258.34902 
L 67.861204 257.471861 
L 68.165195 255.132769 
L 68.469186 253.963223 
L 68.773178 253.37845 
L 71.81309 241.68299 
L 74.853001 232.326623 
L 77.892913 226.771279 
L 80.932825 220.92355 
L 83.972737 218.584458 
L 87.012649 213.906274 
L 90.052561 210.690023 
L 93.092473 207.766158 
L 96.132385 204.842293 
L 99.172297 202.210814 
L 102.212209 199.28695 
L 105.252121 197.240244 
L 108.292033 194.316379 
L 111.331945 190.222968 
L 114.371857 189.345809 
L 117.411769 184.960012 
L 120.451681 182.62092 
L 123.491593 180.574214 
L 126.531505 179.112282 
L 129.571417 176.77319 
L 132.611328 173.849325 
L 135.65124 170.92546 
L 138.691152 167.709209 
L 141.731064 165.662503 
L 144.770976 163.031025 
L 147.810888 160.691933 
L 150.8508 158.352841 
L 153.890712 154.551817 
L 156.930624 152.797498 
L 159.970536 151.335566 
L 163.010448 148.119314 
L 166.05036 145.487836 
L 169.090272 143.733517 
L 172.130184 140.517265 
L 175.170096 140.809652 
L 178.210008 137.885787 
L 181.24992 134.377149 
L 184.289832 133.49999 
L 187.329743 135.254309 
L 190.369655 129.698965 
L 193.409567 129.406579 
L 196.449479 129.406579 
L 199.489391 126.190328 
L 202.529303 122.974076 
L 205.569215 121.512144 
L 208.609127 119.465438 
L 211.649039 119.173052 
L 214.688951 115.079641 
L 217.728863 117.126346 
L 220.768775 110.109071 
L 223.808687 113.032936 
L 226.848599 110.109071 
L 229.888511 108.062365 
L 232.928423 106.308046 
L 235.968335 105.723273 
L 239.008247 101.337476 
L 242.048159 100.752703 
L 245.08807 99.875544 
L 248.127982 99.583157 
L 251.167894 96.659292 
L 254.207806 92.858268 
L 257.247718 94.3202 
L 260.28763 91.396335 
L 263.327542 90.811562 
L 266.367454 88.472471 
L 269.407366 86.133379 
L 272.447278 84.086673 
L 275.48719 83.209514 
L 278.527102 80.578035 
L 281.567014 79.993262 
L 284.606926 78.823716 
L 287.646838 75.315079 
L 290.68675 72.6836 
L 293.726662 73.56076 
L 296.766574 71.221668 
L 299.806485 70.636895 
L 302.846397 62.450073 
L 305.886309 67.128257 
L 308.926221 68.297803 
L 311.966133 66.83587 
L 315.006045 66.251097 
L 318.045957 58.941435 
L 321.085869 61.8653 
L 324.125781 60.110981 
L 327.165693 55.432797 
L 330.205605 55.725184 
L 333.245517 55.140411 
L 336.285429 43.737338 
L 339.325341 50.754614 
L 342.365253 49.877454 
L 345.405165 44.322111 
L 348.445077 44.322111 
L 351.484989 46.661203 
L 354.5249 40.2287 
L 357.564812 45.491657 
L 360.604724 41.105859 
L 363.644636 37.012449 
L 366.684548 37.889608 
L 369.72446 31.749492 
" clip-path="url(#pea97c28bbb)" style="fill: none; stroke: #7f7f7f; stroke-width: 1.5; stroke-linecap: square"/>
   </g>
   <g id="line2d_20">
    <path d="M 65.763665 289.634374 
L 66.037257 287.880055 
L 66.341248 287.587669 
L 66.645239 286.710509 
L 66.94923 286.125737 
L 67.253222 285.540964 
L 67.557213 285.248577 
L 67.861204 284.956191 
L 68.165195 284.371418 
L 68.469186 284.079031 
L 68.773178 284.079031 
L 71.81309 281.739939 
L 74.853001 278.523688 
L 77.892913 276.769369 
L 80.932825 276.184596 
L 83.972737 275.01505 
L 87.012649 274.137891 
L 90.052561 272.675958 
L 93.092473 271.214026 
L 96.132385 270.336866 
L 99.172297 270.336866 
L 102.212209 268.874934 
L 105.252121 268.874934 
L 108.292033 269.16732 
L 111.331945 268.874934 
L 114.371857 268.290161 
L 117.411769 267.705388 
L 120.451681 266.828228 
L 123.491593 266.828228 
L 126.531505 266.243455 
L 129.571417 265.366296 
L 132.611328 265.366296 
L 135.65124 262.734817 
L 138.691152 262.734817 
L 141.731064 263.904363 
L 144.770976 263.611977 
L 147.810888 262.734817 
L 150.8508 262.442431 
L 153.890712 262.150044 
L 156.930624 261.272885 
L 159.970536 260.688112 
L 163.010448 259.810953 
L 166.05036 260.103339 
L 169.090272 258.34902 
L 172.130184 259.22618 
L 175.170096 258.933793 
L 178.210008 257.471861 
L 181.24992 258.34902 
L 184.289832 256.887088 
L 187.329743 256.887088 
L 190.369655 256.302315 
L 193.409567 255.132769 
L 196.449479 256.009928 
L 199.489391 254.840382 
L 202.529303 254.840382 
L 205.569215 254.547996 
L 208.609127 254.255609 
L 211.649039 253.086063 
L 214.688951 253.963223 
L 217.728863 253.37845 
L 220.768775 252.208904 
L 223.808687 251.916517 
L 226.848599 251.331744 
L 229.888511 251.331744 
L 232.928423 251.039358 
L 235.968335 251.039358 
L 239.008247 250.454585 
L 242.048159 249.869812 
L 245.08807 248.40788 
L 248.127982 248.700266 
L 251.167894 248.40788 
L 254.207806 247.53072 
L 257.247718 248.40788 
L 260.28763 247.53072 
L 263.327542 247.53072 
L 266.367454 247.238334 
L 269.407366 247.53072 
L 272.447278 246.945947 
L 275.48719 245.776401 
L 278.527102 246.653561 
L 281.567014 244.899242 
L 284.606926 243.729696 
L 287.646838 244.606855 
L 290.68675 243.144923 
L 293.726662 243.437309 
L 296.766574 242.852536 
L 299.806485 243.437309 
L 302.846397 241.68299 
L 305.886309 242.267763 
L 308.926221 241.975377 
L 311.966133 239.928671 
L 315.006045 240.513444 
L 318.045957 239.636285 
L 321.085869 238.466739 
L 324.125781 241.098217 
L 327.165693 239.343898 
L 330.205605 239.051512 
L 333.245517 237.881966 
L 336.285429 237.881966 
L 339.325341 237.881966 
L 342.365253 237.881966 
L 345.405165 237.004807 
L 348.445077 236.127647 
L 351.484989 231.157077 
L 354.5249 234.958101 
L 357.564812 236.127647 
L 360.604724 235.835261 
L 363.644636 236.127647 
L 366.684548 234.373328 
L 369.72446 234.373328 
" clip-path="url(#pea97c28bbb)" style="fill: none; stroke: #bcbd22; stroke-width: 1.5; stroke-linecap: square"/>
   </g>
   <g id="line2d_21">
    <path d="M 65.763665 182.913306 
L 66.037257 180.281828 
L 66.341248 178.235122 
L 66.645239 175.603644 
L 66.94923 174.141712 
L 67.253222 173.556939 
L 67.557213 171.80262 
L 67.861204 170.048301 
L 68.165195 168.001595 
L 68.469186 169.463528 
L 68.773178 166.539663 
L 71.81309 154.844203 
L 74.853001 153.967044 
L 77.892913 148.996474 
L 80.932825 147.242155 
L 83.972737 144.31829 
L 87.012649 140.517265 
L 90.052561 134.377149 
L 93.092473 136.423855 
L 96.132385 134.084763 
L 99.172297 129.406579 
L 102.212209 127.944646 
L 105.252121 125.897941 
L 108.292033 107.185206 
L 111.331945 122.68169 
L 114.371857 123.851236 
L 117.411769 118.880665 
L 120.451681 116.83396 
L 123.491593 119.173052 
L 126.531505 116.249187 
L 129.571417 113.910095 
L 132.611328 110.98623 
L 135.65124 110.98623 
L 138.691152 110.98623 
L 141.731064 108.939525 
L 144.770976 106.892819 
L 147.810888 106.892819 
L 150.8508 104.553727 
L 153.890712 101.629863 
L 156.930624 103.384181 
L 159.970536 100.460317 
L 163.010448 102.214636 
L 166.05036 95.19736 
L 169.090272 96.659292 
L 172.130184 94.027814 
L 175.170096 91.688722 
L 178.210008 91.688722 
L 181.24992 92.273495 
L 184.289832 89.642017 
L 187.329743 88.472471 
L 190.369655 85.548606 
L 193.409567 88.180084 
L 196.449479 87.010538 
L 199.489391 86.133379 
L 202.529303 80.285649 
L 205.569215 79.116103 
L 208.609127 80.285649 
L 211.649039 78.823716 
L 214.688951 79.700876 
L 217.728863 78.53133 
L 220.768775 74.437919 
L 223.808687 74.145533 
L 226.848599 73.268373 
L 229.888511 72.975987 
L 232.928423 75.899852 
L 235.968335 70.636895 
L 239.008247 73.268373 
L 242.048159 66.83587 
L 245.08807 66.251097 
L 248.127982 64.496779 
L 251.167894 67.420643 
L 254.207806 65.958711 
L 257.247718 63.619619 
L 260.28763 62.450073 
L 263.327542 60.110981 
L 266.367454 56.89473 
L 269.407366 58.649049 
L 272.447278 54.263251 
L 275.48719 57.479503 
L 278.527102 55.725184 
L 281.567014 56.89473 
L 284.606926 53.970865 
L 287.646838 53.678478 
L 290.68675 49.877454 
L 293.726662 49.292681 
L 296.766574 50.169841 
L 299.806485 51.339387 
L 302.846397 45.19927 
L 305.886309 47.830749 
L 308.926221 46.07643 
L 311.966133 46.07643 
L 315.006045 49.000295 
L 318.045957 42.275405 
L 321.085869 40.2287 
L 324.125781 39.936314 
L 327.165693 42.275405 
L 330.205605 36.135289 
L 333.245517 42.275405 
L 336.285429 39.936314 
L 339.325341 39.351541 
L 342.365253 34.673357 
L 345.405165 39.351541 
L 348.445077 34.673357 
L 351.484989 34.673357 
L 354.5249 37.597222 
L 357.564812 35.25813 
L 360.604724 33.211424 
L 363.644636 29.702786 
L 366.684548 24.147443 
L 369.72446 29.4104 
" clip-path="url(#pea97c28bbb)" style="fill: none; stroke: #17becf; stroke-width: 1.5; stroke-linecap: square"/>
   </g>
   <g id="line2d_22">
    <path d="M 65.763665 290.80392 
L 66.037257 289.634374 
L 66.341248 289.341988 
L 66.645239 288.757215 
L 66.94923 288.464828 
L 67.253222 288.172442 
L 67.557213 287.880055 
L 67.861204 287.587669 
L 68.165195 287.002896 
L 68.469186 287.002896 
L 68.773178 287.002896 
L 71.81309 285.248577 
L 74.853001 284.371418 
L 77.892913 283.494258 
L 80.932825 282.909485 
L 83.972737 282.617099 
L 87.012649 281.739939 
L 90.052561 281.447553 
L 93.092473 281.155166 
L 96.132385 280.570393 
L 99.172297 280.570393 
L 102.212209 279.98562 
L 105.252121 279.98562 
L 108.292033 279.693234 
L 111.331945 279.400847 
L 114.371857 278.816074 
L 117.411769 278.231301 
L 120.451681 278.231301 
L 123.491593 278.231301 
L 126.531505 277.354142 
L 129.571417 277.646528 
L 132.611328 277.061755 
L 135.65124 277.061755 
L 138.691152 276.476982 
L 141.731064 275.599823 
L 144.770976 275.892209 
L 147.810888 275.599823 
L 150.8508 275.01505 
L 153.890712 274.722663 
L 156.930624 275.01505 
L 159.970536 274.722663 
L 163.010448 274.430277 
L 166.05036 273.845504 
L 169.090272 273.845504 
L 172.130184 273.553118 
L 175.170096 273.553118 
L 178.210008 272.675958 
L 181.24992 272.383572 
L 184.289832 272.383572 
L 187.329743 272.675958 
L 190.369655 272.091185 
L 193.409567 272.091185 
L 196.449479 271.214026 
L 199.489391 270.629253 
L 202.529303 270.336866 
L 205.569215 270.04448 
L 208.609127 269.752093 
L 211.649039 269.459707 
L 214.688951 269.752093 
L 217.728863 268.874934 
L 220.768775 268.874934 
L 223.808687 268.582547 
L 226.848599 268.582547 
L 229.888511 268.582547 
L 232.928423 267.413001 
L 235.968335 268.290161 
L 239.008247 267.705388 
L 242.048159 267.413001 
L 245.08807 267.705388 
L 248.127982 267.413001 
L 251.167894 267.120615 
L 254.207806 267.120615 
L 257.247718 265.658682 
L 260.28763 266.535842 
L 263.327542 265.951069 
L 266.367454 265.951069 
L 269.407366 265.951069 
L 272.447278 265.951069 
L 275.48719 265.366296 
L 278.527102 265.073909 
L 281.567014 265.658682 
L 284.606926 264.781523 
L 287.646838 263.904363 
L 290.68675 264.489136 
L 293.726662 264.781523 
L 296.766574 264.489136 
L 299.806485 264.489136 
L 302.846397 263.611977 
L 305.886309 264.19675 
L 308.926221 263.904363 
L 311.966133 262.442431 
L 315.006045 263.611977 
L 318.045957 263.904363 
L 321.085869 263.027204 
L 324.125781 263.31959 
L 327.165693 262.442431 
L 330.205605 262.734817 
L 333.245517 262.734817 
L 336.285429 262.150044 
L 339.325341 262.442431 
L 342.365253 262.442431 
L 345.405165 262.150044 
L 348.445077 261.565272 
L 351.484989 261.272885 
L 354.5249 260.980499 
L 357.564812 261.857658 
L 360.604724 261.272885 
L 363.644636 260.980499 
L 366.684548 259.810953 
L 369.72446 260.103339 
" clip-path="url(#pea97c28bbb)" style="fill: none; stroke: #1f77b4; stroke-width: 1.5; stroke-linecap: square"/>
   </g>
   <g id="line2d_23">
    <path d="M 65.763665 288.172442 
L 66.037257 285.540964 
L 66.341248 282.909485 
L 66.645239 281.447553 
L 66.94923 279.693234 
L 67.253222 277.646528 
L 67.557213 276.184596 
L 67.861204 274.430277 
L 68.165195 273.845504 
L 68.469186 272.091185 
L 68.773178 271.506412 
L 71.81309 258.641407 
L 74.853001 252.50129 
L 77.892913 245.484015 
L 80.932825 240.805831 
L 83.972737 236.127647 
L 87.012649 231.449463 
L 90.052561 226.771279 
L 93.092473 224.432188 
L 96.132385 220.92355 
L 99.172297 214.491047 
L 102.212209 213.321501 
L 105.252121 211.274796 
L 108.292033 206.304225 
L 111.331945 205.427066 
L 114.371857 203.965133 
L 117.411769 201.626041 
L 120.451681 199.28695 
L 123.491593 196.947858 
L 126.531505 193.731606 
L 129.571417 191.977287 
L 132.611328 187.883877 
L 135.65124 187.883877 
L 138.691152 184.960012 
L 141.731064 182.62092 
L 144.770976 180.281828 
L 147.810888 175.018871 
L 150.8508 175.311258 
L 153.890712 172.679779 
L 156.930624 171.217847 
L 159.970536 170.048301 
L 163.010448 165.662503 
L 166.05036 164.785344 
L 169.090272 158.352841 
L 172.130184 160.10716 
L 175.170096 156.306136 
L 178.210008 157.475682 
L 181.24992 154.25943 
L 184.289832 150.458406 
L 187.329743 148.996474 
L 190.369655 146.657382 
L 193.409567 144.610676 
L 196.449479 141.102038 
L 199.489391 141.394425 
L 202.529303 139.347719 
L 205.569215 136.423855 
L 208.609127 134.377149 
L 211.649039 132.330444 
L 214.688951 132.038057 
L 217.728863 128.237033 
L 220.768775 126.482714 
L 223.808687 124.728395 
L 226.848599 124.436009 
L 229.888511 121.80453 
L 232.928423 121.512144 
L 235.968335 117.126346 
L 239.008247 114.787254 
L 242.048159 113.032936 
L 245.08807 110.693844 
L 248.127982 110.109071 
L 251.167894 107.185206 
L 254.207806 105.723273 
L 257.247718 99.583157 
L 260.28763 101.629863 
L 263.327542 98.121225 
L 266.367454 94.904973 
L 269.407366 95.19736 
L 272.447278 93.735427 
L 275.48719 91.981108 
L 278.527102 88.472471 
L 281.567014 88.180084 
L 284.606926 85.256219 
L 287.646838 82.624741 
L 290.68675 82.624741 
L 293.726662 78.823716 
L 296.766574 79.408489 
L 299.806485 77.654171 
L 302.846397 75.022692 
L 305.886309 70.929281 
L 308.926221 70.052122 
L 311.966133 70.344508 
L 315.006045 69.467349 
L 318.045957 63.034846 
L 321.085869 63.327233 
L 324.125781 59.818595 
L 327.165693 59.526208 
L 330.205605 57.479503 
L 333.245517 55.432797 
L 336.285429 54.848024 
L 339.325341 52.801319 
L 342.365253 49.000295 
L 345.405165 47.830749 
L 348.445077 44.906884 
L 351.484989 45.19927 
L 354.5249 43.152565 
L 357.564812 40.813473 
L 360.604724 42.567792 
L 363.644636 35.25813 
L 366.684548 28.533241 
L 369.72446 30.872332 
" clip-path="url(#pea97c28bbb)" style="fill: none; stroke: #ff7f0e; stroke-width: 1.5; stroke-linecap: square"/>
   </g>
   <g id="patch_3">
    <path d="M 50.565625 304.44375 
L 50.565625 10.8 
" style="fill: none; stroke: #000000; stroke-width: 0.8; stroke-linejoin: miter; stroke-linecap: square"/>
   </g>
   <g id="patch_4">
    <path d="M 384.9225 304.44375 
L 384.9225 10.8 
" style="fill: none; stroke: #000000; stroke-width: 0.8; stroke-linejoin: miter; stroke-linecap: square"/>
   </g>
   <g id="patch_5">
    <path d="M 50.565625 304.44375 
L 384.9225 304.44375 
" style="fill: none; stroke: #000000; stroke-width: 0.8; stroke-linejoin: miter; stroke-linecap: square"/>
   </g>
   <g id="patch_6">
    <path d="M 50.565625 10.8 
L 384.9225 10.8 
" style="fill: none; stroke: #000000; stroke-width: 0.8; stroke-linejoin: miter; stroke-linecap: square"/>
   </g>
   <g id="text_14">
    <!-- solomon -->
    <g style="fill: #e377c2" transform="translate(390.9225 274.298685) scale(0.08 -0.08)">
     <defs>
      <path id="DejaVuSans-6f" d="M 1959 3097 
Q 1497 3097 1228 2736 
Q 959 2375 959 1747 
Q 959 1119 1226 758 
Q 1494 397 1959 397 
Q 2419 397 2687 759 
Q 2956 1122 2956 1747 
Q 2956 2369 2687 2733 
Q 2419 3097 1959 3097 
z
M 1959 3584 
Q 2709 3584 3137 3096 
Q 3566 2609 3566 1747 
Q 3566 888 3137 398 
Q 2709 -91 1959 -91 
Q 1206 -91 779 398 
Q 353 888 353 1747 
Q 353 2609 779 3096 
Q 1206 3584 1959 3584 
z
" transform="scale(0.015625)"/>
      <path id="DejaVuSans-6c" d="M 603 4863 
L 1178 4863 
L 1178 0 
L 603 0 
L 603 4863 
z
" transform="scale(0.015625)"/>
     </defs>
     <use xlink:href="#DejaVuSans-73"/>
     <use xlink:href="#DejaVuSans-6f" transform="translate(52.099609 0)"/>
     <use xlink:href="#DejaVuSans-6c" transform="translate(113.28125 0)"/>
     <use xlink:href="#DejaVuSans-6f" transform="translate(141.064453 0)"/>
     <use xlink:href="#DejaVuSans-6d" transform="translate(202.246094 0)"/>
     <use xlink:href="#DejaVuSans-6f" transform="translate(299.658203 0)"/>
     <use xlink:href="#DejaVuSans-6e" transform="translate(360.839844 0)"/>
    </g>
   </g>
   <g id="text_15">
    <!-- mustachej -->
    <g style="fill: #9467bd" transform="translate(390.9225 263.772772) scale(0.08 -0.08)">
     <defs>
      <path id="DejaVuSans-61" d="M 2194 1759 
Q 1497 1759 1228 1600 
Q 959 1441 959 1056 
Q 959 750 1161 570 
Q 1363 391 1709 391 
Q 2188 391 2477 730 
Q 2766 1069 2766 1631 
L 2766 1759 
L 2194 1759 
z
M 3341 1997 
L 3341 0 
L 2766 0 
L 2766 531 
Q 2569 213 2275 61 
Q 1981 -91 1556 -91 
Q 1019 -91 701 211 
Q 384 513 384 1019 
Q 384 1609 779 1909 
Q 1175 2209 1959 2209 
L 2766 2209 
L 2766 2266 
Q 2766 2663 2505 2880 
Q 2244 3097 1772 3097 
Q 1472 3097 1187 3025 
Q 903 2953 641 2809 
L 641 3341 
Q 956 3463 1253 3523 
Q 1550 3584 1831 3584 
Q 2591 3584 2966 3190 
Q 3341 2797 3341 1997 
z
" transform="scale(0.015625)"/>
      <path id="DejaVuSans-63" d="M 3122 3366 
L 3122 2828 
Q 2878 2963 2633 3030 
Q 2388 3097 2138 3097 
Q 1578 3097 1268 2742 
Q 959 2388 959 1747 
Q 959 1106 1268 751 
Q 1578 397 2138 397 
Q 2388 397 2633 464 
Q 2878 531 3122 666 
L 3122 134 
Q 2881 22 2623 -34 
Q 2366 -91 2075 -91 
Q 1284 -91 818 406 
Q 353 903 353 1747 
Q 353 2603 823 3093 
Q 1294 3584 2113 3584 
Q 2378 3584 2631 3529 
Q 2884 3475 3122 3366 
z
" transform="scale(0.015625)"/>
      <path id="DejaVuSans-68" d="M 3513 2113 
L 3513 0 
L 2938 0 
L 2938 2094 
Q 2938 2591 2744 2837 
Q 2550 3084 2163 3084 
Q 1697 3084 1428 2787 
Q 1159 2491 1159 1978 
L 1159 0 
L 581 0 
L 581 4863 
L 1159 4863 
L 1159 2956 
Q 1366 3272 1645 3428 
Q 1925 3584 2291 3584 
Q 2894 3584 3203 3211 
Q 3513 2838 3513 2113 
z
" transform="scale(0.015625)"/>
      <path id="DejaVuSans-6a" d="M 603 3500 
L 1178 3500 
L 1178 -63 
Q 1178 -731 923 -1031 
Q 669 -1331 103 -1331 
L -116 -1331 
L -116 -844 
L 38 -844 
Q 366 -844 484 -692 
Q 603 -541 603 -63 
L 603 3500 
z
M 603 4863 
L 1178 4863 
L 1178 4134 
L 603 4134 
L 603 4863 
z
" transform="scale(0.015625)"/>
     </defs>
     <use xlink:href="#DejaVuSans-6d"/>
     <use xlink:href="#DejaVuSans-75" transform="translate(97.412109 0)"/>
     <use xlink:href="#DejaVuSans-73" transform="translate(160.791016 0)"/>
     <use xlink:href="#DejaVuSans-74" transform="translate(212.890625 0)"/>
     <use xlink:href="#DejaVuSans-61" transform="translate(252.099609 0)"/>
     <use xlink:href="#DejaVuSans-63" transform="translate(313.378906 0)"/>
     <use xlink:href="#DejaVuSans-68" transform="translate(368.359375 0)"/>
     <use xlink:href="#DejaVuSans-65" transform="translate(431.738281 0)"/>
     <use xlink:href="#DejaVuSans-6a" transform="translate(493.261719 0)"/>
    </g>
   </g>
   <g id="text_16">
    <!-- trimou -->
    <g style="fill: #1f77b4" transform="translate(390.9225 256.170723) scale(0.08 -0.08)">
     <use xlink:href="#DejaVuSans-74"/>
     <use xlink:href="#DejaVuSans-72" transform="translate(39.208984 0)"/>
     <use xlink:href="#DejaVuSans-69" transform="translate(80.322266 0)"/>
     <use xlink:href="#DejaVuSans-6d" transform="translate(108.105469 0)"/>
     <use xlink:href="#DejaVuSans-6f" transform="translate(205.517578 0)"/>
     <use xlink:href="#DejaVuSans-75" transform="translate(266.699219 0)"/>
    </g>
   </g>
   <g id="text_17">
    <!-- freemarker -->
    <g style="fill: #1f77b4" transform="translate(390.9225 244.182877) scale(0.08 -0.08)">
     <defs>
      <path id="DejaVuSans-66" d="M 2375 4863 
L 2375 4384 
L 1825 4384 
Q 1516 4384 1395 4259 
Q 1275 4134 1275 3809 
L 1275 3500 
L 2222 3500 
L 2222 3053 
L 1275 3053 
L 1275 0 
L 697 0 
L 697 3053 
L 147 3053 
L 147 3500 
L 697 3500 
L 697 3744 
Q 697 4328 969 4595 
Q 1241 4863 1831 4863 
L 2375 4863 
z
" transform="scale(0.015625)"/>
      <path id="DejaVuSans-6b" d="M 581 4863 
L 1159 4863 
L 1159 1991 
L 2875 3500 
L 3609 3500 
L 1753 1863 
L 3688 0 
L 2938 0 
L 1159 1709 
L 1159 0 
L 581 0 
L 581 4863 
z
" transform="scale(0.015625)"/>
     </defs>
     <use xlink:href="#DejaVuSans-66"/>
     <use xlink:href="#DejaVuSans-72" transform="translate(35.205078 0)"/>
     <use xlink:href="#DejaVuSans-65" transform="translate(74.068359 0)"/>
     <use xlink:href="#DejaVuSans-65" transform="translate(135.591797 0)"/>
     <use xlink:href="#DejaVuSans-6d" transform="translate(197.115234 0)"/>
     <use xlink:href="#DejaVuSans-61" transform="translate(294.527344 0)"/>
     <use xlink:href="#DejaVuSans-72" transform="translate(355.806641 0)"/>
     <use xlink:href="#DejaVuSans-6b" transform="translate(396.919922 0)"/>
     <use xlink:href="#DejaVuSans-65" transform="translate(451.205078 0)"/>
     <use xlink:href="#DejaVuSans-72" transform="translate(512.728516 0)"/>
    </g>
   </g>
   <g id="text_18">
    <!-- stringtree -->
    <g style="fill: #bcbd22" transform="translate(390.9225 236.580828) scale(0.08 -0.08)">
     <defs>
      <path id="DejaVuSans-67" d="M 2906 1791 
Q 2906 2416 2648 2759 
Q 2391 3103 1925 3103 
Q 1463 3103 1205 2759 
Q 947 2416 947 1791 
Q 947 1169 1205 825 
Q 1463 481 1925 481 
Q 2391 481 2648 825 
Q 2906 1169 2906 1791 
z
M 3481 434 
Q 3481 -459 3084 -895 
Q 2688 -1331 1869 -1331 
Q 1566 -1331 1297 -1286 
Q 1028 -1241 775 -1147 
L 775 -588 
Q 1028 -725 1275 -790 
Q 1522 -856 1778 -856 
Q 2344 -856 2625 -561 
Q 2906 -266 2906 331 
L 2906 616 
Q 2728 306 2450 153 
Q 2172 0 1784 0 
Q 1141 0 747 490 
Q 353 981 353 1791 
Q 353 2603 747 3093 
Q 1141 3584 1784 3584 
Q 2172 3584 2450 3431 
Q 2728 3278 2906 2969 
L 2906 3500 
L 3481 3500 
L 3481 434 
z
" transform="scale(0.015625)"/>
     </defs>
     <use xlink:href="#DejaVuSans-73"/>
     <use xlink:href="#DejaVuSans-74" transform="translate(52.099609 0)"/>
     <use xlink:href="#DejaVuSans-72" transform="translate(91.308594 0)"/>
     <use xlink:href="#DejaVuSans-69" transform="translate(132.421875 0)"/>
     <use xlink:href="#DejaVuSans-6e" transform="translate(160.205078 0)"/>
     <use xlink:href="#DejaVuSans-67" transform="translate(223.583984 0)"/>
     <use xlink:href="#DejaVuSans-74" transform="translate(287.060547 0)"/>
     <use xlink:href="#DejaVuSans-72" transform="translate(326.269531 0)"/>
     <use xlink:href="#DejaVuSans-65" transform="translate(365.132812 0)"/>
     <use xlink:href="#DejaVuSans-65" transform="translate(426.65625 0)"/>
    </g>
   </g>
   <g id="text_19">
    <!-- handlebars -->
    <g style="fill: #ff7f0e" transform="translate(390.9225 223.715823) scale(0.08 -0.08)">
     <defs>
      <path id="DejaVuSans-64" d="M 2906 2969 
L 2906 4863 
L 3481 4863 
L 3481 0 
L 2906 0 
L 2906 525 
Q 2725 213 2448 61 
Q 2172 -91 1784 -91 
Q 1150 -91 751 415 
Q 353 922 353 1747 
Q 353 2572 751 3078 
Q 1150 3584 1784 3584 
Q 2172 3584 2448 3432 
Q 2725 3281 2906 2969 
z
M 947 1747 
Q 947 1113 1208 752 
Q 1469 391 1925 391 
Q 2381 391 2643 752 
Q 2906 1113 2906 1747 
Q 2906 2381 2643 2742 
Q 2381 3103 1925 3103 
Q 1469 3103 1208 2742 
Q 947 2381 947 1747 
z
" transform="scale(0.015625)"/>
      <path id="DejaVuSans-62" d="M 3116 1747 
Q 3116 2381 2855 2742 
Q 2594 3103 2138 3103 
Q 1681 3103 1420 2742 
Q 1159 2381 1159 1747 
Q 1159 1113 1420 752 
Q 1681 391 2138 391 
Q 2594 391 2855 752 
Q 3116 1113 3116 1747 
z
M 1159 2969 
Q 1341 3281 1617 3432 
Q 1894 3584 2278 3584 
Q 2916 3584 3314 3078 
Q 3713 2572 3713 1747 
Q 3713 922 3314 415 
Q 2916 -91 2278 -91 
Q 1894 -91 1617 61 
Q 1341 213 1159 525 
L 1159 0 
L 581 0 
L 581 4863 
L 1159 4863 
L 1159 2969 
z
" transform="scale(0.015625)"/>
     </defs>
     <use xlink:href="#DejaVuSans-68"/>
     <use xlink:href="#DejaVuSans-61" transform="translate(63.378906 0)"/>
     <use xlink:href="#DejaVuSans-6e" transform="translate(124.658203 0)"/>
     <use xlink:href="#DejaVuSans-64" transform="translate(188.037109 0)"/>
     <use xlink:href="#DejaVuSans-6c" transform="translate(251.513672 0)"/>
     <use xlink:href="#DejaVuSans-65" transform="translate(279.296875 0)"/>
     <use xlink:href="#DejaVuSans-62" transform="translate(340.820312 0)"/>
     <use xlink:href="#DejaVuSans-61" transform="translate(404.296875 0)"/>
     <use xlink:href="#DejaVuSans-72" transform="translate(465.576172 0)"/>
     <use xlink:href="#DejaVuSans-73" transform="translate(506.689453 0)"/>
    </g>
   </g>
   <g id="text_20">
    <!-- pebble -->
    <g style="fill: #8c564b" transform="translate(390.9225 208.511725) scale(0.08 -0.08)">
     <defs>
      <path id="DejaVuSans-70" d="M 1159 525 
L 1159 -1331 
L 581 -1331 
L 581 3500 
L 1159 3500 
L 1159 2969 
Q 1341 3281 1617 3432 
Q 1894 3584 2278 3584 
Q 2916 3584 3314 3078 
Q 3713 2572 3713 1747 
Q 3713 922 3314 415 
Q 2916 -91 2278 -91 
Q 1894 -91 1617 61 
Q 1341 213 1159 525 
z
M 3116 1747 
Q 3116 2381 2855 2742 
Q 2594 3103 2138 3103 
Q 1681 3103 1420 2742 
Q 1159 2381 1159 1747 
Q 1159 1113 1420 752 
Q 1681 391 2138 391 
Q 2594 391 2855 752 
Q 3116 1113 3116 1747 
z
" transform="scale(0.015625)"/>
     </defs>
     <use xlink:href="#DejaVuSans-70"/>
     <use xlink:href="#DejaVuSans-65" transform="translate(63.476562 0)"/>
     <use xlink:href="#DejaVuSans-62" transform="translate(125 0)"/>
     <use xlink:href="#DejaVuSans-62" transform="translate(188.476562 0)"/>
     <use xlink:href="#DejaVuSans-6c" transform="translate(251.953125 0)"/>
     <use xlink:href="#DejaVuSans-65" transform="translate(279.736328 0)"/>
    </g>
   </g>
   <g id="text_21">
    <!-- jangod -->
    <g style="fill: #2ca02c" transform="translate(390.9225 200.909677) scale(0.08 -0.08)">
     <use xlink:href="#DejaVuSans-6a"/>
     <use xlink:href="#DejaVuSans-61" transform="translate(27.783203 0)"/>
     <use xlink:href="#DejaVuSans-6e" transform="translate(89.0625 0)"/>
     <use xlink:href="#DejaVuSans-67" transform="translate(152.441406 0)"/>
     <use xlink:href="#DejaVuSans-6f" transform="translate(215.917969 0)"/>
     <use xlink:href="#DejaVuSans-64" transform="translate(277.099609 0)"/>
    </g>
   </g>
   <g id="text_22">
    <!-- jte -->
    <g style="fill: #d62728" transform="translate(390.9225 92.434289) scale(0.08 -0.08)">
     <use xlink:href="#DejaVuSans-6a"/>
     <use xlink:href="#DejaVuSans-74" transform="translate(27.783203 0)"/>
     <use xlink:href="#DejaVuSans-65" transform="translate(66.992188 0)"/>
    </g>
   </g>
   <g id="text_23">
    <!-- stringtemplate -->
    <g style="fill: #7f7f7f" transform="translate(390.9225 40.681881) scale(0.08 -0.08)">
     <use xlink:href="#DejaVuSans-73"/>
     <use xlink:href="#DejaVuSans-74" transform="translate(52.099609 0)"/>
     <use xlink:href="#DejaVuSans-72" transform="translate(91.308594 0)"/>
     <use xlink:href="#DejaVuSans-69" transform="translate(132.421875 0)"/>
     <use xlink:href="#DejaVuSans-6e" transform="translate(160.205078 0)"/>
     <use xlink:href="#DejaVuSans-67" transform="translate(223.583984 0)"/>
     <use xlink:href="#DejaVuSans-74" transform="translate(287.060547 0)"/>
     <use xlink:href="#DejaVuSans-65" transform="translate(326.269531 0)"/>
     <use xlink:href="#DejaVuSans-6d" transform="translate(387.792969 0)"/>
     <use xlink:href="#DejaVuSans-70" transform="translate(485.205078 0)"/>
     <use xlink:href="#DejaVuSans-6c" transform="translate(548.681641 0)"/>
     <use xlink:href="#DejaVuSans-61" transform="translate(576.464844 0)"/>
     <use xlink:href="#DejaVuSans-74" transform="translate(637.744141 0)"/>
     <use xlink:href="#DejaVuSans-65" transform="translate(676.953125 0)"/>
    </g>
   </g>
   <g id="text_24">
    <!-- velocity -->
    <g style="fill: #ff7f0e" transform="translate(390.9225 33.079832) scale(0.08 -0.08)">
     <defs>
      <path id="DejaVuSans-76" d="M 191 3500 
L 800 3500 
L 1894 563 
L 2988 3500 
L 3597 3500 
L 2284 0 
L 1503 0 
L 191 3500 
z
" transform="scale(0.015625)"/>
      <path id="DejaVuSans-79" d="M 2059 -325 
Q 1816 -950 1584 -1140 
Q 1353 -1331 966 -1331 
L 506 -1331 
L 506 -850 
L 844 -850 
Q 1081 -850 1212 -737 
Q 1344 -625 1503 -206 
L 1606 56 
L 191 3500 
L 800 3500 
L 1894 763 
L 2988 3500 
L 3597 3500 
L 2059 -325 
z
" transform="scale(0.015625)"/>
     </defs>
     <use xlink:href="#DejaVuSans-76"/>
     <use xlink:href="#DejaVuSans-65" transform="translate(59.179688 0)"/>
     <use xlink:href="#DejaVuSans-6c" transform="translate(120.703125 0)"/>
     <use xlink:href="#DejaVuSans-6f" transform="translate(148.486328 0)"/>
     <use xlink:href="#DejaVuSans-63" transform="translate(209.667969 0)"/>
     <use xlink:href="#DejaVuSans-69" transform="translate(264.648438 0)"/>
     <use xlink:href="#DejaVuSans-74" transform="translate(292.431641 0)"/>
     <use xlink:href="#DejaVuSans-79" transform="translate(331.640625 0)"/>
    </g>
   </g>
   <g id="text_25">
    <!-- thymeleaf -->
    <g style="fill: #17becf" transform="translate(390.9225 25.477784) scale(0.08 -0.08)">
     <use xlink:href="#DejaVuSans-74"/>
     <use xlink:href="#DejaVuSans-68" transform="translate(39.208984 0)"/>
     <use xlink:href="#DejaVuSans-79" transform="translate(102.587891 0)"/>
     <use xlink:href="#DejaVuSans-6d" transform="translate(161.767578 0)"/>
     <use xlink:href="#DejaVuSans-65" transform="translate(259.179688 0)"/>
     <use xlink:href="#DejaVuSans-6c" transform="translate(320.703125 0)"/>
     <use xlink:href="#DejaVuSans-65" transform="translate(348.486328 0)"/>
     <use xlink:href="#DejaVuSans-61" transform="translate(410.009766 0)"/>
     <use xlink:href="#DejaVuSans-66" transform="translate(471.289062 0)"/>
    </g>
   </g>
  </g>
 </g>
 <defs>
  <clipPath id="pea97c28bbb">
   <rect x="50.565625" y="10.8" width="334.356875" height="293.64375"/>
  </clipPath>
 </defs>
</svg>
