<?xml version="1.0" encoding="utf-8" standalone="no"?>
<!DOCTYPE svg PUBLIC "-//W3C//DTD SVG 1.1//EN"
  "http://www.w3.org/Graphics/SVG/1.1/DTD/svg11.dtd">
<svg xmlns:xlink="http://www.w3.org/1999/xlink" width="460.8pt" height="345.6pt" viewBox="0 0 460.8 345.6" xmlns="http://www.w3.org/2000/svg" version="1.1">
 <metadata>
  <rdf:RDF xmlns:dc="http://purl.org/dc/elements/1.1/" xmlns:cc="http://creativecommons.org/ns#" xmlns:rdf="http://www.w3.org/1999/02/22-rdf-syntax-ns#">
   <cc:Work>
    <dc:type rdf:resource="http://purl.org/dc/dcmitype/StillImage"/>
    <dc:date>2025-04-13T16:08:54.395281</dc:date>
    <dc:format>image/svg+xml</dc:format>
    <dc:creator>
     <cc:Agent>
      <dc:title>Matplotlib v3.10.1, https://matplotlib.org/</dc:title>
     </cc:Agent>
    </dc:creator>
   </cc:Work>
  </rdf:RDF>
 </metadata>
 <defs>
  <style type="text/css">*{stroke-linejoin: round; stroke-linecap: butt}</style>
 </defs>
 <g id="figure_1">
  <g id="patch_1">
   <path d="M 0 345.6 
L 460.8 345.6 
L 460.8 0 
L 0 0 
z
" style="fill: #ffffff"/>
  </g>
  <g id="axes_1">
   <g id="patch_2">
    <path d="M 50.565625 304.44375 
L 384.9225 304.44375 
L 384.9225 10.8 
L 50.565625 10.8 
z
" style="fill: #ffffff"/>
   </g>
   <g id="matplotlib.axis_1">
    <g id="xtick_1">
     <g id="line2d_1">
      <defs>
       <path id="m81aa9168d9" d="M 0 0 
L 0 3.5 
" style="stroke: #000000; stroke-width: 0.8"/>
      </defs>
      <g>
       <use xlink:href="#m81aa9168d9" x="65.733266" y="304.44375" style="stroke: #000000; stroke-width: 0.8"/>
      </g>
     </g>
     <g id="text_1">
      <!-- 0 -->
      <g transform="translate(62.552016 319.042187) scale(0.1 -0.1)">
       <defs>
        <path id="DejaVuSans-30" d="M 2034 4250 
Q 1547 4250 1301 3770 
Q 1056 3291 1056 2328 
Q 1056 1369 1301 889 
Q 1547 409 2034 409 
Q 2525 409 2770 889 
Q 3016 1369 3016 2328 
Q 3016 3291 2770 3770 
Q 2525 4250 2034 4250 
z
M 2034 4750 
Q 2819 4750 3233 4129 
Q 3647 3509 3647 2328 
Q 3647 1150 3233 529 
Q 2819 -91 2034 -91 
Q 1250 -91 836 529 
Q 422 1150 422 2328 
Q 422 3509 836 4129 
Q 1250 4750 2034 4750 
z
" transform="scale(0.015625)"/>
       </defs>
       <use xlink:href="#DejaVuSans-30"/>
      </g>
     </g>
    </g>
    <g id="xtick_2">
     <g id="line2d_2">
      <g>
       <use xlink:href="#m81aa9168d9" x="126.531505" y="304.44375" style="stroke: #000000; stroke-width: 0.8"/>
      </g>
     </g>
     <g id="text_2">
      <!-- 2000 -->
      <g transform="translate(113.806505 319.042187) scale(0.1 -0.1)">
       <defs>
        <path id="DejaVuSans-32" d="M 1228 531 
L 3431 531 
L 3431 0 
L 469 0 
L 469 531 
Q 828 903 1448 1529 
Q 2069 2156 2228 2338 
Q 2531 2678 2651 2914 
Q 2772 3150 2772 3378 
Q 2772 3750 2511 3984 
Q 2250 4219 1831 4219 
Q 1534 4219 1204 4116 
Q 875 4013 500 3803 
L 500 4441 
Q 881 4594 1212 4672 
Q 1544 4750 1819 4750 
Q 2544 4750 2975 4387 
Q 3406 4025 3406 3419 
Q 3406 3131 3298 2873 
Q 3191 2616 2906 2266 
Q 2828 2175 2409 1742 
Q 1991 1309 1228 531 
z
" transform="scale(0.015625)"/>
       </defs>
       <use xlink:href="#DejaVuSans-32"/>
       <use xlink:href="#DejaVuSans-30" transform="translate(63.623047 0)"/>
       <use xlink:href="#DejaVuSans-30" transform="translate(127.246094 0)"/>
       <use xlink:href="#DejaVuSans-30" transform="translate(190.869141 0)"/>
      </g>
     </g>
    </g>
    <g id="xtick_3">
     <g id="line2d_3">
      <g>
       <use xlink:href="#m81aa9168d9" x="187.329743" y="304.44375" style="stroke: #000000; stroke-width: 0.8"/>
      </g>
     </g>
     <g id="text_3">
      <!-- 4000 -->
      <g transform="translate(174.604743 319.042187) scale(0.1 -0.1)">
       <defs>
        <path id="DejaVuSans-34" d="M 2419 4116 
L 825 1625 
L 2419 1625 
L 2419 4116 
z
M 2253 4666 
L 3047 4666 
L 3047 1625 
L 3713 1625 
L 3713 1100 
L 3047 1100 
L 3047 0 
L 2419 0 
L 2419 1100 
L 313 1100 
L 313 1709 
L 2253 4666 
z
" transform="scale(0.015625)"/>
       </defs>
       <use xlink:href="#DejaVuSans-34"/>
       <use xlink:href="#DejaVuSans-30" transform="translate(63.623047 0)"/>
       <use xlink:href="#DejaVuSans-30" transform="translate(127.246094 0)"/>
       <use xlink:href="#DejaVuSans-30" transform="translate(190.869141 0)"/>
      </g>
     </g>
    </g>
    <g id="xtick_4">
     <g id="line2d_4">
      <g>
       <use xlink:href="#m81aa9168d9" x="248.127982" y="304.44375" style="stroke: #000000; stroke-width: 0.8"/>
      </g>
     </g>
     <g id="text_4">
      <!-- 6000 -->
      <g transform="translate(235.402982 319.042187) scale(0.1 -0.1)">
       <defs>
        <path id="DejaVuSans-36" d="M 2113 2584 
Q 1688 2584 1439 2293 
Q 1191 2003 1191 1497 
Q 1191 994 1439 701 
Q 1688 409 2113 409 
Q 2538 409 2786 701 
Q 3034 994 3034 1497 
Q 3034 2003 2786 2293 
Q 2538 2584 2113 2584 
z
M 3366 4563 
L 3366 3988 
Q 3128 4100 2886 4159 
Q 2644 4219 2406 4219 
Q 1781 4219 1451 3797 
Q 1122 3375 1075 2522 
Q 1259 2794 1537 2939 
Q 1816 3084 2150 3084 
Q 2853 3084 3261 2657 
Q 3669 2231 3669 1497 
Q 3669 778 3244 343 
Q 2819 -91 2113 -91 
Q 1303 -91 875 529 
Q 447 1150 447 2328 
Q 447 3434 972 4092 
Q 1497 4750 2381 4750 
Q 2619 4750 2861 4703 
Q 3103 4656 3366 4563 
z
" transform="scale(0.015625)"/>
       </defs>
       <use xlink:href="#DejaVuSans-36"/>
       <use xlink:href="#DejaVuSans-30" transform="translate(63.623047 0)"/>
       <use xlink:href="#DejaVuSans-30" transform="translate(127.246094 0)"/>
       <use xlink:href="#DejaVuSans-30" transform="translate(190.869141 0)"/>
      </g>
     </g>
    </g>
    <g id="xtick_5">
     <g id="line2d_5">
      <g>
       <use xlink:href="#m81aa9168d9" x="308.926221" y="304.44375" style="stroke: #000000; stroke-width: 0.8"/>
      </g>
     </g>
     <g id="text_5">
      <!-- 8000 -->
      <g transform="translate(296.201221 319.042187) scale(0.1 -0.1)">
       <defs>
        <path id="DejaVuSans-38" d="M 2034 2216 
Q 1584 2216 1326 1975 
Q 1069 1734 1069 1313 
Q 1069 891 1326 650 
Q 1584 409 2034 409 
Q 2484 409 2743 651 
Q 3003 894 3003 1313 
Q 3003 1734 2745 1975 
Q 2488 2216 2034 2216 
z
M 1403 2484 
Q 997 2584 770 2862 
Q 544 3141 544 3541 
Q 544 4100 942 4425 
Q 1341 4750 2034 4750 
Q 2731 4750 3128 4425 
Q 3525 4100 3525 3541 
Q 3525 3141 3298 2862 
Q 3072 2584 2669 2484 
Q 3125 2378 3379 2068 
Q 3634 1759 3634 1313 
Q 3634 634 3220 271 
Q 2806 -91 2034 -91 
Q 1263 -91 848 271 
Q 434 634 434 1313 
Q 434 1759 690 2068 
Q 947 2378 1403 2484 
z
M 1172 3481 
Q 1172 3119 1398 2916 
Q 1625 2713 2034 2713 
Q 2441 2713 2670 2916 
Q 2900 3119 2900 3481 
Q 2900 3844 2670 4047 
Q 2441 4250 2034 4250 
Q 1625 4250 1398 4047 
Q 1172 3844 1172 3481 
z
" transform="scale(0.015625)"/>
       </defs>
       <use xlink:href="#DejaVuSans-38"/>
       <use xlink:href="#DejaVuSans-30" transform="translate(63.623047 0)"/>
       <use xlink:href="#DejaVuSans-30" transform="translate(127.246094 0)"/>
       <use xlink:href="#DejaVuSans-30" transform="translate(190.869141 0)"/>
      </g>
     </g>
    </g>
    <g id="xtick_6">
     <g id="line2d_6">
      <g>
       <use xlink:href="#m81aa9168d9" x="369.72446" y="304.44375" style="stroke: #000000; stroke-width: 0.8"/>
      </g>
     </g>
     <g id="text_6">
      <!-- 10000 -->
      <g transform="translate(353.81821 319.042187) scale(0.1 -0.1)">
       <defs>
        <path id="DejaVuSans-31" d="M 794 531 
L 1825 531 
L 1825 4091 
L 703 3866 
L 703 4441 
L 1819 4666 
L 2450 4666 
L 2450 531 
L 3481 531 
L 3481 0 
L 794 0 
L 794 531 
z
" transform="scale(0.015625)"/>
       </defs>
       <use xlink:href="#DejaVuSans-31"/>
       <use xlink:href="#DejaVuSans-30" transform="translate(63.623047 0)"/>
       <use xlink:href="#DejaVuSans-30" transform="translate(127.246094 0)"/>
       <use xlink:href="#DejaVuSans-30" transform="translate(190.869141 0)"/>
       <use xlink:href="#DejaVuSans-30" transform="translate(254.492188 0)"/>
      </g>
     </g>
    </g>
    <g id="text_7">
     <!-- n runs -->
     <g transform="translate(201.988594 332.720312) scale(0.1 -0.1)">
      <defs>
       <path id="DejaVuSans-6e" d="M 3513 2113 
L 3513 0 
L 2938 0 
L 2938 2094 
Q 2938 2591 2744 2837 
Q 2550 3084 2163 3084 
Q 1697 3084 1428 2787 
Q 1159 2491 1159 1978 
L 1159 0 
L 581 0 
L 581 3500 
L 1159 3500 
L 1159 2956 
Q 1366 3272 1645 3428 
Q 1925 3584 2291 3584 
Q 2894 3584 3203 3211 
Q 3513 2838 3513 2113 
z
" transform="scale(0.015625)"/>
       <path id="DejaVuSans-20" transform="scale(0.015625)"/>
       <path id="DejaVuSans-72" d="M 2631 2963 
Q 2534 3019 2420 3045 
Q 2306 3072 2169 3072 
Q 1681 3072 1420 2755 
Q 1159 2438 1159 1844 
L 1159 0 
L 581 0 
L 581 3500 
L 1159 3500 
L 1159 2956 
Q 1341 3275 1631 3429 
Q 1922 3584 2338 3584 
Q 2397 3584 2469 3576 
Q 2541 3569 2628 3553 
L 2631 2963 
z
" transform="scale(0.015625)"/>
       <path id="DejaVuSans-75" d="M 544 1381 
L 544 3500 
L 1119 3500 
L 1119 1403 
Q 1119 906 1312 657 
Q 1506 409 1894 409 
Q 2359 409 2629 706 
Q 2900 1003 2900 1516 
L 2900 3500 
L 3475 3500 
L 3475 0 
L 2900 0 
L 2900 538 
Q 2691 219 2414 64 
Q 2138 -91 1772 -91 
Q 1169 -91 856 284 
Q 544 659 544 1381 
z
M 1991 3584 
L 1991 3584 
z
" transform="scale(0.015625)"/>
       <path id="DejaVuSans-73" d="M 2834 3397 
L 2834 2853 
Q 2591 2978 2328 3040 
Q 2066 3103 1784 3103 
Q 1356 3103 1142 2972 
Q 928 2841 928 2578 
Q 928 2378 1081 2264 
Q 1234 2150 1697 2047 
L 1894 2003 
Q 2506 1872 2764 1633 
Q 3022 1394 3022 966 
Q 3022 478 2636 193 
Q 2250 -91 1575 -91 
Q 1294 -91 989 -36 
Q 684 19 347 128 
L 347 722 
Q 666 556 975 473 
Q 1284 391 1588 391 
Q 1994 391 2212 530 
Q 2431 669 2431 922 
Q 2431 1156 2273 1281 
Q 2116 1406 1581 1522 
L 1381 1569 
Q 847 1681 609 1914 
Q 372 2147 372 2553 
Q 372 3047 722 3315 
Q 1072 3584 1716 3584 
Q 2034 3584 2315 3537 
Q 2597 3491 2834 3397 
z
" transform="scale(0.015625)"/>
      </defs>
      <use xlink:href="#DejaVuSans-6e"/>
      <use xlink:href="#DejaVuSans-20" transform="translate(63.378906 0)"/>
      <use xlink:href="#DejaVuSans-72" transform="translate(95.166016 0)"/>
      <use xlink:href="#DejaVuSans-75" transform="translate(136.279297 0)"/>
      <use xlink:href="#DejaVuSans-6e" transform="translate(199.658203 0)"/>
      <use xlink:href="#DejaVuSans-73" transform="translate(263.037109 0)"/>
     </g>
    </g>
   </g>
   <g id="matplotlib.axis_2">
    <g id="ytick_1">
     <g id="line2d_7">
      <defs>
       <path id="mf651d778ef" d="M 0 0 
L -3.5 0 
" style="stroke: #000000; stroke-width: 0.8"/>
      </defs>
      <g>
       <use xlink:href="#mf651d778ef" x="50.565625" y="291.482071" style="stroke: #000000; stroke-width: 0.8"/>
      </g>
     </g>
     <g id="text_8">
      <!-- 0 -->
      <g transform="translate(37.203125 295.28129) scale(0.1 -0.1)">
       <use xlink:href="#DejaVuSans-30"/>
      </g>
     </g>
    </g>
    <g id="ytick_2">
     <g id="line2d_8">
      <g>
       <use xlink:href="#mf651d778ef" x="50.565625" y="252.905646" style="stroke: #000000; stroke-width: 0.8"/>
      </g>
     </g>
     <g id="text_9">
      <!-- 100 -->
      <g transform="translate(24.478125 256.704864) scale(0.1 -0.1)">
       <use xlink:href="#DejaVuSans-31"/>
       <use xlink:href="#DejaVuSans-30" transform="translate(63.623047 0)"/>
       <use xlink:href="#DejaVuSans-30" transform="translate(127.246094 0)"/>
      </g>
     </g>
    </g>
    <g id="ytick_3">
     <g id="line2d_9">
      <g>
       <use xlink:href="#mf651d778ef" x="50.565625" y="214.32922" style="stroke: #000000; stroke-width: 0.8"/>
      </g>
     </g>
     <g id="text_10">
      <!-- 200 -->
      <g transform="translate(24.478125 218.128439) scale(0.1 -0.1)">
       <use xlink:href="#DejaVuSans-32"/>
       <use xlink:href="#DejaVuSans-30" transform="translate(63.623047 0)"/>
       <use xlink:href="#DejaVuSans-30" transform="translate(127.246094 0)"/>
      </g>
     </g>
    </g>
    <g id="ytick_4">
     <g id="line2d_10">
      <g>
       <use xlink:href="#mf651d778ef" x="50.565625" y="175.752795" style="stroke: #000000; stroke-width: 0.8"/>
      </g>
     </g>
     <g id="text_11">
      <!-- 300 -->
      <g transform="translate(24.478125 179.552014) scale(0.1 -0.1)">
       <defs>
        <path id="DejaVuSans-33" d="M 2597 2516 
Q 3050 2419 3304 2112 
Q 3559 1806 3559 1356 
Q 3559 666 3084 287 
Q 2609 -91 1734 -91 
Q 1441 -91 1130 -33 
Q 819 25 488 141 
L 488 750 
Q 750 597 1062 519 
Q 1375 441 1716 441 
Q 2309 441 2620 675 
Q 2931 909 2931 1356 
Q 2931 1769 2642 2001 
Q 2353 2234 1838 2234 
L 1294 2234 
L 1294 2753 
L 1863 2753 
Q 2328 2753 2575 2939 
Q 2822 3125 2822 3475 
Q 2822 3834 2567 4026 
Q 2313 4219 1838 4219 
Q 1578 4219 1281 4162 
Q 984 4106 628 3988 
L 628 4550 
Q 988 4650 1302 4700 
Q 1616 4750 1894 4750 
Q 2613 4750 3031 4423 
Q 3450 4097 3450 3541 
Q 3450 3153 3228 2886 
Q 3006 2619 2597 2516 
z
" transform="scale(0.015625)"/>
       </defs>
       <use xlink:href="#DejaVuSans-33"/>
       <use xlink:href="#DejaVuSans-30" transform="translate(63.623047 0)"/>
       <use xlink:href="#DejaVuSans-30" transform="translate(127.246094 0)"/>
      </g>
     </g>
    </g>
    <g id="ytick_5">
     <g id="line2d_11">
      <g>
       <use xlink:href="#mf651d778ef" x="50.565625" y="137.17637" style="stroke: #000000; stroke-width: 0.8"/>
      </g>
     </g>
     <g id="text_12">
      <!-- 400 -->
      <g transform="translate(24.478125 140.975588) scale(0.1 -0.1)">
       <use xlink:href="#DejaVuSans-34"/>
       <use xlink:href="#DejaVuSans-30" transform="translate(63.623047 0)"/>
       <use xlink:href="#DejaVuSans-30" transform="translate(127.246094 0)"/>
      </g>
     </g>
    </g>
    <g id="ytick_6">
     <g id="line2d_12">
      <g>
       <use xlink:href="#mf651d778ef" x="50.565625" y="98.599944" style="stroke: #000000; stroke-width: 0.8"/>
      </g>
     </g>
     <g id="text_13">
      <!-- 500 -->
      <g transform="translate(24.478125 102.399163) scale(0.1 -0.1)">
       <defs>
        <path id="DejaVuSans-35" d="M 691 4666 
L 3169 4666 
L 3169 4134 
L 1269 4134 
L 1269 2991 
Q 1406 3038 1543 3061 
Q 1681 3084 1819 3084 
Q 2600 3084 3056 2656 
Q 3513 2228 3513 1497 
Q 3513 744 3044 326 
Q 2575 -91 1722 -91 
Q 1428 -91 1123 -41 
Q 819 9 494 109 
L 494 744 
Q 775 591 1075 516 
Q 1375 441 1709 441 
Q 2250 441 2565 725 
Q 2881 1009 2881 1497 
Q 2881 1984 2565 2268 
Q 2250 2553 1709 2553 
Q 1456 2553 1204 2497 
Q 953 2441 691 2322 
L 691 4666 
z
" transform="scale(0.015625)"/>
       </defs>
       <use xlink:href="#DejaVuSans-35"/>
       <use xlink:href="#DejaVuSans-30" transform="translate(63.623047 0)"/>
       <use xlink:href="#DejaVuSans-30" transform="translate(127.246094 0)"/>
      </g>
     </g>
    </g>
    <g id="ytick_7">
     <g id="line2d_13">
      <g>
       <use xlink:href="#mf651d778ef" x="50.565625" y="60.023519" style="stroke: #000000; stroke-width: 0.8"/>
      </g>
     </g>
     <g id="text_14">
      <!-- 600 -->
      <g transform="translate(24.478125 63.822738) scale(0.1 -0.1)">
       <use xlink:href="#DejaVuSans-36"/>
       <use xlink:href="#DejaVuSans-30" transform="translate(63.623047 0)"/>
       <use xlink:href="#DejaVuSans-30" transform="translate(127.246094 0)"/>
      </g>
     </g>
    </g>
    <g id="ytick_8">
     <g id="line2d_14">
      <g>
       <use xlink:href="#mf651d778ef" x="50.565625" y="21.447093" style="stroke: #000000; stroke-width: 0.8"/>
      </g>
     </g>
     <g id="text_15">
      <!-- 700 -->
      <g transform="translate(24.478125 25.246312) scale(0.1 -0.1)">
       <defs>
        <path id="DejaVuSans-37" d="M 525 4666 
L 3525 4666 
L 3525 4397 
L 1831 0 
L 1172 0 
L 2766 4134 
L 525 4134 
L 525 4666 
z
" transform="scale(0.015625)"/>
       </defs>
       <use xlink:href="#DejaVuSans-37"/>
       <use xlink:href="#DejaVuSans-30" transform="translate(63.623047 0)"/>
       <use xlink:href="#DejaVuSans-30" transform="translate(127.246094 0)"/>
      </g>
     </g>
    </g>
    <g id="text_16">
     <!-- time (ms) -->
     <g transform="translate(18.398438 181.883594) rotate(-90) scale(0.1 -0.1)">
      <defs>
       <path id="DejaVuSans-74" d="M 1172 4494 
L 1172 3500 
L 2356 3500 
L 2356 3053 
L 1172 3053 
L 1172 1153 
Q 1172 725 1289 603 
Q 1406 481 1766 481 
L 2356 481 
L 2356 0 
L 1766 0 
Q 1100 0 847 248 
Q 594 497 594 1153 
L 594 3053 
L 172 3053 
L 172 3500 
L 594 3500 
L 594 4494 
L 1172 4494 
z
" transform="scale(0.015625)"/>
       <path id="DejaVuSans-69" d="M 603 3500 
L 1178 3500 
L 1178 0 
L 603 0 
L 603 3500 
z
M 603 4863 
L 1178 4863 
L 1178 4134 
L 603 4134 
L 603 4863 
z
" transform="scale(0.015625)"/>
       <path id="DejaVuSans-6d" d="M 3328 2828 
Q 3544 3216 3844 3400 
Q 4144 3584 4550 3584 
Q 5097 3584 5394 3201 
Q 5691 2819 5691 2113 
L 5691 0 
L 5113 0 
L 5113 2094 
Q 5113 2597 4934 2840 
Q 4756 3084 4391 3084 
Q 3944 3084 3684 2787 
Q 3425 2491 3425 1978 
L 3425 0 
L 2847 0 
L 2847 2094 
Q 2847 2600 2669 2842 
Q 2491 3084 2119 3084 
Q 1678 3084 1418 2786 
Q 1159 2488 1159 1978 
L 1159 0 
L 581 0 
L 581 3500 
L 1159 3500 
L 1159 2956 
Q 1356 3278 1631 3431 
Q 1906 3584 2284 3584 
Q 2666 3584 2933 3390 
Q 3200 3197 3328 2828 
z
" transform="scale(0.015625)"/>
       <path id="DejaVuSans-65" d="M 3597 1894 
L 3597 1613 
L 953 1613 
Q 991 1019 1311 708 
Q 1631 397 2203 397 
Q 2534 397 2845 478 
Q 3156 559 3463 722 
L 3463 178 
Q 3153 47 2828 -22 
Q 2503 -91 2169 -91 
Q 1331 -91 842 396 
Q 353 884 353 1716 
Q 353 2575 817 3079 
Q 1281 3584 2069 3584 
Q 2775 3584 3186 3129 
Q 3597 2675 3597 1894 
z
M 3022 2063 
Q 3016 2534 2758 2815 
Q 2500 3097 2075 3097 
Q 1594 3097 1305 2825 
Q 1016 2553 972 2059 
L 3022 2063 
z
" transform="scale(0.015625)"/>
       <path id="DejaVuSans-28" d="M 1984 4856 
Q 1566 4138 1362 3434 
Q 1159 2731 1159 2009 
Q 1159 1288 1364 580 
Q 1569 -128 1984 -844 
L 1484 -844 
Q 1016 -109 783 600 
Q 550 1309 550 2009 
Q 550 2706 781 3412 
Q 1013 4119 1484 4856 
L 1984 4856 
z
" transform="scale(0.015625)"/>
       <path id="DejaVuSans-29" d="M 513 4856 
L 1013 4856 
Q 1481 4119 1714 3412 
Q 1947 2706 1947 2009 
Q 1947 1309 1714 600 
Q 1481 -109 1013 -844 
L 513 -844 
Q 928 -128 1133 580 
Q 1338 1288 1338 2009 
Q 1338 2731 1133 3434 
Q 928 4138 513 4856 
z
" transform="scale(0.015625)"/>
      </defs>
      <use xlink:href="#DejaVuSans-74"/>
      <use xlink:href="#DejaVuSans-69" transform="translate(39.208984 0)"/>
      <use xlink:href="#DejaVuSans-6d" transform="translate(66.992188 0)"/>
      <use xlink:href="#DejaVuSans-65" transform="translate(164.404297 0)"/>
      <use xlink:href="#DejaVuSans-20" transform="translate(225.927734 0)"/>
      <use xlink:href="#DejaVuSans-28" transform="translate(257.714844 0)"/>
      <use xlink:href="#DejaVuSans-6d" transform="translate(296.728516 0)"/>
      <use xlink:href="#DejaVuSans-73" transform="translate(394.140625 0)"/>
      <use xlink:href="#DejaVuSans-29" transform="translate(446.240234 0)"/>
     </g>
    </g>
   </g>
   <g id="line2d_15">
    <path d="M 65.763665 273.351151 
L 66.037257 272.965387 
L 66.341248 272.965387 
L 66.645239 272.579623 
L 66.94923 272.579623 
L 67.253222 272.193858 
L 67.557213 271.808094 
L 67.861204 272.193858 
L 68.165195 271.42233 
L 68.469186 271.42233 
L 68.773178 271.42233 
L 71.81309 269.493509 
L 74.853001 267.178923 
L 77.892913 265.635866 
L 80.932825 262.935516 
L 83.972737 264.092809 
L 87.012649 262.935516 
L 90.052561 262.163988 
L 93.092473 261.006695 
L 96.132385 260.620931 
L 99.172297 259.463638 
L 102.212209 257.149052 
L 105.252121 257.534817 
L 108.292033 245.576125 
L 111.331945 257.149052 
L 114.371857 250.976824 
L 117.411769 248.662239 
L 120.451681 254.448703 
L 123.491593 254.062938 
L 126.531505 252.134117 
L 129.571417 252.905646 
L 132.611328 251.362589 
L 135.65124 251.362589 
L 138.691152 250.205296 
L 141.731064 250.59106 
L 144.770976 249.048003 
L 147.810888 247.89071 
L 150.8508 249.819532 
L 153.890712 250.59106 
L 156.930624 250.976824 
L 159.970536 249.819532 
L 163.010448 248.662239 
L 166.05036 244.418832 
L 169.090272 246.733418 
L 172.130184 247.504946 
L 175.170096 247.504946 
L 178.210008 246.347653 
L 181.24992 248.662239 
L 184.289832 246.347653 
L 187.329743 247.504946 
L 190.369655 243.647304 
L 193.409567 247.119182 
L 196.449479 245.961889 
L 199.489391 247.119182 
L 202.529303 242.875775 
L 205.569215 241.332718 
L 208.609127 246.347653 
L 211.649039 242.104247 
L 214.688951 245.576125 
L 217.728863 245.961889 
L 220.768775 244.804596 
L 223.808687 243.647304 
L 226.848599 245.961889 
L 229.888511 237.475076 
L 232.928423 245.190361 
L 235.968335 245.190361 
L 239.008247 245.576125 
L 242.048159 243.647304 
L 245.08807 240.946954 
L 248.127982 243.261539 
L 251.167894 243.261539 
L 254.207806 242.104247 
L 257.247718 242.490011 
L 260.28763 242.875775 
L 263.327542 243.261539 
L 266.367454 241.332718 
L 269.407366 243.261539 
L 272.447278 242.104247 
L 275.48719 240.175425 
L 278.527102 240.56119 
L 281.567014 241.332718 
L 284.606926 241.332718 
L 287.646838 240.946954 
L 290.68675 241.332718 
L 293.726662 241.332718 
L 296.766574 242.104247 
L 299.806485 243.261539 
L 302.846397 241.718482 
L 305.886309 241.718482 
L 308.926221 241.332718 
L 311.966133 240.946954 
L 315.006045 237.86084 
L 318.045957 240.946954 
L 321.085869 239.403897 
L 324.125781 239.789661 
L 327.165693 240.946954 
L 330.205605 239.018133 
L 333.245517 239.403897 
L 336.285429 239.403897 
L 339.325341 239.789661 
L 342.365253 237.475076 
L 345.405165 239.018133 
L 348.445077 239.018133 
L 351.484989 238.246604 
L 354.5249 237.089311 
L 357.564812 239.789661 
L 360.604724 238.632368 
L 363.644636 237.86084 
L 366.684548 237.475076 
L 369.72446 233.617433 
" clip-path="url(#p2babde278b)" style="fill: none; stroke: #1f77b4; stroke-width: 1.5; stroke-linecap: square"/>
   </g>
   <g id="line2d_16">
    <path d="M 65.763665 289.167486 
L 66.037257 288.010193 
L 66.341248 288.395957 
L 66.645239 288.395957 
L 66.94923 288.395957 
L 67.253222 287.238664 
L 67.557213 288.395957 
L 67.861204 288.010193 
L 68.165195 288.010193 
L 68.469186 287.624429 
L 68.773178 287.624429 
L 71.81309 286.467136 
L 74.853001 284.924079 
L 77.892913 284.15255 
L 80.932825 282.609493 
L 83.972737 282.223729 
L 87.012649 281.837965 
L 90.052561 281.066436 
L 93.092473 281.066436 
L 96.132385 280.294908 
L 99.172297 280.294908 
L 102.212209 276.051501 
L 105.252121 278.366086 
L 108.292033 273.736915 
L 111.331945 275.279972 
L 114.371857 276.437265 
L 117.411769 276.437265 
L 120.451681 276.051501 
L 123.491593 275.665737 
L 126.531505 277.594558 
L 129.571417 276.823029 
L 132.611328 276.437265 
L 135.65124 276.437265 
L 138.691152 274.894208 
L 141.731064 276.051501 
L 144.770976 276.437265 
L 147.810888 276.051501 
L 150.8508 275.665737 
L 153.890712 274.894208 
L 156.930624 275.279972 
L 159.970536 274.894208 
L 163.010448 273.736915 
L 166.05036 275.665737 
L 169.090272 275.665737 
L 172.130184 275.279972 
L 175.170096 274.894208 
L 178.210008 274.12268 
L 181.24992 274.508444 
L 184.289832 274.12268 
L 187.329743 274.508444 
L 190.369655 274.12268 
L 193.409567 274.12268 
L 196.449479 271.808094 
L 199.489391 273.351151 
L 202.529303 272.965387 
L 205.569215 273.736915 
L 208.609127 273.351151 
L 211.649039 272.579623 
L 214.688951 272.579623 
L 217.728863 270.650801 
L 220.768775 272.579623 
L 223.808687 271.808094 
L 226.848599 264.864338 
L 229.888511 271.42233 
L 232.928423 271.42233 
L 235.968335 271.42233 
L 239.008247 270.650801 
L 242.048159 265.250102 
L 245.08807 269.493509 
L 248.127982 269.107744 
L 251.167894 269.493509 
L 254.207806 269.493509 
L 257.247718 270.265037 
L 260.28763 270.265037 
L 263.327542 268.72198 
L 266.367454 268.72198 
L 269.407366 269.107744 
L 272.447278 269.107744 
L 275.48719 268.72198 
L 278.527102 269.107744 
L 281.567014 267.178923 
L 284.606926 268.336216 
L 287.646838 267.950452 
L 290.68675 267.564687 
L 293.726662 269.107744 
L 296.766574 267.178923 
L 299.806485 261.778224 
L 302.846397 266.407395 
L 305.886309 267.178923 
L 308.926221 263.321281 
L 311.966133 267.564687 
L 315.006045 266.793159 
L 318.045957 267.564687 
L 321.085869 266.407395 
L 324.125781 266.793159 
L 327.165693 267.178923 
L 330.205605 266.793159 
L 333.245517 265.635866 
L 336.285429 267.178923 
L 339.325341 266.02163 
L 342.365253 266.793159 
L 345.405165 265.635866 
L 348.445077 265.635866 
L 351.484989 265.250102 
L 354.5249 266.02163 
L 357.564812 266.407395 
L 360.604724 266.407395 
L 363.644636 266.02163 
L 366.684548 263.707045 
L 369.72446 263.707045 
" clip-path="url(#p2babde278b)" style="fill: none; stroke: #ff7f0e; stroke-width: 1.5; stroke-linecap: square"/>
   </g>
   <g id="line2d_17">
    <path d="M 65.763665 285.309843 
L 66.037257 284.924079 
L 66.341248 284.538315 
L 66.645239 284.538315 
L 66.94923 283.766786 
L 67.253222 283.766786 
L 67.557213 283.766786 
L 67.861204 283.381022 
L 68.165195 282.995257 
L 68.469186 282.609493 
L 68.773178 282.609493 
L 71.81309 280.294908 
L 74.853001 277.594558 
L 77.892913 275.279972 
L 80.932825 274.508444 
L 83.972737 272.579623 
L 87.012649 271.42233 
L 90.052561 270.265037 
L 93.092473 269.107744 
L 96.132385 268.72198 
L 99.172297 266.407395 
L 102.212209 264.478573 
L 105.252121 265.250102 
L 108.292033 263.321281 
L 111.331945 263.321281 
L 114.371857 263.321281 
L 117.411769 261.778224 
L 120.451681 261.006695 
L 123.491593 260.620931 
L 126.531505 258.692109 
L 129.571417 258.692109 
L 132.611328 255.220231 
L 135.65124 256.763288 
L 138.691152 255.605995 
L 141.731064 255.99176 
L 144.770976 254.448703 
L 147.810888 254.062938 
L 150.8508 252.134117 
L 153.890712 250.976824 
L 156.930624 252.519881 
L 159.970536 250.976824 
L 163.010448 250.59106 
L 166.05036 249.048003 
L 169.090272 249.433767 
L 172.130184 246.733418 
L 175.170096 247.89071 
L 178.210008 247.119182 
L 181.24992 246.733418 
L 184.289832 242.875775 
L 187.329743 245.576125 
L 190.369655 244.418832 
L 193.409567 243.261539 
L 196.449479 244.033068 
L 199.489391 243.647304 
L 202.529303 242.875775 
L 205.569215 239.789661 
L 208.609127 240.175425 
L 211.649039 238.246604 
L 214.688951 240.175425 
L 217.728863 236.703547 
L 220.768775 235.932019 
L 223.808687 236.703547 
L 226.848599 235.16049 
L 229.888511 233.617433 
L 232.928423 232.845904 
L 235.968335 234.003197 
L 239.008247 228.602498 
L 242.048159 230.917083 
L 245.08807 230.145555 
L 248.127982 228.988262 
L 251.167894 225.130619 
L 254.207806 227.059441 
L 257.247718 227.445205 
L 260.28763 227.059441 
L 263.327542 225.516384 
L 266.367454 224.359091 
L 269.407366 223.201798 
L 272.447278 224.744855 
L 275.48719 221.272977 
L 278.527102 222.816034 
L 281.567014 222.816034 
L 284.606926 219.344156 
L 287.646838 220.887213 
L 290.68675 221.658741 
L 293.726662 219.72992 
L 296.766574 220.115684 
L 299.806485 219.344156 
L 302.846397 218.186863 
L 305.886309 217.02957 
L 308.926221 215.100749 
L 311.966133 215.100749 
L 315.006045 214.714985 
L 318.045957 214.714985 
L 321.085869 212.014635 
L 324.125781 212.014635 
L 327.165693 211.243106 
L 330.205605 211.628871 
L 333.245517 213.171928 
L 336.285429 210.471578 
L 339.325341 209.314285 
L 342.365253 208.928521 
L 345.405165 209.314285 
L 348.445077 207.771228 
L 351.484989 208.156992 
L 354.5249 208.542757 
L 357.564812 206.228171 
L 360.604724 205.456642 
L 363.644636 205.070878 
L 366.684548 203.913585 
L 369.72446 201.599 
" clip-path="url(#p2babde278b)" style="fill: none; stroke: #2ca02c; stroke-width: 1.5; stroke-linecap: square"/>
   </g>
   <g id="line2d_18">
    <path d="M 65.763665 68.124568 
L 66.037257 63.109633 
L 66.341248 70.439154 
L 66.645239 72.367975 
L 66.94923 66.581511 
L 67.253222 63.495397 
L 67.557213 68.896097 
L 67.861204 66.967275 
L 68.165195 70.053389 
L 68.469186 66.581511 
L 68.773178 71.596446 
L 71.81309 73.139503 
L 74.853001 68.124568 
L 77.892913 65.038454 
L 80.932825 56.165876 
L 83.972737 64.266926 
L 87.012649 63.881161 
L 90.052561 62.338104 
L 93.092473 49.22212 
L 96.132385 63.881161 
L 99.172297 60.795047 
L 102.212209 46.136006 
L 105.252121 62.723869 
L 108.292033 61.566576 
L 111.331945 60.795047 
L 114.371857 48.450591 
L 117.411769 59.25199 
L 120.451681 57.323169 
L 123.491593 64.65269 
L 126.531505 63.881161 
L 129.571417 65.424218 
L 132.611328 63.109633 
L 135.65124 62.723869 
L 138.691152 60.795047 
L 141.731064 61.566576 
L 144.770976 60.023519 
L 147.810888 58.480462 
L 150.8508 63.881161 
L 153.890712 60.409283 
L 156.930624 53.079762 
L 159.970536 63.881161 
L 163.010448 55.780112 
L 166.05036 46.136006 
L 169.090272 56.165876 
L 172.130184 55.780112 
L 175.170096 62.723869 
L 178.210008 58.866226 
L 181.24992 54.237055 
L 184.289832 55.394348 
L 187.329743 61.95234 
L 190.369655 60.409283 
L 193.409567 55.780112 
L 196.449479 60.795047 
L 199.489391 58.866226 
L 202.529303 58.094698 
L 205.569215 61.566576 
L 208.609127 60.023519 
L 211.649039 31.862728 
L 214.688951 56.165876 
L 217.728863 57.708933 
L 220.768775 59.637755 
L 223.808687 54.237055 
L 226.848599 60.023519 
L 229.888511 61.95234 
L 232.928423 49.607884 
L 235.968335 58.866226 
L 239.008247 56.165876 
L 242.048159 47.679063 
L 245.08807 54.237055 
L 248.127982 41.506835 
L 251.167894 51.922469 
L 254.207806 52.693998 
L 257.247718 57.323169 
L 260.28763 51.150941 
L 263.327542 48.836355 
L 266.367454 54.622819 
L 269.407366 51.922469 
L 272.447278 49.22212 
L 275.48719 54.237055 
L 278.527102 52.693998 
L 281.567014 56.165876 
L 284.606926 49.607884 
L 287.646838 48.836355 
L 290.68675 59.637755 
L 293.726662 54.622819 
L 296.766574 57.708933 
L 299.806485 56.937405 
L 302.846397 57.323169 
L 305.886309 55.394348 
L 308.926221 58.480462 
L 311.966133 59.637755 
L 315.006045 57.323169 
L 318.045957 50.765177 
L 321.085869 47.293298 
L 324.125781 51.536705 
L 327.165693 53.851291 
L 330.205605 53.079762 
L 333.245517 56.165876 
L 336.285429 56.551641 
L 339.325341 57.708933 
L 342.365253 55.394348 
L 345.405165 52.308234 
L 348.445077 49.22212 
L 351.484989 24.147443 
L 354.5249 56.165876 
L 357.564812 54.622819 
L 360.604724 54.237055 
L 363.644636 55.008583 
L 366.684548 55.394348 
L 369.72446 43.049892 
" clip-path="url(#p2babde278b)" style="fill: none; stroke: #d62728; stroke-width: 1.5; stroke-linecap: square"/>
   </g>
   <g id="line2d_19">
    <path d="M 65.763665 290.324778 
L 66.037257 290.324778 
L 66.341248 289.167486 
L 66.645239 289.167486 
L 66.94923 288.781721 
L 67.253222 288.781721 
L 67.557213 288.395957 
L 67.861204 288.395957 
L 68.165195 288.395957 
L 68.469186 288.781721 
L 68.773178 288.395957 
L 71.81309 287.238664 
L 74.853001 286.467136 
L 77.892913 285.695607 
L 80.932825 285.309843 
L 83.972737 284.538315 
L 87.012649 284.15255 
L 90.052561 283.766786 
L 93.092473 283.381022 
L 96.132385 283.766786 
L 99.172297 282.609493 
L 102.212209 282.609493 
L 105.252121 281.837965 
L 108.292033 281.837965 
L 111.331945 281.4522 
L 114.371857 279.909143 
L 117.411769 281.4522 
L 120.451681 280.680672 
L 123.491593 281.066436 
L 126.531505 280.680672 
L 129.571417 280.294908 
L 132.611328 280.294908 
L 135.65124 280.680672 
L 138.691152 279.909143 
L 141.731064 279.523379 
L 144.770976 279.523379 
L 147.810888 279.909143 
L 150.8508 279.523379 
L 153.890712 279.523379 
L 156.930624 279.523379 
L 159.970536 279.137615 
L 163.010448 279.137615 
L 166.05036 279.137615 
L 169.090272 278.751851 
L 172.130184 278.366086 
L 175.170096 278.366086 
L 178.210008 278.751851 
L 181.24992 278.751851 
L 184.289832 277.980322 
L 187.329743 278.366086 
L 190.369655 277.980322 
L 193.409567 278.366086 
L 196.449479 277.980322 
L 199.489391 278.366086 
L 202.529303 277.980322 
L 205.569215 277.594558 
L 208.609127 277.980322 
L 211.649039 277.980322 
L 214.688951 277.594558 
L 217.728863 277.594558 
L 220.768775 277.208794 
L 223.808687 277.208794 
L 226.848599 277.208794 
L 229.888511 277.208794 
L 232.928423 276.437265 
L 235.968335 276.823029 
L 239.008247 276.823029 
L 242.048159 275.665737 
L 245.08807 276.437265 
L 248.127982 276.051501 
L 251.167894 275.665737 
L 254.207806 275.279972 
L 257.247718 275.279972 
L 260.28763 276.437265 
L 263.327542 275.279972 
L 266.367454 275.665737 
L 269.407366 275.665737 
L 272.447278 275.279972 
L 275.48719 275.279972 
L 278.527102 275.665737 
L 281.567014 275.279972 
L 284.606926 273.736915 
L 287.646838 272.579623 
L 290.68675 274.508444 
L 293.726662 274.508444 
L 296.766574 274.894208 
L 299.806485 274.894208 
L 302.846397 274.894208 
L 305.886309 274.12268 
L 308.926221 274.508444 
L 311.966133 273.351151 
L 315.006045 274.508444 
L 318.045957 274.12268 
L 321.085869 274.894208 
L 324.125781 274.12268 
L 327.165693 273.351151 
L 330.205605 273.351151 
L 333.245517 273.351151 
L 336.285429 273.736915 
L 339.325341 272.965387 
L 342.365253 273.736915 
L 345.405165 273.736915 
L 348.445077 272.965387 
L 351.484989 273.351151 
L 354.5249 272.965387 
L 357.564812 273.736915 
L 360.604724 272.193858 
L 363.644636 272.193858 
L 366.684548 269.107744 
L 369.72446 262.935516 
" clip-path="url(#p2babde278b)" style="fill: none; stroke: #9467bd; stroke-width: 1.5; stroke-linecap: square"/>
   </g>
   <g id="line2d_20">
    <path d="M 65.763665 236.703547 
L 66.037257 230.531319 
L 66.341248 229.374026 
L 66.645239 228.602498 
L 66.94923 229.75979 
L 67.253222 228.216733 
L 67.557213 237.089311 
L 67.861204 224.359091 
L 68.165195 231.688612 
L 68.469186 232.074376 
L 68.773178 224.359091 
L 71.81309 230.145555 
L 74.853001 227.445205 
L 77.892913 219.344156 
L 80.932825 223.201798 
L 83.972737 229.75979 
L 87.012649 221.658741 
L 90.052561 222.044505 
L 93.092473 220.115684 
L 96.132385 225.130619 
L 99.172297 215.100749 
L 102.212209 223.973327 
L 105.252121 226.287912 
L 108.292033 221.658741 
L 111.331945 213.943456 
L 114.371857 221.658741 
L 117.411769 221.658741 
L 120.451681 214.714985 
L 123.491593 218.958391 
L 126.531505 216.258042 
L 129.571417 220.501448 
L 132.611328 221.272977 
L 135.65124 221.658741 
L 138.691152 217.415334 
L 141.731064 216.643806 
L 144.770976 217.415334 
L 147.810888 215.872277 
L 150.8508 215.872277 
L 153.890712 216.258042 
L 156.930624 211.628871 
L 159.970536 220.115684 
L 163.010448 218.572627 
L 166.05036 218.572627 
L 169.090272 219.72992 
L 172.130184 215.486513 
L 175.170096 213.557692 
L 178.210008 215.872277 
L 181.24992 213.171928 
L 184.289832 215.100749 
L 187.329743 218.186863 
L 190.369655 220.501448 
L 193.409567 215.872277 
L 196.449479 210.085814 
L 199.489391 217.02957 
L 202.529303 219.344156 
L 205.569215 213.171928 
L 208.609127 208.928521 
L 211.649039 213.943456 
L 214.688951 217.801099 
L 217.728863 213.557692 
L 220.768775 209.700049 
L 223.808687 215.486513 
L 226.848599 208.156992 
L 229.888511 211.243106 
L 232.928423 216.258042 
L 235.968335 206.228171 
L 239.008247 210.471578 
L 242.048159 213.171928 
L 245.08807 210.471578 
L 248.127982 213.171928 
L 251.167894 213.943456 
L 254.207806 210.471578 
L 257.247718 204.685114 
L 260.28763 210.857342 
L 263.327542 206.228171 
L 266.367454 218.572627 
L 269.407366 205.456642 
L 272.447278 208.928521 
L 275.48719 208.928521 
L 278.527102 209.314285 
L 281.567014 208.542757 
L 284.606926 207.771228 
L 287.646838 215.100749 
L 290.68675 207.385464 
L 293.726662 207.385464 
L 296.766574 209.700049 
L 299.806485 210.857342 
L 302.846397 213.943456 
L 305.886309 210.857342 
L 308.926221 210.085814 
L 311.966133 214.714985 
L 315.006045 212.786163 
L 318.045957 209.700049 
L 321.085869 213.171928 
L 324.125781 211.243106 
L 327.165693 206.613935 
L 330.205605 209.700049 
L 333.245517 208.542757 
L 336.285429 210.085814 
L 339.325341 213.171928 
L 342.365253 208.542757 
L 345.405165 217.801099 
L 348.445077 208.542757 
L 351.484989 208.542757 
L 354.5249 207.385464 
L 357.564812 208.928521 
L 360.604724 216.258042 
L 363.644636 211.628871 
L 366.684548 173.438209 
L 369.72446 191.183365 
" clip-path="url(#p2babde278b)" style="fill: none; stroke: #8c564b; stroke-width: 1.5; stroke-linecap: square"/>
   </g>
   <g id="line2d_21">
    <path d="M 65.763665 289.167486 
L 66.037257 289.167486 
L 66.341248 288.781721 
L 66.645239 288.781721 
L 66.94923 288.781721 
L 67.253222 288.781721 
L 67.557213 288.781721 
L 67.861204 288.781721 
L 68.165195 288.395957 
L 68.469186 288.395957 
L 68.773178 288.395957 
L 71.81309 288.010193 
L 74.853001 287.238664 
L 77.892913 286.8529 
L 80.932825 286.8529 
L 83.972737 286.081372 
L 87.012649 286.081372 
L 90.052561 285.695607 
L 93.092473 285.695607 
L 96.132385 285.695607 
L 99.172297 285.309843 
L 102.212209 285.695607 
L 105.252121 285.309843 
L 108.292033 284.924079 
L 111.331945 284.924079 
L 114.371857 283.766786 
L 117.411769 284.538315 
L 120.451681 276.437265 
L 123.491593 284.924079 
L 126.531505 284.924079 
L 129.571417 284.538315 
L 132.611328 284.15255 
L 135.65124 284.538315 
L 138.691152 284.538315 
L 141.731064 284.15255 
L 144.770976 284.538315 
L 147.810888 284.15255 
L 150.8508 284.15255 
L 153.890712 284.15255 
L 156.930624 283.766786 
L 159.970536 284.15255 
L 163.010448 284.15255 
L 166.05036 283.766786 
L 169.090272 282.995257 
L 172.130184 283.766786 
L 175.170096 283.766786 
L 178.210008 283.766786 
L 181.24992 283.381022 
L 184.289832 283.381022 
L 187.329743 282.995257 
L 190.369655 282.995257 
L 193.409567 283.766786 
L 196.449479 283.381022 
L 199.489391 283.381022 
L 202.529303 283.381022 
L 205.569215 282.609493 
L 208.609127 283.766786 
L 211.649039 283.381022 
L 214.688951 282.995257 
L 217.728863 282.609493 
L 220.768775 282.223729 
L 223.808687 282.223729 
L 226.848599 281.837965 
L 229.888511 282.995257 
L 232.928423 282.223729 
L 235.968335 282.609493 
L 239.008247 282.609493 
L 242.048159 282.223729 
L 245.08807 281.837965 
L 248.127982 282.223729 
L 251.167894 281.837965 
L 254.207806 282.609493 
L 257.247718 281.066436 
L 260.28763 282.223729 
L 263.327542 281.4522 
L 266.367454 282.223729 
L 269.407366 281.4522 
L 272.447278 281.837965 
L 275.48719 279.137615 
L 278.527102 281.4522 
L 281.567014 282.223729 
L 284.606926 281.837965 
L 287.646838 281.4522 
L 290.68675 281.4522 
L 293.726662 281.837965 
L 296.766574 281.066436 
L 299.806485 281.4522 
L 302.846397 281.4522 
L 305.886309 281.4522 
L 308.926221 281.4522 
L 311.966133 281.837965 
L 315.006045 281.066436 
L 318.045957 281.066436 
L 321.085869 280.680672 
L 324.125781 280.680672 
L 327.165693 280.680672 
L 330.205605 281.066436 
L 333.245517 280.294908 
L 336.285429 280.294908 
L 339.325341 281.066436 
L 342.365253 280.680672 
L 345.405165 280.680672 
L 348.445077 280.294908 
L 351.484989 280.680672 
L 354.5249 277.208794 
L 357.564812 279.523379 
L 360.604724 279.909143 
L 363.644636 279.909143 
L 366.684548 279.909143 
L 369.72446 279.137615 
" clip-path="url(#p2babde278b)" style="fill: none; stroke: #e377c2; stroke-width: 1.5; stroke-linecap: square"/>
   </g>
   <g id="line2d_22">
    <path d="M 65.763665 262.163988 
L 66.037257 264.478573 
L 66.341248 263.707045 
L 66.645239 261.392459 
L 66.94923 258.306345 
L 67.253222 259.849402 
L 67.557213 259.463638 
L 67.861204 257.534817 
L 68.165195 257.534817 
L 68.469186 255.605995 
L 68.773178 255.220231 
L 71.81309 250.59106 
L 74.853001 245.961889 
L 77.892913 242.104247 
L 80.932825 238.632368 
L 83.972737 232.46014 
L 87.012649 227.059441 
L 90.052561 227.445205 
L 93.092473 225.902148 
L 96.132385 222.816034 
L 99.172297 220.501448 
L 102.212209 214.32922 
L 105.252121 217.801099 
L 108.292033 203.913585 
L 111.331945 192.726422 
L 114.371857 210.857342 
L 117.411769 209.314285 
L 120.451681 205.456642 
L 123.491593 208.542757 
L 126.531505 205.842407 
L 129.571417 207.385464 
L 132.611328 205.456642 
L 135.65124 203.142057 
L 138.691152 205.070878 
L 141.731064 198.89865 
L 144.770976 199.284414 
L 147.810888 200.441707 
L 150.8508 200.055943 
L 153.890712 198.89865 
L 156.930624 198.89865 
L 159.970536 195.426772 
L 163.010448 193.112186 
L 166.05036 189.640308 
L 169.090272 194.269479 
L 172.130184 192.726422 
L 175.170096 189.640308 
L 178.210008 189.254544 
L 181.24992 190.026072 
L 184.289832 188.86878 
L 187.329743 188.483015 
L 190.369655 185.782666 
L 193.409567 179.610437 
L 196.449479 186.554194 
L 199.489391 184.625373 
L 202.529303 183.082316 
L 205.569215 180.381966 
L 208.609127 177.295852 
L 211.649039 181.925023 
L 214.688951 181.925023 
L 217.728863 174.595502 
L 220.768775 173.823974 
L 223.808687 174.209738 
L 226.848599 172.280917 
L 229.888511 174.209738 
L 232.928423 173.438209 
L 235.968335 173.438209 
L 239.008247 170.73786 
L 242.048159 167.651746 
L 245.08807 172.280917 
L 248.127982 165.33716 
L 251.167894 162.251046 
L 254.207806 164.565632 
L 257.247718 161.865282 
L 260.28763 161.479518 
L 263.327542 160.322225 
L 266.367454 159.550696 
L 269.407366 161.479518 
L 272.447278 153.378468 
L 275.48719 151.063883 
L 278.527102 148.749297 
L 281.567014 143.348598 
L 284.606926 147.592004 
L 287.646838 151.063883 
L 290.68675 155.307289 
L 293.726662 155.307289 
L 296.766574 159.550696 
L 299.806485 154.149997 
L 302.846397 152.221175 
L 305.886309 149.520826 
L 308.926221 152.60694 
L 311.966133 153.378468 
L 315.006045 153.764232 
L 318.045957 142.962833 
L 321.085869 146.048947 
L 324.125781 141.805541 
L 327.165693 142.962833 
L 330.205605 137.562134 
L 333.245517 139.876719 
L 336.285429 145.277419 
L 339.325341 138.719427 
L 342.365253 147.977769 
L 345.405165 136.404841 
L 348.445077 132.547199 
L 351.484989 136.404841 
L 354.5249 128.689556 
L 357.564812 132.161434 
L 360.604724 134.47602 
L 363.644636 130.232613 
L 366.684548 131.004141 
L 369.72446 108.244051 
" clip-path="url(#p2babde278b)" style="fill: none; stroke: #7f7f7f; stroke-width: 1.5; stroke-linecap: square"/>
   </g>
   <g id="line2d_23">
    <path d="M 65.763665 288.010193 
L 66.037257 287.238664 
L 66.341248 286.467136 
L 66.645239 286.081372 
L 66.94923 285.695607 
L 67.253222 285.309843 
L 67.557213 284.538315 
L 67.861204 284.538315 
L 68.165195 284.15255 
L 68.469186 283.766786 
L 68.773178 282.995257 
L 71.81309 281.4522 
L 74.853001 279.909143 
L 77.892913 277.208794 
L 80.932825 276.437265 
L 83.972737 274.508444 
L 87.012649 272.965387 
L 90.052561 269.879273 
L 93.092473 271.42233 
L 96.132385 270.650801 
L 99.172297 269.107744 
L 102.212209 269.107744 
L 105.252121 268.336216 
L 108.292033 269.107744 
L 111.331945 266.793159 
L 114.371857 261.392459 
L 117.411769 267.950452 
L 120.451681 268.336216 
L 123.491593 266.793159 
L 126.531505 266.793159 
L 129.571417 265.635866 
L 132.611328 266.407395 
L 135.65124 265.635866 
L 138.691152 264.864338 
L 141.731064 264.092809 
L 144.770976 262.549752 
L 147.810888 262.935516 
L 150.8508 261.778224 
L 153.890712 262.935516 
L 156.930624 263.321281 
L 159.970536 262.549752 
L 163.010448 261.392459 
L 166.05036 261.778224 
L 169.090272 262.549752 
L 172.130184 253.677174 
L 175.170096 260.620931 
L 178.210008 258.692109 
L 181.24992 254.448703 
L 184.289832 259.849402 
L 187.329743 259.849402 
L 190.369655 257.920581 
L 193.409567 254.834467 
L 196.449479 259.463638 
L 199.489391 259.077874 
L 202.529303 259.463638 
L 205.569215 259.077874 
L 208.609127 258.306345 
L 211.649039 258.306345 
L 214.688951 252.519881 
L 217.728863 255.605995 
L 220.768775 258.692109 
L 223.808687 254.062938 
L 226.848599 255.605995 
L 229.888511 255.605995 
L 232.928423 256.377524 
L 235.968335 255.605995 
L 239.008247 255.605995 
L 242.048159 253.677174 
L 245.08807 253.29141 
L 248.127982 255.605995 
L 251.167894 252.519881 
L 254.207806 245.961889 
L 257.247718 252.905646 
L 260.28763 253.29141 
L 263.327542 246.347653 
L 266.367454 252.519881 
L 269.407366 252.519881 
L 272.447278 252.519881 
L 275.48719 252.134117 
L 278.527102 249.048003 
L 281.567014 247.504946 
L 284.606926 250.205296 
L 287.646838 247.119182 
L 290.68675 251.748353 
L 293.726662 250.59106 
L 296.766574 227.059441 
L 299.806485 250.976824 
L 302.846397 248.662239 
L 305.886309 247.89071 
L 308.926221 248.662239 
L 311.966133 248.276475 
L 315.006045 250.205296 
L 318.045957 248.662239 
L 321.085869 247.504946 
L 324.125781 244.804596 
L 327.165693 246.733418 
L 330.205605 248.662239 
L 333.245517 222.816034 
L 336.285429 246.347653 
L 339.325341 247.119182 
L 342.365253 238.632368 
L 345.405165 245.961889 
L 348.445077 244.033068 
L 351.484989 244.418832 
L 354.5249 246.733418 
L 357.564812 239.018133 
L 360.604724 240.946954 
L 363.644636 240.175425 
L 366.684548 242.875775 
L 369.72446 239.789661 
" clip-path="url(#p2babde278b)" style="fill: none; stroke: #bcbd22; stroke-width: 1.5; stroke-linecap: square"/>
   </g>
   <g id="line2d_24">
    <path d="M 65.763665 210.471578 
L 66.037257 207.385464 
L 66.341248 207.385464 
L 66.645239 209.314285 
L 66.94923 205.842407 
L 67.253222 206.613935 
L 67.557213 207.771228 
L 67.861204 206.999699 
L 68.165195 205.070878 
L 68.469186 205.842407 
L 68.773178 203.913585 
L 71.81309 199.670179 
L 74.853001 194.655243 
L 77.892913 191.569129 
L 80.932825 188.483015 
L 83.972737 181.925023 
L 87.012649 181.925023 
L 90.052561 175.752795 
L 93.092473 173.052445 
L 96.132385 174.209738 
L 99.172297 167.651746 
L 102.212209 168.809038 
L 105.252121 169.194803 
L 108.292033 120.588507 
L 111.331945 161.093753 
L 114.371857 164.179867 
L 117.411769 165.33716 
L 120.451681 162.63681 
L 123.491593 161.093753 
L 126.531505 142.191305 
L 129.571417 159.936461 
L 132.611328 158.393404 
L 135.65124 158.779168 
L 138.691152 155.307289 
L 141.731064 151.063883 
L 144.770976 154.921525 
L 147.810888 148.363533 
L 150.8508 151.063883 
L 153.890712 151.449647 
L 156.930624 151.835411 
L 159.970536 151.449647 
L 163.010448 152.60694 
L 166.05036 148.363533 
L 169.090272 149.520826 
L 172.130184 148.749297 
L 175.170096 147.977769 
L 178.210008 150.678118 
L 181.24992 147.20624 
L 184.289832 146.820476 
L 187.329743 149.520826 
L 190.369655 145.277419 
L 193.409567 146.434712 
L 196.449479 147.977769 
L 199.489391 146.820476 
L 202.529303 145.277419 
L 205.569215 146.820476 
L 208.609127 147.977769 
L 211.649039 141.034012 
L 214.688951 144.50589 
L 217.728863 144.120126 
L 220.768775 143.734362 
L 223.808687 142.577069 
L 226.848599 141.034012 
L 229.888511 141.419776 
L 232.928423 139.876719 
L 235.968335 139.876719 
L 239.008247 136.790605 
L 242.048159 135.633313 
L 245.08807 142.577069 
L 248.127982 137.17637 
L 251.167894 140.648248 
L 254.207806 129.846849 
L 257.247718 131.389906 
L 260.28763 136.019077 
L 263.327542 138.719427 
L 266.367454 131.004141 
L 269.407366 136.404841 
L 272.447278 132.932963 
L 275.48719 135.247548 
L 278.527102 132.932963 
L 281.567014 135.247548 
L 284.606926 131.389906 
L 287.646838 133.704491 
L 290.68675 133.318727 
L 293.726662 134.47602 
L 296.766574 134.47602 
L 299.806485 130.232613 
L 302.846397 131.004141 
L 305.886309 136.404841 
L 308.926221 133.704491 
L 311.966133 128.689556 
L 315.006045 133.318727 
L 318.045957 124.060385 
L 321.085869 131.004141 
L 324.125781 129.846849 
L 327.165693 133.318727 
L 330.205605 129.461084 
L 333.245517 127.918027 
L 336.285429 125.217678 
L 339.325341 126.760735 
L 342.365253 125.603442 
L 345.405165 127.918027 
L 348.445077 127.918027 
L 351.484989 127.918027 
L 354.5249 122.517328 
L 357.564812 124.446149 
L 360.604724 127.532263 
L 363.644636 129.07532 
L 366.684548 87.798545 
L 369.72446 120.974271 
" clip-path="url(#p2babde278b)" style="fill: none; stroke: #17becf; stroke-width: 1.5; stroke-linecap: square"/>
   </g>
   <g id="line2d_25">
    <path d="M 65.763665 291.096307 
L 66.037257 290.710543 
L 66.341248 290.710543 
L 66.645239 290.710543 
L 66.94923 290.324778 
L 67.253222 290.324778 
L 67.557213 290.324778 
L 67.861204 290.324778 
L 68.165195 289.939014 
L 68.469186 289.939014 
L 68.773178 289.939014 
L 71.81309 287.238664 
L 74.853001 288.395957 
L 77.892913 287.624429 
L 80.932825 287.624429 
L 83.972737 286.8529 
L 87.012649 286.8529 
L 90.052561 286.467136 
L 93.092473 286.467136 
L 96.132385 286.081372 
L 99.172297 286.081372 
L 102.212209 284.924079 
L 105.252121 285.309843 
L 108.292033 285.309843 
L 111.331945 284.924079 
L 114.371857 284.924079 
L 117.411769 284.538315 
L 120.451681 282.995257 
L 123.491593 284.538315 
L 126.531505 284.538315 
L 129.571417 284.15255 
L 132.611328 284.15255 
L 135.65124 283.766786 
L 138.691152 283.766786 
L 141.731064 284.15255 
L 144.770976 284.15255 
L 147.810888 283.766786 
L 150.8508 283.381022 
L 153.890712 283.381022 
L 156.930624 283.766786 
L 159.970536 283.766786 
L 163.010448 283.381022 
L 166.05036 283.381022 
L 169.090272 283.381022 
L 172.130184 282.995257 
L 175.170096 283.381022 
L 178.210008 283.381022 
L 181.24992 283.381022 
L 184.289832 282.995257 
L 187.329743 282.995257 
L 190.369655 282.995257 
L 193.409567 282.223729 
L 196.449479 282.609493 
L 199.489391 282.609493 
L 202.529303 282.223729 
L 205.569215 281.837965 
L 208.609127 282.223729 
L 211.649039 281.837965 
L 214.688951 282.223729 
L 217.728863 281.837965 
L 220.768775 281.837965 
L 223.808687 281.837965 
L 226.848599 281.4522 
L 229.888511 281.066436 
L 232.928423 281.4522 
L 235.968335 281.066436 
L 239.008247 281.4522 
L 242.048159 281.066436 
L 245.08807 281.066436 
L 248.127982 280.680672 
L 251.167894 281.066436 
L 254.207806 280.680672 
L 257.247718 281.066436 
L 260.28763 280.680672 
L 263.327542 280.680672 
L 266.367454 279.909143 
L 269.407366 280.294908 
L 272.447278 280.294908 
L 275.48719 280.294908 
L 278.527102 280.294908 
L 281.567014 279.909143 
L 284.606926 280.294908 
L 287.646838 279.137615 
L 290.68675 279.909143 
L 293.726662 279.909143 
L 296.766574 279.909143 
L 299.806485 279.909143 
L 302.846397 279.909143 
L 305.886309 279.523379 
L 308.926221 279.909143 
L 311.966133 279.909143 
L 315.006045 279.523379 
L 318.045957 279.523379 
L 321.085869 279.523379 
L 324.125781 278.366086 
L 327.165693 278.751851 
L 330.205605 278.751851 
L 333.245517 279.523379 
L 336.285429 278.751851 
L 339.325341 278.751851 
L 342.365253 279.137615 
L 345.405165 278.751851 
L 348.445077 278.751851 
L 351.484989 278.751851 
L 354.5249 278.366086 
L 357.564812 278.366086 
L 360.604724 278.751851 
L 363.644636 278.366086 
L 366.684548 278.751851 
L 369.72446 277.208794 
" clip-path="url(#p2babde278b)" style="fill: none; stroke: #1f77b4; stroke-width: 1.5; stroke-linecap: square"/>
   </g>
   <g id="line2d_26">
    <path d="M 65.763665 288.395957 
L 66.037257 287.238664 
L 66.341248 286.467136 
L 66.645239 285.309843 
L 66.94923 284.538315 
L 67.253222 282.609493 
L 67.557213 282.995257 
L 67.861204 281.837965 
L 68.165195 280.680672 
L 68.469186 280.294908 
L 68.773178 278.366086 
L 71.81309 271.42233 
L 74.853001 265.635866 
L 77.892913 262.549752 
L 80.932825 258.306345 
L 83.972737 256.763288 
L 87.012649 253.29141 
L 90.052561 251.748353 
L 93.092473 247.89071 
L 96.132385 245.190361 
L 99.172297 242.490011 
L 102.212209 240.175425 
L 105.252121 242.104247 
L 108.292033 236.317783 
L 111.331945 233.231669 
L 114.371857 222.044505 
L 117.411769 218.186863 
L 120.451681 233.231669 
L 123.491593 230.917083 
L 126.531505 230.531319 
L 129.571417 228.602498 
L 132.611328 227.830969 
L 135.65124 227.445205 
L 138.691152 224.359091 
L 141.731064 221.658741 
L 144.770976 223.973327 
L 147.810888 220.887213 
L 150.8508 221.658741 
L 153.890712 216.643806 
L 156.930624 216.643806 
L 159.970536 212.014635 
L 163.010448 215.486513 
L 166.05036 213.171928 
L 169.090272 213.557692 
L 172.130184 207.771228 
L 175.170096 211.628871 
L 178.210008 209.700049 
L 181.24992 208.542757 
L 184.289832 207.771228 
L 187.329743 207.385464 
L 190.369655 207.385464 
L 193.409567 203.913585 
L 196.449479 203.913585 
L 199.489391 203.913585 
L 202.529303 200.827471 
L 205.569215 188.483015 
L 208.609127 196.969829 
L 211.649039 197.355593 
L 214.688951 196.584065 
L 217.728863 193.112186 
L 220.768775 193.883715 
L 223.808687 194.269479 
L 226.848599 192.726422 
L 229.888511 191.183365 
L 232.928423 192.340658 
L 235.968335 189.254544 
L 239.008247 188.097251 
L 242.048159 182.310787 
L 245.08807 184.239609 
L 248.127982 183.46808 
L 251.167894 174.209738 
L 254.207806 184.625373 
L 257.247718 179.610437 
L 260.28763 179.224673 
L 263.327542 175.367031 
L 266.367454 173.823974 
L 269.407366 176.524323 
L 272.447278 171.123624 
L 275.48719 178.06738 
L 278.527102 174.595502 
L 281.567014 172.666681 
L 284.606926 170.73786 
L 287.646838 169.966331 
L 290.68675 173.823974 
L 293.726662 168.423274 
L 296.766574 169.966331 
L 299.806485 169.580567 
L 302.846397 161.093753 
L 305.886309 166.880217 
L 308.926221 166.494453 
L 311.966133 162.251046 
L 315.006045 166.108689 
L 318.045957 163.408339 
L 321.085869 161.093753 
L 324.125781 160.322225 
L 327.165693 157.621875 
L 330.205605 161.093753 
L 333.245517 156.078818 
L 336.285429 156.464582 
L 339.325341 151.835411 
L 342.365253 149.90659 
L 345.405165 152.60694 
L 348.445077 154.149997 
L 351.484989 150.292354 
L 354.5249 154.149997 
L 357.564812 153.378468 
L 360.604724 147.977769 
L 363.644636 147.592004 
L 366.684548 101.686058 
L 369.72446 130.618377 
" clip-path="url(#p2babde278b)" style="fill: none; stroke: #ff7f0e; stroke-width: 1.5; stroke-linecap: square"/>
   </g>
   <g id="patch_3">
    <path d="M 50.565625 304.44375 
L 50.565625 10.8 
" style="fill: none; stroke: #000000; stroke-width: 0.8; stroke-linejoin: miter; stroke-linecap: square"/>
   </g>
   <g id="patch_4">
    <path d="M 384.9225 304.44375 
L 384.9225 10.8 
" style="fill: none; stroke: #000000; stroke-width: 0.8; stroke-linejoin: miter; stroke-linecap: square"/>
   </g>
   <g id="patch_5">
    <path d="M 50.565625 304.44375 
L 384.9225 304.44375 
" style="fill: none; stroke: #000000; stroke-width: 0.8; stroke-linejoin: miter; stroke-linecap: square"/>
   </g>
   <g id="patch_6">
    <path d="M 50.565625 10.8 
L 384.9225 10.8 
" style="fill: none; stroke: #000000; stroke-width: 0.8; stroke-linejoin: miter; stroke-linecap: square"/>
   </g>
   <g id="text_17">
    <!-- solomon -->
    <g style="fill: #e377c2" transform="translate(390.9225 286.745815) scale(0.08 -0.08)">
     <defs>
      <path id="DejaVuSans-6f" d="M 1959 3097 
Q 1497 3097 1228 2736 
Q 959 2375 959 1747 
Q 959 1119 1226 758 
Q 1494 397 1959 397 
Q 2419 397 2687 759 
Q 2956 1122 2956 1747 
Q 2956 2369 2687 2733 
Q 2419 3097 1959 3097 
z
M 1959 3584 
Q 2709 3584 3137 3096 
Q 3566 2609 3566 1747 
Q 3566 888 3137 398 
Q 2709 -91 1959 -91 
Q 1206 -91 779 398 
Q 353 888 353 1747 
Q 353 2609 779 3096 
Q 1206 3584 1959 3584 
z
" transform="scale(0.015625)"/>
      <path id="DejaVuSans-6c" d="M 603 4863 
L 1178 4863 
L 1178 0 
L 603 0 
L 603 4863 
z
" transform="scale(0.015625)"/>
     </defs>
     <use xlink:href="#DejaVuSans-73"/>
     <use xlink:href="#DejaVuSans-6f" transform="translate(52.099609 0)"/>
     <use xlink:href="#DejaVuSans-6c" transform="translate(113.28125 0)"/>
     <use xlink:href="#DejaVuSans-6f" transform="translate(141.064453 0)"/>
     <use xlink:href="#DejaVuSans-6d" transform="translate(202.246094 0)"/>
     <use xlink:href="#DejaVuSans-6f" transform="translate(299.658203 0)"/>
     <use xlink:href="#DejaVuSans-6e" transform="translate(360.839844 0)"/>
    </g>
   </g>
   <g id="text_18">
    <!-- trimou -->
    <g style="fill: #1f77b4" transform="translate(390.9225 279.416294) scale(0.08 -0.08)">
     <use xlink:href="#DejaVuSans-74"/>
     <use xlink:href="#DejaVuSans-72" transform="translate(39.208984 0)"/>
     <use xlink:href="#DejaVuSans-69" transform="translate(80.322266 0)"/>
     <use xlink:href="#DejaVuSans-6d" transform="translate(108.105469 0)"/>
     <use xlink:href="#DejaVuSans-6f" transform="translate(205.517578 0)"/>
     <use xlink:href="#DejaVuSans-75" transform="translate(266.699219 0)"/>
    </g>
   </g>
   <g id="text_19">
    <!-- handlebars -->
    <g style="fill: #ff7f0e" transform="translate(390.9225 265.914545) scale(0.08 -0.08)">
     <defs>
      <path id="DejaVuSans-68" d="M 3513 2113 
L 3513 0 
L 2938 0 
L 2938 2094 
Q 2938 2591 2744 2837 
Q 2550 3084 2163 3084 
Q 1697 3084 1428 2787 
Q 1159 2491 1159 1978 
L 1159 0 
L 581 0 
L 581 4863 
L 1159 4863 
L 1159 2956 
Q 1366 3272 1645 3428 
Q 1925 3584 2291 3584 
Q 2894 3584 3203 3211 
Q 3513 2838 3513 2113 
z
" transform="scale(0.015625)"/>
      <path id="DejaVuSans-61" d="M 2194 1759 
Q 1497 1759 1228 1600 
Q 959 1441 959 1056 
Q 959 750 1161 570 
Q 1363 391 1709 391 
Q 2188 391 2477 730 
Q 2766 1069 2766 1631 
L 2766 1759 
L 2194 1759 
z
M 3341 1997 
L 3341 0 
L 2766 0 
L 2766 531 
Q 2569 213 2275 61 
Q 1981 -91 1556 -91 
Q 1019 -91 701 211 
Q 384 513 384 1019 
Q 384 1609 779 1909 
Q 1175 2209 1959 2209 
L 2766 2209 
L 2766 2266 
Q 2766 2663 2505 2880 
Q 2244 3097 1772 3097 
Q 1472 3097 1187 3025 
Q 903 2953 641 2809 
L 641 3341 
Q 956 3463 1253 3523 
Q 1550 3584 1831 3584 
Q 2591 3584 2966 3190 
Q 3341 2797 3341 1997 
z
" transform="scale(0.015625)"/>
      <path id="DejaVuSans-64" d="M 2906 2969 
L 2906 4863 
L 3481 4863 
L 3481 0 
L 2906 0 
L 2906 525 
Q 2725 213 2448 61 
Q 2172 -91 1784 -91 
Q 1150 -91 751 415 
Q 353 922 353 1747 
Q 353 2572 751 3078 
Q 1150 3584 1784 3584 
Q 2172 3584 2448 3432 
Q 2725 3281 2906 2969 
z
M 947 1747 
Q 947 1113 1208 752 
Q 1469 391 1925 391 
Q 2381 391 2643 752 
Q 2906 1113 2906 1747 
Q 2906 2381 2643 2742 
Q 2381 3103 1925 3103 
Q 1469 3103 1208 2742 
Q 947 2381 947 1747 
z
" transform="scale(0.015625)"/>
      <path id="DejaVuSans-62" d="M 3116 1747 
Q 3116 2381 2855 2742 
Q 2594 3103 2138 3103 
Q 1681 3103 1420 2742 
Q 1159 2381 1159 1747 
Q 1159 1113 1420 752 
Q 1681 391 2138 391 
Q 2594 391 2855 752 
Q 3116 1113 3116 1747 
z
M 1159 2969 
Q 1341 3281 1617 3432 
Q 1894 3584 2278 3584 
Q 2916 3584 3314 3078 
Q 3713 2572 3713 1747 
Q 3713 922 3314 415 
Q 2916 -91 2278 -91 
Q 1894 -91 1617 61 
Q 1341 213 1159 525 
L 1159 0 
L 581 0 
L 581 4863 
L 1159 4863 
L 1159 2969 
z
" transform="scale(0.015625)"/>
     </defs>
     <use xlink:href="#DejaVuSans-68"/>
     <use xlink:href="#DejaVuSans-61" transform="translate(63.378906 0)"/>
     <use xlink:href="#DejaVuSans-6e" transform="translate(124.658203 0)"/>
     <use xlink:href="#DejaVuSans-64" transform="translate(188.037109 0)"/>
     <use xlink:href="#DejaVuSans-6c" transform="translate(251.513672 0)"/>
     <use xlink:href="#DejaVuSans-65" transform="translate(279.296875 0)"/>
     <use xlink:href="#DejaVuSans-62" transform="translate(340.820312 0)"/>
     <use xlink:href="#DejaVuSans-61" transform="translate(404.296875 0)"/>
     <use xlink:href="#DejaVuSans-72" transform="translate(465.576172 0)"/>
     <use xlink:href="#DejaVuSans-73" transform="translate(506.689453 0)"/>
    </g>
   </g>
   <g id="text_20">
    <!-- mustachej -->
    <g style="fill: #9467bd" transform="translate(390.9225 258.585024) scale(0.08 -0.08)">
     <defs>
      <path id="DejaVuSans-63" d="M 3122 3366 
L 3122 2828 
Q 2878 2963 2633 3030 
Q 2388 3097 2138 3097 
Q 1578 3097 1268 2742 
Q 959 2388 959 1747 
Q 959 1106 1268 751 
Q 1578 397 2138 397 
Q 2388 397 2633 464 
Q 2878 531 3122 666 
L 3122 134 
Q 2881 22 2623 -34 
Q 2366 -91 2075 -91 
Q 1284 -91 818 406 
Q 353 903 353 1747 
Q 353 2603 823 3093 
Q 1294 3584 2113 3584 
Q 2378 3584 2631 3529 
Q 2884 3475 3122 3366 
z
" transform="scale(0.015625)"/>
      <path id="DejaVuSans-6a" d="M 603 3500 
L 1178 3500 
L 1178 -63 
Q 1178 -731 923 -1031 
Q 669 -1331 103 -1331 
L -116 -1331 
L -116 -844 
L 38 -844 
Q 366 -844 484 -692 
Q 603 -541 603 -63 
L 603 3500 
z
M 603 4863 
L 1178 4863 
L 1178 4134 
L 603 4134 
L 603 4863 
z
" transform="scale(0.015625)"/>
     </defs>
     <use xlink:href="#DejaVuSans-6d"/>
     <use xlink:href="#DejaVuSans-75" transform="translate(97.412109 0)"/>
     <use xlink:href="#DejaVuSans-73" transform="translate(160.791016 0)"/>
     <use xlink:href="#DejaVuSans-74" transform="translate(212.890625 0)"/>
     <use xlink:href="#DejaVuSans-61" transform="translate(252.099609 0)"/>
     <use xlink:href="#DejaVuSans-63" transform="translate(313.378906 0)"/>
     <use xlink:href="#DejaVuSans-68" transform="translate(368.359375 0)"/>
     <use xlink:href="#DejaVuSans-65" transform="translate(431.738281 0)"/>
     <use xlink:href="#DejaVuSans-6a" transform="translate(493.261719 0)"/>
    </g>
   </g>
   <g id="text_21">
    <!-- stringtree -->
    <g style="fill: #bcbd22" transform="translate(390.9225 241.997161) scale(0.08 -0.08)">
     <defs>
      <path id="DejaVuSans-67" d="M 2906 1791 
Q 2906 2416 2648 2759 
Q 2391 3103 1925 3103 
Q 1463 3103 1205 2759 
Q 947 2416 947 1791 
Q 947 1169 1205 825 
Q 1463 481 1925 481 
Q 2391 481 2648 825 
Q 2906 1169 2906 1791 
z
M 3481 434 
Q 3481 -459 3084 -895 
Q 2688 -1331 1869 -1331 
Q 1566 -1331 1297 -1286 
Q 1028 -1241 775 -1147 
L 775 -588 
Q 1028 -725 1275 -790 
Q 1522 -856 1778 -856 
Q 2344 -856 2625 -561 
Q 2906 -266 2906 331 
L 2906 616 
Q 2728 306 2450 153 
Q 2172 0 1784 0 
Q 1141 0 747 490 
Q 353 981 353 1791 
Q 353 2603 747 3093 
Q 1141 3584 1784 3584 
Q 2172 3584 2450 3431 
Q 2728 3278 2906 2969 
L 2906 3500 
L 3481 3500 
L 3481 434 
z
" transform="scale(0.015625)"/>
     </defs>
     <use xlink:href="#DejaVuSans-73"/>
     <use xlink:href="#DejaVuSans-74" transform="translate(52.099609 0)"/>
     <use xlink:href="#DejaVuSans-72" transform="translate(91.308594 0)"/>
     <use xlink:href="#DejaVuSans-69" transform="translate(132.421875 0)"/>
     <use xlink:href="#DejaVuSans-6e" transform="translate(160.205078 0)"/>
     <use xlink:href="#DejaVuSans-67" transform="translate(223.583984 0)"/>
     <use xlink:href="#DejaVuSans-74" transform="translate(287.060547 0)"/>
     <use xlink:href="#DejaVuSans-72" transform="translate(326.269531 0)"/>
     <use xlink:href="#DejaVuSans-65" transform="translate(365.132812 0)"/>
     <use xlink:href="#DejaVuSans-65" transform="translate(426.65625 0)"/>
    </g>
   </g>
   <g id="text_22">
    <!-- freemarker -->
    <g style="fill: #1f77b4" transform="translate(390.9225 234.66764) scale(0.08 -0.08)">
     <defs>
      <path id="DejaVuSans-66" d="M 2375 4863 
L 2375 4384 
L 1825 4384 
Q 1516 4384 1395 4259 
Q 1275 4134 1275 3809 
L 1275 3500 
L 2222 3500 
L 2222 3053 
L 1275 3053 
L 1275 0 
L 697 0 
L 697 3053 
L 147 3053 
L 147 3500 
L 697 3500 
L 697 3744 
Q 697 4328 969 4595 
Q 1241 4863 1831 4863 
L 2375 4863 
z
" transform="scale(0.015625)"/>
      <path id="DejaVuSans-6b" d="M 581 4863 
L 1159 4863 
L 1159 1991 
L 2875 3500 
L 3609 3500 
L 1753 1863 
L 3688 0 
L 2938 0 
L 1159 1709 
L 1159 0 
L 581 0 
L 581 4863 
z
" transform="scale(0.015625)"/>
     </defs>
     <use xlink:href="#DejaVuSans-66"/>
     <use xlink:href="#DejaVuSans-72" transform="translate(35.205078 0)"/>
     <use xlink:href="#DejaVuSans-65" transform="translate(74.068359 0)"/>
     <use xlink:href="#DejaVuSans-65" transform="translate(135.591797 0)"/>
     <use xlink:href="#DejaVuSans-6d" transform="translate(197.115234 0)"/>
     <use xlink:href="#DejaVuSans-61" transform="translate(294.527344 0)"/>
     <use xlink:href="#DejaVuSans-72" transform="translate(355.806641 0)"/>
     <use xlink:href="#DejaVuSans-6b" transform="translate(396.919922 0)"/>
     <use xlink:href="#DejaVuSans-65" transform="translate(451.205078 0)"/>
     <use xlink:href="#DejaVuSans-72" transform="translate(512.728516 0)"/>
    </g>
   </g>
   <g id="text_23">
    <!-- jangod -->
    <g style="fill: #2ca02c" transform="translate(390.9225 203.8065) scale(0.08 -0.08)">
     <use xlink:href="#DejaVuSans-6a"/>
     <use xlink:href="#DejaVuSans-61" transform="translate(27.783203 0)"/>
     <use xlink:href="#DejaVuSans-6e" transform="translate(89.0625 0)"/>
     <use xlink:href="#DejaVuSans-67" transform="translate(152.441406 0)"/>
     <use xlink:href="#DejaVuSans-6f" transform="translate(215.917969 0)"/>
     <use xlink:href="#DejaVuSans-64" transform="translate(277.099609 0)"/>
    </g>
   </g>
   <g id="text_24">
    <!-- pebble -->
    <g style="fill: #8c564b" transform="translate(390.9225 193.390865) scale(0.08 -0.08)">
     <defs>
      <path id="DejaVuSans-70" d="M 1159 525 
L 1159 -1331 
L 581 -1331 
L 581 3500 
L 1159 3500 
L 1159 2969 
Q 1341 3281 1617 3432 
Q 1894 3584 2278 3584 
Q 2916 3584 3314 3078 
Q 3713 2572 3713 1747 
Q 3713 922 3314 415 
Q 2916 -91 2278 -91 
Q 1894 -91 1617 61 
Q 1341 213 1159 525 
z
M 3116 1747 
Q 3116 2381 2855 2742 
Q 2594 3103 2138 3103 
Q 1681 3103 1420 2742 
Q 1159 2381 1159 1747 
Q 1159 1113 1420 752 
Q 1681 391 2138 391 
Q 2594 391 2855 752 
Q 3116 1113 3116 1747 
z
" transform="scale(0.015625)"/>
     </defs>
     <use xlink:href="#DejaVuSans-70"/>
     <use xlink:href="#DejaVuSans-65" transform="translate(63.476562 0)"/>
     <use xlink:href="#DejaVuSans-62" transform="translate(125 0)"/>
     <use xlink:href="#DejaVuSans-62" transform="translate(188.476562 0)"/>
     <use xlink:href="#DejaVuSans-6c" transform="translate(251.953125 0)"/>
     <use xlink:href="#DejaVuSans-65" transform="translate(279.736328 0)"/>
    </g>
   </g>
   <g id="text_25">
    <!-- velocity -->
    <g style="fill: #ff7f0e" transform="translate(390.9225 132.825877) scale(0.08 -0.08)">
     <defs>
      <path id="DejaVuSans-76" d="M 191 3500 
L 800 3500 
L 1894 563 
L 2988 3500 
L 3597 3500 
L 2284 0 
L 1503 0 
L 191 3500 
z
" transform="scale(0.015625)"/>
      <path id="DejaVuSans-79" d="M 2059 -325 
Q 1816 -950 1584 -1140 
Q 1353 -1331 966 -1331 
L 506 -1331 
L 506 -850 
L 844 -850 
Q 1081 -850 1212 -737 
Q 1344 -625 1503 -206 
L 1606 56 
L 191 3500 
L 800 3500 
L 1894 763 
L 2988 3500 
L 3597 3500 
L 2059 -325 
z
" transform="scale(0.015625)"/>
     </defs>
     <use xlink:href="#DejaVuSans-76"/>
     <use xlink:href="#DejaVuSans-65" transform="translate(59.179688 0)"/>
     <use xlink:href="#DejaVuSans-6c" transform="translate(120.703125 0)"/>
     <use xlink:href="#DejaVuSans-6f" transform="translate(148.486328 0)"/>
     <use xlink:href="#DejaVuSans-63" transform="translate(209.667969 0)"/>
     <use xlink:href="#DejaVuSans-69" transform="translate(264.648438 0)"/>
     <use xlink:href="#DejaVuSans-74" transform="translate(292.431641 0)"/>
     <use xlink:href="#DejaVuSans-79" transform="translate(331.640625 0)"/>
    </g>
   </g>
   <g id="text_26">
    <!-- thymeleaf -->
    <g style="fill: #17becf" transform="translate(390.9225 123.181771) scale(0.08 -0.08)">
     <use xlink:href="#DejaVuSans-74"/>
     <use xlink:href="#DejaVuSans-68" transform="translate(39.208984 0)"/>
     <use xlink:href="#DejaVuSans-79" transform="translate(102.587891 0)"/>
     <use xlink:href="#DejaVuSans-6d" transform="translate(161.767578 0)"/>
     <use xlink:href="#DejaVuSans-65" transform="translate(259.179688 0)"/>
     <use xlink:href="#DejaVuSans-6c" transform="translate(320.703125 0)"/>
     <use xlink:href="#DejaVuSans-65" transform="translate(348.486328 0)"/>
     <use xlink:href="#DejaVuSans-61" transform="translate(410.009766 0)"/>
     <use xlink:href="#DejaVuSans-66" transform="translate(471.289062 0)"/>
    </g>
   </g>
   <g id="text_27">
    <!-- stringtemplate -->
    <g style="fill: #7f7f7f" transform="translate(390.9225 110.451551) scale(0.08 -0.08)">
     <use xlink:href="#DejaVuSans-73"/>
     <use xlink:href="#DejaVuSans-74" transform="translate(52.099609 0)"/>
     <use xlink:href="#DejaVuSans-72" transform="translate(91.308594 0)"/>
     <use xlink:href="#DejaVuSans-69" transform="translate(132.421875 0)"/>
     <use xlink:href="#DejaVuSans-6e" transform="translate(160.205078 0)"/>
     <use xlink:href="#DejaVuSans-67" transform="translate(223.583984 0)"/>
     <use xlink:href="#DejaVuSans-74" transform="translate(287.060547 0)"/>
     <use xlink:href="#DejaVuSans-65" transform="translate(326.269531 0)"/>
     <use xlink:href="#DejaVuSans-6d" transform="translate(387.792969 0)"/>
     <use xlink:href="#DejaVuSans-70" transform="translate(485.205078 0)"/>
     <use xlink:href="#DejaVuSans-6c" transform="translate(548.681641 0)"/>
     <use xlink:href="#DejaVuSans-61" transform="translate(576.464844 0)"/>
     <use xlink:href="#DejaVuSans-74" transform="translate(637.744141 0)"/>
     <use xlink:href="#DejaVuSans-65" transform="translate(676.953125 0)"/>
    </g>
   </g>
   <g id="text_28">
    <!-- jte -->
    <g style="fill: #d62728" transform="translate(390.9225 45.257392) scale(0.08 -0.08)">
     <use xlink:href="#DejaVuSans-6a"/>
     <use xlink:href="#DejaVuSans-74" transform="translate(27.783203 0)"/>
     <use xlink:href="#DejaVuSans-65" transform="translate(66.992188 0)"/>
    </g>
   </g>
  </g>
 </g>
 <defs>
  <clipPath id="p2babde278b">
   <rect x="50.565625" y="10.8" width="334.356875" height="293.64375"/>
  </clipPath>
 </defs>
</svg>
