<?xml version="1.0" encoding="utf-8" standalone="no"?>
<!DOCTYPE svg PUBLIC "-//W3C//DTD SVG 1.1//EN"
  "http://www.w3.org/Graphics/SVG/1.1/DTD/svg11.dtd">
<svg xmlns:xlink="http://www.w3.org/1999/xlink" width="460.8pt" height="345.6pt" viewBox="0 0 460.8 345.6" xmlns="http://www.w3.org/2000/svg" version="1.1">
 <metadata>
  <rdf:RDF xmlns:dc="http://purl.org/dc/elements/1.1/" xmlns:cc="http://creativecommons.org/ns#" xmlns:rdf="http://www.w3.org/1999/02/22-rdf-syntax-ns#">
   <cc:Work>
    <dc:type rdf:resource="http://purl.org/dc/dcmitype/StillImage"/>
    <dc:date>2025-04-13T17:19:50.047599</dc:date>
    <dc:format>image/svg+xml</dc:format>
    <dc:creator>
     <cc:Agent>
      <dc:title>Matplotlib v3.10.1, https://matplotlib.org/</dc:title>
     </cc:Agent>
    </dc:creator>
   </cc:Work>
  </rdf:RDF>
 </metadata>
 <defs>
  <style type="text/css">*{stroke-linejoin: round; stroke-linecap: butt}</style>
 </defs>
 <g id="figure_1">
  <g id="patch_1">
   <path d="M 0 345.6 
L 460.8 345.6 
L 460.8 0 
L 0 0 
z
" style="fill: #ffffff"/>
  </g>
  <g id="axes_1">
   <g id="patch_2">
    <path d="M 50.565625 304.44375 
L 384.9225 304.44375 
L 384.9225 10.8 
L 50.565625 10.8 
z
" style="fill: #ffffff"/>
   </g>
   <g id="matplotlib.axis_1">
    <g id="xtick_1">
     <g id="line2d_1">
      <defs>
       <path id="mea45e236cf" d="M 0 0 
L 0 3.5 
" style="stroke: #000000; stroke-width: 0.8"/>
      </defs>
      <g>
       <use xlink:href="#mea45e236cf" x="65.733266" y="304.44375" style="stroke: #000000; stroke-width: 0.8"/>
      </g>
     </g>
     <g id="text_1">
      <!-- 0 -->
      <g transform="translate(62.552016 319.042187) scale(0.1 -0.1)">
       <defs>
        <path id="DejaVuSans-30" d="M 2034 4250 
Q 1547 4250 1301 3770 
Q 1056 3291 1056 2328 
Q 1056 1369 1301 889 
Q 1547 409 2034 409 
Q 2525 409 2770 889 
Q 3016 1369 3016 2328 
Q 3016 3291 2770 3770 
Q 2525 4250 2034 4250 
z
M 2034 4750 
Q 2819 4750 3233 4129 
Q 3647 3509 3647 2328 
Q 3647 1150 3233 529 
Q 2819 -91 2034 -91 
Q 1250 -91 836 529 
Q 422 1150 422 2328 
Q 422 3509 836 4129 
Q 1250 4750 2034 4750 
z
" transform="scale(0.015625)"/>
       </defs>
       <use xlink:href="#DejaVuSans-30"/>
      </g>
     </g>
    </g>
    <g id="xtick_2">
     <g id="line2d_2">
      <g>
       <use xlink:href="#mea45e236cf" x="126.531505" y="304.44375" style="stroke: #000000; stroke-width: 0.8"/>
      </g>
     </g>
     <g id="text_2">
      <!-- 2000 -->
      <g transform="translate(113.806505 319.042187) scale(0.1 -0.1)">
       <defs>
        <path id="DejaVuSans-32" d="M 1228 531 
L 3431 531 
L 3431 0 
L 469 0 
L 469 531 
Q 828 903 1448 1529 
Q 2069 2156 2228 2338 
Q 2531 2678 2651 2914 
Q 2772 3150 2772 3378 
Q 2772 3750 2511 3984 
Q 2250 4219 1831 4219 
Q 1534 4219 1204 4116 
Q 875 4013 500 3803 
L 500 4441 
Q 881 4594 1212 4672 
Q 1544 4750 1819 4750 
Q 2544 4750 2975 4387 
Q 3406 4025 3406 3419 
Q 3406 3131 3298 2873 
Q 3191 2616 2906 2266 
Q 2828 2175 2409 1742 
Q 1991 1309 1228 531 
z
" transform="scale(0.015625)"/>
       </defs>
       <use xlink:href="#DejaVuSans-32"/>
       <use xlink:href="#DejaVuSans-30" transform="translate(63.623047 0)"/>
       <use xlink:href="#DejaVuSans-30" transform="translate(127.246094 0)"/>
       <use xlink:href="#DejaVuSans-30" transform="translate(190.869141 0)"/>
      </g>
     </g>
    </g>
    <g id="xtick_3">
     <g id="line2d_3">
      <g>
       <use xlink:href="#mea45e236cf" x="187.329743" y="304.44375" style="stroke: #000000; stroke-width: 0.8"/>
      </g>
     </g>
     <g id="text_3">
      <!-- 4000 -->
      <g transform="translate(174.604743 319.042187) scale(0.1 -0.1)">
       <defs>
        <path id="DejaVuSans-34" d="M 2419 4116 
L 825 1625 
L 2419 1625 
L 2419 4116 
z
M 2253 4666 
L 3047 4666 
L 3047 1625 
L 3713 1625 
L 3713 1100 
L 3047 1100 
L 3047 0 
L 2419 0 
L 2419 1100 
L 313 1100 
L 313 1709 
L 2253 4666 
z
" transform="scale(0.015625)"/>
       </defs>
       <use xlink:href="#DejaVuSans-34"/>
       <use xlink:href="#DejaVuSans-30" transform="translate(63.623047 0)"/>
       <use xlink:href="#DejaVuSans-30" transform="translate(127.246094 0)"/>
       <use xlink:href="#DejaVuSans-30" transform="translate(190.869141 0)"/>
      </g>
     </g>
    </g>
    <g id="xtick_4">
     <g id="line2d_4">
      <g>
       <use xlink:href="#mea45e236cf" x="248.127982" y="304.44375" style="stroke: #000000; stroke-width: 0.8"/>
      </g>
     </g>
     <g id="text_4">
      <!-- 6000 -->
      <g transform="translate(235.402982 319.042187) scale(0.1 -0.1)">
       <defs>
        <path id="DejaVuSans-36" d="M 2113 2584 
Q 1688 2584 1439 2293 
Q 1191 2003 1191 1497 
Q 1191 994 1439 701 
Q 1688 409 2113 409 
Q 2538 409 2786 701 
Q 3034 994 3034 1497 
Q 3034 2003 2786 2293 
Q 2538 2584 2113 2584 
z
M 3366 4563 
L 3366 3988 
Q 3128 4100 2886 4159 
Q 2644 4219 2406 4219 
Q 1781 4219 1451 3797 
Q 1122 3375 1075 2522 
Q 1259 2794 1537 2939 
Q 1816 3084 2150 3084 
Q 2853 3084 3261 2657 
Q 3669 2231 3669 1497 
Q 3669 778 3244 343 
Q 2819 -91 2113 -91 
Q 1303 -91 875 529 
Q 447 1150 447 2328 
Q 447 3434 972 4092 
Q 1497 4750 2381 4750 
Q 2619 4750 2861 4703 
Q 3103 4656 3366 4563 
z
" transform="scale(0.015625)"/>
       </defs>
       <use xlink:href="#DejaVuSans-36"/>
       <use xlink:href="#DejaVuSans-30" transform="translate(63.623047 0)"/>
       <use xlink:href="#DejaVuSans-30" transform="translate(127.246094 0)"/>
       <use xlink:href="#DejaVuSans-30" transform="translate(190.869141 0)"/>
      </g>
     </g>
    </g>
    <g id="xtick_5">
     <g id="line2d_5">
      <g>
       <use xlink:href="#mea45e236cf" x="308.926221" y="304.44375" style="stroke: #000000; stroke-width: 0.8"/>
      </g>
     </g>
     <g id="text_5">
      <!-- 8000 -->
      <g transform="translate(296.201221 319.042187) scale(0.1 -0.1)">
       <defs>
        <path id="DejaVuSans-38" d="M 2034 2216 
Q 1584 2216 1326 1975 
Q 1069 1734 1069 1313 
Q 1069 891 1326 650 
Q 1584 409 2034 409 
Q 2484 409 2743 651 
Q 3003 894 3003 1313 
Q 3003 1734 2745 1975 
Q 2488 2216 2034 2216 
z
M 1403 2484 
Q 997 2584 770 2862 
Q 544 3141 544 3541 
Q 544 4100 942 4425 
Q 1341 4750 2034 4750 
Q 2731 4750 3128 4425 
Q 3525 4100 3525 3541 
Q 3525 3141 3298 2862 
Q 3072 2584 2669 2484 
Q 3125 2378 3379 2068 
Q 3634 1759 3634 1313 
Q 3634 634 3220 271 
Q 2806 -91 2034 -91 
Q 1263 -91 848 271 
Q 434 634 434 1313 
Q 434 1759 690 2068 
Q 947 2378 1403 2484 
z
M 1172 3481 
Q 1172 3119 1398 2916 
Q 1625 2713 2034 2713 
Q 2441 2713 2670 2916 
Q 2900 3119 2900 3481 
Q 2900 3844 2670 4047 
Q 2441 4250 2034 4250 
Q 1625 4250 1398 4047 
Q 1172 3844 1172 3481 
z
" transform="scale(0.015625)"/>
       </defs>
       <use xlink:href="#DejaVuSans-38"/>
       <use xlink:href="#DejaVuSans-30" transform="translate(63.623047 0)"/>
       <use xlink:href="#DejaVuSans-30" transform="translate(127.246094 0)"/>
       <use xlink:href="#DejaVuSans-30" transform="translate(190.869141 0)"/>
      </g>
     </g>
    </g>
    <g id="xtick_6">
     <g id="line2d_6">
      <g>
       <use xlink:href="#mea45e236cf" x="369.72446" y="304.44375" style="stroke: #000000; stroke-width: 0.8"/>
      </g>
     </g>
     <g id="text_6">
      <!-- 10000 -->
      <g transform="translate(353.81821 319.042187) scale(0.1 -0.1)">
       <defs>
        <path id="DejaVuSans-31" d="M 794 531 
L 1825 531 
L 1825 4091 
L 703 3866 
L 703 4441 
L 1819 4666 
L 2450 4666 
L 2450 531 
L 3481 531 
L 3481 0 
L 794 0 
L 794 531 
z
" transform="scale(0.015625)"/>
       </defs>
       <use xlink:href="#DejaVuSans-31"/>
       <use xlink:href="#DejaVuSans-30" transform="translate(63.623047 0)"/>
       <use xlink:href="#DejaVuSans-30" transform="translate(127.246094 0)"/>
       <use xlink:href="#DejaVuSans-30" transform="translate(190.869141 0)"/>
       <use xlink:href="#DejaVuSans-30" transform="translate(254.492188 0)"/>
      </g>
     </g>
    </g>
    <g id="text_7">
     <!-- n runs -->
     <g transform="translate(201.988594 332.720312) scale(0.1 -0.1)">
      <defs>
       <path id="DejaVuSans-6e" d="M 3513 2113 
L 3513 0 
L 2938 0 
L 2938 2094 
Q 2938 2591 2744 2837 
Q 2550 3084 2163 3084 
Q 1697 3084 1428 2787 
Q 1159 2491 1159 1978 
L 1159 0 
L 581 0 
L 581 3500 
L 1159 3500 
L 1159 2956 
Q 1366 3272 1645 3428 
Q 1925 3584 2291 3584 
Q 2894 3584 3203 3211 
Q 3513 2838 3513 2113 
z
" transform="scale(0.015625)"/>
       <path id="DejaVuSans-20" transform="scale(0.015625)"/>
       <path id="DejaVuSans-72" d="M 2631 2963 
Q 2534 3019 2420 3045 
Q 2306 3072 2169 3072 
Q 1681 3072 1420 2755 
Q 1159 2438 1159 1844 
L 1159 0 
L 581 0 
L 581 3500 
L 1159 3500 
L 1159 2956 
Q 1341 3275 1631 3429 
Q 1922 3584 2338 3584 
Q 2397 3584 2469 3576 
Q 2541 3569 2628 3553 
L 2631 2963 
z
" transform="scale(0.015625)"/>
       <path id="DejaVuSans-75" d="M 544 1381 
L 544 3500 
L 1119 3500 
L 1119 1403 
Q 1119 906 1312 657 
Q 1506 409 1894 409 
Q 2359 409 2629 706 
Q 2900 1003 2900 1516 
L 2900 3500 
L 3475 3500 
L 3475 0 
L 2900 0 
L 2900 538 
Q 2691 219 2414 64 
Q 2138 -91 1772 -91 
Q 1169 -91 856 284 
Q 544 659 544 1381 
z
M 1991 3584 
L 1991 3584 
z
" transform="scale(0.015625)"/>
       <path id="DejaVuSans-73" d="M 2834 3397 
L 2834 2853 
Q 2591 2978 2328 3040 
Q 2066 3103 1784 3103 
Q 1356 3103 1142 2972 
Q 928 2841 928 2578 
Q 928 2378 1081 2264 
Q 1234 2150 1697 2047 
L 1894 2003 
Q 2506 1872 2764 1633 
Q 3022 1394 3022 966 
Q 3022 478 2636 193 
Q 2250 -91 1575 -91 
Q 1294 -91 989 -36 
Q 684 19 347 128 
L 347 722 
Q 666 556 975 473 
Q 1284 391 1588 391 
Q 1994 391 2212 530 
Q 2431 669 2431 922 
Q 2431 1156 2273 1281 
Q 2116 1406 1581 1522 
L 1381 1569 
Q 847 1681 609 1914 
Q 372 2147 372 2553 
Q 372 3047 722 3315 
Q 1072 3584 1716 3584 
Q 2034 3584 2315 3537 
Q 2597 3491 2834 3397 
z
" transform="scale(0.015625)"/>
      </defs>
      <use xlink:href="#DejaVuSans-6e"/>
      <use xlink:href="#DejaVuSans-20" transform="translate(63.378906 0)"/>
      <use xlink:href="#DejaVuSans-72" transform="translate(95.166016 0)"/>
      <use xlink:href="#DejaVuSans-75" transform="translate(136.279297 0)"/>
      <use xlink:href="#DejaVuSans-6e" transform="translate(199.658203 0)"/>
      <use xlink:href="#DejaVuSans-73" transform="translate(263.037109 0)"/>
     </g>
    </g>
   </g>
   <g id="matplotlib.axis_2">
    <g id="ytick_1">
     <g id="line2d_7">
      <defs>
       <path id="mafa378e9ad" d="M 0 0 
L -3.5 0 
" style="stroke: #000000; stroke-width: 0.8"/>
      </defs>
      <g>
       <use xlink:href="#mafa378e9ad" x="50.565625" y="291.096307" style="stroke: #000000; stroke-width: 0.8"/>
      </g>
     </g>
     <g id="text_8">
      <!-- 0 -->
      <g transform="translate(37.203125 294.895526) scale(0.1 -0.1)">
       <use xlink:href="#DejaVuSans-30"/>
      </g>
     </g>
    </g>
    <g id="ytick_2">
     <g id="line2d_8">
      <g>
       <use xlink:href="#mafa378e9ad" x="50.565625" y="247.760452" style="stroke: #000000; stroke-width: 0.8"/>
      </g>
     </g>
     <g id="text_9">
      <!-- 100 -->
      <g transform="translate(24.478125 251.559671) scale(0.1 -0.1)">
       <use xlink:href="#DejaVuSans-31"/>
       <use xlink:href="#DejaVuSans-30" transform="translate(63.623047 0)"/>
       <use xlink:href="#DejaVuSans-30" transform="translate(127.246094 0)"/>
      </g>
     </g>
    </g>
    <g id="ytick_3">
     <g id="line2d_9">
      <g>
       <use xlink:href="#mafa378e9ad" x="50.565625" y="204.424598" style="stroke: #000000; stroke-width: 0.8"/>
      </g>
     </g>
     <g id="text_10">
      <!-- 200 -->
      <g transform="translate(24.478125 208.223817) scale(0.1 -0.1)">
       <use xlink:href="#DejaVuSans-32"/>
       <use xlink:href="#DejaVuSans-30" transform="translate(63.623047 0)"/>
       <use xlink:href="#DejaVuSans-30" transform="translate(127.246094 0)"/>
      </g>
     </g>
    </g>
    <g id="ytick_4">
     <g id="line2d_10">
      <g>
       <use xlink:href="#mafa378e9ad" x="50.565625" y="161.088743" style="stroke: #000000; stroke-width: 0.8"/>
      </g>
     </g>
     <g id="text_11">
      <!-- 300 -->
      <g transform="translate(24.478125 164.887962) scale(0.1 -0.1)">
       <defs>
        <path id="DejaVuSans-33" d="M 2597 2516 
Q 3050 2419 3304 2112 
Q 3559 1806 3559 1356 
Q 3559 666 3084 287 
Q 2609 -91 1734 -91 
Q 1441 -91 1130 -33 
Q 819 25 488 141 
L 488 750 
Q 750 597 1062 519 
Q 1375 441 1716 441 
Q 2309 441 2620 675 
Q 2931 909 2931 1356 
Q 2931 1769 2642 2001 
Q 2353 2234 1838 2234 
L 1294 2234 
L 1294 2753 
L 1863 2753 
Q 2328 2753 2575 2939 
Q 2822 3125 2822 3475 
Q 2822 3834 2567 4026 
Q 2313 4219 1838 4219 
Q 1578 4219 1281 4162 
Q 984 4106 628 3988 
L 628 4550 
Q 988 4650 1302 4700 
Q 1616 4750 1894 4750 
Q 2613 4750 3031 4423 
Q 3450 4097 3450 3541 
Q 3450 3153 3228 2886 
Q 3006 2619 2597 2516 
z
" transform="scale(0.015625)"/>
       </defs>
       <use xlink:href="#DejaVuSans-33"/>
       <use xlink:href="#DejaVuSans-30" transform="translate(63.623047 0)"/>
       <use xlink:href="#DejaVuSans-30" transform="translate(127.246094 0)"/>
      </g>
     </g>
    </g>
    <g id="ytick_5">
     <g id="line2d_11">
      <g>
       <use xlink:href="#mafa378e9ad" x="50.565625" y="117.752889" style="stroke: #000000; stroke-width: 0.8"/>
      </g>
     </g>
     <g id="text_12">
      <!-- 400 -->
      <g transform="translate(24.478125 121.552108) scale(0.1 -0.1)">
       <use xlink:href="#DejaVuSans-34"/>
       <use xlink:href="#DejaVuSans-30" transform="translate(63.623047 0)"/>
       <use xlink:href="#DejaVuSans-30" transform="translate(127.246094 0)"/>
      </g>
     </g>
    </g>
    <g id="ytick_6">
     <g id="line2d_12">
      <g>
       <use xlink:href="#mafa378e9ad" x="50.565625" y="74.417034" style="stroke: #000000; stroke-width: 0.8"/>
      </g>
     </g>
     <g id="text_13">
      <!-- 500 -->
      <g transform="translate(24.478125 78.216253) scale(0.1 -0.1)">
       <defs>
        <path id="DejaVuSans-35" d="M 691 4666 
L 3169 4666 
L 3169 4134 
L 1269 4134 
L 1269 2991 
Q 1406 3038 1543 3061 
Q 1681 3084 1819 3084 
Q 2600 3084 3056 2656 
Q 3513 2228 3513 1497 
Q 3513 744 3044 326 
Q 2575 -91 1722 -91 
Q 1428 -91 1123 -41 
Q 819 9 494 109 
L 494 744 
Q 775 591 1075 516 
Q 1375 441 1709 441 
Q 2250 441 2565 725 
Q 2881 1009 2881 1497 
Q 2881 1984 2565 2268 
Q 2250 2553 1709 2553 
Q 1456 2553 1204 2497 
Q 953 2441 691 2322 
L 691 4666 
z
" transform="scale(0.015625)"/>
       </defs>
       <use xlink:href="#DejaVuSans-35"/>
       <use xlink:href="#DejaVuSans-30" transform="translate(63.623047 0)"/>
       <use xlink:href="#DejaVuSans-30" transform="translate(127.246094 0)"/>
      </g>
     </g>
    </g>
    <g id="ytick_7">
     <g id="line2d_13">
      <g>
       <use xlink:href="#mafa378e9ad" x="50.565625" y="31.08118" style="stroke: #000000; stroke-width: 0.8"/>
      </g>
     </g>
     <g id="text_14">
      <!-- 600 -->
      <g transform="translate(24.478125 34.880399) scale(0.1 -0.1)">
       <use xlink:href="#DejaVuSans-36"/>
       <use xlink:href="#DejaVuSans-30" transform="translate(63.623047 0)"/>
       <use xlink:href="#DejaVuSans-30" transform="translate(127.246094 0)"/>
      </g>
     </g>
    </g>
    <g id="text_15">
     <!-- time (ms) -->
     <g transform="translate(18.398438 181.883594) rotate(-90) scale(0.1 -0.1)">
      <defs>
       <path id="DejaVuSans-74" d="M 1172 4494 
L 1172 3500 
L 2356 3500 
L 2356 3053 
L 1172 3053 
L 1172 1153 
Q 1172 725 1289 603 
Q 1406 481 1766 481 
L 2356 481 
L 2356 0 
L 1766 0 
Q 1100 0 847 248 
Q 594 497 594 1153 
L 594 3053 
L 172 3053 
L 172 3500 
L 594 3500 
L 594 4494 
L 1172 4494 
z
" transform="scale(0.015625)"/>
       <path id="DejaVuSans-69" d="M 603 3500 
L 1178 3500 
L 1178 0 
L 603 0 
L 603 3500 
z
M 603 4863 
L 1178 4863 
L 1178 4134 
L 603 4134 
L 603 4863 
z
" transform="scale(0.015625)"/>
       <path id="DejaVuSans-6d" d="M 3328 2828 
Q 3544 3216 3844 3400 
Q 4144 3584 4550 3584 
Q 5097 3584 5394 3201 
Q 5691 2819 5691 2113 
L 5691 0 
L 5113 0 
L 5113 2094 
Q 5113 2597 4934 2840 
Q 4756 3084 4391 3084 
Q 3944 3084 3684 2787 
Q 3425 2491 3425 1978 
L 3425 0 
L 2847 0 
L 2847 2094 
Q 2847 2600 2669 2842 
Q 2491 3084 2119 3084 
Q 1678 3084 1418 2786 
Q 1159 2488 1159 1978 
L 1159 0 
L 581 0 
L 581 3500 
L 1159 3500 
L 1159 2956 
Q 1356 3278 1631 3431 
Q 1906 3584 2284 3584 
Q 2666 3584 2933 3390 
Q 3200 3197 3328 2828 
z
" transform="scale(0.015625)"/>
       <path id="DejaVuSans-65" d="M 3597 1894 
L 3597 1613 
L 953 1613 
Q 991 1019 1311 708 
Q 1631 397 2203 397 
Q 2534 397 2845 478 
Q 3156 559 3463 722 
L 3463 178 
Q 3153 47 2828 -22 
Q 2503 -91 2169 -91 
Q 1331 -91 842 396 
Q 353 884 353 1716 
Q 353 2575 817 3079 
Q 1281 3584 2069 3584 
Q 2775 3584 3186 3129 
Q 3597 2675 3597 1894 
z
M 3022 2063 
Q 3016 2534 2758 2815 
Q 2500 3097 2075 3097 
Q 1594 3097 1305 2825 
Q 1016 2553 972 2059 
L 3022 2063 
z
" transform="scale(0.015625)"/>
       <path id="DejaVuSans-28" d="M 1984 4856 
Q 1566 4138 1362 3434 
Q 1159 2731 1159 2009 
Q 1159 1288 1364 580 
Q 1569 -128 1984 -844 
L 1484 -844 
Q 1016 -109 783 600 
Q 550 1309 550 2009 
Q 550 2706 781 3412 
Q 1013 4119 1484 4856 
L 1984 4856 
z
" transform="scale(0.015625)"/>
       <path id="DejaVuSans-29" d="M 513 4856 
L 1013 4856 
Q 1481 4119 1714 3412 
Q 1947 2706 1947 2009 
Q 1947 1309 1714 600 
Q 1481 -109 1013 -844 
L 513 -844 
Q 928 -128 1133 580 
Q 1338 1288 1338 2009 
Q 1338 2731 1133 3434 
Q 928 4138 513 4856 
z
" transform="scale(0.015625)"/>
      </defs>
      <use xlink:href="#DejaVuSans-74"/>
      <use xlink:href="#DejaVuSans-69" transform="translate(39.208984 0)"/>
      <use xlink:href="#DejaVuSans-6d" transform="translate(66.992188 0)"/>
      <use xlink:href="#DejaVuSans-65" transform="translate(164.404297 0)"/>
      <use xlink:href="#DejaVuSans-20" transform="translate(225.927734 0)"/>
      <use xlink:href="#DejaVuSans-28" transform="translate(257.714844 0)"/>
      <use xlink:href="#DejaVuSans-6d" transform="translate(296.728516 0)"/>
      <use xlink:href="#DejaVuSans-73" transform="translate(394.140625 0)"/>
      <use xlink:href="#DejaVuSans-29" transform="translate(446.240234 0)"/>
     </g>
    </g>
   </g>
   <g id="line2d_14">
    <path d="M 65.763665 271.161814 
L 66.037257 272.028531 
L 66.341248 271.595172 
L 66.645239 271.595172 
L 66.94923 270.728455 
L 67.253222 271.161814 
L 67.557213 270.728455 
L 67.861204 270.728455 
L 68.165195 270.295097 
L 68.469186 270.295097 
L 68.773178 270.295097 
L 71.81309 268.128304 
L 74.853001 266.828228 
L 77.892913 265.094794 
L 80.932825 264.228077 
L 83.972737 262.061284 
L 87.012649 261.627926 
L 90.052561 260.761209 
L 93.092473 260.32785 
L 96.132385 258.594416 
L 99.172297 259.027774 
L 102.212209 257.29434 
L 105.252121 255.994265 
L 108.292033 255.994265 
L 111.331945 255.127548 
L 114.371857 254.694189 
L 117.411769 254.260831 
L 120.451681 254.260831 
L 123.491593 253.394113 
L 126.531505 252.527396 
L 129.571417 252.527396 
L 132.611328 249.493887 
L 135.65124 249.927245 
L 138.691152 249.927245 
L 141.731064 249.060528 
L 144.770976 249.060528 
L 147.810888 247.327094 
L 150.8508 248.193811 
L 153.890712 246.460377 
L 156.930624 246.460377 
L 159.970536 246.460377 
L 163.010448 247.327094 
L 166.05036 241.693433 
L 169.090272 246.027018 
L 172.130184 246.027018 
L 175.170096 245.59366 
L 178.210008 245.59366 
L 181.24992 245.160301 
L 184.289832 245.160301 
L 187.329743 245.160301 
L 190.369655 245.59366 
L 193.409567 244.726943 
L 196.449479 244.726943 
L 199.489391 244.726943 
L 202.529303 243.860225 
L 205.569215 243.860225 
L 208.609127 244.726943 
L 211.649039 243.426867 
L 214.688951 243.860225 
L 217.728863 243.860225 
L 220.768775 244.293584 
L 223.808687 242.56015 
L 226.848599 243.860225 
L 229.888511 242.56015 
L 232.928423 243.426867 
L 235.968335 242.126791 
L 239.008247 242.993508 
L 242.048159 242.56015 
L 245.08807 242.56015 
L 248.127982 242.126791 
L 251.167894 242.126791 
L 254.207806 241.260074 
L 257.247718 242.126791 
L 260.28763 242.126791 
L 263.327542 242.126791 
L 266.367454 241.693433 
L 269.407366 240.393357 
L 272.447278 242.126791 
L 275.48719 242.126791 
L 278.527102 241.260074 
L 281.567014 241.260074 
L 284.606926 241.260074 
L 287.646838 239.959999 
L 290.68675 240.826716 
L 293.726662 240.393357 
L 296.766574 240.826716 
L 299.806485 238.659923 
L 302.846397 239.52664 
L 305.886309 240.393357 
L 308.926221 238.226564 
L 311.966133 239.093281 
L 315.006045 239.52664 
L 318.045957 239.52664 
L 321.085869 239.52664 
L 324.125781 238.659923 
L 327.165693 236.49313 
L 330.205605 238.226564 
L 333.245517 239.093281 
L 336.285429 239.093281 
L 339.325341 238.226564 
L 342.365253 238.226564 
L 345.405165 237.359847 
L 348.445077 238.226564 
L 351.484989 237.793206 
L 354.5249 238.659923 
L 357.564812 236.059772 
L 360.604724 238.226564 
L 363.644636 237.793206 
L 366.684548 236.926489 
L 369.72446 235.626413 
" clip-path="url(#p25ac89cad5)" style="fill: none; stroke: #1f77b4; stroke-width: 1.5; stroke-linecap: square"/>
   </g>
   <g id="line2d_15">
    <path d="M 65.763665 288.929514 
L 66.037257 288.929514 
L 66.341248 288.496156 
L 66.645239 288.496156 
L 66.94923 288.496156 
L 67.253222 288.496156 
L 67.557213 288.496156 
L 67.861204 288.496156 
L 68.165195 288.062797 
L 68.469186 288.062797 
L 68.773178 288.062797 
L 71.81309 287.19608 
L 74.853001 286.762721 
L 77.892913 286.329363 
L 80.932825 285.896004 
L 83.972737 285.029287 
L 87.012649 284.595929 
L 90.052561 284.16257 
L 93.092473 283.729212 
L 96.132385 283.729212 
L 99.172297 283.295853 
L 102.212209 281.12906 
L 105.252121 280.695702 
L 108.292033 281.12906 
L 111.331945 280.695702 
L 114.371857 280.262343 
L 117.411769 280.695702 
L 120.451681 280.695702 
L 123.491593 280.695702 
L 126.531505 280.262343 
L 129.571417 280.262343 
L 132.611328 280.262343 
L 135.65124 280.262343 
L 138.691152 279.828985 
L 141.731064 279.828985 
L 144.770976 279.828985 
L 147.810888 279.395626 
L 150.8508 279.828985 
L 153.890712 278.528909 
L 156.930624 279.395626 
L 159.970536 278.09555 
L 163.010448 278.962268 
L 166.05036 279.395626 
L 169.090272 278.962268 
L 172.130184 278.962268 
L 175.170096 278.962268 
L 178.210008 278.962268 
L 181.24992 278.962268 
L 184.289832 278.09555 
L 187.329743 278.528909 
L 190.369655 277.662192 
L 193.409567 277.662192 
L 196.449479 278.09555 
L 199.489391 278.09555 
L 202.529303 278.09555 
L 205.569215 278.09555 
L 208.609127 277.228833 
L 211.649039 277.228833 
L 214.688951 277.228833 
L 217.728863 277.228833 
L 220.768775 276.795475 
L 223.808687 277.228833 
L 226.848599 276.795475 
L 229.888511 274.628682 
L 232.928423 277.228833 
L 235.968335 276.795475 
L 239.008247 275.495399 
L 242.048159 275.495399 
L 245.08807 275.062041 
L 248.127982 274.195324 
L 251.167894 274.195324 
L 254.207806 275.062041 
L 257.247718 274.195324 
L 260.28763 273.761965 
L 263.327542 274.628682 
L 266.367454 274.195324 
L 269.407366 274.628682 
L 272.447278 274.195324 
L 275.48719 274.628682 
L 278.527102 274.195324 
L 281.567014 274.195324 
L 284.606926 273.328606 
L 287.646838 274.195324 
L 290.68675 272.895248 
L 293.726662 272.461889 
L 296.766574 273.761965 
L 299.806485 272.895248 
L 302.846397 273.328606 
L 305.886309 272.895248 
L 308.926221 273.328606 
L 311.966133 272.028531 
L 315.006045 272.461889 
L 318.045957 272.028531 
L 321.085869 272.895248 
L 324.125781 272.028531 
L 327.165693 272.028531 
L 330.205605 272.895248 
L 333.245517 272.895248 
L 336.285429 272.028531 
L 339.325341 272.461889 
L 342.365253 271.595172 
L 345.405165 272.461889 
L 348.445077 272.461889 
L 351.484989 272.028531 
L 354.5249 272.028531 
L 357.564812 272.028531 
L 360.604724 271.595172 
L 363.644636 268.995021 
L 366.684548 272.028531 
L 369.72446 271.161814 
" clip-path="url(#p25ac89cad5)" style="fill: none; stroke: #ff7f0e; stroke-width: 1.5; stroke-linecap: square"/>
   </g>
   <g id="line2d_16">
    <path d="M 65.763665 285.029287 
L 66.037257 284.595929 
L 66.341248 284.16257 
L 66.645239 284.16257 
L 66.94923 283.729212 
L 67.253222 283.295853 
L 67.557213 283.295853 
L 67.861204 282.862494 
L 68.165195 282.862494 
L 68.469186 282.429136 
L 68.773178 281.995777 
L 71.81309 279.395626 
L 74.853001 277.228833 
L 77.892913 275.495399 
L 80.932825 274.195324 
L 83.972737 272.461889 
L 87.012649 270.728455 
L 90.052561 269.861738 
L 93.092473 268.561662 
L 96.132385 266.828228 
L 99.172297 266.39487 
L 102.212209 264.661436 
L 105.252121 264.228077 
L 108.292033 262.928001 
L 111.331945 262.061284 
L 114.371857 261.194567 
L 117.411769 260.32785 
L 120.451681 259.894492 
L 123.491593 259.461133 
L 126.531505 258.161057 
L 129.571417 256.860982 
L 132.611328 255.994265 
L 135.65124 255.560906 
L 138.691152 254.694189 
L 141.731064 254.260831 
L 144.770976 253.394113 
L 147.810888 252.960755 
L 150.8508 251.227321 
L 153.890712 249.927245 
L 156.930624 249.927245 
L 159.970536 248.627169 
L 163.010448 248.627169 
L 166.05036 247.760452 
L 169.090272 246.460377 
L 172.130184 246.893735 
L 175.170096 245.160301 
L 178.210008 244.726943 
L 181.24992 243.860225 
L 184.289832 242.56015 
L 187.329743 242.56015 
L 190.369655 241.260074 
L 193.409567 241.260074 
L 196.449479 240.826716 
L 199.489391 239.093281 
L 202.529303 239.093281 
L 205.569215 238.226564 
L 208.609127 236.059772 
L 211.649039 236.926489 
L 214.688951 235.626413 
L 217.728863 235.193055 
L 220.768775 233.45962 
L 223.808687 232.592903 
L 226.848599 232.159545 
L 229.888511 231.726186 
L 232.928423 229.559393 
L 235.968335 228.692676 
L 239.008247 227.392601 
L 242.048159 227.392601 
L 245.08807 226.959242 
L 248.127982 225.225808 
L 251.167894 225.225808 
L 254.207806 224.359091 
L 257.247718 223.492374 
L 260.28763 223.059015 
L 263.327542 222.192298 
L 266.367454 220.458864 
L 269.407366 219.158788 
L 272.447278 220.458864 
L 275.48719 219.158788 
L 278.527102 218.292071 
L 281.567014 216.991996 
L 284.606926 216.125279 
L 287.646838 215.258561 
L 290.68675 215.69192 
L 293.726662 213.525127 
L 296.766574 213.958486 
L 299.806485 213.525127 
L 302.846397 212.65841 
L 305.886309 212.225052 
L 308.926221 210.058259 
L 311.966133 210.058259 
L 315.006045 210.491617 
L 318.045957 208.758183 
L 321.085869 207.458108 
L 324.125781 207.458108 
L 327.165693 206.591391 
L 330.205605 205.724673 
L 333.245517 204.857956 
L 336.285429 204.424598 
L 339.325341 203.991239 
L 342.365253 203.557881 
L 345.405165 202.691164 
L 348.445077 202.691164 
L 351.484989 201.391088 
L 354.5249 199.224295 
L 357.564812 198.790937 
L 360.604724 199.657654 
L 363.644636 196.624144 
L 366.684548 198.357578 
L 369.72446 197.057503 
" clip-path="url(#p25ac89cad5)" style="fill: none; stroke: #2ca02c; stroke-width: 1.5; stroke-linecap: square"/>
   </g>
   <g id="line2d_17">
    <path d="M 65.763665 48.84888 
L 66.037257 52.315749 
L 66.341248 50.148956 
L 66.645239 49.715597 
L 66.94923 48.84888 
L 67.253222 51.015673 
L 67.557213 51.015673 
L 67.861204 48.84888 
L 68.165195 48.415522 
L 68.469186 47.982163 
L 68.773178 51.015673 
L 71.81309 43.648578 
L 74.853001 46.248729 
L 77.892913 44.515295 
L 80.932825 41.481785 
L 83.972737 41.915144 
L 87.012649 41.481785 
L 90.052561 42.781861 
L 93.092473 44.081936 
L 96.132385 44.515295 
L 99.172297 41.915144 
L 102.212209 40.615068 
L 105.252121 38.448275 
L 108.292033 43.648578 
L 111.331945 41.915144 
L 114.371857 41.048426 
L 117.411769 42.781861 
L 120.451681 42.348502 
L 123.491593 41.915144 
L 126.531505 43.648578 
L 129.571417 40.181709 
L 132.611328 39.748351 
L 135.65124 41.048426 
L 138.691152 41.481785 
L 141.731064 34.981407 
L 144.770976 41.481785 
L 147.810888 41.915144 
L 150.8508 41.048426 
L 153.890712 40.181709 
L 156.930624 41.048426 
L 159.970536 38.448275 
L 163.010448 35.848124 
L 166.05036 37.581558 
L 169.090272 38.014917 
L 172.130184 38.881634 
L 175.170096 38.014917 
L 178.210008 39.314992 
L 181.24992 38.448275 
L 184.289832 35.848124 
L 187.329743 39.314992 
L 190.369655 36.714841 
L 193.409567 36.714841 
L 196.449479 37.1482 
L 199.489391 38.448275 
L 202.529303 38.014917 
L 205.569215 36.714841 
L 208.609127 35.848124 
L 211.649039 34.548048 
L 214.688951 38.448275 
L 217.728863 36.714841 
L 220.768775 35.848124 
L 223.808687 35.848124 
L 226.848599 35.848124 
L 229.888511 35.414765 
L 232.928423 34.548048 
L 235.968335 36.714841 
L 239.008247 36.281482 
L 242.048159 32.814614 
L 245.08807 35.848124 
L 248.127982 36.714841 
L 251.167894 33.247973 
L 254.207806 36.281482 
L 257.247718 35.848124 
L 260.28763 34.548048 
L 263.327542 34.11469 
L 266.367454 31.947897 
L 269.407366 35.848124 
L 272.447278 34.548048 
L 275.48719 34.981407 
L 278.527102 35.414765 
L 281.567014 31.08118 
L 284.606926 32.381256 
L 287.646838 32.814614 
L 290.68675 31.947897 
L 293.726662 34.11469 
L 296.766574 32.814614 
L 299.806485 31.947897 
L 302.846397 33.681331 
L 305.886309 35.414765 
L 308.926221 30.214463 
L 311.966133 33.247973 
L 315.006045 33.247973 
L 318.045957 37.1482 
L 321.085869 28.914387 
L 324.125781 31.947897 
L 327.165693 34.11469 
L 330.205605 31.514538 
L 333.245517 30.214463 
L 336.285429 31.514538 
L 339.325341 33.247973 
L 342.365253 34.11469 
L 345.405165 33.247973 
L 348.445077 33.247973 
L 351.484989 33.681331 
L 354.5249 33.247973 
L 357.564812 24.147443 
L 360.604724 31.08118 
L 363.644636 31.947897 
L 366.684548 30.214463 
L 369.72446 29.781104 
" clip-path="url(#p25ac89cad5)" style="fill: none; stroke: #d62728; stroke-width: 1.5; stroke-linecap: square"/>
   </g>
   <g id="line2d_18">
    <path d="M 65.763665 291.096307 
L 66.037257 291.096307 
L 66.341248 291.096307 
L 66.645239 290.662948 
L 66.94923 291.096307 
L 67.253222 290.662948 
L 67.557213 290.662948 
L 67.861204 290.662948 
L 68.165195 290.662948 
L 68.469186 290.662948 
L 68.773178 290.662948 
L 71.81309 289.362873 
L 74.853001 289.796231 
L 77.892913 288.929514 
L 80.932825 288.929514 
L 83.972737 288.062797 
L 87.012649 288.062797 
L 90.052561 287.629438 
L 93.092473 287.19608 
L 96.132385 287.19608 
L 99.172297 287.19608 
L 102.212209 286.762721 
L 105.252121 286.762721 
L 108.292033 286.762721 
L 111.331945 286.762721 
L 114.371857 286.329363 
L 117.411769 286.329363 
L 120.451681 286.329363 
L 123.491593 286.329363 
L 126.531505 286.329363 
L 129.571417 285.896004 
L 132.611328 286.329363 
L 135.65124 286.329363 
L 138.691152 286.329363 
L 141.731064 285.896004 
L 144.770976 286.329363 
L 147.810888 285.896004 
L 150.8508 285.462646 
L 153.890712 285.462646 
L 156.930624 285.462646 
L 159.970536 285.896004 
L 163.010448 285.462646 
L 166.05036 285.462646 
L 169.090272 285.896004 
L 172.130184 285.029287 
L 175.170096 285.029287 
L 178.210008 285.029287 
L 181.24992 285.462646 
L 184.289832 285.462646 
L 187.329743 285.029287 
L 190.369655 285.029287 
L 193.409567 285.029287 
L 196.449479 285.029287 
L 199.489391 285.029287 
L 202.529303 284.595929 
L 205.569215 285.029287 
L 208.609127 285.462646 
L 211.649039 285.029287 
L 214.688951 285.029287 
L 217.728863 284.595929 
L 220.768775 284.595929 
L 223.808687 284.595929 
L 226.848599 285.029287 
L 229.888511 284.16257 
L 232.928423 284.595929 
L 235.968335 284.595929 
L 239.008247 284.16257 
L 242.048159 285.029287 
L 245.08807 284.595929 
L 248.127982 284.595929 
L 251.167894 283.729212 
L 254.207806 284.595929 
L 257.247718 283.729212 
L 260.28763 284.16257 
L 263.327542 284.16257 
L 266.367454 284.595929 
L 269.407366 284.595929 
L 272.447278 284.595929 
L 275.48719 283.729212 
L 278.527102 283.729212 
L 281.567014 284.16257 
L 284.606926 283.295853 
L 287.646838 283.729212 
L 290.68675 283.295853 
L 293.726662 283.729212 
L 296.766574 284.16257 
L 299.806485 283.295853 
L 302.846397 283.729212 
L 305.886309 283.295853 
L 308.926221 283.295853 
L 311.966133 282.862494 
L 315.006045 283.295853 
L 318.045957 283.295853 
L 321.085869 282.862494 
L 324.125781 282.862494 
L 327.165693 283.729212 
L 330.205605 283.295853 
L 333.245517 282.429136 
L 336.285429 283.295853 
L 339.325341 282.862494 
L 342.365253 283.295853 
L 345.405165 282.862494 
L 348.445077 283.295853 
L 351.484989 282.429136 
L 354.5249 282.862494 
L 357.564812 282.429136 
L 360.604724 282.862494 
L 363.644636 282.429136 
L 366.684548 281.995777 
L 369.72446 282.429136 
" clip-path="url(#p25ac89cad5)" style="fill: none; stroke: #9467bd; stroke-width: 1.5; stroke-linecap: square"/>
   </g>
   <g id="line2d_19">
    <path d="M 65.763665 284.16257 
L 66.037257 283.729212 
L 66.341248 283.729212 
L 66.645239 284.16257 
L 66.94923 283.729212 
L 67.253222 283.729212 
L 67.557213 283.295853 
L 67.861204 283.295853 
L 68.165195 283.295853 
L 68.469186 283.295853 
L 68.773178 282.862494 
L 71.81309 281.995777 
L 74.853001 280.695702 
L 77.892913 280.262343 
L 80.932825 279.828985 
L 83.972737 278.962268 
L 87.012649 278.528909 
L 90.052561 278.09555 
L 93.092473 276.795475 
L 96.132385 277.228833 
L 99.172297 276.795475 
L 102.212209 276.362116 
L 105.252121 275.495399 
L 108.292033 275.495399 
L 111.331945 274.628682 
L 114.371857 276.362116 
L 117.411769 275.928758 
L 120.451681 275.062041 
L 123.491593 275.495399 
L 126.531505 275.062041 
L 129.571417 275.495399 
L 132.611328 275.062041 
L 135.65124 275.062041 
L 138.691152 275.062041 
L 141.731064 274.628682 
L 144.770976 274.628682 
L 147.810888 275.062041 
L 150.8508 275.062041 
L 153.890712 274.628682 
L 156.930624 274.628682 
L 159.970536 274.195324 
L 163.010448 274.195324 
L 166.05036 274.195324 
L 169.090272 274.628682 
L 172.130184 274.195324 
L 175.170096 273.761965 
L 178.210008 274.195324 
L 181.24992 273.761965 
L 184.289832 273.328606 
L 187.329743 273.761965 
L 190.369655 273.761965 
L 193.409567 272.895248 
L 196.449479 273.328606 
L 199.489391 273.761965 
L 202.529303 273.328606 
L 205.569215 273.761965 
L 208.609127 273.328606 
L 211.649039 272.895248 
L 214.688951 272.895248 
L 217.728863 272.028531 
L 220.768775 273.328606 
L 223.808687 272.895248 
L 226.848599 272.461889 
L 229.888511 272.461889 
L 232.928423 272.461889 
L 235.968335 272.895248 
L 239.008247 272.461889 
L 242.048159 272.461889 
L 245.08807 271.595172 
L 248.127982 271.595172 
L 251.167894 272.028531 
L 254.207806 272.028531 
L 257.247718 272.028531 
L 260.28763 272.028531 
L 263.327542 271.595172 
L 266.367454 272.028531 
L 269.407366 271.595172 
L 272.447278 271.595172 
L 275.48719 271.161814 
L 278.527102 270.728455 
L 281.567014 271.595172 
L 284.606926 270.295097 
L 287.646838 269.861738 
L 290.68675 270.295097 
L 293.726662 269.42838 
L 296.766574 269.42838 
L 299.806485 269.861738 
L 302.846397 268.995021 
L 305.886309 268.995021 
L 308.926221 269.42838 
L 311.966133 269.42838 
L 315.006045 268.561662 
L 318.045957 269.42838 
L 321.085869 268.561662 
L 324.125781 268.995021 
L 327.165693 268.995021 
L 330.205605 268.561662 
L 333.245517 268.995021 
L 336.285429 268.128304 
L 339.325341 268.561662 
L 342.365253 268.561662 
L 345.405165 268.561662 
L 348.445077 268.561662 
L 351.484989 268.561662 
L 354.5249 267.261587 
L 357.564812 268.995021 
L 360.604724 267.694945 
L 363.644636 267.694945 
L 366.684548 267.261587 
L 369.72446 267.694945 
" clip-path="url(#p25ac89cad5)" style="fill: none; stroke: #8c564b; stroke-width: 1.5; stroke-linecap: square"/>
   </g>
   <g id="line2d_20">
    <path d="M 65.763665 288.929514 
L 66.037257 288.929514 
L 66.341248 288.496156 
L 66.645239 288.929514 
L 66.94923 288.929514 
L 67.253222 288.496156 
L 67.557213 288.496156 
L 67.861204 288.496156 
L 68.165195 288.496156 
L 68.469186 288.496156 
L 68.773178 288.496156 
L 71.81309 287.629438 
L 74.853001 287.19608 
L 77.892913 287.19608 
L 80.932825 286.329363 
L 83.972737 286.329363 
L 87.012649 285.896004 
L 90.052561 285.462646 
L 93.092473 285.029287 
L 96.132385 285.462646 
L 99.172297 285.029287 
L 102.212209 285.029287 
L 105.252121 285.029287 
L 108.292033 284.595929 
L 111.331945 284.595929 
L 114.371857 284.16257 
L 117.411769 284.595929 
L 120.451681 283.729212 
L 123.491593 284.595929 
L 126.531505 284.16257 
L 129.571417 284.16257 
L 132.611328 284.16257 
L 135.65124 283.729212 
L 138.691152 283.729212 
L 141.731064 283.295853 
L 144.770976 283.729212 
L 147.810888 284.16257 
L 150.8508 283.729212 
L 153.890712 283.729212 
L 156.930624 283.295853 
L 159.970536 283.295853 
L 163.010448 283.295853 
L 166.05036 283.729212 
L 169.090272 283.295853 
L 172.130184 282.862494 
L 175.170096 283.295853 
L 178.210008 283.295853 
L 181.24992 283.295853 
L 184.289832 283.295853 
L 187.329743 283.295853 
L 190.369655 282.862494 
L 193.409567 283.295853 
L 196.449479 283.295853 
L 199.489391 282.862494 
L 202.529303 282.862494 
L 205.569215 282.429136 
L 208.609127 282.862494 
L 211.649039 281.995777 
L 214.688951 282.862494 
L 217.728863 282.862494 
L 220.768775 281.995777 
L 223.808687 282.862494 
L 226.848599 282.862494 
L 229.888511 282.429136 
L 232.928423 281.562419 
L 235.968335 281.995777 
L 239.008247 282.429136 
L 242.048159 281.995777 
L 245.08807 281.995777 
L 248.127982 282.429136 
L 251.167894 281.995777 
L 254.207806 281.995777 
L 257.247718 282.429136 
L 260.28763 281.12906 
L 263.327542 280.695702 
L 266.367454 281.562419 
L 269.407366 281.995777 
L 272.447278 281.562419 
L 275.48719 281.995777 
L 278.527102 281.995777 
L 281.567014 281.995777 
L 284.606926 281.562419 
L 287.646838 281.995777 
L 290.68675 281.995777 
L 293.726662 281.562419 
L 296.766574 281.562419 
L 299.806485 281.562419 
L 302.846397 281.12906 
L 305.886309 281.562419 
L 308.926221 281.562419 
L 311.966133 281.12906 
L 315.006045 281.562419 
L 318.045957 281.562419 
L 321.085869 281.12906 
L 324.125781 281.12906 
L 327.165693 281.12906 
L 330.205605 281.12906 
L 333.245517 281.12906 
L 336.285429 281.12906 
L 339.325341 280.695702 
L 342.365253 280.695702 
L 345.405165 281.12906 
L 348.445077 280.262343 
L 351.484989 280.262343 
L 354.5249 280.262343 
L 357.564812 280.695702 
L 360.604724 280.695702 
L 363.644636 280.695702 
L 366.684548 280.695702 
L 369.72446 280.695702 
" clip-path="url(#p25ac89cad5)" style="fill: none; stroke: #e377c2; stroke-width: 1.5; stroke-linecap: square"/>
   </g>
   <g id="line2d_21">
    <path d="M 65.763665 263.36136 
L 66.037257 262.928001 
L 66.341248 261.194567 
L 66.645239 261.194567 
L 66.94923 260.761209 
L 67.253222 259.894492 
L 67.557213 259.027774 
L 67.861204 258.594416 
L 68.165195 258.594416 
L 68.469186 257.727699 
L 68.773178 257.29434 
L 71.81309 252.094038 
L 74.853001 249.493887 
L 77.892913 246.027018 
L 80.932825 243.426867 
L 83.972737 239.52664 
L 87.012649 238.659923 
L 90.052561 236.926489 
L 93.092473 235.193055 
L 96.132385 233.892979 
L 99.172297 231.726186 
L 102.212209 229.992752 
L 105.252121 227.825959 
L 108.292033 225.659167 
L 111.331945 224.359091 
L 114.371857 223.925732 
L 117.411769 222.625657 
L 120.451681 220.458864 
L 123.491593 221.75894 
L 126.531505 219.158788 
L 129.571417 218.292071 
L 132.611328 218.292071 
L 135.65124 218.292071 
L 138.691152 216.125279 
L 141.731064 216.125279 
L 144.770976 215.258561 
L 147.810888 214.825203 
L 150.8508 215.258561 
L 153.890712 215.69192 
L 156.930624 212.65841 
L 159.970536 214.391844 
L 163.010448 212.65841 
L 166.05036 212.65841 
L 169.090272 210.924976 
L 172.130184 212.225052 
L 175.170096 208.758183 
L 178.210008 210.058259 
L 181.24992 210.491617 
L 184.289832 210.491617 
L 187.329743 208.324825 
L 190.369655 207.891466 
L 193.409567 209.191542 
L 196.449479 207.024749 
L 199.489391 207.458108 
L 202.529303 204.857956 
L 205.569215 207.458108 
L 208.609127 204.857956 
L 211.649039 206.158032 
L 214.688951 203.991239 
L 217.728863 204.857956 
L 220.768775 204.857956 
L 223.808687 203.557881 
L 226.848599 202.257805 
L 229.888511 202.691164 
L 232.928423 201.824447 
L 235.968335 200.091012 
L 239.008247 200.524371 
L 242.048159 201.391088 
L 245.08807 200.091012 
L 248.127982 200.091012 
L 251.167894 198.790937 
L 254.207806 200.091012 
L 257.247718 199.224295 
L 260.28763 198.790937 
L 263.327542 198.790937 
L 266.367454 197.92422 
L 269.407366 197.92422 
L 272.447278 196.624144 
L 275.48719 196.624144 
L 278.527102 194.457351 
L 281.567014 195.757427 
L 284.606926 194.457351 
L 287.646838 194.89071 
L 290.68675 192.723917 
L 293.726662 194.023993 
L 296.766574 194.89071 
L 299.806485 194.457351 
L 302.846397 191.423841 
L 305.886309 193.590634 
L 308.926221 192.290559 
L 311.966133 192.290559 
L 315.006045 192.290559 
L 318.045957 191.8572 
L 321.085869 191.423841 
L 324.125781 190.123766 
L 327.165693 190.123766 
L 330.205605 189.690407 
L 333.245517 191.423841 
L 336.285429 187.956973 
L 339.325341 188.390332 
L 342.365253 189.257049 
L 345.405165 188.82369 
L 348.445077 188.390332 
L 351.484989 187.956973 
L 354.5249 185.79018 
L 357.564812 184.490105 
L 360.604724 185.356822 
L 363.644636 185.79018 
L 366.684548 184.490105 
L 369.72446 180.156519 
" clip-path="url(#p25ac89cad5)" style="fill: none; stroke: #7f7f7f; stroke-width: 1.5; stroke-linecap: square"/>
   </g>
   <g id="line2d_22">
    <path d="M 65.763665 287.629438 
L 66.037257 286.762721 
L 66.341248 286.329363 
L 66.645239 285.896004 
L 66.94923 285.462646 
L 67.253222 284.16257 
L 67.557213 284.16257 
L 67.861204 284.16257 
L 68.165195 283.729212 
L 68.469186 282.862494 
L 68.773178 282.862494 
L 71.81309 280.695702 
L 74.853001 278.962268 
L 77.892913 275.062041 
L 80.932825 274.628682 
L 83.972737 274.195324 
L 87.012649 273.328606 
L 90.052561 271.595172 
L 93.092473 269.861738 
L 96.132385 268.995021 
L 99.172297 268.561662 
L 102.212209 266.828228 
L 105.252121 267.694945 
L 108.292033 266.828228 
L 111.331945 266.39487 
L 114.371857 265.961511 
L 117.411769 265.961511 
L 120.451681 265.094794 
L 123.491593 265.094794 
L 126.531505 265.094794 
L 129.571417 265.528153 
L 132.611328 264.661436 
L 135.65124 263.36136 
L 138.691152 264.228077 
L 141.731064 263.794718 
L 144.770976 262.061284 
L 147.810888 262.061284 
L 150.8508 263.36136 
L 153.890712 262.928001 
L 156.930624 260.761209 
L 159.970536 258.161057 
L 163.010448 260.32785 
L 166.05036 259.027774 
L 169.090272 260.32785 
L 172.130184 259.894492 
L 175.170096 259.027774 
L 178.210008 259.894492 
L 181.24992 259.461133 
L 184.289832 258.594416 
L 187.329743 258.161057 
L 190.369655 256.860982 
L 193.409567 256.427623 
L 196.449479 257.727699 
L 199.489391 257.727699 
L 202.529303 257.727699 
L 205.569215 256.860982 
L 208.609127 257.727699 
L 211.649039 255.994265 
L 214.688951 254.694189 
L 217.728863 256.427623 
L 220.768775 255.994265 
L 223.808687 255.994265 
L 226.848599 254.260831 
L 229.888511 252.527396 
L 232.928423 254.694189 
L 235.968335 253.827472 
L 239.008247 254.260831 
L 242.048159 253.827472 
L 245.08807 252.960755 
L 248.127982 252.527396 
L 251.167894 252.960755 
L 254.207806 253.394113 
L 257.247718 250.793962 
L 260.28763 249.493887 
L 263.327542 252.527396 
L 266.367454 252.094038 
L 269.407366 250.360604 
L 272.447278 250.793962 
L 275.48719 251.660679 
L 278.527102 248.627169 
L 281.567014 249.927245 
L 284.606926 251.227321 
L 287.646838 249.060528 
L 290.68675 250.360604 
L 293.726662 249.060528 
L 296.766574 249.060528 
L 299.806485 247.760452 
L 302.846397 247.760452 
L 305.886309 247.327094 
L 308.926221 245.160301 
L 311.966133 246.893735 
L 315.006045 245.59366 
L 318.045957 247.327094 
L 321.085869 246.460377 
L 324.125781 245.59366 
L 327.165693 246.027018 
L 330.205605 245.160301 
L 333.245517 243.860225 
L 336.285429 243.860225 
L 339.325341 242.126791 
L 342.365253 244.726943 
L 345.405165 242.126791 
L 348.445077 242.56015 
L 351.484989 241.693433 
L 354.5249 242.56015 
L 357.564812 242.56015 
L 360.604724 242.126791 
L 363.644636 242.56015 
L 366.684548 242.126791 
L 369.72446 240.826716 
" clip-path="url(#p25ac89cad5)" style="fill: none; stroke: #bcbd22; stroke-width: 1.5; stroke-linecap: square"/>
   </g>
   <g id="line2d_23">
    <path d="M 65.763665 207.024749 
L 66.037257 205.724673 
L 66.341248 205.291315 
L 66.645239 204.857956 
L 66.94923 205.291315 
L 67.253222 205.291315 
L 67.557213 204.424598 
L 67.861204 204.424598 
L 68.165195 203.124522 
L 68.469186 203.557881 
L 68.773178 202.691164 
L 71.81309 197.92422 
L 74.853001 197.92422 
L 77.892913 194.023993 
L 80.932825 192.723917 
L 83.972737 190.990483 
L 87.012649 187.090256 
L 90.052561 184.056746 
L 93.092473 184.056746 
L 96.132385 182.323312 
L 99.172297 180.156519 
L 102.212209 177.989727 
L 105.252121 174.522858 
L 108.292033 174.522858 
L 111.331945 174.0895 
L 114.371857 174.956217 
L 117.411769 172.789424 
L 120.451681 170.622631 
L 123.491593 171.489348 
L 126.531505 171.05599 
L 129.571417 171.489348 
L 132.611328 169.755914 
L 135.65124 168.889197 
L 138.691152 169.322556 
L 141.731064 167.155763 
L 144.770976 166.289046 
L 147.810888 167.589122 
L 150.8508 166.722404 
L 153.890712 166.722404 
L 156.930624 164.122253 
L 159.970536 167.589122 
L 163.010448 166.722404 
L 166.05036 165.855687 
L 169.090272 164.122253 
L 172.130184 165.422329 
L 175.170096 165.422329 
L 178.210008 164.555612 
L 181.24992 164.122253 
L 184.289832 164.98897 
L 187.329743 164.555612 
L 190.369655 164.122253 
L 193.409567 161.95546 
L 196.449479 162.822178 
L 199.489391 161.088743 
L 202.529303 157.621875 
L 205.569215 160.222026 
L 208.609127 162.822178 
L 211.649039 161.522102 
L 214.688951 162.388819 
L 217.728863 159.788668 
L 220.768775 159.788668 
L 223.808687 161.522102 
L 226.848599 160.655385 
L 229.888511 160.655385 
L 232.928423 161.088743 
L 235.968335 155.021724 
L 239.008247 159.788668 
L 242.048159 160.222026 
L 245.08807 158.921951 
L 248.127982 157.621875 
L 251.167894 158.921951 
L 254.207806 158.488592 
L 257.247718 155.888441 
L 260.28763 158.921951 
L 263.327542 157.188516 
L 266.367454 156.755158 
L 269.407366 154.155007 
L 272.447278 153.721648 
L 275.48719 155.888441 
L 278.527102 157.621875 
L 281.567014 155.021724 
L 284.606926 153.28829 
L 287.646838 155.455082 
L 290.68675 156.321799 
L 293.726662 154.155007 
L 296.766574 155.021724 
L 299.806485 155.021724 
L 302.846397 152.854931 
L 305.886309 155.021724 
L 308.926221 153.721648 
L 311.966133 154.155007 
L 315.006045 152.421572 
L 318.045957 151.554855 
L 321.085869 154.155007 
L 324.125781 153.28829 
L 327.165693 152.854931 
L 330.205605 151.988214 
L 333.245517 151.554855 
L 336.285429 151.121497 
L 339.325341 153.28829 
L 342.365253 150.688138 
L 345.405165 151.121497 
L 348.445077 149.821421 
L 351.484989 151.554855 
L 354.5249 151.121497 
L 357.564812 151.988214 
L 360.604724 149.388063 
L 363.644636 150.25478 
L 366.684548 146.354553 
L 369.72446 145.487836 
" clip-path="url(#p25ac89cad5)" style="fill: none; stroke: #17becf; stroke-width: 1.5; stroke-linecap: square"/>
   </g>
   <g id="line2d_24">
    <path d="M 65.763665 291.096307 
L 66.037257 290.662948 
L 66.341248 290.662948 
L 66.645239 290.662948 
L 66.94923 290.662948 
L 67.253222 290.662948 
L 67.557213 290.662948 
L 67.861204 290.662948 
L 68.165195 290.662948 
L 68.469186 290.22959 
L 68.773178 290.662948 
L 71.81309 290.22959 
L 74.853001 289.796231 
L 77.892913 289.362873 
L 80.932825 288.929514 
L 83.972737 288.496156 
L 87.012649 288.496156 
L 90.052561 288.496156 
L 93.092473 288.062797 
L 96.132385 288.062797 
L 99.172297 288.062797 
L 102.212209 287.629438 
L 105.252121 287.629438 
L 108.292033 287.19608 
L 111.331945 287.19608 
L 114.371857 287.19608 
L 117.411769 286.762721 
L 120.451681 286.762721 
L 123.491593 287.19608 
L 126.531505 286.762721 
L 129.571417 286.762721 
L 132.611328 286.762721 
L 135.65124 286.329363 
L 138.691152 286.762721 
L 141.731064 285.896004 
L 144.770976 286.329363 
L 147.810888 286.329363 
L 150.8508 286.329363 
L 153.890712 286.329363 
L 156.930624 286.329363 
L 159.970536 286.329363 
L 163.010448 286.329363 
L 166.05036 286.329363 
L 169.090272 286.329363 
L 172.130184 285.896004 
L 175.170096 285.462646 
L 178.210008 285.896004 
L 181.24992 285.896004 
L 184.289832 285.896004 
L 187.329743 285.896004 
L 190.369655 285.896004 
L 193.409567 285.896004 
L 196.449479 285.462646 
L 199.489391 285.462646 
L 202.529303 285.462646 
L 205.569215 285.462646 
L 208.609127 285.462646 
L 211.649039 285.029287 
L 214.688951 285.462646 
L 217.728863 285.462646 
L 220.768775 285.462646 
L 223.808687 285.029287 
L 226.848599 285.029287 
L 229.888511 285.029287 
L 232.928423 285.462646 
L 235.968335 285.029287 
L 239.008247 285.029287 
L 242.048159 285.029287 
L 245.08807 285.029287 
L 248.127982 285.029287 
L 251.167894 284.595929 
L 254.207806 285.029287 
L 257.247718 284.595929 
L 260.28763 284.595929 
L 263.327542 284.16257 
L 266.367454 284.595929 
L 269.407366 284.595929 
L 272.447278 284.16257 
L 275.48719 284.595929 
L 278.527102 284.595929 
L 281.567014 284.595929 
L 284.606926 284.16257 
L 287.646838 284.16257 
L 290.68675 284.16257 
L 293.726662 284.16257 
L 296.766574 284.16257 
L 299.806485 283.729212 
L 302.846397 284.16257 
L 305.886309 284.16257 
L 308.926221 284.16257 
L 311.966133 284.16257 
L 315.006045 282.429136 
L 318.045957 283.729212 
L 321.085869 283.729212 
L 324.125781 283.729212 
L 327.165693 283.729212 
L 330.205605 283.729212 
L 333.245517 283.295853 
L 336.285429 283.295853 
L 339.325341 283.729212 
L 342.365253 283.295853 
L 345.405165 282.862494 
L 348.445077 283.295853 
L 351.484989 283.295853 
L 354.5249 283.295853 
L 357.564812 283.295853 
L 360.604724 283.295853 
L 363.644636 282.862494 
L 366.684548 283.295853 
L 369.72446 282.862494 
" clip-path="url(#p25ac89cad5)" style="fill: none; stroke: #1f77b4; stroke-width: 1.5; stroke-linecap: square"/>
   </g>
   <g id="line2d_25">
    <path d="M 65.763665 289.362873 
L 66.037257 288.929514 
L 66.341248 288.062797 
L 66.645239 286.762721 
L 66.94923 285.462646 
L 67.253222 285.462646 
L 67.557213 284.595929 
L 67.861204 283.729212 
L 68.165195 283.295853 
L 68.469186 282.429136 
L 68.773178 281.995777 
L 71.81309 275.928758 
L 74.853001 269.861738 
L 77.892913 265.094794 
L 80.932825 262.061284 
L 83.972737 258.594416 
L 87.012649 255.994265 
L 90.052561 252.960755 
L 93.092473 250.793962 
L 96.132385 248.193811 
L 99.172297 247.327094 
L 102.212209 244.293584 
L 105.252121 244.293584 
L 108.292033 240.393357 
L 111.331945 239.52664 
L 114.371857 240.393357 
L 117.411769 237.793206 
L 120.451681 236.926489 
L 123.491593 236.059772 
L 126.531505 233.892979 
L 129.571417 233.45962 
L 132.611328 232.159545 
L 135.65124 229.126035 
L 138.691152 229.559393 
L 141.731064 228.259318 
L 144.770976 227.392601 
L 147.810888 223.492374 
L 150.8508 225.225808 
L 153.890712 223.492374 
L 156.930624 223.492374 
L 159.970536 221.75894 
L 163.010448 220.025505 
L 166.05036 218.292071 
L 169.090272 217.425354 
L 172.130184 216.991996 
L 175.170096 215.258561 
L 178.210008 213.091769 
L 181.24992 213.525127 
L 184.289832 213.091769 
L 187.329743 210.924976 
L 190.369655 211.358335 
L 193.409567 209.6249 
L 196.449479 208.324825 
L 199.489391 204.424598 
L 202.529303 206.158032 
L 205.569215 204.424598 
L 208.609127 204.424598 
L 211.649039 203.124522 
L 214.688951 202.257805 
L 217.728863 202.257805 
L 220.768775 202.257805 
L 223.808687 201.391088 
L 226.848599 198.790937 
L 229.888511 197.490861 
L 232.928423 197.92422 
L 235.968335 195.324068 
L 239.008247 195.324068 
L 242.048159 194.023993 
L 245.08807 192.723917 
L 248.127982 192.723917 
L 251.167894 190.990483 
L 254.207806 189.257049 
L 257.247718 188.390332 
L 260.28763 188.82369 
L 263.327542 186.656898 
L 266.367454 187.090256 
L 269.407366 186.223539 
L 272.447278 184.490105 
L 275.48719 184.056746 
L 278.527102 183.190029 
L 281.567014 180.589878 
L 284.606926 179.289802 
L 287.646838 179.289802 
L 290.68675 179.723161 
L 293.726662 179.723161 
L 296.766574 170.189273 
L 299.806485 174.956217 
L 302.846397 177.12301 
L 305.886309 174.522858 
L 308.926221 173.656141 
L 311.966133 171.922707 
L 315.006045 173.222783 
L 318.045957 173.222783 
L 321.085869 171.05599 
L 324.125781 170.622631 
L 327.165693 169.322556 
L 330.205605 169.322556 
L 333.245517 168.02248 
L 336.285429 165.422329 
L 339.325341 165.422329 
L 342.365253 165.855687 
L 345.405165 161.95546 
L 348.445077 163.255536 
L 351.484989 161.522102 
L 354.5249 160.655385 
L 357.564812 160.655385 
L 360.604724 158.488592 
L 363.644636 157.621875 
L 366.684548 159.788668 
L 369.72446 156.755158 
" clip-path="url(#p25ac89cad5)" style="fill: none; stroke: #ff7f0e; stroke-width: 1.5; stroke-linecap: square"/>
   </g>
   <g id="patch_3">
    <path d="M 50.565625 304.44375 
L 50.565625 10.8 
" style="fill: none; stroke: #000000; stroke-width: 0.8; stroke-linejoin: miter; stroke-linecap: square"/>
   </g>
   <g id="patch_4">
    <path d="M 384.9225 304.44375 
L 384.9225 10.8 
" style="fill: none; stroke: #000000; stroke-width: 0.8; stroke-linejoin: miter; stroke-linecap: square"/>
   </g>
   <g id="patch_5">
    <path d="M 50.565625 304.44375 
L 384.9225 304.44375 
" style="fill: none; stroke: #000000; stroke-width: 0.8; stroke-linejoin: miter; stroke-linecap: square"/>
   </g>
   <g id="patch_6">
    <path d="M 50.565625 10.8 
L 384.9225 10.8 
" style="fill: none; stroke: #000000; stroke-width: 0.8; stroke-linejoin: miter; stroke-linecap: square"/>
   </g>
   <g id="text_16">
    <!-- trimou -->
    <g style="fill: #1f77b4" transform="translate(390.9225 292.870448) scale(0.08 -0.08)">
     <defs>
      <path id="DejaVuSans-6f" d="M 1959 3097 
Q 1497 3097 1228 2736 
Q 959 2375 959 1747 
Q 959 1119 1226 758 
Q 1494 397 1959 397 
Q 2419 397 2687 759 
Q 2956 1122 2956 1747 
Q 2956 2369 2687 2733 
Q 2419 3097 1959 3097 
z
M 1959 3584 
Q 2709 3584 3137 3096 
Q 3566 2609 3566 1747 
Q 3566 888 3137 398 
Q 2709 -91 1959 -91 
Q 1206 -91 779 398 
Q 353 888 353 1747 
Q 353 2609 779 3096 
Q 1206 3584 1959 3584 
z
" transform="scale(0.015625)"/>
     </defs>
     <use xlink:href="#DejaVuSans-74"/>
     <use xlink:href="#DejaVuSans-72" transform="translate(39.208984 0)"/>
     <use xlink:href="#DejaVuSans-69" transform="translate(80.322266 0)"/>
     <use xlink:href="#DejaVuSans-6d" transform="translate(108.105469 0)"/>
     <use xlink:href="#DejaVuSans-6f" transform="translate(205.517578 0)"/>
     <use xlink:href="#DejaVuSans-75" transform="translate(266.699219 0)"/>
    </g>
   </g>
   <g id="text_17">
    <!-- mustachej -->
    <g style="fill: #9467bd" transform="translate(390.9225 285.069994) scale(0.08 -0.08)">
     <defs>
      <path id="DejaVuSans-61" d="M 2194 1759 
Q 1497 1759 1228 1600 
Q 959 1441 959 1056 
Q 959 750 1161 570 
Q 1363 391 1709 391 
Q 2188 391 2477 730 
Q 2766 1069 2766 1631 
L 2766 1759 
L 2194 1759 
z
M 3341 1997 
L 3341 0 
L 2766 0 
L 2766 531 
Q 2569 213 2275 61 
Q 1981 -91 1556 -91 
Q 1019 -91 701 211 
Q 384 513 384 1019 
Q 384 1609 779 1909 
Q 1175 2209 1959 2209 
L 2766 2209 
L 2766 2266 
Q 2766 2663 2505 2880 
Q 2244 3097 1772 3097 
Q 1472 3097 1187 3025 
Q 903 2953 641 2809 
L 641 3341 
Q 956 3463 1253 3523 
Q 1550 3584 1831 3584 
Q 2591 3584 2966 3190 
Q 3341 2797 3341 1997 
z
" transform="scale(0.015625)"/>
      <path id="DejaVuSans-63" d="M 3122 3366 
L 3122 2828 
Q 2878 2963 2633 3030 
Q 2388 3097 2138 3097 
Q 1578 3097 1268 2742 
Q 959 2388 959 1747 
Q 959 1106 1268 751 
Q 1578 397 2138 397 
Q 2388 397 2633 464 
Q 2878 531 3122 666 
L 3122 134 
Q 2881 22 2623 -34 
Q 2366 -91 2075 -91 
Q 1284 -91 818 406 
Q 353 903 353 1747 
Q 353 2603 823 3093 
Q 1294 3584 2113 3584 
Q 2378 3584 2631 3529 
Q 2884 3475 3122 3366 
z
" transform="scale(0.015625)"/>
      <path id="DejaVuSans-68" d="M 3513 2113 
L 3513 0 
L 2938 0 
L 2938 2094 
Q 2938 2591 2744 2837 
Q 2550 3084 2163 3084 
Q 1697 3084 1428 2787 
Q 1159 2491 1159 1978 
L 1159 0 
L 581 0 
L 581 4863 
L 1159 4863 
L 1159 2956 
Q 1366 3272 1645 3428 
Q 1925 3584 2291 3584 
Q 2894 3584 3203 3211 
Q 3513 2838 3513 2113 
z
" transform="scale(0.015625)"/>
      <path id="DejaVuSans-6a" d="M 603 3500 
L 1178 3500 
L 1178 -63 
Q 1178 -731 923 -1031 
Q 669 -1331 103 -1331 
L -116 -1331 
L -116 -844 
L 38 -844 
Q 366 -844 484 -692 
Q 603 -541 603 -63 
L 603 3500 
z
M 603 4863 
L 1178 4863 
L 1178 4134 
L 603 4134 
L 603 4863 
z
" transform="scale(0.015625)"/>
     </defs>
     <use xlink:href="#DejaVuSans-6d"/>
     <use xlink:href="#DejaVuSans-75" transform="translate(97.412109 0)"/>
     <use xlink:href="#DejaVuSans-73" transform="translate(160.791016 0)"/>
     <use xlink:href="#DejaVuSans-74" transform="translate(212.890625 0)"/>
     <use xlink:href="#DejaVuSans-61" transform="translate(252.099609 0)"/>
     <use xlink:href="#DejaVuSans-63" transform="translate(313.378906 0)"/>
     <use xlink:href="#DejaVuSans-68" transform="translate(368.359375 0)"/>
     <use xlink:href="#DejaVuSans-65" transform="translate(431.738281 0)"/>
     <use xlink:href="#DejaVuSans-6a" transform="translate(493.261719 0)"/>
    </g>
   </g>
   <g id="text_18">
    <!-- solomon -->
    <g style="fill: #e377c2" transform="translate(390.9225 277.269541) scale(0.08 -0.08)">
     <defs>
      <path id="DejaVuSans-6c" d="M 603 4863 
L 1178 4863 
L 1178 0 
L 603 0 
L 603 4863 
z
" transform="scale(0.015625)"/>
     </defs>
     <use xlink:href="#DejaVuSans-73"/>
     <use xlink:href="#DejaVuSans-6f" transform="translate(52.099609 0)"/>
     <use xlink:href="#DejaVuSans-6c" transform="translate(113.28125 0)"/>
     <use xlink:href="#DejaVuSans-6f" transform="translate(141.064453 0)"/>
     <use xlink:href="#DejaVuSans-6d" transform="translate(202.246094 0)"/>
     <use xlink:href="#DejaVuSans-6f" transform="translate(299.658203 0)"/>
     <use xlink:href="#DejaVuSans-6e" transform="translate(360.839844 0)"/>
    </g>
   </g>
   <g id="text_19">
    <!-- handlebars -->
    <g style="fill: #ff7f0e" transform="translate(390.9225 269.469087) scale(0.08 -0.08)">
     <defs>
      <path id="DejaVuSans-64" d="M 2906 2969 
L 2906 4863 
L 3481 4863 
L 3481 0 
L 2906 0 
L 2906 525 
Q 2725 213 2448 61 
Q 2172 -91 1784 -91 
Q 1150 -91 751 415 
Q 353 922 353 1747 
Q 353 2572 751 3078 
Q 1150 3584 1784 3584 
Q 2172 3584 2448 3432 
Q 2725 3281 2906 2969 
z
M 947 1747 
Q 947 1113 1208 752 
Q 1469 391 1925 391 
Q 2381 391 2643 752 
Q 2906 1113 2906 1747 
Q 2906 2381 2643 2742 
Q 2381 3103 1925 3103 
Q 1469 3103 1208 2742 
Q 947 2381 947 1747 
z
" transform="scale(0.015625)"/>
      <path id="DejaVuSans-62" d="M 3116 1747 
Q 3116 2381 2855 2742 
Q 2594 3103 2138 3103 
Q 1681 3103 1420 2742 
Q 1159 2381 1159 1747 
Q 1159 1113 1420 752 
Q 1681 391 2138 391 
Q 2594 391 2855 752 
Q 3116 1113 3116 1747 
z
M 1159 2969 
Q 1341 3281 1617 3432 
Q 1894 3584 2278 3584 
Q 2916 3584 3314 3078 
Q 3713 2572 3713 1747 
Q 3713 922 3314 415 
Q 2916 -91 2278 -91 
Q 1894 -91 1617 61 
Q 1341 213 1159 525 
L 1159 0 
L 581 0 
L 581 4863 
L 1159 4863 
L 1159 2969 
z
" transform="scale(0.015625)"/>
     </defs>
     <use xlink:href="#DejaVuSans-68"/>
     <use xlink:href="#DejaVuSans-61" transform="translate(63.378906 0)"/>
     <use xlink:href="#DejaVuSans-6e" transform="translate(124.658203 0)"/>
     <use xlink:href="#DejaVuSans-64" transform="translate(188.037109 0)"/>
     <use xlink:href="#DejaVuSans-6c" transform="translate(251.513672 0)"/>
     <use xlink:href="#DejaVuSans-65" transform="translate(279.296875 0)"/>
     <use xlink:href="#DejaVuSans-62" transform="translate(340.820312 0)"/>
     <use xlink:href="#DejaVuSans-61" transform="translate(404.296875 0)"/>
     <use xlink:href="#DejaVuSans-72" transform="translate(465.576172 0)"/>
     <use xlink:href="#DejaVuSans-73" transform="translate(506.689453 0)"/>
    </g>
   </g>
   <g id="text_20">
    <!-- pebble -->
    <g style="fill: #8c564b" transform="translate(390.9225 261.668633) scale(0.08 -0.08)">
     <defs>
      <path id="DejaVuSans-70" d="M 1159 525 
L 1159 -1331 
L 581 -1331 
L 581 3500 
L 1159 3500 
L 1159 2969 
Q 1341 3281 1617 3432 
Q 1894 3584 2278 3584 
Q 2916 3584 3314 3078 
Q 3713 2572 3713 1747 
Q 3713 922 3314 415 
Q 2916 -91 2278 -91 
Q 1894 -91 1617 61 
Q 1341 213 1159 525 
z
M 3116 1747 
Q 3116 2381 2855 2742 
Q 2594 3103 2138 3103 
Q 1681 3103 1420 2742 
Q 1159 2381 1159 1747 
Q 1159 1113 1420 752 
Q 1681 391 2138 391 
Q 2594 391 2855 752 
Q 3116 1113 3116 1747 
z
" transform="scale(0.015625)"/>
     </defs>
     <use xlink:href="#DejaVuSans-70"/>
     <use xlink:href="#DejaVuSans-65" transform="translate(63.476562 0)"/>
     <use xlink:href="#DejaVuSans-62" transform="translate(125 0)"/>
     <use xlink:href="#DejaVuSans-62" transform="translate(188.476562 0)"/>
     <use xlink:href="#DejaVuSans-6c" transform="translate(251.953125 0)"/>
     <use xlink:href="#DejaVuSans-65" transform="translate(279.736328 0)"/>
    </g>
   </g>
   <g id="text_21">
    <!-- stringtree -->
    <g style="fill: #bcbd22" transform="translate(390.9225 243.034216) scale(0.08 -0.08)">
     <defs>
      <path id="DejaVuSans-67" d="M 2906 1791 
Q 2906 2416 2648 2759 
Q 2391 3103 1925 3103 
Q 1463 3103 1205 2759 
Q 947 2416 947 1791 
Q 947 1169 1205 825 
Q 1463 481 1925 481 
Q 2391 481 2648 825 
Q 2906 1169 2906 1791 
z
M 3481 434 
Q 3481 -459 3084 -895 
Q 2688 -1331 1869 -1331 
Q 1566 -1331 1297 -1286 
Q 1028 -1241 775 -1147 
L 775 -588 
Q 1028 -725 1275 -790 
Q 1522 -856 1778 -856 
Q 2344 -856 2625 -561 
Q 2906 -266 2906 331 
L 2906 616 
Q 2728 306 2450 153 
Q 2172 0 1784 0 
Q 1141 0 747 490 
Q 353 981 353 1791 
Q 353 2603 747 3093 
Q 1141 3584 1784 3584 
Q 2172 3584 2450 3431 
Q 2728 3278 2906 2969 
L 2906 3500 
L 3481 3500 
L 3481 434 
z
" transform="scale(0.015625)"/>
     </defs>
     <use xlink:href="#DejaVuSans-73"/>
     <use xlink:href="#DejaVuSans-74" transform="translate(52.099609 0)"/>
     <use xlink:href="#DejaVuSans-72" transform="translate(91.308594 0)"/>
     <use xlink:href="#DejaVuSans-69" transform="translate(132.421875 0)"/>
     <use xlink:href="#DejaVuSans-6e" transform="translate(160.205078 0)"/>
     <use xlink:href="#DejaVuSans-67" transform="translate(223.583984 0)"/>
     <use xlink:href="#DejaVuSans-74" transform="translate(287.060547 0)"/>
     <use xlink:href="#DejaVuSans-72" transform="translate(326.269531 0)"/>
     <use xlink:href="#DejaVuSans-65" transform="translate(365.132812 0)"/>
     <use xlink:href="#DejaVuSans-65" transform="translate(426.65625 0)"/>
    </g>
   </g>
   <g id="text_22">
    <!-- freemarker -->
    <g style="fill: #1f77b4" transform="translate(390.9225 235.233762) scale(0.08 -0.08)">
     <defs>
      <path id="DejaVuSans-66" d="M 2375 4863 
L 2375 4384 
L 1825 4384 
Q 1516 4384 1395 4259 
Q 1275 4134 1275 3809 
L 1275 3500 
L 2222 3500 
L 2222 3053 
L 1275 3053 
L 1275 0 
L 697 0 
L 697 3053 
L 147 3053 
L 147 3500 
L 697 3500 
L 697 3744 
Q 697 4328 969 4595 
Q 1241 4863 1831 4863 
L 2375 4863 
z
" transform="scale(0.015625)"/>
      <path id="DejaVuSans-6b" d="M 581 4863 
L 1159 4863 
L 1159 1991 
L 2875 3500 
L 3609 3500 
L 1753 1863 
L 3688 0 
L 2938 0 
L 1159 1709 
L 1159 0 
L 581 0 
L 581 4863 
z
" transform="scale(0.015625)"/>
     </defs>
     <use xlink:href="#DejaVuSans-66"/>
     <use xlink:href="#DejaVuSans-72" transform="translate(35.205078 0)"/>
     <use xlink:href="#DejaVuSans-65" transform="translate(74.068359 0)"/>
     <use xlink:href="#DejaVuSans-65" transform="translate(135.591797 0)"/>
     <use xlink:href="#DejaVuSans-6d" transform="translate(197.115234 0)"/>
     <use xlink:href="#DejaVuSans-61" transform="translate(294.527344 0)"/>
     <use xlink:href="#DejaVuSans-72" transform="translate(355.806641 0)"/>
     <use xlink:href="#DejaVuSans-6b" transform="translate(396.919922 0)"/>
     <use xlink:href="#DejaVuSans-65" transform="translate(451.205078 0)"/>
     <use xlink:href="#DejaVuSans-72" transform="translate(512.728516 0)"/>
    </g>
   </g>
   <g id="text_23">
    <!-- jangod -->
    <g style="fill: #2ca02c" transform="translate(390.9225 199.265003) scale(0.08 -0.08)">
     <use xlink:href="#DejaVuSans-6a"/>
     <use xlink:href="#DejaVuSans-61" transform="translate(27.783203 0)"/>
     <use xlink:href="#DejaVuSans-6e" transform="translate(89.0625 0)"/>
     <use xlink:href="#DejaVuSans-67" transform="translate(152.441406 0)"/>
     <use xlink:href="#DejaVuSans-6f" transform="translate(215.917969 0)"/>
     <use xlink:href="#DejaVuSans-64" transform="translate(277.099609 0)"/>
    </g>
   </g>
   <g id="text_24">
    <!-- stringtemplate -->
    <g style="fill: #7f7f7f" transform="translate(390.9225 182.364019) scale(0.08 -0.08)">
     <use xlink:href="#DejaVuSans-73"/>
     <use xlink:href="#DejaVuSans-74" transform="translate(52.099609 0)"/>
     <use xlink:href="#DejaVuSans-72" transform="translate(91.308594 0)"/>
     <use xlink:href="#DejaVuSans-69" transform="translate(132.421875 0)"/>
     <use xlink:href="#DejaVuSans-6e" transform="translate(160.205078 0)"/>
     <use xlink:href="#DejaVuSans-67" transform="translate(223.583984 0)"/>
     <use xlink:href="#DejaVuSans-74" transform="translate(287.060547 0)"/>
     <use xlink:href="#DejaVuSans-65" transform="translate(326.269531 0)"/>
     <use xlink:href="#DejaVuSans-6d" transform="translate(387.792969 0)"/>
     <use xlink:href="#DejaVuSans-70" transform="translate(485.205078 0)"/>
     <use xlink:href="#DejaVuSans-6c" transform="translate(548.681641 0)"/>
     <use xlink:href="#DejaVuSans-61" transform="translate(576.464844 0)"/>
     <use xlink:href="#DejaVuSans-74" transform="translate(637.744141 0)"/>
     <use xlink:href="#DejaVuSans-65" transform="translate(676.953125 0)"/>
    </g>
   </g>
   <g id="text_25">
    <!-- velocity -->
    <g style="fill: #ff7f0e" transform="translate(390.9225 158.962658) scale(0.08 -0.08)">
     <defs>
      <path id="DejaVuSans-76" d="M 191 3500 
L 800 3500 
L 1894 563 
L 2988 3500 
L 3597 3500 
L 2284 0 
L 1503 0 
L 191 3500 
z
" transform="scale(0.015625)"/>
      <path id="DejaVuSans-79" d="M 2059 -325 
Q 1816 -950 1584 -1140 
Q 1353 -1331 966 -1331 
L 506 -1331 
L 506 -850 
L 844 -850 
Q 1081 -850 1212 -737 
Q 1344 -625 1503 -206 
L 1606 56 
L 191 3500 
L 800 3500 
L 1894 763 
L 2988 3500 
L 3597 3500 
L 2059 -325 
z
" transform="scale(0.015625)"/>
     </defs>
     <use xlink:href="#DejaVuSans-76"/>
     <use xlink:href="#DejaVuSans-65" transform="translate(59.179688 0)"/>
     <use xlink:href="#DejaVuSans-6c" transform="translate(120.703125 0)"/>
     <use xlink:href="#DejaVuSans-6f" transform="translate(148.486328 0)"/>
     <use xlink:href="#DejaVuSans-63" transform="translate(209.667969 0)"/>
     <use xlink:href="#DejaVuSans-69" transform="translate(264.648438 0)"/>
     <use xlink:href="#DejaVuSans-74" transform="translate(292.431641 0)"/>
     <use xlink:href="#DejaVuSans-79" transform="translate(331.640625 0)"/>
    </g>
   </g>
   <g id="text_26">
    <!-- thymeleaf -->
    <g style="fill: #17becf" transform="translate(390.9225 147.695336) scale(0.08 -0.08)">
     <use xlink:href="#DejaVuSans-74"/>
     <use xlink:href="#DejaVuSans-68" transform="translate(39.208984 0)"/>
     <use xlink:href="#DejaVuSans-79" transform="translate(102.587891 0)"/>
     <use xlink:href="#DejaVuSans-6d" transform="translate(161.767578 0)"/>
     <use xlink:href="#DejaVuSans-65" transform="translate(259.179688 0)"/>
     <use xlink:href="#DejaVuSans-6c" transform="translate(320.703125 0)"/>
     <use xlink:href="#DejaVuSans-65" transform="translate(348.486328 0)"/>
     <use xlink:href="#DejaVuSans-61" transform="translate(410.009766 0)"/>
     <use xlink:href="#DejaVuSans-66" transform="translate(471.289062 0)"/>
    </g>
   </g>
   <g id="text_27">
    <!-- jte -->
    <g style="fill: #d62728" transform="translate(390.9225 31.988604) scale(0.08 -0.08)">
     <use xlink:href="#DejaVuSans-6a"/>
     <use xlink:href="#DejaVuSans-74" transform="translate(27.783203 0)"/>
     <use xlink:href="#DejaVuSans-65" transform="translate(66.992188 0)"/>
    </g>
   </g>
  </g>
 </g>
 <defs>
  <clipPath id="p25ac89cad5">
   <rect x="50.565625" y="10.8" width="334.356875" height="293.64375"/>
  </clipPath>
 </defs>
</svg>
