<?xml version="1.0" encoding="utf-8" standalone="no"?>
<!DOCTYPE svg PUBLIC "-//W3C//DTD SVG 1.1//EN"
  "http://www.w3.org/Graphics/SVG/1.1/DTD/svg11.dtd">
<svg xmlns:xlink="http://www.w3.org/1999/xlink" width="460.8pt" height="345.6pt" viewBox="0 0 460.8 345.6" xmlns="http://www.w3.org/2000/svg" version="1.1">
 <metadata>
  <rdf:RDF xmlns:dc="http://purl.org/dc/elements/1.1/" xmlns:cc="http://creativecommons.org/ns#" xmlns:rdf="http://www.w3.org/1999/02/22-rdf-syntax-ns#">
   <cc:Work>
    <dc:type rdf:resource="http://purl.org/dc/dcmitype/StillImage"/>
    <dc:date>2025-04-13T16:08:54.167716</dc:date>
    <dc:format>image/svg+xml</dc:format>
    <dc:creator>
     <cc:Agent>
      <dc:title>Matplotlib v3.10.1, https://matplotlib.org/</dc:title>
     </cc:Agent>
    </dc:creator>
   </cc:Work>
  </rdf:RDF>
 </metadata>
 <defs>
  <style type="text/css">*{stroke-linejoin: round; stroke-linecap: butt}</style>
 </defs>
 <g id="figure_1">
  <g id="patch_1">
   <path d="M 0 345.6 
L 460.8 345.6 
L 460.8 0 
L 0 0 
z
" style="fill: #ffffff"/>
  </g>
  <g id="axes_1">
   <g id="patch_2">
    <path d="M 50.565625 304.44375 
L 384.9225 304.44375 
L 384.9225 10.8 
L 50.565625 10.8 
z
" style="fill: #ffffff"/>
   </g>
   <g id="matplotlib.axis_1">
    <g id="xtick_1">
     <g id="line2d_1">
      <defs>
       <path id="me1fcad2588" d="M 0 0 
L 0 3.5 
" style="stroke: #000000; stroke-width: 0.8"/>
      </defs>
      <g>
       <use xlink:href="#me1fcad2588" x="65.733266" y="304.44375" style="stroke: #000000; stroke-width: 0.8"/>
      </g>
     </g>
     <g id="text_1">
      <!-- 0 -->
      <g transform="translate(62.552016 319.042187) scale(0.1 -0.1)">
       <defs>
        <path id="DejaVuSans-30" d="M 2034 4250 
Q 1547 4250 1301 3770 
Q 1056 3291 1056 2328 
Q 1056 1369 1301 889 
Q 1547 409 2034 409 
Q 2525 409 2770 889 
Q 3016 1369 3016 2328 
Q 3016 3291 2770 3770 
Q 2525 4250 2034 4250 
z
M 2034 4750 
Q 2819 4750 3233 4129 
Q 3647 3509 3647 2328 
Q 3647 1150 3233 529 
Q 2819 -91 2034 -91 
Q 1250 -91 836 529 
Q 422 1150 422 2328 
Q 422 3509 836 4129 
Q 1250 4750 2034 4750 
z
" transform="scale(0.015625)"/>
       </defs>
       <use xlink:href="#DejaVuSans-30"/>
      </g>
     </g>
    </g>
    <g id="xtick_2">
     <g id="line2d_2">
      <g>
       <use xlink:href="#me1fcad2588" x="126.531505" y="304.44375" style="stroke: #000000; stroke-width: 0.8"/>
      </g>
     </g>
     <g id="text_2">
      <!-- 2000 -->
      <g transform="translate(113.806505 319.042187) scale(0.1 -0.1)">
       <defs>
        <path id="DejaVuSans-32" d="M 1228 531 
L 3431 531 
L 3431 0 
L 469 0 
L 469 531 
Q 828 903 1448 1529 
Q 2069 2156 2228 2338 
Q 2531 2678 2651 2914 
Q 2772 3150 2772 3378 
Q 2772 3750 2511 3984 
Q 2250 4219 1831 4219 
Q 1534 4219 1204 4116 
Q 875 4013 500 3803 
L 500 4441 
Q 881 4594 1212 4672 
Q 1544 4750 1819 4750 
Q 2544 4750 2975 4387 
Q 3406 4025 3406 3419 
Q 3406 3131 3298 2873 
Q 3191 2616 2906 2266 
Q 2828 2175 2409 1742 
Q 1991 1309 1228 531 
z
" transform="scale(0.015625)"/>
       </defs>
       <use xlink:href="#DejaVuSans-32"/>
       <use xlink:href="#DejaVuSans-30" transform="translate(63.623047 0)"/>
       <use xlink:href="#DejaVuSans-30" transform="translate(127.246094 0)"/>
       <use xlink:href="#DejaVuSans-30" transform="translate(190.869141 0)"/>
      </g>
     </g>
    </g>
    <g id="xtick_3">
     <g id="line2d_3">
      <g>
       <use xlink:href="#me1fcad2588" x="187.329743" y="304.44375" style="stroke: #000000; stroke-width: 0.8"/>
      </g>
     </g>
     <g id="text_3">
      <!-- 4000 -->
      <g transform="translate(174.604743 319.042187) scale(0.1 -0.1)">
       <defs>
        <path id="DejaVuSans-34" d="M 2419 4116 
L 825 1625 
L 2419 1625 
L 2419 4116 
z
M 2253 4666 
L 3047 4666 
L 3047 1625 
L 3713 1625 
L 3713 1100 
L 3047 1100 
L 3047 0 
L 2419 0 
L 2419 1100 
L 313 1100 
L 313 1709 
L 2253 4666 
z
" transform="scale(0.015625)"/>
       </defs>
       <use xlink:href="#DejaVuSans-34"/>
       <use xlink:href="#DejaVuSans-30" transform="translate(63.623047 0)"/>
       <use xlink:href="#DejaVuSans-30" transform="translate(127.246094 0)"/>
       <use xlink:href="#DejaVuSans-30" transform="translate(190.869141 0)"/>
      </g>
     </g>
    </g>
    <g id="xtick_4">
     <g id="line2d_4">
      <g>
       <use xlink:href="#me1fcad2588" x="248.127982" y="304.44375" style="stroke: #000000; stroke-width: 0.8"/>
      </g>
     </g>
     <g id="text_4">
      <!-- 6000 -->
      <g transform="translate(235.402982 319.042187) scale(0.1 -0.1)">
       <defs>
        <path id="DejaVuSans-36" d="M 2113 2584 
Q 1688 2584 1439 2293 
Q 1191 2003 1191 1497 
Q 1191 994 1439 701 
Q 1688 409 2113 409 
Q 2538 409 2786 701 
Q 3034 994 3034 1497 
Q 3034 2003 2786 2293 
Q 2538 2584 2113 2584 
z
M 3366 4563 
L 3366 3988 
Q 3128 4100 2886 4159 
Q 2644 4219 2406 4219 
Q 1781 4219 1451 3797 
Q 1122 3375 1075 2522 
Q 1259 2794 1537 2939 
Q 1816 3084 2150 3084 
Q 2853 3084 3261 2657 
Q 3669 2231 3669 1497 
Q 3669 778 3244 343 
Q 2819 -91 2113 -91 
Q 1303 -91 875 529 
Q 447 1150 447 2328 
Q 447 3434 972 4092 
Q 1497 4750 2381 4750 
Q 2619 4750 2861 4703 
Q 3103 4656 3366 4563 
z
" transform="scale(0.015625)"/>
       </defs>
       <use xlink:href="#DejaVuSans-36"/>
       <use xlink:href="#DejaVuSans-30" transform="translate(63.623047 0)"/>
       <use xlink:href="#DejaVuSans-30" transform="translate(127.246094 0)"/>
       <use xlink:href="#DejaVuSans-30" transform="translate(190.869141 0)"/>
      </g>
     </g>
    </g>
    <g id="xtick_5">
     <g id="line2d_5">
      <g>
       <use xlink:href="#me1fcad2588" x="308.926221" y="304.44375" style="stroke: #000000; stroke-width: 0.8"/>
      </g>
     </g>
     <g id="text_5">
      <!-- 8000 -->
      <g transform="translate(296.201221 319.042187) scale(0.1 -0.1)">
       <defs>
        <path id="DejaVuSans-38" d="M 2034 2216 
Q 1584 2216 1326 1975 
Q 1069 1734 1069 1313 
Q 1069 891 1326 650 
Q 1584 409 2034 409 
Q 2484 409 2743 651 
Q 3003 894 3003 1313 
Q 3003 1734 2745 1975 
Q 2488 2216 2034 2216 
z
M 1403 2484 
Q 997 2584 770 2862 
Q 544 3141 544 3541 
Q 544 4100 942 4425 
Q 1341 4750 2034 4750 
Q 2731 4750 3128 4425 
Q 3525 4100 3525 3541 
Q 3525 3141 3298 2862 
Q 3072 2584 2669 2484 
Q 3125 2378 3379 2068 
Q 3634 1759 3634 1313 
Q 3634 634 3220 271 
Q 2806 -91 2034 -91 
Q 1263 -91 848 271 
Q 434 634 434 1313 
Q 434 1759 690 2068 
Q 947 2378 1403 2484 
z
M 1172 3481 
Q 1172 3119 1398 2916 
Q 1625 2713 2034 2713 
Q 2441 2713 2670 2916 
Q 2900 3119 2900 3481 
Q 2900 3844 2670 4047 
Q 2441 4250 2034 4250 
Q 1625 4250 1398 4047 
Q 1172 3844 1172 3481 
z
" transform="scale(0.015625)"/>
       </defs>
       <use xlink:href="#DejaVuSans-38"/>
       <use xlink:href="#DejaVuSans-30" transform="translate(63.623047 0)"/>
       <use xlink:href="#DejaVuSans-30" transform="translate(127.246094 0)"/>
       <use xlink:href="#DejaVuSans-30" transform="translate(190.869141 0)"/>
      </g>
     </g>
    </g>
    <g id="xtick_6">
     <g id="line2d_6">
      <g>
       <use xlink:href="#me1fcad2588" x="369.72446" y="304.44375" style="stroke: #000000; stroke-width: 0.8"/>
      </g>
     </g>
     <g id="text_6">
      <!-- 10000 -->
      <g transform="translate(353.81821 319.042187) scale(0.1 -0.1)">
       <defs>
        <path id="DejaVuSans-31" d="M 794 531 
L 1825 531 
L 1825 4091 
L 703 3866 
L 703 4441 
L 1819 4666 
L 2450 4666 
L 2450 531 
L 3481 531 
L 3481 0 
L 794 0 
L 794 531 
z
" transform="scale(0.015625)"/>
       </defs>
       <use xlink:href="#DejaVuSans-31"/>
       <use xlink:href="#DejaVuSans-30" transform="translate(63.623047 0)"/>
       <use xlink:href="#DejaVuSans-30" transform="translate(127.246094 0)"/>
       <use xlink:href="#DejaVuSans-30" transform="translate(190.869141 0)"/>
       <use xlink:href="#DejaVuSans-30" transform="translate(254.492188 0)"/>
      </g>
     </g>
    </g>
    <g id="text_7">
     <!-- n runs -->
     <g transform="translate(201.988594 332.720312) scale(0.1 -0.1)">
      <defs>
       <path id="DejaVuSans-6e" d="M 3513 2113 
L 3513 0 
L 2938 0 
L 2938 2094 
Q 2938 2591 2744 2837 
Q 2550 3084 2163 3084 
Q 1697 3084 1428 2787 
Q 1159 2491 1159 1978 
L 1159 0 
L 581 0 
L 581 3500 
L 1159 3500 
L 1159 2956 
Q 1366 3272 1645 3428 
Q 1925 3584 2291 3584 
Q 2894 3584 3203 3211 
Q 3513 2838 3513 2113 
z
" transform="scale(0.015625)"/>
       <path id="DejaVuSans-20" transform="scale(0.015625)"/>
       <path id="DejaVuSans-72" d="M 2631 2963 
Q 2534 3019 2420 3045 
Q 2306 3072 2169 3072 
Q 1681 3072 1420 2755 
Q 1159 2438 1159 1844 
L 1159 0 
L 581 0 
L 581 3500 
L 1159 3500 
L 1159 2956 
Q 1341 3275 1631 3429 
Q 1922 3584 2338 3584 
Q 2397 3584 2469 3576 
Q 2541 3569 2628 3553 
L 2631 2963 
z
" transform="scale(0.015625)"/>
       <path id="DejaVuSans-75" d="M 544 1381 
L 544 3500 
L 1119 3500 
L 1119 1403 
Q 1119 906 1312 657 
Q 1506 409 1894 409 
Q 2359 409 2629 706 
Q 2900 1003 2900 1516 
L 2900 3500 
L 3475 3500 
L 3475 0 
L 2900 0 
L 2900 538 
Q 2691 219 2414 64 
Q 2138 -91 1772 -91 
Q 1169 -91 856 284 
Q 544 659 544 1381 
z
M 1991 3584 
L 1991 3584 
z
" transform="scale(0.015625)"/>
       <path id="DejaVuSans-73" d="M 2834 3397 
L 2834 2853 
Q 2591 2978 2328 3040 
Q 2066 3103 1784 3103 
Q 1356 3103 1142 2972 
Q 928 2841 928 2578 
Q 928 2378 1081 2264 
Q 1234 2150 1697 2047 
L 1894 2003 
Q 2506 1872 2764 1633 
Q 3022 1394 3022 966 
Q 3022 478 2636 193 
Q 2250 -91 1575 -91 
Q 1294 -91 989 -36 
Q 684 19 347 128 
L 347 722 
Q 666 556 975 473 
Q 1284 391 1588 391 
Q 1994 391 2212 530 
Q 2431 669 2431 922 
Q 2431 1156 2273 1281 
Q 2116 1406 1581 1522 
L 1381 1569 
Q 847 1681 609 1914 
Q 372 2147 372 2553 
Q 372 3047 722 3315 
Q 1072 3584 1716 3584 
Q 2034 3584 2315 3537 
Q 2597 3491 2834 3397 
z
" transform="scale(0.015625)"/>
      </defs>
      <use xlink:href="#DejaVuSans-6e"/>
      <use xlink:href="#DejaVuSans-20" transform="translate(63.378906 0)"/>
      <use xlink:href="#DejaVuSans-72" transform="translate(95.166016 0)"/>
      <use xlink:href="#DejaVuSans-75" transform="translate(136.279297 0)"/>
      <use xlink:href="#DejaVuSans-6e" transform="translate(199.658203 0)"/>
      <use xlink:href="#DejaVuSans-73" transform="translate(263.037109 0)"/>
     </g>
    </g>
   </g>
   <g id="matplotlib.axis_2">
    <g id="ytick_1">
     <g id="line2d_7">
      <defs>
       <path id="m3a19b8aab2" d="M 0 0 
L -3.5 0 
" style="stroke: #000000; stroke-width: 0.8"/>
      </defs>
      <g>
       <use xlink:href="#m3a19b8aab2" x="50.565625" y="291.472291" style="stroke: #000000; stroke-width: 0.8"/>
      </g>
     </g>
     <g id="text_8">
      <!-- 0 -->
      <g transform="translate(37.203125 295.27151) scale(0.1 -0.1)">
       <use xlink:href="#DejaVuSans-30"/>
      </g>
     </g>
    </g>
    <g id="ytick_2">
     <g id="line2d_8">
      <g>
       <use xlink:href="#m3a19b8aab2" x="50.565625" y="253.87386" style="stroke: #000000; stroke-width: 0.8"/>
      </g>
     </g>
     <g id="text_9">
      <!-- 100 -->
      <g transform="translate(24.478125 257.673078) scale(0.1 -0.1)">
       <use xlink:href="#DejaVuSans-31"/>
       <use xlink:href="#DejaVuSans-30" transform="translate(63.623047 0)"/>
       <use xlink:href="#DejaVuSans-30" transform="translate(127.246094 0)"/>
      </g>
     </g>
    </g>
    <g id="ytick_3">
     <g id="line2d_9">
      <g>
       <use xlink:href="#m3a19b8aab2" x="50.565625" y="216.275428" style="stroke: #000000; stroke-width: 0.8"/>
      </g>
     </g>
     <g id="text_10">
      <!-- 200 -->
      <g transform="translate(24.478125 220.074647) scale(0.1 -0.1)">
       <use xlink:href="#DejaVuSans-32"/>
       <use xlink:href="#DejaVuSans-30" transform="translate(63.623047 0)"/>
       <use xlink:href="#DejaVuSans-30" transform="translate(127.246094 0)"/>
      </g>
     </g>
    </g>
    <g id="ytick_4">
     <g id="line2d_10">
      <g>
       <use xlink:href="#m3a19b8aab2" x="50.565625" y="178.676997" style="stroke: #000000; stroke-width: 0.8"/>
      </g>
     </g>
     <g id="text_11">
      <!-- 300 -->
      <g transform="translate(24.478125 182.476215) scale(0.1 -0.1)">
       <defs>
        <path id="DejaVuSans-33" d="M 2597 2516 
Q 3050 2419 3304 2112 
Q 3559 1806 3559 1356 
Q 3559 666 3084 287 
Q 2609 -91 1734 -91 
Q 1441 -91 1130 -33 
Q 819 25 488 141 
L 488 750 
Q 750 597 1062 519 
Q 1375 441 1716 441 
Q 2309 441 2620 675 
Q 2931 909 2931 1356 
Q 2931 1769 2642 2001 
Q 2353 2234 1838 2234 
L 1294 2234 
L 1294 2753 
L 1863 2753 
Q 2328 2753 2575 2939 
Q 2822 3125 2822 3475 
Q 2822 3834 2567 4026 
Q 2313 4219 1838 4219 
Q 1578 4219 1281 4162 
Q 984 4106 628 3988 
L 628 4550 
Q 988 4650 1302 4700 
Q 1616 4750 1894 4750 
Q 2613 4750 3031 4423 
Q 3450 4097 3450 3541 
Q 3450 3153 3228 2886 
Q 3006 2619 2597 2516 
z
" transform="scale(0.015625)"/>
       </defs>
       <use xlink:href="#DejaVuSans-33"/>
       <use xlink:href="#DejaVuSans-30" transform="translate(63.623047 0)"/>
       <use xlink:href="#DejaVuSans-30" transform="translate(127.246094 0)"/>
      </g>
     </g>
    </g>
    <g id="ytick_5">
     <g id="line2d_11">
      <g>
       <use xlink:href="#m3a19b8aab2" x="50.565625" y="141.078565" style="stroke: #000000; stroke-width: 0.8"/>
      </g>
     </g>
     <g id="text_12">
      <!-- 400 -->
      <g transform="translate(24.478125 144.877784) scale(0.1 -0.1)">
       <use xlink:href="#DejaVuSans-34"/>
       <use xlink:href="#DejaVuSans-30" transform="translate(63.623047 0)"/>
       <use xlink:href="#DejaVuSans-30" transform="translate(127.246094 0)"/>
      </g>
     </g>
    </g>
    <g id="ytick_6">
     <g id="line2d_12">
      <g>
       <use xlink:href="#m3a19b8aab2" x="50.565625" y="103.480134" style="stroke: #000000; stroke-width: 0.8"/>
      </g>
     </g>
     <g id="text_13">
      <!-- 500 -->
      <g transform="translate(24.478125 107.279352) scale(0.1 -0.1)">
       <defs>
        <path id="DejaVuSans-35" d="M 691 4666 
L 3169 4666 
L 3169 4134 
L 1269 4134 
L 1269 2991 
Q 1406 3038 1543 3061 
Q 1681 3084 1819 3084 
Q 2600 3084 3056 2656 
Q 3513 2228 3513 1497 
Q 3513 744 3044 326 
Q 2575 -91 1722 -91 
Q 1428 -91 1123 -41 
Q 819 9 494 109 
L 494 744 
Q 775 591 1075 516 
Q 1375 441 1709 441 
Q 2250 441 2565 725 
Q 2881 1009 2881 1497 
Q 2881 1984 2565 2268 
Q 2250 2553 1709 2553 
Q 1456 2553 1204 2497 
Q 953 2441 691 2322 
L 691 4666 
z
" transform="scale(0.015625)"/>
       </defs>
       <use xlink:href="#DejaVuSans-35"/>
       <use xlink:href="#DejaVuSans-30" transform="translate(63.623047 0)"/>
       <use xlink:href="#DejaVuSans-30" transform="translate(127.246094 0)"/>
      </g>
     </g>
    </g>
    <g id="ytick_7">
     <g id="line2d_13">
      <g>
       <use xlink:href="#m3a19b8aab2" x="50.565625" y="65.881702" style="stroke: #000000; stroke-width: 0.8"/>
      </g>
     </g>
     <g id="text_14">
      <!-- 600 -->
      <g transform="translate(24.478125 69.680921) scale(0.1 -0.1)">
       <use xlink:href="#DejaVuSans-36"/>
       <use xlink:href="#DejaVuSans-30" transform="translate(63.623047 0)"/>
       <use xlink:href="#DejaVuSans-30" transform="translate(127.246094 0)"/>
      </g>
     </g>
    </g>
    <g id="ytick_8">
     <g id="line2d_14">
      <g>
       <use xlink:href="#m3a19b8aab2" x="50.565625" y="28.283271" style="stroke: #000000; stroke-width: 0.8"/>
      </g>
     </g>
     <g id="text_15">
      <!-- 700 -->
      <g transform="translate(24.478125 32.082489) scale(0.1 -0.1)">
       <defs>
        <path id="DejaVuSans-37" d="M 525 4666 
L 3525 4666 
L 3525 4397 
L 1831 0 
L 1172 0 
L 2766 4134 
L 525 4134 
L 525 4666 
z
" transform="scale(0.015625)"/>
       </defs>
       <use xlink:href="#DejaVuSans-37"/>
       <use xlink:href="#DejaVuSans-30" transform="translate(63.623047 0)"/>
       <use xlink:href="#DejaVuSans-30" transform="translate(127.246094 0)"/>
      </g>
     </g>
    </g>
    <g id="text_16">
     <!-- time (ms) -->
     <g transform="translate(18.398438 181.883594) rotate(-90) scale(0.1 -0.1)">
      <defs>
       <path id="DejaVuSans-74" d="M 1172 4494 
L 1172 3500 
L 2356 3500 
L 2356 3053 
L 1172 3053 
L 1172 1153 
Q 1172 725 1289 603 
Q 1406 481 1766 481 
L 2356 481 
L 2356 0 
L 1766 0 
Q 1100 0 847 248 
Q 594 497 594 1153 
L 594 3053 
L 172 3053 
L 172 3500 
L 594 3500 
L 594 4494 
L 1172 4494 
z
" transform="scale(0.015625)"/>
       <path id="DejaVuSans-69" d="M 603 3500 
L 1178 3500 
L 1178 0 
L 603 0 
L 603 3500 
z
M 603 4863 
L 1178 4863 
L 1178 4134 
L 603 4134 
L 603 4863 
z
" transform="scale(0.015625)"/>
       <path id="DejaVuSans-6d" d="M 3328 2828 
Q 3544 3216 3844 3400 
Q 4144 3584 4550 3584 
Q 5097 3584 5394 3201 
Q 5691 2819 5691 2113 
L 5691 0 
L 5113 0 
L 5113 2094 
Q 5113 2597 4934 2840 
Q 4756 3084 4391 3084 
Q 3944 3084 3684 2787 
Q 3425 2491 3425 1978 
L 3425 0 
L 2847 0 
L 2847 2094 
Q 2847 2600 2669 2842 
Q 2491 3084 2119 3084 
Q 1678 3084 1418 2786 
Q 1159 2488 1159 1978 
L 1159 0 
L 581 0 
L 581 3500 
L 1159 3500 
L 1159 2956 
Q 1356 3278 1631 3431 
Q 1906 3584 2284 3584 
Q 2666 3584 2933 3390 
Q 3200 3197 3328 2828 
z
" transform="scale(0.015625)"/>
       <path id="DejaVuSans-65" d="M 3597 1894 
L 3597 1613 
L 953 1613 
Q 991 1019 1311 708 
Q 1631 397 2203 397 
Q 2534 397 2845 478 
Q 3156 559 3463 722 
L 3463 178 
Q 3153 47 2828 -22 
Q 2503 -91 2169 -91 
Q 1331 -91 842 396 
Q 353 884 353 1716 
Q 353 2575 817 3079 
Q 1281 3584 2069 3584 
Q 2775 3584 3186 3129 
Q 3597 2675 3597 1894 
z
M 3022 2063 
Q 3016 2534 2758 2815 
Q 2500 3097 2075 3097 
Q 1594 3097 1305 2825 
Q 1016 2553 972 2059 
L 3022 2063 
z
" transform="scale(0.015625)"/>
       <path id="DejaVuSans-28" d="M 1984 4856 
Q 1566 4138 1362 3434 
Q 1159 2731 1159 2009 
Q 1159 1288 1364 580 
Q 1569 -128 1984 -844 
L 1484 -844 
Q 1016 -109 783 600 
Q 550 1309 550 2009 
Q 550 2706 781 3412 
Q 1013 4119 1484 4856 
L 1984 4856 
z
" transform="scale(0.015625)"/>
       <path id="DejaVuSans-29" d="M 513 4856 
L 1013 4856 
Q 1481 4119 1714 3412 
Q 1947 2706 1947 2009 
Q 1947 1309 1714 600 
Q 1481 -109 1013 -844 
L 513 -844 
Q 928 -128 1133 580 
Q 1338 1288 1338 2009 
Q 1338 2731 1133 3434 
Q 928 4138 513 4856 
z
" transform="scale(0.015625)"/>
      </defs>
      <use xlink:href="#DejaVuSans-74"/>
      <use xlink:href="#DejaVuSans-69" transform="translate(39.208984 0)"/>
      <use xlink:href="#DejaVuSans-6d" transform="translate(66.992188 0)"/>
      <use xlink:href="#DejaVuSans-65" transform="translate(164.404297 0)"/>
      <use xlink:href="#DejaVuSans-20" transform="translate(225.927734 0)"/>
      <use xlink:href="#DejaVuSans-28" transform="translate(257.714844 0)"/>
      <use xlink:href="#DejaVuSans-6d" transform="translate(296.728516 0)"/>
      <use xlink:href="#DejaVuSans-73" transform="translate(394.140625 0)"/>
      <use xlink:href="#DejaVuSans-29" transform="translate(446.240234 0)"/>
     </g>
    </g>
   </g>
   <g id="line2d_15">
    <path d="M 65.763665 273.04906 
L 66.037257 274.177013 
L 66.341248 271.169138 
L 66.645239 273.801028 
L 66.94923 273.04906 
L 67.253222 273.04906 
L 67.557213 272.673075 
L 67.861204 272.297091 
L 68.165195 271.921107 
L 68.469186 271.921107 
L 68.773178 271.545122 
L 71.81309 269.665201 
L 74.853001 266.657326 
L 77.892913 266.657326 
L 80.932825 265.905358 
L 83.972737 264.025436 
L 87.012649 264.025436 
L 90.052561 262.897483 
L 93.092473 261.393546 
L 96.132385 261.017562 
L 99.172297 260.265593 
L 102.212209 259.13764 
L 105.252121 259.13764 
L 108.292033 257.633703 
L 111.331945 257.257718 
L 114.371857 257.257718 
L 117.411769 255.753781 
L 120.451681 256.50575 
L 123.491593 255.377797 
L 126.531505 253.87386 
L 129.571417 253.121891 
L 132.611328 252.745907 
L 135.65124 252.369922 
L 138.691152 252.745907 
L 141.731064 252.745907 
L 144.770976 251.617954 
L 147.810888 250.865985 
L 150.8508 250.114016 
L 153.890712 251.617954 
L 156.930624 251.241969 
L 159.970536 250.114016 
L 163.010448 250.114016 
L 166.05036 250.490001 
L 169.090272 250.490001 
L 172.130184 249.362048 
L 175.170096 249.362048 
L 178.210008 247.858111 
L 181.24992 247.106142 
L 184.289832 248.986064 
L 187.329743 248.234095 
L 190.369655 249.738032 
L 193.409567 248.234095 
L 196.449479 248.610079 
L 199.489391 248.234095 
L 202.529303 248.234095 
L 205.569215 248.234095 
L 208.609127 248.610079 
L 211.649039 249.362048 
L 214.688951 247.106142 
L 217.728863 247.106142 
L 220.768775 246.730158 
L 223.808687 247.482126 
L 226.848599 245.978189 
L 229.888511 246.730158 
L 232.928423 245.602205 
L 235.968335 246.730158 
L 239.008247 246.730158 
L 242.048159 246.730158 
L 245.08807 245.22622 
L 248.127982 242.59433 
L 251.167894 245.978189 
L 254.207806 243.722283 
L 257.247718 245.22622 
L 260.28763 244.850236 
L 263.327542 245.22622 
L 266.367454 242.970315 
L 269.407366 244.850236 
L 272.447278 245.602205 
L 275.48719 243.346299 
L 278.527102 244.098267 
L 281.567014 244.098267 
L 284.606926 243.346299 
L 287.646838 240.714409 
L 290.68675 244.474252 
L 293.726662 243.722283 
L 296.766574 242.970315 
L 299.806485 243.346299 
L 302.846397 242.218346 
L 305.886309 242.970315 
L 308.926221 242.59433 
L 311.966133 239.96244 
L 315.006045 241.090393 
L 318.045957 241.466377 
L 321.085869 242.59433 
L 324.125781 241.466377 
L 327.165693 241.842362 
L 330.205605 240.714409 
L 333.245517 240.714409 
L 336.285429 240.714409 
L 339.325341 238.458503 
L 342.365253 240.714409 
L 345.405165 240.338424 
L 348.445077 240.714409 
L 351.484989 239.96244 
L 354.5249 239.210471 
L 357.564812 238.834487 
L 360.604724 240.338424 
L 363.644636 239.586456 
L 366.684548 240.338424 
L 369.72446 224.547083 
" clip-path="url(#p4ba4127c9a)" style="fill: none; stroke: #1f77b4; stroke-width: 1.5; stroke-linecap: square"/>
   </g>
   <g id="line2d_16">
    <path d="M 65.763665 288.840401 
L 66.037257 288.464417 
L 66.341248 288.464417 
L 66.645239 288.464417 
L 66.94923 287.712448 
L 67.253222 287.712448 
L 67.557213 287.712448 
L 67.861204 287.336464 
L 68.165195 286.960479 
L 68.469186 286.960479 
L 68.773178 286.960479 
L 71.81309 285.080558 
L 74.853001 283.952605 
L 77.892913 283.200636 
L 80.932825 282.072683 
L 83.972737 281.696699 
L 87.012649 277.936856 
L 90.052561 279.440793 
L 93.092473 277.936856 
L 96.132385 276.056934 
L 99.172297 276.808903 
L 102.212209 277.184887 
L 105.252121 277.560871 
L 108.292033 276.808903 
L 111.331945 255.753781 
L 114.371857 277.560871 
L 117.411769 274.552997 
L 120.451681 276.056934 
L 123.491593 275.68095 
L 126.531505 275.304966 
L 129.571417 272.673075 
L 132.611328 275.68095 
L 135.65124 274.928981 
L 138.691152 274.928981 
L 141.731064 275.304966 
L 144.770976 275.304966 
L 147.810888 274.552997 
L 150.8508 274.177013 
L 153.890712 274.177013 
L 156.930624 271.921107 
L 159.970536 272.673075 
L 163.010448 271.545122 
L 166.05036 271.921107 
L 169.090272 271.921107 
L 172.130184 268.537248 
L 175.170096 270.793154 
L 178.210008 270.793154 
L 181.24992 269.665201 
L 184.289832 269.665201 
L 187.329743 270.041185 
L 190.369655 270.041185 
L 193.409567 271.169138 
L 196.449479 267.033311 
L 199.489391 271.169138 
L 202.529303 270.417169 
L 205.569215 269.289217 
L 208.609127 269.665201 
L 211.649039 268.161264 
L 214.688951 269.289217 
L 217.728863 269.665201 
L 220.768775 268.537248 
L 223.808687 268.913232 
L 226.848599 267.409295 
L 229.888511 266.281342 
L 232.928423 268.537248 
L 235.968335 268.161264 
L 239.008247 266.281342 
L 242.048159 266.657326 
L 245.08807 267.409295 
L 248.127982 265.905358 
L 251.167894 263.649452 
L 254.207806 267.033311 
L 257.247718 265.905358 
L 260.28763 265.153389 
L 263.327542 265.905358 
L 266.367454 264.777405 
L 269.407366 266.281342 
L 272.447278 265.529373 
L 275.48719 264.40142 
L 278.527102 262.521499 
L 281.567014 264.40142 
L 284.606926 263.649452 
L 287.646838 260.641577 
L 290.68675 264.40142 
L 293.726662 263.649452 
L 296.766574 264.40142 
L 299.806485 264.025436 
L 302.846397 264.025436 
L 305.886309 262.145515 
L 308.926221 263.649452 
L 311.966133 263.649452 
L 315.006045 264.025436 
L 318.045957 262.521499 
L 321.085869 262.145515 
L 324.125781 262.897483 
L 327.165693 262.897483 
L 330.205605 260.641577 
L 333.245517 261.393546 
L 336.285429 262.145515 
L 339.325341 259.889609 
L 342.365253 261.76953 
L 345.405165 262.145515 
L 348.445077 260.641577 
L 351.484989 261.017562 
L 354.5249 261.017562 
L 357.564812 259.513624 
L 360.604724 260.265593 
L 363.644636 259.13764 
L 366.684548 259.13764 
L 369.72446 257.257718 
" clip-path="url(#p4ba4127c9a)" style="fill: none; stroke: #ff7f0e; stroke-width: 1.5; stroke-linecap: square"/>
   </g>
   <g id="line2d_17">
    <path d="M 65.763665 285.080558 
L 66.037257 284.704573 
L 66.341248 284.704573 
L 66.645239 283.952605 
L 66.94923 283.952605 
L 67.253222 282.824652 
L 67.557213 283.200636 
L 67.861204 283.200636 
L 68.165195 282.824652 
L 68.469186 282.448668 
L 68.773178 282.448668 
L 71.81309 279.440793 
L 74.853001 277.184887 
L 77.892913 275.68095 
L 80.932825 273.801028 
L 83.972737 272.297091 
L 87.012649 270.417169 
L 90.052561 269.665201 
L 93.092473 267.785279 
L 96.132385 267.033311 
L 99.172297 265.153389 
L 102.212209 265.153389 
L 105.252121 262.897483 
L 108.292033 262.145515 
L 111.331945 261.393546 
L 114.371857 259.13764 
L 117.411769 260.641577 
L 120.451681 257.633703 
L 123.491593 258.761656 
L 126.531505 256.50575 
L 129.571417 256.881734 
L 132.611328 256.129766 
L 135.65124 255.377797 
L 138.691152 255.753781 
L 141.731064 254.249844 
L 144.770976 253.87386 
L 147.810888 247.482126 
L 150.8508 250.865985 
L 153.890712 250.865985 
L 156.930624 242.218346 
L 159.970536 248.986064 
L 163.010448 248.610079 
L 166.05036 247.858111 
L 169.090272 248.234095 
L 172.130184 246.730158 
L 175.170096 246.354173 
L 178.210008 244.474252 
L 181.24992 244.850236 
L 184.289832 242.970315 
L 187.329743 243.722283 
L 190.369655 239.96244 
L 193.409567 241.842362 
L 196.449479 241.842362 
L 199.489391 240.714409 
L 202.529303 240.338424 
L 205.569215 236.954565 
L 208.609127 231.314801 
L 211.649039 237.33055 
L 214.688951 235.826613 
L 217.728863 234.322675 
L 220.768775 233.946691 
L 223.808687 233.570707 
L 226.848599 233.194722 
L 229.888511 232.066769 
L 232.928423 232.818738 
L 235.968335 231.314801 
L 239.008247 229.434879 
L 242.048159 228.682911 
L 245.08807 227.554958 
L 248.127982 226.427005 
L 251.167894 226.05102 
L 254.207806 223.043146 
L 257.247718 226.05102 
L 260.28763 223.41913 
L 263.327542 218.907318 
L 266.367454 221.163224 
L 269.407366 223.795114 
L 272.447278 221.915193 
L 275.48719 220.035271 
L 278.527102 215.52346 
L 281.567014 218.531334 
L 284.606926 217.779365 
L 287.646838 217.403381 
L 290.68675 218.907318 
L 293.726662 216.275428 
L 296.766574 217.403381 
L 299.806485 216.275428 
L 302.846397 214.771491 
L 305.886309 214.395507 
L 308.926221 213.643538 
L 311.966133 213.643538 
L 315.006045 211.763616 
L 318.045957 211.387632 
L 321.085869 211.387632 
L 324.125781 211.387632 
L 327.165693 209.883695 
L 330.205605 210.635663 
L 333.245517 209.131726 
L 336.285429 208.379758 
L 339.325341 208.003773 
L 342.365253 207.627789 
L 345.405165 205.371883 
L 348.445077 204.619914 
L 351.484989 204.619914 
L 354.5249 203.867946 
L 357.564812 201.236056 
L 360.604724 201.61204 
L 363.644636 201.61204 
L 366.684548 202.739993 
L 369.72446 196.348259 
" clip-path="url(#p4ba4127c9a)" style="fill: none; stroke: #2ca02c; stroke-width: 1.5; stroke-linecap: square"/>
   </g>
   <g id="line2d_18">
    <path d="M 65.763665 81.673043 
L 66.037257 79.417137 
L 66.341248 74.905326 
L 66.645239 73.401388 
L 66.94923 73.025404 
L 67.253222 78.289185 
L 67.557213 74.529341 
L 67.861204 79.417137 
L 68.165195 72.273435 
L 68.469186 74.529341 
L 68.773178 77.9132 
L 71.81309 73.777373 
L 74.853001 68.137608 
L 77.892913 24.147443 
L 80.932825 71.521467 
L 83.972737 72.273435 
L 87.012649 51.594298 
L 90.052561 38.058863 
L 93.092473 66.257686 
L 96.132385 64.753749 
L 99.172297 59.113984 
L 102.212209 63.625796 
L 105.252121 47.834455 
L 108.292033 51.218314 
L 111.331945 31.291145 
L 114.371857 67.009655 
L 117.411769 62.121859 
L 120.451681 67.385639 
L 123.491593 63.249812 
L 126.531505 71.521467 
L 129.571417 70.01753 
L 132.611328 71.145483 
L 135.65124 67.009655 
L 138.691152 65.129734 
L 141.731064 72.64942 
L 144.770976 66.633671 
L 147.810888 68.889577 
L 150.8508 69.265561 
L 153.890712 67.009655 
L 156.930624 66.633671 
L 159.970536 68.513592 
L 163.010448 70.393514 
L 166.05036 64.753749 
L 169.090272 68.513592 
L 172.130184 66.257686 
L 175.170096 68.137608 
L 178.210008 65.129734 
L 181.24992 69.641545 
L 184.289832 65.505718 
L 187.329743 67.385639 
L 190.369655 64.377765 
L 193.409567 69.265561 
L 196.449479 63.625796 
L 199.489391 65.505718 
L 202.529303 67.009655 
L 205.569215 68.137608 
L 208.609127 71.521467 
L 211.649039 71.521467 
L 214.688951 68.513592 
L 217.728863 68.889577 
L 220.768775 68.513592 
L 223.808687 68.513592 
L 226.848599 55.730126 
L 229.888511 64.753749 
L 232.928423 68.137608 
L 235.968335 67.009655 
L 239.008247 67.385639 
L 242.048159 59.489969 
L 245.08807 56.10611 
L 248.127982 59.489969 
L 251.167894 61.36989 
L 254.207806 61.745875 
L 257.247718 63.249812 
L 260.28763 60.241937 
L 263.327542 64.753749 
L 266.367454 56.10611 
L 269.407366 59.865953 
L 272.447278 60.617922 
L 275.48719 59.113984 
L 278.527102 61.36989 
L 281.567014 62.497843 
L 284.606926 60.617922 
L 287.646838 60.993906 
L 290.68675 62.121859 
L 293.726662 65.129734 
L 296.766574 67.761624 
L 299.806485 67.761624 
L 302.846397 62.497843 
L 305.886309 66.633671 
L 308.926221 57.610047 
L 311.966133 69.641545 
L 315.006045 64.001781 
L 318.045957 64.753749 
L 321.085869 66.257686 
L 324.125781 62.497843 
L 327.165693 65.505718 
L 330.205605 62.121859 
L 333.245517 64.001781 
L 336.285429 62.873828 
L 339.325341 64.377765 
L 342.365253 54.226188 
L 345.405165 60.241937 
L 348.445077 59.865953 
L 351.484989 58.738 
L 354.5249 65.129734 
L 357.564812 41.818706 
L 360.604724 65.505718 
L 363.644636 57.610047 
L 366.684548 57.986032 
L 369.72446 56.482094 
" clip-path="url(#p4ba4127c9a)" style="fill: none; stroke: #d62728; stroke-width: 1.5; stroke-linecap: square"/>
   </g>
   <g id="line2d_19">
    <path d="M 65.763665 290.344338 
L 66.037257 289.216385 
L 66.341248 289.216385 
L 66.645239 289.216385 
L 66.94923 289.216385 
L 67.253222 288.840401 
L 67.557213 288.840401 
L 67.861204 288.464417 
L 68.165195 288.464417 
L 68.469186 288.464417 
L 68.773178 288.464417 
L 71.81309 286.960479 
L 74.853001 286.208511 
L 77.892913 285.456542 
L 80.932825 285.080558 
L 83.972737 284.328589 
L 87.012649 283.576621 
L 90.052561 283.952605 
L 93.092473 283.200636 
L 96.132385 282.824652 
L 99.172297 281.696699 
L 102.212209 282.072683 
L 105.252121 282.072683 
L 108.292033 279.440793 
L 111.331945 280.568746 
L 114.371857 280.94473 
L 117.411769 281.320715 
L 120.451681 280.568746 
L 123.491593 280.94473 
L 126.531505 276.056934 
L 129.571417 280.192762 
L 132.611328 280.192762 
L 135.65124 279.816777 
L 138.691152 279.816777 
L 141.731064 279.440793 
L 144.770976 279.816777 
L 147.810888 279.816777 
L 150.8508 279.440793 
L 153.890712 279.440793 
L 156.930624 278.688824 
L 159.970536 278.688824 
L 163.010448 278.688824 
L 166.05036 279.064809 
L 169.090272 278.31284 
L 172.130184 277.936856 
L 175.170096 278.31284 
L 178.210008 277.936856 
L 181.24992 277.560871 
L 184.289832 278.31284 
L 187.329743 277.184887 
L 190.369655 274.928981 
L 193.409567 276.808903 
L 196.449479 277.184887 
L 199.489391 277.184887 
L 202.529303 277.184887 
L 205.569215 276.808903 
L 208.609127 277.184887 
L 211.649039 276.432919 
L 214.688951 276.432919 
L 217.728863 276.432919 
L 220.768775 275.68095 
L 223.808687 276.432919 
L 226.848599 275.68095 
L 229.888511 276.056934 
L 232.928423 275.304966 
L 235.968335 276.056934 
L 239.008247 275.304966 
L 242.048159 275.304966 
L 245.08807 274.552997 
L 248.127982 274.177013 
L 251.167894 275.304966 
L 254.207806 274.928981 
L 257.247718 274.177013 
L 260.28763 274.177013 
L 263.327542 273.801028 
L 266.367454 273.425044 
L 269.407366 273.801028 
L 272.447278 273.801028 
L 275.48719 273.04906 
L 278.527102 273.04906 
L 281.567014 273.425044 
L 284.606926 273.425044 
L 287.646838 273.04906 
L 290.68675 273.04906 
L 293.726662 273.04906 
L 296.766574 272.297091 
L 299.806485 272.673075 
L 302.846397 272.673075 
L 305.886309 272.673075 
L 308.926221 273.04906 
L 311.966133 272.673075 
L 315.006045 272.297091 
L 318.045957 271.545122 
L 321.085869 271.545122 
L 324.125781 271.921107 
L 327.165693 271.545122 
L 330.205605 270.793154 
L 333.245517 271.921107 
L 336.285429 265.529373 
L 339.325341 270.793154 
L 342.365253 270.793154 
L 345.405165 271.169138 
L 348.445077 270.793154 
L 351.484989 270.417169 
L 354.5249 270.793154 
L 357.564812 270.041185 
L 360.604724 270.041185 
L 363.644636 269.665201 
L 366.684548 255.001813 
L 369.72446 269.289217 
" clip-path="url(#p4ba4127c9a)" style="fill: none; stroke: #9467bd; stroke-width: 1.5; stroke-linecap: square"/>
   </g>
   <g id="line2d_20">
    <path d="M 65.763665 283.952605 
L 66.037257 283.952605 
L 66.341248 283.952605 
L 66.645239 283.576621 
L 66.94923 283.952605 
L 67.253222 283.200636 
L 67.557213 282.824652 
L 67.861204 283.200636 
L 68.165195 282.824652 
L 68.469186 282.824652 
L 68.773178 282.824652 
L 71.81309 280.94473 
L 74.853001 280.192762 
L 77.892913 279.064809 
L 80.932825 278.688824 
L 83.972737 278.31284 
L 87.012649 277.184887 
L 90.052561 276.432919 
L 93.092473 276.432919 
L 96.132385 275.304966 
L 99.172297 275.68095 
L 102.212209 275.304966 
L 105.252121 275.68095 
L 108.292033 245.602205 
L 111.331945 273.425044 
L 114.371857 274.177013 
L 117.411769 274.177013 
L 120.451681 274.177013 
L 123.491593 272.673075 
L 126.531505 274.177013 
L 129.571417 273.801028 
L 132.611328 272.673075 
L 135.65124 272.673075 
L 138.691152 271.545122 
L 141.731064 272.673075 
L 144.770976 272.673075 
L 147.810888 273.04906 
L 150.8508 273.04906 
L 153.890712 272.673075 
L 156.930624 272.297091 
L 159.970536 272.297091 
L 163.010448 271.921107 
L 166.05036 271.921107 
L 169.090272 272.297091 
L 172.130184 271.545122 
L 175.170096 270.793154 
L 178.210008 271.921107 
L 181.24992 271.545122 
L 184.289832 270.793154 
L 187.329743 271.921107 
L 190.369655 271.545122 
L 193.409567 271.169138 
L 196.449479 271.545122 
L 199.489391 271.545122 
L 202.529303 271.545122 
L 205.569215 270.793154 
L 208.609127 272.297091 
L 211.649039 271.169138 
L 214.688951 270.417169 
L 217.728863 271.169138 
L 220.768775 270.417169 
L 223.808687 270.793154 
L 226.848599 270.793154 
L 229.888511 269.665201 
L 232.928423 269.665201 
L 235.968335 269.289217 
L 239.008247 270.041185 
L 242.048159 269.665201 
L 245.08807 268.913232 
L 248.127982 268.537248 
L 251.167894 269.289217 
L 254.207806 268.161264 
L 257.247718 268.537248 
L 260.28763 266.281342 
L 263.327542 267.785279 
L 266.367454 268.161264 
L 269.407366 267.033311 
L 272.447278 267.033311 
L 275.48719 267.033311 
L 278.527102 267.409295 
L 281.567014 266.281342 
L 284.606926 267.033311 
L 287.646838 267.409295 
L 290.68675 267.033311 
L 293.726662 267.409295 
L 296.766574 266.657326 
L 299.806485 267.409295 
L 302.846397 266.657326 
L 305.886309 265.529373 
L 308.926221 267.033311 
L 311.966133 267.033311 
L 315.006045 265.905358 
L 318.045957 265.529373 
L 321.085869 266.657326 
L 324.125781 266.281342 
L 327.165693 265.153389 
L 330.205605 267.785279 
L 333.245517 261.393546 
L 336.285429 267.033311 
L 339.325341 266.281342 
L 342.365253 265.529373 
L 345.405165 266.657326 
L 348.445077 265.153389 
L 351.484989 264.025436 
L 354.5249 266.657326 
L 357.564812 265.153389 
L 360.604724 265.905358 
L 363.644636 265.153389 
L 366.684548 264.777405 
L 369.72446 258.761656 
" clip-path="url(#p4ba4127c9a)" style="fill: none; stroke: #8c564b; stroke-width: 1.5; stroke-linecap: square"/>
   </g>
   <g id="line2d_21">
    <path d="M 65.763665 288.464417 
L 66.037257 288.840401 
L 66.341248 288.840401 
L 66.645239 288.840401 
L 66.94923 288.464417 
L 67.253222 288.464417 
L 67.557213 288.464417 
L 67.861204 288.464417 
L 68.165195 288.088432 
L 68.469186 288.088432 
L 68.773178 288.088432 
L 71.81309 287.336464 
L 74.853001 286.584495 
L 77.892913 286.584495 
L 80.932825 286.208511 
L 83.972737 285.832526 
L 87.012649 285.832526 
L 90.052561 285.456542 
L 93.092473 283.952605 
L 96.132385 285.080558 
L 99.172297 285.080558 
L 102.212209 285.080558 
L 105.252121 284.328589 
L 108.292033 284.328589 
L 111.331945 284.328589 
L 114.371857 284.328589 
L 117.411769 283.952605 
L 120.451681 283.952605 
L 123.491593 284.328589 
L 126.531505 283.952605 
L 129.571417 283.952605 
L 132.611328 283.576621 
L 135.65124 283.576621 
L 138.691152 283.576621 
L 141.731064 283.576621 
L 144.770976 283.576621 
L 147.810888 283.576621 
L 150.8508 283.200636 
L 153.890712 282.824652 
L 156.930624 282.824652 
L 159.970536 283.576621 
L 163.010448 282.824652 
L 166.05036 282.824652 
L 169.090272 282.824652 
L 172.130184 282.072683 
L 175.170096 283.200636 
L 178.210008 282.824652 
L 181.24992 282.448668 
L 184.289832 282.824652 
L 187.329743 282.072683 
L 190.369655 282.072683 
L 193.409567 281.696699 
L 196.449479 282.072683 
L 199.489391 282.448668 
L 202.529303 282.072683 
L 205.569215 282.072683 
L 208.609127 282.072683 
L 211.649039 282.072683 
L 214.688951 281.696699 
L 217.728863 281.696699 
L 220.768775 281.696699 
L 223.808687 281.696699 
L 226.848599 281.696699 
L 229.888511 281.320715 
L 232.928423 281.320715 
L 235.968335 281.320715 
L 239.008247 281.320715 
L 242.048159 280.568746 
L 245.08807 280.192762 
L 248.127982 281.320715 
L 251.167894 280.94473 
L 254.207806 280.94473 
L 257.247718 280.192762 
L 260.28763 280.568746 
L 263.327542 280.568746 
L 266.367454 279.816777 
L 269.407366 279.816777 
L 272.447278 280.192762 
L 275.48719 280.192762 
L 278.527102 280.192762 
L 281.567014 279.816777 
L 284.606926 279.816777 
L 287.646838 280.192762 
L 290.68675 279.816777 
L 293.726662 280.192762 
L 296.766574 279.816777 
L 299.806485 279.816777 
L 302.846397 280.192762 
L 305.886309 279.816777 
L 308.926221 279.816777 
L 311.966133 279.816777 
L 315.006045 279.440793 
L 318.045957 279.440793 
L 321.085869 279.440793 
L 324.125781 279.440793 
L 327.165693 279.440793 
L 330.205605 279.440793 
L 333.245517 279.440793 
L 336.285429 278.688824 
L 339.325341 278.31284 
L 342.365253 279.064809 
L 345.405165 279.064809 
L 348.445077 277.184887 
L 351.484989 278.688824 
L 354.5249 278.688824 
L 357.564812 278.688824 
L 360.604724 278.688824 
L 363.644636 276.808903 
L 366.684548 278.31284 
L 369.72446 275.304966 
" clip-path="url(#p4ba4127c9a)" style="fill: none; stroke: #e377c2; stroke-width: 1.5; stroke-linecap: square"/>
   </g>
   <g id="line2d_22">
    <path d="M 65.763665 265.905358 
L 66.037257 264.40142 
L 66.341248 261.017562 
L 66.645239 261.017562 
L 66.94923 259.889609 
L 67.253222 258.385671 
L 67.557213 255.001813 
L 67.861204 256.50575 
L 68.165195 256.129766 
L 68.469186 253.87386 
L 68.773178 253.497875 
L 71.81309 246.730158 
L 74.853001 242.218346 
L 77.892913 238.082518 
L 80.932825 233.570707 
L 83.972737 229.810863 
L 87.012649 223.043146 
L 90.052561 218.15535 
L 93.092473 216.651412 
L 96.132385 213.267554 
L 99.172297 208.755742 
L 102.212209 208.379758 
L 105.252121 203.491961 
L 108.292033 203.867946 
L 111.331945 197.852197 
L 114.371857 195.220306 
L 117.411769 197.852197 
L 120.451681 196.348259 
L 123.491593 194.844322 
L 126.531505 193.716369 
L 129.571417 191.836448 
L 132.611328 188.828573 
L 135.65124 191.460463 
L 138.691152 189.204557 
L 141.731064 187.324636 
L 144.770976 184.692746 
L 147.810888 186.948652 
L 150.8508 182.43684 
L 153.890712 182.812824 
L 156.930624 178.301012 
L 159.970536 180.180934 
L 163.010448 177.173059 
L 166.05036 174.541169 
L 169.090272 174.165185 
L 172.130184 174.165185 
L 175.170096 171.15731 
L 178.210008 168.901404 
L 181.24992 167.021483 
L 184.289832 165.141561 
L 187.329743 161.381718 
L 190.369655 162.133687 
L 193.409567 161.757702 
L 196.449479 158.749828 
L 199.489391 151.606126 
L 202.529303 158.749828 
L 205.569215 158.749828 
L 208.609127 156.869906 
L 211.649039 162.133687 
L 214.688951 152.358095 
L 217.728863 143.334471 
L 220.768775 150.854157 
L 223.808687 148.222267 
L 226.848599 141.454549 
L 229.888511 145.966361 
L 232.928423 141.078565 
L 235.968335 141.830534 
L 239.008247 139.574628 
L 242.048159 135.4388 
L 245.08807 135.062816 
L 248.127982 130.551004 
L 251.167894 133.934863 
L 254.207806 132.80691 
L 257.247718 131.302973 
L 260.28763 127.919114 
L 263.327542 127.167145 
L 266.367454 122.279349 
L 269.407366 117.015569 
L 272.447278 118.895491 
L 275.48719 117.391553 
L 278.527102 125.663208 
L 281.567014 111.751789 
L 284.606926 117.767538 
L 287.646838 109.871867 
L 290.68675 115.135647 
L 293.726662 115.887616 
L 296.766574 114.007694 
L 299.806485 114.007694 
L 302.846397 114.007694 
L 305.886309 109.871867 
L 308.926221 108.743914 
L 311.966133 107.991945 
L 315.006045 101.224228 
L 318.045957 95.208479 
L 321.085869 100.472259 
L 324.125781 101.976196 
L 327.165693 96.712416 
L 330.205605 94.45651 
L 333.245517 84.304934 
L 336.285429 95.584463 
L 339.325341 91.448636 
L 342.365253 94.080526 
L 345.405165 81.673043 
L 348.445077 95.584463 
L 351.484989 86.936824 
L 354.5249 89.19273 
L 357.564812 85.432887 
L 360.604724 84.304934 
L 363.644636 89.944698 
L 366.684548 82.800996 
L 369.72446 68.137608 
" clip-path="url(#p4ba4127c9a)" style="fill: none; stroke: #7f7f7f; stroke-width: 1.5; stroke-linecap: square"/>
   </g>
   <g id="line2d_23">
    <path d="M 65.763665 287.712448 
L 66.037257 287.336464 
L 66.341248 286.960479 
L 66.645239 286.208511 
L 66.94923 285.456542 
L 67.253222 285.080558 
L 67.557213 284.704573 
L 67.861204 284.704573 
L 68.165195 283.952605 
L 68.469186 283.576621 
L 68.773178 282.824652 
L 71.81309 280.94473 
L 74.853001 279.064809 
L 77.892913 276.808903 
L 80.932825 274.177013 
L 83.972737 271.921107 
L 87.012649 271.545122 
L 90.052561 266.657326 
L 93.092473 269.289217 
L 96.132385 268.161264 
L 99.172297 268.913232 
L 102.212209 265.905358 
L 105.252121 266.657326 
L 108.292033 263.273468 
L 111.331945 250.865985 
L 114.371857 266.281342 
L 117.411769 263.649452 
L 120.451681 263.273468 
L 123.491593 264.40142 
L 126.531505 264.777405 
L 129.571417 262.145515 
L 132.611328 264.40142 
L 135.65124 261.393546 
L 138.691152 262.521499 
L 141.731064 260.265593 
L 144.770976 262.145515 
L 147.810888 261.017562 
L 150.8508 261.393546 
L 153.890712 258.761656 
L 156.930624 259.889609 
L 159.970536 259.13764 
L 163.010448 258.009687 
L 166.05036 256.881734 
L 169.090272 257.633703 
L 172.130184 258.385671 
L 175.170096 257.257718 
L 178.210008 258.009687 
L 181.24992 256.881734 
L 184.289832 256.881734 
L 187.329743 256.50575 
L 190.369655 255.001813 
L 193.409567 256.129766 
L 196.449479 256.881734 
L 199.489391 256.881734 
L 202.529303 255.753781 
L 205.569215 254.249844 
L 208.609127 252.369922 
L 211.649039 255.753781 
L 214.688951 249.738032 
L 217.728863 253.87386 
L 220.768775 253.121891 
L 223.808687 251.617954 
L 226.848599 251.617954 
L 229.888511 250.865985 
L 232.928423 252.745907 
L 235.968335 251.241969 
L 239.008247 245.602205 
L 242.048159 247.106142 
L 245.08807 249.362048 
L 248.127982 250.114016 
L 251.167894 249.362048 
L 254.207806 242.970315 
L 257.247718 248.986064 
L 260.28763 248.234095 
L 263.327542 248.234095 
L 266.367454 245.22622 
L 269.407366 245.978189 
L 272.447278 247.482126 
L 275.48719 247.106142 
L 278.527102 245.978189 
L 281.567014 245.602205 
L 284.606926 246.730158 
L 287.646838 244.850236 
L 290.68675 245.22622 
L 293.726662 241.842362 
L 296.766574 244.098267 
L 299.806485 243.722283 
L 302.846397 244.850236 
L 305.886309 244.098267 
L 308.926221 244.474252 
L 311.966133 244.474252 
L 315.006045 242.218346 
L 318.045957 235.450628 
L 321.085869 240.714409 
L 324.125781 241.466377 
L 327.165693 241.090393 
L 330.205605 236.578581 
L 333.245517 239.210471 
L 336.285429 238.458503 
L 339.325341 230.562832 
L 342.365253 238.458503 
L 345.405165 236.202597 
L 348.445077 238.082518 
L 351.484989 239.210471 
L 354.5249 237.33055 
L 357.564812 235.074644 
L 360.604724 233.946691 
L 363.644636 236.202597 
L 366.684548 238.082518 
L 369.72446 232.818738 
" clip-path="url(#p4ba4127c9a)" style="fill: none; stroke: #bcbd22; stroke-width: 1.5; stroke-linecap: square"/>
   </g>
   <g id="line2d_24">
    <path d="M 65.763665 212.891569 
L 66.037257 204.24393 
L 66.341248 211.387632 
L 66.645239 210.259679 
L 66.94923 208.755742 
L 67.253222 209.883695 
L 67.557213 206.499836 
L 67.861204 207.251805 
L 68.165195 208.003773 
L 68.469186 203.491961 
L 68.773178 206.87582 
L 71.81309 198.98015 
L 74.853001 197.852197 
L 77.892913 194.844322 
L 80.932825 189.580542 
L 83.972737 185.06873 
L 87.012649 180.932903 
L 90.052561 182.43684 
L 93.092473 178.301012 
L 96.132385 174.917153 
L 99.172297 173.789201 
L 102.212209 170.029357 
L 105.252121 170.029357 
L 108.292033 122.279349 
L 111.331945 159.125812 
L 114.371857 159.125812 
L 117.411769 168.149436 
L 120.451681 162.509671 
L 123.491593 161.005734 
L 126.531505 164.013608 
L 129.571417 163.26164 
L 132.611328 159.501797 
L 135.65124 160.253765 
L 138.691152 158.749828 
L 141.731064 153.862032 
L 144.770976 158.373844 
L 147.810888 152.734079 
L 150.8508 157.245891 
L 153.890712 153.862032 
L 156.930624 155.741953 
L 159.970536 157.997859 
L 163.010448 150.478173 
L 166.05036 151.606126 
L 169.090272 153.862032 
L 172.130184 151.98211 
L 175.170096 154.989985 
L 178.210008 156.493922 
L 181.24992 154.614 
L 184.289832 152.734079 
L 187.329743 148.974236 
L 190.369655 150.102189 
L 193.409567 153.862032 
L 196.449479 151.98211 
L 199.489391 152.358095 
L 202.529303 150.102189 
L 205.569215 147.846283 
L 208.609127 150.102189 
L 211.649039 150.854157 
L 214.688951 144.08644 
L 217.728863 147.094314 
L 220.768775 146.342346 
L 223.808687 148.598251 
L 226.848599 144.08644 
L 229.888511 144.08644 
L 232.928423 145.590377 
L 235.968335 145.590377 
L 239.008247 147.094314 
L 242.048159 142.958487 
L 245.08807 127.919114 
L 248.127982 136.566753 
L 251.167894 140.326597 
L 254.207806 143.710455 
L 257.247718 139.198644 
L 260.28763 140.326597 
L 263.327542 135.4388 
L 266.367454 139.950612 
L 269.407366 136.566753 
L 272.447278 137.318722 
L 275.48719 127.54313 
L 278.527102 136.942738 
L 281.567014 133.558879 
L 284.606926 138.446675 
L 287.646838 139.950612 
L 290.68675 138.446675 
L 293.726662 138.822659 
L 296.766574 138.070691 
L 299.806485 134.310847 
L 302.846397 138.446675 
L 305.886309 138.070691 
L 308.926221 136.566753 
L 311.966133 130.17502 
L 315.006045 135.4388 
L 318.045957 134.686832 
L 321.085869 136.190769 
L 324.125781 136.190769 
L 327.165693 134.310847 
L 330.205605 133.558879 
L 333.245517 134.310847 
L 336.285429 131.678957 
L 339.325341 134.686832 
L 342.365253 128.295098 
L 345.405165 130.926989 
L 348.445077 129.423051 
L 351.484989 130.926989 
L 354.5249 130.551004 
L 357.564812 129.799036 
L 360.604724 127.167145 
L 363.644636 127.919114 
L 366.684548 89.568714 
L 369.72446 113.255726 
" clip-path="url(#p4ba4127c9a)" style="fill: none; stroke: #17becf; stroke-width: 1.5; stroke-linecap: square"/>
   </g>
   <g id="line2d_25">
    <path d="M 65.763665 291.096307 
L 66.037257 290.720323 
L 66.341248 290.720323 
L 66.645239 290.720323 
L 66.94923 290.720323 
L 67.253222 290.344338 
L 67.557213 290.344338 
L 67.861204 290.344338 
L 68.165195 289.968354 
L 68.469186 289.968354 
L 68.773178 289.968354 
L 71.81309 289.216385 
L 74.853001 288.464417 
L 77.892913 288.464417 
L 80.932825 287.712448 
L 83.972737 287.336464 
L 87.012649 286.960479 
L 90.052561 286.584495 
L 93.092473 286.960479 
L 96.132385 286.584495 
L 99.172297 286.208511 
L 102.212209 285.832526 
L 105.252121 285.080558 
L 108.292033 285.456542 
L 111.331945 285.832526 
L 114.371857 282.824652 
L 117.411769 285.080558 
L 120.451681 285.080558 
L 123.491593 285.080558 
L 126.531505 285.080558 
L 129.571417 285.080558 
L 132.611328 284.704573 
L 135.65124 284.704573 
L 138.691152 284.704573 
L 141.731064 285.080558 
L 144.770976 284.328589 
L 147.810888 284.328589 
L 150.8508 284.328589 
L 153.890712 285.080558 
L 156.930624 284.704573 
L 159.970536 283.952605 
L 163.010448 284.328589 
L 166.05036 283.952605 
L 169.090272 283.952605 
L 172.130184 283.576621 
L 175.170096 283.576621 
L 178.210008 283.576621 
L 181.24992 283.952605 
L 184.289832 283.200636 
L 187.329743 283.576621 
L 190.369655 283.200636 
L 193.409567 283.200636 
L 196.449479 283.576621 
L 199.489391 283.576621 
L 202.529303 280.568746 
L 205.569215 283.200636 
L 208.609127 283.200636 
L 211.649039 282.824652 
L 214.688951 282.824652 
L 217.728863 283.200636 
L 220.768775 282.824652 
L 223.808687 282.448668 
L 226.848599 282.824652 
L 229.888511 282.448668 
L 232.928423 282.448668 
L 235.968335 282.824652 
L 239.008247 282.072683 
L 242.048159 281.696699 
L 245.08807 282.448668 
L 248.127982 282.448668 
L 251.167894 282.072683 
L 254.207806 282.072683 
L 257.247718 281.696699 
L 260.28763 281.320715 
L 263.327542 281.696699 
L 266.367454 281.320715 
L 269.407366 281.696699 
L 272.447278 281.696699 
L 275.48719 281.320715 
L 278.527102 281.320715 
L 281.567014 280.94473 
L 284.606926 281.320715 
L 287.646838 280.94473 
L 290.68675 280.94473 
L 293.726662 281.320715 
L 296.766574 281.320715 
L 299.806485 280.94473 
L 302.846397 280.94473 
L 305.886309 280.568746 
L 308.926221 280.568746 
L 311.966133 280.192762 
L 315.006045 280.568746 
L 318.045957 280.568746 
L 321.085869 280.192762 
L 324.125781 280.568746 
L 327.165693 280.568746 
L 330.205605 280.192762 
L 333.245517 280.192762 
L 336.285429 280.192762 
L 339.325341 280.192762 
L 342.365253 280.192762 
L 345.405165 279.816777 
L 348.445077 279.816777 
L 351.484989 279.816777 
L 354.5249 279.816777 
L 357.564812 279.816777 
L 360.604724 279.440793 
L 363.644636 280.192762 
L 366.684548 279.440793 
L 369.72446 278.688824 
" clip-path="url(#p4ba4127c9a)" style="fill: none; stroke: #1f77b4; stroke-width: 1.5; stroke-linecap: square"/>
   </g>
   <g id="line2d_26">
    <path d="M 65.763665 288.088432 
L 66.037257 286.960479 
L 66.341248 285.456542 
L 66.645239 283.952605 
L 66.94923 282.824652 
L 67.253222 281.320715 
L 67.557213 280.192762 
L 67.861204 279.064809 
L 68.165195 277.936856 
L 68.469186 277.560871 
L 68.773178 276.432919 
L 71.81309 268.913232 
L 74.853001 263.273468 
L 77.892913 256.129766 
L 80.932825 253.121891 
L 83.972737 248.610079 
L 87.012649 245.602205 
L 90.052561 235.074644 
L 93.092473 241.090393 
L 96.132385 238.082518 
L 99.172297 235.074644 
L 102.212209 231.690785 
L 105.252121 229.810863 
L 108.292033 226.802989 
L 111.331945 225.299052 
L 114.371857 202.364008 
L 117.411769 222.667161 
L 120.451681 221.163224 
L 123.491593 220.78724 
L 126.531505 211.011648 
L 129.571417 217.779365 
L 132.611328 215.147475 
L 135.65124 214.395507 
L 138.691152 211.763616 
L 141.731064 209.883695 
L 144.770976 206.499836 
L 147.810888 205.371883 
L 150.8508 203.867946 
L 153.890712 204.619914 
L 156.930624 203.491961 
L 159.970536 195.972275 
L 163.010448 198.228181 
L 166.05036 194.092354 
L 169.090272 195.220306 
L 172.130184 194.844322 
L 175.170096 188.452589 
L 178.210008 190.33251 
L 181.24992 181.684871 
L 184.289832 183.940777 
L 187.329743 185.820699 
L 190.369655 185.06873 
L 193.409567 183.940777 
L 196.449479 174.541169 
L 199.489391 178.301012 
L 202.529303 177.925028 
L 205.569215 177.549044 
L 208.609127 175.669122 
L 211.649039 172.661248 
L 214.688951 164.765577 
L 217.728863 170.029357 
L 220.768775 169.277389 
L 223.808687 170.029357 
L 226.848599 167.021483 
L 229.888511 165.89353 
L 232.928423 164.013608 
L 235.968335 141.830534 
L 239.008247 158.749828 
L 242.048159 154.614 
L 245.08807 167.397467 
L 248.127982 157.997859 
L 251.167894 150.478173 
L 254.207806 152.358095 
L 257.247718 152.734079 
L 260.28763 147.094314 
L 263.327542 147.470298 
L 266.367454 150.102189 
L 269.407366 142.582502 
L 272.447278 142.958487 
L 275.48719 142.582502 
L 278.527102 143.710455 
L 281.567014 144.462424 
L 284.606926 133.934863 
L 287.646838 139.574628 
L 290.68675 138.822659 
L 293.726662 143.334471 
L 296.766574 148.598251 
L 299.806485 140.702581 
L 302.846397 138.070691 
L 305.886309 132.80691 
L 308.926221 129.423051 
L 311.966133 131.678957 
L 315.006045 129.047067 
L 318.045957 131.302973 
L 321.085869 130.926989 
L 324.125781 124.91124 
L 327.165693 123.031318 
L 330.205605 120.399428 
L 333.245517 127.54313 
L 336.285429 69.265561 
L 339.325341 122.279349 
L 342.365253 120.399428 
L 345.405165 116.2636 
L 348.445077 110.99982 
L 351.484989 117.391553 
L 354.5249 111.751789 
L 357.564812 107.991945 
L 360.604724 108.743914 
L 363.644636 109.871867 
L 366.684548 107.615961 
L 369.72446 94.080526 
" clip-path="url(#p4ba4127c9a)" style="fill: none; stroke: #ff7f0e; stroke-width: 1.5; stroke-linecap: square"/>
   </g>
   <g id="patch_3">
    <path d="M 50.565625 304.44375 
L 50.565625 10.8 
" style="fill: none; stroke: #000000; stroke-width: 0.8; stroke-linejoin: miter; stroke-linecap: square"/>
   </g>
   <g id="patch_4">
    <path d="M 384.9225 304.44375 
L 384.9225 10.8 
" style="fill: none; stroke: #000000; stroke-width: 0.8; stroke-linejoin: miter; stroke-linecap: square"/>
   </g>
   <g id="patch_5">
    <path d="M 50.565625 304.44375 
L 384.9225 304.44375 
" style="fill: none; stroke: #000000; stroke-width: 0.8; stroke-linejoin: miter; stroke-linecap: square"/>
   </g>
   <g id="patch_6">
    <path d="M 50.565625 10.8 
L 384.9225 10.8 
" style="fill: none; stroke: #000000; stroke-width: 0.8; stroke-linejoin: miter; stroke-linecap: square"/>
   </g>
   <g id="text_17">
    <!-- trimou -->
    <g style="fill: #1f77b4" transform="translate(390.9225 284.280183) scale(0.08 -0.08)">
     <defs>
      <path id="DejaVuSans-6f" d="M 1959 3097 
Q 1497 3097 1228 2736 
Q 959 2375 959 1747 
Q 959 1119 1226 758 
Q 1494 397 1959 397 
Q 2419 397 2687 759 
Q 2956 1122 2956 1747 
Q 2956 2369 2687 2733 
Q 2419 3097 1959 3097 
z
M 1959 3584 
Q 2709 3584 3137 3096 
Q 3566 2609 3566 1747 
Q 3566 888 3137 398 
Q 2709 -91 1959 -91 
Q 1206 -91 779 398 
Q 353 888 353 1747 
Q 353 2609 779 3096 
Q 1206 3584 1959 3584 
z
" transform="scale(0.015625)"/>
     </defs>
     <use xlink:href="#DejaVuSans-74"/>
     <use xlink:href="#DejaVuSans-72" transform="translate(39.208984 0)"/>
     <use xlink:href="#DejaVuSans-69" transform="translate(80.322266 0)"/>
     <use xlink:href="#DejaVuSans-6d" transform="translate(108.105469 0)"/>
     <use xlink:href="#DejaVuSans-6f" transform="translate(205.517578 0)"/>
     <use xlink:href="#DejaVuSans-75" transform="translate(266.699219 0)"/>
    </g>
   </g>
   <g id="text_18">
    <!-- solomon -->
    <g style="fill: #e377c2" transform="translate(390.9225 277.512466) scale(0.08 -0.08)">
     <defs>
      <path id="DejaVuSans-6c" d="M 603 4863 
L 1178 4863 
L 1178 0 
L 603 0 
L 603 4863 
z
" transform="scale(0.015625)"/>
     </defs>
     <use xlink:href="#DejaVuSans-73"/>
     <use xlink:href="#DejaVuSans-6f" transform="translate(52.099609 0)"/>
     <use xlink:href="#DejaVuSans-6c" transform="translate(113.28125 0)"/>
     <use xlink:href="#DejaVuSans-6f" transform="translate(141.064453 0)"/>
     <use xlink:href="#DejaVuSans-6d" transform="translate(202.246094 0)"/>
     <use xlink:href="#DejaVuSans-6f" transform="translate(299.658203 0)"/>
     <use xlink:href="#DejaVuSans-6e" transform="translate(360.839844 0)"/>
    </g>
   </g>
   <g id="text_19">
    <!-- mustachej -->
    <g style="fill: #9467bd" transform="translate(390.9225 270.744748) scale(0.08 -0.08)">
     <defs>
      <path id="DejaVuSans-61" d="M 2194 1759 
Q 1497 1759 1228 1600 
Q 959 1441 959 1056 
Q 959 750 1161 570 
Q 1363 391 1709 391 
Q 2188 391 2477 730 
Q 2766 1069 2766 1631 
L 2766 1759 
L 2194 1759 
z
M 3341 1997 
L 3341 0 
L 2766 0 
L 2766 531 
Q 2569 213 2275 61 
Q 1981 -91 1556 -91 
Q 1019 -91 701 211 
Q 384 513 384 1019 
Q 384 1609 779 1909 
Q 1175 2209 1959 2209 
L 2766 2209 
L 2766 2266 
Q 2766 2663 2505 2880 
Q 2244 3097 1772 3097 
Q 1472 3097 1187 3025 
Q 903 2953 641 2809 
L 641 3341 
Q 956 3463 1253 3523 
Q 1550 3584 1831 3584 
Q 2591 3584 2966 3190 
Q 3341 2797 3341 1997 
z
" transform="scale(0.015625)"/>
      <path id="DejaVuSans-63" d="M 3122 3366 
L 3122 2828 
Q 2878 2963 2633 3030 
Q 2388 3097 2138 3097 
Q 1578 3097 1268 2742 
Q 959 2388 959 1747 
Q 959 1106 1268 751 
Q 1578 397 2138 397 
Q 2388 397 2633 464 
Q 2878 531 3122 666 
L 3122 134 
Q 2881 22 2623 -34 
Q 2366 -91 2075 -91 
Q 1284 -91 818 406 
Q 353 903 353 1747 
Q 353 2603 823 3093 
Q 1294 3584 2113 3584 
Q 2378 3584 2631 3529 
Q 2884 3475 3122 3366 
z
" transform="scale(0.015625)"/>
      <path id="DejaVuSans-68" d="M 3513 2113 
L 3513 0 
L 2938 0 
L 2938 2094 
Q 2938 2591 2744 2837 
Q 2550 3084 2163 3084 
Q 1697 3084 1428 2787 
Q 1159 2491 1159 1978 
L 1159 0 
L 581 0 
L 581 4863 
L 1159 4863 
L 1159 2956 
Q 1366 3272 1645 3428 
Q 1925 3584 2291 3584 
Q 2894 3584 3203 3211 
Q 3513 2838 3513 2113 
z
" transform="scale(0.015625)"/>
      <path id="DejaVuSans-6a" d="M 603 3500 
L 1178 3500 
L 1178 -63 
Q 1178 -731 923 -1031 
Q 669 -1331 103 -1331 
L -116 -1331 
L -116 -844 
L 38 -844 
Q 366 -844 484 -692 
Q 603 -541 603 -63 
L 603 3500 
z
M 603 4863 
L 1178 4863 
L 1178 4134 
L 603 4134 
L 603 4863 
z
" transform="scale(0.015625)"/>
     </defs>
     <use xlink:href="#DejaVuSans-6d"/>
     <use xlink:href="#DejaVuSans-75" transform="translate(97.412109 0)"/>
     <use xlink:href="#DejaVuSans-73" transform="translate(160.791016 0)"/>
     <use xlink:href="#DejaVuSans-74" transform="translate(212.890625 0)"/>
     <use xlink:href="#DejaVuSans-61" transform="translate(252.099609 0)"/>
     <use xlink:href="#DejaVuSans-63" transform="translate(313.378906 0)"/>
     <use xlink:href="#DejaVuSans-68" transform="translate(368.359375 0)"/>
     <use xlink:href="#DejaVuSans-65" transform="translate(431.738281 0)"/>
     <use xlink:href="#DejaVuSans-6a" transform="translate(493.261719 0)"/>
    </g>
   </g>
   <g id="text_20">
    <!-- pebble -->
    <g style="fill: #8c564b" transform="translate(390.9225 260.969156) scale(0.08 -0.08)">
     <defs>
      <path id="DejaVuSans-70" d="M 1159 525 
L 1159 -1331 
L 581 -1331 
L 581 3500 
L 1159 3500 
L 1159 2969 
Q 1341 3281 1617 3432 
Q 1894 3584 2278 3584 
Q 2916 3584 3314 3078 
Q 3713 2572 3713 1747 
Q 3713 922 3314 415 
Q 2916 -91 2278 -91 
Q 1894 -91 1617 61 
Q 1341 213 1159 525 
z
M 3116 1747 
Q 3116 2381 2855 2742 
Q 2594 3103 2138 3103 
Q 1681 3103 1420 2742 
Q 1159 2381 1159 1747 
Q 1159 1113 1420 752 
Q 1681 391 2138 391 
Q 2594 391 2855 752 
Q 3116 1113 3116 1747 
z
" transform="scale(0.015625)"/>
      <path id="DejaVuSans-62" d="M 3116 1747 
Q 3116 2381 2855 2742 
Q 2594 3103 2138 3103 
Q 1681 3103 1420 2742 
Q 1159 2381 1159 1747 
Q 1159 1113 1420 752 
Q 1681 391 2138 391 
Q 2594 391 2855 752 
Q 3116 1113 3116 1747 
z
M 1159 2969 
Q 1341 3281 1617 3432 
Q 1894 3584 2278 3584 
Q 2916 3584 3314 3078 
Q 3713 2572 3713 1747 
Q 3713 922 3314 415 
Q 2916 -91 2278 -91 
Q 1894 -91 1617 61 
Q 1341 213 1159 525 
L 1159 0 
L 581 0 
L 581 4863 
L 1159 4863 
L 1159 2969 
z
" transform="scale(0.015625)"/>
     </defs>
     <use xlink:href="#DejaVuSans-70"/>
     <use xlink:href="#DejaVuSans-65" transform="translate(63.476562 0)"/>
     <use xlink:href="#DejaVuSans-62" transform="translate(125 0)"/>
     <use xlink:href="#DejaVuSans-62" transform="translate(188.476562 0)"/>
     <use xlink:href="#DejaVuSans-6c" transform="translate(251.953125 0)"/>
     <use xlink:href="#DejaVuSans-65" transform="translate(279.736328 0)"/>
    </g>
   </g>
   <g id="text_21">
    <!-- handlebars -->
    <g style="fill: #ff7f0e" transform="translate(390.9225 254.201438) scale(0.08 -0.08)">
     <defs>
      <path id="DejaVuSans-64" d="M 2906 2969 
L 2906 4863 
L 3481 4863 
L 3481 0 
L 2906 0 
L 2906 525 
Q 2725 213 2448 61 
Q 2172 -91 1784 -91 
Q 1150 -91 751 415 
Q 353 922 353 1747 
Q 353 2572 751 3078 
Q 1150 3584 1784 3584 
Q 2172 3584 2448 3432 
Q 2725 3281 2906 2969 
z
M 947 1747 
Q 947 1113 1208 752 
Q 1469 391 1925 391 
Q 2381 391 2643 752 
Q 2906 1113 2906 1747 
Q 2906 2381 2643 2742 
Q 2381 3103 1925 3103 
Q 1469 3103 1208 2742 
Q 947 2381 947 1747 
z
" transform="scale(0.015625)"/>
     </defs>
     <use xlink:href="#DejaVuSans-68"/>
     <use xlink:href="#DejaVuSans-61" transform="translate(63.378906 0)"/>
     <use xlink:href="#DejaVuSans-6e" transform="translate(124.658203 0)"/>
     <use xlink:href="#DejaVuSans-64" transform="translate(188.037109 0)"/>
     <use xlink:href="#DejaVuSans-6c" transform="translate(251.513672 0)"/>
     <use xlink:href="#DejaVuSans-65" transform="translate(279.296875 0)"/>
     <use xlink:href="#DejaVuSans-62" transform="translate(340.820312 0)"/>
     <use xlink:href="#DejaVuSans-61" transform="translate(404.296875 0)"/>
     <use xlink:href="#DejaVuSans-72" transform="translate(465.576172 0)"/>
     <use xlink:href="#DejaVuSans-73" transform="translate(506.689453 0)"/>
    </g>
   </g>
   <g id="text_22">
    <!-- stringtree -->
    <g style="fill: #bcbd22" transform="translate(390.9225 235.026238) scale(0.08 -0.08)">
     <defs>
      <path id="DejaVuSans-67" d="M 2906 1791 
Q 2906 2416 2648 2759 
Q 2391 3103 1925 3103 
Q 1463 3103 1205 2759 
Q 947 2416 947 1791 
Q 947 1169 1205 825 
Q 1463 481 1925 481 
Q 2391 481 2648 825 
Q 2906 1169 2906 1791 
z
M 3481 434 
Q 3481 -459 3084 -895 
Q 2688 -1331 1869 -1331 
Q 1566 -1331 1297 -1286 
Q 1028 -1241 775 -1147 
L 775 -588 
Q 1028 -725 1275 -790 
Q 1522 -856 1778 -856 
Q 2344 -856 2625 -561 
Q 2906 -266 2906 331 
L 2906 616 
Q 2728 306 2450 153 
Q 2172 0 1784 0 
Q 1141 0 747 490 
Q 353 981 353 1791 
Q 353 2603 747 3093 
Q 1141 3584 1784 3584 
Q 2172 3584 2450 3431 
Q 2728 3278 2906 2969 
L 2906 3500 
L 3481 3500 
L 3481 434 
z
" transform="scale(0.015625)"/>
     </defs>
     <use xlink:href="#DejaVuSans-73"/>
     <use xlink:href="#DejaVuSans-74" transform="translate(52.099609 0)"/>
     <use xlink:href="#DejaVuSans-72" transform="translate(91.308594 0)"/>
     <use xlink:href="#DejaVuSans-69" transform="translate(132.421875 0)"/>
     <use xlink:href="#DejaVuSans-6e" transform="translate(160.205078 0)"/>
     <use xlink:href="#DejaVuSans-67" transform="translate(223.583984 0)"/>
     <use xlink:href="#DejaVuSans-74" transform="translate(287.060547 0)"/>
     <use xlink:href="#DejaVuSans-72" transform="translate(326.269531 0)"/>
     <use xlink:href="#DejaVuSans-65" transform="translate(365.132812 0)"/>
     <use xlink:href="#DejaVuSans-65" transform="translate(426.65625 0)"/>
    </g>
   </g>
   <g id="text_23">
    <!-- freemarker -->
    <g style="fill: #1f77b4" transform="translate(390.9225 226.754583) scale(0.08 -0.08)">
     <defs>
      <path id="DejaVuSans-66" d="M 2375 4863 
L 2375 4384 
L 1825 4384 
Q 1516 4384 1395 4259 
Q 1275 4134 1275 3809 
L 1275 3500 
L 2222 3500 
L 2222 3053 
L 1275 3053 
L 1275 0 
L 697 0 
L 697 3053 
L 147 3053 
L 147 3500 
L 697 3500 
L 697 3744 
Q 697 4328 969 4595 
Q 1241 4863 1831 4863 
L 2375 4863 
z
" transform="scale(0.015625)"/>
      <path id="DejaVuSans-6b" d="M 581 4863 
L 1159 4863 
L 1159 1991 
L 2875 3500 
L 3609 3500 
L 1753 1863 
L 3688 0 
L 2938 0 
L 1159 1709 
L 1159 0 
L 581 0 
L 581 4863 
z
" transform="scale(0.015625)"/>
     </defs>
     <use xlink:href="#DejaVuSans-66"/>
     <use xlink:href="#DejaVuSans-72" transform="translate(35.205078 0)"/>
     <use xlink:href="#DejaVuSans-65" transform="translate(74.068359 0)"/>
     <use xlink:href="#DejaVuSans-65" transform="translate(135.591797 0)"/>
     <use xlink:href="#DejaVuSans-6d" transform="translate(197.115234 0)"/>
     <use xlink:href="#DejaVuSans-61" transform="translate(294.527344 0)"/>
     <use xlink:href="#DejaVuSans-72" transform="translate(355.806641 0)"/>
     <use xlink:href="#DejaVuSans-6b" transform="translate(396.919922 0)"/>
     <use xlink:href="#DejaVuSans-65" transform="translate(451.205078 0)"/>
     <use xlink:href="#DejaVuSans-72" transform="translate(512.728516 0)"/>
    </g>
   </g>
   <g id="text_24">
    <!-- jangod -->
    <g style="fill: #2ca02c" transform="translate(390.9225 198.555759) scale(0.08 -0.08)">
     <use xlink:href="#DejaVuSans-6a"/>
     <use xlink:href="#DejaVuSans-61" transform="translate(27.783203 0)"/>
     <use xlink:href="#DejaVuSans-6e" transform="translate(89.0625 0)"/>
     <use xlink:href="#DejaVuSans-67" transform="translate(152.441406 0)"/>
     <use xlink:href="#DejaVuSans-6f" transform="translate(215.917969 0)"/>
     <use xlink:href="#DejaVuSans-64" transform="translate(277.099609 0)"/>
    </g>
   </g>
   <g id="text_25">
    <!-- thymeleaf -->
    <g style="fill: #17becf" transform="translate(390.9225 115.463226) scale(0.08 -0.08)">
     <defs>
      <path id="DejaVuSans-79" d="M 2059 -325 
Q 1816 -950 1584 -1140 
Q 1353 -1331 966 -1331 
L 506 -1331 
L 506 -850 
L 844 -850 
Q 1081 -850 1212 -737 
Q 1344 -625 1503 -206 
L 1606 56 
L 191 3500 
L 800 3500 
L 1894 763 
L 2988 3500 
L 3597 3500 
L 2059 -325 
z
" transform="scale(0.015625)"/>
     </defs>
     <use xlink:href="#DejaVuSans-74"/>
     <use xlink:href="#DejaVuSans-68" transform="translate(39.208984 0)"/>
     <use xlink:href="#DejaVuSans-79" transform="translate(102.587891 0)"/>
     <use xlink:href="#DejaVuSans-6d" transform="translate(161.767578 0)"/>
     <use xlink:href="#DejaVuSans-65" transform="translate(259.179688 0)"/>
     <use xlink:href="#DejaVuSans-6c" transform="translate(320.703125 0)"/>
     <use xlink:href="#DejaVuSans-65" transform="translate(348.486328 0)"/>
     <use xlink:href="#DejaVuSans-61" transform="translate(410.009766 0)"/>
     <use xlink:href="#DejaVuSans-66" transform="translate(471.289062 0)"/>
    </g>
   </g>
   <g id="text_26">
    <!-- velocity -->
    <g style="fill: #ff7f0e" transform="translate(390.9225 96.288026) scale(0.08 -0.08)">
     <defs>
      <path id="DejaVuSans-76" d="M 191 3500 
L 800 3500 
L 1894 563 
L 2988 3500 
L 3597 3500 
L 2284 0 
L 1503 0 
L 191 3500 
z
" transform="scale(0.015625)"/>
     </defs>
     <use xlink:href="#DejaVuSans-76"/>
     <use xlink:href="#DejaVuSans-65" transform="translate(59.179688 0)"/>
     <use xlink:href="#DejaVuSans-6c" transform="translate(120.703125 0)"/>
     <use xlink:href="#DejaVuSans-6f" transform="translate(148.486328 0)"/>
     <use xlink:href="#DejaVuSans-63" transform="translate(209.667969 0)"/>
     <use xlink:href="#DejaVuSans-69" transform="translate(264.648438 0)"/>
     <use xlink:href="#DejaVuSans-74" transform="translate(292.431641 0)"/>
     <use xlink:href="#DejaVuSans-79" transform="translate(331.640625 0)"/>
    </g>
   </g>
   <g id="text_27">
    <!-- stringtemplate -->
    <g style="fill: #7f7f7f" transform="translate(390.9225 70.345108) scale(0.08 -0.08)">
     <use xlink:href="#DejaVuSans-73"/>
     <use xlink:href="#DejaVuSans-74" transform="translate(52.099609 0)"/>
     <use xlink:href="#DejaVuSans-72" transform="translate(91.308594 0)"/>
     <use xlink:href="#DejaVuSans-69" transform="translate(132.421875 0)"/>
     <use xlink:href="#DejaVuSans-6e" transform="translate(160.205078 0)"/>
     <use xlink:href="#DejaVuSans-67" transform="translate(223.583984 0)"/>
     <use xlink:href="#DejaVuSans-74" transform="translate(287.060547 0)"/>
     <use xlink:href="#DejaVuSans-65" transform="translate(326.269531 0)"/>
     <use xlink:href="#DejaVuSans-6d" transform="translate(387.792969 0)"/>
     <use xlink:href="#DejaVuSans-70" transform="translate(485.205078 0)"/>
     <use xlink:href="#DejaVuSans-6c" transform="translate(548.681641 0)"/>
     <use xlink:href="#DejaVuSans-61" transform="translate(576.464844 0)"/>
     <use xlink:href="#DejaVuSans-74" transform="translate(637.744141 0)"/>
     <use xlink:href="#DejaVuSans-65" transform="translate(676.953125 0)"/>
    </g>
   </g>
   <g id="text_28">
    <!-- jte -->
    <g style="fill: #d62728" transform="translate(390.9225 58.689594) scale(0.08 -0.08)">
     <use xlink:href="#DejaVuSans-6a"/>
     <use xlink:href="#DejaVuSans-74" transform="translate(27.783203 0)"/>
     <use xlink:href="#DejaVuSans-65" transform="translate(66.992188 0)"/>
    </g>
   </g>
  </g>
 </g>
 <defs>
  <clipPath id="p4ba4127c9a">
   <rect x="50.565625" y="10.8" width="334.356875" height="293.64375"/>
  </clipPath>
 </defs>
</svg>
