<?xml version="1.0" encoding="utf-8" standalone="no"?>
<!DOCTYPE svg PUBLIC "-//W3C//DTD SVG 1.1//EN"
  "http://www.w3.org/Graphics/SVG/1.1/DTD/svg11.dtd">
<svg xmlns:xlink="http://www.w3.org/1999/xlink" width="460.8pt" height="345.6pt" viewBox="0 0 460.8 345.6" xmlns="http://www.w3.org/2000/svg" version="1.1">
 <metadata>
  <rdf:RDF xmlns:dc="http://purl.org/dc/elements/1.1/" xmlns:cc="http://creativecommons.org/ns#" xmlns:rdf="http://www.w3.org/1999/02/22-rdf-syntax-ns#">
   <cc:Work>
    <dc:type rdf:resource="http://purl.org/dc/dcmitype/StillImage"/>
    <dc:date>2025-04-13T16:08:54.258312</dc:date>
    <dc:format>image/svg+xml</dc:format>
    <dc:creator>
     <cc:Agent>
      <dc:title>Matplotlib v3.10.1, https://matplotlib.org/</dc:title>
     </cc:Agent>
    </dc:creator>
   </cc:Work>
  </rdf:RDF>
 </metadata>
 <defs>
  <style type="text/css">*{stroke-linejoin: round; stroke-linecap: butt}</style>
 </defs>
 <g id="figure_1">
  <g id="patch_1">
   <path d="M 0 345.6 
L 460.8 345.6 
L 460.8 0 
L 0 0 
z
" style="fill: #ffffff"/>
  </g>
  <g id="axes_1">
   <g id="patch_2">
    <path d="M 56.928125 304.44375 
L 384.9225 304.44375 
L 384.9225 10.8 
L 56.928125 10.8 
z
" style="fill: #ffffff"/>
   </g>
   <g id="matplotlib.axis_1">
    <g id="xtick_1">
     <g id="line2d_1">
      <defs>
       <path id="m26d9afb530" d="M 0 0 
L 0 3.5 
" style="stroke: #000000; stroke-width: 0.8"/>
      </defs>
      <g>
       <use xlink:href="#m26d9afb530" x="71.80714" y="304.44375" style="stroke: #000000; stroke-width: 0.8"/>
      </g>
     </g>
     <g id="text_1">
      <!-- 0 -->
      <g transform="translate(68.62589 319.042187) scale(0.1 -0.1)">
       <defs>
        <path id="DejaVuSans-30" d="M 2034 4250 
Q 1547 4250 1301 3770 
Q 1056 3291 1056 2328 
Q 1056 1369 1301 889 
Q 1547 409 2034 409 
Q 2525 409 2770 889 
Q 3016 1369 3016 2328 
Q 3016 3291 2770 3770 
Q 2525 4250 2034 4250 
z
M 2034 4750 
Q 2819 4750 3233 4129 
Q 3647 3509 3647 2328 
Q 3647 1150 3233 529 
Q 2819 -91 2034 -91 
Q 1250 -91 836 529 
Q 422 1150 422 2328 
Q 422 3509 836 4129 
Q 1250 4750 2034 4750 
z
" transform="scale(0.015625)"/>
       </defs>
       <use xlink:href="#DejaVuSans-30"/>
      </g>
     </g>
    </g>
    <g id="xtick_2">
     <g id="line2d_2">
      <g>
       <use xlink:href="#m26d9afb530" x="131.448445" y="304.44375" style="stroke: #000000; stroke-width: 0.8"/>
      </g>
     </g>
     <g id="text_2">
      <!-- 2000 -->
      <g transform="translate(118.723445 319.042187) scale(0.1 -0.1)">
       <defs>
        <path id="DejaVuSans-32" d="M 1228 531 
L 3431 531 
L 3431 0 
L 469 0 
L 469 531 
Q 828 903 1448 1529 
Q 2069 2156 2228 2338 
Q 2531 2678 2651 2914 
Q 2772 3150 2772 3378 
Q 2772 3750 2511 3984 
Q 2250 4219 1831 4219 
Q 1534 4219 1204 4116 
Q 875 4013 500 3803 
L 500 4441 
Q 881 4594 1212 4672 
Q 1544 4750 1819 4750 
Q 2544 4750 2975 4387 
Q 3406 4025 3406 3419 
Q 3406 3131 3298 2873 
Q 3191 2616 2906 2266 
Q 2828 2175 2409 1742 
Q 1991 1309 1228 531 
z
" transform="scale(0.015625)"/>
       </defs>
       <use xlink:href="#DejaVuSans-32"/>
       <use xlink:href="#DejaVuSans-30" transform="translate(63.623047 0)"/>
       <use xlink:href="#DejaVuSans-30" transform="translate(127.246094 0)"/>
       <use xlink:href="#DejaVuSans-30" transform="translate(190.869141 0)"/>
      </g>
     </g>
    </g>
    <g id="xtick_3">
     <g id="line2d_3">
      <g>
       <use xlink:href="#m26d9afb530" x="191.08975" y="304.44375" style="stroke: #000000; stroke-width: 0.8"/>
      </g>
     </g>
     <g id="text_3">
      <!-- 4000 -->
      <g transform="translate(178.36475 319.042187) scale(0.1 -0.1)">
       <defs>
        <path id="DejaVuSans-34" d="M 2419 4116 
L 825 1625 
L 2419 1625 
L 2419 4116 
z
M 2253 4666 
L 3047 4666 
L 3047 1625 
L 3713 1625 
L 3713 1100 
L 3047 1100 
L 3047 0 
L 2419 0 
L 2419 1100 
L 313 1100 
L 313 1709 
L 2253 4666 
z
" transform="scale(0.015625)"/>
       </defs>
       <use xlink:href="#DejaVuSans-34"/>
       <use xlink:href="#DejaVuSans-30" transform="translate(63.623047 0)"/>
       <use xlink:href="#DejaVuSans-30" transform="translate(127.246094 0)"/>
       <use xlink:href="#DejaVuSans-30" transform="translate(190.869141 0)"/>
      </g>
     </g>
    </g>
    <g id="xtick_4">
     <g id="line2d_4">
      <g>
       <use xlink:href="#m26d9afb530" x="250.731055" y="304.44375" style="stroke: #000000; stroke-width: 0.8"/>
      </g>
     </g>
     <g id="text_4">
      <!-- 6000 -->
      <g transform="translate(238.006055 319.042187) scale(0.1 -0.1)">
       <defs>
        <path id="DejaVuSans-36" d="M 2113 2584 
Q 1688 2584 1439 2293 
Q 1191 2003 1191 1497 
Q 1191 994 1439 701 
Q 1688 409 2113 409 
Q 2538 409 2786 701 
Q 3034 994 3034 1497 
Q 3034 2003 2786 2293 
Q 2538 2584 2113 2584 
z
M 3366 4563 
L 3366 3988 
Q 3128 4100 2886 4159 
Q 2644 4219 2406 4219 
Q 1781 4219 1451 3797 
Q 1122 3375 1075 2522 
Q 1259 2794 1537 2939 
Q 1816 3084 2150 3084 
Q 2853 3084 3261 2657 
Q 3669 2231 3669 1497 
Q 3669 778 3244 343 
Q 2819 -91 2113 -91 
Q 1303 -91 875 529 
Q 447 1150 447 2328 
Q 447 3434 972 4092 
Q 1497 4750 2381 4750 
Q 2619 4750 2861 4703 
Q 3103 4656 3366 4563 
z
" transform="scale(0.015625)"/>
       </defs>
       <use xlink:href="#DejaVuSans-36"/>
       <use xlink:href="#DejaVuSans-30" transform="translate(63.623047 0)"/>
       <use xlink:href="#DejaVuSans-30" transform="translate(127.246094 0)"/>
       <use xlink:href="#DejaVuSans-30" transform="translate(190.869141 0)"/>
      </g>
     </g>
    </g>
    <g id="xtick_5">
     <g id="line2d_5">
      <g>
       <use xlink:href="#m26d9afb530" x="310.37236" y="304.44375" style="stroke: #000000; stroke-width: 0.8"/>
      </g>
     </g>
     <g id="text_5">
      <!-- 8000 -->
      <g transform="translate(297.64736 319.042187) scale(0.1 -0.1)">
       <defs>
        <path id="DejaVuSans-38" d="M 2034 2216 
Q 1584 2216 1326 1975 
Q 1069 1734 1069 1313 
Q 1069 891 1326 650 
Q 1584 409 2034 409 
Q 2484 409 2743 651 
Q 3003 894 3003 1313 
Q 3003 1734 2745 1975 
Q 2488 2216 2034 2216 
z
M 1403 2484 
Q 997 2584 770 2862 
Q 544 3141 544 3541 
Q 544 4100 942 4425 
Q 1341 4750 2034 4750 
Q 2731 4750 3128 4425 
Q 3525 4100 3525 3541 
Q 3525 3141 3298 2862 
Q 3072 2584 2669 2484 
Q 3125 2378 3379 2068 
Q 3634 1759 3634 1313 
Q 3634 634 3220 271 
Q 2806 -91 2034 -91 
Q 1263 -91 848 271 
Q 434 634 434 1313 
Q 434 1759 690 2068 
Q 947 2378 1403 2484 
z
M 1172 3481 
Q 1172 3119 1398 2916 
Q 1625 2713 2034 2713 
Q 2441 2713 2670 2916 
Q 2900 3119 2900 3481 
Q 2900 3844 2670 4047 
Q 2441 4250 2034 4250 
Q 1625 4250 1398 4047 
Q 1172 3844 1172 3481 
z
" transform="scale(0.015625)"/>
       </defs>
       <use xlink:href="#DejaVuSans-38"/>
       <use xlink:href="#DejaVuSans-30" transform="translate(63.623047 0)"/>
       <use xlink:href="#DejaVuSans-30" transform="translate(127.246094 0)"/>
       <use xlink:href="#DejaVuSans-30" transform="translate(190.869141 0)"/>
      </g>
     </g>
    </g>
    <g id="xtick_6">
     <g id="line2d_6">
      <g>
       <use xlink:href="#m26d9afb530" x="370.013665" y="304.44375" style="stroke: #000000; stroke-width: 0.8"/>
      </g>
     </g>
     <g id="text_6">
      <!-- 10000 -->
      <g transform="translate(354.107415 319.042187) scale(0.1 -0.1)">
       <defs>
        <path id="DejaVuSans-31" d="M 794 531 
L 1825 531 
L 1825 4091 
L 703 3866 
L 703 4441 
L 1819 4666 
L 2450 4666 
L 2450 531 
L 3481 531 
L 3481 0 
L 794 0 
L 794 531 
z
" transform="scale(0.015625)"/>
       </defs>
       <use xlink:href="#DejaVuSans-31"/>
       <use xlink:href="#DejaVuSans-30" transform="translate(63.623047 0)"/>
       <use xlink:href="#DejaVuSans-30" transform="translate(127.246094 0)"/>
       <use xlink:href="#DejaVuSans-30" transform="translate(190.869141 0)"/>
       <use xlink:href="#DejaVuSans-30" transform="translate(254.492188 0)"/>
      </g>
     </g>
    </g>
    <g id="text_7">
     <!-- n runs -->
     <g transform="translate(205.169844 332.720312) scale(0.1 -0.1)">
      <defs>
       <path id="DejaVuSans-6e" d="M 3513 2113 
L 3513 0 
L 2938 0 
L 2938 2094 
Q 2938 2591 2744 2837 
Q 2550 3084 2163 3084 
Q 1697 3084 1428 2787 
Q 1159 2491 1159 1978 
L 1159 0 
L 581 0 
L 581 3500 
L 1159 3500 
L 1159 2956 
Q 1366 3272 1645 3428 
Q 1925 3584 2291 3584 
Q 2894 3584 3203 3211 
Q 3513 2838 3513 2113 
z
" transform="scale(0.015625)"/>
       <path id="DejaVuSans-20" transform="scale(0.015625)"/>
       <path id="DejaVuSans-72" d="M 2631 2963 
Q 2534 3019 2420 3045 
Q 2306 3072 2169 3072 
Q 1681 3072 1420 2755 
Q 1159 2438 1159 1844 
L 1159 0 
L 581 0 
L 581 3500 
L 1159 3500 
L 1159 2956 
Q 1341 3275 1631 3429 
Q 1922 3584 2338 3584 
Q 2397 3584 2469 3576 
Q 2541 3569 2628 3553 
L 2631 2963 
z
" transform="scale(0.015625)"/>
       <path id="DejaVuSans-75" d="M 544 1381 
L 544 3500 
L 1119 3500 
L 1119 1403 
Q 1119 906 1312 657 
Q 1506 409 1894 409 
Q 2359 409 2629 706 
Q 2900 1003 2900 1516 
L 2900 3500 
L 3475 3500 
L 3475 0 
L 2900 0 
L 2900 538 
Q 2691 219 2414 64 
Q 2138 -91 1772 -91 
Q 1169 -91 856 284 
Q 544 659 544 1381 
z
M 1991 3584 
L 1991 3584 
z
" transform="scale(0.015625)"/>
       <path id="DejaVuSans-73" d="M 2834 3397 
L 2834 2853 
Q 2591 2978 2328 3040 
Q 2066 3103 1784 3103 
Q 1356 3103 1142 2972 
Q 928 2841 928 2578 
Q 928 2378 1081 2264 
Q 1234 2150 1697 2047 
L 1894 2003 
Q 2506 1872 2764 1633 
Q 3022 1394 3022 966 
Q 3022 478 2636 193 
Q 2250 -91 1575 -91 
Q 1294 -91 989 -36 
Q 684 19 347 128 
L 347 722 
Q 666 556 975 473 
Q 1284 391 1588 391 
Q 1994 391 2212 530 
Q 2431 669 2431 922 
Q 2431 1156 2273 1281 
Q 2116 1406 1581 1522 
L 1381 1569 
Q 847 1681 609 1914 
Q 372 2147 372 2553 
Q 372 3047 722 3315 
Q 1072 3584 1716 3584 
Q 2034 3584 2315 3537 
Q 2597 3491 2834 3397 
z
" transform="scale(0.015625)"/>
      </defs>
      <use xlink:href="#DejaVuSans-6e"/>
      <use xlink:href="#DejaVuSans-20" transform="translate(63.378906 0)"/>
      <use xlink:href="#DejaVuSans-72" transform="translate(95.166016 0)"/>
      <use xlink:href="#DejaVuSans-75" transform="translate(136.279297 0)"/>
      <use xlink:href="#DejaVuSans-6e" transform="translate(199.658203 0)"/>
      <use xlink:href="#DejaVuSans-73" transform="translate(263.037109 0)"/>
     </g>
    </g>
   </g>
   <g id="matplotlib.axis_2">
    <g id="ytick_1">
     <g id="line2d_7">
      <defs>
       <path id="mba2b1dc3d5" d="M 0 0 
L -3.5 0 
" style="stroke: #000000; stroke-width: 0.8"/>
      </defs>
      <g>
       <use xlink:href="#mba2b1dc3d5" x="56.928125" y="291.508265" style="stroke: #000000; stroke-width: 0.8"/>
      </g>
     </g>
     <g id="text_8">
      <!-- 0 -->
      <g transform="translate(43.565625 295.307484) scale(0.1 -0.1)">
       <use xlink:href="#DejaVuSans-30"/>
      </g>
     </g>
    </g>
    <g id="ytick_2">
     <g id="line2d_8">
      <g>
       <use xlink:href="#mba2b1dc3d5" x="56.928125" y="250.312453" style="stroke: #000000; stroke-width: 0.8"/>
      </g>
     </g>
     <g id="text_9">
      <!-- 200 -->
      <g transform="translate(30.840625 254.111671) scale(0.1 -0.1)">
       <use xlink:href="#DejaVuSans-32"/>
       <use xlink:href="#DejaVuSans-30" transform="translate(63.623047 0)"/>
       <use xlink:href="#DejaVuSans-30" transform="translate(127.246094 0)"/>
      </g>
     </g>
    </g>
    <g id="ytick_3">
     <g id="line2d_9">
      <g>
       <use xlink:href="#mba2b1dc3d5" x="56.928125" y="209.11664" style="stroke: #000000; stroke-width: 0.8"/>
      </g>
     </g>
     <g id="text_10">
      <!-- 400 -->
      <g transform="translate(30.840625 212.915859) scale(0.1 -0.1)">
       <use xlink:href="#DejaVuSans-34"/>
       <use xlink:href="#DejaVuSans-30" transform="translate(63.623047 0)"/>
       <use xlink:href="#DejaVuSans-30" transform="translate(127.246094 0)"/>
      </g>
     </g>
    </g>
    <g id="ytick_4">
     <g id="line2d_10">
      <g>
       <use xlink:href="#mba2b1dc3d5" x="56.928125" y="167.920828" style="stroke: #000000; stroke-width: 0.8"/>
      </g>
     </g>
     <g id="text_11">
      <!-- 600 -->
      <g transform="translate(30.840625 171.720047) scale(0.1 -0.1)">
       <use xlink:href="#DejaVuSans-36"/>
       <use xlink:href="#DejaVuSans-30" transform="translate(63.623047 0)"/>
       <use xlink:href="#DejaVuSans-30" transform="translate(127.246094 0)"/>
      </g>
     </g>
    </g>
    <g id="ytick_5">
     <g id="line2d_11">
      <g>
       <use xlink:href="#mba2b1dc3d5" x="56.928125" y="126.725016" style="stroke: #000000; stroke-width: 0.8"/>
      </g>
     </g>
     <g id="text_12">
      <!-- 800 -->
      <g transform="translate(30.840625 130.524235) scale(0.1 -0.1)">
       <use xlink:href="#DejaVuSans-38"/>
       <use xlink:href="#DejaVuSans-30" transform="translate(63.623047 0)"/>
       <use xlink:href="#DejaVuSans-30" transform="translate(127.246094 0)"/>
      </g>
     </g>
    </g>
    <g id="ytick_6">
     <g id="line2d_12">
      <g>
       <use xlink:href="#mba2b1dc3d5" x="56.928125" y="85.529203" style="stroke: #000000; stroke-width: 0.8"/>
      </g>
     </g>
     <g id="text_13">
      <!-- 1000 -->
      <g transform="translate(24.478125 89.328422) scale(0.1 -0.1)">
       <use xlink:href="#DejaVuSans-31"/>
       <use xlink:href="#DejaVuSans-30" transform="translate(63.623047 0)"/>
       <use xlink:href="#DejaVuSans-30" transform="translate(127.246094 0)"/>
       <use xlink:href="#DejaVuSans-30" transform="translate(190.869141 0)"/>
      </g>
     </g>
    </g>
    <g id="ytick_7">
     <g id="line2d_13">
      <g>
       <use xlink:href="#mba2b1dc3d5" x="56.928125" y="44.333391" style="stroke: #000000; stroke-width: 0.8"/>
      </g>
     </g>
     <g id="text_14">
      <!-- 1200 -->
      <g transform="translate(24.478125 48.13261) scale(0.1 -0.1)">
       <use xlink:href="#DejaVuSans-31"/>
       <use xlink:href="#DejaVuSans-32" transform="translate(63.623047 0)"/>
       <use xlink:href="#DejaVuSans-30" transform="translate(127.246094 0)"/>
       <use xlink:href="#DejaVuSans-30" transform="translate(190.869141 0)"/>
      </g>
     </g>
    </g>
    <g id="text_15">
     <!-- time (ms) -->
     <g transform="translate(18.398438 181.883594) rotate(-90) scale(0.1 -0.1)">
      <defs>
       <path id="DejaVuSans-74" d="M 1172 4494 
L 1172 3500 
L 2356 3500 
L 2356 3053 
L 1172 3053 
L 1172 1153 
Q 1172 725 1289 603 
Q 1406 481 1766 481 
L 2356 481 
L 2356 0 
L 1766 0 
Q 1100 0 847 248 
Q 594 497 594 1153 
L 594 3053 
L 172 3053 
L 172 3500 
L 594 3500 
L 594 4494 
L 1172 4494 
z
" transform="scale(0.015625)"/>
       <path id="DejaVuSans-69" d="M 603 3500 
L 1178 3500 
L 1178 0 
L 603 0 
L 603 3500 
z
M 603 4863 
L 1178 4863 
L 1178 4134 
L 603 4134 
L 603 4863 
z
" transform="scale(0.015625)"/>
       <path id="DejaVuSans-6d" d="M 3328 2828 
Q 3544 3216 3844 3400 
Q 4144 3584 4550 3584 
Q 5097 3584 5394 3201 
Q 5691 2819 5691 2113 
L 5691 0 
L 5113 0 
L 5113 2094 
Q 5113 2597 4934 2840 
Q 4756 3084 4391 3084 
Q 3944 3084 3684 2787 
Q 3425 2491 3425 1978 
L 3425 0 
L 2847 0 
L 2847 2094 
Q 2847 2600 2669 2842 
Q 2491 3084 2119 3084 
Q 1678 3084 1418 2786 
Q 1159 2488 1159 1978 
L 1159 0 
L 581 0 
L 581 3500 
L 1159 3500 
L 1159 2956 
Q 1356 3278 1631 3431 
Q 1906 3584 2284 3584 
Q 2666 3584 2933 3390 
Q 3200 3197 3328 2828 
z
" transform="scale(0.015625)"/>
       <path id="DejaVuSans-65" d="M 3597 1894 
L 3597 1613 
L 953 1613 
Q 991 1019 1311 708 
Q 1631 397 2203 397 
Q 2534 397 2845 478 
Q 3156 559 3463 722 
L 3463 178 
Q 3153 47 2828 -22 
Q 2503 -91 2169 -91 
Q 1331 -91 842 396 
Q 353 884 353 1716 
Q 353 2575 817 3079 
Q 1281 3584 2069 3584 
Q 2775 3584 3186 3129 
Q 3597 2675 3597 1894 
z
M 3022 2063 
Q 3016 2534 2758 2815 
Q 2500 3097 2075 3097 
Q 1594 3097 1305 2825 
Q 1016 2553 972 2059 
L 3022 2063 
z
" transform="scale(0.015625)"/>
       <path id="DejaVuSans-28" d="M 1984 4856 
Q 1566 4138 1362 3434 
Q 1159 2731 1159 2009 
Q 1159 1288 1364 580 
Q 1569 -128 1984 -844 
L 1484 -844 
Q 1016 -109 783 600 
Q 550 1309 550 2009 
Q 550 2706 781 3412 
Q 1013 4119 1484 4856 
L 1984 4856 
z
" transform="scale(0.015625)"/>
       <path id="DejaVuSans-29" d="M 513 4856 
L 1013 4856 
Q 1481 4119 1714 3412 
Q 1947 2706 1947 2009 
Q 1947 1309 1714 600 
Q 1481 -109 1013 -844 
L 513 -844 
Q 928 -128 1133 580 
Q 1338 1288 1338 2009 
Q 1338 2731 1133 3434 
Q 928 4138 513 4856 
z
" transform="scale(0.015625)"/>
      </defs>
      <use xlink:href="#DejaVuSans-74"/>
      <use xlink:href="#DejaVuSans-69" transform="translate(39.208984 0)"/>
      <use xlink:href="#DejaVuSans-6d" transform="translate(66.992188 0)"/>
      <use xlink:href="#DejaVuSans-65" transform="translate(164.404297 0)"/>
      <use xlink:href="#DejaVuSans-20" transform="translate(225.927734 0)"/>
      <use xlink:href="#DejaVuSans-28" transform="translate(257.714844 0)"/>
      <use xlink:href="#DejaVuSans-6d" transform="translate(296.728516 0)"/>
      <use xlink:href="#DejaVuSans-73" transform="translate(394.140625 0)"/>
      <use xlink:href="#DejaVuSans-29" transform="translate(446.240234 0)"/>
     </g>
    </g>
   </g>
   <g id="line2d_14">
    <path d="M 71.83696 281.209312 
L 72.105346 281.209312 
L 72.403553 281.209312 
L 72.701759 280.385396 
L 72.999966 280.385396 
L 73.298172 280.385396 
L 73.596379 280.179417 
L 73.894585 279.973437 
L 74.192792 279.767458 
L 74.490998 279.561479 
L 74.789205 279.561479 
L 77.77127 277.913647 
L 80.753335 276.883752 
L 83.735401 276.059835 
L 86.717466 275.441898 
L 89.699531 274.206024 
L 92.681596 273.382108 
L 95.663662 273.176128 
L 98.645727 272.558191 
L 101.627792 271.940254 
L 104.609857 271.940254 
L 107.591923 269.056547 
L 110.573988 270.498401 
L 113.556053 270.086443 
L 116.538118 269.880463 
L 119.520184 265.966861 
L 122.502249 268.644589 
L 125.484314 268.232631 
L 128.466379 268.232631 
L 131.448445 267.614694 
L 134.43051 267.202736 
L 137.412575 267.408715 
L 140.39464 266.996757 
L 143.376706 266.790778 
L 146.358771 266.17284 
L 149.340836 266.996757 
L 152.322901 266.790778 
L 155.304967 266.790778 
L 158.287032 257.727699 
L 161.269097 265.142945 
L 164.251162 265.554903 
L 167.233228 265.554903 
L 170.215293 265.348924 
L 173.197358 265.348924 
L 176.179423 265.554903 
L 179.161489 264.525008 
L 182.143554 264.525008 
L 185.125619 263.495113 
L 188.107684 264.730987 
L 191.08975 264.11305 
L 194.071815 264.525008 
L 197.05388 264.11305 
L 200.035945 264.319029 
L 203.018011 264.11305 
L 206.000076 264.730987 
L 208.982141 263.701092 
L 211.964206 262.259238 
L 214.946272 263.289134 
L 217.928337 263.289134 
L 220.910402 263.495113 
L 223.892467 263.495113 
L 226.874533 263.289134 
L 229.856598 262.053259 
L 232.838663 263.083154 
L 235.820728 262.877175 
L 238.802794 260.817385 
L 241.784859 260.817385 
L 244.766924 262.465217 
L 247.748989 261.641301 
L 250.731055 260.199448 
L 253.71312 262.053259 
L 256.695185 261.641301 
L 259.67725 261.641301 
L 262.659316 261.435322 
L 265.641381 261.229343 
L 268.623446 259.58151 
L 271.605511 260.817385 
L 274.587577 260.611406 
L 277.569642 260.405427 
L 280.551707 260.611406 
L 283.533772 261.435322 
L 286.515838 259.787489 
L 289.497903 258.757594 
L 292.479968 259.58151 
L 295.462033 260.405427 
L 298.444099 260.611406 
L 301.426164 259.375531 
L 304.408229 260.199448 
L 307.390294 260.405427 
L 310.37236 258.963573 
L 313.354425 259.58151 
L 316.33649 259.58151 
L 319.318555 259.375531 
L 322.300621 259.169552 
L 325.282686 259.993469 
L 328.264751 258.139657 
L 331.246816 258.757594 
L 334.228882 257.933678 
L 337.210947 259.169552 
L 340.193012 259.375531 
L 343.175078 258.139657 
L 346.157143 257.52172 
L 349.139208 258.139657 
L 352.121273 257.52172 
L 355.103339 257.315741 
L 358.085404 257.315741 
L 361.067469 257.933678 
L 364.049534 253.814097 
L 367.0316 257.109762 
L 370.013665 248.458641 
" clip-path="url(#pc359a7afda)" style="fill: none; stroke: #1f77b4; stroke-width: 1.5; stroke-linecap: square"/>
   </g>
   <g id="line2d_15">
    <path d="M 71.83696 289.860432 
L 72.105346 288.2126 
L 72.403553 286.770747 
L 72.701759 285.740851 
L 72.999966 283.88704 
L 73.298172 283.269102 
L 73.596379 282.033228 
L 73.894585 280.797354 
L 74.192792 278.943542 
L 74.490998 278.119626 
L 74.789205 277.29571 
L 77.77127 270.910359 
L 80.753335 265.348924 
L 83.735401 261.435322 
L 86.717466 260.405427 
L 89.699531 257.315741 
L 92.681596 254.432034 
L 95.663662 244.133081 
L 98.645727 249.488536 
L 101.627792 248.458641 
L 104.609857 243.927102 
L 107.591923 242.691227 
L 110.573988 236.717835 
L 113.556053 231.774337 
L 116.538118 215.913949 
L 119.520184 228.89063 
L 122.502249 230.744442 
L 125.484314 221.475384 
L 128.466379 219.415593 
L 131.448445 212.206326 
L 134.43051 206.026954 
L 137.412575 206.438913 
L 140.39464 202.113352 
L 143.376706 197.169855 
L 146.358771 194.698106 
L 149.340836 187.28286 
L 152.322901 182.133383 
L 155.304967 180.897509 
L 158.287032 180.073593 
L 161.269097 176.983907 
L 164.251162 176.983907 
L 167.233228 165.2431 
L 170.215293 167.096912 
L 173.197358 168.744744 
L 176.179423 174.718137 
L 179.161489 166.890933 
L 182.143554 164.625163 
L 185.125619 161.123519 
L 188.107684 153.914252 
L 191.08975 158.033833 
L 194.071815 142.791383 
L 197.05388 145.263131 
L 200.035945 148.970754 
L 203.018011 153.708273 
L 206.000076 147.322922 
L 208.982141 151.030545 
L 211.964206 146.704985 
L 214.946272 139.701697 
L 217.928337 140.113655 
L 220.910402 141.555508 
L 223.892467 139.083759 
L 226.874533 120.957602 
L 229.856598 136.200053 
L 232.838663 120.751623 
L 235.820728 132.28645 
L 238.802794 126.313058 
L 241.784859 126.313058 
L 244.766924 108.598858 
L 247.748989 111.482565 
L 250.731055 109.422775 
L 253.71312 106.951026 
L 256.695185 102.625466 
L 259.67725 110.040712 
L 262.659316 115.396167 
L 265.641381 107.362984 
L 268.623446 107.157005 
L 271.605511 107.774942 
L 274.587577 102.419487 
L 277.569642 106.745047 
L 280.551707 103.449382 
L 283.533772 105.509172 
L 286.515838 98.917842 
L 289.497903 97.064031 
L 292.479968 90.67868 
L 295.462033 105.921131 
L 298.444099 95.416198 
L 301.426164 86.559099 
L 304.408229 78.319936 
L 307.390294 100.565675 
L 310.37236 90.472701 
L 313.354425 83.057455 
L 316.33649 95.00424 
L 319.318555 88.41291 
L 322.300621 85.117245 
L 325.282686 79.76179 
L 328.264751 76.054167 
L 331.246816 82.851476 
L 334.228882 81.409622 
L 337.210947 63.901402 
L 340.193012 70.286753 
L 343.175078 66.57913 
L 346.157143 71.934585 
L 349.139208 58.751926 
L 352.121273 24.147443 
L 355.103339 73.376439 
L 358.085404 59.9878 
L 361.067469 43.921433 
L 364.049534 59.781821 
L 367.0316 39.595873 
L 370.013665 47.835035 
" clip-path="url(#pc359a7afda)" style="fill: none; stroke: #ff7f0e; stroke-width: 1.5; stroke-linecap: square"/>
   </g>
   <g id="line2d_16">
    <path d="M 71.83696 287.800642 
L 72.105346 287.388684 
L 72.403553 286.976726 
L 72.701759 286.976726 
L 72.999966 286.770747 
L 73.298172 286.358788 
L 73.596379 285.94683 
L 73.894585 285.94683 
L 74.192792 285.328893 
L 74.490998 285.328893 
L 74.789205 285.122914 
L 77.77127 283.063123 
L 80.753335 281.62127 
L 83.735401 279.3555 
L 86.717466 279.561479 
L 89.699531 278.531584 
L 92.681596 277.707668 
L 95.663662 276.059835 
L 98.645727 276.265814 
L 101.627792 275.441898 
L 104.609857 275.02994 
L 107.591923 274.617982 
L 110.573988 273.382108 
L 113.556053 273.382108 
L 116.538118 272.76417 
L 119.520184 270.086443 
L 122.502249 270.910359 
L 125.484314 270.086443 
L 128.466379 270.910359 
L 131.448445 269.468505 
L 134.43051 269.880463 
L 137.412575 269.880463 
L 140.39464 268.644589 
L 143.376706 267.202736 
L 146.358771 268.026652 
L 149.340836 267.202736 
L 152.322901 266.996757 
L 155.304967 266.378819 
L 158.287032 265.966861 
L 161.269097 265.760882 
L 164.251162 264.936966 
L 167.233228 263.495113 
L 170.215293 263.495113 
L 173.197358 261.641301 
L 176.179423 261.023364 
L 179.161489 261.84728 
L 182.143554 260.817385 
L 185.125619 260.817385 
L 188.107684 259.993469 
L 191.08975 258.757594 
L 194.071815 258.963573 
L 197.05388 259.375531 
L 200.035945 258.757594 
L 203.018011 257.933678 
L 206.000076 257.52172 
L 208.982141 254.020076 
L 211.964206 257.52172 
L 214.946272 253.19616 
L 217.928337 257.52172 
L 220.910402 256.079866 
L 223.892467 255.461929 
L 226.874533 254.843992 
L 229.856598 254.020076 
L 232.838663 254.432034 
L 235.820728 253.19616 
L 238.802794 253.19616 
L 241.784859 251.548327 
L 244.766924 250.93039 
L 247.748989 251.548327 
L 250.731055 249.282557 
L 253.71312 249.900495 
L 256.695185 249.488536 
L 259.67725 249.076578 
L 262.659316 248.870599 
L 265.641381 247.634725 
L 268.623446 244.545039 
L 271.605511 247.840704 
L 274.587577 247.222767 
L 277.569642 245.986892 
L 280.551707 242.691227 
L 283.533772 244.545039 
L 286.515838 244.956997 
L 289.497903 244.956997 
L 292.479968 245.780913 
L 295.462033 243.927102 
L 298.444099 241.661332 
L 301.426164 242.691227 
L 304.408229 241.661332 
L 307.390294 243.103186 
L 310.37236 239.601541 
L 313.354425 238.571646 
L 316.33649 239.601541 
L 319.318555 240.425458 
L 322.300621 240.219479 
L 325.282686 237.953709 
L 328.264751 238.571646 
L 331.246816 237.335772 
L 334.228882 236.923814 
L 337.210947 229.096609 
L 340.193012 235.275981 
L 343.175078 238.571646 
L 346.157143 234.452065 
L 349.139208 236.305876 
L 352.121273 232.804232 
L 355.103339 234.864023 
L 358.085404 233.216191 
L 361.067469 231.362379 
L 364.049534 230.950421 
L 367.0316 231.362379 
L 370.013665 229.302588 
" clip-path="url(#pc359a7afda)" style="fill: none; stroke: #2ca02c; stroke-width: 1.5; stroke-linecap: square"/>
   </g>
   <g id="line2d_17">
    <path d="M 71.83696 171.010514 
L 72.105346 170.186598 
L 72.403553 169.980619 
L 72.701759 170.804535 
L 72.999966 170.804535 
L 73.298172 171.83443 
L 73.596379 168.538765 
L 73.894585 169.980619 
L 74.192792 169.362682 
L 74.490998 168.332786 
L 74.789205 166.890933 
L 77.77127 169.156702 
L 80.753335 167.50887 
L 83.735401 167.096912 
L 86.717466 166.684954 
L 89.699531 166.890933 
L 92.681596 162.771352 
L 95.663662 160.505582 
L 98.645727 165.655058 
L 101.627792 166.478975 
L 104.609857 166.890933 
L 107.591923 165.2431 
L 110.573988 160.91754 
L 113.556053 165.449079 
L 116.538118 164.007226 
L 119.520184 166.067017 
L 122.502249 161.123519 
L 125.484314 163.801247 
L 128.466379 164.625163 
L 131.448445 161.947435 
L 134.43051 161.947435 
L 137.412575 163.595268 
L 140.39464 165.037121 
L 143.376706 163.801247 
L 146.358771 164.213205 
L 149.340836 164.831142 
L 152.322901 165.655058 
L 155.304967 165.2431 
L 158.287032 161.947435 
L 161.269097 164.007226 
L 164.251162 162.153414 
L 167.233228 162.153414 
L 170.215293 164.213205 
L 173.197358 160.711561 
L 176.179423 163.18331 
L 179.161489 158.445791 
L 182.143554 161.741456 
L 185.125619 164.419184 
L 188.107684 165.037121 
L 191.08975 161.123519 
L 194.071815 163.389289 
L 197.05388 164.007226 
L 200.035945 162.359393 
L 203.018011 162.565372 
L 206.000076 158.239812 
L 208.982141 158.857749 
L 211.964206 162.977331 
L 214.946272 163.389289 
L 217.928337 167.096912 
L 220.910402 160.505582 
L 223.892467 161.123519 
L 226.874533 165.2431 
L 229.856598 158.239812 
L 232.838663 160.093624 
L 235.820728 162.771352 
L 238.802794 163.389289 
L 241.784859 163.389289 
L 244.766924 160.505582 
L 247.748989 158.033833 
L 250.731055 162.771352 
L 253.71312 162.153414 
L 256.695185 155.974043 
L 259.67725 147.940859 
L 262.659316 158.239812 
L 265.641381 158.857749 
L 268.623446 159.887645 
L 271.605511 155.356105 
L 274.587577 160.91754 
L 277.569642 159.887645 
L 280.551707 160.91754 
L 283.533772 159.269707 
L 286.515838 159.269707 
L 289.497903 158.65177 
L 292.479968 158.65177 
L 295.462033 159.475687 
L 298.444099 161.329498 
L 301.426164 160.299603 
L 304.408229 158.65177 
L 307.390294 163.18331 
L 310.37236 162.153414 
L 313.354425 156.797959 
L 316.33649 163.595268 
L 319.318555 159.475687 
L 322.300621 161.535477 
L 325.282686 162.359393 
L 328.264751 158.857749 
L 331.246816 161.535477 
L 334.228882 160.91754 
L 337.210947 161.535477 
L 340.193012 157.415896 
L 343.175078 162.153414 
L 346.157143 161.741456 
L 349.139208 162.359393 
L 352.121273 161.329498 
L 355.103339 161.947435 
L 358.085404 160.711561 
L 361.067469 161.123519 
L 364.049534 160.505582 
L 367.0316 159.681666 
L 370.013665 159.063728 
" clip-path="url(#pc359a7afda)" style="fill: none; stroke: #d62728; stroke-width: 1.5; stroke-linecap: square"/>
   </g>
   <g id="line2d_18">
    <path d="M 71.83696 290.47837 
L 72.105346 290.47837 
L 72.403553 289.860432 
L 72.701759 289.654453 
L 72.999966 288.830537 
L 73.298172 289.242495 
L 73.596379 289.036516 
L 73.894585 288.830537 
L 74.192792 288.624558 
L 74.490998 288.418579 
L 74.789205 288.418579 
L 77.77127 287.388684 
L 80.753335 286.770747 
L 83.735401 286.358788 
L 86.717466 285.740851 
L 89.699531 285.534872 
L 92.681596 284.298998 
L 95.663662 284.916935 
L 98.645727 284.504977 
L 101.627792 284.093019 
L 104.609857 284.093019 
L 107.591923 283.88704 
L 110.573988 283.063123 
L 113.556053 282.857144 
L 116.538118 283.475082 
L 119.520184 283.269102 
L 122.502249 282.239207 
L 125.484314 283.063123 
L 128.466379 282.857144 
L 131.448445 279.561479 
L 134.43051 282.445186 
L 137.412575 282.651165 
L 140.39464 282.239207 
L 143.376706 282.033228 
L 146.358771 281.827249 
L 149.340836 282.239207 
L 152.322901 281.827249 
L 155.304967 281.62127 
L 158.287032 281.62127 
L 161.269097 281.209312 
L 164.251162 280.179417 
L 167.233228 281.003333 
L 170.215293 281.003333 
L 173.197358 280.797354 
L 176.179423 280.797354 
L 179.161489 280.591375 
L 182.143554 279.973437 
L 185.125619 280.179417 
L 188.107684 279.973437 
L 191.08975 279.561479 
L 194.071815 279.973437 
L 197.05388 279.973437 
L 200.035945 279.3555 
L 203.018011 279.561479 
L 206.000076 279.561479 
L 208.982141 279.3555 
L 211.964206 279.3555 
L 214.946272 278.943542 
L 217.928337 278.943542 
L 220.910402 278.737563 
L 223.892467 278.737563 
L 226.874533 278.531584 
L 229.856598 278.531584 
L 232.838663 278.119626 
L 235.820728 277.501689 
L 238.802794 278.119626 
L 241.784859 277.501689 
L 244.766924 277.913647 
L 247.748989 277.501689 
L 250.731055 277.089731 
L 253.71312 277.501689 
L 256.695185 277.29571 
L 259.67725 276.265814 
L 262.659316 276.883752 
L 265.641381 276.677773 
L 268.623446 277.089731 
L 271.605511 276.883752 
L 274.587577 276.471793 
L 277.569642 276.059835 
L 280.551707 275.853856 
L 283.533772 276.471793 
L 286.515838 275.853856 
L 289.497903 276.265814 
L 292.479968 276.265814 
L 295.462033 275.647877 
L 298.444099 276.265814 
L 301.426164 275.647877 
L 304.408229 275.853856 
L 307.390294 275.853856 
L 310.37236 275.647877 
L 313.354425 275.441898 
L 316.33649 275.235919 
L 319.318555 275.235919 
L 322.300621 275.235919 
L 325.282686 275.235919 
L 328.264751 274.823961 
L 331.246816 274.823961 
L 334.228882 274.617982 
L 337.210947 274.206024 
L 340.193012 274.206024 
L 343.175078 274.412003 
L 346.157143 274.000045 
L 349.139208 273.588087 
L 352.121273 273.176128 
L 355.103339 274.000045 
L 358.085404 274.000045 
L 361.067469 274.000045 
L 364.049534 272.146233 
L 367.0316 266.790778 
L 370.013665 272.352212 
" clip-path="url(#pc359a7afda)" style="fill: none; stroke: #9467bd; stroke-width: 1.5; stroke-linecap: square"/>
   </g>
   <g id="line2d_19">
    <path d="M 71.83696 257.727699 
L 72.105346 256.079866 
L 72.403553 258.757594 
L 72.701759 255.25595 
L 72.999966 256.491824 
L 73.298172 260.611406 
L 73.596379 255.25595 
L 73.894585 256.697804 
L 74.192792 254.638013 
L 74.490998 254.638013 
L 74.789205 255.667908 
L 77.77127 254.432034 
L 80.753335 255.873887 
L 83.735401 253.19616 
L 86.717466 253.402139 
L 89.699531 253.402139 
L 92.681596 257.315741 
L 95.663662 248.252662 
L 98.645727 251.342348 
L 101.627792 248.870599 
L 104.609857 251.136369 
L 107.591923 249.694515 
L 110.573988 249.694515 
L 113.556053 244.133081 
L 116.538118 246.192871 
L 119.520184 251.548327 
L 122.502249 247.222767 
L 125.484314 249.488536 
L 128.466379 247.840704 
L 131.448445 247.840704 
L 134.43051 249.488536 
L 137.412575 248.458641 
L 140.39464 251.342348 
L 143.376706 247.840704 
L 146.358771 248.458641 
L 149.340836 250.312453 
L 152.322901 247.222767 
L 155.304967 248.046683 
L 158.287032 245.574934 
L 161.269097 246.60483 
L 164.251162 247.840704 
L 167.233228 248.870599 
L 170.215293 245.986892 
L 173.197358 245.162976 
L 176.179423 247.428746 
L 179.161489 246.39885 
L 182.143554 243.103186 
L 185.125619 249.694515 
L 188.107684 244.33906 
L 191.08975 247.840704 
L 194.071815 245.986892 
L 197.05388 244.545039 
L 200.035945 245.162976 
L 203.018011 244.751018 
L 206.000076 243.927102 
L 208.982141 247.428746 
L 211.964206 246.60483 
L 214.946272 243.927102 
L 217.928337 247.428746 
L 220.910402 247.634725 
L 223.892467 246.39885 
L 226.874533 247.016788 
L 229.856598 242.897206 
L 232.838663 246.192871 
L 235.820728 248.046683 
L 238.802794 239.601541 
L 241.784859 247.634725 
L 244.766924 248.046683 
L 247.748989 242.485248 
L 250.731055 243.515144 
L 253.71312 244.133081 
L 256.695185 242.897206 
L 259.67725 244.545039 
L 262.659316 245.986892 
L 265.641381 245.780913 
L 268.623446 244.956997 
L 271.605511 244.133081 
L 274.587577 243.515144 
L 277.569642 239.601541 
L 280.551707 245.780913 
L 283.533772 240.631437 
L 286.515838 249.076578 
L 289.497903 243.721123 
L 292.479968 242.07329 
L 295.462033 246.192871 
L 298.444099 243.309165 
L 301.426164 242.485248 
L 304.408229 245.574934 
L 307.390294 245.986892 
L 310.37236 243.927102 
L 313.354425 241.249374 
L 316.33649 242.485248 
L 319.318555 243.927102 
L 322.300621 242.07329 
L 325.282686 241.043395 
L 328.264751 239.807521 
L 331.246816 242.897206 
L 334.228882 241.455353 
L 337.210947 239.807521 
L 340.193012 241.043395 
L 343.175078 241.867311 
L 346.157143 243.927102 
L 349.139208 241.661332 
L 352.121273 240.219479 
L 355.103339 244.956997 
L 358.085404 240.631437 
L 361.067469 240.0135 
L 364.049534 241.043395 
L 367.0316 238.983604 
L 370.013665 238.571646 
" clip-path="url(#pc359a7afda)" style="fill: none; stroke: #8c564b; stroke-width: 1.5; stroke-linecap: square"/>
   </g>
   <g id="line2d_20">
    <path d="M 71.83696 289.860432 
L 72.105346 289.860432 
L 72.403553 289.654453 
L 72.701759 289.654453 
L 72.999966 289.448474 
L 73.298172 289.242495 
L 73.596379 289.036516 
L 73.894585 289.036516 
L 74.192792 289.036516 
L 74.490998 289.242495 
L 74.789205 288.830537 
L 77.77127 288.418579 
L 80.753335 288.006621 
L 83.735401 284.710956 
L 86.717466 287.388684 
L 89.699531 287.182705 
L 92.681596 286.976726 
L 95.663662 286.564767 
L 98.645727 286.770747 
L 101.627792 286.564767 
L 104.609857 286.564767 
L 107.591923 286.564767 
L 110.573988 286.152809 
L 113.556053 285.94683 
L 116.538118 285.740851 
L 119.520184 285.740851 
L 122.502249 284.298998 
L 125.484314 281.415291 
L 128.466379 285.328893 
L 131.448445 285.328893 
L 134.43051 285.328893 
L 137.412575 285.534872 
L 140.39464 285.328893 
L 143.376706 284.916935 
L 146.358771 285.122914 
L 149.340836 284.916935 
L 152.322901 284.710956 
L 155.304967 284.710956 
L 158.287032 284.710956 
L 161.269097 284.504977 
L 164.251162 284.504977 
L 167.233228 283.475082 
L 170.215293 283.88704 
L 173.197358 284.504977 
L 176.179423 284.093019 
L 179.161489 284.093019 
L 182.143554 283.88704 
L 185.125619 284.093019 
L 188.107684 283.681061 
L 191.08975 283.681061 
L 194.071815 283.681061 
L 197.05388 283.269102 
L 200.035945 283.681061 
L 203.018011 283.475082 
L 206.000076 282.651165 
L 208.982141 283.269102 
L 211.964206 283.063123 
L 214.946272 282.857144 
L 217.928337 282.445186 
L 220.910402 282.857144 
L 223.892467 282.857144 
L 226.874533 282.857144 
L 229.856598 282.651165 
L 232.838663 282.651165 
L 235.820728 282.445186 
L 238.802794 281.62127 
L 241.784859 282.239207 
L 244.766924 281.827249 
L 247.748989 281.827249 
L 250.731055 282.033228 
L 253.71312 282.033228 
L 256.695185 281.827249 
L 259.67725 281.62127 
L 262.659316 281.62127 
L 265.641381 279.767458 
L 268.623446 280.591375 
L 271.605511 280.179417 
L 274.587577 280.797354 
L 277.569642 278.531584 
L 280.551707 278.325605 
L 283.533772 280.591375 
L 286.515838 280.385396 
L 289.497903 280.385396 
L 292.479968 280.591375 
L 295.462033 280.179417 
L 298.444099 279.973437 
L 301.426164 280.591375 
L 304.408229 279.561479 
L 307.390294 279.973437 
L 310.37236 278.943542 
L 313.354425 278.737563 
L 316.33649 279.149521 
L 319.318555 279.767458 
L 322.300621 279.767458 
L 325.282686 279.149521 
L 328.264751 278.737563 
L 331.246816 279.3555 
L 334.228882 279.3555 
L 337.210947 278.737563 
L 340.193012 279.3555 
L 343.175078 279.149521 
L 346.157143 278.943542 
L 349.139208 279.3555 
L 352.121273 278.737563 
L 355.103339 278.943542 
L 358.085404 278.531584 
L 361.067469 278.531584 
L 364.049534 278.325605 
L 367.0316 278.737563 
L 370.013665 277.501689 
" clip-path="url(#pc359a7afda)" style="fill: none; stroke: #e377c2; stroke-width: 1.5; stroke-linecap: square"/>
   </g>
   <g id="line2d_21">
    <path d="M 71.83696 277.501689 
L 72.105346 275.853856 
L 72.403553 274.000045 
L 72.701759 273.588087 
L 72.999966 272.352212 
L 73.298172 271.734275 
L 73.596379 270.910359 
L 73.894585 270.498401 
L 74.192792 268.850568 
L 74.490998 267.820673 
L 74.789205 266.790778 
L 77.77127 262.671196 
L 80.753335 258.963573 
L 83.735401 253.402139 
L 86.717466 251.960285 
L 89.699531 248.458641 
L 92.681596 244.33906 
L 95.663662 243.309165 
L 98.645727 241.661332 
L 101.627792 242.279269 
L 104.609857 237.541751 
L 107.591923 237.335772 
L 110.573988 235.48196 
L 113.556053 233.216191 
L 116.538118 228.478672 
L 119.520184 234.246086 
L 122.502249 230.332484 
L 125.484314 230.950421 
L 128.466379 229.096609 
L 131.448445 228.478672 
L 134.43051 227.036819 
L 137.412575 226.418882 
L 140.39464 225.800944 
L 143.376706 224.56507 
L 146.358771 225.183007 
L 149.340836 222.711258 
L 152.322901 221.063426 
L 155.304967 220.23951 
L 158.287032 220.033531 
L 161.269097 216.737866 
L 164.251162 219.209614 
L 167.233228 217.149824 
L 170.215293 216.325908 
L 173.197358 214.472096 
L 176.179423 213.442201 
L 179.161489 213.236222 
L 182.143554 211.588389 
L 185.125619 205.820975 
L 188.107684 199.023666 
L 191.08975 208.498703 
L 194.071815 207.262829 
L 197.05388 205.820975 
L 200.035945 204.379122 
L 203.018011 204.379122 
L 206.000076 201.907373 
L 208.982141 196.139959 
L 211.964206 196.345939 
L 214.946272 202.731289 
L 217.928337 201.083457 
L 220.910402 198.405729 
L 223.892467 197.169855 
L 226.874533 191.402441 
L 229.856598 196.963876 
L 232.838663 191.60842 
L 235.820728 193.462232 
L 238.802794 193.050274 
L 241.784859 189.754609 
L 244.766924 188.930692 
L 247.748989 179.043697 
L 250.731055 187.694818 
L 253.71312 177.807823 
L 256.695185 184.193174 
L 259.67725 187.488839 
L 262.659316 179.455656 
L 265.641381 178.219781 
L 268.623446 183.987195 
L 271.605511 186.870902 
L 274.587577 182.339362 
L 277.569642 179.043697 
L 280.551707 176.159991 
L 283.533772 177.601844 
L 286.515838 176.777928 
L 289.497903 178.837718 
L 292.479968 175.748032 
L 295.462033 174.306179 
L 298.444099 175.748032 
L 301.426164 160.299603 
L 304.408229 178.837718 
L 307.390294 171.83443 
L 310.37236 171.83443 
L 313.354425 176.571949 
L 316.33649 164.831142 
L 319.318555 160.093624 
L 322.300621 168.126807 
L 325.282686 165.861037 
L 328.264751 165.2431 
L 331.246816 172.040409 
L 334.228882 165.449079 
L 337.210947 164.213205 
L 340.193012 162.977331 
L 343.175078 162.565372 
L 346.157143 166.272996 
L 349.139208 161.329498 
L 352.121273 160.711561 
L 355.103339 159.269707 
L 358.085404 159.475687 
L 361.067469 158.033833 
L 364.049534 158.239812 
L 367.0316 161.535477 
L 370.013665 152.266419 
" clip-path="url(#pc359a7afda)" style="fill: none; stroke: #7f7f7f; stroke-width: 1.5; stroke-linecap: square"/>
   </g>
   <g id="line2d_22">
    <path d="M 71.83696 289.448474 
L 72.105346 288.830537 
L 72.403553 288.006621 
L 72.701759 287.388684 
L 72.999966 286.976726 
L 73.298172 286.358788 
L 73.596379 286.358788 
L 73.894585 286.152809 
L 74.192792 285.94683 
L 74.490998 285.740851 
L 74.789205 285.740851 
L 77.77127 283.88704 
L 80.753335 279.973437 
L 83.735401 278.737563 
L 86.717466 277.913647 
L 89.699531 279.149521 
L 92.681596 278.325605 
L 95.663662 277.501689 
L 98.645727 276.677773 
L 101.627792 276.883752 
L 104.609857 276.677773 
L 107.591923 275.647877 
L 110.573988 275.853856 
L 113.556053 275.02994 
L 116.538118 275.235919 
L 119.520184 274.617982 
L 122.502249 272.146233 
L 125.484314 274.823961 
L 128.466379 274.206024 
L 131.448445 273.176128 
L 134.43051 272.558191 
L 137.412575 272.558191 
L 140.39464 272.558191 
L 143.376706 271.940254 
L 146.358771 270.910359 
L 149.340836 270.086443 
L 152.322901 271.116338 
L 155.304967 270.910359 
L 158.287032 270.086443 
L 161.269097 267.408715 
L 164.251162 267.408715 
L 167.233228 269.468505 
L 170.215293 268.026652 
L 173.197358 268.644589 
L 176.179423 265.966861 
L 179.161489 268.232631 
L 182.143554 268.026652 
L 185.125619 266.378819 
L 188.107684 266.996757 
L 191.08975 266.790778 
L 194.071815 255.873887 
L 197.05388 258.757594 
L 200.035945 265.760882 
L 203.018011 266.17284 
L 206.000076 265.348924 
L 208.982141 265.966861 
L 211.964206 265.760882 
L 214.946272 264.319029 
L 217.928337 262.465217 
L 220.910402 264.936966 
L 223.892467 262.465217 
L 226.874533 262.877175 
L 229.856598 263.701092 
L 232.838663 263.083154 
L 235.820728 263.495113 
L 238.802794 254.638013 
L 241.784859 262.671196 
L 244.766924 260.817385 
L 247.748989 259.58151 
L 250.731055 261.641301 
L 253.71312 261.435322 
L 256.695185 261.229343 
L 259.67725 260.611406 
L 262.659316 260.611406 
L 265.641381 260.199448 
L 268.623446 259.58151 
L 271.605511 258.139657 
L 274.587577 259.375531 
L 277.569642 260.199448 
L 280.551707 256.697804 
L 283.533772 259.169552 
L 286.515838 258.139657 
L 289.497903 257.933678 
L 292.479968 258.757594 
L 295.462033 258.757594 
L 298.444099 257.933678 
L 301.426164 258.551615 
L 304.408229 257.52172 
L 307.390294 257.109762 
L 310.37236 256.079866 
L 313.354425 256.491824 
L 316.33649 253.608118 
L 319.318555 254.638013 
L 322.300621 256.491824 
L 325.282686 252.166264 
L 328.264751 255.049971 
L 331.246816 256.285845 
L 334.228882 255.667908 
L 337.210947 252.372243 
L 340.193012 251.548327 
L 343.175078 255.461929 
L 346.157143 254.638013 
L 349.139208 253.608118 
L 352.121273 250.312453 
L 355.103339 254.638013 
L 358.085404 253.608118 
L 361.067469 251.548327 
L 364.049534 253.19616 
L 367.0316 252.578222 
L 370.013665 250.724411 
" clip-path="url(#pc359a7afda)" style="fill: none; stroke: #bcbd22; stroke-width: 1.5; stroke-linecap: square"/>
   </g>
   <g id="line2d_23">
    <path d="M 71.83696 224.359091 
L 72.105346 223.123217 
L 72.403553 222.505279 
L 72.701759 222.093321 
L 72.999966 220.033531 
L 73.298172 220.857447 
L 73.596379 218.385698 
L 73.894585 214.884054 
L 74.192792 217.97374 
L 74.490998 217.561782 
L 74.789205 217.149824 
L 77.77127 210.558494 
L 80.753335 208.498703 
L 83.735401 206.026954 
L 86.717466 199.847583 
L 89.699531 202.319331 
L 92.681596 199.847583 
L 95.663662 195.93398 
L 98.645727 198.19975 
L 101.627792 196.139959 
L 104.609857 196.139959 
L 107.591923 193.462232 
L 110.573988 193.050274 
L 113.556053 192.844295 
L 116.538118 191.814399 
L 119.520184 190.166567 
L 122.502249 181.515446 
L 125.484314 188.106776 
L 128.466379 192.020378 
L 131.448445 189.34265 
L 134.43051 189.754609 
L 137.412575 186.664923 
L 140.39464 188.518734 
L 143.376706 187.694818 
L 146.358771 184.193174 
L 149.340836 174.512158 
L 152.322901 185.429048 
L 155.304967 181.927404 
L 158.287032 183.987195 
L 161.269097 183.781216 
L 164.251162 183.987195 
L 167.233228 184.811111 
L 170.215293 181.721425 
L 173.197358 179.249676 
L 176.179423 179.043697 
L 179.161489 181.721425 
L 182.143554 180.279572 
L 185.125619 178.013802 
L 188.107684 180.69153 
L 191.08975 177.189886 
L 194.071815 176.777928 
L 197.05388 176.983907 
L 200.035945 178.631739 
L 203.018011 176.777928 
L 206.000076 175.542053 
L 208.982141 177.807823 
L 211.964206 174.718137 
L 214.946272 175.130095 
L 217.928337 174.306179 
L 220.910402 173.276284 
L 223.892467 172.864326 
L 226.874533 169.980619 
L 229.856598 170.392577 
L 232.838663 170.804535 
L 235.820728 171.628451 
L 238.802794 171.216493 
L 241.784859 167.920828 
L 244.766924 167.920828 
L 247.748989 167.50887 
L 250.731055 167.096912 
L 253.71312 164.419184 
L 256.695185 165.655058 
L 259.67725 166.067017 
L 262.659316 165.2431 
L 265.641381 164.831142 
L 268.623446 164.213205 
L 271.605511 165.655058 
L 274.587577 164.625163 
L 277.569642 163.595268 
L 280.551707 159.475687 
L 283.533772 159.681666 
L 286.515838 160.91754 
L 289.497903 164.625163 
L 292.479968 164.007226 
L 295.462033 162.977331 
L 298.444099 161.947435 
L 301.426164 162.771352 
L 304.408229 157.621875 
L 307.390294 161.123519 
L 310.37236 156.797959 
L 313.354425 161.947435 
L 316.33649 160.299603 
L 319.318555 159.063728 
L 322.300621 158.857749 
L 325.282686 157.827854 
L 328.264751 160.093624 
L 331.246816 155.768063 
L 334.228882 157.415896 
L 337.210947 155.356105 
L 340.193012 158.239812 
L 343.175078 155.562084 
L 346.157143 155.356105 
L 349.139208 154.532189 
L 352.121273 156.180022 
L 355.103339 153.502294 
L 358.085404 150.00065 
L 361.067469 153.914252 
L 364.049534 151.648482 
L 367.0316 95.416198 
L 370.013665 149.382713 
" clip-path="url(#pc359a7afda)" style="fill: none; stroke: #17becf; stroke-width: 1.5; stroke-linecap: square"/>
   </g>
   <g id="line2d_24">
    <path d="M 71.83696 291.096307 
L 72.105346 290.890328 
L 72.403553 290.684349 
L 72.701759 290.684349 
L 72.999966 290.47837 
L 73.298172 290.272391 
L 73.596379 290.272391 
L 73.894585 290.066412 
L 74.192792 289.860432 
L 74.490998 289.860432 
L 74.789205 289.860432 
L 77.77127 288.830537 
L 80.753335 288.624558 
L 83.735401 288.2126 
L 86.717466 288.006621 
L 89.699531 287.800642 
L 92.681596 287.388684 
L 95.663662 286.358788 
L 98.645727 287.182705 
L 101.627792 287.182705 
L 104.609857 286.770747 
L 107.591923 286.564767 
L 110.573988 286.358788 
L 113.556053 286.358788 
L 116.538118 286.152809 
L 119.520184 285.94683 
L 122.502249 284.093019 
L 125.484314 285.534872 
L 128.466379 285.740851 
L 131.448445 285.740851 
L 134.43051 285.328893 
L 137.412575 285.328893 
L 140.39464 285.534872 
L 143.376706 284.093019 
L 146.358771 285.122914 
L 149.340836 284.916935 
L 152.322901 284.710956 
L 155.304967 283.681061 
L 158.287032 284.504977 
L 161.269097 284.504977 
L 164.251162 284.093019 
L 167.233228 284.093019 
L 170.215293 284.298998 
L 173.197358 284.093019 
L 176.179423 283.88704 
L 179.161489 283.88704 
L 182.143554 283.88704 
L 185.125619 283.475082 
L 188.107684 283.475082 
L 191.08975 283.063123 
L 194.071815 283.269102 
L 197.05388 283.269102 
L 200.035945 283.063123 
L 203.018011 282.857144 
L 206.000076 282.651165 
L 208.982141 283.063123 
L 211.964206 282.857144 
L 214.946272 282.857144 
L 217.928337 282.651165 
L 220.910402 282.651165 
L 223.892467 282.651165 
L 226.874533 282.651165 
L 229.856598 282.445186 
L 232.838663 282.239207 
L 235.820728 282.033228 
L 238.802794 281.827249 
L 241.784859 281.827249 
L 244.766924 281.62127 
L 247.748989 281.415291 
L 250.731055 281.209312 
L 253.71312 281.003333 
L 256.695185 281.003333 
L 259.67725 281.209312 
L 262.659316 281.003333 
L 265.641381 280.385396 
L 268.623446 280.179417 
L 271.605511 280.591375 
L 274.587577 281.209312 
L 277.569642 280.797354 
L 280.551707 280.591375 
L 283.533772 281.003333 
L 286.515838 279.3555 
L 289.497903 280.591375 
L 292.479968 281.003333 
L 295.462033 280.797354 
L 298.444099 279.3555 
L 301.426164 280.385396 
L 304.408229 280.179417 
L 307.390294 280.179417 
L 310.37236 280.179417 
L 313.354425 279.561479 
L 316.33649 280.385396 
L 319.318555 279.973437 
L 322.300621 280.179417 
L 325.282686 280.385396 
L 328.264751 279.973437 
L 331.246816 279.767458 
L 334.228882 279.3555 
L 337.210947 279.561479 
L 340.193012 279.3555 
L 343.175078 279.3555 
L 346.157143 279.561479 
L 349.139208 278.943542 
L 352.121273 279.149521 
L 355.103339 279.3555 
L 358.085404 276.883752 
L 361.067469 278.943542 
L 364.049534 278.119626 
L 367.0316 278.737563 
L 370.013665 278.119626 
" clip-path="url(#pc359a7afda)" style="fill: none; stroke: #1f77b4; stroke-width: 1.5; stroke-linecap: square"/>
   </g>
   <g id="line2d_25">
    <path d="M 71.83696 289.036516 
L 72.105346 288.418579 
L 72.403553 286.770747 
L 72.701759 285.740851 
L 72.999966 284.504977 
L 73.298172 284.093019 
L 73.596379 283.269102 
L 73.894585 282.239207 
L 74.192792 281.62127 
L 74.490998 280.385396 
L 74.789205 280.179417 
L 77.77127 274.823961 
L 80.753335 268.644589 
L 83.735401 265.966861 
L 86.717466 261.023364 
L 89.699531 259.169552 
L 92.681596 257.727699 
L 95.663662 254.843992 
L 98.645727 252.372243 
L 101.627792 248.870599 
L 104.609857 247.634725 
L 107.591923 248.458641 
L 110.573988 246.39885 
L 113.556053 236.099897 
L 116.538118 241.249374 
L 119.520184 214.884054 
L 122.502249 240.0135 
L 125.484314 238.365667 
L 128.466379 238.777625 
L 131.448445 230.538463 
L 134.43051 235.893918 
L 137.412575 234.246086 
L 140.39464 232.804232 
L 143.376706 231.362379 
L 146.358771 229.508567 
L 149.340836 228.272693 
L 152.322901 227.036819 
L 155.304967 226.212902 
L 158.287032 222.917237 
L 161.269097 223.947133 
L 164.251162 221.681363 
L 167.233228 220.23951 
L 170.215293 212.206326 
L 173.197358 218.179719 
L 176.179423 215.70797 
L 179.161489 214.266117 
L 182.143554 214.884054 
L 185.125619 213.030243 
L 188.107684 211.38241 
L 191.08975 209.322619 
L 194.071815 211.38241 
L 197.05388 208.498703 
L 200.035945 206.026954 
L 203.018011 206.644892 
L 206.000076 204.79108 
L 208.982141 206.026954 
L 211.964206 203.349227 
L 214.946272 202.52531 
L 217.928337 200.259541 
L 220.910402 200.46552 
L 223.892467 199.435624 
L 226.874533 196.139959 
L 229.856598 195.728001 
L 232.838663 196.345939 
L 235.820728 190.166567 
L 238.802794 191.60842 
L 241.784859 191.196462 
L 244.766924 188.518734 
L 247.748989 185.01709 
L 250.731055 187.488839 
L 253.71312 183.987195 
L 256.695185 180.897509 
L 259.67725 182.339362 
L 262.659316 179.455656 
L 265.641381 181.515446 
L 268.623446 180.073593 
L 271.605511 176.571949 
L 274.587577 176.983907 
L 277.569642 174.924116 
L 280.551707 173.276284 
L 283.533772 174.306179 
L 286.515838 172.452367 
L 289.497903 163.801247 
L 292.479968 173.894221 
L 295.462033 166.272996 
L 298.444099 170.804535 
L 301.426164 166.478975 
L 304.408229 171.628451 
L 307.390294 168.126807 
L 310.37236 165.861037 
L 313.354425 165.2431 
L 316.33649 165.861037 
L 319.318555 163.18331 
L 322.300621 165.2431 
L 325.282686 160.505582 
L 328.264751 163.801247 
L 331.246816 159.887645 
L 334.228882 159.475687 
L 337.210947 151.854461 
L 340.193012 156.386001 
L 343.175078 156.386001 
L 346.157143 156.180022 
L 349.139208 151.648482 
L 352.121273 151.854461 
L 355.103339 150.206629 
L 358.085404 153.708273 
L 361.067469 153.708273 
L 364.049534 150.618587 
L 367.0316 150.618587 
L 370.013665 124.047288 
" clip-path="url(#pc359a7afda)" style="fill: none; stroke: #ff7f0e; stroke-width: 1.5; stroke-linecap: square"/>
   </g>
   <g id="patch_3">
    <path d="M 56.928125 304.44375 
L 56.928125 10.8 
" style="fill: none; stroke: #000000; stroke-width: 0.8; stroke-linejoin: miter; stroke-linecap: square"/>
   </g>
   <g id="patch_4">
    <path d="M 384.9225 304.44375 
L 384.9225 10.8 
" style="fill: none; stroke: #000000; stroke-width: 0.8; stroke-linejoin: miter; stroke-linecap: square"/>
   </g>
   <g id="patch_5">
    <path d="M 56.928125 304.44375 
L 384.9225 304.44375 
" style="fill: none; stroke: #000000; stroke-width: 0.8; stroke-linejoin: miter; stroke-linecap: square"/>
   </g>
   <g id="patch_6">
    <path d="M 56.928125 10.8 
L 384.9225 10.8 
" style="fill: none; stroke: #000000; stroke-width: 0.8; stroke-linejoin: miter; stroke-linecap: square"/>
   </g>
   <g id="text_16">
    <!-- trimou -->
    <g style="fill: #1f77b4" transform="translate(390.9225 286.712477) scale(0.08 -0.08)">
     <defs>
      <path id="DejaVuSans-6f" d="M 1959 3097 
Q 1497 3097 1228 2736 
Q 959 2375 959 1747 
Q 959 1119 1226 758 
Q 1494 397 1959 397 
Q 2419 397 2687 759 
Q 2956 1122 2956 1747 
Q 2956 2369 2687 2733 
Q 2419 3097 1959 3097 
z
M 1959 3584 
Q 2709 3584 3137 3096 
Q 3566 2609 3566 1747 
Q 3566 888 3137 398 
Q 2709 -91 1959 -91 
Q 1206 -91 779 398 
Q 353 888 353 1747 
Q 353 2609 779 3096 
Q 1206 3584 1959 3584 
z
" transform="scale(0.015625)"/>
     </defs>
     <use xlink:href="#DejaVuSans-74"/>
     <use xlink:href="#DejaVuSans-72" transform="translate(39.208984 0)"/>
     <use xlink:href="#DejaVuSans-69" transform="translate(80.322266 0)"/>
     <use xlink:href="#DejaVuSans-6d" transform="translate(108.105469 0)"/>
     <use xlink:href="#DejaVuSans-6f" transform="translate(205.517578 0)"/>
     <use xlink:href="#DejaVuSans-75" transform="translate(266.699219 0)"/>
    </g>
   </g>
   <g id="text_17">
    <!-- solomon -->
    <g style="fill: #e377c2" transform="translate(390.9225 279.709189) scale(0.08 -0.08)">
     <defs>
      <path id="DejaVuSans-6c" d="M 603 4863 
L 1178 4863 
L 1178 0 
L 603 0 
L 603 4863 
z
" transform="scale(0.015625)"/>
     </defs>
     <use xlink:href="#DejaVuSans-73"/>
     <use xlink:href="#DejaVuSans-6f" transform="translate(52.099609 0)"/>
     <use xlink:href="#DejaVuSans-6c" transform="translate(113.28125 0)"/>
     <use xlink:href="#DejaVuSans-6f" transform="translate(141.064453 0)"/>
     <use xlink:href="#DejaVuSans-6d" transform="translate(202.246094 0)"/>
     <use xlink:href="#DejaVuSans-6f" transform="translate(299.658203 0)"/>
     <use xlink:href="#DejaVuSans-6e" transform="translate(360.839844 0)"/>
    </g>
   </g>
   <g id="text_18">
    <!-- mustachej -->
    <g style="fill: #9467bd" transform="translate(390.9225 272.705901) scale(0.08 -0.08)">
     <defs>
      <path id="DejaVuSans-61" d="M 2194 1759 
Q 1497 1759 1228 1600 
Q 959 1441 959 1056 
Q 959 750 1161 570 
Q 1363 391 1709 391 
Q 2188 391 2477 730 
Q 2766 1069 2766 1631 
L 2766 1759 
L 2194 1759 
z
M 3341 1997 
L 3341 0 
L 2766 0 
L 2766 531 
Q 2569 213 2275 61 
Q 1981 -91 1556 -91 
Q 1019 -91 701 211 
Q 384 513 384 1019 
Q 384 1609 779 1909 
Q 1175 2209 1959 2209 
L 2766 2209 
L 2766 2266 
Q 2766 2663 2505 2880 
Q 2244 3097 1772 3097 
Q 1472 3097 1187 3025 
Q 903 2953 641 2809 
L 641 3341 
Q 956 3463 1253 3523 
Q 1550 3584 1831 3584 
Q 2591 3584 2966 3190 
Q 3341 2797 3341 1997 
z
" transform="scale(0.015625)"/>
      <path id="DejaVuSans-63" d="M 3122 3366 
L 3122 2828 
Q 2878 2963 2633 3030 
Q 2388 3097 2138 3097 
Q 1578 3097 1268 2742 
Q 959 2388 959 1747 
Q 959 1106 1268 751 
Q 1578 397 2138 397 
Q 2388 397 2633 464 
Q 2878 531 3122 666 
L 3122 134 
Q 2881 22 2623 -34 
Q 2366 -91 2075 -91 
Q 1284 -91 818 406 
Q 353 903 353 1747 
Q 353 2603 823 3093 
Q 1294 3584 2113 3584 
Q 2378 3584 2631 3529 
Q 2884 3475 3122 3366 
z
" transform="scale(0.015625)"/>
      <path id="DejaVuSans-68" d="M 3513 2113 
L 3513 0 
L 2938 0 
L 2938 2094 
Q 2938 2591 2744 2837 
Q 2550 3084 2163 3084 
Q 1697 3084 1428 2787 
Q 1159 2491 1159 1978 
L 1159 0 
L 581 0 
L 581 4863 
L 1159 4863 
L 1159 2956 
Q 1366 3272 1645 3428 
Q 1925 3584 2291 3584 
Q 2894 3584 3203 3211 
Q 3513 2838 3513 2113 
z
" transform="scale(0.015625)"/>
      <path id="DejaVuSans-6a" d="M 603 3500 
L 1178 3500 
L 1178 -63 
Q 1178 -731 923 -1031 
Q 669 -1331 103 -1331 
L -116 -1331 
L -116 -844 
L 38 -844 
Q 366 -844 484 -692 
Q 603 -541 603 -63 
L 603 3500 
z
M 603 4863 
L 1178 4863 
L 1178 4134 
L 603 4134 
L 603 4863 
z
" transform="scale(0.015625)"/>
     </defs>
     <use xlink:href="#DejaVuSans-6d"/>
     <use xlink:href="#DejaVuSans-75" transform="translate(97.412109 0)"/>
     <use xlink:href="#DejaVuSans-73" transform="translate(160.791016 0)"/>
     <use xlink:href="#DejaVuSans-74" transform="translate(212.890625 0)"/>
     <use xlink:href="#DejaVuSans-61" transform="translate(252.099609 0)"/>
     <use xlink:href="#DejaVuSans-63" transform="translate(313.378906 0)"/>
     <use xlink:href="#DejaVuSans-68" transform="translate(368.359375 0)"/>
     <use xlink:href="#DejaVuSans-65" transform="translate(431.738281 0)"/>
     <use xlink:href="#DejaVuSans-6a" transform="translate(493.261719 0)"/>
    </g>
   </g>
   <g id="text_19">
    <!-- stringtree -->
    <g style="fill: #bcbd22" transform="translate(390.9225 257.669429) scale(0.08 -0.08)">
     <defs>
      <path id="DejaVuSans-67" d="M 2906 1791 
Q 2906 2416 2648 2759 
Q 2391 3103 1925 3103 
Q 1463 3103 1205 2759 
Q 947 2416 947 1791 
Q 947 1169 1205 825 
Q 1463 481 1925 481 
Q 2391 481 2648 825 
Q 2906 1169 2906 1791 
z
M 3481 434 
Q 3481 -459 3084 -895 
Q 2688 -1331 1869 -1331 
Q 1566 -1331 1297 -1286 
Q 1028 -1241 775 -1147 
L 775 -588 
Q 1028 -725 1275 -790 
Q 1522 -856 1778 -856 
Q 2344 -856 2625 -561 
Q 2906 -266 2906 331 
L 2906 616 
Q 2728 306 2450 153 
Q 2172 0 1784 0 
Q 1141 0 747 490 
Q 353 981 353 1791 
Q 353 2603 747 3093 
Q 1141 3584 1784 3584 
Q 2172 3584 2450 3431 
Q 2728 3278 2906 2969 
L 2906 3500 
L 3481 3500 
L 3481 434 
z
" transform="scale(0.015625)"/>
     </defs>
     <use xlink:href="#DejaVuSans-73"/>
     <use xlink:href="#DejaVuSans-74" transform="translate(52.099609 0)"/>
     <use xlink:href="#DejaVuSans-72" transform="translate(91.308594 0)"/>
     <use xlink:href="#DejaVuSans-69" transform="translate(132.421875 0)"/>
     <use xlink:href="#DejaVuSans-6e" transform="translate(160.205078 0)"/>
     <use xlink:href="#DejaVuSans-67" transform="translate(223.583984 0)"/>
     <use xlink:href="#DejaVuSans-74" transform="translate(287.060547 0)"/>
     <use xlink:href="#DejaVuSans-72" transform="translate(326.269531 0)"/>
     <use xlink:href="#DejaVuSans-65" transform="translate(365.132812 0)"/>
     <use xlink:href="#DejaVuSans-65" transform="translate(426.65625 0)"/>
    </g>
   </g>
   <g id="text_20">
    <!-- freemarker -->
    <g style="fill: #1f77b4" transform="translate(390.9225 250.666141) scale(0.08 -0.08)">
     <defs>
      <path id="DejaVuSans-66" d="M 2375 4863 
L 2375 4384 
L 1825 4384 
Q 1516 4384 1395 4259 
Q 1275 4134 1275 3809 
L 1275 3500 
L 2222 3500 
L 2222 3053 
L 1275 3053 
L 1275 0 
L 697 0 
L 697 3053 
L 147 3053 
L 147 3500 
L 697 3500 
L 697 3744 
Q 697 4328 969 4595 
Q 1241 4863 1831 4863 
L 2375 4863 
z
" transform="scale(0.015625)"/>
      <path id="DejaVuSans-6b" d="M 581 4863 
L 1159 4863 
L 1159 1991 
L 2875 3500 
L 3609 3500 
L 1753 1863 
L 3688 0 
L 2938 0 
L 1159 1709 
L 1159 0 
L 581 0 
L 581 4863 
z
" transform="scale(0.015625)"/>
     </defs>
     <use xlink:href="#DejaVuSans-66"/>
     <use xlink:href="#DejaVuSans-72" transform="translate(35.205078 0)"/>
     <use xlink:href="#DejaVuSans-65" transform="translate(74.068359 0)"/>
     <use xlink:href="#DejaVuSans-65" transform="translate(135.591797 0)"/>
     <use xlink:href="#DejaVuSans-6d" transform="translate(197.115234 0)"/>
     <use xlink:href="#DejaVuSans-61" transform="translate(294.527344 0)"/>
     <use xlink:href="#DejaVuSans-72" transform="translate(355.806641 0)"/>
     <use xlink:href="#DejaVuSans-6b" transform="translate(396.919922 0)"/>
     <use xlink:href="#DejaVuSans-65" transform="translate(451.205078 0)"/>
     <use xlink:href="#DejaVuSans-72" transform="translate(512.728516 0)"/>
    </g>
   </g>
   <g id="text_21">
    <!-- pebble -->
    <g style="fill: #8c564b" transform="translate(390.9225 240.779146) scale(0.08 -0.08)">
     <defs>
      <path id="DejaVuSans-70" d="M 1159 525 
L 1159 -1331 
L 581 -1331 
L 581 3500 
L 1159 3500 
L 1159 2969 
Q 1341 3281 1617 3432 
Q 1894 3584 2278 3584 
Q 2916 3584 3314 3078 
Q 3713 2572 3713 1747 
Q 3713 922 3314 415 
Q 2916 -91 2278 -91 
Q 1894 -91 1617 61 
Q 1341 213 1159 525 
z
M 3116 1747 
Q 3116 2381 2855 2742 
Q 2594 3103 2138 3103 
Q 1681 3103 1420 2742 
Q 1159 2381 1159 1747 
Q 1159 1113 1420 752 
Q 1681 391 2138 391 
Q 2594 391 2855 752 
Q 3116 1113 3116 1747 
z
" transform="scale(0.015625)"/>
      <path id="DejaVuSans-62" d="M 3116 1747 
Q 3116 2381 2855 2742 
Q 2594 3103 2138 3103 
Q 1681 3103 1420 2742 
Q 1159 2381 1159 1747 
Q 1159 1113 1420 752 
Q 1681 391 2138 391 
Q 2594 391 2855 752 
Q 3116 1113 3116 1747 
z
M 1159 2969 
Q 1341 3281 1617 3432 
Q 1894 3584 2278 3584 
Q 2916 3584 3314 3078 
Q 3713 2572 3713 1747 
Q 3713 922 3314 415 
Q 2916 -91 2278 -91 
Q 1894 -91 1617 61 
Q 1341 213 1159 525 
L 1159 0 
L 581 0 
L 581 4863 
L 1159 4863 
L 1159 2969 
z
" transform="scale(0.015625)"/>
     </defs>
     <use xlink:href="#DejaVuSans-70"/>
     <use xlink:href="#DejaVuSans-65" transform="translate(63.476562 0)"/>
     <use xlink:href="#DejaVuSans-62" transform="translate(125 0)"/>
     <use xlink:href="#DejaVuSans-62" transform="translate(188.476562 0)"/>
     <use xlink:href="#DejaVuSans-6c" transform="translate(251.953125 0)"/>
     <use xlink:href="#DejaVuSans-65" transform="translate(279.736328 0)"/>
    </g>
   </g>
   <g id="text_22">
    <!-- jangod -->
    <g style="fill: #2ca02c" transform="translate(390.9225 231.510088) scale(0.08 -0.08)">
     <defs>
      <path id="DejaVuSans-64" d="M 2906 2969 
L 2906 4863 
L 3481 4863 
L 3481 0 
L 2906 0 
L 2906 525 
Q 2725 213 2448 61 
Q 2172 -91 1784 -91 
Q 1150 -91 751 415 
Q 353 922 353 1747 
Q 353 2572 751 3078 
Q 1150 3584 1784 3584 
Q 2172 3584 2448 3432 
Q 2725 3281 2906 2969 
z
M 947 1747 
Q 947 1113 1208 752 
Q 1469 391 1925 391 
Q 2381 391 2643 752 
Q 2906 1113 2906 1747 
Q 2906 2381 2643 2742 
Q 2381 3103 1925 3103 
Q 1469 3103 1208 2742 
Q 947 2381 947 1747 
z
" transform="scale(0.015625)"/>
     </defs>
     <use xlink:href="#DejaVuSans-6a"/>
     <use xlink:href="#DejaVuSans-61" transform="translate(27.783203 0)"/>
     <use xlink:href="#DejaVuSans-6e" transform="translate(89.0625 0)"/>
     <use xlink:href="#DejaVuSans-67" transform="translate(152.441406 0)"/>
     <use xlink:href="#DejaVuSans-6f" transform="translate(215.917969 0)"/>
     <use xlink:href="#DejaVuSans-64" transform="translate(277.099609 0)"/>
    </g>
   </g>
   <g id="text_23">
    <!-- jte -->
    <g style="fill: #d62728" transform="translate(390.9225 161.477207) scale(0.08 -0.08)">
     <use xlink:href="#DejaVuSans-6a"/>
     <use xlink:href="#DejaVuSans-74" transform="translate(27.783203 0)"/>
     <use xlink:href="#DejaVuSans-65" transform="translate(66.992188 0)"/>
    </g>
   </g>
   <g id="text_24">
    <!-- stringtemplate -->
    <g style="fill: #7f7f7f" transform="translate(390.9225 154.473919) scale(0.08 -0.08)">
     <use xlink:href="#DejaVuSans-73"/>
     <use xlink:href="#DejaVuSans-74" transform="translate(52.099609 0)"/>
     <use xlink:href="#DejaVuSans-72" transform="translate(91.308594 0)"/>
     <use xlink:href="#DejaVuSans-69" transform="translate(132.421875 0)"/>
     <use xlink:href="#DejaVuSans-6e" transform="translate(160.205078 0)"/>
     <use xlink:href="#DejaVuSans-67" transform="translate(223.583984 0)"/>
     <use xlink:href="#DejaVuSans-74" transform="translate(287.060547 0)"/>
     <use xlink:href="#DejaVuSans-65" transform="translate(326.269531 0)"/>
     <use xlink:href="#DejaVuSans-6d" transform="translate(387.792969 0)"/>
     <use xlink:href="#DejaVuSans-70" transform="translate(485.205078 0)"/>
     <use xlink:href="#DejaVuSans-6c" transform="translate(548.681641 0)"/>
     <use xlink:href="#DejaVuSans-61" transform="translate(576.464844 0)"/>
     <use xlink:href="#DejaVuSans-74" transform="translate(637.744141 0)"/>
     <use xlink:href="#DejaVuSans-65" transform="translate(676.953125 0)"/>
    </g>
   </g>
   <g id="text_25">
    <!-- thymeleaf -->
    <g style="fill: #17becf" transform="translate(390.9225 147.470631) scale(0.08 -0.08)">
     <defs>
      <path id="DejaVuSans-79" d="M 2059 -325 
Q 1816 -950 1584 -1140 
Q 1353 -1331 966 -1331 
L 506 -1331 
L 506 -850 
L 844 -850 
Q 1081 -850 1212 -737 
Q 1344 -625 1503 -206 
L 1606 56 
L 191 3500 
L 800 3500 
L 1894 763 
L 2988 3500 
L 3597 3500 
L 2059 -325 
z
" transform="scale(0.015625)"/>
     </defs>
     <use xlink:href="#DejaVuSans-74"/>
     <use xlink:href="#DejaVuSans-68" transform="translate(39.208984 0)"/>
     <use xlink:href="#DejaVuSans-79" transform="translate(102.587891 0)"/>
     <use xlink:href="#DejaVuSans-6d" transform="translate(161.767578 0)"/>
     <use xlink:href="#DejaVuSans-65" transform="translate(259.179688 0)"/>
     <use xlink:href="#DejaVuSans-6c" transform="translate(320.703125 0)"/>
     <use xlink:href="#DejaVuSans-65" transform="translate(348.486328 0)"/>
     <use xlink:href="#DejaVuSans-61" transform="translate(410.009766 0)"/>
     <use xlink:href="#DejaVuSans-66" transform="translate(471.289062 0)"/>
    </g>
   </g>
   <g id="text_26">
    <!-- velocity -->
    <g style="fill: #ff7f0e" transform="translate(390.9225 126.254788) scale(0.08 -0.08)">
     <defs>
      <path id="DejaVuSans-76" d="M 191 3500 
L 800 3500 
L 1894 563 
L 2988 3500 
L 3597 3500 
L 2284 0 
L 1503 0 
L 191 3500 
z
" transform="scale(0.015625)"/>
     </defs>
     <use xlink:href="#DejaVuSans-76"/>
     <use xlink:href="#DejaVuSans-65" transform="translate(59.179688 0)"/>
     <use xlink:href="#DejaVuSans-6c" transform="translate(120.703125 0)"/>
     <use xlink:href="#DejaVuSans-6f" transform="translate(148.486328 0)"/>
     <use xlink:href="#DejaVuSans-63" transform="translate(209.667969 0)"/>
     <use xlink:href="#DejaVuSans-69" transform="translate(264.648438 0)"/>
     <use xlink:href="#DejaVuSans-74" transform="translate(292.431641 0)"/>
     <use xlink:href="#DejaVuSans-79" transform="translate(331.640625 0)"/>
    </g>
   </g>
   <g id="text_27">
    <!-- handlebars -->
    <g style="fill: #ff7f0e" transform="translate(390.9225 50.042535) scale(0.08 -0.08)">
     <use xlink:href="#DejaVuSans-68"/>
     <use xlink:href="#DejaVuSans-61" transform="translate(63.378906 0)"/>
     <use xlink:href="#DejaVuSans-6e" transform="translate(124.658203 0)"/>
     <use xlink:href="#DejaVuSans-64" transform="translate(188.037109 0)"/>
     <use xlink:href="#DejaVuSans-6c" transform="translate(251.513672 0)"/>
     <use xlink:href="#DejaVuSans-65" transform="translate(279.296875 0)"/>
     <use xlink:href="#DejaVuSans-62" transform="translate(340.820312 0)"/>
     <use xlink:href="#DejaVuSans-61" transform="translate(404.296875 0)"/>
     <use xlink:href="#DejaVuSans-72" transform="translate(465.576172 0)"/>
     <use xlink:href="#DejaVuSans-73" transform="translate(506.689453 0)"/>
    </g>
   </g>
  </g>
 </g>
 <defs>
  <clipPath id="pc359a7afda">
   <rect x="56.928125" y="10.8" width="327.994375" height="293.64375"/>
  </clipPath>
 </defs>
</svg>
