<?xml version="1.0" encoding="utf-8" standalone="no"?>
<!DOCTYPE svg PUBLIC "-//W3C//DTD SVG 1.1//EN"
  "http://www.w3.org/Graphics/SVG/1.1/DTD/svg11.dtd">
<svg xmlns:xlink="http://www.w3.org/1999/xlink" width="460.8pt" height="345.6pt" viewBox="0 0 460.8 345.6" xmlns="http://www.w3.org/2000/svg" version="1.1">
 <metadata>
  <rdf:RDF xmlns:dc="http://purl.org/dc/elements/1.1/" xmlns:cc="http://creativecommons.org/ns#" xmlns:rdf="http://www.w3.org/1999/02/22-rdf-syntax-ns#">
   <cc:Work>
    <dc:type rdf:resource="http://purl.org/dc/dcmitype/StillImage"/>
    <dc:date>2025-04-13T17:19:49.810842</dc:date>
    <dc:format>image/svg+xml</dc:format>
    <dc:creator>
     <cc:Agent>
      <dc:title>Matplotlib v3.10.1, https://matplotlib.org/</dc:title>
     </cc:Agent>
    </dc:creator>
   </cc:Work>
  </rdf:RDF>
 </metadata>
 <defs>
  <style type="text/css">*{stroke-linejoin: round; stroke-linecap: butt}</style>
 </defs>
 <g id="figure_1">
  <g id="patch_1">
   <path d="M 0 345.6 
L 460.8 345.6 
L 460.8 0 
L 0 0 
z
" style="fill: #ffffff"/>
  </g>
  <g id="axes_1">
   <g id="patch_2">
    <path d="M 50.565625 304.44375 
L 384.9225 304.44375 
L 384.9225 10.8 
L 50.565625 10.8 
z
" style="fill: #ffffff"/>
   </g>
   <g id="matplotlib.axis_1">
    <g id="xtick_1">
     <g id="line2d_1">
      <defs>
       <path id="mb8f63552ee" d="M 0 0 
L 0 3.5 
" style="stroke: #000000; stroke-width: 0.8"/>
      </defs>
      <g>
       <use xlink:href="#mb8f63552ee" x="65.733266" y="304.44375" style="stroke: #000000; stroke-width: 0.8"/>
      </g>
     </g>
     <g id="text_1">
      <!-- 0 -->
      <g transform="translate(62.552016 319.042187) scale(0.1 -0.1)">
       <defs>
        <path id="DejaVuSans-30" d="M 2034 4250 
Q 1547 4250 1301 3770 
Q 1056 3291 1056 2328 
Q 1056 1369 1301 889 
Q 1547 409 2034 409 
Q 2525 409 2770 889 
Q 3016 1369 3016 2328 
Q 3016 3291 2770 3770 
Q 2525 4250 2034 4250 
z
M 2034 4750 
Q 2819 4750 3233 4129 
Q 3647 3509 3647 2328 
Q 3647 1150 3233 529 
Q 2819 -91 2034 -91 
Q 1250 -91 836 529 
Q 422 1150 422 2328 
Q 422 3509 836 4129 
Q 1250 4750 2034 4750 
z
" transform="scale(0.015625)"/>
       </defs>
       <use xlink:href="#DejaVuSans-30"/>
      </g>
     </g>
    </g>
    <g id="xtick_2">
     <g id="line2d_2">
      <g>
       <use xlink:href="#mb8f63552ee" x="126.531505" y="304.44375" style="stroke: #000000; stroke-width: 0.8"/>
      </g>
     </g>
     <g id="text_2">
      <!-- 2000 -->
      <g transform="translate(113.806505 319.042187) scale(0.1 -0.1)">
       <defs>
        <path id="DejaVuSans-32" d="M 1228 531 
L 3431 531 
L 3431 0 
L 469 0 
L 469 531 
Q 828 903 1448 1529 
Q 2069 2156 2228 2338 
Q 2531 2678 2651 2914 
Q 2772 3150 2772 3378 
Q 2772 3750 2511 3984 
Q 2250 4219 1831 4219 
Q 1534 4219 1204 4116 
Q 875 4013 500 3803 
L 500 4441 
Q 881 4594 1212 4672 
Q 1544 4750 1819 4750 
Q 2544 4750 2975 4387 
Q 3406 4025 3406 3419 
Q 3406 3131 3298 2873 
Q 3191 2616 2906 2266 
Q 2828 2175 2409 1742 
Q 1991 1309 1228 531 
z
" transform="scale(0.015625)"/>
       </defs>
       <use xlink:href="#DejaVuSans-32"/>
       <use xlink:href="#DejaVuSans-30" transform="translate(63.623047 0)"/>
       <use xlink:href="#DejaVuSans-30" transform="translate(127.246094 0)"/>
       <use xlink:href="#DejaVuSans-30" transform="translate(190.869141 0)"/>
      </g>
     </g>
    </g>
    <g id="xtick_3">
     <g id="line2d_3">
      <g>
       <use xlink:href="#mb8f63552ee" x="187.329743" y="304.44375" style="stroke: #000000; stroke-width: 0.8"/>
      </g>
     </g>
     <g id="text_3">
      <!-- 4000 -->
      <g transform="translate(174.604743 319.042187) scale(0.1 -0.1)">
       <defs>
        <path id="DejaVuSans-34" d="M 2419 4116 
L 825 1625 
L 2419 1625 
L 2419 4116 
z
M 2253 4666 
L 3047 4666 
L 3047 1625 
L 3713 1625 
L 3713 1100 
L 3047 1100 
L 3047 0 
L 2419 0 
L 2419 1100 
L 313 1100 
L 313 1709 
L 2253 4666 
z
" transform="scale(0.015625)"/>
       </defs>
       <use xlink:href="#DejaVuSans-34"/>
       <use xlink:href="#DejaVuSans-30" transform="translate(63.623047 0)"/>
       <use xlink:href="#DejaVuSans-30" transform="translate(127.246094 0)"/>
       <use xlink:href="#DejaVuSans-30" transform="translate(190.869141 0)"/>
      </g>
     </g>
    </g>
    <g id="xtick_4">
     <g id="line2d_4">
      <g>
       <use xlink:href="#mb8f63552ee" x="248.127982" y="304.44375" style="stroke: #000000; stroke-width: 0.8"/>
      </g>
     </g>
     <g id="text_4">
      <!-- 6000 -->
      <g transform="translate(235.402982 319.042187) scale(0.1 -0.1)">
       <defs>
        <path id="DejaVuSans-36" d="M 2113 2584 
Q 1688 2584 1439 2293 
Q 1191 2003 1191 1497 
Q 1191 994 1439 701 
Q 1688 409 2113 409 
Q 2538 409 2786 701 
Q 3034 994 3034 1497 
Q 3034 2003 2786 2293 
Q 2538 2584 2113 2584 
z
M 3366 4563 
L 3366 3988 
Q 3128 4100 2886 4159 
Q 2644 4219 2406 4219 
Q 1781 4219 1451 3797 
Q 1122 3375 1075 2522 
Q 1259 2794 1537 2939 
Q 1816 3084 2150 3084 
Q 2853 3084 3261 2657 
Q 3669 2231 3669 1497 
Q 3669 778 3244 343 
Q 2819 -91 2113 -91 
Q 1303 -91 875 529 
Q 447 1150 447 2328 
Q 447 3434 972 4092 
Q 1497 4750 2381 4750 
Q 2619 4750 2861 4703 
Q 3103 4656 3366 4563 
z
" transform="scale(0.015625)"/>
       </defs>
       <use xlink:href="#DejaVuSans-36"/>
       <use xlink:href="#DejaVuSans-30" transform="translate(63.623047 0)"/>
       <use xlink:href="#DejaVuSans-30" transform="translate(127.246094 0)"/>
       <use xlink:href="#DejaVuSans-30" transform="translate(190.869141 0)"/>
      </g>
     </g>
    </g>
    <g id="xtick_5">
     <g id="line2d_5">
      <g>
       <use xlink:href="#mb8f63552ee" x="308.926221" y="304.44375" style="stroke: #000000; stroke-width: 0.8"/>
      </g>
     </g>
     <g id="text_5">
      <!-- 8000 -->
      <g transform="translate(296.201221 319.042187) scale(0.1 -0.1)">
       <defs>
        <path id="DejaVuSans-38" d="M 2034 2216 
Q 1584 2216 1326 1975 
Q 1069 1734 1069 1313 
Q 1069 891 1326 650 
Q 1584 409 2034 409 
Q 2484 409 2743 651 
Q 3003 894 3003 1313 
Q 3003 1734 2745 1975 
Q 2488 2216 2034 2216 
z
M 1403 2484 
Q 997 2584 770 2862 
Q 544 3141 544 3541 
Q 544 4100 942 4425 
Q 1341 4750 2034 4750 
Q 2731 4750 3128 4425 
Q 3525 4100 3525 3541 
Q 3525 3141 3298 2862 
Q 3072 2584 2669 2484 
Q 3125 2378 3379 2068 
Q 3634 1759 3634 1313 
Q 3634 634 3220 271 
Q 2806 -91 2034 -91 
Q 1263 -91 848 271 
Q 434 634 434 1313 
Q 434 1759 690 2068 
Q 947 2378 1403 2484 
z
M 1172 3481 
Q 1172 3119 1398 2916 
Q 1625 2713 2034 2713 
Q 2441 2713 2670 2916 
Q 2900 3119 2900 3481 
Q 2900 3844 2670 4047 
Q 2441 4250 2034 4250 
Q 1625 4250 1398 4047 
Q 1172 3844 1172 3481 
z
" transform="scale(0.015625)"/>
       </defs>
       <use xlink:href="#DejaVuSans-38"/>
       <use xlink:href="#DejaVuSans-30" transform="translate(63.623047 0)"/>
       <use xlink:href="#DejaVuSans-30" transform="translate(127.246094 0)"/>
       <use xlink:href="#DejaVuSans-30" transform="translate(190.869141 0)"/>
      </g>
     </g>
    </g>
    <g id="xtick_6">
     <g id="line2d_6">
      <g>
       <use xlink:href="#mb8f63552ee" x="369.72446" y="304.44375" style="stroke: #000000; stroke-width: 0.8"/>
      </g>
     </g>
     <g id="text_6">
      <!-- 10000 -->
      <g transform="translate(353.81821 319.042187) scale(0.1 -0.1)">
       <defs>
        <path id="DejaVuSans-31" d="M 794 531 
L 1825 531 
L 1825 4091 
L 703 3866 
L 703 4441 
L 1819 4666 
L 2450 4666 
L 2450 531 
L 3481 531 
L 3481 0 
L 794 0 
L 794 531 
z
" transform="scale(0.015625)"/>
       </defs>
       <use xlink:href="#DejaVuSans-31"/>
       <use xlink:href="#DejaVuSans-30" transform="translate(63.623047 0)"/>
       <use xlink:href="#DejaVuSans-30" transform="translate(127.246094 0)"/>
       <use xlink:href="#DejaVuSans-30" transform="translate(190.869141 0)"/>
       <use xlink:href="#DejaVuSans-30" transform="translate(254.492188 0)"/>
      </g>
     </g>
    </g>
    <g id="text_7">
     <!-- n runs -->
     <g transform="translate(201.988594 332.720312) scale(0.1 -0.1)">
      <defs>
       <path id="DejaVuSans-6e" d="M 3513 2113 
L 3513 0 
L 2938 0 
L 2938 2094 
Q 2938 2591 2744 2837 
Q 2550 3084 2163 3084 
Q 1697 3084 1428 2787 
Q 1159 2491 1159 1978 
L 1159 0 
L 581 0 
L 581 3500 
L 1159 3500 
L 1159 2956 
Q 1366 3272 1645 3428 
Q 1925 3584 2291 3584 
Q 2894 3584 3203 3211 
Q 3513 2838 3513 2113 
z
" transform="scale(0.015625)"/>
       <path id="DejaVuSans-20" transform="scale(0.015625)"/>
       <path id="DejaVuSans-72" d="M 2631 2963 
Q 2534 3019 2420 3045 
Q 2306 3072 2169 3072 
Q 1681 3072 1420 2755 
Q 1159 2438 1159 1844 
L 1159 0 
L 581 0 
L 581 3500 
L 1159 3500 
L 1159 2956 
Q 1341 3275 1631 3429 
Q 1922 3584 2338 3584 
Q 2397 3584 2469 3576 
Q 2541 3569 2628 3553 
L 2631 2963 
z
" transform="scale(0.015625)"/>
       <path id="DejaVuSans-75" d="M 544 1381 
L 544 3500 
L 1119 3500 
L 1119 1403 
Q 1119 906 1312 657 
Q 1506 409 1894 409 
Q 2359 409 2629 706 
Q 2900 1003 2900 1516 
L 2900 3500 
L 3475 3500 
L 3475 0 
L 2900 0 
L 2900 538 
Q 2691 219 2414 64 
Q 2138 -91 1772 -91 
Q 1169 -91 856 284 
Q 544 659 544 1381 
z
M 1991 3584 
L 1991 3584 
z
" transform="scale(0.015625)"/>
       <path id="DejaVuSans-73" d="M 2834 3397 
L 2834 2853 
Q 2591 2978 2328 3040 
Q 2066 3103 1784 3103 
Q 1356 3103 1142 2972 
Q 928 2841 928 2578 
Q 928 2378 1081 2264 
Q 1234 2150 1697 2047 
L 1894 2003 
Q 2506 1872 2764 1633 
Q 3022 1394 3022 966 
Q 3022 478 2636 193 
Q 2250 -91 1575 -91 
Q 1294 -91 989 -36 
Q 684 19 347 128 
L 347 722 
Q 666 556 975 473 
Q 1284 391 1588 391 
Q 1994 391 2212 530 
Q 2431 669 2431 922 
Q 2431 1156 2273 1281 
Q 2116 1406 1581 1522 
L 1381 1569 
Q 847 1681 609 1914 
Q 372 2147 372 2553 
Q 372 3047 722 3315 
Q 1072 3584 1716 3584 
Q 2034 3584 2315 3537 
Q 2597 3491 2834 3397 
z
" transform="scale(0.015625)"/>
      </defs>
      <use xlink:href="#DejaVuSans-6e"/>
      <use xlink:href="#DejaVuSans-20" transform="translate(63.378906 0)"/>
      <use xlink:href="#DejaVuSans-72" transform="translate(95.166016 0)"/>
      <use xlink:href="#DejaVuSans-75" transform="translate(136.279297 0)"/>
      <use xlink:href="#DejaVuSans-6e" transform="translate(199.658203 0)"/>
      <use xlink:href="#DejaVuSans-73" transform="translate(263.037109 0)"/>
     </g>
    </g>
   </g>
   <g id="matplotlib.axis_2">
    <g id="ytick_1">
     <g id="line2d_7">
      <defs>
       <path id="md4de3b06a0" d="M 0 0 
L -3.5 0 
" style="stroke: #000000; stroke-width: 0.8"/>
      </defs>
      <g>
       <use xlink:href="#md4de3b06a0" x="50.565625" y="292.767348" style="stroke: #000000; stroke-width: 0.8"/>
      </g>
     </g>
     <g id="text_8">
      <!-- 0 -->
      <g transform="translate(37.203125 296.566567) scale(0.1 -0.1)">
       <use xlink:href="#DejaVuSans-30"/>
      </g>
     </g>
    </g>
    <g id="ytick_2">
     <g id="line2d_8">
      <g>
       <use xlink:href="#md4de3b06a0" x="50.565625" y="250.991313" style="stroke: #000000; stroke-width: 0.8"/>
      </g>
     </g>
     <g id="text_9">
      <!-- 100 -->
      <g transform="translate(24.478125 254.790532) scale(0.1 -0.1)">
       <use xlink:href="#DejaVuSans-31"/>
       <use xlink:href="#DejaVuSans-30" transform="translate(63.623047 0)"/>
       <use xlink:href="#DejaVuSans-30" transform="translate(127.246094 0)"/>
      </g>
     </g>
    </g>
    <g id="ytick_3">
     <g id="line2d_9">
      <g>
       <use xlink:href="#md4de3b06a0" x="50.565625" y="209.215278" style="stroke: #000000; stroke-width: 0.8"/>
      </g>
     </g>
     <g id="text_10">
      <!-- 200 -->
      <g transform="translate(24.478125 213.014497) scale(0.1 -0.1)">
       <use xlink:href="#DejaVuSans-32"/>
       <use xlink:href="#DejaVuSans-30" transform="translate(63.623047 0)"/>
       <use xlink:href="#DejaVuSans-30" transform="translate(127.246094 0)"/>
      </g>
     </g>
    </g>
    <g id="ytick_4">
     <g id="line2d_10">
      <g>
       <use xlink:href="#md4de3b06a0" x="50.565625" y="167.439243" style="stroke: #000000; stroke-width: 0.8"/>
      </g>
     </g>
     <g id="text_11">
      <!-- 300 -->
      <g transform="translate(24.478125 171.238462) scale(0.1 -0.1)">
       <defs>
        <path id="DejaVuSans-33" d="M 2597 2516 
Q 3050 2419 3304 2112 
Q 3559 1806 3559 1356 
Q 3559 666 3084 287 
Q 2609 -91 1734 -91 
Q 1441 -91 1130 -33 
Q 819 25 488 141 
L 488 750 
Q 750 597 1062 519 
Q 1375 441 1716 441 
Q 2309 441 2620 675 
Q 2931 909 2931 1356 
Q 2931 1769 2642 2001 
Q 2353 2234 1838 2234 
L 1294 2234 
L 1294 2753 
L 1863 2753 
Q 2328 2753 2575 2939 
Q 2822 3125 2822 3475 
Q 2822 3834 2567 4026 
Q 2313 4219 1838 4219 
Q 1578 4219 1281 4162 
Q 984 4106 628 3988 
L 628 4550 
Q 988 4650 1302 4700 
Q 1616 4750 1894 4750 
Q 2613 4750 3031 4423 
Q 3450 4097 3450 3541 
Q 3450 3153 3228 2886 
Q 3006 2619 2597 2516 
z
" transform="scale(0.015625)"/>
       </defs>
       <use xlink:href="#DejaVuSans-33"/>
       <use xlink:href="#DejaVuSans-30" transform="translate(63.623047 0)"/>
       <use xlink:href="#DejaVuSans-30" transform="translate(127.246094 0)"/>
      </g>
     </g>
    </g>
    <g id="ytick_5">
     <g id="line2d_11">
      <g>
       <use xlink:href="#md4de3b06a0" x="50.565625" y="125.663208" style="stroke: #000000; stroke-width: 0.8"/>
      </g>
     </g>
     <g id="text_12">
      <!-- 400 -->
      <g transform="translate(24.478125 129.462427) scale(0.1 -0.1)">
       <use xlink:href="#DejaVuSans-34"/>
       <use xlink:href="#DejaVuSans-30" transform="translate(63.623047 0)"/>
       <use xlink:href="#DejaVuSans-30" transform="translate(127.246094 0)"/>
      </g>
     </g>
    </g>
    <g id="ytick_6">
     <g id="line2d_12">
      <g>
       <use xlink:href="#md4de3b06a0" x="50.565625" y="83.887173" style="stroke: #000000; stroke-width: 0.8"/>
      </g>
     </g>
     <g id="text_13">
      <!-- 500 -->
      <g transform="translate(24.478125 87.686392) scale(0.1 -0.1)">
       <defs>
        <path id="DejaVuSans-35" d="M 691 4666 
L 3169 4666 
L 3169 4134 
L 1269 4134 
L 1269 2991 
Q 1406 3038 1543 3061 
Q 1681 3084 1819 3084 
Q 2600 3084 3056 2656 
Q 3513 2228 3513 1497 
Q 3513 744 3044 326 
Q 2575 -91 1722 -91 
Q 1428 -91 1123 -41 
Q 819 9 494 109 
L 494 744 
Q 775 591 1075 516 
Q 1375 441 1709 441 
Q 2250 441 2565 725 
Q 2881 1009 2881 1497 
Q 2881 1984 2565 2268 
Q 2250 2553 1709 2553 
Q 1456 2553 1204 2497 
Q 953 2441 691 2322 
L 691 4666 
z
" transform="scale(0.015625)"/>
       </defs>
       <use xlink:href="#DejaVuSans-35"/>
       <use xlink:href="#DejaVuSans-30" transform="translate(63.623047 0)"/>
       <use xlink:href="#DejaVuSans-30" transform="translate(127.246094 0)"/>
      </g>
     </g>
    </g>
    <g id="ytick_7">
     <g id="line2d_13">
      <g>
       <use xlink:href="#md4de3b06a0" x="50.565625" y="42.111138" style="stroke: #000000; stroke-width: 0.8"/>
      </g>
     </g>
     <g id="text_14">
      <!-- 600 -->
      <g transform="translate(24.478125 45.910357) scale(0.1 -0.1)">
       <use xlink:href="#DejaVuSans-36"/>
       <use xlink:href="#DejaVuSans-30" transform="translate(63.623047 0)"/>
       <use xlink:href="#DejaVuSans-30" transform="translate(127.246094 0)"/>
      </g>
     </g>
    </g>
    <g id="text_15">
     <!-- time (ms) -->
     <g transform="translate(18.398438 181.883594) rotate(-90) scale(0.1 -0.1)">
      <defs>
       <path id="DejaVuSans-74" d="M 1172 4494 
L 1172 3500 
L 2356 3500 
L 2356 3053 
L 1172 3053 
L 1172 1153 
Q 1172 725 1289 603 
Q 1406 481 1766 481 
L 2356 481 
L 2356 0 
L 1766 0 
Q 1100 0 847 248 
Q 594 497 594 1153 
L 594 3053 
L 172 3053 
L 172 3500 
L 594 3500 
L 594 4494 
L 1172 4494 
z
" transform="scale(0.015625)"/>
       <path id="DejaVuSans-69" d="M 603 3500 
L 1178 3500 
L 1178 0 
L 603 0 
L 603 3500 
z
M 603 4863 
L 1178 4863 
L 1178 4134 
L 603 4134 
L 603 4863 
z
" transform="scale(0.015625)"/>
       <path id="DejaVuSans-6d" d="M 3328 2828 
Q 3544 3216 3844 3400 
Q 4144 3584 4550 3584 
Q 5097 3584 5394 3201 
Q 5691 2819 5691 2113 
L 5691 0 
L 5113 0 
L 5113 2094 
Q 5113 2597 4934 2840 
Q 4756 3084 4391 3084 
Q 3944 3084 3684 2787 
Q 3425 2491 3425 1978 
L 3425 0 
L 2847 0 
L 2847 2094 
Q 2847 2600 2669 2842 
Q 2491 3084 2119 3084 
Q 1678 3084 1418 2786 
Q 1159 2488 1159 1978 
L 1159 0 
L 581 0 
L 581 3500 
L 1159 3500 
L 1159 2956 
Q 1356 3278 1631 3431 
Q 1906 3584 2284 3584 
Q 2666 3584 2933 3390 
Q 3200 3197 3328 2828 
z
" transform="scale(0.015625)"/>
       <path id="DejaVuSans-65" d="M 3597 1894 
L 3597 1613 
L 953 1613 
Q 991 1019 1311 708 
Q 1631 397 2203 397 
Q 2534 397 2845 478 
Q 3156 559 3463 722 
L 3463 178 
Q 3153 47 2828 -22 
Q 2503 -91 2169 -91 
Q 1331 -91 842 396 
Q 353 884 353 1716 
Q 353 2575 817 3079 
Q 1281 3584 2069 3584 
Q 2775 3584 3186 3129 
Q 3597 2675 3597 1894 
z
M 3022 2063 
Q 3016 2534 2758 2815 
Q 2500 3097 2075 3097 
Q 1594 3097 1305 2825 
Q 1016 2553 972 2059 
L 3022 2063 
z
" transform="scale(0.015625)"/>
       <path id="DejaVuSans-28" d="M 1984 4856 
Q 1566 4138 1362 3434 
Q 1159 2731 1159 2009 
Q 1159 1288 1364 580 
Q 1569 -128 1984 -844 
L 1484 -844 
Q 1016 -109 783 600 
Q 550 1309 550 2009 
Q 550 2706 781 3412 
Q 1013 4119 1484 4856 
L 1984 4856 
z
" transform="scale(0.015625)"/>
       <path id="DejaVuSans-29" d="M 513 4856 
L 1013 4856 
Q 1481 4119 1714 3412 
Q 1947 2706 1947 2009 
Q 1947 1309 1714 600 
Q 1481 -109 1013 -844 
L 513 -844 
Q 928 -128 1133 580 
Q 1338 1288 1338 2009 
Q 1338 2731 1133 3434 
Q 928 4138 513 4856 
z
" transform="scale(0.015625)"/>
      </defs>
      <use xlink:href="#DejaVuSans-74"/>
      <use xlink:href="#DejaVuSans-69" transform="translate(39.208984 0)"/>
      <use xlink:href="#DejaVuSans-6d" transform="translate(66.992188 0)"/>
      <use xlink:href="#DejaVuSans-65" transform="translate(164.404297 0)"/>
      <use xlink:href="#DejaVuSans-20" transform="translate(225.927734 0)"/>
      <use xlink:href="#DejaVuSans-28" transform="translate(257.714844 0)"/>
      <use xlink:href="#DejaVuSans-6d" transform="translate(296.728516 0)"/>
      <use xlink:href="#DejaVuSans-73" transform="translate(394.140625 0)"/>
      <use xlink:href="#DejaVuSans-29" transform="translate(446.240234 0)"/>
     </g>
    </g>
   </g>
   <g id="line2d_14">
    <path d="M 65.763665 268.537248 
L 66.037257 267.701727 
L 66.341248 266.448446 
L 66.645239 265.612925 
L 66.94923 266.030686 
L 67.253222 266.448446 
L 67.557213 265.612925 
L 67.861204 264.359644 
L 68.165195 264.359644 
L 68.469186 264.359644 
L 68.773178 263.941884 
L 71.81309 261.853082 
L 74.853001 260.182041 
L 77.892913 258.511 
L 80.932825 256.422198 
L 83.972737 254.751156 
L 87.012649 253.497875 
L 90.052561 251.409074 
L 93.092473 250.155793 
L 96.132385 249.320272 
L 99.172297 248.484751 
L 102.212209 246.395949 
L 105.252121 246.395949 
L 108.292033 243.053867 
L 111.331945 244.724908 
L 114.371857 243.471627 
L 117.411769 242.636106 
L 120.451681 238.876263 
L 123.491593 240.547304 
L 126.531505 239.294023 
L 129.571417 238.458503 
L 132.611328 237.622982 
L 135.65124 236.369701 
L 138.691152 236.369701 
L 141.731064 234.69866 
L 144.770976 236.369701 
L 147.810888 234.69866 
L 150.8508 235.11642 
L 153.890712 234.280899 
L 156.930624 233.863139 
L 159.970536 234.280899 
L 163.010448 233.445379 
L 166.05036 233.027618 
L 169.090272 233.445379 
L 172.130184 233.445379 
L 175.170096 232.192097 
L 178.210008 229.685535 
L 181.24992 231.356577 
L 184.289832 231.774337 
L 187.329743 232.192097 
L 190.369655 229.685535 
L 193.409567 231.356577 
L 196.449479 232.192097 
L 199.489391 230.938816 
L 202.529303 221.748089 
L 205.569215 230.103296 
L 208.609127 230.521056 
L 211.649039 230.103296 
L 214.688951 230.103296 
L 217.728863 228.850015 
L 220.768775 229.267775 
L 223.808687 228.850015 
L 226.848599 227.596734 
L 229.888511 228.850015 
L 232.928423 228.432254 
L 235.968335 227.596734 
L 239.008247 228.432254 
L 242.048159 225.925692 
L 245.08807 226.343453 
L 248.127982 224.254651 
L 251.167894 225.925692 
L 254.207806 225.925692 
L 257.247718 225.507932 
L 260.28763 224.254651 
L 263.327542 225.925692 
L 266.367454 224.254651 
L 269.407366 224.672411 
L 272.447278 223.83689 
L 275.48719 225.090172 
L 278.527102 223.41913 
L 281.567014 222.165849 
L 284.606926 222.583609 
L 287.646838 223.83689 
L 290.68675 223.41913 
L 293.726662 223.41913 
L 296.766574 222.165849 
L 299.806485 223.41913 
L 302.846397 221.748089 
L 305.886309 220.912568 
L 308.926221 221.330328 
L 311.966133 221.330328 
L 315.006045 221.330328 
L 318.045957 220.912568 
L 321.085869 219.659287 
L 324.125781 219.659287 
L 327.165693 219.659287 
L 330.205605 220.912568 
L 333.245517 220.077047 
L 336.285429 218.406006 
L 339.325341 218.823766 
L 342.365253 216.734965 
L 345.405165 216.734965 
L 348.445077 217.988246 
L 351.484989 217.152725 
L 354.5249 215.899444 
L 357.564812 217.988246 
L 360.604724 216.317204 
L 363.644636 216.734965 
L 366.684548 216.734965 
L 369.72446 214.228402 
" clip-path="url(#p4663437247)" style="fill: none; stroke: #1f77b4; stroke-width: 1.5; stroke-linecap: square"/>
   </g>
   <g id="line2d_15">
    <path d="M 65.763665 289.843026 
L 66.037257 289.843026 
L 66.341248 288.589745 
L 66.645239 288.589745 
L 66.94923 288.589745 
L 67.253222 288.171984 
L 67.557213 288.171984 
L 67.861204 287.754224 
L 68.165195 287.754224 
L 68.469186 287.336464 
L 68.773178 287.336464 
L 71.81309 285.665422 
L 74.853001 284.412141 
L 77.892913 283.576621 
L 80.932825 281.905579 
L 83.972737 281.487819 
L 87.012649 280.652298 
L 90.052561 280.234538 
L 93.092473 279.399017 
L 96.132385 278.563496 
L 99.172297 278.563496 
L 102.212209 276.056934 
L 105.252121 275.221414 
L 108.292033 275.221414 
L 111.331945 273.550372 
L 114.371857 273.968132 
L 117.411769 274.803653 
L 120.451681 274.385893 
L 123.491593 274.385893 
L 126.531505 273.550372 
L 129.571417 273.550372 
L 132.611328 273.968132 
L 135.65124 273.550372 
L 138.691152 273.132612 
L 141.731064 273.132612 
L 144.770976 272.714851 
L 147.810888 271.879331 
L 150.8508 271.46157 
L 153.890712 271.879331 
L 156.930624 271.46157 
L 159.970536 272.297091 
L 163.010448 271.46157 
L 166.05036 271.04381 
L 169.090272 271.46157 
L 172.130184 270.62605 
L 175.170096 270.208289 
L 178.210008 270.62605 
L 181.24992 270.62605 
L 184.289832 270.208289 
L 187.329743 269.372769 
L 190.369655 269.790529 
L 193.409567 269.790529 
L 196.449479 270.208289 
L 199.489391 269.372769 
L 202.529303 268.955008 
L 205.569215 268.537248 
L 208.609127 268.537248 
L 211.649039 268.955008 
L 214.688951 267.701727 
L 217.728863 267.701727 
L 220.768775 267.701727 
L 223.808687 267.283967 
L 226.848599 267.283967 
L 229.888511 266.030686 
L 232.928423 265.612925 
L 235.968335 265.612925 
L 239.008247 265.195165 
L 242.048159 265.612925 
L 245.08807 264.359644 
L 248.127982 264.777405 
L 251.167894 264.359644 
L 254.207806 264.777405 
L 257.247718 263.941884 
L 260.28763 264.777405 
L 263.327542 263.941884 
L 266.367454 264.359644 
L 269.407366 263.106363 
L 272.447278 263.941884 
L 275.48719 263.524124 
L 278.527102 263.106363 
L 281.567014 262.688603 
L 284.606926 263.106363 
L 287.646838 262.688603 
L 290.68675 262.688603 
L 293.726662 262.688603 
L 296.766574 262.270843 
L 299.806485 262.270843 
L 302.846397 261.853082 
L 305.886309 261.853082 
L 308.926221 261.017562 
L 311.966133 260.599801 
L 315.006045 261.435322 
L 318.045957 261.017562 
L 321.085869 260.599801 
L 324.125781 260.182041 
L 327.165693 259.764281 
L 330.205605 259.764281 
L 333.245517 258.92876 
L 336.285429 260.182041 
L 339.325341 259.34652 
L 342.365253 258.92876 
L 345.405165 258.093239 
L 348.445077 258.92876 
L 351.484989 258.093239 
L 354.5249 258.093239 
L 357.564812 258.92876 
L 360.604724 258.511 
L 363.644636 258.093239 
L 366.684548 258.92876 
L 369.72446 258.093239 
" clip-path="url(#p4663437247)" style="fill: none; stroke: #ff7f0e; stroke-width: 1.5; stroke-linecap: square"/>
   </g>
   <g id="line2d_16">
    <path d="M 65.763665 285.665422 
L 66.037257 285.247662 
L 66.341248 284.412141 
L 66.645239 283.994381 
L 66.94923 283.15886 
L 67.253222 282.7411 
L 67.557213 281.905579 
L 67.861204 281.487819 
L 68.165195 280.234538 
L 68.469186 280.234538 
L 68.773178 279.816777 
L 71.81309 274.803653 
L 74.853001 269.790529 
L 77.892913 266.030686 
L 80.932825 261.853082 
L 83.972737 258.92876 
L 87.012649 255.168917 
L 90.052561 252.662355 
L 93.092473 249.738032 
L 96.132385 245.978189 
L 99.172297 243.053867 
L 102.212209 240.965065 
L 105.252121 239.711784 
L 108.292033 236.369701 
L 111.331945 233.027618 
L 114.371857 230.938816 
L 117.411769 229.685535 
L 120.451681 227.178973 
L 123.491593 225.507932 
L 126.531505 222.583609 
L 129.571417 220.077047 
L 132.611328 219.241527 
L 135.65124 217.152725 
L 138.691152 215.063923 
L 141.731064 213.810642 
L 144.770976 211.30408 
L 147.810888 207.961997 
L 150.8508 207.544237 
L 153.890712 205.037675 
L 156.930624 202.948873 
L 159.970536 195.429187 
L 163.010448 195.011426 
L 166.05036 197.517988 
L 169.090272 195.429187 
L 172.130184 194.175906 
L 175.170096 191.669344 
L 178.210008 187.07398 
L 181.24992 188.327261 
L 184.289832 184.985178 
L 187.329743 183.314137 
L 190.369655 179.972054 
L 193.409567 178.301012 
L 196.449479 176.212211 
L 199.489391 174.541169 
L 202.529303 171.616847 
L 205.569215 169.945805 
L 208.609127 168.692524 
L 211.649039 167.439243 
L 214.688951 164.932681 
L 217.728863 163.26164 
L 220.768775 160.755078 
L 223.808687 158.666276 
L 226.848599 157.830755 
L 229.888511 154.906433 
L 232.928423 153.235391 
L 235.968335 148.222267 
L 239.008247 149.057788 
L 242.048159 148.222267 
L 245.08807 145.297945 
L 248.127982 142.373622 
L 251.167894 140.28482 
L 254.207806 139.031539 
L 257.247718 138.196019 
L 260.28763 135.271696 
L 263.327542 131.929613 
L 266.367454 132.347374 
L 269.407366 129.005291 
L 272.447278 125.663208 
L 275.48719 125.663208 
L 278.527102 123.992167 
L 281.567014 121.485605 
L 284.606926 118.143522 
L 287.646838 118.561282 
L 290.68675 115.63696 
L 293.726662 113.548158 
L 296.766574 113.130398 
L 299.806485 111.041596 
L 302.846397 110.206075 
L 305.886309 106.028472 
L 308.926221 104.775191 
L 311.966133 103.52191 
L 315.006045 100.179827 
L 318.045957 96.419984 
L 321.085869 98.091025 
L 324.125781 96.419984 
L 327.165693 94.748942 
L 330.205605 91.40686 
L 333.245517 87.647016 
L 336.285429 87.229256 
L 339.325341 85.140454 
L 342.365253 83.051653 
L 345.405165 79.291809 
L 348.445077 80.962851 
L 351.484989 78.456289 
L 354.5249 75.114206 
L 357.564812 73.025404 
L 360.604724 73.025404 
L 363.644636 70.936602 
L 366.684548 68.43004 
L 369.72446 64.252437 
" clip-path="url(#p4663437247)" style="fill: none; stroke: #2ca02c; stroke-width: 1.5; stroke-linecap: square"/>
   </g>
   <g id="line2d_17">
    <path d="M 65.763665 49.630825 
L 66.037257 42.528899 
L 66.341248 49.213064 
L 66.645239 46.706502 
L 66.94923 45.035461 
L 67.253222 49.213064 
L 67.557213 47.542023 
L 67.861204 49.213064 
L 68.165195 45.870981 
L 68.469186 49.213064 
L 68.773178 47.959783 
L 71.81309 46.288742 
L 74.853001 48.377543 
L 77.892913 43.364419 
L 80.932825 42.111138 
L 83.972737 42.528899 
L 87.012649 43.364419 
L 90.052561 36.680254 
L 93.092473 40.440097 
L 96.132385 39.604576 
L 99.172297 40.857857 
L 102.212209 36.680254 
L 105.252121 35.426973 
L 108.292033 39.186816 
L 111.331945 40.022336 
L 114.371857 38.769055 
L 117.411769 38.351295 
L 120.451681 41.693378 
L 123.491593 41.693378 
L 126.531505 38.351295 
L 129.571417 37.098014 
L 132.611328 39.186816 
L 135.65124 39.186816 
L 138.691152 37.515774 
L 141.731064 37.098014 
L 144.770976 38.769055 
L 147.810888 39.604576 
L 150.8508 38.351295 
L 153.890712 37.933535 
L 156.930624 38.769055 
L 159.970536 38.769055 
L 163.010448 35.844733 
L 166.05036 38.351295 
L 169.090272 38.769055 
L 172.130184 36.680254 
L 175.170096 37.515774 
L 178.210008 37.515774 
L 181.24992 35.009212 
L 184.289832 37.933535 
L 187.329743 33.338171 
L 190.369655 36.262493 
L 193.409567 37.933535 
L 196.449479 35.009212 
L 199.489391 34.591452 
L 202.529303 35.426973 
L 205.569215 35.426973 
L 208.609127 36.262493 
L 211.649039 36.680254 
L 214.688951 32.50265 
L 217.728863 34.591452 
L 220.768775 32.50265 
L 223.808687 35.844733 
L 226.848599 34.591452 
L 229.888511 35.009212 
L 232.928423 35.009212 
L 235.968335 33.755931 
L 239.008247 33.755931 
L 242.048159 33.338171 
L 245.08807 27.489526 
L 248.127982 32.50265 
L 251.167894 30.831609 
L 254.207806 33.338171 
L 257.247718 32.08489 
L 260.28763 31.249369 
L 263.327542 33.755931 
L 266.367454 30.831609 
L 269.407366 33.338171 
L 272.447278 34.173692 
L 275.48719 32.08489 
L 278.527102 32.50265 
L 281.567014 32.08489 
L 284.606926 29.996088 
L 287.646838 34.173692 
L 290.68675 32.50265 
L 293.726662 31.667129 
L 296.766574 30.413848 
L 299.806485 29.996088 
L 302.846397 33.755931 
L 305.886309 31.249369 
L 308.926221 29.996088 
L 311.966133 29.578328 
L 315.006045 34.173692 
L 318.045957 30.413848 
L 321.085869 28.742807 
L 324.125781 29.996088 
L 327.165693 28.742807 
L 330.205605 30.831609 
L 333.245517 29.996088 
L 336.285429 30.413848 
L 339.325341 29.160567 
L 342.365253 32.50265 
L 345.405165 26.654005 
L 348.445077 29.996088 
L 351.484989 24.147443 
L 354.5249 30.413848 
L 357.564812 30.831609 
L 360.604724 29.160567 
L 363.644636 29.578328 
L 366.684548 30.413848 
L 369.72446 27.907286 
" clip-path="url(#p4663437247)" style="fill: none; stroke: #d62728; stroke-width: 1.5; stroke-linecap: square"/>
   </g>
   <g id="line2d_18">
    <path d="M 65.763665 291.096307 
L 66.037257 289.843026 
L 66.341248 289.843026 
L 66.645239 289.425265 
L 66.94923 289.007505 
L 67.253222 289.007505 
L 67.557213 289.007505 
L 67.861204 288.589745 
L 68.165195 288.589745 
L 68.469186 288.171984 
L 68.773178 288.171984 
L 71.81309 286.500943 
L 74.853001 285.665422 
L 77.892913 284.829902 
L 80.932825 283.994381 
L 83.972737 283.15886 
L 87.012649 282.7411 
L 90.052561 282.323339 
L 93.092473 281.905579 
L 96.132385 281.487819 
L 99.172297 281.070058 
L 102.212209 280.652298 
L 105.252121 280.652298 
L 108.292033 280.234538 
L 111.331945 280.234538 
L 114.371857 279.816777 
L 117.411769 279.816777 
L 120.451681 279.816777 
L 123.491593 279.399017 
L 126.531505 278.145736 
L 129.571417 279.399017 
L 132.611328 278.981257 
L 135.65124 278.563496 
L 138.691152 278.981257 
L 141.731064 278.563496 
L 144.770976 278.563496 
L 147.810888 278.145736 
L 150.8508 277.727976 
L 153.890712 278.145736 
L 156.930624 277.727976 
L 159.970536 277.310215 
L 163.010448 277.310215 
L 166.05036 276.892455 
L 169.090272 276.892455 
L 172.130184 276.892455 
L 175.170096 276.474695 
L 178.210008 276.056934 
L 181.24992 275.639174 
L 184.289832 276.056934 
L 187.329743 275.639174 
L 190.369655 275.639174 
L 193.409567 275.639174 
L 196.449479 275.221414 
L 199.489391 275.221414 
L 202.529303 274.803653 
L 205.569215 273.968132 
L 208.609127 274.803653 
L 211.649039 274.385893 
L 214.688951 274.385893 
L 217.728863 273.968132 
L 220.768775 273.968132 
L 223.808687 273.550372 
L 226.848599 273.132612 
L 229.888511 273.132612 
L 232.928423 273.550372 
L 235.968335 273.132612 
L 239.008247 272.714851 
L 242.048159 272.714851 
L 245.08807 272.297091 
L 248.127982 271.879331 
L 251.167894 268.119488 
L 254.207806 272.297091 
L 257.247718 271.46157 
L 260.28763 271.879331 
L 263.327542 271.46157 
L 266.367454 271.04381 
L 269.407366 271.04381 
L 272.447278 270.208289 
L 275.48719 270.208289 
L 278.527102 270.62605 
L 281.567014 270.62605 
L 284.606926 269.790529 
L 287.646838 270.208289 
L 290.68675 269.790529 
L 293.726662 269.372769 
L 296.766574 268.955008 
L 299.806485 269.790529 
L 302.846397 268.955008 
L 305.886309 268.955008 
L 308.926221 268.537248 
L 311.966133 268.119488 
L 315.006045 268.537248 
L 318.045957 268.537248 
L 321.085869 268.119488 
L 324.125781 268.119488 
L 327.165693 267.701727 
L 330.205605 267.701727 
L 333.245517 266.866207 
L 336.285429 267.283967 
L 339.325341 266.866207 
L 342.365253 266.866207 
L 345.405165 266.866207 
L 348.445077 266.030686 
L 351.484989 266.448446 
L 354.5249 266.030686 
L 357.564812 266.030686 
L 360.604724 266.448446 
L 363.644636 265.612925 
L 366.684548 263.941884 
L 369.72446 265.195165 
" clip-path="url(#p4663437247)" style="fill: none; stroke: #9467bd; stroke-width: 1.5; stroke-linecap: square"/>
   </g>
   <g id="line2d_19">
    <path d="M 65.763665 227.178973 
L 66.037257 225.507932 
L 66.341248 224.254651 
L 66.645239 223.83689 
L 66.94923 220.912568 
L 67.253222 227.178973 
L 67.557213 224.672411 
L 67.861204 222.165849 
L 68.165195 223.00137 
L 68.469186 223.83689 
L 68.773178 222.165849 
L 71.81309 220.912568 
L 74.853001 218.406006 
L 77.892913 217.988246 
L 80.932825 218.823766 
L 83.972737 217.570485 
L 87.012649 212.557361 
L 90.052561 213.392882 
L 93.092473 210.88632 
L 96.132385 212.975121 
L 99.172297 207.961997 
L 102.212209 208.797518 
L 105.252121 210.88632 
L 108.292033 205.873195 
L 111.331945 208.797518 
L 114.371857 212.557361 
L 117.411769 206.708716 
L 120.451681 205.873195 
L 123.491593 207.126476 
L 126.531505 205.873195 
L 129.571417 206.290956 
L 132.611328 206.708716 
L 135.65124 207.961997 
L 138.691152 206.290956 
L 141.731064 206.290956 
L 144.770976 205.455435 
L 147.810888 205.037675 
L 150.8508 205.037675 
L 153.890712 206.290956 
L 156.930624 203.366633 
L 159.970536 205.037675 
L 163.010448 205.037675 
L 166.05036 204.619914 
L 169.090272 206.290956 
L 172.130184 202.948873 
L 175.170096 205.873195 
L 178.210008 204.619914 
L 181.24992 201.695592 
L 184.289832 202.531113 
L 187.329743 201.695592 
L 190.369655 201.695592 
L 193.409567 202.531113 
L 196.449479 201.695592 
L 199.489391 202.948873 
L 202.529303 203.784394 
L 205.569215 202.948873 
L 208.609127 203.784394 
L 211.649039 199.18903 
L 214.688951 202.948873 
L 217.728863 201.277832 
L 220.768775 197.935749 
L 223.808687 203.366633 
L 226.848599 197.517988 
L 229.888511 200.024551 
L 232.928423 200.860071 
L 235.968335 201.277832 
L 239.008247 202.948873 
L 242.048159 197.935749 
L 245.08807 199.60679 
L 248.127982 200.024551 
L 251.167894 197.517988 
L 254.207806 197.935749 
L 257.247718 198.353509 
L 260.28763 197.100228 
L 263.327542 198.771269 
L 266.367454 197.100228 
L 269.407366 194.593666 
L 272.447278 199.60679 
L 275.48719 198.353509 
L 278.527102 201.277832 
L 281.567014 194.593666 
L 284.606926 197.935749 
L 287.646838 194.175906 
L 290.68675 197.517988 
L 293.726662 195.846947 
L 296.766574 195.011426 
L 299.806485 197.935749 
L 302.846397 196.682468 
L 305.886309 198.353509 
L 308.926221 197.517988 
L 311.966133 195.846947 
L 315.006045 197.517988 
L 318.045957 196.264707 
L 321.085869 193.758145 
L 324.125781 194.593666 
L 327.165693 197.517988 
L 330.205605 194.175906 
L 333.245517 195.429187 
L 336.285429 194.593666 
L 339.325341 194.593666 
L 342.365253 195.429187 
L 345.405165 194.175906 
L 348.445077 196.264707 
L 351.484989 197.935749 
L 354.5249 195.011426 
L 357.564812 192.922625 
L 360.604724 193.340385 
L 363.644636 194.593666 
L 366.684548 190.416062 
L 369.72446 196.682468 
" clip-path="url(#p4663437247)" style="fill: none; stroke: #8c564b; stroke-width: 1.5; stroke-linecap: square"/>
   </g>
   <g id="line2d_20">
    <path d="M 65.763665 279.816777 
L 66.037257 279.816777 
L 66.341248 277.727976 
L 66.645239 278.981257 
L 66.94923 278.563496 
L 67.253222 278.145736 
L 67.557213 278.145736 
L 67.861204 278.145736 
L 68.165195 278.145736 
L 68.469186 277.727976 
L 68.773178 276.892455 
L 71.81309 276.474695 
L 74.853001 275.221414 
L 77.892913 273.132612 
L 80.932825 273.550372 
L 83.972737 272.297091 
L 87.012649 272.297091 
L 90.052561 271.46157 
L 93.092473 271.04381 
L 96.132385 270.62605 
L 99.172297 270.208289 
L 102.212209 269.790529 
L 105.252121 268.955008 
L 108.292033 268.955008 
L 111.331945 268.537248 
L 114.371857 267.701727 
L 117.411769 268.537248 
L 120.451681 267.701727 
L 123.491593 266.866207 
L 126.531505 266.866207 
L 129.571417 267.701727 
L 132.611328 267.283967 
L 135.65124 267.283967 
L 138.691152 266.866207 
L 141.731064 266.866207 
L 144.770976 267.283967 
L 147.810888 267.283967 
L 150.8508 266.030686 
L 153.890712 266.030686 
L 156.930624 266.448446 
L 159.970536 265.612925 
L 163.010448 266.448446 
L 166.05036 265.195165 
L 169.090272 266.030686 
L 172.130184 265.195165 
L 175.170096 265.195165 
L 178.210008 265.195165 
L 181.24992 265.195165 
L 184.289832 264.359644 
L 187.329743 264.777405 
L 190.369655 264.359644 
L 193.409567 263.941884 
L 196.449479 264.359644 
L 199.489391 264.777405 
L 202.529303 263.941884 
L 205.569215 264.359644 
L 208.609127 264.359644 
L 211.649039 263.941884 
L 214.688951 263.941884 
L 217.728863 263.106363 
L 220.768775 263.941884 
L 223.808687 263.106363 
L 226.848599 263.524124 
L 229.888511 263.106363 
L 232.928423 262.688603 
L 235.968335 262.688603 
L 239.008247 262.270843 
L 242.048159 263.106363 
L 245.08807 262.270843 
L 248.127982 261.853082 
L 251.167894 261.853082 
L 254.207806 262.270843 
L 257.247718 261.853082 
L 260.28763 261.853082 
L 263.327542 261.853082 
L 266.367454 261.853082 
L 269.407366 261.017562 
L 272.447278 261.017562 
L 275.48719 261.435322 
L 278.527102 260.599801 
L 281.567014 260.599801 
L 284.606926 261.017562 
L 287.646838 261.017562 
L 290.68675 261.017562 
L 293.726662 260.599801 
L 296.766574 260.599801 
L 299.806485 260.182041 
L 302.846397 259.764281 
L 305.886309 260.182041 
L 308.926221 260.182041 
L 311.966133 260.182041 
L 315.006045 260.182041 
L 318.045957 258.92876 
L 321.085869 259.764281 
L 324.125781 259.34652 
L 327.165693 259.764281 
L 330.205605 259.34652 
L 333.245517 258.511 
L 336.285429 258.92876 
L 339.325341 258.511 
L 342.365253 257.257718 
L 345.405165 258.511 
L 348.445077 258.511 
L 351.484989 259.34652 
L 354.5249 258.92876 
L 357.564812 258.511 
L 360.604724 258.511 
L 363.644636 258.511 
L 366.684548 257.675479 
L 369.72446 257.675479 
" clip-path="url(#p4663437247)" style="fill: none; stroke: #e377c2; stroke-width: 1.5; stroke-linecap: square"/>
   </g>
   <g id="line2d_21">
    <path d="M 65.763665 265.195165 
L 66.037257 263.106363 
L 66.341248 260.599801 
L 66.645239 258.511 
L 66.94923 258.511 
L 67.253222 256.004437 
L 67.557213 256.004437 
L 67.861204 255.586677 
L 68.165195 254.333396 
L 68.469186 253.497875 
L 68.773178 253.080115 
L 71.81309 245.560429 
L 74.853001 239.711784 
L 77.892913 235.11642 
L 80.932825 230.521056 
L 83.972737 225.090172 
L 87.012649 221.748089 
L 90.052561 217.152725 
L 93.092473 211.30408 
L 96.132385 208.797518 
L 99.172297 205.037675 
L 102.212209 202.113352 
L 105.252121 200.860071 
L 108.292033 194.593666 
L 111.331945 195.846947 
L 114.371857 193.340385 
L 117.411769 189.580542 
L 120.451681 190.416062 
L 123.491593 189.162781 
L 126.531505 186.238459 
L 129.571417 183.731897 
L 132.611328 184.985178 
L 135.65124 181.643095 
L 138.691152 182.896376 
L 141.731064 179.136533 
L 144.770976 178.718773 
L 147.810888 177.047731 
L 150.8508 175.79445 
L 153.890712 174.123409 
L 156.930624 173.705648 
L 159.970536 171.199086 
L 163.010448 169.945805 
L 166.05036 169.945805 
L 169.090272 169.110285 
L 172.130184 167.857004 
L 175.170096 165.768202 
L 178.210008 164.09716 
L 181.24992 161.590598 
L 184.289832 162.008359 
L 187.329743 159.501797 
L 190.369655 159.919557 
L 193.409567 157.412995 
L 196.449479 156.577474 
L 199.489391 154.906433 
L 202.529303 154.488672 
L 205.569215 151.14659 
L 208.609127 152.399871 
L 211.649039 148.222267 
L 214.688951 149.057788 
L 217.728863 145.715705 
L 220.768775 144.880184 
L 223.808687 144.044664 
L 226.848599 143.626903 
L 229.888511 138.613779 
L 232.928423 141.538102 
L 235.968335 139.031539 
L 239.008247 136.107217 
L 242.048159 136.942738 
L 245.08807 135.271696 
L 248.127982 134.018415 
L 251.167894 132.347374 
L 254.207806 130.676332 
L 257.247718 128.16977 
L 260.28763 128.16977 
L 263.327542 126.498729 
L 266.367454 126.498729 
L 269.407366 121.067844 
L 272.447278 123.156646 
L 275.48719 122.321125 
L 278.527102 119.814563 
L 281.567014 117.725762 
L 284.606926 115.219199 
L 287.646838 118.561282 
L 290.68675 114.383679 
L 293.726662 111.459356 
L 296.766574 113.548158 
L 299.806485 111.041596 
L 302.846397 111.459356 
L 305.886309 110.623836 
L 308.926221 109.370555 
L 311.966133 107.281753 
L 315.006045 103.93967 
L 318.045957 105.192951 
L 321.085869 105.192951 
L 324.125781 101.850868 
L 327.165693 99.344306 
L 330.205605 98.926546 
L 333.245517 98.091025 
L 336.285429 94.748942 
L 339.325341 96.002223 
L 342.365253 91.40686 
L 345.405165 92.24238 
L 348.445077 91.82462 
L 351.484989 86.393735 
L 354.5249 83.887173 
L 357.564812 85.558215 
L 360.604724 86.811496 
L 363.644636 83.469413 
L 366.684548 79.291809 
L 369.72446 79.70957 
" clip-path="url(#p4663437247)" style="fill: none; stroke: #7f7f7f; stroke-width: 1.5; stroke-linecap: square"/>
   </g>
   <g id="line2d_22">
    <path d="M 65.763665 278.145736 
L 66.037257 277.727976 
L 66.341248 276.474695 
L 66.645239 275.639174 
L 66.94923 275.221414 
L 67.253222 274.385893 
L 67.557213 273.968132 
L 67.861204 273.550372 
L 68.165195 272.714851 
L 68.469186 272.714851 
L 68.773178 271.879331 
L 71.81309 268.537248 
L 74.853001 266.448446 
L 77.892913 260.599801 
L 80.932825 260.182041 
L 83.972737 257.675479 
L 87.012649 257.257718 
L 90.052561 254.751156 
L 93.092473 252.662355 
L 96.132385 250.155793 
L 99.172297 250.573553 
L 102.212209 248.902511 
L 105.252121 249.320272 
L 108.292033 246.395949 
L 111.331945 246.395949 
L 114.371857 246.395949 
L 117.411769 243.471627 
L 120.451681 244.307148 
L 123.491593 243.053867 
L 126.531505 242.218346 
L 129.571417 243.471627 
L 132.611328 242.218346 
L 135.65124 241.382825 
L 138.691152 240.547304 
L 141.731064 240.965065 
L 144.770976 240.547304 
L 147.810888 239.711784 
L 150.8508 240.129544 
L 153.890712 239.294023 
L 156.930624 237.205222 
L 159.970536 237.205222 
L 163.010448 236.369701 
L 166.05036 236.369701 
L 169.090272 235.11642 
L 172.130184 235.53418 
L 175.170096 234.280899 
L 178.210008 235.11642 
L 181.24992 235.11642 
L 184.289832 233.027618 
L 187.329743 234.280899 
L 190.369655 233.863139 
L 193.409567 230.938816 
L 196.449479 232.192097 
L 199.489391 233.027618 
L 202.529303 230.938816 
L 205.569215 232.192097 
L 208.609127 231.356577 
L 211.649039 229.685535 
L 214.688951 230.938816 
L 217.728863 229.267775 
L 220.768775 229.267775 
L 223.808687 228.432254 
L 226.848599 228.014494 
L 229.888511 228.014494 
L 232.928423 228.014494 
L 235.968335 227.178973 
L 239.008247 226.761213 
L 242.048159 225.507932 
L 245.08807 225.925692 
L 248.127982 224.672411 
L 251.167894 224.672411 
L 254.207806 224.254651 
L 257.247718 224.254651 
L 260.28763 224.254651 
L 263.327542 224.254651 
L 266.367454 223.00137 
L 269.407366 222.583609 
L 272.447278 220.494808 
L 275.48719 221.330328 
L 278.527102 221.748089 
L 281.567014 220.912568 
L 284.606926 220.494808 
L 287.646838 220.912568 
L 290.68675 219.241527 
L 293.726662 219.241527 
L 296.766574 219.241527 
L 299.806485 217.988246 
L 302.846397 216.317204 
L 305.886309 216.734965 
L 308.926221 217.988246 
L 311.966133 216.734965 
L 315.006045 216.734965 
L 318.045957 215.481683 
L 321.085869 215.481683 
L 324.125781 212.557361 
L 327.165693 214.646163 
L 330.205605 212.975121 
L 333.245517 210.88632 
L 336.285429 213.392882 
L 339.325341 212.557361 
L 342.365253 210.468559 
L 345.405165 210.050799 
L 348.445077 211.30408 
L 351.484989 209.633039 
L 354.5249 210.468559 
L 357.564812 209.215278 
L 360.604724 209.215278 
L 363.644636 207.961997 
L 366.684548 208.379758 
L 369.72446 206.708716 
" clip-path="url(#p4663437247)" style="fill: none; stroke: #bcbd22; stroke-width: 1.5; stroke-linecap: square"/>
   </g>
   <g id="line2d_23">
    <path d="M 65.763665 193.758145 
L 66.037257 192.504864 
L 66.341248 189.998302 
L 66.645239 189.998302 
L 66.94923 190.416062 
L 67.253222 189.580542 
L 67.557213 189.998302 
L 67.861204 187.07398 
L 68.165195 187.9095 
L 68.469186 188.327261 
L 68.773178 186.656219 
L 71.81309 181.643095 
L 74.853001 177.465492 
L 77.892913 172.034607 
L 80.932825 167.439243 
L 83.972737 162.426119 
L 87.012649 160.755078 
L 90.052561 153.653152 
L 93.092473 154.488672 
L 96.132385 149.893309 
L 99.172297 149.475548 
L 102.212209 145.715705 
L 105.252121 145.297945 
L 108.292033 135.271696 
L 111.331945 137.778258 
L 114.371857 138.196019 
L 117.411769 137.360498 
L 120.451681 136.524977 
L 123.491593 134.436176 
L 126.531505 133.182895 
L 129.571417 132.347374 
L 132.611328 131.929613 
L 135.65124 130.676332 
L 138.691152 129.005291 
L 141.731064 127.33425 
L 144.770976 129.005291 
L 147.810888 127.75201 
L 150.8508 125.663208 
L 153.890712 126.498729 
L 156.930624 119.814563 
L 159.970536 124.409927 
L 163.010448 123.992167 
L 166.05036 123.156646 
L 169.090272 123.574406 
L 172.130184 122.321125 
L 175.170096 123.992167 
L 178.210008 121.903365 
L 181.24992 118.561282 
L 184.289832 121.067844 
L 187.329743 119.814563 
L 190.369655 119.814563 
L 193.409567 120.232324 
L 196.449479 118.143522 
L 199.489391 118.561282 
L 202.529303 118.561282 
L 205.569215 115.219199 
L 208.609127 115.63696 
L 211.649039 115.219199 
L 214.688951 113.548158 
L 217.728863 114.801439 
L 220.768775 113.548158 
L 223.808687 111.459356 
L 226.848599 110.623836 
L 229.888511 110.623836 
L 232.928423 110.623836 
L 235.968335 108.117274 
L 239.008247 107.699513 
L 242.048159 109.788315 
L 245.08807 107.699513 
L 248.127982 107.699513 
L 251.167894 106.028472 
L 254.207806 105.610711 
L 257.247718 104.775191 
L 260.28763 102.686389 
L 263.327542 104.35743 
L 266.367454 104.35743 
L 269.407366 104.35743 
L 272.447278 101.015348 
L 275.48719 101.433108 
L 278.527102 100.597587 
L 281.567014 101.850868 
L 284.606926 101.433108 
L 287.646838 98.508785 
L 290.68675 96.002223 
L 293.726662 97.255504 
L 296.766574 96.002223 
L 299.806485 96.002223 
L 302.846397 94.748942 
L 305.886309 96.419984 
L 308.926221 93.913422 
L 311.966133 94.331182 
L 315.006045 93.913422 
L 318.045957 93.913422 
L 321.085869 96.002223 
L 324.125781 93.077901 
L 327.165693 88.482537 
L 330.205605 90.989099 
L 333.245517 91.82462 
L 336.285429 92.24238 
L 339.325341 87.229256 
L 342.365253 89.735818 
L 345.405165 89.735818 
L 348.445077 89.318058 
L 351.484989 85.975975 
L 354.5249 88.900297 
L 357.564812 84.722694 
L 360.604724 86.393735 
L 363.644636 88.482537 
L 366.684548 77.620768 
L 369.72446 78.038528 
" clip-path="url(#p4663437247)" style="fill: none; stroke: #17becf; stroke-width: 1.5; stroke-linecap: square"/>
   </g>
   <g id="line2d_24">
    <path d="M 65.763665 291.096307 
L 66.037257 291.096307 
L 66.341248 289.843026 
L 66.645239 289.843026 
L 66.94923 289.843026 
L 67.253222 289.843026 
L 67.557213 289.425265 
L 67.861204 289.425265 
L 68.165195 288.589745 
L 68.469186 289.007505 
L 68.773178 289.007505 
L 71.81309 287.336464 
L 74.853001 286.918703 
L 77.892913 285.665422 
L 80.932825 285.247662 
L 83.972737 283.994381 
L 87.012649 283.576621 
L 90.052561 283.15886 
L 93.092473 282.7411 
L 96.132385 282.7411 
L 99.172297 281.905579 
L 102.212209 281.487819 
L 105.252121 281.487819 
L 108.292033 280.652298 
L 111.331945 280.234538 
L 114.371857 280.234538 
L 117.411769 279.399017 
L 120.451681 279.399017 
L 123.491593 279.816777 
L 126.531505 279.816777 
L 129.571417 279.399017 
L 132.611328 279.399017 
L 135.65124 278.981257 
L 138.691152 278.981257 
L 141.731064 278.981257 
L 144.770976 278.563496 
L 147.810888 278.563496 
L 150.8508 278.563496 
L 153.890712 277.727976 
L 156.930624 278.145736 
L 159.970536 277.727976 
L 163.010448 278.145736 
L 166.05036 278.145736 
L 169.090272 277.727976 
L 172.130184 277.310215 
L 175.170096 277.727976 
L 178.210008 276.892455 
L 181.24992 276.892455 
L 184.289832 277.310215 
L 187.329743 276.892455 
L 190.369655 276.474695 
L 193.409567 276.892455 
L 196.449479 276.474695 
L 199.489391 276.474695 
L 202.529303 276.474695 
L 205.569215 276.474695 
L 208.609127 276.056934 
L 211.649039 276.056934 
L 214.688951 276.056934 
L 217.728863 276.056934 
L 220.768775 275.639174 
L 223.808687 275.639174 
L 226.848599 275.639174 
L 229.888511 275.221414 
L 232.928423 275.221414 
L 235.968335 275.639174 
L 239.008247 274.385893 
L 242.048159 274.385893 
L 245.08807 273.968132 
L 248.127982 274.385893 
L 251.167894 274.385893 
L 254.207806 273.968132 
L 257.247718 274.385893 
L 260.28763 273.968132 
L 263.327542 273.550372 
L 266.367454 273.968132 
L 269.407366 273.968132 
L 272.447278 273.968132 
L 275.48719 273.550372 
L 278.527102 273.132612 
L 281.567014 273.132612 
L 284.606926 272.714851 
L 287.646838 272.297091 
L 290.68675 273.132612 
L 293.726662 273.132612 
L 296.766574 272.714851 
L 299.806485 272.297091 
L 302.846397 272.297091 
L 305.886309 272.297091 
L 308.926221 272.297091 
L 311.966133 271.879331 
L 315.006045 271.46157 
L 318.045957 271.879331 
L 321.085869 271.879331 
L 324.125781 269.790529 
L 327.165693 271.46157 
L 330.205605 271.04381 
L 333.245517 271.46157 
L 336.285429 271.46157 
L 339.325341 271.46157 
L 342.365253 271.46157 
L 345.405165 271.04381 
L 348.445077 271.04381 
L 351.484989 271.46157 
L 354.5249 270.62605 
L 357.564812 269.790529 
L 360.604724 270.62605 
L 363.644636 270.62605 
L 366.684548 270.62605 
L 369.72446 269.372769 
" clip-path="url(#p4663437247)" style="fill: none; stroke: #1f77b4; stroke-width: 1.5; stroke-linecap: square"/>
   </g>
   <g id="line2d_25">
    <path d="M 65.763665 288.589745 
L 66.037257 287.336464 
L 66.341248 285.247662 
L 66.645239 283.994381 
L 66.94923 283.15886 
L 67.253222 281.905579 
L 67.557213 280.652298 
L 67.861204 279.816777 
L 68.165195 278.981257 
L 68.469186 278.145736 
L 68.773178 276.892455 
L 71.81309 268.119488 
L 74.853001 261.435322 
L 77.892913 256.422198 
L 80.932825 250.991313 
L 83.972737 247.64923 
L 87.012649 243.053867 
L 90.052561 240.547304 
L 93.092473 237.622982 
L 96.132385 234.69866 
L 99.172297 232.609858 
L 102.212209 230.938816 
L 105.252121 229.267775 
L 108.292033 226.343453 
L 111.331945 225.507932 
L 114.371857 222.583609 
L 117.411769 220.494808 
L 120.451681 218.823766 
L 123.491593 219.241527 
L 126.531505 216.317204 
L 129.571417 215.063923 
L 132.611328 213.392882 
L 135.65124 210.88632 
L 138.691152 210.468559 
L 141.731064 209.633039 
L 144.770976 207.961997 
L 147.810888 204.202154 
L 150.8508 204.202154 
L 153.890712 204.202154 
L 156.930624 202.531113 
L 159.970536 201.695592 
L 163.010448 199.18903 
L 166.05036 199.60679 
L 169.090272 197.517988 
L 172.130184 197.517988 
L 175.170096 195.846947 
L 178.210008 194.175906 
L 181.24992 193.758145 
L 184.289832 192.087104 
L 187.329743 190.416062 
L 190.369655 189.580542 
L 193.409567 187.9095 
L 196.449479 185.402938 
L 199.489391 185.402938 
L 202.529303 184.567418 
L 205.569215 181.643095 
L 208.609127 183.314137 
L 211.649039 182.478616 
L 214.688951 179.554293 
L 217.728863 179.136533 
L 220.768775 177.883252 
L 223.808687 177.465492 
L 226.848599 175.79445 
L 229.888511 175.37669 
L 232.928423 174.123409 
L 235.968335 172.034607 
L 239.008247 170.781326 
L 242.048159 169.945805 
L 245.08807 168.274764 
L 248.127982 165.768202 
L 251.167894 165.350441 
L 254.207806 166.185962 
L 257.247718 165.350441 
L 260.28763 164.514921 
L 263.327542 162.426119 
L 266.367454 162.843879 
L 269.407366 159.501797 
L 272.447278 159.919557 
L 275.48719 157.830755 
L 278.527102 157.412995 
L 281.567014 156.159714 
L 284.606926 154.906433 
L 287.646838 155.324193 
L 290.68675 151.98211 
L 293.726662 151.56435 
L 296.766574 151.98211 
L 299.806485 149.475548 
L 302.846397 149.057788 
L 305.886309 148.640027 
L 308.926221 148.222267 
L 311.966133 147.386746 
L 315.006045 144.044664 
L 318.045957 141.538102 
L 321.085869 144.044664 
L 324.125781 141.538102 
L 327.165693 140.702581 
L 330.205605 136.524977 
L 333.245517 137.360498 
L 336.285429 137.360498 
L 339.325341 135.271696 
L 342.365253 135.689457 
L 345.405165 133.182895 
L 348.445077 136.942738 
L 351.484989 134.436176 
L 354.5249 132.347374 
L 357.564812 129.423051 
L 360.604724 128.16977 
L 363.644636 128.587531 
L 366.684548 128.587531 
L 369.72446 128.587531 
" clip-path="url(#p4663437247)" style="fill: none; stroke: #ff7f0e; stroke-width: 1.5; stroke-linecap: square"/>
   </g>
   <g id="patch_3">
    <path d="M 50.565625 304.44375 
L 50.565625 10.8 
" style="fill: none; stroke: #000000; stroke-width: 0.8; stroke-linejoin: miter; stroke-linecap: square"/>
   </g>
   <g id="patch_4">
    <path d="M 384.9225 304.44375 
L 384.9225 10.8 
" style="fill: none; stroke: #000000; stroke-width: 0.8; stroke-linejoin: miter; stroke-linecap: square"/>
   </g>
   <g id="patch_5">
    <path d="M 50.565625 304.44375 
L 384.9225 304.44375 
" style="fill: none; stroke: #000000; stroke-width: 0.8; stroke-linejoin: miter; stroke-linecap: square"/>
   </g>
   <g id="patch_6">
    <path d="M 50.565625 10.8 
L 384.9225 10.8 
" style="fill: none; stroke: #000000; stroke-width: 0.8; stroke-linejoin: miter; stroke-linecap: square"/>
   </g>
   <g id="text_16">
    <!-- trimou -->
    <g style="fill: #1f77b4" transform="translate(390.9225 276.175632) scale(0.08 -0.08)">
     <defs>
      <path id="DejaVuSans-6f" d="M 1959 3097 
Q 1497 3097 1228 2736 
Q 959 2375 959 1747 
Q 959 1119 1226 758 
Q 1494 397 1959 397 
Q 2419 397 2687 759 
Q 2956 1122 2956 1747 
Q 2956 2369 2687 2733 
Q 2419 3097 1959 3097 
z
M 1959 3584 
Q 2709 3584 3137 3096 
Q 3566 2609 3566 1747 
Q 3566 888 3137 398 
Q 2709 -91 1959 -91 
Q 1206 -91 779 398 
Q 353 888 353 1747 
Q 353 2609 779 3096 
Q 1206 3584 1959 3584 
z
" transform="scale(0.015625)"/>
     </defs>
     <use xlink:href="#DejaVuSans-74"/>
     <use xlink:href="#DejaVuSans-72" transform="translate(39.208984 0)"/>
     <use xlink:href="#DejaVuSans-69" transform="translate(80.322266 0)"/>
     <use xlink:href="#DejaVuSans-6d" transform="translate(108.105469 0)"/>
     <use xlink:href="#DejaVuSans-6f" transform="translate(205.517578 0)"/>
     <use xlink:href="#DejaVuSans-75" transform="translate(266.699219 0)"/>
    </g>
   </g>
   <g id="text_17">
    <!-- mustachej -->
    <g style="fill: #9467bd" transform="translate(390.9225 268.238186) scale(0.08 -0.08)">
     <defs>
      <path id="DejaVuSans-61" d="M 2194 1759 
Q 1497 1759 1228 1600 
Q 959 1441 959 1056 
Q 959 750 1161 570 
Q 1363 391 1709 391 
Q 2188 391 2477 730 
Q 2766 1069 2766 1631 
L 2766 1759 
L 2194 1759 
z
M 3341 1997 
L 3341 0 
L 2766 0 
L 2766 531 
Q 2569 213 2275 61 
Q 1981 -91 1556 -91 
Q 1019 -91 701 211 
Q 384 513 384 1019 
Q 384 1609 779 1909 
Q 1175 2209 1959 2209 
L 2766 2209 
L 2766 2266 
Q 2766 2663 2505 2880 
Q 2244 3097 1772 3097 
Q 1472 3097 1187 3025 
Q 903 2953 641 2809 
L 641 3341 
Q 956 3463 1253 3523 
Q 1550 3584 1831 3584 
Q 2591 3584 2966 3190 
Q 3341 2797 3341 1997 
z
" transform="scale(0.015625)"/>
      <path id="DejaVuSans-63" d="M 3122 3366 
L 3122 2828 
Q 2878 2963 2633 3030 
Q 2388 3097 2138 3097 
Q 1578 3097 1268 2742 
Q 959 2388 959 1747 
Q 959 1106 1268 751 
Q 1578 397 2138 397 
Q 2388 397 2633 464 
Q 2878 531 3122 666 
L 3122 134 
Q 2881 22 2623 -34 
Q 2366 -91 2075 -91 
Q 1284 -91 818 406 
Q 353 903 353 1747 
Q 353 2603 823 3093 
Q 1294 3584 2113 3584 
Q 2378 3584 2631 3529 
Q 2884 3475 3122 3366 
z
" transform="scale(0.015625)"/>
      <path id="DejaVuSans-68" d="M 3513 2113 
L 3513 0 
L 2938 0 
L 2938 2094 
Q 2938 2591 2744 2837 
Q 2550 3084 2163 3084 
Q 1697 3084 1428 2787 
Q 1159 2491 1159 1978 
L 1159 0 
L 581 0 
L 581 4863 
L 1159 4863 
L 1159 2956 
Q 1366 3272 1645 3428 
Q 1925 3584 2291 3584 
Q 2894 3584 3203 3211 
Q 3513 2838 3513 2113 
z
" transform="scale(0.015625)"/>
      <path id="DejaVuSans-6a" d="M 603 3500 
L 1178 3500 
L 1178 -63 
Q 1178 -731 923 -1031 
Q 669 -1331 103 -1331 
L -116 -1331 
L -116 -844 
L 38 -844 
Q 366 -844 484 -692 
Q 603 -541 603 -63 
L 603 3500 
z
M 603 4863 
L 1178 4863 
L 1178 4134 
L 603 4134 
L 603 4863 
z
" transform="scale(0.015625)"/>
     </defs>
     <use xlink:href="#DejaVuSans-6d"/>
     <use xlink:href="#DejaVuSans-75" transform="translate(97.412109 0)"/>
     <use xlink:href="#DejaVuSans-73" transform="translate(160.791016 0)"/>
     <use xlink:href="#DejaVuSans-74" transform="translate(212.890625 0)"/>
     <use xlink:href="#DejaVuSans-61" transform="translate(252.099609 0)"/>
     <use xlink:href="#DejaVuSans-63" transform="translate(313.378906 0)"/>
     <use xlink:href="#DejaVuSans-68" transform="translate(368.359375 0)"/>
     <use xlink:href="#DejaVuSans-65" transform="translate(431.738281 0)"/>
     <use xlink:href="#DejaVuSans-6a" transform="translate(493.261719 0)"/>
    </g>
   </g>
   <g id="text_18">
    <!-- handlebars -->
    <g style="fill: #ff7f0e" transform="translate(390.9225 260.300739) scale(0.08 -0.08)">
     <defs>
      <path id="DejaVuSans-64" d="M 2906 2969 
L 2906 4863 
L 3481 4863 
L 3481 0 
L 2906 0 
L 2906 525 
Q 2725 213 2448 61 
Q 2172 -91 1784 -91 
Q 1150 -91 751 415 
Q 353 922 353 1747 
Q 353 2572 751 3078 
Q 1150 3584 1784 3584 
Q 2172 3584 2448 3432 
Q 2725 3281 2906 2969 
z
M 947 1747 
Q 947 1113 1208 752 
Q 1469 391 1925 391 
Q 2381 391 2643 752 
Q 2906 1113 2906 1747 
Q 2906 2381 2643 2742 
Q 2381 3103 1925 3103 
Q 1469 3103 1208 2742 
Q 947 2381 947 1747 
z
" transform="scale(0.015625)"/>
      <path id="DejaVuSans-6c" d="M 603 4863 
L 1178 4863 
L 1178 0 
L 603 0 
L 603 4863 
z
" transform="scale(0.015625)"/>
      <path id="DejaVuSans-62" d="M 3116 1747 
Q 3116 2381 2855 2742 
Q 2594 3103 2138 3103 
Q 1681 3103 1420 2742 
Q 1159 2381 1159 1747 
Q 1159 1113 1420 752 
Q 1681 391 2138 391 
Q 2594 391 2855 752 
Q 3116 1113 3116 1747 
z
M 1159 2969 
Q 1341 3281 1617 3432 
Q 1894 3584 2278 3584 
Q 2916 3584 3314 3078 
Q 3713 2572 3713 1747 
Q 3713 922 3314 415 
Q 2916 -91 2278 -91 
Q 1894 -91 1617 61 
Q 1341 213 1159 525 
L 1159 0 
L 581 0 
L 581 4863 
L 1159 4863 
L 1159 2969 
z
" transform="scale(0.015625)"/>
     </defs>
     <use xlink:href="#DejaVuSans-68"/>
     <use xlink:href="#DejaVuSans-61" transform="translate(63.378906 0)"/>
     <use xlink:href="#DejaVuSans-6e" transform="translate(124.658203 0)"/>
     <use xlink:href="#DejaVuSans-64" transform="translate(188.037109 0)"/>
     <use xlink:href="#DejaVuSans-6c" transform="translate(251.513672 0)"/>
     <use xlink:href="#DejaVuSans-65" transform="translate(279.296875 0)"/>
     <use xlink:href="#DejaVuSans-62" transform="translate(340.820312 0)"/>
     <use xlink:href="#DejaVuSans-61" transform="translate(404.296875 0)"/>
     <use xlink:href="#DejaVuSans-72" transform="translate(465.576172 0)"/>
     <use xlink:href="#DejaVuSans-73" transform="translate(506.689453 0)"/>
    </g>
   </g>
   <g id="text_19">
    <!-- solomon -->
    <g style="fill: #e377c2" transform="translate(390.9225 252.363293) scale(0.08 -0.08)">
     <use xlink:href="#DejaVuSans-73"/>
     <use xlink:href="#DejaVuSans-6f" transform="translate(52.099609 0)"/>
     <use xlink:href="#DejaVuSans-6c" transform="translate(113.28125 0)"/>
     <use xlink:href="#DejaVuSans-6f" transform="translate(141.064453 0)"/>
     <use xlink:href="#DejaVuSans-6d" transform="translate(202.246094 0)"/>
     <use xlink:href="#DejaVuSans-6f" transform="translate(299.658203 0)"/>
     <use xlink:href="#DejaVuSans-6e" transform="translate(360.839844 0)"/>
    </g>
   </g>
   <g id="text_20">
    <!-- freemarker -->
    <g style="fill: #1f77b4" transform="translate(390.9225 216.853663) scale(0.08 -0.08)">
     <defs>
      <path id="DejaVuSans-66" d="M 2375 4863 
L 2375 4384 
L 1825 4384 
Q 1516 4384 1395 4259 
Q 1275 4134 1275 3809 
L 1275 3500 
L 2222 3500 
L 2222 3053 
L 1275 3053 
L 1275 0 
L 697 0 
L 697 3053 
L 147 3053 
L 147 3500 
L 697 3500 
L 697 3744 
Q 697 4328 969 4595 
Q 1241 4863 1831 4863 
L 2375 4863 
z
" transform="scale(0.015625)"/>
      <path id="DejaVuSans-6b" d="M 581 4863 
L 1159 4863 
L 1159 1991 
L 2875 3500 
L 3609 3500 
L 1753 1863 
L 3688 0 
L 2938 0 
L 1159 1709 
L 1159 0 
L 581 0 
L 581 4863 
z
" transform="scale(0.015625)"/>
     </defs>
     <use xlink:href="#DejaVuSans-66"/>
     <use xlink:href="#DejaVuSans-72" transform="translate(35.205078 0)"/>
     <use xlink:href="#DejaVuSans-65" transform="translate(74.068359 0)"/>
     <use xlink:href="#DejaVuSans-65" transform="translate(135.591797 0)"/>
     <use xlink:href="#DejaVuSans-6d" transform="translate(197.115234 0)"/>
     <use xlink:href="#DejaVuSans-61" transform="translate(294.527344 0)"/>
     <use xlink:href="#DejaVuSans-72" transform="translate(355.806641 0)"/>
     <use xlink:href="#DejaVuSans-6b" transform="translate(396.919922 0)"/>
     <use xlink:href="#DejaVuSans-65" transform="translate(451.205078 0)"/>
     <use xlink:href="#DejaVuSans-72" transform="translate(512.728516 0)"/>
    </g>
   </g>
   <g id="text_21">
    <!-- stringtree -->
    <g style="fill: #bcbd22" transform="translate(390.9225 208.916216) scale(0.08 -0.08)">
     <defs>
      <path id="DejaVuSans-67" d="M 2906 1791 
Q 2906 2416 2648 2759 
Q 2391 3103 1925 3103 
Q 1463 3103 1205 2759 
Q 947 2416 947 1791 
Q 947 1169 1205 825 
Q 1463 481 1925 481 
Q 2391 481 2648 825 
Q 2906 1169 2906 1791 
z
M 3481 434 
Q 3481 -459 3084 -895 
Q 2688 -1331 1869 -1331 
Q 1566 -1331 1297 -1286 
Q 1028 -1241 775 -1147 
L 775 -588 
Q 1028 -725 1275 -790 
Q 1522 -856 1778 -856 
Q 2344 -856 2625 -561 
Q 2906 -266 2906 331 
L 2906 616 
Q 2728 306 2450 153 
Q 2172 0 1784 0 
Q 1141 0 747 490 
Q 353 981 353 1791 
Q 353 2603 747 3093 
Q 1141 3584 1784 3584 
Q 2172 3584 2450 3431 
Q 2728 3278 2906 2969 
L 2906 3500 
L 3481 3500 
L 3481 434 
z
" transform="scale(0.015625)"/>
     </defs>
     <use xlink:href="#DejaVuSans-73"/>
     <use xlink:href="#DejaVuSans-74" transform="translate(52.099609 0)"/>
     <use xlink:href="#DejaVuSans-72" transform="translate(91.308594 0)"/>
     <use xlink:href="#DejaVuSans-69" transform="translate(132.421875 0)"/>
     <use xlink:href="#DejaVuSans-6e" transform="translate(160.205078 0)"/>
     <use xlink:href="#DejaVuSans-67" transform="translate(223.583984 0)"/>
     <use xlink:href="#DejaVuSans-74" transform="translate(287.060547 0)"/>
     <use xlink:href="#DejaVuSans-72" transform="translate(326.269531 0)"/>
     <use xlink:href="#DejaVuSans-65" transform="translate(365.132812 0)"/>
     <use xlink:href="#DejaVuSans-65" transform="translate(426.65625 0)"/>
    </g>
   </g>
   <g id="text_22">
    <!-- pebble -->
    <g style="fill: #8c564b" transform="translate(390.9225 198.889968) scale(0.08 -0.08)">
     <defs>
      <path id="DejaVuSans-70" d="M 1159 525 
L 1159 -1331 
L 581 -1331 
L 581 3500 
L 1159 3500 
L 1159 2969 
Q 1341 3281 1617 3432 
Q 1894 3584 2278 3584 
Q 2916 3584 3314 3078 
Q 3713 2572 3713 1747 
Q 3713 922 3314 415 
Q 2916 -91 2278 -91 
Q 1894 -91 1617 61 
Q 1341 213 1159 525 
z
M 3116 1747 
Q 3116 2381 2855 2742 
Q 2594 3103 2138 3103 
Q 1681 3103 1420 2742 
Q 1159 2381 1159 1747 
Q 1159 1113 1420 752 
Q 1681 391 2138 391 
Q 2594 391 2855 752 
Q 3116 1113 3116 1747 
z
" transform="scale(0.015625)"/>
     </defs>
     <use xlink:href="#DejaVuSans-70"/>
     <use xlink:href="#DejaVuSans-65" transform="translate(63.476562 0)"/>
     <use xlink:href="#DejaVuSans-62" transform="translate(125 0)"/>
     <use xlink:href="#DejaVuSans-62" transform="translate(188.476562 0)"/>
     <use xlink:href="#DejaVuSans-6c" transform="translate(251.953125 0)"/>
     <use xlink:href="#DejaVuSans-65" transform="translate(279.736328 0)"/>
    </g>
   </g>
   <g id="text_23">
    <!-- velocity -->
    <g style="fill: #ff7f0e" transform="translate(390.9225 130.795031) scale(0.08 -0.08)">
     <defs>
      <path id="DejaVuSans-76" d="M 191 3500 
L 800 3500 
L 1894 563 
L 2988 3500 
L 3597 3500 
L 2284 0 
L 1503 0 
L 191 3500 
z
" transform="scale(0.015625)"/>
      <path id="DejaVuSans-79" d="M 2059 -325 
Q 1816 -950 1584 -1140 
Q 1353 -1331 966 -1331 
L 506 -1331 
L 506 -850 
L 844 -850 
Q 1081 -850 1212 -737 
Q 1344 -625 1503 -206 
L 1606 56 
L 191 3500 
L 800 3500 
L 1894 763 
L 2988 3500 
L 3597 3500 
L 2059 -325 
z
" transform="scale(0.015625)"/>
     </defs>
     <use xlink:href="#DejaVuSans-76"/>
     <use xlink:href="#DejaVuSans-65" transform="translate(59.179688 0)"/>
     <use xlink:href="#DejaVuSans-6c" transform="translate(120.703125 0)"/>
     <use xlink:href="#DejaVuSans-6f" transform="translate(148.486328 0)"/>
     <use xlink:href="#DejaVuSans-63" transform="translate(209.667969 0)"/>
     <use xlink:href="#DejaVuSans-69" transform="translate(264.648438 0)"/>
     <use xlink:href="#DejaVuSans-74" transform="translate(292.431641 0)"/>
     <use xlink:href="#DejaVuSans-79" transform="translate(331.640625 0)"/>
    </g>
   </g>
   <g id="text_24">
    <!-- stringtemplate -->
    <g style="fill: #7f7f7f" transform="translate(390.9225 88.183475) scale(0.08 -0.08)">
     <use xlink:href="#DejaVuSans-73"/>
     <use xlink:href="#DejaVuSans-74" transform="translate(52.099609 0)"/>
     <use xlink:href="#DejaVuSans-72" transform="translate(91.308594 0)"/>
     <use xlink:href="#DejaVuSans-69" transform="translate(132.421875 0)"/>
     <use xlink:href="#DejaVuSans-6e" transform="translate(160.205078 0)"/>
     <use xlink:href="#DejaVuSans-67" transform="translate(223.583984 0)"/>
     <use xlink:href="#DejaVuSans-74" transform="translate(287.060547 0)"/>
     <use xlink:href="#DejaVuSans-65" transform="translate(326.269531 0)"/>
     <use xlink:href="#DejaVuSans-6d" transform="translate(387.792969 0)"/>
     <use xlink:href="#DejaVuSans-70" transform="translate(485.205078 0)"/>
     <use xlink:href="#DejaVuSans-6c" transform="translate(548.681641 0)"/>
     <use xlink:href="#DejaVuSans-61" transform="translate(576.464844 0)"/>
     <use xlink:href="#DejaVuSans-74" transform="translate(637.744141 0)"/>
     <use xlink:href="#DejaVuSans-65" transform="translate(676.953125 0)"/>
    </g>
   </g>
   <g id="text_25">
    <!-- thymeleaf -->
    <g style="fill: #17becf" transform="translate(390.9225 80.246028) scale(0.08 -0.08)">
     <use xlink:href="#DejaVuSans-74"/>
     <use xlink:href="#DejaVuSans-68" transform="translate(39.208984 0)"/>
     <use xlink:href="#DejaVuSans-79" transform="translate(102.587891 0)"/>
     <use xlink:href="#DejaVuSans-6d" transform="translate(161.767578 0)"/>
     <use xlink:href="#DejaVuSans-65" transform="translate(259.179688 0)"/>
     <use xlink:href="#DejaVuSans-6c" transform="translate(320.703125 0)"/>
     <use xlink:href="#DejaVuSans-65" transform="translate(348.486328 0)"/>
     <use xlink:href="#DejaVuSans-61" transform="translate(410.009766 0)"/>
     <use xlink:href="#DejaVuSans-66" transform="translate(471.289062 0)"/>
    </g>
   </g>
   <g id="text_26">
    <!-- jangod -->
    <g style="fill: #2ca02c" transform="translate(390.9225 66.459937) scale(0.08 -0.08)">
     <use xlink:href="#DejaVuSans-6a"/>
     <use xlink:href="#DejaVuSans-61" transform="translate(27.783203 0)"/>
     <use xlink:href="#DejaVuSans-6e" transform="translate(89.0625 0)"/>
     <use xlink:href="#DejaVuSans-67" transform="translate(152.441406 0)"/>
     <use xlink:href="#DejaVuSans-6f" transform="translate(215.917969 0)"/>
     <use xlink:href="#DejaVuSans-64" transform="translate(277.099609 0)"/>
    </g>
   </g>
   <g id="text_27">
    <!-- jte -->
    <g style="fill: #d62728" transform="translate(390.9225 30.114786) scale(0.08 -0.08)">
     <use xlink:href="#DejaVuSans-6a"/>
     <use xlink:href="#DejaVuSans-74" transform="translate(27.783203 0)"/>
     <use xlink:href="#DejaVuSans-65" transform="translate(66.992188 0)"/>
    </g>
   </g>
  </g>
 </g>
 <defs>
  <clipPath id="p4663437247">
   <rect x="50.565625" y="10.8" width="334.356875" height="293.64375"/>
  </clipPath>
 </defs>
</svg>
