<?xml version="1.0" encoding="us-ascii" standalone="no"?><svg xmlns="http://www.w3.org/2000/svg" xmlns:xlink="http://www.w3.org/1999/xlink" contentStyleType="text/css" height="557px" preserveAspectRatio="none" style="width:268px;height:557px;background:#FFFFFF;" version="1.1" viewBox="0 0 268 557" width="268px" zoomAndPan="magnify"><defs/><g><line style="stroke:#181818;stroke-width:0.5;stroke-dasharray:5.0,5.0;" x1="30" x2="30" y1="36.2969" y2="522.4219"/><line style="stroke:#181818;stroke-width:0.5;stroke-dasharray:5.0,5.0;" x1="122" x2="122" y1="36.2969" y2="522.4219"/><line style="stroke:#181818;stroke-width:0.5;stroke-dasharray:5.0,5.0;" x1="181" x2="181" y1="36.2969" y2="522.4219"/><line style="stroke:#181818;stroke-width:0.5;stroke-dasharray:5.0,5.0;" x1="240" x2="240" y1="36.2969" y2="522.4219"/><rect fill="#E2E2F0" height="30.2969" rx="2.5" ry="2.5" style="stroke:#181818;stroke-width:0.5;" width="51" x="5" y="5"/><text fill="#000000" font-family="sans-serif" font-size="14" lengthAdjust="spacing" textLength="37" x="12" y="24.9951">CTRL</text><rect fill="#E2E2F0" height="30.2969" rx="2.5" ry="2.5" style="stroke:#181818;stroke-width:0.5;" width="51" x="5" y="521.4219"/><text fill="#000000" font-family="sans-serif" font-size="14" lengthAdjust="spacing" textLength="37" x="12" y="541.417">CTRL</text><rect fill="#E2E2F0" height="30.2969" rx="2.5" ry="2.5" style="stroke:#181818;stroke-width:0.5;" width="43" x="101" y="5"/><text fill="#000000" font-family="sans-serif" font-size="14" lengthAdjust="spacing" textLength="29" x="108" y="24.9951">DUT</text><rect fill="#E2E2F0" height="30.2969" rx="2.5" ry="2.5" style="stroke:#181818;stroke-width:0.5;" width="43" x="101" y="521.4219"/><text fill="#000000" font-family="sans-serif" font-size="14" lengthAdjust="spacing" textLength="29" x="108" y="541.417">DUT</text><rect fill="#E2E2F0" height="30.2969" rx="2.5" ry="2.5" style="stroke:#181818;stroke-width:0.5;" width="54" x="154" y="5"/><text fill="#000000" font-family="sans-serif" font-size="14" lengthAdjust="spacing" textLength="40" x="161" y="24.9951">LOAD</text><rect fill="#E2E2F0" height="30.2969" rx="2.5" ry="2.5" style="stroke:#181818;stroke-width:0.5;" width="54" x="154" y="521.4219"/><text fill="#000000" font-family="sans-serif" font-size="14" lengthAdjust="spacing" textLength="40" x="161" y="541.417">LOAD</text><rect fill="#E2E2F0" height="30.2969" rx="2.5" ry="2.5" style="stroke:#181818;stroke-width:0.5;" width="44" x="218" y="5"/><text fill="#000000" font-family="sans-serif" font-size="14" lengthAdjust="spacing" textLength="30" x="225" y="24.9951">LOG</text><rect fill="#E2E2F0" height="30.2969" rx="2.5" ry="2.5" style="stroke:#181818;stroke-width:0.5;" width="44" x="218" y="521.4219"/><text fill="#000000" font-family="sans-serif" font-size="14" lengthAdjust="spacing" textLength="30" x="225" y="541.417">LOG</text><polygon fill="#181818" points="228,63.4297,238,67.4297,228,71.4297,232,67.4297" style="stroke:#181818;stroke-width:1.0;"/><line style="stroke:#181818;stroke-width:1.0;" x1="30.5" x2="234" y1="67.4297" y2="67.4297"/><text fill="#000000" font-family="sans-serif" font-size="13" lengthAdjust="spacing" textLength="37" x="37.5" y="62.3638">Setup</text><polygon fill="#181818" points="110.5,92.5625,120.5,96.5625,110.5,100.5625,114.5,96.5625" style="stroke:#181818;stroke-width:1.0;"/><line style="stroke:#181818;stroke-width:1.0;" x1="30.5" x2="116.5" y1="96.5625" y2="96.5625"/><text fill="#000000" font-family="sans-serif" font-size="13" lengthAdjust="spacing" textLength="55" x="37.5" y="91.4966">Warmup</text><polygon fill="#181818" points="169,121.6953,179,125.6953,169,129.6953,173,125.6953" style="stroke:#181818;stroke-width:1.0;"/><line style="stroke:#181818;stroke-width:1.0;" x1="30.5" x2="175" y1="125.6953" y2="125.6953"/><text fill="#000000" font-family="sans-serif" font-size="13" lengthAdjust="spacing" textLength="55" x="37.5" y="120.6294">Warmup</text><polygon fill="#181818" points="41.5,150.8281,31.5,154.8281,41.5,158.8281,37.5,154.8281" style="stroke:#181818;stroke-width:1.0;"/><line style="stroke:#181818;stroke-width:1.0;" x1="35.5" x2="180" y1="154.8281" y2="154.8281"/><text fill="#000000" font-family="sans-serif" font-size="13" lengthAdjust="spacing" textLength="77" x="47.5" y="149.7622">LOAD ready</text><polygon fill="#181818" points="41.5,179.9609,31.5,183.9609,41.5,187.9609,37.5,183.9609" style="stroke:#181818;stroke-width:1.0;"/><line style="stroke:#181818;stroke-width:1.0;" x1="35.5" x2="121.5" y1="183.9609" y2="183.9609"/><text fill="#000000" font-family="sans-serif" font-size="13" lengthAdjust="spacing" textLength="68" x="47.5" y="178.895">DUT ready</text><polygon fill="#181818" points="228,209.0938,238,213.0938,228,217.0938,232,213.0938" style="stroke:#181818;stroke-width:1.0;"/><line style="stroke:#181818;stroke-width:1.0;" x1="30.5" x2="234" y1="213.0938" y2="213.0938"/><text fill="#000000" font-family="sans-serif" font-size="13" lengthAdjust="spacing" textLength="87" x="37.5" y="208.0278">Baseline start</text><line style="stroke:#181818;stroke-width:1.0;" x1="238" x2="228" y1="242.2266" y2="238.2266"/><line style="stroke:#181818;stroke-width:1.0;" x1="238" x2="228" y1="242.2266" y2="246.2266"/><line style="stroke:#181818;stroke-width:1.0;stroke-dasharray:2.0,2.0;" x1="30.5" x2="239" y1="242.2266" y2="242.2266"/><text fill="#000000" font-family="sans-serif" font-size="13" lengthAdjust="spacing" textLength="59" x="37.5" y="237.1606">Readings</text><polygon fill="#181818" points="228,267.3594,238,271.3594,228,275.3594,232,271.3594" style="stroke:#181818;stroke-width:1.0;"/><line style="stroke:#181818;stroke-width:1.0;" x1="30.5" x2="234" y1="271.3594" y2="271.3594"/><text fill="#000000" font-family="sans-serif" font-size="13" lengthAdjust="spacing" textLength="85" x="37.5" y="266.2935">Baseline stop</text><polygon fill="#181818" points="228,296.4922,238,300.4922,228,304.4922,232,300.4922" style="stroke:#181818;stroke-width:1.0;"/><line style="stroke:#181818;stroke-width:1.0;" x1="30.5" x2="234" y1="300.4922" y2="300.4922"/><text fill="#000000" font-family="sans-serif" font-size="13" lengthAdjust="spacing" textLength="63" x="37.5" y="295.4263">Main start</text><polygon fill="#181818" points="169,325.625,179,329.625,169,333.625,173,329.625" style="stroke:#181818;stroke-width:1.0;"/><line style="stroke:#181818;stroke-width:1.0;" x1="30.5" x2="175" y1="329.625" y2="329.625"/><text fill="#000000" font-family="sans-serif" font-size="13" lengthAdjust="spacing" textLength="56" x="37.5" y="324.5591">Run load</text><line style="stroke:#181818;stroke-width:1.0;" x1="238" x2="228" y1="358.7578" y2="354.7578"/><line style="stroke:#181818;stroke-width:1.0;" x1="238" x2="228" y1="358.7578" y2="362.7578"/><line style="stroke:#181818;stroke-width:1.0;stroke-dasharray:2.0,2.0;" x1="30.5" x2="239" y1="358.7578" y2="358.7578"/><text fill="#000000" font-family="sans-serif" font-size="13" lengthAdjust="spacing" textLength="59" x="37.5" y="353.6919">Readings</text><polygon fill="#181818" points="41.5,383.8906,31.5,387.8906,41.5,391.8906,37.5,387.8906" style="stroke:#181818;stroke-width:1.0;"/><line style="stroke:#181818;stroke-width:1.0;" x1="35.5" x2="180" y1="387.8906" y2="387.8906"/><text fill="#000000" font-family="sans-serif" font-size="13" lengthAdjust="spacing" textLength="100" x="47.5" y="382.8247">LOAD complete</text><polygon fill="#181818" points="228,413.0234,238,417.0234,228,421.0234,232,417.0234" style="stroke:#181818;stroke-width:1.0;"/><line style="stroke:#181818;stroke-width:1.0;" x1="30.5" x2="234" y1="417.0234" y2="417.0234"/><text fill="#000000" font-family="sans-serif" font-size="13" lengthAdjust="spacing" textLength="61" x="37.5" y="411.9575">Main stop</text><polygon fill="#181818" points="228,442.1563,238,446.1563,228,450.1563,232,446.1563" style="stroke:#181818;stroke-width:1.0;"/><line style="stroke:#181818;stroke-width:1.0;" x1="30.5" x2="234" y1="446.1563" y2="446.1563"/><text fill="#000000" font-family="sans-serif" font-size="13" lengthAdjust="spacing" textLength="66" x="37.5" y="441.0903">Terminate</text><polygon fill="#181818" points="110.5,471.2891,120.5,475.2891,110.5,479.2891,114.5,475.2891" style="stroke:#181818;stroke-width:1.0;"/><line style="stroke:#181818;stroke-width:1.0;" x1="30.5" x2="116.5" y1="475.2891" y2="475.2891"/><text fill="#000000" font-family="sans-serif" font-size="13" lengthAdjust="spacing" textLength="63" x="37.5" y="470.2231">Cooldown</text><polygon fill="#181818" points="169,500.4219,179,504.4219,169,508.4219,173,504.4219" style="stroke:#181818;stroke-width:1.0;"/><line style="stroke:#181818;stroke-width:1.0;" x1="30.5" x2="175" y1="504.4219" y2="504.4219"/><text fill="#000000" font-family="sans-serif" font-size="13" lengthAdjust="spacing" textLength="63" x="37.5" y="499.356">Cooldown</text><!--SRC=[TP1D2eCm48NtEKKku0LS2Ar2DvQ2jNGzcA44uYJ4IEdjcsZzItNvlfStRoO6h9EDD42EvtLLChC2nQFUwF9sAY9mOIp4U985mLD-HzURcVa9dZt1jYiOnYnqK9uERZgQ5a5yM0WlHb0ZtnQUeKCb2Ndd_6O_Cyack_8HIQ_kEALDv5r1qcRQl7BL4rSQn77BtZMDRer2X_irV_KrsbOIhDwFlvXhhOH-KxpKnBy0]--></g></svg>