<?xml version="1.0" encoding="UTF-8" standalone="no"?><!DOCTYPE svg PUBLIC "-//W3C//DTD SVG 1.1//EN" "http://www.w3.org/Graphics/SVG/1.1/DTD/svg11.dtd"><!-- Generated by graphviz version 2.40.1 (20161225.0304)
 --><!-- Title: finite_state_machine Pages: 1 --><svg xmlns="http://www.w3.org/2000/svg" xmlns:xlink="http://www.w3.org/1999/xlink" width="410pt" height="780pt" viewBox="0.00 0.00 409.77 779.73">
<g id="graph0" class="graph" transform="scale(1 1) rotate(0) translate(4 775.7263)">
<title>finite_state_machine</title>
<polygon fill="#ffffff" stroke="transparent" points="-4,4 -4,-775.7263 405.7691,-775.7263 405.7691,4 -4,4"/>
<!-- ENTRY -->
<g id="node1" class="node">
<title>ENTRY</title>
<ellipse fill="#000000" stroke="#000000" cx="154.3777" cy="-769.9263" rx="1.8" ry="1.8"/>
</g>
<!-- OUTSIDE -->
<g id="node3" class="node">
<title>OUTSIDE</title>
<ellipse fill="none" stroke="#000000" cx="154.3777" cy="-662.9938" rx="52.1655" ry="52.1655"/>
<text text-anchor="middle" x="154.3777" y="-658.7938" font-family="Times,serif" font-size="14.00" fill="#000000">OUTSIDE</text>
</g>
<!-- ENTRY&#45;&gt;OUTSIDE -->
<g id="edge1" class="edge">
<title>ENTRY-&gt;OUTSIDE</title>
<path fill="none" stroke="#000000" d="M154.3777,-768.0702C154.3777,-762.4495 154.3777,-744.8139 154.3777,-725.5563"/>
<polygon fill="#000000" stroke="#000000" points="157.8778,-725.3929 154.3777,-715.393 150.8778,-725.393 157.8778,-725.3929"/>
<text text-anchor="middle" x="191.897" y="-737.5263" font-family="Times,serif" font-size="14.00" fill="#000000"> Initialization</text>
</g>
<!-- EXIT -->
<g id="node2" class="node">
<title>EXIT</title>
<ellipse fill="#000000" stroke="#000000" cx="7.3777" cy="-519.4715" rx="1.8" ry="1.8"/>
</g>
<!-- OUTSIDE&#45;&gt;EXIT -->
<g id="edge9" class="edge">
<title>OUTSIDE-&gt;EXIT</title>
<path fill="none" stroke="#000000" d="M102.9858,-652.8979C69.6734,-643.4108 28.7333,-625.5418 7.8861,-592.6613 -4.0211,-573.8809 .1135,-546.5752 3.922,-531.1759"/>
<polygon fill="#000000" stroke="#000000" points="7.3077,-532.066 6.6852,-521.4895 .5762,-530.1458 7.3077,-532.066"/>
<text text-anchor="middle" x="41.6235" y="-580.0613" font-family="Times,serif" font-size="14.00" fill="#000000"> End of File</text>
</g>
<!-- OUTSIDE&#45;&gt;OUTSIDE -->
<g id="edge3" class="edge">
<title>OUTSIDE-&gt;OUTSIDE</title>
<path fill="none" stroke="#000000" d="M204.9558,-677.2617C216.3651,-675.9763 224.7102,-671.2203 224.7102,-662.9938 224.7102,-657.4665 220.9431,-653.506 215.0106,-651.1121"/>
<polygon fill="#000000" stroke="#000000" points="215.4938,-647.6296 204.9558,-648.7258 213.8773,-654.4405 215.4938,-647.6296"/>
<text text-anchor="middle" x="282.0388" y="-658.7938" font-family="Times,serif" font-size="14.00" fill="#000000"> Any other character</text>
</g>
<!-- OUTSIDEESC -->
<g id="node4" class="node">
<title>OUTSIDEESC</title>
<ellipse fill="none" stroke="#000000" cx="131.3777" cy="-372.9716" rx="55.1207" ry="55.1207"/>
<text text-anchor="middle" x="131.3777" y="-377.1716" font-family="Times,serif" font-size="14.00" fill="#000000">OUTSIDE</text>
<text text-anchor="middle" x="131.3777" y="-360.3716" font-family="Times,serif" font-size="14.00" fill="#000000">ESCAPED</text>
</g>
<!-- OUTSIDE&#45;&gt;OUTSIDEESC -->
<g id="edge4" class="edge">
<title>OUTSIDE-&gt;OUTSIDEESC</title>
<path fill="none" stroke="#000000" d="M126.0975,-618.7922C116.2054,-600.6708 106.4552,-579.0109 101.9871,-557.8613 93.4208,-517.3125 100.6798,-471.2874 110.1245,-435.3014"/>
<polygon fill="#000000" stroke="#000000" points="113.562,-436.0004 112.835,-425.4306 106.8119,-434.1468 113.562,-436.0004"/>
<text text-anchor="middle" x="106.073" y="-515.2715" font-family="Times,serif" font-size="14.00" fill="#000000"> \</text>
</g>
<!-- PILOT -->
<g id="node5" class="node">
<title>PILOT</title>
<ellipse fill="none" stroke="#000000" cx="270.3777" cy="-519.4715" rx="38.2799" ry="38.2799"/>
<text text-anchor="middle" x="270.3777" y="-515.2715" font-family="Times,serif" font-size="14.00" fill="#000000">PILOT</text>
</g>
<!-- OUTSIDE&#45;&gt;PILOT -->
<g id="edge2" class="edge">
<title>OUTSIDE-&gt;PILOT</title>
<path fill="none" stroke="#000000" d="M159.7274,-610.4944C163.0402,-598.0825 168.2875,-585.6315 176.5565,-575.8613 189.3662,-560.7261 200.1811,-567.7322 217.3777,-557.8613 222.1198,-555.1393 226.952,-552.084 231.6728,-548.917"/>
<polygon fill="#000000" stroke="#000000" points="233.7796,-551.7153 240.0065,-543.1434 229.7932,-545.9613 233.7796,-551.7153"/>
<text text-anchor="middle" x="182.7883" y="-580.0613" font-family="Times,serif" font-size="14.00" fill="#000000"> ¬</text>
</g>
<!-- OUTSIDEESC&#45;&gt;OUTSIDE -->
<g id="edge5" class="edge">
<title>OUTSIDEESC-&gt;OUTSIDE</title>
<path fill="none" stroke="#000000" d="M133.1783,-428.4673C134.6376,-465.2261 137.1019,-514.4821 140.9863,-557.8613 142.2343,-571.7971 143.9224,-586.7302 145.6791,-600.8384"/>
<polygon fill="#000000" stroke="#000000" points="142.2301,-601.4617 146.9651,-610.9396 149.1741,-600.5776 142.2301,-601.4617"/>
<text text-anchor="middle" x="182.5734" y="-515.2715" font-family="Times,serif" font-size="14.00" fill="#000000"> Any character</text>
</g>
<!-- PILOT&#45;&gt;OUTSIDE -->
<g id="edge8" class="edge">
<title>PILOT-&gt;OUTSIDE</title>
<path fill="none" stroke="#000000" d="M242.7968,-546.2053C233.8412,-555.33 224.0681,-565.7801 215.7205,-575.8613 206.7009,-586.754 197.5981,-598.911 189.266,-610.6058"/>
<polygon fill="#000000" stroke="#000000" points="186.2408,-608.823 183.3474,-619.0151 191.9652,-612.8519 186.2408,-608.823"/>
<text text-anchor="middle" x="272.7063" y="-580.0613" font-family="Times,serif" font-size="14.00" fill="#000000"> Any other character</text>
</g>
<!-- PILOT&#45;&gt;OUTSIDEESC -->
<g id="edge6" class="edge">
<title>PILOT-&gt;OUTSIDEESC</title>
<path fill="none" stroke="#000000" d="M243.9057,-491.5711C224.9283,-471.5698 198.8944,-444.1311 176.6469,-420.6833"/>
<polygon fill="#000000" stroke="#000000" points="178.9925,-418.0704 169.5706,-413.2251 173.9145,-422.8885 178.9925,-418.0704"/>
<text text-anchor="middle" x="216.073" y="-450.4816" font-family="Times,serif" font-size="14.00" fill="#000000"> \</text>
</g>
<!-- INSIDE -->
<g id="node6" class="node">
<title>INSIDE</title>
<ellipse fill="none" stroke="#000000" cx="319.3777" cy="-372.9716" rx="42.8538" ry="42.8538"/>
<text text-anchor="middle" x="319.3777" y="-368.7716" font-family="Times,serif" font-size="14.00" fill="#000000">INSIDE</text>
</g>
<!-- PILOT&#45;&gt;INSIDE -->
<g id="edge7" class="edge">
<title>PILOT-&gt;INSIDE</title>
<path fill="none" stroke="#000000" d="M282.6161,-482.8813C288.6543,-464.8284 296.0312,-442.7729 302.5878,-423.1699"/>
<polygon fill="#000000" stroke="#000000" points="305.9776,-424.0692 305.8304,-413.4754 299.3391,-421.8487 305.9776,-424.0692"/>
<text text-anchor="middle" x="298.487" y="-450.4816" font-family="Times,serif" font-size="14.00" fill="#000000"> {</text>
</g>
<!-- INSIDE&#45;&gt;OUTSIDE -->
<g id="edge10" class="edge">
<title>INSIDE-&gt;OUTSIDE</title>
<path fill="none" stroke="#000000" d="M334.7291,-412.9111C350.0849,-460.1338 366.6757,-539.0671 330.3777,-592.6613 305.0322,-630.0841 256.2157,-647.5963 216.4122,-655.7903"/>
<polygon fill="#000000" stroke="#000000" points="215.674,-652.368 206.5067,-657.6793 216.9853,-659.244 215.674,-652.368"/>
<text text-anchor="middle" x="356.487" y="-515.2715" font-family="Times,serif" font-size="14.00" fill="#000000"> }</text>
</g>
<!-- QUOTED -->
<g id="node7" class="node">
<title>QUOTED</title>
<ellipse fill="none" stroke="#000000" cx="319.3777" cy="-214.1408" rx="50.9425" ry="50.9425"/>
<text text-anchor="middle" x="319.3777" y="-209.9408" font-family="Times,serif" font-size="14.00" fill="#000000">QUOTED</text>
</g>
<!-- INSIDE&#45;&gt;QUOTED -->
<g id="edge11" class="edge">
<title>INSIDE-&gt;QUOTED</title>
<path fill="none" stroke="#000000" d="M307.5774,-331.8421C304.4655,-316.5212 302.4081,-298.9484 304.1671,-282.8616 304.5017,-279.802 304.9177,-276.6793 305.3958,-273.5354"/>
<polygon fill="#000000" stroke="#000000" points="308.8806,-273.9202 307.1107,-263.4742 301.9801,-272.7439 308.8806,-273.9202"/>
<text text-anchor="middle" x="307.983" y="-287.0616" font-family="Times,serif" font-size="14.00" fill="#000000"> "</text>
</g>
<!-- QUOTED&#45;&gt;INSIDE -->
<g id="edge12" class="edge">
<title>QUOTED-&gt;INSIDE</title>
<path fill="none" stroke="#000000" d="M319.3777,-265.0564C319.3777,-282.5527 319.3777,-302.1768 319.3777,-319.8443"/>
<polygon fill="#000000" stroke="#000000" points="315.8778,-319.9897 319.3777,-329.9897 322.8778,-319.9897 315.8778,-319.9897"/>
<text text-anchor="middle" x="323.983" y="-287.0616" font-family="Times,serif" font-size="14.00" fill="#000000"> "</text>
</g>
<!-- QUOTEDESC -->
<g id="node8" class="node">
<title>QUOTEDESC</title>
<ellipse fill="none" stroke="#000000" cx="319.3777" cy="-55.31" rx="55.1207" ry="55.1207"/>
<text text-anchor="middle" x="319.3777" y="-59.51" font-family="Times,serif" font-size="14.00" fill="#000000">QUOTED</text>
<text text-anchor="middle" x="319.3777" y="-42.71" font-family="Times,serif" font-size="14.00" fill="#000000">ESCAPED</text>
</g>
<!-- QUOTED&#45;&gt;QUOTEDESC -->
<g id="edge13" class="edge">
<title>QUOTED-&gt;QUOTEDESC</title>
<path fill="none" stroke="#000000" d="M309.326,-164.3624C308.3609,-158.0102 307.5379,-151.5783 306.9871,-145.4201 306.239,-137.0545 306.3366,-128.2753 306.9608,-119.6156"/>
<polygon fill="#000000" stroke="#000000" points="310.4568,-119.8223 307.9163,-109.5366 303.488,-119.1616 310.4568,-119.8223"/>
<text text-anchor="middle" x="310.073" y="-132.8201" font-family="Times,serif" font-size="14.00" fill="#000000"> \</text>
</g>
<!-- QUOTEDESC&#45;&gt;QUOTED -->
<g id="edge14" class="edge">
<title>QUOTEDESC-&gt;QUOTED</title>
<path fill="none" stroke="#000000" d="M319.3777,-110.7359C319.3777,-124.2721 319.3777,-138.8346 319.3777,-152.6357"/>
<polygon fill="#000000" stroke="#000000" points="315.8778,-153.0115 319.3777,-163.0115 322.8778,-153.0115 315.8778,-153.0115"/>
<text text-anchor="middle" x="360.5734" y="-132.8201" font-family="Times,serif" font-size="14.00" fill="#000000"> Any character</text>
</g>
</g>
</svg>