<?xml version="1.0" encoding="utf-8" standalone="no"?>
<!DOCTYPE svg PUBLIC "-//W3C//DTD SVG 1.1//EN"
  "http://www.w3.org/Graphics/SVG/1.1/DTD/svg11.dtd">
<svg xmlns:xlink="http://www.w3.org/1999/xlink" width="460.8pt" height="345.6pt" viewBox="0 0 460.8 345.6" xmlns="http://www.w3.org/2000/svg" version="1.1">
 <metadata>
  <rdf:RDF xmlns:dc="http://purl.org/dc/elements/1.1/" xmlns:cc="http://creativecommons.org/ns#" xmlns:rdf="http://www.w3.org/1999/02/22-rdf-syntax-ns#">
   <cc:Work>
    <dc:type rdf:resource="http://purl.org/dc/dcmitype/StillImage"/>
    <dc:date>2025-04-17T20:43:29.217129</dc:date>
    <dc:format>image/svg+xml</dc:format>
    <dc:creator>
     <cc:Agent>
      <dc:title>Matplotlib v3.10.1, https://matplotlib.org/</dc:title>
     </cc:Agent>
    </dc:creator>
   </cc:Work>
  </rdf:RDF>
 </metadata>
 <defs>
  <style type="text/css">*{stroke-linejoin: round; stroke-linecap: butt}</style>
 </defs>
 <g id="figure_1">
  <g id="patch_1">
   <path d="M 0 345.6 
L 460.8 345.6 
L 460.8 0 
L 0 0 
z
" style="fill: #ffffff"/>
  </g>
  <g id="axes_1">
   <g id="patch_2">
    <path d="M 56.928125 304.44375 
L 384.9225 304.44375 
L 384.9225 10.8 
L 56.928125 10.8 
z
" style="fill: #ffffff"/>
   </g>
   <g id="matplotlib.axis_1">
    <g id="xtick_1">
     <g id="line2d_1">
      <defs>
       <path id="m7764c4f6b6" d="M 0 0 
L 0 3.5 
" style="stroke: #000000; stroke-width: 0.8"/>
      </defs>
      <g>
       <use xlink:href="#m7764c4f6b6" x="71.80714" y="304.44375" style="stroke: #000000; stroke-width: 0.8"/>
      </g>
     </g>
     <g id="text_1">
      <!-- 0 -->
      <g transform="translate(68.62589 319.042187) scale(0.1 -0.1)">
       <defs>
        <path id="DejaVuSans-30" d="M 2034 4250 
Q 1547 4250 1301 3770 
Q 1056 3291 1056 2328 
Q 1056 1369 1301 889 
Q 1547 409 2034 409 
Q 2525 409 2770 889 
Q 3016 1369 3016 2328 
Q 3016 3291 2770 3770 
Q 2525 4250 2034 4250 
z
M 2034 4750 
Q 2819 4750 3233 4129 
Q 3647 3509 3647 2328 
Q 3647 1150 3233 529 
Q 2819 -91 2034 -91 
Q 1250 -91 836 529 
Q 422 1150 422 2328 
Q 422 3509 836 4129 
Q 1250 4750 2034 4750 
z
" transform="scale(0.015625)"/>
       </defs>
       <use xlink:href="#DejaVuSans-30"/>
      </g>
     </g>
    </g>
    <g id="xtick_2">
     <g id="line2d_2">
      <g>
       <use xlink:href="#m7764c4f6b6" x="131.448445" y="304.44375" style="stroke: #000000; stroke-width: 0.8"/>
      </g>
     </g>
     <g id="text_2">
      <!-- 2000 -->
      <g transform="translate(118.723445 319.042187) scale(0.1 -0.1)">
       <defs>
        <path id="DejaVuSans-32" d="M 1228 531 
L 3431 531 
L 3431 0 
L 469 0 
L 469 531 
Q 828 903 1448 1529 
Q 2069 2156 2228 2338 
Q 2531 2678 2651 2914 
Q 2772 3150 2772 3378 
Q 2772 3750 2511 3984 
Q 2250 4219 1831 4219 
Q 1534 4219 1204 4116 
Q 875 4013 500 3803 
L 500 4441 
Q 881 4594 1212 4672 
Q 1544 4750 1819 4750 
Q 2544 4750 2975 4387 
Q 3406 4025 3406 3419 
Q 3406 3131 3298 2873 
Q 3191 2616 2906 2266 
Q 2828 2175 2409 1742 
Q 1991 1309 1228 531 
z
" transform="scale(0.015625)"/>
       </defs>
       <use xlink:href="#DejaVuSans-32"/>
       <use xlink:href="#DejaVuSans-30" transform="translate(63.623047 0)"/>
       <use xlink:href="#DejaVuSans-30" transform="translate(127.246094 0)"/>
       <use xlink:href="#DejaVuSans-30" transform="translate(190.869141 0)"/>
      </g>
     </g>
    </g>
    <g id="xtick_3">
     <g id="line2d_3">
      <g>
       <use xlink:href="#m7764c4f6b6" x="191.08975" y="304.44375" style="stroke: #000000; stroke-width: 0.8"/>
      </g>
     </g>
     <g id="text_3">
      <!-- 4000 -->
      <g transform="translate(178.36475 319.042187) scale(0.1 -0.1)">
       <defs>
        <path id="DejaVuSans-34" d="M 2419 4116 
L 825 1625 
L 2419 1625 
L 2419 4116 
z
M 2253 4666 
L 3047 4666 
L 3047 1625 
L 3713 1625 
L 3713 1100 
L 3047 1100 
L 3047 0 
L 2419 0 
L 2419 1100 
L 313 1100 
L 313 1709 
L 2253 4666 
z
" transform="scale(0.015625)"/>
       </defs>
       <use xlink:href="#DejaVuSans-34"/>
       <use xlink:href="#DejaVuSans-30" transform="translate(63.623047 0)"/>
       <use xlink:href="#DejaVuSans-30" transform="translate(127.246094 0)"/>
       <use xlink:href="#DejaVuSans-30" transform="translate(190.869141 0)"/>
      </g>
     </g>
    </g>
    <g id="xtick_4">
     <g id="line2d_4">
      <g>
       <use xlink:href="#m7764c4f6b6" x="250.731055" y="304.44375" style="stroke: #000000; stroke-width: 0.8"/>
      </g>
     </g>
     <g id="text_4">
      <!-- 6000 -->
      <g transform="translate(238.006055 319.042187) scale(0.1 -0.1)">
       <defs>
        <path id="DejaVuSans-36" d="M 2113 2584 
Q 1688 2584 1439 2293 
Q 1191 2003 1191 1497 
Q 1191 994 1439 701 
Q 1688 409 2113 409 
Q 2538 409 2786 701 
Q 3034 994 3034 1497 
Q 3034 2003 2786 2293 
Q 2538 2584 2113 2584 
z
M 3366 4563 
L 3366 3988 
Q 3128 4100 2886 4159 
Q 2644 4219 2406 4219 
Q 1781 4219 1451 3797 
Q 1122 3375 1075 2522 
Q 1259 2794 1537 2939 
Q 1816 3084 2150 3084 
Q 2853 3084 3261 2657 
Q 3669 2231 3669 1497 
Q 3669 778 3244 343 
Q 2819 -91 2113 -91 
Q 1303 -91 875 529 
Q 447 1150 447 2328 
Q 447 3434 972 4092 
Q 1497 4750 2381 4750 
Q 2619 4750 2861 4703 
Q 3103 4656 3366 4563 
z
" transform="scale(0.015625)"/>
       </defs>
       <use xlink:href="#DejaVuSans-36"/>
       <use xlink:href="#DejaVuSans-30" transform="translate(63.623047 0)"/>
       <use xlink:href="#DejaVuSans-30" transform="translate(127.246094 0)"/>
       <use xlink:href="#DejaVuSans-30" transform="translate(190.869141 0)"/>
      </g>
     </g>
    </g>
    <g id="xtick_5">
     <g id="line2d_5">
      <g>
       <use xlink:href="#m7764c4f6b6" x="310.37236" y="304.44375" style="stroke: #000000; stroke-width: 0.8"/>
      </g>
     </g>
     <g id="text_5">
      <!-- 8000 -->
      <g transform="translate(297.64736 319.042187) scale(0.1 -0.1)">
       <defs>
        <path id="DejaVuSans-38" d="M 2034 2216 
Q 1584 2216 1326 1975 
Q 1069 1734 1069 1313 
Q 1069 891 1326 650 
Q 1584 409 2034 409 
Q 2484 409 2743 651 
Q 3003 894 3003 1313 
Q 3003 1734 2745 1975 
Q 2488 2216 2034 2216 
z
M 1403 2484 
Q 997 2584 770 2862 
Q 544 3141 544 3541 
Q 544 4100 942 4425 
Q 1341 4750 2034 4750 
Q 2731 4750 3128 4425 
Q 3525 4100 3525 3541 
Q 3525 3141 3298 2862 
Q 3072 2584 2669 2484 
Q 3125 2378 3379 2068 
Q 3634 1759 3634 1313 
Q 3634 634 3220 271 
Q 2806 -91 2034 -91 
Q 1263 -91 848 271 
Q 434 634 434 1313 
Q 434 1759 690 2068 
Q 947 2378 1403 2484 
z
M 1172 3481 
Q 1172 3119 1398 2916 
Q 1625 2713 2034 2713 
Q 2441 2713 2670 2916 
Q 2900 3119 2900 3481 
Q 2900 3844 2670 4047 
Q 2441 4250 2034 4250 
Q 1625 4250 1398 4047 
Q 1172 3844 1172 3481 
z
" transform="scale(0.015625)"/>
       </defs>
       <use xlink:href="#DejaVuSans-38"/>
       <use xlink:href="#DejaVuSans-30" transform="translate(63.623047 0)"/>
       <use xlink:href="#DejaVuSans-30" transform="translate(127.246094 0)"/>
       <use xlink:href="#DejaVuSans-30" transform="translate(190.869141 0)"/>
      </g>
     </g>
    </g>
    <g id="xtick_6">
     <g id="line2d_6">
      <g>
       <use xlink:href="#m7764c4f6b6" x="370.013665" y="304.44375" style="stroke: #000000; stroke-width: 0.8"/>
      </g>
     </g>
     <g id="text_6">
      <!-- 10000 -->
      <g transform="translate(354.107415 319.042187) scale(0.1 -0.1)">
       <defs>
        <path id="DejaVuSans-31" d="M 794 531 
L 1825 531 
L 1825 4091 
L 703 3866 
L 703 4441 
L 1819 4666 
L 2450 4666 
L 2450 531 
L 3481 531 
L 3481 0 
L 794 0 
L 794 531 
z
" transform="scale(0.015625)"/>
       </defs>
       <use xlink:href="#DejaVuSans-31"/>
       <use xlink:href="#DejaVuSans-30" transform="translate(63.623047 0)"/>
       <use xlink:href="#DejaVuSans-30" transform="translate(127.246094 0)"/>
       <use xlink:href="#DejaVuSans-30" transform="translate(190.869141 0)"/>
       <use xlink:href="#DejaVuSans-30" transform="translate(254.492188 0)"/>
      </g>
     </g>
    </g>
    <g id="text_7">
     <!-- n runs -->
     <g transform="translate(205.169844 332.720312) scale(0.1 -0.1)">
      <defs>
       <path id="DejaVuSans-6e" d="M 3513 2113 
L 3513 0 
L 2938 0 
L 2938 2094 
Q 2938 2591 2744 2837 
Q 2550 3084 2163 3084 
Q 1697 3084 1428 2787 
Q 1159 2491 1159 1978 
L 1159 0 
L 581 0 
L 581 3500 
L 1159 3500 
L 1159 2956 
Q 1366 3272 1645 3428 
Q 1925 3584 2291 3584 
Q 2894 3584 3203 3211 
Q 3513 2838 3513 2113 
z
" transform="scale(0.015625)"/>
       <path id="DejaVuSans-20" transform="scale(0.015625)"/>
       <path id="DejaVuSans-72" d="M 2631 2963 
Q 2534 3019 2420 3045 
Q 2306 3072 2169 3072 
Q 1681 3072 1420 2755 
Q 1159 2438 1159 1844 
L 1159 0 
L 581 0 
L 581 3500 
L 1159 3500 
L 1159 2956 
Q 1341 3275 1631 3429 
Q 1922 3584 2338 3584 
Q 2397 3584 2469 3576 
Q 2541 3569 2628 3553 
L 2631 2963 
z
" transform="scale(0.015625)"/>
       <path id="DejaVuSans-75" d="M 544 1381 
L 544 3500 
L 1119 3500 
L 1119 1403 
Q 1119 906 1312 657 
Q 1506 409 1894 409 
Q 2359 409 2629 706 
Q 2900 1003 2900 1516 
L 2900 3500 
L 3475 3500 
L 3475 0 
L 2900 0 
L 2900 538 
Q 2691 219 2414 64 
Q 2138 -91 1772 -91 
Q 1169 -91 856 284 
Q 544 659 544 1381 
z
M 1991 3584 
L 1991 3584 
z
" transform="scale(0.015625)"/>
       <path id="DejaVuSans-73" d="M 2834 3397 
L 2834 2853 
Q 2591 2978 2328 3040 
Q 2066 3103 1784 3103 
Q 1356 3103 1142 2972 
Q 928 2841 928 2578 
Q 928 2378 1081 2264 
Q 1234 2150 1697 2047 
L 1894 2003 
Q 2506 1872 2764 1633 
Q 3022 1394 3022 966 
Q 3022 478 2636 193 
Q 2250 -91 1575 -91 
Q 1294 -91 989 -36 
Q 684 19 347 128 
L 347 722 
Q 666 556 975 473 
Q 1284 391 1588 391 
Q 1994 391 2212 530 
Q 2431 669 2431 922 
Q 2431 1156 2273 1281 
Q 2116 1406 1581 1522 
L 1381 1569 
Q 847 1681 609 1914 
Q 372 2147 372 2553 
Q 372 3047 722 3315 
Q 1072 3584 1716 3584 
Q 2034 3584 2315 3537 
Q 2597 3491 2834 3397 
z
" transform="scale(0.015625)"/>
      </defs>
      <use xlink:href="#DejaVuSans-6e"/>
      <use xlink:href="#DejaVuSans-20" transform="translate(63.378906 0)"/>
      <use xlink:href="#DejaVuSans-72" transform="translate(95.166016 0)"/>
      <use xlink:href="#DejaVuSans-75" transform="translate(136.279297 0)"/>
      <use xlink:href="#DejaVuSans-6e" transform="translate(199.658203 0)"/>
      <use xlink:href="#DejaVuSans-73" transform="translate(263.037109 0)"/>
     </g>
    </g>
   </g>
   <g id="matplotlib.axis_2">
    <g id="ytick_1">
     <g id="line2d_7">
      <defs>
       <path id="m2accb6e9b2" d="M 0 0 
L -3.5 0 
" style="stroke: #000000; stroke-width: 0.8"/>
      </defs>
      <g>
       <use xlink:href="#m2accb6e9b2" x="56.928125" y="292.480305" style="stroke: #000000; stroke-width: 0.8"/>
      </g>
     </g>
     <g id="text_8">
      <!-- 0 -->
      <g transform="translate(43.565625 296.279524) scale(0.1 -0.1)">
       <use xlink:href="#DejaVuSans-30"/>
      </g>
     </g>
    </g>
    <g id="ytick_2">
     <g id="line2d_8">
      <g>
       <use xlink:href="#m2accb6e9b2" x="56.928125" y="251.774471" style="stroke: #000000; stroke-width: 0.8"/>
      </g>
     </g>
     <g id="text_9">
      <!-- 1000 -->
      <g transform="translate(24.478125 255.573689) scale(0.1 -0.1)">
       <use xlink:href="#DejaVuSans-31"/>
       <use xlink:href="#DejaVuSans-30" transform="translate(63.623047 0)"/>
       <use xlink:href="#DejaVuSans-30" transform="translate(127.246094 0)"/>
       <use xlink:href="#DejaVuSans-30" transform="translate(190.869141 0)"/>
      </g>
     </g>
    </g>
    <g id="ytick_3">
     <g id="line2d_9">
      <g>
       <use xlink:href="#m2accb6e9b2" x="56.928125" y="211.068636" style="stroke: #000000; stroke-width: 0.8"/>
      </g>
     </g>
     <g id="text_10">
      <!-- 2000 -->
      <g transform="translate(24.478125 214.867855) scale(0.1 -0.1)">
       <use xlink:href="#DejaVuSans-32"/>
       <use xlink:href="#DejaVuSans-30" transform="translate(63.623047 0)"/>
       <use xlink:href="#DejaVuSans-30" transform="translate(127.246094 0)"/>
       <use xlink:href="#DejaVuSans-30" transform="translate(190.869141 0)"/>
      </g>
     </g>
    </g>
    <g id="ytick_4">
     <g id="line2d_10">
      <g>
       <use xlink:href="#m2accb6e9b2" x="56.928125" y="170.362801" style="stroke: #000000; stroke-width: 0.8"/>
      </g>
     </g>
     <g id="text_11">
      <!-- 3000 -->
      <g transform="translate(24.478125 174.16202) scale(0.1 -0.1)">
       <defs>
        <path id="DejaVuSans-33" d="M 2597 2516 
Q 3050 2419 3304 2112 
Q 3559 1806 3559 1356 
Q 3559 666 3084 287 
Q 2609 -91 1734 -91 
Q 1441 -91 1130 -33 
Q 819 25 488 141 
L 488 750 
Q 750 597 1062 519 
Q 1375 441 1716 441 
Q 2309 441 2620 675 
Q 2931 909 2931 1356 
Q 2931 1769 2642 2001 
Q 2353 2234 1838 2234 
L 1294 2234 
L 1294 2753 
L 1863 2753 
Q 2328 2753 2575 2939 
Q 2822 3125 2822 3475 
Q 2822 3834 2567 4026 
Q 2313 4219 1838 4219 
Q 1578 4219 1281 4162 
Q 984 4106 628 3988 
L 628 4550 
Q 988 4650 1302 4700 
Q 1616 4750 1894 4750 
Q 2613 4750 3031 4423 
Q 3450 4097 3450 3541 
Q 3450 3153 3228 2886 
Q 3006 2619 2597 2516 
z
" transform="scale(0.015625)"/>
       </defs>
       <use xlink:href="#DejaVuSans-33"/>
       <use xlink:href="#DejaVuSans-30" transform="translate(63.623047 0)"/>
       <use xlink:href="#DejaVuSans-30" transform="translate(127.246094 0)"/>
       <use xlink:href="#DejaVuSans-30" transform="translate(190.869141 0)"/>
      </g>
     </g>
    </g>
    <g id="ytick_5">
     <g id="line2d_11">
      <g>
       <use xlink:href="#m2accb6e9b2" x="56.928125" y="129.656967" style="stroke: #000000; stroke-width: 0.8"/>
      </g>
     </g>
     <g id="text_12">
      <!-- 4000 -->
      <g transform="translate(24.478125 133.456185) scale(0.1 -0.1)">
       <use xlink:href="#DejaVuSans-34"/>
       <use xlink:href="#DejaVuSans-30" transform="translate(63.623047 0)"/>
       <use xlink:href="#DejaVuSans-30" transform="translate(127.246094 0)"/>
       <use xlink:href="#DejaVuSans-30" transform="translate(190.869141 0)"/>
      </g>
     </g>
    </g>
    <g id="ytick_6">
     <g id="line2d_12">
      <g>
       <use xlink:href="#m2accb6e9b2" x="56.928125" y="88.951132" style="stroke: #000000; stroke-width: 0.8"/>
      </g>
     </g>
     <g id="text_13">
      <!-- 5000 -->
      <g transform="translate(24.478125 92.750351) scale(0.1 -0.1)">
       <defs>
        <path id="DejaVuSans-35" d="M 691 4666 
L 3169 4666 
L 3169 4134 
L 1269 4134 
L 1269 2991 
Q 1406 3038 1543 3061 
Q 1681 3084 1819 3084 
Q 2600 3084 3056 2656 
Q 3513 2228 3513 1497 
Q 3513 744 3044 326 
Q 2575 -91 1722 -91 
Q 1428 -91 1123 -41 
Q 819 9 494 109 
L 494 744 
Q 775 591 1075 516 
Q 1375 441 1709 441 
Q 2250 441 2565 725 
Q 2881 1009 2881 1497 
Q 2881 1984 2565 2268 
Q 2250 2553 1709 2553 
Q 1456 2553 1204 2497 
Q 953 2441 691 2322 
L 691 4666 
z
" transform="scale(0.015625)"/>
       </defs>
       <use xlink:href="#DejaVuSans-35"/>
       <use xlink:href="#DejaVuSans-30" transform="translate(63.623047 0)"/>
       <use xlink:href="#DejaVuSans-30" transform="translate(127.246094 0)"/>
       <use xlink:href="#DejaVuSans-30" transform="translate(190.869141 0)"/>
      </g>
     </g>
    </g>
    <g id="ytick_7">
     <g id="line2d_13">
      <g>
       <use xlink:href="#m2accb6e9b2" x="56.928125" y="48.245297" style="stroke: #000000; stroke-width: 0.8"/>
      </g>
     </g>
     <g id="text_14">
      <!-- 6000 -->
      <g transform="translate(24.478125 52.044516) scale(0.1 -0.1)">
       <use xlink:href="#DejaVuSans-36"/>
       <use xlink:href="#DejaVuSans-30" transform="translate(63.623047 0)"/>
       <use xlink:href="#DejaVuSans-30" transform="translate(127.246094 0)"/>
       <use xlink:href="#DejaVuSans-30" transform="translate(190.869141 0)"/>
      </g>
     </g>
    </g>
    <g id="text_15">
     <!-- time (ms) -->
     <g transform="translate(18.398438 181.883594) rotate(-90) scale(0.1 -0.1)">
      <defs>
       <path id="DejaVuSans-74" d="M 1172 4494 
L 1172 3500 
L 2356 3500 
L 2356 3053 
L 1172 3053 
L 1172 1153 
Q 1172 725 1289 603 
Q 1406 481 1766 481 
L 2356 481 
L 2356 0 
L 1766 0 
Q 1100 0 847 248 
Q 594 497 594 1153 
L 594 3053 
L 172 3053 
L 172 3500 
L 594 3500 
L 594 4494 
L 1172 4494 
z
" transform="scale(0.015625)"/>
       <path id="DejaVuSans-69" d="M 603 3500 
L 1178 3500 
L 1178 0 
L 603 0 
L 603 3500 
z
M 603 4863 
L 1178 4863 
L 1178 4134 
L 603 4134 
L 603 4863 
z
" transform="scale(0.015625)"/>
       <path id="DejaVuSans-6d" d="M 3328 2828 
Q 3544 3216 3844 3400 
Q 4144 3584 4550 3584 
Q 5097 3584 5394 3201 
Q 5691 2819 5691 2113 
L 5691 0 
L 5113 0 
L 5113 2094 
Q 5113 2597 4934 2840 
Q 4756 3084 4391 3084 
Q 3944 3084 3684 2787 
Q 3425 2491 3425 1978 
L 3425 0 
L 2847 0 
L 2847 2094 
Q 2847 2600 2669 2842 
Q 2491 3084 2119 3084 
Q 1678 3084 1418 2786 
Q 1159 2488 1159 1978 
L 1159 0 
L 581 0 
L 581 3500 
L 1159 3500 
L 1159 2956 
Q 1356 3278 1631 3431 
Q 1906 3584 2284 3584 
Q 2666 3584 2933 3390 
Q 3200 3197 3328 2828 
z
" transform="scale(0.015625)"/>
       <path id="DejaVuSans-65" d="M 3597 1894 
L 3597 1613 
L 953 1613 
Q 991 1019 1311 708 
Q 1631 397 2203 397 
Q 2534 397 2845 478 
Q 3156 559 3463 722 
L 3463 178 
Q 3153 47 2828 -22 
Q 2503 -91 2169 -91 
Q 1331 -91 842 396 
Q 353 884 353 1716 
Q 353 2575 817 3079 
Q 1281 3584 2069 3584 
Q 2775 3584 3186 3129 
Q 3597 2675 3597 1894 
z
M 3022 2063 
Q 3016 2534 2758 2815 
Q 2500 3097 2075 3097 
Q 1594 3097 1305 2825 
Q 1016 2553 972 2059 
L 3022 2063 
z
" transform="scale(0.015625)"/>
       <path id="DejaVuSans-28" d="M 1984 4856 
Q 1566 4138 1362 3434 
Q 1159 2731 1159 2009 
Q 1159 1288 1364 580 
Q 1569 -128 1984 -844 
L 1484 -844 
Q 1016 -109 783 600 
Q 550 1309 550 2009 
Q 550 2706 781 3412 
Q 1013 4119 1484 4856 
L 1984 4856 
z
" transform="scale(0.015625)"/>
       <path id="DejaVuSans-29" d="M 513 4856 
L 1013 4856 
Q 1481 4119 1714 3412 
Q 1947 2706 1947 2009 
Q 1947 1309 1714 600 
Q 1481 -109 1013 -844 
L 513 -844 
Q 928 -128 1133 580 
Q 1338 1288 1338 2009 
Q 1338 2731 1133 3434 
Q 928 4138 513 4856 
z
" transform="scale(0.015625)"/>
      </defs>
      <use xlink:href="#DejaVuSans-74"/>
      <use xlink:href="#DejaVuSans-69" transform="translate(39.208984 0)"/>
      <use xlink:href="#DejaVuSans-6d" transform="translate(66.992188 0)"/>
      <use xlink:href="#DejaVuSans-65" transform="translate(164.404297 0)"/>
      <use xlink:href="#DejaVuSans-20" transform="translate(225.927734 0)"/>
      <use xlink:href="#DejaVuSans-28" transform="translate(257.714844 0)"/>
      <use xlink:href="#DejaVuSans-6d" transform="translate(296.728516 0)"/>
      <use xlink:href="#DejaVuSans-73" transform="translate(394.140625 0)"/>
      <use xlink:href="#DejaVuSans-29" transform="translate(446.240234 0)"/>
     </g>
    </g>
   </g>
   <g id="line2d_14">
    <path d="M 71.83696 267.975393 
L 72.105346 272.00527 
L 72.403553 271.679624 
L 72.701759 271.435389 
L 72.999966 271.272565 
L 73.298172 270.865507 
L 73.596379 270.784095 
L 73.894585 270.621272 
L 74.192792 270.458449 
L 74.490998 270.336331 
L 74.789205 270.173508 
L 77.77127 268.708098 
L 80.753335 267.364805 
L 83.735401 265.858689 
L 86.717466 264.393279 
L 89.699531 263.497751 
L 92.681596 262.317282 
L 95.663662 260.973989 
L 98.645727 260.078461 
L 101.627792 258.694462 
L 131.448445 246.971182 
L 161.269097 236.428371 
L 191.08975 226.37403 
L 220.910402 218.517804 
L 250.731055 213.836633 
L 280.551707 208.911227 
L 310.37236 202.886763 
L 340.193012 193.605833 
L 370.013665 194.827008 
" clip-path="url(#pe71fda07eb)" style="fill: none; stroke: #1f77b4; stroke-width: 1.5; stroke-linecap: square"/>
   </g>
   <g id="line2d_15">
    <path d="M 71.83696 289.79372 
L 72.105346 289.875132 
L 72.403553 289.264544 
L 72.701759 289.142427 
L 72.999966 289.020309 
L 73.298172 288.898192 
L 73.596379 288.776074 
L 73.894585 288.572545 
L 74.192792 288.450428 
L 74.490998 288.287604 
L 74.789205 288.165487 
L 77.77127 286.781488 
L 80.753335 285.234667 
L 83.735401 283.769257 
L 86.717466 282.222435 
L 89.699531 281.449024 
L 92.681596 280.51279 
L 95.663662 278.151851 
L 98.645727 277.58197 
L 101.627792 276.849265 
L 131.448445 269.644332 
L 161.269097 262.561517 
L 191.08975 256.170701 
L 220.910402 247.86671 
L 250.731055 244.121774 
L 280.551707 241.598012 
L 310.37236 236.428371 
L 340.193012 231.787906 
L 370.013665 227.147441 
" clip-path="url(#pe71fda07eb)" style="fill: none; stroke: #ff7f0e; stroke-width: 1.5; stroke-linecap: square"/>
   </g>
   <g id="line2d_16">
    <path d="M 71.83696 285.234667 
L 72.105346 284.298432 
L 72.403553 283.321492 
L 72.701759 282.263141 
L 72.999966 281.245495 
L 73.298172 280.065026 
L 73.596379 279.250909 
L 73.894585 278.396086 
L 74.192792 277.541264 
L 74.490998 276.523618 
L 74.789205 275.709501 
L 77.77127 268.138216 
L 80.753335 261.462459 
L 83.735401 254.745996 
L 86.717466 249.53565 
L 89.699531 246.4013 
L 92.681596 243.022716 
L 95.663662 239.969778 
L 98.645727 237.364605 
L 101.627792 234.026727 
L 131.448445 198.042769 
L 161.269097 168.246098 
L 191.08975 138.449427 
L 220.910402 117.038158 
L 250.731055 99.941707 
L 280.551707 91.963364 
L 310.37236 90.457248 
L 340.193012 72.017505 
L 370.013665 64.364808 
" clip-path="url(#pe71fda07eb)" style="fill: none; stroke: #2ca02c; stroke-width: 1.5; stroke-linecap: square"/>
   </g>
   <g id="line2d_17">
    <path d="M 71.83696 286.089489 
L 72.105346 286.252312 
L 72.403553 285.601019 
L 72.701759 284.90902 
L 72.999966 284.298432 
L 73.298172 283.728551 
L 73.596379 283.240081 
L 73.894585 282.548082 
L 74.192792 282.181729 
L 74.490998 281.408318 
L 74.789205 281.082671 
L 77.77127 276.523618 
L 80.753335 272.534446 
L 83.735401 268.545274 
L 86.717466 264.596808 
L 89.699531 261.055401 
L 92.681596 257.310464 
L 95.663662 253.484116 
L 98.645727 249.779885 
L 101.627792 246.564124 
L 131.448445 213.755221 
L 161.269097 183.95855 
L 191.08975 156.929876 
L 220.910402 134.785902 
L 250.731055 114.229455 
L 280.551707 90.905012 
L 310.37236 70.470683 
L 340.193012 50.484118 
L 370.013665 24.147443 
" clip-path="url(#pe71fda07eb)" style="fill: none; stroke: #d62728; stroke-width: 1.5; stroke-linecap: square"/>
   </g>
   <g id="line2d_18">
    <path d="M 71.83696 288.979603 
L 72.105346 288.938898 
L 72.403553 288.450428 
L 72.701759 288.32831 
L 72.999966 288.165487 
L 73.298172 288.043369 
L 73.596379 287.961958 
L 73.894585 287.83984 
L 74.192792 287.717723 
L 74.490998 287.677017 
L 74.789205 287.554899 
L 77.77127 286.496548 
L 80.753335 285.601019 
L 83.735401 284.664785 
L 86.717466 283.525022 
L 89.699531 282.833022 
L 92.681596 282.263141 
L 95.663662 281.449024 
L 98.645727 280.716319 
L 101.627792 280.105731 
L 131.448445 275.383855 
L 161.269097 271.476095 
L 191.08975 267.649746 
L 220.910402 263.986221 
L 250.731055 261.381048 
L 280.551707 258.775874 
L 310.37236 256.659171 
L 340.193012 255.030937 
L 370.013665 252.46647 
" clip-path="url(#pe71fda07eb)" style="fill: none; stroke: #9467bd; stroke-width: 1.5; stroke-linecap: square"/>
   </g>
   <g id="line2d_19">
    <path d="M 71.83696 39.249308 
L 72.105346 74.256326 
L 72.403553 72.302446 
L 72.701759 74.297031 
L 72.999966 73.075856 
L 73.298172 72.505975 
L 73.596379 71.813976 
L 73.894585 72.424563 
L 74.192792 72.424563 
L 74.490998 73.23868 
L 74.789205 71.813976 
L 77.77127 72.383857 
L 80.753335 72.994445 
L 83.735401 70.470683 
L 86.717466 70.674212 
L 89.699531 65.301042 
L 92.681596 69.290214 
L 95.663662 69.045979 
L 98.645727 68.35398 
L 101.627792 68.191156 
L 131.448445 62.451634 
L 161.269097 58.910226 
L 191.08975 54.554702 
L 220.910402 49.10012 
L 250.731055 47.512592 
L 280.551707 39.534249 
L 310.37236 38.882955 
L 340.193012 34.24249 
L 370.013665 33.794726 
" clip-path="url(#pe71fda07eb)" style="fill: none; stroke: #8c564b; stroke-width: 1.5; stroke-linecap: square"/>
   </g>
   <g id="line2d_20">
    <path d="M 71.83696 290.974189 
L 72.105346 290.404308 
L 72.403553 290.160073 
L 72.701759 289.997249 
L 72.999966 289.915838 
L 73.298172 289.79372 
L 73.596379 289.712308 
L 73.894585 289.590191 
L 74.192792 289.468073 
L 74.490998 289.386662 
L 74.789205 289.264544 
L 77.77127 288.084075 
L 80.753335 287.025723 
L 83.735401 285.763842 
L 86.717466 284.786902 
L 89.699531 283.565727 
L 92.681596 282.670199 
L 95.663662 281.937494 
L 98.645727 281.00126 
L 101.627792 279.902202 
L 131.448445 272.819387 
L 161.269097 267.690452 
L 191.08975 263.782692 
L 220.910402 261.014695 
L 250.731055 257.758228 
L 280.551707 256.537053 
L 310.37236 254.176115 
L 340.193012 252.588587 
L 370.013665 250.594001 
" clip-path="url(#pe71fda07eb)" style="fill: none; stroke: #e377c2; stroke-width: 1.5; stroke-linecap: square"/>
   </g>
   <g id="line2d_21">
    <path d="M 71.83696 285.193961 
L 72.105346 285.478902 
L 72.403553 284.90902 
L 72.701759 284.746197 
L 72.999966 284.746197 
L 73.298172 284.664785 
L 73.596379 284.501962 
L 73.894585 284.298432 
L 74.192792 284.176315 
L 74.490998 284.217021 
L 74.789205 284.135609 
L 77.77127 283.117963 
L 80.753335 282.100317 
L 83.735401 281.286201 
L 86.717466 280.227849 
L 89.699531 279.291615 
L 92.681596 278.396086 
L 95.663662 277.704087 
L 98.645727 276.727147 
L 101.627792 275.709501 
L 131.448445 268.341745 
L 161.269097 261.991635 
L 191.08975 256.292818 
L 220.910402 250.716119 
L 250.731055 244.93589 
L 280.551707 241.150248 
L 310.37236 238.707898 
L 340.193012 235.899195 
L 370.013665 233.497551 
" clip-path="url(#pe71fda07eb)" style="fill: none; stroke: #7f7f7f; stroke-width: 1.5; stroke-linecap: square"/>
   </g>
   <g id="line2d_22">
    <path d="M 71.83696 284.217021 
L 72.105346 284.094903 
L 72.403553 283.606433 
L 72.701759 283.484316 
L 72.999966 283.44361 
L 73.298172 283.321492 
L 73.596379 283.158669 
L 73.894585 283.199375 
L 74.192792 283.036552 
L 74.490998 282.95514 
L 74.789205 282.914434 
L 77.77127 281.937494 
L 80.753335 281.123377 
L 83.735401 280.309261 
L 86.717466 279.53585 
L 89.699531 278.599616 
L 92.681596 277.58197 
L 95.663662 276.971382 
L 98.645727 276.035148 
L 101.627792 275.13962 
L 131.448445 269.115156 
L 161.269097 264.271162 
L 191.08975 259.142227 
L 220.910402 255.112349 
L 250.731055 251.611647 
L 280.551707 247.58177 
L 310.37236 243.592598 
L 340.193012 240.661778 
L 370.013665 238.707898 
" clip-path="url(#pe71fda07eb)" style="fill: none; stroke: #bcbd22; stroke-width: 1.5; stroke-linecap: square"/>
   </g>
   <g id="line2d_23">
    <path d="M 71.83696 291.096307 
L 72.105346 291.096307 
L 72.403553 290.77066 
L 72.701759 290.648543 
L 72.999966 290.526425 
L 73.298172 290.28219 
L 73.596379 290.160073 
L 73.894585 290.037955 
L 74.192792 289.875132 
L 74.490998 289.753014 
L 74.789205 289.590191 
L 77.77127 288.002663 
L 80.753335 286.781488 
L 83.735401 285.356784 
L 86.717466 284.217021 
L 89.699531 282.792317 
L 92.681596 281.530436 
L 95.663662 280.431378 
L 98.645727 279.454438 
L 101.627792 278.07044 
L 131.448445 268.667392 
L 161.269097 261.177518 
L 191.08975 253.44341 
L 220.910402 247.011888 
L 250.731055 240.906013 
L 280.551707 234.108138 
L 310.37236 229.30485 
L 340.193012 227.83944 
L 370.013665 224.745796 
" clip-path="url(#pe71fda07eb)" style="fill: none; stroke: #17becf; stroke-width: 1.5; stroke-linecap: square"/>
   </g>
   <g id="line2d_24">
    <path d="M 71.83696 273.796327 
L 72.105346 280.349966 
L 72.403553 279.53585 
L 72.701759 279.04738 
L 72.999966 278.843851 
L 73.298172 278.436792 
L 73.596379 278.192557 
L 73.894585 277.866911 
L 74.192792 277.541264 
L 74.490998 277.0935 
L 74.789205 276.930676 
L 77.77127 273.47068 
L 80.753335 269.359391 
L 83.735401 267.242688 
L 86.717466 264.596808 
L 89.699531 262.113753 
L 92.681596 259.630697 
L 95.663662 256.496347 
L 98.645727 254.827408 
L 101.627792 252.873528 
L 131.448445 234.881549 
L 161.269097 223.890974 
L 191.08975 211.842047 
L 220.910402 201.747 
L 250.731055 194.21642 
L 280.551707 186.319488 
L 310.37236 174.433385 
L 340.193012 168.042569 
L 370.013665 161.244694 
" clip-path="url(#pe71fda07eb)" style="fill: none; stroke: #1f77b4; stroke-width: 1.5; stroke-linecap: square"/>
   </g>
   <g id="line2d_25">
    <path d="M 71.83696 198.81618 
L 72.105346 212.98181 
L 72.403553 212.00487 
L 72.701759 211.679223 
L 72.999966 212.249105 
L 73.298172 209.236873 
L 73.596379 210.091696 
L 73.894585 209.440403 
L 74.192792 209.114756 
L 74.490998 208.748403 
L 74.789205 208.137816 
L 77.77127 204.514997 
L 80.753335 201.747 
L 83.735401 197.83924 
L 86.717466 195.88536 
L 89.699531 194.21642 
L 92.681596 191.855482 
L 95.663662 189.575955 
L 98.645727 187.540663 
L 101.627792 182.045376 
L 131.448445 163.117163 
L 161.269097 142.397893 
L 191.08975 119.765449 
L 220.910402 101.162882 
L 250.731055 85.45043 
L 280.551707 76.250912 
L 310.37236 65.138219 
L 340.193012 57.485522 
L 370.013665 48.082474 
" clip-path="url(#pe71fda07eb)" style="fill: none; stroke: #ff7f0e; stroke-width: 1.5; stroke-linecap: square"/>
   </g>
   <g id="line2d_26">
    <path d="M 71.83696 290.892778 
L 72.105346 290.77066 
L 72.403553 290.160073 
L 72.701759 290.037955 
L 72.999966 289.997249 
L 73.298172 289.875132 
L 73.596379 289.79372 
L 73.894585 289.671603 
L 74.192792 289.630897 
L 74.490998 289.549485 
L 74.789205 289.468073 
L 77.77127 288.735368 
L 80.753335 287.921252 
L 83.735401 287.229253 
L 86.717466 286.537253 
L 89.699531 285.926666 
L 92.681596 285.193961 
L 95.663662 284.501962 
L 98.645727 283.891374 
L 101.627792 283.321492 
L 131.448445 278.192557 
L 161.269097 273.267151 
L 191.08975 268.667392 
L 220.910402 264.18975 
L 250.731055 260.404107 
L 280.551707 256.659171 
L 310.37236 254.990231 
L 340.193012 251.896588 
L 370.013665 252.059411 
" clip-path="url(#pe71fda07eb)" style="fill: none; stroke: #2ca02c; stroke-width: 1.5; stroke-linecap: square"/>
   </g>
   <g id="line2d_27">
    <path d="M 71.83696 289.101721 
L 72.105346 288.409722 
L 72.403553 287.35137 
L 72.701759 286.618665 
L 72.999966 285.967372 
L 73.298172 285.316078 
L 73.596379 284.583373 
L 73.894585 283.809962 
L 74.192792 283.158669 
L 74.490998 282.670199 
L 74.789205 282.018906 
L 77.77127 274.406915 
L 80.753335 269.440803 
L 83.735401 264.393279 
L 86.717466 260.037755 
L 89.699531 253.402704 
L 92.681596 249.617061 
L 95.663662 244.976596 
L 98.645727 240.743189 
L 101.627792 236.387665 
L 131.448445 196.455241 
L 161.269097 165.559513 
L 191.08975 133.686844 
L 220.910402 116.42757 
L 250.731055 98.517003 
L 280.551707 83.49655 
L 310.37236 66.19657 
L 340.193012 58.258933 
L 370.013665 41.691658 
" clip-path="url(#pe71fda07eb)" style="fill: none; stroke: #d62728; stroke-width: 1.5; stroke-linecap: square"/>
   </g>
   <g id="patch_3">
    <path d="M 56.928125 304.44375 
L 56.928125 10.8 
" style="fill: none; stroke: #000000; stroke-width: 0.8; stroke-linejoin: miter; stroke-linecap: square"/>
   </g>
   <g id="patch_4">
    <path d="M 384.9225 304.44375 
L 384.9225 10.8 
" style="fill: none; stroke: #000000; stroke-width: 0.8; stroke-linejoin: miter; stroke-linecap: square"/>
   </g>
   <g id="patch_5">
    <path d="M 56.928125 304.44375 
L 384.9225 304.44375 
" style="fill: none; stroke: #000000; stroke-width: 0.8; stroke-linejoin: miter; stroke-linecap: square"/>
   </g>
   <g id="patch_6">
    <path d="M 56.928125 10.8 
L 384.9225 10.8 
" style="fill: none; stroke: #000000; stroke-width: 0.8; stroke-linejoin: miter; stroke-linecap: square"/>
   </g>
   <g id="text_16">
    <!-- jmte -->
    <g style="fill: #9467bd" transform="translate(390.9225 256.749967) scale(0.08 -0.08)">
     <defs>
      <path id="DejaVuSans-6a" d="M 603 3500 
L 1178 3500 
L 1178 -63 
Q 1178 -731 923 -1031 
Q 669 -1331 103 -1331 
L -116 -1331 
L -116 -844 
L 38 -844 
Q 366 -844 484 -692 
Q 603 -541 603 -63 
L 603 3500 
z
M 603 4863 
L 1178 4863 
L 1178 4134 
L 603 4134 
L 603 4863 
z
" transform="scale(0.015625)"/>
     </defs>
     <use xlink:href="#DejaVuSans-6a"/>
     <use xlink:href="#DejaVuSans-6d" transform="translate(27.783203 0)"/>
     <use xlink:href="#DejaVuSans-74" transform="translate(125.195312 0)"/>
     <use xlink:href="#DejaVuSans-65" transform="translate(164.404297 0)"/>
    </g>
   </g>
   <g id="text_17">
    <!-- trimou -->
    <g style="fill: #2ca02c" transform="translate(390.9225 254.266911) scale(0.08 -0.08)">
     <defs>
      <path id="DejaVuSans-6f" d="M 1959 3097 
Q 1497 3097 1228 2736 
Q 959 2375 959 1747 
Q 959 1119 1226 758 
Q 1494 397 1959 397 
Q 2419 397 2687 759 
Q 2956 1122 2956 1747 
Q 2956 2369 2687 2733 
Q 2419 3097 1959 3097 
z
M 1959 3584 
Q 2709 3584 3137 3096 
Q 3566 2609 3566 1747 
Q 3566 888 3137 398 
Q 2709 -91 1959 -91 
Q 1206 -91 779 398 
Q 353 888 353 1747 
Q 353 2609 779 3096 
Q 1206 3584 1959 3584 
z
" transform="scale(0.015625)"/>
     </defs>
     <use xlink:href="#DejaVuSans-74"/>
     <use xlink:href="#DejaVuSans-72" transform="translate(39.208984 0)"/>
     <use xlink:href="#DejaVuSans-69" transform="translate(80.322266 0)"/>
     <use xlink:href="#DejaVuSans-6d" transform="translate(108.105469 0)"/>
     <use xlink:href="#DejaVuSans-6f" transform="translate(205.517578 0)"/>
     <use xlink:href="#DejaVuSans-75" transform="translate(266.699219 0)"/>
    </g>
   </g>
   <g id="text_18">
    <!-- mustachej -->
    <g style="fill: #e377c2" transform="translate(390.9225 250.725504) scale(0.08 -0.08)">
     <defs>
      <path id="DejaVuSans-61" d="M 2194 1759 
Q 1497 1759 1228 1600 
Q 959 1441 959 1056 
Q 959 750 1161 570 
Q 1363 391 1709 391 
Q 2188 391 2477 730 
Q 2766 1069 2766 1631 
L 2766 1759 
L 2194 1759 
z
M 3341 1997 
L 3341 0 
L 2766 0 
L 2766 531 
Q 2569 213 2275 61 
Q 1981 -91 1556 -91 
Q 1019 -91 701 211 
Q 384 513 384 1019 
Q 384 1609 779 1909 
Q 1175 2209 1959 2209 
L 2766 2209 
L 2766 2266 
Q 2766 2663 2505 2880 
Q 2244 3097 1772 3097 
Q 1472 3097 1187 3025 
Q 903 2953 641 2809 
L 641 3341 
Q 956 3463 1253 3523 
Q 1550 3584 1831 3584 
Q 2591 3584 2966 3190 
Q 3341 2797 3341 1997 
z
" transform="scale(0.015625)"/>
      <path id="DejaVuSans-63" d="M 3122 3366 
L 3122 2828 
Q 2878 2963 2633 3030 
Q 2388 3097 2138 3097 
Q 1578 3097 1268 2742 
Q 959 2388 959 1747 
Q 959 1106 1268 751 
Q 1578 397 2138 397 
Q 2388 397 2633 464 
Q 2878 531 3122 666 
L 3122 134 
Q 2881 22 2623 -34 
Q 2366 -91 2075 -91 
Q 1284 -91 818 406 
Q 353 903 353 1747 
Q 353 2603 823 3093 
Q 1294 3584 2113 3584 
Q 2378 3584 2631 3529 
Q 2884 3475 3122 3366 
z
" transform="scale(0.015625)"/>
      <path id="DejaVuSans-68" d="M 3513 2113 
L 3513 0 
L 2938 0 
L 2938 2094 
Q 2938 2591 2744 2837 
Q 2550 3084 2163 3084 
Q 1697 3084 1428 2787 
Q 1159 2491 1159 1978 
L 1159 0 
L 581 0 
L 581 4863 
L 1159 4863 
L 1159 2956 
Q 1366 3272 1645 3428 
Q 1925 3584 2291 3584 
Q 2894 3584 3203 3211 
Q 3513 2838 3513 2113 
z
" transform="scale(0.015625)"/>
     </defs>
     <use xlink:href="#DejaVuSans-6d"/>
     <use xlink:href="#DejaVuSans-75" transform="translate(97.412109 0)"/>
     <use xlink:href="#DejaVuSans-73" transform="translate(160.791016 0)"/>
     <use xlink:href="#DejaVuSans-74" transform="translate(212.890625 0)"/>
     <use xlink:href="#DejaVuSans-61" transform="translate(252.099609 0)"/>
     <use xlink:href="#DejaVuSans-63" transform="translate(313.378906 0)"/>
     <use xlink:href="#DejaVuSans-68" transform="translate(368.359375 0)"/>
     <use xlink:href="#DejaVuSans-65" transform="translate(431.738281 0)"/>
     <use xlink:href="#DejaVuSans-6a" transform="translate(493.261719 0)"/>
    </g>
   </g>
   <g id="text_19">
    <!-- solomon -->
    <g style="fill: #bcbd22" transform="translate(390.9225 242.991395) scale(0.08 -0.08)">
     <defs>
      <path id="DejaVuSans-6c" d="M 603 4863 
L 1178 4863 
L 1178 0 
L 603 0 
L 603 4863 
z
" transform="scale(0.015625)"/>
     </defs>
     <use xlink:href="#DejaVuSans-73"/>
     <use xlink:href="#DejaVuSans-6f" transform="translate(52.099609 0)"/>
     <use xlink:href="#DejaVuSans-6c" transform="translate(113.28125 0)"/>
     <use xlink:href="#DejaVuSans-6f" transform="translate(141.064453 0)"/>
     <use xlink:href="#DejaVuSans-6d" transform="translate(202.246094 0)"/>
     <use xlink:href="#DejaVuSans-6f" transform="translate(299.658203 0)"/>
     <use xlink:href="#DejaVuSans-6e" transform="translate(360.839844 0)"/>
    </g>
   </g>
   <g id="text_20">
    <!-- pebble -->
    <g style="fill: #7f7f7f" transform="translate(390.9225 237.048343) scale(0.08 -0.08)">
     <defs>
      <path id="DejaVuSans-70" d="M 1159 525 
L 1159 -1331 
L 581 -1331 
L 581 3500 
L 1159 3500 
L 1159 2969 
Q 1341 3281 1617 3432 
Q 1894 3584 2278 3584 
Q 2916 3584 3314 3078 
Q 3713 2572 3713 1747 
Q 3713 922 3314 415 
Q 2916 -91 2278 -91 
Q 1894 -91 1617 61 
Q 1341 213 1159 525 
z
M 3116 1747 
Q 3116 2381 2855 2742 
Q 2594 3103 2138 3103 
Q 1681 3103 1420 2742 
Q 1159 2381 1159 1747 
Q 1159 1113 1420 752 
Q 1681 391 2138 391 
Q 2594 391 2855 752 
Q 3116 1113 3116 1747 
z
" transform="scale(0.015625)"/>
      <path id="DejaVuSans-62" d="M 3116 1747 
Q 3116 2381 2855 2742 
Q 2594 3103 2138 3103 
Q 1681 3103 1420 2742 
Q 1159 2381 1159 1747 
Q 1159 1113 1420 752 
Q 1681 391 2138 391 
Q 2594 391 2855 752 
Q 3116 1113 3116 1747 
z
M 1159 2969 
Q 1341 3281 1617 3432 
Q 1894 3584 2278 3584 
Q 2916 3584 3314 3078 
Q 3713 2572 3713 1747 
Q 3713 922 3314 415 
Q 2916 -91 2278 -91 
Q 1894 -91 1617 61 
Q 1341 213 1159 525 
L 1159 0 
L 581 0 
L 581 4863 
L 1159 4863 
L 1159 2969 
z
" transform="scale(0.015625)"/>
     </defs>
     <use xlink:href="#DejaVuSans-70"/>
     <use xlink:href="#DejaVuSans-65" transform="translate(63.476562 0)"/>
     <use xlink:href="#DejaVuSans-62" transform="translate(125 0)"/>
     <use xlink:href="#DejaVuSans-62" transform="translate(188.476562 0)"/>
     <use xlink:href="#DejaVuSans-6c" transform="translate(251.953125 0)"/>
     <use xlink:href="#DejaVuSans-65" transform="translate(279.736328 0)"/>
    </g>
   </g>
   <g id="text_21">
    <!-- handlebars -->
    <g style="fill: #ff7f0e" transform="translate(390.9225 229.354941) scale(0.08 -0.08)">
     <defs>
      <path id="DejaVuSans-64" d="M 2906 2969 
L 2906 4863 
L 3481 4863 
L 3481 0 
L 2906 0 
L 2906 525 
Q 2725 213 2448 61 
Q 2172 -91 1784 -91 
Q 1150 -91 751 415 
Q 353 922 353 1747 
Q 353 2572 751 3078 
Q 1150 3584 1784 3584 
Q 2172 3584 2448 3432 
Q 2725 3281 2906 2969 
z
M 947 1747 
Q 947 1113 1208 752 
Q 1469 391 1925 391 
Q 2381 391 2643 752 
Q 2906 1113 2906 1747 
Q 2906 2381 2643 2742 
Q 2381 3103 1925 3103 
Q 1469 3103 1208 2742 
Q 947 2381 947 1747 
z
" transform="scale(0.015625)"/>
     </defs>
     <use xlink:href="#DejaVuSans-68"/>
     <use xlink:href="#DejaVuSans-61" transform="translate(63.378906 0)"/>
     <use xlink:href="#DejaVuSans-6e" transform="translate(124.658203 0)"/>
     <use xlink:href="#DejaVuSans-64" transform="translate(188.037109 0)"/>
     <use xlink:href="#DejaVuSans-6c" transform="translate(251.513672 0)"/>
     <use xlink:href="#DejaVuSans-65" transform="translate(279.296875 0)"/>
     <use xlink:href="#DejaVuSans-62" transform="translate(340.820312 0)"/>
     <use xlink:href="#DejaVuSans-61" transform="translate(404.296875 0)"/>
     <use xlink:href="#DejaVuSans-72" transform="translate(465.576172 0)"/>
     <use xlink:href="#DejaVuSans-73" transform="translate(506.689453 0)"/>
    </g>
   </g>
   <g id="text_22">
    <!-- stringtemplate -->
    <g style="fill: #17becf" transform="translate(390.9225 224.877299) scale(0.08 -0.08)">
     <defs>
      <path id="DejaVuSans-67" d="M 2906 1791 
Q 2906 2416 2648 2759 
Q 2391 3103 1925 3103 
Q 1463 3103 1205 2759 
Q 947 2416 947 1791 
Q 947 1169 1205 825 
Q 1463 481 1925 481 
Q 2391 481 2648 825 
Q 2906 1169 2906 1791 
z
M 3481 434 
Q 3481 -459 3084 -895 
Q 2688 -1331 1869 -1331 
Q 1566 -1331 1297 -1286 
Q 1028 -1241 775 -1147 
L 775 -588 
Q 1028 -725 1275 -790 
Q 1522 -856 1778 -856 
Q 2344 -856 2625 -561 
Q 2906 -266 2906 331 
L 2906 616 
Q 2728 306 2450 153 
Q 2172 0 1784 0 
Q 1141 0 747 490 
Q 353 981 353 1791 
Q 353 2603 747 3093 
Q 1141 3584 1784 3584 
Q 2172 3584 2450 3431 
Q 2728 3278 2906 2969 
L 2906 3500 
L 3481 3500 
L 3481 434 
z
" transform="scale(0.015625)"/>
     </defs>
     <use xlink:href="#DejaVuSans-73"/>
     <use xlink:href="#DejaVuSans-74" transform="translate(52.099609 0)"/>
     <use xlink:href="#DejaVuSans-72" transform="translate(91.308594 0)"/>
     <use xlink:href="#DejaVuSans-69" transform="translate(132.421875 0)"/>
     <use xlink:href="#DejaVuSans-6e" transform="translate(160.205078 0)"/>
     <use xlink:href="#DejaVuSans-67" transform="translate(223.583984 0)"/>
     <use xlink:href="#DejaVuSans-74" transform="translate(287.060547 0)"/>
     <use xlink:href="#DejaVuSans-65" transform="translate(326.269531 0)"/>
     <use xlink:href="#DejaVuSans-6d" transform="translate(387.792969 0)"/>
     <use xlink:href="#DejaVuSans-70" transform="translate(485.205078 0)"/>
     <use xlink:href="#DejaVuSans-6c" transform="translate(548.681641 0)"/>
     <use xlink:href="#DejaVuSans-61" transform="translate(576.464844 0)"/>
     <use xlink:href="#DejaVuSans-74" transform="translate(637.744141 0)"/>
     <use xlink:href="#DejaVuSans-65" transform="translate(676.953125 0)"/>
    </g>
   </g>
   <g id="text_23">
    <!-- freemarker -->
    <g style="fill: #1f77b4" transform="translate(390.9225 197.034508) scale(0.08 -0.08)">
     <defs>
      <path id="DejaVuSans-66" d="M 2375 4863 
L 2375 4384 
L 1825 4384 
Q 1516 4384 1395 4259 
Q 1275 4134 1275 3809 
L 1275 3500 
L 2222 3500 
L 2222 3053 
L 1275 3053 
L 1275 0 
L 697 0 
L 697 3053 
L 147 3053 
L 147 3500 
L 697 3500 
L 697 3744 
Q 697 4328 969 4595 
Q 1241 4863 1831 4863 
L 2375 4863 
z
" transform="scale(0.015625)"/>
      <path id="DejaVuSans-6b" d="M 581 4863 
L 1159 4863 
L 1159 1991 
L 2875 3500 
L 3609 3500 
L 1753 1863 
L 3688 0 
L 2938 0 
L 1159 1709 
L 1159 0 
L 581 0 
L 581 4863 
z
" transform="scale(0.015625)"/>
     </defs>
     <use xlink:href="#DejaVuSans-66"/>
     <use xlink:href="#DejaVuSans-72" transform="translate(35.205078 0)"/>
     <use xlink:href="#DejaVuSans-65" transform="translate(74.068359 0)"/>
     <use xlink:href="#DejaVuSans-65" transform="translate(135.591797 0)"/>
     <use xlink:href="#DejaVuSans-6d" transform="translate(197.115234 0)"/>
     <use xlink:href="#DejaVuSans-61" transform="translate(294.527344 0)"/>
     <use xlink:href="#DejaVuSans-72" transform="translate(355.806641 0)"/>
     <use xlink:href="#DejaVuSans-6b" transform="translate(396.919922 0)"/>
     <use xlink:href="#DejaVuSans-65" transform="translate(451.205078 0)"/>
     <use xlink:href="#DejaVuSans-72" transform="translate(512.728516 0)"/>
    </g>
   </g>
   <g id="text_24">
    <!-- stringtree -->
    <g style="fill: #1f77b4" transform="translate(390.9225 163.452194) scale(0.08 -0.08)">
     <use xlink:href="#DejaVuSans-73"/>
     <use xlink:href="#DejaVuSans-74" transform="translate(52.099609 0)"/>
     <use xlink:href="#DejaVuSans-72" transform="translate(91.308594 0)"/>
     <use xlink:href="#DejaVuSans-69" transform="translate(132.421875 0)"/>
     <use xlink:href="#DejaVuSans-6e" transform="translate(160.205078 0)"/>
     <use xlink:href="#DejaVuSans-67" transform="translate(223.583984 0)"/>
     <use xlink:href="#DejaVuSans-74" transform="translate(287.060547 0)"/>
     <use xlink:href="#DejaVuSans-72" transform="translate(326.269531 0)"/>
     <use xlink:href="#DejaVuSans-65" transform="translate(365.132812 0)"/>
     <use xlink:href="#DejaVuSans-65" transform="translate(426.65625 0)"/>
    </g>
   </g>
   <g id="text_25">
    <!-- hapax -->
    <g style="fill: #2ca02c" transform="translate(390.9225 66.572308) scale(0.08 -0.08)">
     <defs>
      <path id="DejaVuSans-78" d="M 3513 3500 
L 2247 1797 
L 3578 0 
L 2900 0 
L 1881 1375 
L 863 0 
L 184 0 
L 1544 1831 
L 300 3500 
L 978 3500 
L 1906 2253 
L 2834 3500 
L 3513 3500 
z
" transform="scale(0.015625)"/>
     </defs>
     <use xlink:href="#DejaVuSans-68"/>
     <use xlink:href="#DejaVuSans-61" transform="translate(63.378906 0)"/>
     <use xlink:href="#DejaVuSans-70" transform="translate(124.658203 0)"/>
     <use xlink:href="#DejaVuSans-61" transform="translate(188.134766 0)"/>
     <use xlink:href="#DejaVuSans-78" transform="translate(249.414062 0)"/>
    </g>
   </g>
   <g id="text_26">
    <!-- thymeleaf -->
    <g style="fill: #ff7f0e" transform="translate(390.9225 51.592561) scale(0.08 -0.08)">
     <defs>
      <path id="DejaVuSans-79" d="M 2059 -325 
Q 1816 -950 1584 -1140 
Q 1353 -1331 966 -1331 
L 506 -1331 
L 506 -850 
L 844 -850 
Q 1081 -850 1212 -737 
Q 1344 -625 1503 -206 
L 1606 56 
L 191 3500 
L 800 3500 
L 1894 763 
L 2988 3500 
L 3597 3500 
L 2059 -325 
z
" transform="scale(0.015625)"/>
     </defs>
     <use xlink:href="#DejaVuSans-74"/>
     <use xlink:href="#DejaVuSans-68" transform="translate(39.208984 0)"/>
     <use xlink:href="#DejaVuSans-79" transform="translate(102.587891 0)"/>
     <use xlink:href="#DejaVuSans-6d" transform="translate(161.767578 0)"/>
     <use xlink:href="#DejaVuSans-65" transform="translate(259.179688 0)"/>
     <use xlink:href="#DejaVuSans-6c" transform="translate(320.703125 0)"/>
     <use xlink:href="#DejaVuSans-65" transform="translate(348.486328 0)"/>
     <use xlink:href="#DejaVuSans-61" transform="translate(410.009766 0)"/>
     <use xlink:href="#DejaVuSans-66" transform="translate(471.289062 0)"/>
    </g>
   </g>
   <g id="text_27">
    <!-- velocity -->
    <g style="fill: #d62728" transform="translate(390.9225 43.899158) scale(0.08 -0.08)">
     <defs>
      <path id="DejaVuSans-76" d="M 191 3500 
L 800 3500 
L 1894 563 
L 2988 3500 
L 3597 3500 
L 2284 0 
L 1503 0 
L 191 3500 
z
" transform="scale(0.015625)"/>
     </defs>
     <use xlink:href="#DejaVuSans-76"/>
     <use xlink:href="#DejaVuSans-65" transform="translate(59.179688 0)"/>
     <use xlink:href="#DejaVuSans-6c" transform="translate(120.703125 0)"/>
     <use xlink:href="#DejaVuSans-6f" transform="translate(148.486328 0)"/>
     <use xlink:href="#DejaVuSans-63" transform="translate(209.667969 0)"/>
     <use xlink:href="#DejaVuSans-69" transform="translate(264.648438 0)"/>
     <use xlink:href="#DejaVuSans-74" transform="translate(292.431641 0)"/>
     <use xlink:href="#DejaVuSans-79" transform="translate(331.640625 0)"/>
    </g>
   </g>
   <g id="text_28">
    <!-- jte -->
    <g style="fill: #8c564b" transform="translate(390.9225 36.002226) scale(0.08 -0.08)">
     <use xlink:href="#DejaVuSans-6a"/>
     <use xlink:href="#DejaVuSans-74" transform="translate(27.783203 0)"/>
     <use xlink:href="#DejaVuSans-65" transform="translate(66.992188 0)"/>
    </g>
   </g>
   <g id="text_29">
    <!-- jangod -->
    <g style="fill: #d62728" transform="translate(390.9225 26.354943) scale(0.08 -0.08)">
     <use xlink:href="#DejaVuSans-6a"/>
     <use xlink:href="#DejaVuSans-61" transform="translate(27.783203 0)"/>
     <use xlink:href="#DejaVuSans-6e" transform="translate(89.0625 0)"/>
     <use xlink:href="#DejaVuSans-67" transform="translate(152.441406 0)"/>
     <use xlink:href="#DejaVuSans-6f" transform="translate(215.917969 0)"/>
     <use xlink:href="#DejaVuSans-64" transform="translate(277.099609 0)"/>
    </g>
   </g>
  </g>
 </g>
 <defs>
  <clipPath id="pe71fda07eb">
   <rect x="56.928125" y="10.8" width="327.994375" height="293.64375"/>
  </clipPath>
 </defs>
</svg>
